<?xml version="1.0" encoding="UTF-8" standalone="no"?>
<!-- Created with Inkscape (http://www.inkscape.org/) -->

<svg
   xmlns:dc="http://purl.org/dc/elements/1.1/"
   xmlns:cc="http://creativecommons.org/ns#"
   xmlns:rdf="http://www.w3.org/1999/02/22-rdf-syntax-ns#"
   xmlns:svg="http://www.w3.org/2000/svg"
   xmlns="http://www.w3.org/2000/svg"
   xmlns:sodipodi="http://sodipodi.sourceforge.net/DTD/sodipodi-0.dtd"
   xmlns:inkscape="http://www.inkscape.org/namespaces/inkscape"
   width="20.32mm"
   height="128.5mm"
   viewBox="0 0 20.32 128.5"
   version="1.1"
   id="svg8"
   inkscape:version="0.92.1 r15371"
   sodipodi:docname="2mult4.svg">
  <defs
     id="defs2">
    <inkscape:path-effect
       effect="simplify"
       id="path-effect5498"
       is_visible="true"
       steps="1"
       threshold="0.000408163"
       smooth_angles="360"
       helper_size="0"
       simplify_individual_paths="false"
       simplify_just_coalesce="false"
       simplifyindividualpaths="false"
       simplifyJustCoalesce="false" />
    <inkscape:path-effect
       effect="simplify"
       id="path-effect5494"
       is_visible="true"
       steps="1"
       threshold="0.000408163"
       smooth_angles="360"
       helper_size="0"
       simplify_individual_paths="false"
       simplify_just_coalesce="false"
       simplifyindividualpaths="false"
       simplifyJustCoalesce="false" />
  </defs>
  <sodipodi:namedview
     id="base"
     pagecolor="#262626"
     bordercolor="#666666"
     borderopacity="1.0"
     inkscape:pageopacity="0"
     inkscape:pageshadow="2"
     inkscape:zoom="2.8"
     inkscape:cx="-79.659958"
     inkscape:cy="84.672838"
     inkscape:document-units="mm"
     inkscape:current-layer="layer1"
     showgrid="false"
     inkscape:window-width="1827"
     inkscape:window-height="1057"
     inkscape:window-x="-8"
     inkscape:window-y="-8"
     inkscape:window-maximized="1"
     showguides="true"
     inkscape:snap-grids="false"
     inkscape:guide-bbox="true"
     inkscape:snap-bbox="true"
     inkscape:bbox-paths="true"
     inkscape:snap-bbox-edge-midpoints="true"
     inkscape:bbox-nodes="true"
     inkscape:snap-bbox-midpoints="true">
    <inkscape:grid
       type="xygrid"
       id="grid31" />
    <sodipodi:guide
       position="0,0"
       orientation="0,192"
       id="guide4607"
       inkscape:locked="false" />
    <sodipodi:guide
       position="50.799999,128.5"
       orientation="0,-192"
       id="guide4611"
       inkscape:locked="false" />
    <sodipodi:guide
       position="0,128.5"
       orientation="485.66929,0"
       id="guide4613"
       inkscape:locked="false" />
    <sodipodi:guide
       position="2.0000001,118.65625"
       orientation="1,0"
       id="guide4615"
       inkscape:locked="false"
       inkscape:label=""
       inkscape:color="rgb(0,0,255)" />
    <sodipodi:guide
       position="18.320001,113.45592"
       orientation="1,0"
       id="guide4617"
       inkscape:locked="false"
       inkscape:label=""
       inkscape:color="rgb(0,0,255)" />
    <sodipodi:guide
       position="12.851191,49.444991"
       orientation="1,0"
       id="guide4619"
       inkscape:locked="false" />
    <sodipodi:guide
       position="10.160001,105.62151"
       orientation="1,0"
       id="guide4637"
       inkscape:locked="false" />
    <sodipodi:guide
       position="10.160001,116"
       orientation="0,1"
       id="guide4776"
       inkscape:locked="false" />
    <sodipodi:guide
       position="10.160001,23.724"
       orientation="0,1"
       id="guide4778"
       inkscape:locked="false" />
    <sodipodi:guide
       position="10.160001,15.000001"
       orientation="0,1"
       id="guide4780"
       inkscape:locked="false"
       inkscape:label=""
       inkscape:color="rgb(0,0,255)" />
    <sodipodi:guide
       position="10.16,11.5"
       orientation="0,1"
       id="guide4782"
       inkscape:locked="false" />
    <sodipodi:guide
       position="10.16,106"
       orientation="0,1"
       id="guide4784"
       inkscape:locked="false"
       inkscape:label=""
       inkscape:color="rgb(0,0,255)" />
    <sodipodi:guide
       position="-4.2994793,104"
       orientation="0,1"
       id="guide4786"
       inkscape:locked="false"
       inkscape:label=""
       inkscape:color="rgb(0,0,255)" />
    <sodipodi:guide
       position="10.160001,51.500002"
       orientation="0,1"
       id="guide4858"
       inkscape:locked="false"
       inkscape:label=""
       inkscape:color="rgb(0,0,255)" />
    <sodipodi:guide
       position="10.165169,5.8861601"
       orientation="0,1"
       id="guide4864"
       inkscape:locked="false" />
    <sodipodi:guide
       position="10.16,49.500002"
       orientation="0,1"
       id="guide4870"
       inkscape:locked="false"
       inkscape:label=""
       inkscape:color="rgb(0,0,255)" />
    <sodipodi:guide
       position="10.160001,64.000003"
       orientation="0,1"
       id="guide4872"
       inkscape:locked="false"
       inkscape:label=""
       inkscape:color="rgb(0,0,255)" />
    <sodipodi:guide
       position="29.800554,66.000003"
       orientation="0,1"
       id="guide4874"
       inkscape:locked="false"
       inkscape:label=""
       inkscape:color="rgb(0,0,255)" />
    <sodipodi:guide
       position="10.16,10"
       orientation="0,1"
       id="guide4902"
       inkscape:locked="false" />
    <sodipodi:guide
       position="10.160001,69.500003"
       orientation="0,1"
       id="guide4904"
       inkscape:locked="false"
       inkscape:label=""
       inkscape:color="rgb(0,0,255)" />
  </sodipodi:namedview>
  <metadata
     id="metadata5">
    <rdf:RDF>
      <cc:Work
         rdf:about="">
        <dc:format>image/svg+xml</dc:format>
        <dc:type
           rdf:resource="http://purl.org/dc/dcmitype/StillImage" />
        <dc:title></dc:title>
      </cc:Work>
    </rdf:RDF>
  </metadata>
  <g
     inkscape:label="panel"
     inkscape:groupmode="layer"
     id="layer1"
     transform="translate(0,-168.5)"
     style="display:inline">
    <rect
       style="opacity:1;fill:#e6e6e6;stroke-width:0.26458332"
       id="rect39"
       width="20.32"
       height="128.5"
       x="-5.5511152e-018"
       y="168.5" />
    <text
       xml:space="preserve"
       style="font-style:normal;font-weight:normal;font-size:4.93888855px;line-height:1.25;font-family:sans-serif;letter-spacing:0px;word-spacing:0px;fill:#000000;fill-opacity:1;stroke:none;stroke-width:0.26458332"
       x="6.1471992"
       y="177.26324"
       id="text3713"><tspan
         sodipodi:role="line"
         id="tspan3711"
         x="6.1471992"
         y="181.76915"
         style="stroke-width:0.26458332" /></text>
    <g
       aria-label="a"
       style="font-style:normal;font-variant:normal;font-weight:normal;font-stretch:normal;font-size:14.11111069px;line-height:1.25;font-family:'Opus Special Extra Std';-inkscape-font-specification:'Opus Special Extra Std';letter-spacing:0px;word-spacing:0px;fill:#ffcc00;fill-opacity:1;stroke:none;stroke-width:0.26458332"
       id="text3719" />
    <rect
       style="opacity:1;fill:#666666;stroke:none;stroke-width:0.26499999;stroke-miterlimit:4;stroke-dasharray:none;stroke-dashoffset:0;stroke-opacity:1"
       id="rect3797"
       width="20.32"
       height="10"
       x="2.744981e-016"
       y="168.34375" />
    <rect
       style="display:inline;opacity:1;fill:#666666;stroke-width:0.26458332"
       id="rect3797-4"
       width="20.32"
       height="10"
       x="0"
       y="287" />
    <text
       xml:space="preserve"
       style="font-style:normal;font-variant:normal;font-weight:normal;font-stretch:normal;font-size:4.93888855px;line-height:1.25;font-family:'ornaments labels and frames';-inkscape-font-specification:'ornaments labels and frames, Normal';font-variant-ligatures:normal;font-variant-caps:normal;font-variant-numeric:normal;text-align:center;letter-spacing:0px;word-spacing:0px;writing-mode:lr-tb;text-anchor:middle;display:inline;fill:#000000;fill-opacity:1;stroke:none;stroke-width:0.26458332"
       x="30.067825"
       y="196.50633"
       id="text3786"><tspan
         sodipodi:role="line"
         id="tspan3784"
         x="30.067825"
         y="200.96446"
         style="stroke-width:0.26458332" /></text>
    <rect
       style="display:inline;opacity:1;fill:#333333;fill-opacity:1;stroke:none;stroke-width:0.26499993;stroke-miterlimit:4;stroke-dasharray:none;stroke-dashoffset:0;stroke-opacity:0.94779142"
       id="rect5407-5"
       width="16.32"
       height="38"
       x="1.9999999"
       y="247.5"
       rx="1.0000001"
       ry="1.0000008" />
    <g
       transform="matrix(1.8133333,0,0,1,-66.628621,77.64139)"
       aria-label="out"
       style="font-style:normal;font-variant:normal;font-weight:normal;font-stretch:normal;font-size:3.52777767px;line-height:1.25;font-family:Steagisler;-inkscape-font-specification:Steagisler;font-variant-ligatures:normal;font-variant-caps:normal;font-variant-numeric:normal;font-feature-settings:normal;text-align:center;letter-spacing:0px;word-spacing:0px;writing-mode:lr-tb;text-anchor:middle;display:inline;fill:#f9f9f9;fill-opacity:1;stroke:none;stroke-width:0.19648239"
       id="text4639" />
    <g
       aria-label="adsynth."
       style="font-style:normal;font-variant:normal;font-weight:normal;font-stretch:normal;font-size:3.52777767px;line-height:1.25;font-family:Steagisler;-inkscape-font-specification:Steagisler;font-variant-ligatures:normal;font-variant-caps:normal;font-variant-numeric:normal;font-feature-settings:normal;text-align:start;letter-spacing:0px;word-spacing:0px;writing-mode:lr-tb;text-anchor:start;fill:#f2f2f2;fill-opacity:1;stroke:none;stroke-width:0.26458332"
       id="text5305"
       transform="translate(0.94332385,-6.7635894)">
      <path
         d="M 4.4762234,184.17319 H 4.0697021 q -0.020671,-0.0465 -0.034451,-0.0965 -0.00345,-0.012 -0.015503,-0.0155 -0.00345,-0.002 -0.00517,-0.002 -0.00689,0 -0.01378,0.007 -0.1498616,0.15503 -0.4220242,0.15503 Q 3,184.22142 3,183.65298 q 0,-0.34107 0.3479546,-0.47026 0.1653646,-0.062 0.3410645,-0.062 0.1464165,0 0.3014458,0.0431 0.00345,0.002 0.00517,0.002 0.00689,0 0.012058,-0.005 0.00861,-0.005 0.00861,-0.0155 v -0.28078 q 0,-0.12574 -0.09474,-0.20154 -0.08785,-0.0689 -0.2153185,-0.0689 -0.1274685,0 -0.2153184,0.0689 -0.09474,0.0758 -0.09474,0.20154 v 0.0413 H 3.0206706 v -0.0568 q 0,-0.28422 0.2101508,-0.45303 0.1946479,-0.15675 0.4857584,-0.15675 0.2911106,0 0.4857585,0.15675 0.2084283,0.16881 0.2084283,0.45303 v 1.0542 q 0,0.12402 0.065457,0.27044 z m -0.4599203,-0.72003 q 0,-0.0138 -0.01378,-0.0189 -0.1205784,-0.0431 -0.2446018,-0.0431 -0.062012,0 -0.125746,0.0103 -0.235989,0.0396 -0.235989,0.23771 0,0.2291 0.3100585,0.2291 0.1274686,0 0.2153185,-0.0689 0.09474,-0.0758 0.09474,-0.19981 z"
         style="text-align:start;text-anchor:start;fill:#f2f2f2;fill-opacity:1;stroke-width:0.26458332"
         id="path5311"
         inkscape:connector-curvature="0" />
      <path
         d="M 6.3072915,184.17319 H 5.9024928 q -0.022393,-0.0448 -0.034451,-0.0947 -0.00345,-0.0103 -0.015503,-0.0138 -0.00345,-0.002 -0.00517,-0.002 -0.00689,0 -0.01378,0.007 -0.1515842,0.15159 -0.4220241,0.15159 -0.2824979,0 -0.4340821,-0.16364 -0.144694,-0.15848 -0.144694,-0.44614 v -0.76309 q 0,-0.28594 0.1550293,-0.44614 0.1567519,-0.16364 0.4409722,-0.16364 0.2342665,0 0.3858507,0.11368 0.00517,0.005 0.012058,0.005 0.00345,0 0.00861,-0.003 0.012058,-0.005 0.012058,-0.0172 v -0.80443 h 0.396186 v 2.37023 q 0,0.12402 0.063734,0.27044 z m -0.4599202,-1.30914 q 0,-0.12574 -0.09474,-0.20154 -0.086127,-0.0689 -0.2153185,-0.0689 -0.1274685,0 -0.2153184,0.0689 -0.093018,0.0758 -0.093018,0.20154 v 0.73381 q 0,0.12402 0.093018,0.19981 0.08785,0.0706 0.2153184,0.0706 0.1291911,0 0.2153185,-0.0706 0.09474,-0.0758 0.09474,-0.19981 z"
         style="text-align:start;text-anchor:start;fill:#f2f2f2;fill-opacity:1;stroke-width:0.26458332"
         id="path5313"
         inkscape:connector-curvature="0" />
      <path
         d="m 7.0083684,183.61508 q 0,0.12058 0.093018,0.18948 0.084405,0.0637 0.2084283,0.0637 0.1240234,0 0.2084283,-0.0637 0.093018,-0.0689 0.093018,-0.18948 0,-0.12574 -0.1550293,-0.17225 -0.1412489,-0.0413 -0.3341742,-0.0775 -0.2428792,-0.0586 -0.3669027,-0.20326 -0.1223008,-0.14641 -0.1223008,-0.36001 0,-0.27044 0.2084282,-0.42375 0.1877577,-0.1378 0.468533,-0.1378 0.2807753,0 0.468533,0.1378 0.2084282,0.15331 0.2084282,0.42375 v 0.10163 H 7.6112601 v -0.0603 q 0,-0.11886 -0.08785,-0.18776 -0.079237,-0.0637 -0.2032606,-0.0637 -0.1223009,0 -0.2032606,0.0637 -0.08785,0.0689 -0.08785,0.18776 0,0.12747 0.1550293,0.16881 0.1963705,0.0517 0.3341743,0.0758 0.2256537,0.0482 0.3565673,0.17398 0.1326362,0.12402 0.1326362,0.36346 0,0.30317 -0.2153185,0.45819 -0.1912027,0.13781 -0.471978,0.13781 -0.2807753,0 -0.4719781,-0.13781 -0.2153184,-0.15502 -0.2153184,-0.42374 v -0.10508 h 0.3755153 z"
         style="text-align:start;text-anchor:start;fill:#f2f2f2;fill-opacity:1;stroke-width:0.26458332"
         id="path5315"
         inkscape:connector-curvature="0" />
      <path
         d="M 8.898003,184.04055 H 8.7033551 l -0.4805908,-1.76217 h 0.3892958 l 0.3376194,1.3746 q 0.00345,0.0172 0.018948,0.0172 0.017226,0 0.020671,-0.0172 l 0.2824978,-1.3746 h 0.3892958 l -0.6097819,2.71646 H 8.662014 Z"
         style="text-align:start;text-anchor:start;fill:#f2f2f2;fill-opacity:1;stroke-width:0.26458332"
         id="path5317"
         inkscape:connector-curvature="0" />
      <path
         d="m 10.319105,182.41102 q 0.0034,0.0155 0.02239,0.0155 0.0086,0 0.0155,-0.009 0.156752,-0.17914 0.454753,-0.17914 0.28422,0 0.440972,0.16192 0.155029,0.16192 0.155029,0.44786 v 1.32464 h -0.396186 v -1.30914 q 0,-0.12574 -0.09302,-0.20154 -0.08785,-0.0706 -0.215319,-0.0706 -0.129191,0 -0.215318,0.0706 -0.09474,0.0758 -0.09474,0.20154 v 1.30914 H 9.9969887 v -1.89481 h 0.2911103 z"
         style="text-align:start;text-anchor:start;fill:#f2f2f2;fill-opacity:1;stroke-width:0.26458332"
         id="path5319"
         inkscape:connector-curvature="0" />
      <path
         d="m 11.647189,182.27838 h 0.227376 q 0.02067,0 0.02067,-0.0207 v -0.49609 h 0.396186 v 0.49609 q 0,0.0207 0.02067,0.0207 h 0.366902 v 0.30145 h -0.366902 q -0.02067,0 -0.02067,0.0207 v 1.03008 q 0.01206,0.25839 0.192925,0.25839 0.08613,0 0.194648,-0.0207 v 0.30489 q -0.132636,0.0482 -0.266995,0.0482 -0.502984,-0.002 -0.516764,-0.55811 v -1.06281 q 0,-0.0207 -0.02067,-0.0207 h -0.227376 z"
         style="text-align:start;text-anchor:start;fill:#f2f2f2;fill-opacity:1;stroke-width:0.26458332"
         id="path5321"
         inkscape:connector-curvature="0" />
      <path
         d="m 13.517876,181.53252 v 0.80443 q 0,0.0121 0.01206,0.0172 0.0052,0.003 0.0086,0.003 0.0069,0 0.01206,-0.005 0.151584,-0.11368 0.38585,-0.11368 0.284221,0 0.440973,0.16192 0.155029,0.16192 0.155029,0.44786 v 1.32464 h -0.396186 v -1.30914 q 0,-0.12574 -0.09302,-0.20154 -0.08785,-0.0706 -0.215318,-0.0706 -0.129191,0 -0.215318,0.0706 -0.09474,0.0758 -0.09474,0.20154 v 1.30914 H 13.12169 v -2.64067 z"
         style="text-align:start;text-anchor:start;fill:#f2f2f2;fill-opacity:1;stroke-width:0.26458332"
         id="path5323"
         inkscape:connector-curvature="0" />
      <path
         d="m 15.181857,183.72016 q 0.105076,0 0.179145,0.0741 0.07235,0.0741 0.07235,0.17742 0,0.10335 -0.07235,0.17742 -0.07407,0.0741 -0.179145,0.0741 -0.103353,0 -0.177422,-0.0741 -0.07235,-0.0741 -0.07235,-0.17742 0,-0.10335 0.07235,-0.17742 0.07407,-0.0741 0.177422,-0.0741 z"
         style="text-align:start;text-anchor:start;fill:#f2f2f2;fill-opacity:1;stroke-width:0.26458332"
         id="path5325"
         inkscape:connector-curvature="0" />
    </g>
    <rect
       style="display:inline;opacity:0.98000004;fill:#f2f2f2;fill-opacity:1;stroke:none;stroke-width:0.26499999;stroke-miterlimit:4;stroke-dasharray:none;stroke-dashoffset:0;stroke-opacity:0.94779142"
       id="rect5407"
       width="16.320002"
       height="10"
       x="1.999999"
       y="181"
       rx="1.0000006"
       ry="1.0000006" />
    <g
       transform="translate(-4.1528303,-22.830158)"
       aria-label="in"
       style="font-style:normal;font-variant:normal;font-weight:normal;font-stretch:normal;font-size:3.52777767px;line-height:1.25;font-family:Steagisler;-inkscape-font-specification:Steagisler;font-variant-ligatures:normal;font-variant-caps:normal;font-variant-numeric:normal;font-feature-settings:normal;text-align:center;letter-spacing:0px;word-spacing:0px;writing-mode:lr-tb;text-anchor:middle;display:inline;fill:#000000;fill-opacity:1;stroke:none;stroke-width:0.26458332"
       id="text4627">
      <path
         inkscape:connector-curvature="0"
         d="m 7.0936859,204.35933 q 0.1050754,0 0.1774224,0.0724 0.07407,0.0741 0.07407,0.17742 0,0.10508 -0.07407,0.17915 -0.072347,0.0724 -0.1774224,0.0724 -0.1033529,0 -0.1774224,-0.0724 -0.07407,-0.0741 -0.07407,-0.17915 0,-0.10335 0.07407,-0.17742 0.074069,-0.0724 0.1774224,-0.0724 z M 7.2917788,207 H 6.8955929 v -1.57269 q 0,-0.0207 -0.020671,-0.0207 H 6.681997 v -0.30144 h 0.6097818 z"
         style="stroke-width:0.26458332"
         id="path4755" />
      <path
         inkscape:connector-curvature="0"
         d="m 8.1668331,205.23783 q 0.00345,0.0155 0.022393,0.0155 0.00861,0 0.015503,-0.009 0.1567518,-0.17914 0.4547526,-0.17914 0.2842203,0 0.4409722,0.16192 0.1550293,0.16192 0.1550293,0.44786 V 207 h -0.396186 v -1.30914 q 0,-0.12574 -0.093018,-0.20153 -0.08785,-0.0706 -0.2153184,-0.0706 -0.1291911,0 -0.2153185,0.0706 -0.09474,0.0758 -0.09474,0.20153 V 207 h -0.396186 v -1.8948 h 0.2911106 z"
         style="stroke-width:0.26458332"
         id="path4757" />
    </g>
    <g
       aria-label="out"
       style="font-style:normal;font-variant:normal;font-weight:normal;font-stretch:normal;font-size:3.52777767px;line-height:1.25;font-family:Steagisler;-inkscape-font-specification:Steagisler;font-variant-ligatures:normal;font-variant-caps:normal;font-variant-numeric:normal;font-feature-settings:normal;text-align:center;letter-spacing:0px;word-spacing:0px;writing-mode:lr-tb;text-anchor:middle;fill:#f2f2f2;fill-opacity:1;stroke:none;stroke-width:0.26458332"
       id="text4774"
       transform="translate(0.010145,-0.07405)">
      <path
         d="m 12.989855,283.70118 q 0,-0.28422 0.215318,-0.45303 0.198093,-0.15675 0.489204,-0.15675 0.292833,0 0.490926,0.15675 0.215319,0.16881 0.215319,0.45303 v 0.76309 q 0,0.28422 -0.215319,0.45475 -0.198093,0.15503 -0.490926,0.15503 -0.291111,0 -0.489204,-0.15503 -0.215318,-0.17053 -0.215318,-0.45475 z m 1.014581,0.0155 q 0,-0.12574 -0.09474,-0.20154 -0.08785,-0.0689 -0.215318,-0.0689 -0.127469,0 -0.215318,0.0689 -0.09302,0.0758 -0.09302,0.20154 v 0.73381 q 0,0.12402 0.09302,0.19981 0.08785,0.0706 0.215318,0.0706 0.127469,0 0.215318,-0.0706 0.09474,-0.0758 0.09474,-0.19981 z"
         style="fill:#f2f2f2;stroke-width:0.26458332"
         id="path4803"
         inkscape:connector-curvature="0" />
      <path
         d="m 15.849284,284.90179 q -0.0034,-0.012 -0.0155,-0.0138 -0.0034,-0.002 -0.0069,-0.002 -0.0069,0 -0.01206,0.007 -0.158474,0.18087 -0.458197,0.18087 -0.284221,0 -0.440973,-0.16192 -0.155029,-0.16192 -0.155029,-0.44786 v -1.33325 h 0.396186 v 1.31774 q 0,0.12575 0.09302,0.20154 0.08785,0.0706 0.215318,0.0706 0.129191,0 0.215318,-0.0706 0.09474,-0.0758 0.09474,-0.20154 v -1.31774 h 0.396186 v 1.8948 H 15.88029 Z"
         style="fill:#f2f2f2;stroke-width:0.26458332"
         id="path4805"
         inkscape:connector-curvature="0" />
      <path
         d="m 16.510742,283.13102 h 0.227377 q 0.02067,0 0.02067,-0.0207 v -0.49609 h 0.396186 v 0.49609 q 0,0.0207 0.02067,0.0207 h 0.366902 v 0.30144 h -0.366902 q -0.02067,0 -0.02067,0.0207 v 1.03009 q 0.01206,0.25838 0.192926,0.25838 0.08613,0 0.194647,-0.0207 v 0.30489 q -0.132636,0.0482 -0.266994,0.0482 -0.502984,-0.002 -0.516765,-0.55811 v -1.06281 q 0,-0.0207 -0.02067,-0.0207 h -0.227377 z"
         style="fill:#f2f2f2;stroke-width:0.26458332"
         id="path4807"
         inkscape:connector-curvature="0" />
    </g>
    <rect
       style="display:inline;opacity:0.98000004;fill:#f2f2f2;fill-opacity:1;stroke:none;stroke-width:0.26499999;stroke-miterlimit:4;stroke-dasharray:none;stroke-dashoffset:0;stroke-opacity:0.94779142"
       id="rect5407-6"
       width="16.320002"
       height="10"
       x="1.9999995"
       y="235.59763"
       rx="1.0000006"
       ry="1.0000006" />
    <g
       transform="translate(-4.1528308,31.767463)"
       aria-label="in"
       style="font-style:normal;font-variant:normal;font-weight:normal;font-stretch:normal;font-size:3.52777767px;line-height:1.25;font-family:Steagisler;-inkscape-font-specification:Steagisler;font-variant-ligatures:normal;font-variant-caps:normal;font-variant-numeric:normal;font-feature-settings:normal;text-align:center;letter-spacing:0px;word-spacing:0px;writing-mode:lr-tb;text-anchor:middle;display:inline;fill:#000000;fill-opacity:1;stroke:none;stroke-width:0.26458332"
       id="text4627-8">
      <path
         inkscape:connector-curvature="0"
         d="m 7.0936859,204.35933 q 0.1050754,0 0.1774224,0.0724 0.07407,0.0741 0.07407,0.17742 0,0.10508 -0.07407,0.17915 -0.072347,0.0724 -0.1774224,0.0724 -0.1033529,0 -0.1774224,-0.0724 -0.07407,-0.0741 -0.07407,-0.17915 0,-0.10335 0.07407,-0.17742 0.074069,-0.0724 0.1774224,-0.0724 z M 7.2917788,207 H 6.8955929 v -1.57269 q 0,-0.0207 -0.020671,-0.0207 H 6.681997 v -0.30144 h 0.6097818 z"
         style="stroke-width:0.26458332"
         id="path4755-4" />
      <path
         inkscape:connector-curvature="0"
         d="m 8.1668331,205.23783 q 0.00345,0.0155 0.022393,0.0155 0.00861,0 0.015503,-0.009 0.1567518,-0.17914 0.4547526,-0.17914 0.2842203,0 0.4409722,0.16192 0.1550293,0.16192 0.1550293,0.44786 V 207 h -0.396186 v -1.30914 q 0,-0.12574 -0.093018,-0.20153 -0.08785,-0.0706 -0.2153184,-0.0706 -0.1291911,0 -0.2153185,0.0706 -0.09474,0.0758 -0.09474,0.20153 V 207 h -0.396186 v -1.8948 h 0.2911106 z"
         style="stroke-width:0.26458332"
         id="path4757-2" />
    </g>
    <g
       aria-label="2mult4"
       style="font-style:normal;font-variant:normal;font-weight:normal;font-stretch:normal;font-size:3.52777767px;line-height:1.25;font-family:Steagisler;-inkscape-font-specification:Steagisler;font-variant-ligatures:normal;font-variant-caps:normal;font-variant-numeric:normal;font-feature-settings:normal;text-align:center;letter-spacing:0px;word-spacing:0px;writing-mode:lr-tb;text-anchor:middle;fill:#000000;fill-opacity:1;stroke:none;stroke-width:0.26458332"
       id="text4868">
      <path
         d="m 5.080208,289.03127 q 0,-0.28767 0.2135959,-0.45647 0.1912028,-0.15159 0.4668104,-0.15159 0.2773302,0 0.468533,0.15159 0.2135959,0.1688 0.2135959,0.45647 v 0.19637 q 0,0.18604 -0.063734,0.32384 -0.041341,0.0878 -0.18259,0.27905 -0.067179,0.093 -0.163642,0.21188 -0.044786,0.0551 -0.1774225,0.21187 -0.110243,0.13264 -0.1739773,0.2136 -0.1688097,0.21359 -0.1688097,0.28938 0,0.0207 0.020671,0.0207 h 0.9060601 v 0.3359 H 5.0474796 v -0.14814 q 0,-0.28594 0.4289143,-0.81649 0.3892958,-0.48059 0.4254693,-0.53571 0.1395264,-0.20154 0.1395264,-0.38757 v -0.17915 q 0,-0.12574 -0.08785,-0.19981 -0.079237,-0.0655 -0.1929254,-0.0655 -0.1119656,0 -0.1912028,0.0655 -0.08785,0.0741 -0.08785,0.19981 v 0.17226 H 5.080208 Z"
         style="fill:#f2f2f2;stroke-width:0.26458332"
         id="path4942" />
      <path
         d="m 7.2919592,289.34477 q 0.00345,0.0155 0.020671,0.0155 0.00689,0 0.01378,-0.007 0.1515842,-0.17398 0.4409722,-0.17398 0.3238389,0 0.471978,0.2136 0.00689,0.009 0.017225,0.009 0.010335,0 0.017226,-0.009 0.1481391,-0.2136 0.4719781,-0.2136 0.2824978,0 0.4323594,0.16364 0.144694,0.15848 0.144694,0.44614 v 1.32464 H 8.926657 v -1.30914 q 0,-0.12574 -0.084405,-0.19981 -0.079237,-0.0723 -0.2067057,-0.0723 -0.125746,0 -0.2067057,0.0723 -0.084405,0.0741 -0.084405,0.19981 v 1.30914 h -0.396186 v -1.30914 q 0,-0.12574 -0.082682,-0.19981 -0.08096,-0.0723 -0.2084283,-0.0723 -0.125746,0 -0.2067057,0.0723 -0.082682,0.0741 -0.082682,0.19981 v 1.30914 h -0.396186 v -1.8948 h 0.2893881 z"
         style="fill:#f2f2f2;stroke-width:0.26458332"
         id="path4944" />
      <path
         d="m 10.874859,290.98981 q -0.0034,-0.0121 -0.0155,-0.0138 -0.0034,-0.002 -0.0069,-0.002 -0.0069,0 -0.01206,0.007 -0.158475,0.18087 -0.458198,0.18087 -0.284221,0 -0.4409723,-0.16192 -0.1550293,-0.16192 -0.1550293,-0.44786 v -1.33325 h 0.3961856 v 1.31775 q 0,0.12574 0.09302,0.20154 0.08785,0.0706 0.215318,0.0706 0.129191,0 0.215319,-0.0706 0.09474,-0.0758 0.09474,-0.20154 v -1.31775 h 0.396186 v 1.8948 h -0.291111 z"
         style="fill:#f2f2f2;stroke-width:0.26458332"
         id="path4946" />
      <path
         d="m 12.204665,291.11383 h -0.406521 q -0.05512,-0.11541 -0.05512,-0.25666 v -2.38401 h 0.396186 v 2.37023 q 0,0.12402 0.06546,0.27044 z"
         style="fill:#f2f2f2;stroke-width:0.26458332"
         id="path4948" />
      <path
         d="m 12.438932,289.21903 h 0.227376 q 0.02067,0 0.02067,-0.0207 v -0.4961 h 0.396186 v 0.4961 q 0,0.0207 0.02067,0.0207 h 0.366903 v 0.30144 h -0.366903 q -0.02067,0 -0.02067,0.0207 v 1.03009 q 0.01206,0.25838 0.192925,0.25838 0.08613,0 0.194648,-0.0207 v 0.30489 q -0.132636,0.0482 -0.266995,0.0482 -0.502984,-0.002 -0.516764,-0.5581 v -1.06282 q 0,-0.0207 -0.02067,-0.0207 h -0.227376 z"
         style="fill:#f2f2f2;stroke-width:0.26458332"
         id="path4950" />
      <path
         d="m 15.045146,290.36797 h 0.253215 v 0.33762 h -0.253215 v 0.40824 h -0.401353 v -0.40824 h -0.850939 v -0.1447 l 0.647678,-2.08773 h 0.604614 z m -0.401353,0 v -1.51929 l -0.416857,1.49345 q -0.0017,0.003 -0.0017,0.007 0,0.007 0.0052,0.0121 0.0069,0.007 0.0155,0.007 z"
         style="fill:#f2f2f2;stroke-width:0.26458332"
         id="path4952" />
    </g>
    <rect
       style="opacity:0.97000002;fill:#333333;fill-opacity:1;stroke:none;stroke-width:0.40000001;stroke-linecap:butt;stroke-miterlimit:4;stroke-dasharray:none;stroke-dashoffset:0;stroke-opacity:1;paint-order:normal"
       id="rect4876"
       width="16.32"
       height="37.999992"
       x="2"
       y="193"
       rx="1.0000006"
       ry="1.0000006" />
    <g
       transform="translate(0.010145,-54.544883)"
       aria-label="out"
       style="font-style:normal;font-variant:normal;font-weight:normal;font-stretch:normal;font-size:3.52777767px;line-height:1.25;font-family:Steagisler;-inkscape-font-specification:Steagisler;font-variant-ligatures:normal;font-variant-caps:normal;font-variant-numeric:normal;font-feature-settings:normal;text-align:center;letter-spacing:0px;word-spacing:0px;writing-mode:lr-tb;text-anchor:middle;display:inline;fill:#f2f2f2;fill-opacity:1;stroke:none;stroke-width:0.26458332"
       id="text4774-8">
      <path
         inkscape:connector-curvature="0"
         d="m 12.989855,283.70118 q 0,-0.28422 0.215318,-0.45303 0.198093,-0.15675 0.489204,-0.15675 0.292833,0 0.490926,0.15675 0.215319,0.16881 0.215319,0.45303 v 0.76309 q 0,0.28422 -0.215319,0.45475 -0.198093,0.15503 -0.490926,0.15503 -0.291111,0 -0.489204,-0.15503 -0.215318,-0.17053 -0.215318,-0.45475 z m 1.014581,0.0155 q 0,-0.12574 -0.09474,-0.20154 -0.08785,-0.0689 -0.215318,-0.0689 -0.127469,0 -0.215318,0.0689 -0.09302,0.0758 -0.09302,0.20154 v 0.73381 q 0,0.12402 0.09302,0.19981 0.08785,0.0706 0.215318,0.0706 0.127469,0 0.215318,-0.0706 0.09474,-0.0758 0.09474,-0.19981 z"
         style="fill:#f2f2f2;stroke-width:0.26458332"
         id="path4803-9" />
      <path
         inkscape:connector-curvature="0"
         d="m 15.849284,284.90179 q -0.0034,-0.012 -0.0155,-0.0138 -0.0034,-0.002 -0.0069,-0.002 -0.0069,0 -0.01206,0.007 -0.158474,0.18087 -0.458197,0.18087 -0.284221,0 -0.440973,-0.16192 -0.155029,-0.16192 -0.155029,-0.44786 v -1.33325 h 0.396186 v 1.31774 q 0,0.12575 0.09302,0.20154 0.08785,0.0706 0.215318,0.0706 0.129191,0 0.215318,-0.0706 0.09474,-0.0758 0.09474,-0.20154 v -1.31774 h 0.396186 v 1.8948 H 15.88029 Z"
         style="fill:#f2f2f2;stroke-width:0.26458332"
         id="path4805-1" />
      <path
         inkscape:connector-curvature="0"
         d="m 16.510742,283.13102 h 0.227377 q 0.02067,0 0.02067,-0.0207 v -0.49609 h 0.396186 v 0.49609 q 0,0.0207 0.02067,0.0207 h 0.366902 v 0.30144 h -0.366902 q -0.02067,0 -0.02067,0.0207 v 1.03009 q 0.01206,0.25838 0.192926,0.25838 0.08613,0 0.194647,-0.0207 v 0.30489 q -0.132636,0.0482 -0.266994,0.0482 -0.502984,-0.002 -0.516765,-0.55811 v -1.06281 q 0,-0.0207 -0.02067,-0.0207 h -0.227377 z"
         style="fill:#f2f2f2;stroke-width:0.26458332"
         id="path4807-8" />
    </g>
  </g>
  <g
     inkscape:groupmode="layer"
     id="layer2"
     inkscape:label="components"
     style="display:inline">
    <circle
       style="display:inline;opacity:1;fill:#00ff00;fill-opacity:1;stroke:none;stroke-width:0.39999998;stroke-linecap:butt;stroke-miterlimit:4;stroke-dasharray:none;stroke-dashoffset:0;stroke-opacity:1;paint-order:normal"
       id="path4623"
       cx="10.16"
       cy="17.5"
       inkscape:label="IN"
       r="2.5400002" />
    <circle
       style="display:inline;opacity:1;fill:#0000ff;fill-opacity:1;stroke:none;stroke-width:0.39999998;stroke-linecap:butt;stroke-miterlimit:4;stroke-dasharray:none;stroke-dashoffset:0;stroke-opacity:1;paint-order:normal"
       id="path4623-8"
       cx="10.16"
       cy="30.215004"
       inkscape:label="OUT"
       r="2.5400004" />
    <circle
       style="display:inline;opacity:1;fill:#0000ff;fill-opacity:1;stroke:none;stroke-width:0.39999998;stroke-linecap:butt;stroke-miterlimit:4;stroke-dasharray:none;stroke-dashoffset:0;stroke-opacity:1;paint-order:normal"
       id="path4623-8-1"
       cx="10.16"
       cy="47.711666"
       inkscape:label="OUT"
       r="2.5400004" />
    <circle
       style="display:inline;opacity:1;fill:#0000ff;fill-opacity:1;stroke:none;stroke-width:0.39999998;stroke-linecap:butt;stroke-miterlimit:4;stroke-dasharray:none;stroke-dashoffset:0;stroke-opacity:1;paint-order:normal"
       id="path4623-8-1-2"
       cx="10.16"
       cy="56.459999"
       inkscape:label="OUT"
       r="2.5400004" />
    <circle
       style="display:inline;opacity:1;fill:#00ff00;fill-opacity:1;stroke:none;stroke-width:0.39999998;stroke-linecap:butt;stroke-miterlimit:4;stroke-dasharray:none;stroke-dashoffset:0;stroke-opacity:1;paint-order:normal"
       id="path4623-8-1-2-6-3"
       cx="10.160001"
       cy="72.097618"
       inkscape:label="IN"
       r="2.5400004" />
    <circle
       style="display:inline;opacity:1;fill:#0000ff;fill-opacity:1;stroke:none;stroke-width:0.39999998;stroke-linecap:butt;stroke-miterlimit:4;stroke-dasharray:none;stroke-dashoffset:0;stroke-opacity:1;paint-order:normal"
       id="path4623-8-1-2-6-3-9"
       cx="10.16"
       cy="84.714996"
       inkscape:label="OUT"
       r="2.5400004" />
    <circle
       style="display:inline;opacity:1;fill:#0000ff;fill-opacity:1;stroke:none;stroke-width:0.39999998;stroke-linecap:butt;stroke-miterlimit:4;stroke-dasharray:none;stroke-dashoffset:0;stroke-opacity:1;paint-order:normal"
       id="path4623-8-1-2-6-3-9-4"
       cx="10.16"
       cy="110.96"
       inkscape:label="OUT"
       r="2.5400004" />
    <circle
       style="display:inline;opacity:1;fill:#0000ff;fill-opacity:1;stroke:none;stroke-width:0.39999998;stroke-linecap:butt;stroke-miterlimit:4;stroke-dasharray:none;stroke-dashoffset:0;stroke-opacity:1;paint-order:normal"
       id="path4623-8-1-2-6-3-9-3"
       cx="10.16"
       cy="102.21166"
       inkscape:label="OUT"
       r="2.5400004" />
    <circle
       style="display:inline;opacity:1;fill:#0000ff;fill-opacity:1;stroke:none;stroke-width:0.39999998;stroke-linecap:butt;stroke-miterlimit:4;stroke-dasharray:none;stroke-dashoffset:0;stroke-opacity:1;paint-order:normal"
       id="path4623-8-1-9"
       cx="10.16"
       cy="38.963337"
       inkscape:label="OUT"
       r="2.5400004" />
    <circle
       style="display:inline;opacity:1;fill:#0000ff;fill-opacity:1;stroke:none;stroke-width:0.39999998;stroke-linecap:butt;stroke-miterlimit:4;stroke-dasharray:none;stroke-dashoffset:0;stroke-opacity:1;paint-order:normal"
       id="path4623-8-1-7"
       cx="10.16"
       cy="93.463333"
       inkscape:label="OUT"
       r="2.5400004" />
  </g>
</svg>
