<?xml version="1.0" encoding="UTF-8" standalone="no"?>
<!-- Created with Inkscape (http://www.inkscape.org/) -->

<svg
   xmlns:dc="http://purl.org/dc/elements/1.1/"
   xmlns:cc="http://creativecommons.org/ns#"
   xmlns:rdf="http://www.w3.org/1999/02/22-rdf-syntax-ns#"
   xmlns:svg="http://www.w3.org/2000/svg"
   xmlns="http://www.w3.org/2000/svg"
   xmlns:sodipodi="http://sodipodi.sourceforge.net/DTD/sodipodi-0.dtd"
   xmlns:inkscape="http://www.inkscape.org/namespaces/inkscape"
   width="10.16mm"
   height="128.5mm"
   viewBox="0 0 10.16 128.5"
   version="1.1"
   id="svg8"
   inkscape:version="0.92.1 r15371"
   sodipodi:docname="2mult4.svg">
  <defs
     id="defs2">
    <inkscape:path-effect
       effect="simplify"
       id="path-effect5498"
       is_visible="true"
       steps="1"
       threshold="0.000408163"
       smooth_angles="360"
       helper_size="0"
       simplify_individual_paths="false"
       simplify_just_coalesce="false"
       simplifyindividualpaths="false"
       simplifyJustCoalesce="false" />
    <inkscape:path-effect
       effect="simplify"
       id="path-effect5494"
       is_visible="true"
       steps="1"
       threshold="0.000408163"
       smooth_angles="360"
       helper_size="0"
       simplify_individual_paths="false"
       simplify_just_coalesce="false"
       simplifyindividualpaths="false"
       simplifyJustCoalesce="false" />
  </defs>
  <sodipodi:namedview
     id="base"
     pagecolor="#262626"
     bordercolor="#666666"
     borderopacity="1.0"
     inkscape:pageopacity="0"
     inkscape:pageshadow="2"
     inkscape:zoom="256"
     inkscape:cx="21.378779"
     inkscape:cy="19.302356"
     inkscape:document-units="mm"
     inkscape:current-layer="layer1"
     showgrid="false"
     inkscape:window-width="1857"
     inkscape:window-height="1057"
     inkscape:window-x="-8"
     inkscape:window-y="-8"
     inkscape:window-maximized="1"
     showguides="true"
     inkscape:snap-grids="false"
     inkscape:guide-bbox="true"
     inkscape:snap-bbox="true"
     inkscape:bbox-paths="true"
     inkscape:snap-bbox-edge-midpoints="true"
     inkscape:bbox-nodes="true"
     inkscape:snap-bbox-midpoints="true"
     fit-margin-top="0"
     fit-margin-left="0"
     fit-margin-right="0"
     fit-margin-bottom="0">
    <inkscape:grid
       type="xygrid"
       id="grid31"
       originx="2.7755578e-018"
       originy="1.5039822e-014" />
    <sodipodi:guide
       position="2.7755577e-018,1.5039822e-014"
       orientation="0,192"
       id="guide4607"
       inkscape:locked="false" />
    <sodipodi:guide
       position="50.799999,128.5"
       orientation="0,-192"
       id="guide4611"
       inkscape:locked="false" />
    <sodipodi:guide
       position="2.7755577e-018,128.5"
       orientation="485.66929,0"
       id="guide4613"
       inkscape:locked="false" />
    <sodipodi:guide
       position="1,118.65625"
       orientation="1,0"
       id="guide4615"
       inkscape:locked="false"
       inkscape:label=""
       inkscape:color="rgb(0,0,255)" />
    <sodipodi:guide
       position="9.1600004,113.45592"
       orientation="1,0"
       id="guide4617"
       inkscape:locked="false"
       inkscape:label=""
       inkscape:color="rgb(0,0,255)" />
    <sodipodi:guide
       position="10.16,109.5186"
       orientation="1,0"
       id="guide4619"
       inkscape:locked="false" />
    <sodipodi:guide
       position="10.160001,105.62151"
       orientation="1,0"
       id="guide4637"
       inkscape:locked="false" />
    <sodipodi:guide
       position="10.160001,116"
       orientation="0,1"
       id="guide4776"
       inkscape:locked="false" />
    <sodipodi:guide
       position="10.160001,23.724"
       orientation="0,1"
       id="guide4778"
       inkscape:locked="false" />
    <sodipodi:guide
       position="10.160001,15.000001"
       orientation="0,1"
       id="guide4780"
       inkscape:locked="false"
       inkscape:label=""
       inkscape:color="rgb(0,0,255)" />
    <sodipodi:guide
       position="10.16,12"
       orientation="0,1"
       id="guide4782"
       inkscape:locked="false"
       inkscape:label=""
       inkscape:color="rgb(0,0,255)" />
    <sodipodi:guide
       position="6.7090776,106"
       orientation="0,1"
       id="guide4784"
       inkscape:locked="false"
       inkscape:label=""
       inkscape:color="rgb(0,0,255)" />
    <sodipodi:guide
       position="-4.2994793,104"
       orientation="0,1"
       id="guide4786"
       inkscape:locked="false"
       inkscape:label=""
       inkscape:color="rgb(0,0,255)" />
    <sodipodi:guide
       position="6.9453127,53.000002"
       orientation="0,1"
       id="guide4858"
       inkscape:locked="false"
       inkscape:label=""
       inkscape:color="rgb(0,0,255)" />
    <sodipodi:guide
       position="10.165169,5.0000002"
       orientation="0,1"
       id="guide4864"
       inkscape:locked="false"
       inkscape:label=""
       inkscape:color="rgb(0,0,255)" />
    <sodipodi:guide
       position="7.512277,54.000002"
       orientation="0,1"
       id="guide4870"
       inkscape:locked="false"
       inkscape:label=""
       inkscape:color="rgb(0,0,255)" />
    <sodipodi:guide
       position="5.0800001,64.000003"
       orientation="0,1"
       id="guide4872"
       inkscape:locked="false"
       inkscape:label=""
       inkscape:color="rgb(0,0,255)" />
    <sodipodi:guide
       position="5.0799996,65.000003"
       orientation="0,1"
       id="guide4874"
       inkscape:locked="false"
       inkscape:label=""
       inkscape:color="rgb(0,0,255)" />
    <sodipodi:guide
       position="10.16,10"
       orientation="0,1"
       id="guide4902"
       inkscape:locked="false" />
    <sodipodi:guide
       position="10.160001,69.500003"
       orientation="0,1"
       id="guide4904"
       inkscape:locked="false"
       inkscape:label=""
       inkscape:color="rgb(0,0,255)" />
    <sodipodi:guide
       position="5.0800002,109.84933"
       orientation="1,0"
       id="guide7295"
       inkscape:locked="false"
       inkscape:label=""
       inkscape:color="rgb(0,0,255)" />
    <sodipodi:guide
       position="-4.8513865,120"
       orientation="0,1"
       id="guide7406"
       inkscape:locked="false"
       inkscape:label=""
       inkscape:color="rgb(0,0,255)" />
  </sodipodi:namedview>
  <metadata
     id="metadata5">
    <rdf:RDF>
      <cc:Work
         rdf:about="">
        <dc:format>image/svg+xml</dc:format>
        <dc:type
           rdf:resource="http://purl.org/dc/dcmitype/StillImage" />
        <dc:title />
      </cc:Work>
    </rdf:RDF>
  </metadata>
  <g
     inkscape:label="panel"
     inkscape:groupmode="layer"
     id="layer1"
     transform="translate(0,-168.5)"
     style="display:inline">
    <rect
       style="display:inline;opacity:0.98999999;fill:#ffffff;fill-opacity:1;stroke:#f2f2f2;stroke-width:0.3;stroke-linecap:round;stroke-linejoin:round;stroke-miterlimit:4;stroke-dasharray:none;stroke-dashoffset:0;stroke-opacity:1;paint-order:normal"
       id="rect7374-1"
       width="1.3583338"
       height="28.112337"
       x="4.4008331"
       y="199.38765" />
    <rect
       style="opacity:1;fill:#e6e6e6;stroke-width:0.26458332"
       id="rect39"
       width="10.16"
       height="128.5"
       x="-2.7755576e-018"
       y="168.5" />
    <text
       xml:space="preserve"
       style="font-style:normal;font-weight:normal;font-size:4.93888855px;line-height:1.25;font-family:sans-serif;letter-spacing:0px;word-spacing:0px;fill:#000000;fill-opacity:1;stroke:none;stroke-width:0.26458332"
       x="6.1471992"
       y="177.26324"
       id="text3713"><tspan
         sodipodi:role="line"
         id="tspan3711"
         x="6.1471992"
         y="181.76915"
         style="stroke-width:0.26458332" /></text>
    <g
       aria-label="a"
       style="font-style:normal;font-variant:normal;font-weight:normal;font-stretch:normal;font-size:14.11111069px;line-height:1.25;font-family:'Opus Special Extra Std';-inkscape-font-specification:'Opus Special Extra Std';letter-spacing:0px;word-spacing:0px;fill:#ffcc00;fill-opacity:1;stroke:none;stroke-width:0.26458332"
       id="text3719" />
    <rect
       style="opacity:1;fill:#383838;fill-opacity:1;stroke:none;stroke-width:0.26499999;stroke-miterlimit:4;stroke-dasharray:none;stroke-dashoffset:0;stroke-opacity:1"
       id="rect3797"
       width="10.16"
       height="10"
       x="1.3724905e-016"
       y="168.5" />
    <rect
       style="display:inline;opacity:1;fill:#383838;fill-opacity:1;stroke-width:0.26458332"
       id="rect3797-4"
       width="10.16"
       height="10"
       x="0"
       y="287" />
    <text
       xml:space="preserve"
       style="font-style:normal;font-variant:normal;font-weight:normal;font-stretch:normal;font-size:4.93888855px;line-height:1.25;font-family:'ornaments labels and frames';-inkscape-font-specification:'ornaments labels and frames, Normal';font-variant-ligatures:normal;font-variant-caps:normal;font-variant-numeric:normal;text-align:center;letter-spacing:0px;word-spacing:0px;writing-mode:lr-tb;text-anchor:middle;display:inline;fill:#000000;fill-opacity:1;stroke:none;stroke-width:0.26458332"
       x="30.067825"
       y="196.50633"
       id="text3786"><tspan
         sodipodi:role="line"
         id="tspan3784"
         x="30.067825"
         y="200.96446"
         style="stroke-width:0.26458332" /></text>
    <rect
       style="display:inline;opacity:1;fill:#666666;fill-opacity:1;stroke:none;stroke-width:0.2649999;stroke-miterlimit:4;stroke-dasharray:none;stroke-dashoffset:0;stroke-opacity:0.94779142"
       id="rect5407-5"
       width="8.1599989"
       height="40.999996"
       x="0.99999994"
       y="243.99998"
       rx="1.0000001"
       ry="1.0000008" />
    <g
       transform="matrix(1.8133333,0,0,1,-66.628621,77.64139)"
       aria-label="out"
       style="font-style:normal;font-variant:normal;font-weight:normal;font-stretch:normal;font-size:3.52777767px;line-height:1.25;font-family:Steagisler;-inkscape-font-specification:Steagisler;font-variant-ligatures:normal;font-variant-caps:normal;font-variant-numeric:normal;font-feature-settings:normal;text-align:center;letter-spacing:0px;word-spacing:0px;writing-mode:lr-tb;text-anchor:middle;display:inline;fill:#f9f9f9;fill-opacity:1;stroke:none;stroke-width:0.19648239"
       id="text4639" />
    <rect
       style="display:inline;opacity:0.98000004;fill:#f2f2f2;fill-opacity:1;stroke:none;stroke-width:0.26499999;stroke-miterlimit:4;stroke-dasharray:none;stroke-dashoffset:0;stroke-opacity:0.94779142"
       id="rect5407"
       width="8.1599998"
       height="10"
       x="0.99999994"
       y="181"
       rx="1.0000006"
       ry="1.0000006" />
    <rect
       style="display:inline;opacity:0.98000004;fill:#f2f2f2;fill-opacity:1;stroke:none;stroke-width:0.26499999;stroke-miterlimit:4;stroke-dasharray:none;stroke-dashoffset:0;stroke-opacity:0.94779142"
       id="rect5407-6"
       width="8.1599998"
       height="10"
       x="1"
       y="233"
       rx="1.0000006"
       ry="1.0000006" />
    <rect
       style="opacity:0.97000002;fill:#666666;fill-opacity:1;stroke:none;stroke-width:0.40000004;stroke-linecap:butt;stroke-miterlimit:4;stroke-dasharray:none;stroke-dashoffset:0;stroke-opacity:1;paint-order:normal"
       id="rect4876"
       width="8.1599989"
       height="39"
       x="0.99999994"
       y="193"
       rx="1.0000006"
       ry="1.0000006" />
    <path
       style="opacity:0.98999999;fill:#f2f2f2;stroke:#f2f2f2;stroke-width:0.3;stroke-linecap:butt;stroke-linejoin:miter;stroke-miterlimit:4;stroke-dasharray:none;stroke-opacity:1;fill-opacity:1"
       d="M 5.0799999,227.5 V 199.38765"
       id="path7297"
       inkscape:connector-curvature="0" />
    <path
       style="display:inline;fill:none;stroke:#f2f2f2;stroke-width:0.30000001;stroke-linecap:butt;stroke-linejoin:miter;stroke-miterlimit:4;stroke-dasharray:none;stroke-opacity:1"
       d="M 5.0799994,278.55616 V 250.44381"
       id="path7297-4"
       inkscape:connector-curvature="0" />
    <path
       style="display:inline;fill:none;stroke:#f2f2f2;stroke-width:0.30000001;stroke-linecap:butt;stroke-linejoin:miter;stroke-miterlimit:4;stroke-dasharray:none;stroke-opacity:1"
       d="M 5.6091661,278.55616 V 250.44381"
       id="path7297-4-3"
       inkscape:connector-curvature="0" />
    <path
       style="display:inline;fill:none;stroke:#f2f2f2;stroke-width:0.30000001;stroke-linecap:butt;stroke-linejoin:miter;stroke-miterlimit:4;stroke-dasharray:none;stroke-opacity:1"
       d="M 4.5508327,278.55616 V 250.44381"
       id="path7297-4-35"
       inkscape:connector-curvature="0" />
    <path
       style="display:inline;opacity:0.98999999;fill:#f2f2f2;stroke:#f2f2f2;stroke-width:0.3;stroke-linecap:butt;stroke-linejoin:miter;stroke-miterlimit:4;stroke-dasharray:none;stroke-opacity:1;fill-opacity:1"
       d="M 5.6091667,227.5 V 199.38765"
       id="path7297-5"
       inkscape:connector-curvature="0" />
    <path
       style="display:inline;opacity:0.98999999;fill:#f2f2f2;stroke:#f2f2f2;stroke-width:0.3;stroke-linecap:butt;stroke-linejoin:miter;stroke-miterlimit:4;stroke-dasharray:none;stroke-opacity:1;fill-opacity:1"
       d="M 4.5508333,227.5 V 199.38765"
       id="path7297-5-2"
       inkscape:connector-curvature="0" />
    <g
       aria-label="2m4"
       style="font-style:normal;font-variant:normal;font-weight:normal;font-stretch:normal;font-size:3.52777767px;line-height:0.80000001;font-family:'ornaments labels and frames';-inkscape-font-specification:'ornaments labels and frames';font-variant-ligatures:normal;font-variant-caps:normal;font-variant-numeric:normal;font-feature-settings:normal;text-align:center;letter-spacing:0px;word-spacing:0px;writing-mode:lr-tb;text-anchor:middle;fill:#f2f2f2;fill-opacity:1;stroke:none;stroke-width:0.26458332"
       id="text7410">
      <path
         d="m 2.0173101,174.91744 q 0,-0.28767 0.2135959,-0.45648 0.1912028,-0.15158 0.4668105,-0.15158 0.2773301,0 0.4685329,0.15158 0.213596,0.16881 0.213596,0.45648 v 0.19637 q 0,0.18604 -0.063734,0.32384 -0.041341,0.0879 -0.1825901,0.27905 -0.067179,0.093 -0.163642,0.21188 -0.044786,0.0551 -0.1774224,0.21187 -0.1102431,0.13263 -0.1739773,0.21359 -0.1688097,0.2136 -0.1688097,0.28939 0,0.0207 0.020671,0.0207 H 3.3764003 V 177 H 1.9845817 v -0.14814 q 0,-0.28594 0.4289144,-0.81649 0.3892958,-0.48059 0.4254693,-0.53571 0.1395263,-0.20154 0.1395263,-0.38757 v -0.17915 q 0,-0.12574 -0.08785,-0.19981 -0.079237,-0.0655 -0.1929253,-0.0655 -0.1119656,0 -0.1912028,0.0655 -0.08785,0.0741 -0.08785,0.19981 v 0.17226 H 2.0173101 Z"
         style="font-style:normal;font-variant:normal;font-weight:normal;font-stretch:normal;font-family:Steagisler;-inkscape-font-specification:Steagisler;fill:#f2f2f2;fill-opacity:1;stroke-width:0.26458332"
         id="path7273" />
      <path
         d="m 4.2290614,175.23094 q 0.00345,0.0155 0.02067,0.0155 0.00689,0 0.01378,-0.007 0.1515842,-0.17398 0.4409722,-0.17398 0.323839,0 0.4719781,0.21359 0.00689,0.009 0.017226,0.009 0.010335,0 0.017225,-0.009 0.1481391,-0.21359 0.471978,-0.21359 0.2824978,0 0.4323595,0.16364 0.144694,0.15848 0.144694,0.44614 V 177 h -0.396186 v -1.30914 q 0,-0.12574 -0.084405,-0.19981 -0.079237,-0.0724 -0.2067057,-0.0724 -0.125746,0 -0.2067058,0.0724 -0.084405,0.0741 -0.084405,0.19981 V 177 H 4.885352 v -1.30914 q 0,-0.12574 -0.082682,-0.19981 -0.08096,-0.0724 -0.2084282,-0.0724 -0.125746,0 -0.2067057,0.0724 -0.082682,0.0741 -0.082682,0.19981 V 177 h -0.396186 v -1.8948 h 0.289388 z"
         style="font-style:normal;font-variant:normal;font-weight:normal;font-stretch:normal;font-family:Steagisler;-inkscape-font-specification:Steagisler;fill:#f2f2f2;fill-opacity:1;stroke-width:0.26458332"
         id="path7275" />
      <path
         d="m 7.9377066,176.25414 h 0.2532145 v 0.33762 H 7.9377066 V 177 H 7.536353 v -0.40824 H 6.6854145 v -0.1447 l 0.6476779,-2.08773 h 0.6046142 z m -0.4013536,0 v -1.51929 l -0.4168565,1.49345 q -0.00172,0.003 -0.00172,0.007 0,0.007 0.00517,0.0121 0.00689,0.007 0.015503,0.007 z"
         style="font-style:normal;font-variant:normal;font-weight:normal;font-stretch:normal;font-family:Steagisler;-inkscape-font-specification:Steagisler;fill:#f2f2f2;fill-opacity:1;stroke-width:0.26458332"
         id="path7277" />
    </g>
    <g
       aria-label="ads."
       style="font-style:normal;font-variant:normal;font-weight:normal;font-stretch:normal;font-size:3.52777767px;line-height:0.80000001;font-family:Steagisler;-inkscape-font-specification:'Steagisler, Normal';font-variant-ligatures:normal;font-variant-caps:normal;font-variant-numeric:normal;font-feature-settings:normal;text-align:center;letter-spacing:0px;word-spacing:0px;writing-mode:lr-tb;text-anchor:middle;fill:#f2f2f2;fill-opacity:1;stroke:none;stroke-width:0.26458332"
       id="text7282"
       transform="translate(0,0.88611909)">
      <path
         d="M 3.6761236,291.11383 H 3.2696023 q -0.020671,-0.0465 -0.034451,-0.0965 -0.00345,-0.0121 -0.015503,-0.0155 -0.00345,-0.002 -0.00517,-0.002 -0.00689,0 -0.01378,0.007 -0.1498617,0.15503 -0.4220242,0.15503 -0.578776,0 -0.578776,-0.56844 0,-0.34106 0.3479546,-0.47025 0.1653646,-0.062 0.3410645,-0.062 0.1464165,0 0.3014458,0.0431 0.00345,0.002 0.00517,0.002 0.00689,0 0.012058,-0.005 0.00861,-0.005 0.00861,-0.0155 v -0.28078 q 0,-0.12574 -0.09474,-0.20153 -0.08785,-0.0689 -0.2153185,-0.0689 -0.1274685,0 -0.2153184,0.0689 -0.09474,0.0758 -0.09474,0.20153 v 0.0414 H 2.2205708 v -0.0568 q 0,-0.28422 0.2101508,-0.45303 0.1946479,-0.15675 0.4857584,-0.15675 0.2911106,0 0.4857585,0.15675 0.2084282,0.16881 0.2084282,0.45303 v 1.0542 q 0,0.12402 0.065457,0.27044 z m -0.4599203,-0.72002 q 0,-0.0138 -0.01378,-0.0189 -0.1205783,-0.0431 -0.2446017,-0.0431 -0.062012,0 -0.125746,0.0103 -0.235989,0.0396 -0.235989,0.23771 0,0.2291 0.3100585,0.2291 0.1274686,0 0.2153185,-0.0689 0.09474,-0.0758 0.09474,-0.19982 z"
         style="fill:#f2f2f2;fill-opacity:1;stroke-width:0.26458332"
         id="path7284"
         inkscape:connector-curvature="0" />
      <path
         d="M 5.5071917,291.11383 H 5.102393 q -0.022393,-0.0448 -0.034451,-0.0947 -0.00345,-0.0103 -0.015503,-0.0138 -0.00345,-0.002 -0.00517,-0.002 -0.00689,0 -0.01378,0.007 -0.1515842,0.15158 -0.4220242,0.15158 -0.2824978,0 -0.434082,-0.16364 -0.144694,-0.15847 -0.144694,-0.44614 v -0.76309 q 0,-0.28594 0.1550293,-0.44614 0.1567518,-0.16364 0.4409722,-0.16364 0.2342665,0 0.3858507,0.11369 0.00517,0.005 0.012058,0.005 0.00345,0 0.00861,-0.003 0.012058,-0.005 0.012058,-0.0172 v -0.80443 h 0.396186 v 2.37023 q 0,0.12402 0.063734,0.27044 z m -0.4599202,-1.30914 q 0,-0.12574 -0.09474,-0.20153 -0.086127,-0.0689 -0.2153185,-0.0689 -0.1274685,0 -0.2153184,0.0689 -0.093018,0.0758 -0.093018,0.20153 v 0.73381 q 0,0.12402 0.093018,0.19982 0.08785,0.0706 0.2153184,0.0706 0.1291911,0 0.2153185,-0.0706 0.09474,-0.0758 0.09474,-0.19982 z"
         style="fill:#f2f2f2;fill-opacity:1;stroke-width:0.26458332"
         id="path7286"
         inkscape:connector-curvature="0" />
      <path
         d="m 6.2082686,290.55573 q 0,0.12057 0.093018,0.18948 0.084405,0.0637 0.2084283,0.0637 0.1240234,0 0.2084283,-0.0637 0.093018,-0.0689 0.093018,-0.18948 0,-0.12575 -0.1550293,-0.17226 -0.1412489,-0.0413 -0.3341742,-0.0775 -0.2428792,-0.0586 -0.3669027,-0.20326 -0.1223009,-0.14642 -0.1223009,-0.36002 0,-0.27044 0.2084283,-0.42374 0.1877577,-0.13781 0.468533,-0.13781 0.2807753,0 0.468533,0.13781 0.2084282,0.1533 0.2084282,0.42374 v 0.10163 H 6.8111603 v -0.0603 q 0,-0.11885 -0.08785,-0.18775 -0.079237,-0.0637 -0.2032606,-0.0637 -0.1223009,0 -0.2032607,0.0637 -0.08785,0.0689 -0.08785,0.18775 0,0.12747 0.1550293,0.16881 0.1963704,0.0517 0.3341743,0.0758 0.2256537,0.0482 0.3565673,0.17397 0.1326362,0.12403 0.1326362,0.36346 0,0.30317 -0.2153185,0.4582 -0.1912028,0.1378 -0.471978,0.1378 -0.2807753,0 -0.4719781,-0.1378 -0.2153185,-0.15503 -0.2153185,-0.42375 v -0.10507 h 0.3755154 z"
         style="fill:#f2f2f2;fill-opacity:1;stroke-width:0.26458332"
         id="path7288"
         inkscape:connector-curvature="0" />
      <path
         d="m 7.7533937,290.6608 q 0.1050754,0 0.1791449,0.0741 0.072347,0.0741 0.072347,0.17742 0,0.10336 -0.072347,0.17742 -0.07407,0.0741 -0.1791449,0.0741 -0.1033529,0 -0.1774224,-0.0741 -0.072347,-0.0741 -0.072347,-0.17742 0,-0.10335 0.072347,-0.17742 0.07407,-0.0741 0.1774224,-0.0741 z"
         style="fill:#f2f2f2;fill-opacity:1;stroke-width:0.26458332"
         id="path7290"
         inkscape:connector-curvature="0" />
    </g>
  </g>
  <g
     inkscape:groupmode="layer"
     id="layer2"
     inkscape:label="components"
     style="display:none">
    <circle
       style="display:inline;opacity:1;fill:#00ff00;fill-opacity:1;stroke:none;stroke-width:0.39999998;stroke-linecap:butt;stroke-miterlimit:4;stroke-dasharray:none;stroke-dashoffset:0;stroke-opacity:1;paint-order:normal"
       id="path4623"
       cx="10.16"
       cy="17.5"
       inkscape:label="IN"
       r="2.5400002" />
    <circle
       style="display:inline;opacity:1;fill:#0000ff;fill-opacity:1;stroke:none;stroke-width:0.39999998;stroke-linecap:butt;stroke-miterlimit:4;stroke-dasharray:none;stroke-dashoffset:0;stroke-opacity:1;paint-order:normal"
       id="path4623-8"
       cx="10.16"
       cy="30.215004"
       inkscape:label="OUT"
       r="2.5400004" />
    <circle
       style="display:inline;opacity:1;fill:#0000ff;fill-opacity:1;stroke:none;stroke-width:0.39999998;stroke-linecap:butt;stroke-miterlimit:4;stroke-dasharray:none;stroke-dashoffset:0;stroke-opacity:1;paint-order:normal"
       id="path4623-8-1"
       cx="10.16"
       cy="47.711666"
       inkscape:label="OUT"
       r="2.5400004" />
    <circle
       style="display:inline;opacity:1;fill:#0000ff;fill-opacity:1;stroke:none;stroke-width:0.39999998;stroke-linecap:butt;stroke-miterlimit:4;stroke-dasharray:none;stroke-dashoffset:0;stroke-opacity:1;paint-order:normal"
       id="path4623-8-1-2"
       cx="10.16"
       cy="56.459999"
       inkscape:label="OUT"
       r="2.5400004" />
    <circle
       style="display:inline;opacity:1;fill:#00ff00;fill-opacity:1;stroke:none;stroke-width:0.39999998;stroke-linecap:butt;stroke-miterlimit:4;stroke-dasharray:none;stroke-dashoffset:0;stroke-opacity:1;paint-order:normal"
       id="path4623-8-1-2-6-3"
       cx="10.160001"
       cy="72.097618"
       inkscape:label="IN"
       r="2.5400004" />
    <circle
       style="display:inline;opacity:1;fill:#0000ff;fill-opacity:1;stroke:none;stroke-width:0.39999998;stroke-linecap:butt;stroke-miterlimit:4;stroke-dasharray:none;stroke-dashoffset:0;stroke-opacity:1;paint-order:normal"
       id="path4623-8-1-2-6-3-9"
       cx="10.16"
       cy="84.714996"
       inkscape:label="OUT"
       r="2.5400004" />
    <circle
       style="display:inline;opacity:1;fill:#0000ff;fill-opacity:1;stroke:none;stroke-width:0.39999998;stroke-linecap:butt;stroke-miterlimit:4;stroke-dasharray:none;stroke-dashoffset:0;stroke-opacity:1;paint-order:normal"
       id="path4623-8-1-2-6-3-9-4"
       cx="10.16"
       cy="110.96"
       inkscape:label="OUT"
       r="2.5400004" />
    <circle
       style="display:inline;opacity:1;fill:#0000ff;fill-opacity:1;stroke:none;stroke-width:0.39999998;stroke-linecap:butt;stroke-miterlimit:4;stroke-dasharray:none;stroke-dashoffset:0;stroke-opacity:1;paint-order:normal"
       id="path4623-8-1-2-6-3-9-3"
       cx="10.16"
       cy="102.21166"
       inkscape:label="OUT"
       r="2.5400004" />
    <circle
       style="display:inline;opacity:1;fill:#0000ff;fill-opacity:1;stroke:none;stroke-width:0.39999998;stroke-linecap:butt;stroke-miterlimit:4;stroke-dasharray:none;stroke-dashoffset:0;stroke-opacity:1;paint-order:normal"
       id="path4623-8-1-9"
       cx="10.16"
       cy="38.963337"
       inkscape:label="OUT"
       r="2.5400004" />
    <circle
       style="display:inline;opacity:1;fill:#0000ff;fill-opacity:1;stroke:none;stroke-width:0.39999998;stroke-linecap:butt;stroke-miterlimit:4;stroke-dasharray:none;stroke-dashoffset:0;stroke-opacity:1;paint-order:normal"
       id="path4623-8-1-7"
       cx="10.16"
       cy="93.463333"
       inkscape:label="OUT"
       r="2.5400004" />
  </g>
</svg>
