<?xml version="1.0" encoding="UTF-8" standalone="no"?>
<!-- Created with Inkscape (http://www.inkscape.org/) -->

<svg
   xmlns:dc="http://purl.org/dc/elements/1.1/"
   xmlns:cc="http://creativecommons.org/ns#"
   xmlns:rdf="http://www.w3.org/1999/02/22-rdf-syntax-ns#"
   xmlns:svg="http://www.w3.org/2000/svg"
   xmlns="http://www.w3.org/2000/svg"
   xmlns:sodipodi="http://sodipodi.sourceforge.net/DTD/sodipodi-0.dtd"
   xmlns:inkscape="http://www.inkscape.org/namespaces/inkscape"
   width="50.799999mm"
   height="128.5mm"
   viewBox="0 0 50.799999 128.5"
   version="1.1"
   id="svg8"
   inkscape:version="0.92.1 r15371"
   sodipodi:docname="4xVCA.svg">
  <defs
     id="defs2">
    <inkscape:path-effect
       effect="simplify"
       id="path-effect5498"
       is_visible="true"
       steps="1"
       threshold="0.000408163"
       smooth_angles="360"
       helper_size="0"
       simplify_individual_paths="false"
       simplify_just_coalesce="false"
       simplifyindividualpaths="false"
       simplifyJustCoalesce="false" />
    <inkscape:path-effect
       effect="simplify"
       id="path-effect5494"
       is_visible="true"
       steps="1"
       threshold="0.000408163"
       smooth_angles="360"
       helper_size="0"
       simplify_individual_paths="false"
       simplify_just_coalesce="false"
       simplifyindividualpaths="false"
       simplifyJustCoalesce="false" />
  </defs>
  <sodipodi:namedview
     id="base"
     pagecolor="#262626"
     bordercolor="#666666"
     borderopacity="1.0"
     inkscape:pageopacity="0"
     inkscape:pageshadow="2"
     inkscape:zoom="2.8"
     inkscape:cx="99.357137"
     inkscape:cy="245.59307"
     inkscape:document-units="mm"
     inkscape:current-layer="layer2"
     showgrid="false"
     inkscape:window-width="1827"
     inkscape:window-height="1057"
     inkscape:window-x="-8"
     inkscape:window-y="-8"
     inkscape:window-maximized="1"
     showguides="true"
     inkscape:snap-grids="false"
     inkscape:guide-bbox="true"
     inkscape:snap-bbox="true"
     inkscape:bbox-paths="true"
     inkscape:snap-bbox-edge-midpoints="true"
     inkscape:bbox-nodes="true"
     inkscape:snap-bbox-midpoints="true">
    <inkscape:grid
       type="xygrid"
       id="grid31" />
    <sodipodi:guide
       position="25.4,96.100448"
       orientation="1,0"
       id="guide4967"
       inkscape:locked="false"
       inkscape:label=""
       inkscape:color="rgb(0,0,255)" />
    <sodipodi:guide
       position="3,101.81734"
       orientation="1,0"
       id="guide4972"
       inkscape:locked="false"
       inkscape:label=""
       inkscape:color="rgb(0,0,255)" />
    <sodipodi:guide
       position="47.8,94.588544"
       orientation="1,0"
       id="guide4974"
       inkscape:locked="false"
       inkscape:label=""
       inkscape:color="rgb(0,0,255)" />
    <sodipodi:guide
       position="42.799999,98.982514"
       orientation="1,0"
       id="guide5747"
       inkscape:locked="false" />
    <sodipodi:guide
       position="30.383655,98.982516"
       orientation="0,1"
       id="guide4685"
       inkscape:locked="false" />
    <sodipodi:guide
       position="34.994654,90.000004"
       orientation="0,1"
       id="guide4687"
       inkscape:locked="false" />
  </sodipodi:namedview>
  <metadata
     id="metadata5">
    <rdf:RDF>
      <cc:Work
         rdf:about="">
        <dc:format>image/svg+xml</dc:format>
        <dc:type
           rdf:resource="http://purl.org/dc/dcmitype/StillImage" />
        <dc:title />
      </cc:Work>
    </rdf:RDF>
  </metadata>
  <g
     inkscape:label="panel"
     inkscape:groupmode="layer"
     id="layer1"
     transform="translate(0,-168.5)"
     style="display:inline">
    <rect
       style="opacity:1;fill:#e6e6e6;stroke-width:0.26458332"
       id="rect39"
       width="50.799999"
       height="128.5"
       x="-1.3877788e-017"
       y="168.5" />
    <text
       xml:space="preserve"
       style="font-style:normal;font-weight:normal;font-size:4.93888855px;line-height:1.25;font-family:sans-serif;letter-spacing:0px;word-spacing:0px;fill:#000000;fill-opacity:1;stroke:none;stroke-width:0.26458332"
       x="6.1471992"
       y="177.26324"
       id="text3713"><tspan
         sodipodi:role="line"
         id="tspan3711"
         x="6.1471992"
         y="181.76915"
         style="stroke-width:0.26458332" /></text>
    <g
       aria-label="a"
       style="font-style:normal;font-variant:normal;font-weight:normal;font-stretch:normal;font-size:14.11111069px;line-height:1.25;font-family:'Opus Special Extra Std';-inkscape-font-specification:'Opus Special Extra Std';letter-spacing:0px;word-spacing:0px;fill:#ffcc00;fill-opacity:1;stroke:none;stroke-width:0.26458332"
       id="text3719" />
    <rect
       style="opacity:1;fill:#666666;stroke:none;stroke-width:0.26499999;stroke-miterlimit:4;stroke-dasharray:none;stroke-dashoffset:0;stroke-opacity:1"
       id="rect3797"
       width="50.799999"
       height="20"
       x="6.8624524e-016"
       y="168.5" />
    <rect
       style="display:inline;opacity:1;fill:#666666;stroke-width:0.26458332"
       id="rect3797-4"
       width="50.799999"
       height="25"
       x="0"
       y="272" />
    <text
       xml:space="preserve"
       style="font-style:normal;font-variant:normal;font-weight:normal;font-stretch:normal;font-size:4.93888855px;line-height:1.25;font-family:'ornaments labels and frames';-inkscape-font-specification:'ornaments labels and frames, Normal';font-variant-ligatures:normal;font-variant-caps:normal;font-variant-numeric:normal;text-align:center;letter-spacing:0px;word-spacing:0px;writing-mode:lr-tb;text-anchor:middle;display:inline;fill:#000000;fill-opacity:1;stroke:none;stroke-width:0.26458332"
       x="30.067825"
       y="196.50633"
       id="text3786"><tspan
         sodipodi:role="line"
         id="tspan3784"
         x="30.067825"
         y="200.96446"
         style="stroke-width:0.26458332" /></text>
    <rect
       style="display:inline;opacity:0.98000004;fill:#f2f2f2;fill-opacity:1;stroke:none;stroke-width:0.26499999;stroke-miterlimit:4;stroke-dasharray:none;stroke-dashoffset:0;stroke-opacity:0.94779142"
       id="rect5407"
       width="44.799999"
       height="18"
       x="3"
       y="190.79749"
       rx="1.0000006"
       ry="1.0000006" />
    <g
       transform="translate(-1.7918549e-6,1.1447266e-5)"
       aria-label="in"
       style="font-style:normal;font-variant:normal;font-weight:normal;font-stretch:normal;font-size:3.52777767px;line-height:1.25;font-family:Steagisler;-inkscape-font-specification:Steagisler;font-variant-ligatures:normal;font-variant-caps:normal;font-variant-numeric:normal;font-feature-settings:normal;text-align:center;letter-spacing:0px;word-spacing:0px;writing-mode:lr-tb;text-anchor:middle;display:inline;fill:#000000;fill-opacity:1;stroke:none;stroke-width:0.26458332"
       id="text4627">
      <path
         inkscape:connector-curvature="0"
         d="m 7.0936859,204.35933 q 0.1050754,0 0.1774224,0.0724 0.07407,0.0741 0.07407,0.17742 0,0.10508 -0.07407,0.17915 -0.072347,0.0724 -0.1774224,0.0724 -0.1033529,0 -0.1774224,-0.0724 -0.07407,-0.0741 -0.07407,-0.17915 0,-0.10335 0.07407,-0.17742 0.074069,-0.0724 0.1774224,-0.0724 z M 7.2917788,207 H 6.8955929 v -1.57269 q 0,-0.0207 -0.020671,-0.0207 H 6.681997 v -0.30144 h 0.6097818 z"
         style="stroke-width:0.26458332"
         id="path4755" />
      <path
         inkscape:connector-curvature="0"
         d="m 8.1668331,205.23783 q 0.00345,0.0155 0.022393,0.0155 0.00861,0 0.015503,-0.009 0.1567518,-0.17914 0.4547526,-0.17914 0.2842203,0 0.4409722,0.16192 0.1550293,0.16192 0.1550293,0.44786 V 207 h -0.396186 v -1.30914 q 0,-0.12574 -0.093018,-0.20153 -0.08785,-0.0706 -0.2153184,-0.0706 -0.1291911,0 -0.2153185,0.0706 -0.09474,0.0758 -0.09474,0.20153 V 207 h -0.396186 v -1.8948 h 0.2911106 z"
         style="stroke-width:0.26458332"
         id="path4757" />
    </g>
    <g
       transform="translate(-1.7918549e-6,1.1447266e-5)"
       aria-label="cv"
       style="font-style:normal;font-variant:normal;font-weight:normal;font-stretch:normal;font-size:3.52777767px;line-height:1.25;font-family:Steagisler;-inkscape-font-specification:Steagisler;font-variant-ligatures:normal;font-variant-caps:normal;font-variant-numeric:normal;font-feature-settings:normal;text-align:center;letter-spacing:0px;word-spacing:0px;writing-mode:lr-tb;text-anchor:middle;display:inline;fill:#000000;fill-opacity:1;stroke:none;stroke-width:0.26458332"
       id="text4631">
      <path
         inkscape:connector-curvature="0"
         d="m 17.914152,206.39022 q 0,0.28422 -0.215318,0.45475 Q 17.500741,207 17.207908,207 q -0.291111,0 -0.489204,-0.15503 -0.215318,-0.17053 -0.215318,-0.45475 v -0.76309 q 0,-0.28422 0.215318,-0.45303 0.198093,-0.15675 0.489204,-0.15675 0.29111,0 0.48059,0.15675 0.204984,0.16881 0.204984,0.45303 v 0.0568 h -0.375516 v -0.0413 q 0,-0.12575 -0.09474,-0.20154 -0.08785,-0.0689 -0.215318,-0.0689 -0.127469,0 -0.215319,0.0689 -0.09474,0.0758 -0.09474,0.20154 v 0.73381 q 0,0.12402 0.09474,0.19981 0.08785,0.0706 0.215319,0.0706 0.129191,0 0.223931,-0.0689 0.105075,-0.0775 0.105075,-0.20153 v -0.0413 h 0.377238 z"
         style="stroke-width:0.26458332"
         id="path4750" />
      <path
         inkscape:connector-curvature="0"
         d="m 18.150141,205.05696 h 0.389296 l 0.310059,1.52274 q 0.0034,0.0172 0.01895,0.0172 0.01722,0 0.02067,-0.0172 l 0.310059,-1.52274 h 0.389295 l -0.45303,1.91031 h -0.532267 z"
         style="stroke-width:0.26458332"
         id="path4752" />
    </g>
    <rect
       style="display:inline;opacity:1;fill:#333333;fill-opacity:1;stroke:none;stroke-width:0.2649999;stroke-miterlimit:4;stroke-dasharray:none;stroke-dashoffset:0;stroke-opacity:0.94779142"
       id="rect5407-5"
       width="9"
       height="16"
       x="37.846664"
       y="191.9136"
       rx="1.0000002"
       ry="1.0000006" />
    <g
       transform="translate(-1.7918549e-6,1.1447266e-5)"
       aria-label="out"
       style="font-style:normal;font-variant:normal;font-weight:normal;font-stretch:normal;font-size:3.52777767px;line-height:1.25;font-family:Steagisler;-inkscape-font-specification:Steagisler;font-variant-ligatures:normal;font-variant-caps:normal;font-variant-numeric:normal;font-feature-settings:normal;text-align:center;letter-spacing:0px;word-spacing:0px;writing-mode:lr-tb;text-anchor:middle;display:inline;fill:#f9f9f9;fill-opacity:1;stroke:none;stroke-width:0.26458332"
       id="text4639">
      <path
         inkscape:connector-curvature="0"
         d="m 40.286323,205.62713 q 0,-0.28422 0.215318,-0.45303 0.198093,-0.15675 0.489204,-0.15675 0.292833,0 0.490926,0.15675 0.215318,0.16881 0.215318,0.45303 v 0.76309 q 0,0.28422 -0.215318,0.45475 Q 41.283678,207 40.990845,207 q -0.291111,0 -0.489204,-0.15503 -0.215318,-0.17053 -0.215318,-0.45475 z m 1.01458,0.0155 q 0,-0.12575 -0.09474,-0.20154 -0.08785,-0.0689 -0.215318,-0.0689 -0.127469,0 -0.215319,0.0689 -0.09302,0.0758 -0.09302,0.20154 v 0.73381 q 0,0.12402 0.09302,0.19981 0.08785,0.0706 0.215319,0.0706 0.127468,0 0.215318,-0.0706 0.09474,-0.0758 0.09474,-0.19981 z"
         style="fill:#f9f9f9;fill-opacity:1;stroke-width:0.26458332"
         id="path4743" />
      <path
         inkscape:connector-curvature="0"
         d="m 43.145752,206.82774 q -0.0034,-0.0121 -0.0155,-0.0138 -0.0034,-0.002 -0.0069,-0.002 -0.0069,0 -0.01206,0.007 Q 42.952827,207 42.653103,207 q -0.28422,0 -0.440972,-0.16192 -0.155029,-0.16192 -0.155029,-0.44786 v -1.33326 h 0.396186 v 1.31775 q 0,0.12575 0.09302,0.20154 0.08785,0.0706 0.215319,0.0706 0.129191,0 0.215318,-0.0706 0.09474,-0.0758 0.09474,-0.20154 v -1.31775 h 0.396186 v 1.89481 h -0.29111 z"
         style="fill:#f9f9f9;fill-opacity:1;stroke-width:0.26458332"
         id="path4745" />
      <path
         inkscape:connector-curvature="0"
         d="m 43.80721,205.05696 h 0.227376 q 0.02067,0 0.02067,-0.0207 v -0.49609 h 0.396186 v 0.49609 q 0,0.0207 0.02067,0.0207 h 0.366902 v 0.30145 h -0.366902 q -0.02067,0 -0.02067,0.0207 v 1.03008 q 0.01206,0.25839 0.192925,0.25839 0.08613,0 0.194648,-0.0207 v 0.30489 Q 44.70638,207 44.572021,207 q -0.502984,-0.002 -0.516764,-0.55811 v -1.06281 q 0,-0.0207 -0.02067,-0.0207 H 43.80721 Z"
         style="fill:#f9f9f9;fill-opacity:1;stroke-width:0.26458332"
         id="path4747" />
    </g>
    <rect
       style="display:inline;opacity:0.98000004;fill:#f2f2f2;fill-opacity:1;stroke:none;stroke-width:0.26499999;stroke-miterlimit:4;stroke-dasharray:none;stroke-dashoffset:0;stroke-opacity:0.94779142"
       id="rect5407-1"
       width="44.799999"
       height="18"
       x="3"
       y="211.19832"
       rx="1.0000006"
       ry="1.0000006" />
    <g
       transform="translate(-1.7918549e-6,20.400849)"
       aria-label="in"
       style="font-style:normal;font-variant:normal;font-weight:normal;font-stretch:normal;font-size:3.52777767px;line-height:1.25;font-family:Steagisler;-inkscape-font-specification:Steagisler;font-variant-ligatures:normal;font-variant-caps:normal;font-variant-numeric:normal;font-feature-settings:normal;text-align:center;letter-spacing:0px;word-spacing:0px;writing-mode:lr-tb;text-anchor:middle;display:inline;fill:#000000;fill-opacity:1;stroke:none;stroke-width:0.26458332"
       id="text4627-7">
      <path
         inkscape:connector-curvature="0"
         d="m 7.0936859,204.35933 q 0.1050754,0 0.1774224,0.0724 0.07407,0.0741 0.07407,0.17742 0,0.10508 -0.07407,0.17915 -0.072347,0.0724 -0.1774224,0.0724 -0.1033529,0 -0.1774224,-0.0724 -0.07407,-0.0741 -0.07407,-0.17915 0,-0.10335 0.07407,-0.17742 0.074069,-0.0724 0.1774224,-0.0724 z M 7.2917788,207 H 6.8955929 v -1.57269 q 0,-0.0207 -0.020671,-0.0207 H 6.681997 v -0.30144 h 0.6097818 z"
         style="stroke-width:0.26458332"
         id="path4755-2" />
      <path
         inkscape:connector-curvature="0"
         d="m 8.1668331,205.23783 q 0.00345,0.0155 0.022393,0.0155 0.00861,0 0.015503,-0.009 0.1567518,-0.17914 0.4547526,-0.17914 0.2842203,0 0.4409722,0.16192 0.1550293,0.16192 0.1550293,0.44786 V 207 h -0.396186 v -1.30914 q 0,-0.12574 -0.093018,-0.20153 -0.08785,-0.0706 -0.2153184,-0.0706 -0.1291911,0 -0.2153185,0.0706 -0.09474,0.0758 -0.09474,0.20153 V 207 h -0.396186 v -1.8948 h 0.2911106 z"
         style="stroke-width:0.26458332"
         id="path4757-2" />
    </g>
    <g
       transform="translate(-1.7918549e-6,20.400849)"
       aria-label="cv"
       style="font-style:normal;font-variant:normal;font-weight:normal;font-stretch:normal;font-size:3.52777767px;line-height:1.25;font-family:Steagisler;-inkscape-font-specification:Steagisler;font-variant-ligatures:normal;font-variant-caps:normal;font-variant-numeric:normal;font-feature-settings:normal;text-align:center;letter-spacing:0px;word-spacing:0px;writing-mode:lr-tb;text-anchor:middle;display:inline;fill:#000000;fill-opacity:1;stroke:none;stroke-width:0.26458332"
       id="text4631-7">
      <path
         inkscape:connector-curvature="0"
         d="m 17.914152,206.39022 q 0,0.28422 -0.215318,0.45475 Q 17.500741,207 17.207908,207 q -0.291111,0 -0.489204,-0.15503 -0.215318,-0.17053 -0.215318,-0.45475 v -0.76309 q 0,-0.28422 0.215318,-0.45303 0.198093,-0.15675 0.489204,-0.15675 0.29111,0 0.48059,0.15675 0.204984,0.16881 0.204984,0.45303 v 0.0568 h -0.375516 v -0.0413 q 0,-0.12575 -0.09474,-0.20154 -0.08785,-0.0689 -0.215318,-0.0689 -0.127469,0 -0.215319,0.0689 -0.09474,0.0758 -0.09474,0.20154 v 0.73381 q 0,0.12402 0.09474,0.19981 0.08785,0.0706 0.215319,0.0706 0.129191,0 0.223931,-0.0689 0.105075,-0.0775 0.105075,-0.20153 v -0.0413 h 0.377238 z"
         style="stroke-width:0.26458332"
         id="path4750-0" />
      <path
         inkscape:connector-curvature="0"
         d="m 18.150141,205.05696 h 0.389296 l 0.310059,1.52274 q 0.0034,0.0172 0.01895,0.0172 0.01722,0 0.02067,-0.0172 l 0.310059,-1.52274 h 0.389295 l -0.45303,1.91031 h -0.532267 z"
         style="stroke-width:0.26458332"
         id="path4752-7" />
    </g>
    <rect
       style="display:inline;opacity:1;fill:#333333;fill-opacity:1;stroke:none;stroke-width:0.2649999;stroke-miterlimit:4;stroke-dasharray:none;stroke-dashoffset:0;stroke-opacity:0.94779142"
       id="rect5407-5-1"
       width="9"
       height="16"
       x="37.846664"
       y="212.31445"
       rx="1.0000002"
       ry="1.0000006" />
    <g
       transform="translate(-1.7918549e-6,20.400849)"
       aria-label="out"
       style="font-style:normal;font-variant:normal;font-weight:normal;font-stretch:normal;font-size:3.52777767px;line-height:1.25;font-family:Steagisler;-inkscape-font-specification:Steagisler;font-variant-ligatures:normal;font-variant-caps:normal;font-variant-numeric:normal;font-feature-settings:normal;text-align:center;letter-spacing:0px;word-spacing:0px;writing-mode:lr-tb;text-anchor:middle;display:inline;fill:#f9f9f9;fill-opacity:1;stroke:none;stroke-width:0.26458332"
       id="text4639-4">
      <path
         inkscape:connector-curvature="0"
         d="m 40.286323,205.62713 q 0,-0.28422 0.215318,-0.45303 0.198093,-0.15675 0.489204,-0.15675 0.292833,0 0.490926,0.15675 0.215318,0.16881 0.215318,0.45303 v 0.76309 q 0,0.28422 -0.215318,0.45475 Q 41.283678,207 40.990845,207 q -0.291111,0 -0.489204,-0.15503 -0.215318,-0.17053 -0.215318,-0.45475 z m 1.01458,0.0155 q 0,-0.12575 -0.09474,-0.20154 -0.08785,-0.0689 -0.215318,-0.0689 -0.127469,0 -0.215319,0.0689 -0.09302,0.0758 -0.09302,0.20154 v 0.73381 q 0,0.12402 0.09302,0.19981 0.08785,0.0706 0.215319,0.0706 0.127468,0 0.215318,-0.0706 0.09474,-0.0758 0.09474,-0.19981 z"
         style="fill:#f9f9f9;fill-opacity:1;stroke-width:0.26458332"
         id="path4743-5" />
      <path
         inkscape:connector-curvature="0"
         d="m 43.145752,206.82774 q -0.0034,-0.0121 -0.0155,-0.0138 -0.0034,-0.002 -0.0069,-0.002 -0.0069,0 -0.01206,0.007 Q 42.952827,207 42.653103,207 q -0.28422,0 -0.440972,-0.16192 -0.155029,-0.16192 -0.155029,-0.44786 v -1.33326 h 0.396186 v 1.31775 q 0,0.12575 0.09302,0.20154 0.08785,0.0706 0.215319,0.0706 0.129191,0 0.215318,-0.0706 0.09474,-0.0758 0.09474,-0.20154 v -1.31775 h 0.396186 v 1.89481 h -0.29111 z"
         style="fill:#f9f9f9;fill-opacity:1;stroke-width:0.26458332"
         id="path4745-7" />
      <path
         inkscape:connector-curvature="0"
         d="m 43.80721,205.05696 h 0.227376 q 0.02067,0 0.02067,-0.0207 v -0.49609 h 0.396186 v 0.49609 q 0,0.0207 0.02067,0.0207 h 0.366902 v 0.30145 h -0.366902 q -0.02067,0 -0.02067,0.0207 v 1.03008 q 0.01206,0.25839 0.192925,0.25839 0.08613,0 0.194648,-0.0207 v 0.30489 Q 44.70638,207 44.572021,207 q -0.502984,-0.002 -0.516764,-0.55811 v -1.06281 q 0,-0.0207 -0.02067,-0.0207 H 43.80721 Z"
         style="fill:#f9f9f9;fill-opacity:1;stroke-width:0.26458332"
         id="path4747-9" />
    </g>
    <rect
       style="display:inline;opacity:0.98000004;fill:#f2f2f2;fill-opacity:1;stroke:none;stroke-width:0.26499999;stroke-miterlimit:4;stroke-dasharray:none;stroke-dashoffset:0;stroke-opacity:0.94779142"
       id="rect5407-1-1"
       width="44.799999"
       height="18"
       x="3"
       y="231.59917"
       rx="1.0000006"
       ry="1.0000006" />
    <g
       transform="translate(-1.7918549e-6,40.8017)"
       aria-label="in"
       style="font-style:normal;font-variant:normal;font-weight:normal;font-stretch:normal;font-size:3.52777767px;line-height:1.25;font-family:Steagisler;-inkscape-font-specification:Steagisler;font-variant-ligatures:normal;font-variant-caps:normal;font-variant-numeric:normal;font-feature-settings:normal;text-align:center;letter-spacing:0px;word-spacing:0px;writing-mode:lr-tb;text-anchor:middle;display:inline;fill:#000000;fill-opacity:1;stroke:none;stroke-width:0.26458332"
       id="text4627-7-4">
      <path
         inkscape:connector-curvature="0"
         d="m 7.0936859,204.35933 q 0.1050754,0 0.1774224,0.0724 0.07407,0.0741 0.07407,0.17742 0,0.10508 -0.07407,0.17915 -0.072347,0.0724 -0.1774224,0.0724 -0.1033529,0 -0.1774224,-0.0724 -0.07407,-0.0741 -0.07407,-0.17915 0,-0.10335 0.07407,-0.17742 0.074069,-0.0724 0.1774224,-0.0724 z M 7.2917788,207 H 6.8955929 v -1.57269 q 0,-0.0207 -0.020671,-0.0207 H 6.681997 v -0.30144 h 0.6097818 z"
         style="stroke-width:0.26458332"
         id="path4755-2-6" />
      <path
         inkscape:connector-curvature="0"
         d="m 8.1668331,205.23783 q 0.00345,0.0155 0.022393,0.0155 0.00861,0 0.015503,-0.009 0.1567518,-0.17914 0.4547526,-0.17914 0.2842203,0 0.4409722,0.16192 0.1550293,0.16192 0.1550293,0.44786 V 207 h -0.396186 v -1.30914 q 0,-0.12574 -0.093018,-0.20153 -0.08785,-0.0706 -0.2153184,-0.0706 -0.1291911,0 -0.2153185,0.0706 -0.09474,0.0758 -0.09474,0.20153 V 207 h -0.396186 v -1.8948 h 0.2911106 z"
         style="stroke-width:0.26458332"
         id="path4757-2-6" />
    </g>
    <g
       transform="translate(-1.7918549e-6,40.8017)"
       aria-label="cv"
       style="font-style:normal;font-variant:normal;font-weight:normal;font-stretch:normal;font-size:3.52777767px;line-height:1.25;font-family:Steagisler;-inkscape-font-specification:Steagisler;font-variant-ligatures:normal;font-variant-caps:normal;font-variant-numeric:normal;font-feature-settings:normal;text-align:center;letter-spacing:0px;word-spacing:0px;writing-mode:lr-tb;text-anchor:middle;display:inline;fill:#000000;fill-opacity:1;stroke:none;stroke-width:0.26458332"
       id="text4631-7-0">
      <path
         inkscape:connector-curvature="0"
         d="m 17.914152,206.39022 q 0,0.28422 -0.215318,0.45475 Q 17.500741,207 17.207908,207 q -0.291111,0 -0.489204,-0.15503 -0.215318,-0.17053 -0.215318,-0.45475 v -0.76309 q 0,-0.28422 0.215318,-0.45303 0.198093,-0.15675 0.489204,-0.15675 0.29111,0 0.48059,0.15675 0.204984,0.16881 0.204984,0.45303 v 0.0568 h -0.375516 v -0.0413 q 0,-0.12575 -0.09474,-0.20154 -0.08785,-0.0689 -0.215318,-0.0689 -0.127469,0 -0.215319,0.0689 -0.09474,0.0758 -0.09474,0.20154 v 0.73381 q 0,0.12402 0.09474,0.19981 0.08785,0.0706 0.215319,0.0706 0.129191,0 0.223931,-0.0689 0.105075,-0.0775 0.105075,-0.20153 v -0.0413 h 0.377238 z"
         style="stroke-width:0.26458332"
         id="path4750-0-1" />
      <path
         inkscape:connector-curvature="0"
         d="m 18.150141,205.05696 h 0.389296 l 0.310059,1.52274 q 0.0034,0.0172 0.01895,0.0172 0.01722,0 0.02067,-0.0172 l 0.310059,-1.52274 h 0.389295 l -0.45303,1.91031 h -0.532267 z"
         style="stroke-width:0.26458332"
         id="path4752-7-7" />
    </g>
    <rect
       style="display:inline;opacity:1;fill:#333333;fill-opacity:1;stroke:none;stroke-width:0.2649999;stroke-miterlimit:4;stroke-dasharray:none;stroke-dashoffset:0;stroke-opacity:0.94779142"
       id="rect5407-5-1-4"
       width="9"
       height="16"
       x="37.846664"
       y="232.7153"
       rx="1.0000002"
       ry="1.0000006" />
    <g
       transform="translate(-1.7918549e-6,40.8017)"
       aria-label="out"
       style="font-style:normal;font-variant:normal;font-weight:normal;font-stretch:normal;font-size:3.52777767px;line-height:1.25;font-family:Steagisler;-inkscape-font-specification:Steagisler;font-variant-ligatures:normal;font-variant-caps:normal;font-variant-numeric:normal;font-feature-settings:normal;text-align:center;letter-spacing:0px;word-spacing:0px;writing-mode:lr-tb;text-anchor:middle;display:inline;fill:#f9f9f9;fill-opacity:1;stroke:none;stroke-width:0.26458332"
       id="text4639-4-9">
      <path
         inkscape:connector-curvature="0"
         d="m 40.286323,205.62713 q 0,-0.28422 0.215318,-0.45303 0.198093,-0.15675 0.489204,-0.15675 0.292833,0 0.490926,0.15675 0.215318,0.16881 0.215318,0.45303 v 0.76309 q 0,0.28422 -0.215318,0.45475 Q 41.283678,207 40.990845,207 q -0.291111,0 -0.489204,-0.15503 -0.215318,-0.17053 -0.215318,-0.45475 z m 1.01458,0.0155 q 0,-0.12575 -0.09474,-0.20154 -0.08785,-0.0689 -0.215318,-0.0689 -0.127469,0 -0.215319,0.0689 -0.09302,0.0758 -0.09302,0.20154 v 0.73381 q 0,0.12402 0.09302,0.19981 0.08785,0.0706 0.215319,0.0706 0.127468,0 0.215318,-0.0706 0.09474,-0.0758 0.09474,-0.19981 z"
         style="fill:#f9f9f9;fill-opacity:1;stroke-width:0.26458332"
         id="path4743-5-6" />
      <path
         inkscape:connector-curvature="0"
         d="m 43.145752,206.82774 q -0.0034,-0.0121 -0.0155,-0.0138 -0.0034,-0.002 -0.0069,-0.002 -0.0069,0 -0.01206,0.007 Q 42.952827,207 42.653103,207 q -0.28422,0 -0.440972,-0.16192 -0.155029,-0.16192 -0.155029,-0.44786 v -1.33326 h 0.396186 v 1.31775 q 0,0.12575 0.09302,0.20154 0.08785,0.0706 0.215319,0.0706 0.129191,0 0.215318,-0.0706 0.09474,-0.0758 0.09474,-0.20154 v -1.31775 h 0.396186 v 1.89481 h -0.29111 z"
         style="fill:#f9f9f9;fill-opacity:1;stroke-width:0.26458332"
         id="path4745-7-7" />
      <path
         inkscape:connector-curvature="0"
         d="m 43.80721,205.05696 h 0.227376 q 0.02067,0 0.02067,-0.0207 v -0.49609 h 0.396186 v 0.49609 q 0,0.0207 0.02067,0.0207 h 0.366902 v 0.30145 h -0.366902 q -0.02067,0 -0.02067,0.0207 v 1.03008 q 0.01206,0.25839 0.192925,0.25839 0.08613,0 0.194648,-0.0207 v 0.30489 Q 44.70638,207 44.572021,207 q -0.502984,-0.002 -0.516764,-0.55811 v -1.06281 q 0,-0.0207 -0.02067,-0.0207 H 43.80721 Z"
         style="fill:#f9f9f9;fill-opacity:1;stroke-width:0.26458332"
         id="path4747-9-3" />
    </g>
    <rect
       style="display:inline;opacity:0.98000004;fill:#f2f2f2;fill-opacity:1;stroke:none;stroke-width:0.26499999;stroke-miterlimit:4;stroke-dasharray:none;stroke-dashoffset:0;stroke-opacity:0.94779142"
       id="rect5407-1-1-9"
       width="44.799999"
       height="18"
       x="3"
       y="252"
       rx="1.0000006"
       ry="1.0000006" />
    <g
       transform="translate(-1.7918549e-6,61.202541)"
       aria-label="in"
       style="font-style:normal;font-variant:normal;font-weight:normal;font-stretch:normal;font-size:3.52777767px;line-height:1.25;font-family:Steagisler;-inkscape-font-specification:Steagisler;font-variant-ligatures:normal;font-variant-caps:normal;font-variant-numeric:normal;font-feature-settings:normal;text-align:center;letter-spacing:0px;word-spacing:0px;writing-mode:lr-tb;text-anchor:middle;display:inline;fill:#000000;fill-opacity:1;stroke:none;stroke-width:0.26458332"
       id="text4627-7-4-4">
      <path
         inkscape:connector-curvature="0"
         d="m 7.0936859,204.35933 q 0.1050754,0 0.1774224,0.0724 0.07407,0.0741 0.07407,0.17742 0,0.10508 -0.07407,0.17915 -0.072347,0.0724 -0.1774224,0.0724 -0.1033529,0 -0.1774224,-0.0724 -0.07407,-0.0741 -0.07407,-0.17915 0,-0.10335 0.07407,-0.17742 0.074069,-0.0724 0.1774224,-0.0724 z M 7.2917788,207 H 6.8955929 v -1.57269 q 0,-0.0207 -0.020671,-0.0207 H 6.681997 v -0.30144 h 0.6097818 z"
         style="stroke-width:0.26458332"
         id="path4755-2-6-2" />
      <path
         inkscape:connector-curvature="0"
         d="m 8.1668331,205.23783 q 0.00345,0.0155 0.022393,0.0155 0.00861,0 0.015503,-0.009 0.1567518,-0.17914 0.4547526,-0.17914 0.2842203,0 0.4409722,0.16192 0.1550293,0.16192 0.1550293,0.44786 V 207 h -0.396186 v -1.30914 q 0,-0.12574 -0.093018,-0.20153 -0.08785,-0.0706 -0.2153184,-0.0706 -0.1291911,0 -0.2153185,0.0706 -0.09474,0.0758 -0.09474,0.20153 V 207 h -0.396186 v -1.8948 h 0.2911106 z"
         style="stroke-width:0.26458332"
         id="path4757-2-6-2" />
    </g>
    <g
       transform="translate(-1.7918549e-6,61.202541)"
       aria-label="cv"
       style="font-style:normal;font-variant:normal;font-weight:normal;font-stretch:normal;font-size:3.52777767px;line-height:1.25;font-family:Steagisler;-inkscape-font-specification:Steagisler;font-variant-ligatures:normal;font-variant-caps:normal;font-variant-numeric:normal;font-feature-settings:normal;text-align:center;letter-spacing:0px;word-spacing:0px;writing-mode:lr-tb;text-anchor:middle;display:inline;fill:#000000;fill-opacity:1;stroke:none;stroke-width:0.26458332"
       id="text4631-7-0-8">
      <path
         inkscape:connector-curvature="0"
         d="m 17.914152,206.39022 q 0,0.28422 -0.215318,0.45475 Q 17.500741,207 17.207908,207 q -0.291111,0 -0.489204,-0.15503 -0.215318,-0.17053 -0.215318,-0.45475 v -0.76309 q 0,-0.28422 0.215318,-0.45303 0.198093,-0.15675 0.489204,-0.15675 0.29111,0 0.48059,0.15675 0.204984,0.16881 0.204984,0.45303 v 0.0568 h -0.375516 v -0.0413 q 0,-0.12575 -0.09474,-0.20154 -0.08785,-0.0689 -0.215318,-0.0689 -0.127469,0 -0.215319,0.0689 -0.09474,0.0758 -0.09474,0.20154 v 0.73381 q 0,0.12402 0.09474,0.19981 0.08785,0.0706 0.215319,0.0706 0.129191,0 0.223931,-0.0689 0.105075,-0.0775 0.105075,-0.20153 v -0.0413 h 0.377238 z"
         style="stroke-width:0.26458332"
         id="path4750-0-1-2" />
      <path
         inkscape:connector-curvature="0"
         d="m 18.150141,205.05696 h 0.389296 l 0.310059,1.52274 q 0.0034,0.0172 0.01895,0.0172 0.01722,0 0.02067,-0.0172 l 0.310059,-1.52274 h 0.389295 l -0.45303,1.91031 h -0.532267 z"
         style="stroke-width:0.26458332"
         id="path4752-7-7-4" />
    </g>
    <rect
       style="display:inline;opacity:1;fill:#333333;fill-opacity:1;stroke:none;stroke-width:0.2649999;stroke-miterlimit:4;stroke-dasharray:none;stroke-dashoffset:0;stroke-opacity:0.94779142"
       id="rect5407-5-1-4-2"
       width="9"
       height="16"
       x="37.846664"
       y="253.11612"
       rx="1.0000002"
       ry="1.0000006" />
    <g
       transform="translate(-1.7918549e-6,61.202541)"
       aria-label="out"
       style="font-style:normal;font-variant:normal;font-weight:normal;font-stretch:normal;font-size:3.52777767px;line-height:1.25;font-family:Steagisler;-inkscape-font-specification:Steagisler;font-variant-ligatures:normal;font-variant-caps:normal;font-variant-numeric:normal;font-feature-settings:normal;text-align:center;letter-spacing:0px;word-spacing:0px;writing-mode:lr-tb;text-anchor:middle;display:inline;fill:#f9f9f9;fill-opacity:1;stroke:none;stroke-width:0.26458332"
       id="text4639-4-9-1">
      <path
         inkscape:connector-curvature="0"
         d="m 40.286323,205.62713 q 0,-0.28422 0.215318,-0.45303 0.198093,-0.15675 0.489204,-0.15675 0.292833,0 0.490926,0.15675 0.215318,0.16881 0.215318,0.45303 v 0.76309 q 0,0.28422 -0.215318,0.45475 Q 41.283678,207 40.990845,207 q -0.291111,0 -0.489204,-0.15503 -0.215318,-0.17053 -0.215318,-0.45475 z m 1.01458,0.0155 q 0,-0.12575 -0.09474,-0.20154 -0.08785,-0.0689 -0.215318,-0.0689 -0.127469,0 -0.215319,0.0689 -0.09302,0.0758 -0.09302,0.20154 v 0.73381 q 0,0.12402 0.09302,0.19981 0.08785,0.0706 0.215319,0.0706 0.127468,0 0.215318,-0.0706 0.09474,-0.0758 0.09474,-0.19981 z"
         style="fill:#f9f9f9;fill-opacity:1;stroke-width:0.26458332"
         id="path4743-5-6-2" />
      <path
         inkscape:connector-curvature="0"
         d="m 43.145752,206.82774 q -0.0034,-0.0121 -0.0155,-0.0138 -0.0034,-0.002 -0.0069,-0.002 -0.0069,0 -0.01206,0.007 Q 42.952827,207 42.653103,207 q -0.28422,0 -0.440972,-0.16192 -0.155029,-0.16192 -0.155029,-0.44786 v -1.33326 h 0.396186 v 1.31775 q 0,0.12575 0.09302,0.20154 0.08785,0.0706 0.215319,0.0706 0.129191,0 0.215318,-0.0706 0.09474,-0.0758 0.09474,-0.20154 v -1.31775 h 0.396186 v 1.89481 h -0.29111 z"
         style="fill:#f9f9f9;fill-opacity:1;stroke-width:0.26458332"
         id="path4745-7-7-6" />
      <path
         inkscape:connector-curvature="0"
         d="m 43.80721,205.05696 h 0.227376 q 0.02067,0 0.02067,-0.0207 v -0.49609 h 0.396186 v 0.49609 q 0,0.0207 0.02067,0.0207 h 0.366902 v 0.30145 h -0.366902 q -0.02067,0 -0.02067,0.0207 v 1.03008 q 0.01206,0.25839 0.192925,0.25839 0.08613,0 0.194648,-0.0207 v 0.30489 Q 44.70638,207 44.572021,207 q -0.502984,-0.002 -0.516764,-0.55811 v -1.06281 q 0,-0.0207 -0.02067,-0.0207 H 43.80721 Z"
         style="fill:#f9f9f9;fill-opacity:1;stroke-width:0.26458332"
         id="path4747-9-3-2" />
    </g>
    <g
       aria-label="quad_vca. "
       style="font-style:normal;font-variant:normal;font-weight:normal;font-stretch:normal;font-size:3.52777767px;line-height:1.25;font-family:Steagisler;-inkscape-font-specification:Steagisler;font-variant-ligatures:normal;font-variant-caps:normal;font-variant-numeric:normal;font-feature-settings:normal;text-align:center;letter-spacing:0px;word-spacing:0px;writing-mode:lr-tb;text-anchor:middle;fill:#f2f2f2;fill-opacity:1;stroke:none;stroke-width:0.26458332;opacity:0.97000004"
       id="text5261">
      <path
         d="m 34.413183,283.18521 v -0.80443 q 0,-0.0207 -0.02239,-0.0207 -0.0052,0 -0.01033,0.003 -0.151584,0.11369 -0.385851,0.11369 -0.28422,0 -0.440972,-0.16192 -0.156752,-0.1602 -0.156752,-0.44786 v -0.76309 q 0,-0.28595 0.156752,-0.44614 0.156752,-0.16364 0.440972,-0.16364 0.298001,0 0.456476,0.18086 0.0069,0.007 0.01723,0.007 0.0155,0 0.01895,-0.0155 l 0.02928,-0.13264 h 0.291111 v 2.651 z m 0,-2.06533 q 0,-0.12575 -0.09474,-0.20154 -0.08785,-0.0689 -0.215318,-0.0689 -0.127469,0 -0.215318,0.0689 -0.09474,0.0758 -0.09474,0.20154 v 0.73381 q 0,0.12402 0.09474,0.19981 0.08785,0.0706 0.215318,0.0706 0.127469,0 0.215318,-0.0706 0.09474,-0.0758 0.09474,-0.19981 z"
         style="text-align:end;text-anchor:end;fill:#f2f2f2;fill-opacity:1;stroke-width:0.26458332"
         id="path5284" />
      <path
         d="m 36.359661,282.30499 q -0.0034,-0.0121 -0.0155,-0.0138 -0.0034,-0.002 -0.0069,-0.002 -0.0069,0 -0.01206,0.007 -0.158475,0.18087 -0.458198,0.18087 -0.284221,0 -0.440972,-0.16192 -0.15503,-0.16192 -0.15503,-0.44786 v -1.33326 h 0.396186 v 1.31775 q 0,0.12575 0.09302,0.20154 0.08785,0.0706 0.215318,0.0706 0.129191,0 0.215319,-0.0706 0.09474,-0.0758 0.09474,-0.20154 v -1.31775 h 0.396186 v 1.89481 h -0.291111 z"
         style="text-align:end;text-anchor:end;fill:#f2f2f2;fill-opacity:1;stroke-width:0.26458332"
         id="path5286" />
      <path
         d="m 38.559355,282.42902 h -0.406521 q -0.02067,-0.0465 -0.03445,-0.0965 -0.0034,-0.0121 -0.0155,-0.0155 -0.0034,-0.002 -0.0052,-0.002 -0.0069,0 -0.01378,0.007 -0.149862,0.15503 -0.422024,0.15503 -0.578776,0 -0.578776,-0.56844 0,-0.34107 0.347954,-0.47026 0.165365,-0.062 0.341065,-0.062 0.146416,0 0.301445,0.0431 0.0034,0.002 0.0052,0.002 0.0069,0 0.01206,-0.005 0.0086,-0.005 0.0086,-0.0155 v -0.28078 q 0,-0.12575 -0.09474,-0.20154 -0.08785,-0.0689 -0.215319,-0.0689 -0.127468,0 -0.215318,0.0689 -0.09474,0.0758 -0.09474,0.20154 v 0.0413 h -0.375516 v -0.0568 q 0,-0.28422 0.210151,-0.45303 0.194648,-0.15675 0.485758,-0.15675 0.291111,0 0.485759,0.15675 0.208428,0.16881 0.208428,0.45303 v 1.0542 q 0,0.12402 0.06546,0.27044 z m -0.45992,-0.72003 q 0,-0.0138 -0.01378,-0.0189 -0.120578,-0.0431 -0.244601,-0.0431 -0.06201,0 -0.125746,0.0103 -0.235989,0.0396 -0.235989,0.23772 0,0.2291 0.310058,0.2291 0.127469,0 0.215319,-0.0689 0.09474,-0.0758 0.09474,-0.19981 z"
         style="text-align:end;text-anchor:end;fill:#f2f2f2;fill-opacity:1;stroke-width:0.26458332"
         id="path5288" />
      <path
         d="m 40.390423,282.42902 h -0.404798 q -0.02239,-0.0448 -0.03445,-0.0947 -0.0034,-0.0103 -0.0155,-0.0138 -0.0034,-0.002 -0.0052,-0.002 -0.0069,0 -0.01378,0.007 -0.151585,0.15159 -0.422025,0.15159 -0.282497,0 -0.434082,-0.16364 -0.144694,-0.15848 -0.144694,-0.44614 v -0.76309 q 0,-0.28595 0.15503,-0.44614 0.156752,-0.16364 0.440972,-0.16364 0.234266,0 0.385851,0.11368 0.0052,0.005 0.01206,0.005 0.0034,0 0.0086,-0.003 0.01206,-0.005 0.01206,-0.0172 v -0.80443 h 0.396186 v 2.37023 q 0,0.12402 0.06373,0.27044 z m -0.45992,-1.30914 q 0,-0.12575 -0.09474,-0.20154 -0.08613,-0.0689 -0.215319,-0.0689 -0.127468,0 -0.215318,0.0689 -0.09302,0.0758 -0.09302,0.20154 v 0.73381 q 0,0.12402 0.09302,0.19981 0.08785,0.0706 0.215318,0.0706 0.129191,0 0.215319,-0.0706 0.09474,-0.0758 0.09474,-0.19981 z"
         style="text-align:end;text-anchor:end;fill:#f2f2f2;fill-opacity:1;stroke-width:0.26458332"
         id="path5290" />
      <path
         d="m 40.548897,282.79592 v -0.27561 h 1.410767 v 0.27561 z"
         style="text-align:end;text-anchor:end;fill:#f2f2f2;fill-opacity:1;stroke-width:0.26458332"
         id="path5292" />
      <path
         d="m 42.07163,280.53421 h 0.389296 l 0.310058,1.52274 q 0.0034,0.0172 0.01895,0.0172 0.01723,0 0.02067,-0.0172 l 0.310058,-1.52274 h 0.389296 l -0.45303,1.91031 H 42.52466 Z"
         style="text-align:end;text-anchor:end;fill:#f2f2f2;fill-opacity:1;stroke-width:0.26458332"
         id="path5294" />
      <path
         d="m 45.246285,281.86747 q 0,0.28422 -0.215319,0.45475 -0.198093,0.15503 -0.490926,0.15503 -0.29111,0 -0.489203,-0.15503 -0.215319,-0.17053 -0.215319,-0.45475 v -0.76309 q 0,-0.28422 0.215319,-0.45303 0.198093,-0.15675 0.489203,-0.15675 0.291111,0 0.480591,0.15675 0.204983,0.16881 0.204983,0.45303 v 0.0568 h -0.375515 v -0.0413 q 0,-0.12575 -0.09474,-0.20154 -0.08785,-0.0689 -0.215319,-0.0689 -0.127468,0 -0.215318,0.0689 -0.09474,0.0758 -0.09474,0.20154 v 0.73381 q 0,0.12402 0.09474,0.19981 0.08785,0.0706 0.215318,0.0706 0.129191,0 0.223931,-0.0689 0.105076,-0.0775 0.105076,-0.20153 v -0.0413 h 0.377238 z"
         style="text-align:end;text-anchor:end;fill:#f2f2f2;fill-opacity:1;stroke-width:0.26458332"
         id="path5296" />
      <path
         d="m 47.020509,282.42902 h -0.406521 q -0.02067,-0.0465 -0.03445,-0.0965 -0.0034,-0.0121 -0.0155,-0.0155 -0.0034,-0.002 -0.0052,-0.002 -0.0069,0 -0.01378,0.007 -0.149861,0.15503 -0.422024,0.15503 -0.578776,0 -0.578776,-0.56844 0,-0.34107 0.347955,-0.47026 0.165364,-0.062 0.341064,-0.062 0.146417,0 0.301446,0.0431 0.0034,0.002 0.0052,0.002 0.0069,0 0.01206,-0.005 0.0086,-0.005 0.0086,-0.0155 v -0.28078 q 0,-0.12575 -0.09474,-0.20154 -0.08785,-0.0689 -0.215318,-0.0689 -0.127469,0 -0.215319,0.0689 -0.09474,0.0758 -0.09474,0.20154 v 0.0413 h -0.375515 v -0.0568 q 0,-0.28422 0.21015,-0.45303 0.194648,-0.15675 0.485759,-0.15675 0.29111,0 0.485758,0.15675 0.208429,0.16881 0.208429,0.45303 v 1.0542 q 0,0.12402 0.06546,0.27044 z m -0.45992,-0.72003 q 0,-0.0138 -0.01378,-0.0189 -0.120579,-0.0431 -0.244602,-0.0431 -0.06201,0 -0.125746,0.0103 -0.235989,0.0396 -0.235989,0.23772 0,0.2291 0.310059,0.2291 0.127468,0 0.215318,-0.0689 0.09474,-0.0758 0.09474,-0.19981 z"
         style="text-align:end;text-anchor:end;fill:#f2f2f2;fill-opacity:1;stroke-width:0.26458332"
         id="path5298" />
      <path
         d="m 47.563112,281.97599 q 0.105075,0 0.179144,0.0741 0.07235,0.0741 0.07235,0.17742 0,0.10335 -0.07235,0.17742 -0.07407,0.0741 -0.179144,0.0741 -0.103353,0 -0.177423,-0.0741 -0.07235,-0.0741 -0.07235,-0.17742 0,-0.10335 0.07235,-0.17742 0.07407,-0.0741 0.177423,-0.0741 z"
         style="text-align:end;text-anchor:end;fill:#f2f2f2;fill-opacity:1;stroke-width:0.26458332"
         id="path5300" />
    </g>
    <g
       aria-label="simple."
       style="font-style:normal;font-variant:normal;font-weight:normal;font-stretch:normal;font-size:3.52777767px;line-height:1.25;font-family:Steagisler;-inkscape-font-specification:Steagisler;font-variant-ligatures:normal;font-variant-caps:normal;font-variant-numeric:normal;font-feature-settings:normal;text-align:center;letter-spacing:0px;word-spacing:0px;writing-mode:lr-tb;text-anchor:middle;fill:#333333;fill-opacity:1;stroke:none;stroke-width:0.26458332;opacity:0.97000004"
       id="text5267">
      <path
         d="m 37.615893,285.29175 q 0,0.12058 0.09302,0.18948 0.0844,0.0637 0.208429,0.0637 0.124023,0 0.208428,-0.0637 0.09302,-0.0689 0.09302,-0.18948 0,-0.12575 -0.155029,-0.17226 -0.141249,-0.0413 -0.334174,-0.0775 -0.242879,-0.0586 -0.366903,-0.20326 -0.122301,-0.14642 -0.122301,-0.36001 0,-0.27044 0.208429,-0.42375 0.187757,-0.1378 0.468533,-0.1378 0.280775,0 0.468533,0.1378 0.208428,0.15331 0.208428,0.42375 v 0.10163 h -0.375516 v -0.0603 q 0,-0.11886 -0.08785,-0.18776 -0.07924,-0.0637 -0.203261,-0.0637 -0.122301,0 -0.203261,0.0637 -0.08785,0.0689 -0.08785,0.18776 0,0.12747 0.15503,0.16881 0.19637,0.0517 0.334174,0.0758 0.225654,0.0482 0.356567,0.17398 0.132636,0.12402 0.132636,0.36345 0,0.30317 -0.215318,0.4582 -0.191203,0.1378 -0.471978,0.1378 -0.280775,0 -0.471978,-0.1378 -0.215319,-0.15503 -0.215319,-0.42375 v -0.10507 h 0.375516 z"
         style="fill:#333333;fill-opacity:1;stroke-width:0.26458332"
         id="path5269" />
      <path
         d="m 39.302267,283.20919 q 0.105075,0 0.177422,0.0723 0.07407,0.0741 0.07407,0.17743 0,0.10507 -0.07407,0.17914 -0.07235,0.0723 -0.177422,0.0723 -0.103353,0 -0.177422,-0.0723 -0.07407,-0.0741 -0.07407,-0.17914 0,-0.10336 0.07407,-0.17743 0.07407,-0.0723 0.177422,-0.0723 z m 0.198093,2.64066 h -0.396186 v -1.57268 q 0,-0.0207 -0.02067,-0.0207 h -0.192925 v -0.30145 h 0.609782 z"
         style="fill:#333333;fill-opacity:1;stroke-width:0.26458332"
         id="path5271" />
      <path
         d="m 40.373692,284.0808 q 0.0034,0.0155 0.02067,0.0155 0.0069,0 0.01378,-0.007 0.151584,-0.17398 0.440972,-0.17398 0.323839,0 0.471978,0.2136 0.0069,0.009 0.01723,0.009 0.01034,0 0.01723,-0.009 0.148139,-0.2136 0.471978,-0.2136 0.282498,0 0.432359,0.16364 0.144694,0.15848 0.144694,0.44614 v 1.32464 h -0.396186 v -1.30913 q 0,-0.12575 -0.0844,-0.19982 -0.07924,-0.0723 -0.206706,-0.0723 -0.125746,0 -0.206706,0.0723 -0.08441,0.0741 -0.08441,0.19982 v 1.30913 h -0.396186 v -1.30913 q 0,-0.12575 -0.08268,-0.19982 -0.08096,-0.0723 -0.208428,-0.0723 -0.125746,0 -0.206706,0.0723 -0.08268,0.0741 -0.08268,0.19982 v 1.30913 h -0.396186 v -1.8948 h 0.289388 z"
         style="fill:#333333;fill-opacity:1;stroke-width:0.26458332"
         id="path5273" />
      <path
         d="m 42.911005,283.95505 h 0.29111 l 0.03101,0.13264 q 0.0034,0.0155 0.01895,0.0155 0.01033,0 0.01723,-0.009 0.158474,-0.17915 0.456475,-0.17915 0.28422,0 0.440972,0.16364 0.155029,0.1602 0.155029,0.44614 v 0.76309 q 0,0.28767 -0.155029,0.44787 -0.156752,0.16191 -0.440972,0.16191 -0.234267,0 -0.385851,-0.11368 -0.0052,-0.003 -0.01206,-0.003 -0.02067,0 -0.02067,0.0207 v 0.80443 h -0.396186 z m 0.396186,1.31947 q 0,0.12403 0.09474,0.19982 0.08613,0.0706 0.215318,0.0706 0.127469,0 0.215319,-0.0706 0.09302,-0.0758 0.09302,-0.19982 v -0.7338 q 0,-0.12575 -0.09302,-0.20154 -0.08785,-0.0689 -0.215319,-0.0689 -0.129191,0 -0.215318,0.0689 -0.09474,0.0758 -0.09474,0.20154 z"
         style="fill:#333333;fill-opacity:1;stroke-width:0.26458332"
         id="path5275" />
      <path
         d="m 45.231276,285.84985 h -0.406521 q -0.05512,-0.11541 -0.05512,-0.25666 v -2.384 h 0.396186 v 2.37022 q 0,0.12403 0.06546,0.27044 z"
         style="fill:#333333;fill-opacity:1;stroke-width:0.26458332"
         id="path5277" />
      <path
         d="m 46.006423,285.00581 q -0.02067,0 -0.02067,0.0207 v 0.24804 q 0,0.12403 0.09474,0.19982 0.08613,0.0706 0.215319,0.0706 0.129191,0 0.223931,-0.0689 0.105076,-0.0775 0.105076,-0.20154 v -0.0413 h 0.375515 v 0.0551 q 0,0.28422 -0.215319,0.45476 -0.198092,0.15502 -0.489203,0.15502 -0.292833,0 -0.490926,-0.15502 -0.215319,-0.17054 -0.215319,-0.45476 v -0.76309 q 0,-0.28422 0.215319,-0.45303 0.198093,-0.15675 0.490926,-0.15675 0.289388,0 0.480591,0.15675 0.204983,0.16881 0.204983,0.45303 v 0.4806 z m -0.02067,-0.29628 q 0,0.0207 0.02067,0.0207 h 0.577053 q 0.02067,0 0.02067,-0.0207 v -0.16881 q 0,-0.12575 -0.09302,-0.20154 -0.08785,-0.0689 -0.215318,-0.0689 -0.129191,0 -0.215319,0.0689 -0.09474,0.0758 -0.09474,0.20154 z"
         style="fill:#333333;fill-opacity:1;stroke-width:0.26458332"
         id="path5279" />
      <path
         d="m 47.54638,285.39682 q 0.105076,0 0.179145,0.0741 0.07235,0.0741 0.07235,0.17743 0,0.10335 -0.07235,0.17742 -0.07407,0.0741 -0.179145,0.0741 -0.103353,0 -0.177422,-0.0741 -0.07235,-0.0741 -0.07235,-0.17742 0,-0.10336 0.07235,-0.17743 0.07407,-0.0741 0.177422,-0.0741 z"
         style="fill:#333333;fill-opacity:1;stroke-width:0.26458332"
         id="path5281" />
    </g>
    <g
       aria-label="adsynth."
       style="font-style:normal;font-variant:normal;font-weight:normal;font-stretch:normal;font-size:3.52777767px;line-height:1.25;font-family:Steagisler;-inkscape-font-specification:Steagisler;font-variant-ligatures:normal;font-variant-caps:normal;font-variant-numeric:normal;font-feature-settings:normal;text-align:start;letter-spacing:0px;word-spacing:0px;writing-mode:lr-tb;text-anchor:start;fill:#f2f2f2;fill-opacity:1;stroke:none;stroke-width:0.26458332"
       id="text5305">
      <path
         d="M 4.4762234,184.17319 H 4.0697021 q -0.020671,-0.0465 -0.034451,-0.0965 -0.00345,-0.012 -0.015503,-0.0155 -0.00345,-0.002 -0.00517,-0.002 -0.00689,0 -0.01378,0.007 -0.1498616,0.15503 -0.4220242,0.15503 Q 3,184.22142 3,183.65298 q 0,-0.34107 0.3479546,-0.47026 0.1653646,-0.062 0.3410645,-0.062 0.1464165,0 0.3014458,0.0431 0.00345,0.002 0.00517,0.002 0.00689,0 0.012058,-0.005 0.00861,-0.005 0.00861,-0.0155 v -0.28078 q 0,-0.12574 -0.09474,-0.20154 -0.08785,-0.0689 -0.2153185,-0.0689 -0.1274685,0 -0.2153184,0.0689 -0.09474,0.0758 -0.09474,0.20154 v 0.0413 H 3.0206706 v -0.0568 q 0,-0.28422 0.2101508,-0.45303 0.1946479,-0.15675 0.4857584,-0.15675 0.2911106,0 0.4857585,0.15675 0.2084283,0.16881 0.2084283,0.45303 v 1.0542 q 0,0.12402 0.065457,0.27044 z m -0.4599203,-0.72003 q 0,-0.0138 -0.01378,-0.0189 -0.1205784,-0.0431 -0.2446018,-0.0431 -0.062012,0 -0.125746,0.0103 -0.235989,0.0396 -0.235989,0.23771 0,0.2291 0.3100585,0.2291 0.1274686,0 0.2153185,-0.0689 0.09474,-0.0758 0.09474,-0.19981 z"
         style="text-align:start;text-anchor:start;fill:#f2f2f2;fill-opacity:1;stroke-width:0.26458332"
         id="path5311" />
      <path
         d="M 6.3072915,184.17319 H 5.9024928 q -0.022393,-0.0448 -0.034451,-0.0947 -0.00345,-0.0103 -0.015503,-0.0138 -0.00345,-0.002 -0.00517,-0.002 -0.00689,0 -0.01378,0.007 -0.1515842,0.15159 -0.4220241,0.15159 -0.2824979,0 -0.4340821,-0.16364 -0.144694,-0.15848 -0.144694,-0.44614 v -0.76309 q 0,-0.28594 0.1550293,-0.44614 0.1567519,-0.16364 0.4409722,-0.16364 0.2342665,0 0.3858507,0.11368 0.00517,0.005 0.012058,0.005 0.00345,0 0.00861,-0.003 0.012058,-0.005 0.012058,-0.0172 v -0.80443 h 0.396186 v 2.37023 q 0,0.12402 0.063734,0.27044 z m -0.4599202,-1.30914 q 0,-0.12574 -0.09474,-0.20154 -0.086127,-0.0689 -0.2153185,-0.0689 -0.1274685,0 -0.2153184,0.0689 -0.093018,0.0758 -0.093018,0.20154 v 0.73381 q 0,0.12402 0.093018,0.19981 0.08785,0.0706 0.2153184,0.0706 0.1291911,0 0.2153185,-0.0706 0.09474,-0.0758 0.09474,-0.19981 z"
         style="text-align:start;text-anchor:start;fill:#f2f2f2;fill-opacity:1;stroke-width:0.26458332"
         id="path5313" />
      <path
         d="m 7.0083684,183.61508 q 0,0.12058 0.093018,0.18948 0.084405,0.0637 0.2084283,0.0637 0.1240234,0 0.2084283,-0.0637 0.093018,-0.0689 0.093018,-0.18948 0,-0.12574 -0.1550293,-0.17225 -0.1412489,-0.0413 -0.3341742,-0.0775 -0.2428792,-0.0586 -0.3669027,-0.20326 -0.1223008,-0.14641 -0.1223008,-0.36001 0,-0.27044 0.2084282,-0.42375 0.1877577,-0.1378 0.468533,-0.1378 0.2807753,0 0.468533,0.1378 0.2084282,0.15331 0.2084282,0.42375 v 0.10163 H 7.6112601 v -0.0603 q 0,-0.11886 -0.08785,-0.18776 -0.079237,-0.0637 -0.2032606,-0.0637 -0.1223009,0 -0.2032606,0.0637 -0.08785,0.0689 -0.08785,0.18776 0,0.12747 0.1550293,0.16881 0.1963705,0.0517 0.3341743,0.0758 0.2256537,0.0482 0.3565673,0.17398 0.1326362,0.12402 0.1326362,0.36346 0,0.30317 -0.2153185,0.45819 -0.1912027,0.13781 -0.471978,0.13781 -0.2807753,0 -0.4719781,-0.13781 -0.2153184,-0.15502 -0.2153184,-0.42374 v -0.10508 h 0.3755153 z"
         style="text-align:start;text-anchor:start;fill:#f2f2f2;fill-opacity:1;stroke-width:0.26458332"
         id="path5315" />
      <path
         d="M 8.898003,184.04055 H 8.7033551 l -0.4805908,-1.76217 h 0.3892958 l 0.3376194,1.3746 q 0.00345,0.0172 0.018948,0.0172 0.017226,0 0.020671,-0.0172 l 0.2824978,-1.3746 h 0.3892958 l -0.6097819,2.71646 H 8.662014 Z"
         style="text-align:start;text-anchor:start;fill:#f2f2f2;fill-opacity:1;stroke-width:0.26458332"
         id="path5317" />
      <path
         d="m 10.319105,182.41102 q 0.0034,0.0155 0.02239,0.0155 0.0086,0 0.0155,-0.009 0.156752,-0.17914 0.454753,-0.17914 0.28422,0 0.440972,0.16192 0.155029,0.16192 0.155029,0.44786 v 1.32464 h -0.396186 v -1.30914 q 0,-0.12574 -0.09302,-0.20154 -0.08785,-0.0706 -0.215319,-0.0706 -0.129191,0 -0.215318,0.0706 -0.09474,0.0758 -0.09474,0.20154 v 1.30914 H 9.9969887 v -1.89481 h 0.2911103 z"
         style="text-align:start;text-anchor:start;fill:#f2f2f2;fill-opacity:1;stroke-width:0.26458332"
         id="path5319" />
      <path
         d="m 11.647189,182.27838 h 0.227376 q 0.02067,0 0.02067,-0.0207 v -0.49609 h 0.396186 v 0.49609 q 0,0.0207 0.02067,0.0207 h 0.366902 v 0.30145 h -0.366902 q -0.02067,0 -0.02067,0.0207 v 1.03008 q 0.01206,0.25839 0.192925,0.25839 0.08613,0 0.194648,-0.0207 v 0.30489 q -0.132636,0.0482 -0.266995,0.0482 -0.502984,-0.002 -0.516764,-0.55811 v -1.06281 q 0,-0.0207 -0.02067,-0.0207 h -0.227376 z"
         style="text-align:start;text-anchor:start;fill:#f2f2f2;fill-opacity:1;stroke-width:0.26458332"
         id="path5321" />
      <path
         d="m 13.517876,181.53252 v 0.80443 q 0,0.0121 0.01206,0.0172 0.0052,0.003 0.0086,0.003 0.0069,0 0.01206,-0.005 0.151584,-0.11368 0.38585,-0.11368 0.284221,0 0.440973,0.16192 0.155029,0.16192 0.155029,0.44786 v 1.32464 h -0.396186 v -1.30914 q 0,-0.12574 -0.09302,-0.20154 -0.08785,-0.0706 -0.215318,-0.0706 -0.129191,0 -0.215318,0.0706 -0.09474,0.0758 -0.09474,0.20154 v 1.30914 H 13.12169 v -2.64067 z"
         style="text-align:start;text-anchor:start;fill:#f2f2f2;fill-opacity:1;stroke-width:0.26458332"
         id="path5323" />
      <path
         d="m 15.181857,183.72016 q 0.105076,0 0.179145,0.0741 0.07235,0.0741 0.07235,0.17742 0,0.10335 -0.07235,0.17742 -0.07407,0.0741 -0.179145,0.0741 -0.103353,0 -0.177422,-0.0741 -0.07235,-0.0741 -0.07235,-0.17742 0,-0.10335 0.07235,-0.17742 0.07407,-0.0741 0.177422,-0.0741 z"
         style="text-align:start;text-anchor:start;fill:#f2f2f2;fill-opacity:1;stroke-width:0.26458332"
         id="path5325" />
    </g>
    <g
       aria-label="made_by"
       style="font-style:normal;font-variant:normal;font-weight:normal;font-stretch:normal;font-size:3.52777767px;line-height:1.25;font-family:Steagisler;-inkscape-font-specification:Steagisler;font-variant-ligatures:normal;font-variant-caps:normal;font-variant-numeric:normal;font-feature-settings:normal;text-align:center;letter-spacing:0px;word-spacing:0px;writing-mode:lr-tb;text-anchor:middle;fill:#333333;fill-opacity:1;stroke:none;stroke-width:0.26458332"
       id="text5309">
      <path
         d="m 3.3203937,179.00325 q 0.00345,0.0155 0.020671,0.0155 0.00689,0 0.01378,-0.007 0.1515842,-0.17397 0.4409722,-0.17397 0.323839,0 0.4719781,0.21359 0.00689,0.009 0.017225,0.009 0.010335,0 0.017226,-0.009 0.1481391,-0.21359 0.4719781,-0.21359 0.2824978,0 0.4323595,0.16364 0.144694,0.15847 0.144694,0.44614 v 1.32464 h -0.396186 v -1.30914 q 0,-0.12574 -0.084405,-0.19981 -0.079237,-0.0724 -0.2067058,-0.0724 -0.1257459,0 -0.2067057,0.0724 -0.084405,0.0741 -0.084405,0.19981 v 1.30914 h -0.396186 v -1.30914 q 0,-0.12574 -0.082682,-0.19981 -0.08096,-0.0724 -0.2084282,-0.0724 -0.125746,0 -0.2067058,0.0724 -0.082682,0.0741 -0.082682,0.19981 v 1.30914 H 2.9999999 v -1.8948 h 0.289388 z"
         style="fill:#333333;fill-opacity:1;stroke-width:0.26458332"
         id="path5328" />
      <path
         d="M 7.2288545,180.77231 H 6.8223333 q -0.020671,-0.0465 -0.034451,-0.0965 -0.00345,-0.0121 -0.015503,-0.0155 -0.00345,-0.002 -0.00517,-0.002 -0.00689,0 -0.01378,0.007 -0.1498617,0.15503 -0.4220242,0.15503 -0.578776,0 -0.578776,-0.56844 0,-0.34107 0.3479546,-0.47026 0.1653646,-0.062 0.3410644,-0.062 0.1464166,0 0.3014459,0.0431 0.00345,0.002 0.00517,0.002 0.00689,0 0.012058,-0.005 0.00861,-0.005 0.00861,-0.0155 v -0.28078 q 0,-0.12574 -0.09474,-0.20154 -0.08785,-0.0689 -0.2153185,-0.0689 -0.1274685,0 -0.2153184,0.0689 -0.09474,0.0758 -0.09474,0.20154 v 0.0413 H 5.7733017 v -0.0568 q 0,-0.28422 0.2101509,-0.45303 0.1946478,-0.15675 0.4857584,-0.15675 0.2911106,0 0.4857585,0.15675 0.2084282,0.16881 0.2084282,0.45303 v 1.0542 q 0,0.12402 0.065457,0.27044 z m -0.4599202,-0.72003 q 0,-0.0138 -0.01378,-0.0189 -0.1205783,-0.0431 -0.2446017,-0.0431 -0.062012,0 -0.125746,0.0103 -0.2359891,0.0396 -0.2359891,0.23771 0,0.2291 0.3100586,0.2291 0.1274686,0 0.2153185,-0.0689 0.09474,-0.0758 0.09474,-0.19982 z"
         style="fill:#333333;fill-opacity:1;stroke-width:0.26458332"
         id="path5330" />
      <path
         d="M 9.0599228,180.77231 H 8.6551241 q -0.022393,-0.0448 -0.034451,-0.0947 -0.00345,-0.0103 -0.015503,-0.0138 -0.00345,-0.002 -0.00517,-0.002 -0.00689,0 -0.01378,0.007 -0.1515842,0.15158 -0.4220242,0.15158 -0.2824978,0 -0.434082,-0.16364 -0.144694,-0.15848 -0.144694,-0.44614 v -0.76309 q 0,-0.28594 0.1550293,-0.44614 0.1567518,-0.16364 0.4409722,-0.16364 0.2342665,0 0.3858507,0.11369 0.00517,0.005 0.012058,0.005 0.00345,0 0.00861,-0.003 0.012058,-0.005 0.012058,-0.0172 v -0.80443 h 0.396186 v 2.37023 q 0,0.12402 0.063734,0.27044 z m -0.4599202,-1.30914 q 0,-0.12574 -0.09474,-0.20154 -0.086127,-0.0689 -0.2153185,-0.0689 -0.1274685,0 -0.2153184,0.0689 -0.093018,0.0758 -0.093018,0.20154 v 0.73381 q 0,0.12402 0.093018,0.19981 0.08785,0.0706 0.2153184,0.0706 0.1291911,0 0.2153185,-0.0706 0.09474,-0.0758 0.09474,-0.19981 z"
         style="fill:#333333;fill-opacity:1;stroke-width:0.26458332"
         id="path5332" />
      <path
         d="m 9.8350694,179.92826 q -0.020671,0 -0.020671,0.0207 v 0.24805 q 0,0.12402 0.09474,0.19981 0.086127,0.0706 0.215318,0.0706 0.129191,0 0.223932,-0.0689 0.105075,-0.0775 0.105075,-0.20154 v -0.0413 h 0.375515 v 0.0551 q 0,0.28422 -0.215318,0.45475 -0.198093,0.15503 -0.489204,0.15503 -0.2928327,0 -0.4909257,-0.15503 -0.2153184,-0.17053 -0.2153184,-0.45475 v -0.76309 q 0,-0.28422 0.2153184,-0.45303 0.198093,-0.15675 0.4909257,-0.15675 0.289388,0 0.480591,0.15675 0.204983,0.16881 0.204983,0.45303 v 0.48059 z m -0.020671,-0.29628 q 0,0.0207 0.020671,0.0207 h 0.5770536 q 0.02067,0 0.02067,-0.0207 v -0.16881 q 0,-0.12574 -0.09302,-0.20154 -0.08785,-0.0689 -0.215319,-0.0689 -0.1291907,0 -0.215318,0.0689 -0.09474,0.0758 -0.09474,0.20154 z"
         style="fill:#333333;fill-opacity:1;stroke-width:0.26458332"
         id="path5334" />
      <path
         d="m 10.989176,181.13921 v -0.27561 h 1.410767 v 0.27561 z"
         style="fill:#333333;fill-opacity:1;stroke-width:0.26458332"
         id="path5336" />
      <path
         d="m 13.1148,178.13164 v 0.80443 q 0,0.0121 0.01033,0.0172 0.0052,0.003 0.01034,0.003 0.0069,0 0.01206,-0.005 0.151584,-0.11369 0.38585,-0.11369 0.282498,0 0.440973,0.16364 0.155029,0.1602 0.155029,0.44614 v 0.76309 q 0,0.28766 -0.155029,0.44786 -0.156752,0.16192 -0.440973,0.16192 -0.299723,0 -0.458197,-0.17915 -0.0052,-0.009 -0.01378,-0.009 -0.0017,0 -0.0052,0.002 -0.01206,0.003 -0.0155,0.0155 l -0.03101,0.1223 h -0.291111 v -2.64067 z m 0,2.06534 q 0,0.12402 0.09302,0.19981 0.08785,0.0706 0.215318,0.0706 0.129191,0 0.215319,-0.0706 0.09474,-0.0758 0.09474,-0.19981 v -0.73381 q 0,-0.12574 -0.09474,-0.20154 -0.08613,-0.0689 -0.215319,-0.0689 -0.127468,0 -0.215318,0.0689 -0.09302,0.0758 -0.09302,0.20154 z"
         style="fill:#333333;fill-opacity:1;stroke-width:0.26458332"
         id="path5338" />
      <path
         d="M 15.019938,180.63967 H 14.82529 l -0.480591,-1.76216 h 0.389296 l 0.337619,1.37459 q 0.0034,0.0172 0.01895,0.0172 0.01723,0 0.02067,-0.0172 l 0.282498,-1.37459 h 0.389296 l -0.609782,2.71645 h -0.389296 z"
         style="fill:#333333;fill-opacity:1;stroke-width:0.26458332"
         id="path5340" />
    </g>
  </g>
  <g
     inkscape:groupmode="layer"
     id="layer2"
     inkscape:label="components"
     style="display:none">
    <circle
       style="display:inline;opacity:1;fill:#00ff00;fill-opacity:1;stroke:none;stroke-width:0.39999998;stroke-linecap:butt;stroke-miterlimit:4;stroke-dasharray:none;stroke-dashoffset:0;stroke-opacity:1;paint-order:normal"
       id="path4623"
       cx="8"
       cy="29.497467"
       r="1"
       inkscape:label="IN1" />
    <circle
       style="display:inline;opacity:1;fill:#00ff00;fill-opacity:1;stroke:none;stroke-width:0.39999998;stroke-linecap:butt;stroke-miterlimit:4;stroke-dasharray:none;stroke-dashoffset:0;stroke-opacity:1;paint-order:normal"
       id="path4623-2"
       cx="17.967312"
       cy="29.497467"
       r="1"
       inkscape:label="CV1" />
    <circle
       style="display:inline;opacity:1;fill:#ff0000;fill-opacity:1;stroke:none;stroke-width:0.40000001;stroke-linecap:butt;stroke-miterlimit:4;stroke-dasharray:none;stroke-dashoffset:0;stroke-opacity:1;paint-order:normal"
       id="path4656"
       cx="30.383656"
       cy="32.548435"
       r="3.4490328"
       inkscape:label="KNOB1" />
    <circle
       style="display:inline;opacity:1;fill:#0000ff;fill-opacity:1;stroke:none;stroke-width:0.39999998;stroke-linecap:butt;stroke-miterlimit:4;stroke-dasharray:none;stroke-dashoffset:0;stroke-opacity:1;paint-order:normal"
       id="path4623-2-0"
       cx="42.346672"
       cy="29.497467"
       r="1"
       inkscape:label="OUT1" />
    <circle
       style="display:inline;opacity:1;fill:#00ff00;fill-opacity:1;stroke:none;stroke-width:0.39999998;stroke-linecap:butt;stroke-miterlimit:4;stroke-dasharray:none;stroke-dashoffset:0;stroke-opacity:1;paint-order:normal"
       id="path4623-25"
       cx="8"
       cy="49.898315"
       r="1"
       inkscape:label="IN2" />
    <circle
       style="display:inline;opacity:1;fill:#00ff00;fill-opacity:1;stroke:none;stroke-width:0.39999998;stroke-linecap:butt;stroke-miterlimit:4;stroke-dasharray:none;stroke-dashoffset:0;stroke-opacity:1;paint-order:normal"
       id="path4623-2-1"
       cx="17.967312"
       cy="49.898315"
       r="1"
       inkscape:label="CV2" />
    <circle
       style="display:inline;opacity:1;fill:#ff0000;fill-opacity:1;stroke:none;stroke-width:0.40000001;stroke-linecap:butt;stroke-miterlimit:4;stroke-dasharray:none;stroke-dashoffset:0;stroke-opacity:1;paint-order:normal"
       id="path4656-0"
       cx="30.383656"
       cy="52.94928"
       r="3.4490328"
       inkscape:label="KNOB2" />
    <circle
       style="display:inline;opacity:1;fill:#0000ff;fill-opacity:1;stroke:none;stroke-width:0.39999998;stroke-linecap:butt;stroke-miterlimit:4;stroke-dasharray:none;stroke-dashoffset:0;stroke-opacity:1;paint-order:normal"
       id="path4623-2-0-2"
       cx="42.346672"
       cy="49.898315"
       r="1"
       inkscape:label="OUT2" />
    <circle
       style="display:inline;opacity:1;fill:#00ff00;fill-opacity:1;stroke:none;stroke-width:0.39999998;stroke-linecap:butt;stroke-miterlimit:4;stroke-dasharray:none;stroke-dashoffset:0;stroke-opacity:1;paint-order:normal"
       id="path4623-25-6"
       cx="8"
       cy="70.299156"
       r="1"
       inkscape:label="IN3" />
    <circle
       style="display:inline;opacity:1;fill:#00ff00;fill-opacity:1;stroke:none;stroke-width:0.39999998;stroke-linecap:butt;stroke-miterlimit:4;stroke-dasharray:none;stroke-dashoffset:0;stroke-opacity:1;paint-order:normal"
       id="path4623-2-1-6"
       cx="17.967312"
       cy="70.299156"
       r="1"
       inkscape:label="CV3" />
    <circle
       style="display:inline;opacity:1;fill:#ff0000;fill-opacity:1;stroke:none;stroke-width:0.40000001;stroke-linecap:butt;stroke-miterlimit:4;stroke-dasharray:none;stroke-dashoffset:0;stroke-opacity:1;paint-order:normal"
       id="path4656-0-9"
       cx="30.383656"
       cy="73.350121"
       r="3.4490328"
       inkscape:label="KNOB3" />
    <circle
       style="display:inline;opacity:1;fill:#0000ff;fill-opacity:1;stroke:none;stroke-width:0.39999998;stroke-linecap:butt;stroke-miterlimit:4;stroke-dasharray:none;stroke-dashoffset:0;stroke-opacity:1;paint-order:normal"
       id="path4623-2-0-2-3"
       cx="42.346672"
       cy="70.299156"
       r="1"
       inkscape:label="OUT3" />
    <circle
       style="display:inline;opacity:1;fill:#00ff00;fill-opacity:1;stroke:none;stroke-width:0.39999998;stroke-linecap:butt;stroke-miterlimit:4;stroke-dasharray:none;stroke-dashoffset:0;stroke-opacity:1;paint-order:normal"
       id="path4623-25-6-3"
       cx="8"
       cy="90.699997"
       r="1"
       inkscape:label="IN4" />
    <circle
       style="display:inline;opacity:1;fill:#00ff00;fill-opacity:1;stroke:none;stroke-width:0.39999998;stroke-linecap:butt;stroke-miterlimit:4;stroke-dasharray:none;stroke-dashoffset:0;stroke-opacity:1;paint-order:normal"
       id="path4623-2-1-6-0"
       cx="17.967312"
       cy="90.699997"
       r="1"
       inkscape:label="CV4" />
    <circle
       style="display:inline;opacity:1;fill:#ff0000;fill-opacity:1;stroke:none;stroke-width:0.40000001;stroke-linecap:butt;stroke-miterlimit:4;stroke-dasharray:none;stroke-dashoffset:0;stroke-opacity:1;paint-order:normal"
       id="path4656-0-9-7"
       cx="30.383656"
       cy="93.750969"
       r="3.4490328"
       inkscape:label="KNOB4" />
    <circle
       style="display:inline;opacity:1;fill:#0000ff;fill-opacity:1;stroke:none;stroke-width:0.39999998;stroke-linecap:butt;stroke-miterlimit:4;stroke-dasharray:none;stroke-dashoffset:0;stroke-opacity:1;paint-order:normal"
       id="path4623-2-0-2-3-0"
       cx="42.346672"
       cy="90.699997"
       r="1"
       inkscape:label="OUT4" />
  </g>
</svg>
