<?xml version="1.0" encoding="UTF-8" standalone="no"?>
<!-- Created with Inkscape (http://www.inkscape.org/) -->

<svg
   xmlns:dc="http://purl.org/dc/elements/1.1/"
   xmlns:cc="http://creativecommons.org/ns#"
   xmlns:rdf="http://www.w3.org/1999/02/22-rdf-syntax-ns#"
   xmlns:svg="http://www.w3.org/2000/svg"
   xmlns="http://www.w3.org/2000/svg"
   xmlns:sodipodi="http://sodipodi.sourceforge.net/DTD/sodipodi-0.dtd"
   xmlns:inkscape="http://www.inkscape.org/namespaces/inkscape"
   width="50.799999mm"
   height="128.5mm"
   viewBox="0 0 50.799999 128.5"
   version="1.1"
   id="svg8"
   inkscape:version="0.92.1 r15371"
   sodipodi:docname="5xVCA.svg">
  <defs
     id="defs2">
    <inkscape:path-effect
       effect="simplify"
       id="path-effect5498"
       is_visible="true"
       steps="1"
       threshold="0.000408163"
       smooth_angles="360"
       helper_size="0"
       simplify_individual_paths="false"
       simplify_just_coalesce="false"
       simplifyindividualpaths="false"
       simplifyJustCoalesce="false" />
    <inkscape:path-effect
       effect="simplify"
       id="path-effect5494"
       is_visible="true"
       steps="1"
       threshold="0.000408163"
       smooth_angles="360"
       helper_size="0"
       simplify_individual_paths="false"
       simplify_just_coalesce="false"
       simplifyindividualpaths="false"
       simplifyJustCoalesce="false" />
  </defs>
  <sodipodi:namedview
     id="base"
     pagecolor="#262626"
     bordercolor="#666666"
     borderopacity="1.0"
     inkscape:pageopacity="0"
     inkscape:pageshadow="2"
     inkscape:zoom="1.979899"
     inkscape:cx="-55.789486"
     inkscape:cy="233.49705"
     inkscape:document-units="mm"
     inkscape:current-layer="layer1"
     showgrid="false"
     inkscape:window-width="1827"
     inkscape:window-height="1057"
     inkscape:window-x="-8"
     inkscape:window-y="-8"
     inkscape:window-maximized="1"
     showguides="true"
     inkscape:snap-grids="false"
     inkscape:guide-bbox="true"
     inkscape:snap-bbox="true"
     inkscape:bbox-paths="true"
     inkscape:snap-bbox-edge-midpoints="true"
     inkscape:bbox-nodes="true"
     inkscape:snap-bbox-midpoints="true"
     inkscape:lockguides="true">
    <inkscape:grid
       type="xygrid"
       id="grid31" />
    <sodipodi:guide
       position="25.4,96.100448"
       orientation="1,0"
       id="guide4967"
       inkscape:locked="true"
       inkscape:label=""
       inkscape:color="rgb(0,0,255)" />
    <sodipodi:guide
       position="3,101.81734"
       orientation="1,0"
       id="guide4972"
       inkscape:locked="true"
       inkscape:label=""
       inkscape:color="rgb(0,0,255)" />
    <sodipodi:guide
       position="47.8,94.588544"
       orientation="1,0"
       id="guide4974"
       inkscape:locked="true"
       inkscape:label=""
       inkscape:color="rgb(0,0,255)" />
    <sodipodi:guide
       position="42.799999,98.982514"
       orientation="1,0"
       id="guide5747"
       inkscape:locked="true" />
    <sodipodi:guide
       position="30.383655,98.982516"
       orientation="0,1"
       id="guide4685"
       inkscape:locked="true" />
    <sodipodi:guide
       position="34.994654,90.000004"
       orientation="0,1"
       id="guide4687"
       inkscape:locked="true" />
    <sodipodi:guide
       position="7.9999998,108.80001"
       orientation="0,1"
       id="guide7786"
       inkscape:locked="true" />
    <sodipodi:guide
       position="7.9999996,108.80001"
       orientation="1,0"
       id="guide7788"
       inkscape:locked="true" />
    <sodipodi:guide
       position="17.208767,99.797462"
       orientation="0,1"
       id="guide7881"
       inkscape:locked="true" />
    <sodipodi:guide
       position="29.448209,108.80001"
       orientation="1,0"
       id="guide7887"
       inkscape:locked="true" />
    <sodipodi:guide
       position="18.869303,78.330192"
       orientation="0,1"
       id="guide7924"
       inkscape:locked="true" />
    <sodipodi:guide
       position="18.869303,56.830191"
       orientation="0,1"
       id="guide7926"
       inkscape:locked="true" />
    <sodipodi:guide
       position="18.869303,35.330191"
       orientation="0,1"
       id="guide7928"
       inkscape:locked="true" />
    <sodipodi:guide
       position="18.869303,13.83019"
       orientation="0,1"
       id="guide7930"
       inkscape:locked="true" />
    <sodipodi:guide
       position="12.027128,116"
       orientation="0,1"
       id="guide7992"
       inkscape:locked="true" />
  </sodipodi:namedview>
  <metadata
     id="metadata5">
    <rdf:RDF>
      <cc:Work
         rdf:about="">
        <dc:format>image/svg+xml</dc:format>
        <dc:type
           rdf:resource="http://purl.org/dc/dcmitype/StillImage" />
        <dc:title></dc:title>
      </cc:Work>
    </rdf:RDF>
  </metadata>
  <g
     inkscape:label="panel"
     inkscape:groupmode="layer"
     id="layer1"
     transform="translate(0,-168.5)"
     style="display:inline">
    <rect
       style="opacity:1;fill:#e6e6e6;stroke-width:0.26458332"
       id="rect39"
       width="50.799999"
       height="128.5"
       x="-1.3877788e-017"
       y="168.5" />
    <text
       xml:space="preserve"
       style="font-style:normal;font-weight:normal;font-size:4.93888855px;line-height:1.25;font-family:sans-serif;letter-spacing:0px;word-spacing:0px;fill:#000000;fill-opacity:1;stroke:none;stroke-width:0.26458332"
       x="6.1471992"
       y="177.26324"
       id="text3713"><tspan
         sodipodi:role="line"
         id="tspan3711"
         x="6.1471992"
         y="181.76915"
         style="stroke-width:0.26458332" /></text>
    <g
       aria-label="a"
       style="font-style:normal;font-variant:normal;font-weight:normal;font-stretch:normal;font-size:14.11111069px;line-height:1.25;font-family:'Opus Special Extra Std';-inkscape-font-specification:'Opus Special Extra Std';letter-spacing:0px;word-spacing:0px;fill:#ffcc00;fill-opacity:1;stroke:none;stroke-width:0.26458332"
       id="text3719" />
    <rect
       style="opacity:1;fill:#333333;fill-opacity:1;stroke:none;stroke-width:0.26499999;stroke-miterlimit:4;stroke-dasharray:none;stroke-dashoffset:0;stroke-opacity:1"
       id="rect3797"
       width="50.799999"
       height="10"
       x="-1.3877788e-017"
       y="168.5" />
    <rect
       style="display:inline;opacity:1;fill:#333333;fill-opacity:1;stroke-width:0.26458332"
       id="rect3797-4"
       width="50.799999"
       height="10"
       x="0"
       y="287" />
    <text
       xml:space="preserve"
       style="font-style:normal;font-variant:normal;font-weight:normal;font-stretch:normal;font-size:4.93888855px;line-height:1.25;font-family:'ornaments labels and frames';-inkscape-font-specification:'ornaments labels and frames, Normal';font-variant-ligatures:normal;font-variant-caps:normal;font-variant-numeric:normal;text-align:center;letter-spacing:0px;word-spacing:0px;writing-mode:lr-tb;text-anchor:middle;display:inline;fill:#000000;fill-opacity:1;stroke:none;stroke-width:0.26458332"
       x="30.067825"
       y="196.50633"
       id="text3786"><tspan
         sodipodi:role="line"
         id="tspan3784"
         x="30.067825"
         y="200.96446"
         style="stroke-width:0.26458332" /></text>
    <g
       aria-label="adsynth."
       style="font-style:normal;font-variant:normal;font-weight:normal;font-stretch:normal;font-size:3.52777767px;line-height:1.25;font-family:Steagisler;-inkscape-font-specification:Steagisler;font-variant-ligatures:normal;font-variant-caps:normal;font-variant-numeric:normal;font-feature-settings:normal;text-align:start;letter-spacing:0px;word-spacing:0px;writing-mode:lr-tb;text-anchor:start;fill:#f2f2f2;fill-opacity:1;stroke:none;stroke-width:0.26458332"
       id="text5305"
       transform="translate(16.183324,-6.99484)">
      <path
         d="M 4.4762234,184.17319 H 4.0697021 q -0.020671,-0.0465 -0.034451,-0.0965 -0.00345,-0.012 -0.015503,-0.0155 -0.00345,-0.002 -0.00517,-0.002 -0.00689,0 -0.01378,0.007 -0.1498616,0.15503 -0.4220242,0.15503 Q 3,184.22142 3,183.65298 q 0,-0.34107 0.3479546,-0.47026 0.1653646,-0.062 0.3410645,-0.062 0.1464165,0 0.3014458,0.0431 0.00345,0.002 0.00517,0.002 0.00689,0 0.012058,-0.005 0.00861,-0.005 0.00861,-0.0155 v -0.28078 q 0,-0.12574 -0.09474,-0.20154 -0.08785,-0.0689 -0.2153185,-0.0689 -0.1274685,0 -0.2153184,0.0689 -0.09474,0.0758 -0.09474,0.20154 v 0.0413 H 3.0206706 v -0.0568 q 0,-0.28422 0.2101508,-0.45303 0.1946479,-0.15675 0.4857584,-0.15675 0.2911106,0 0.4857585,0.15675 0.2084283,0.16881 0.2084283,0.45303 v 1.0542 q 0,0.12402 0.065457,0.27044 z m -0.4599203,-0.72003 q 0,-0.0138 -0.01378,-0.0189 -0.1205784,-0.0431 -0.2446018,-0.0431 -0.062012,0 -0.125746,0.0103 -0.235989,0.0396 -0.235989,0.23771 0,0.2291 0.3100585,0.2291 0.1274686,0 0.2153185,-0.0689 0.09474,-0.0758 0.09474,-0.19981 z"
         style="text-align:start;text-anchor:start;fill:#f2f2f2;fill-opacity:1;stroke-width:0.26458332"
         id="path5311"
         inkscape:connector-curvature="0" />
      <path
         d="M 6.3072915,184.17319 H 5.9024928 q -0.022393,-0.0448 -0.034451,-0.0947 -0.00345,-0.0103 -0.015503,-0.0138 -0.00345,-0.002 -0.00517,-0.002 -0.00689,0 -0.01378,0.007 -0.1515842,0.15159 -0.4220241,0.15159 -0.2824979,0 -0.4340821,-0.16364 -0.144694,-0.15848 -0.144694,-0.44614 v -0.76309 q 0,-0.28594 0.1550293,-0.44614 0.1567519,-0.16364 0.4409722,-0.16364 0.2342665,0 0.3858507,0.11368 0.00517,0.005 0.012058,0.005 0.00345,0 0.00861,-0.003 0.012058,-0.005 0.012058,-0.0172 v -0.80443 h 0.396186 v 2.37023 q 0,0.12402 0.063734,0.27044 z m -0.4599202,-1.30914 q 0,-0.12574 -0.09474,-0.20154 -0.086127,-0.0689 -0.2153185,-0.0689 -0.1274685,0 -0.2153184,0.0689 -0.093018,0.0758 -0.093018,0.20154 v 0.73381 q 0,0.12402 0.093018,0.19981 0.08785,0.0706 0.2153184,0.0706 0.1291911,0 0.2153185,-0.0706 0.09474,-0.0758 0.09474,-0.19981 z"
         style="text-align:start;text-anchor:start;fill:#f2f2f2;fill-opacity:1;stroke-width:0.26458332"
         id="path5313"
         inkscape:connector-curvature="0" />
      <path
         d="m 7.0083684,183.61508 q 0,0.12058 0.093018,0.18948 0.084405,0.0637 0.2084283,0.0637 0.1240234,0 0.2084283,-0.0637 0.093018,-0.0689 0.093018,-0.18948 0,-0.12574 -0.1550293,-0.17225 -0.1412489,-0.0413 -0.3341742,-0.0775 -0.2428792,-0.0586 -0.3669027,-0.20326 -0.1223008,-0.14641 -0.1223008,-0.36001 0,-0.27044 0.2084282,-0.42375 0.1877577,-0.1378 0.468533,-0.1378 0.2807753,0 0.468533,0.1378 0.2084282,0.15331 0.2084282,0.42375 v 0.10163 H 7.6112601 v -0.0603 q 0,-0.11886 -0.08785,-0.18776 -0.079237,-0.0637 -0.2032606,-0.0637 -0.1223009,0 -0.2032606,0.0637 -0.08785,0.0689 -0.08785,0.18776 0,0.12747 0.1550293,0.16881 0.1963705,0.0517 0.3341743,0.0758 0.2256537,0.0482 0.3565673,0.17398 0.1326362,0.12402 0.1326362,0.36346 0,0.30317 -0.2153185,0.45819 -0.1912027,0.13781 -0.471978,0.13781 -0.2807753,0 -0.4719781,-0.13781 -0.2153184,-0.15502 -0.2153184,-0.42374 v -0.10508 h 0.3755153 z"
         style="text-align:start;text-anchor:start;fill:#f2f2f2;fill-opacity:1;stroke-width:0.26458332"
         id="path5315"
         inkscape:connector-curvature="0" />
      <path
         d="M 8.898003,184.04055 H 8.7033551 l -0.4805908,-1.76217 h 0.3892958 l 0.3376194,1.3746 q 0.00345,0.0172 0.018948,0.0172 0.017226,0 0.020671,-0.0172 l 0.2824978,-1.3746 h 0.3892958 l -0.6097819,2.71646 H 8.662014 Z"
         style="text-align:start;text-anchor:start;fill:#f2f2f2;fill-opacity:1;stroke-width:0.26458332"
         id="path5317"
         inkscape:connector-curvature="0" />
      <path
         d="m 10.319105,182.41102 q 0.0034,0.0155 0.02239,0.0155 0.0086,0 0.0155,-0.009 0.156752,-0.17914 0.454753,-0.17914 0.28422,0 0.440972,0.16192 0.155029,0.16192 0.155029,0.44786 v 1.32464 h -0.396186 v -1.30914 q 0,-0.12574 -0.09302,-0.20154 -0.08785,-0.0706 -0.215319,-0.0706 -0.129191,0 -0.215318,0.0706 -0.09474,0.0758 -0.09474,0.20154 v 1.30914 H 9.9969887 v -1.89481 h 0.2911103 z"
         style="text-align:start;text-anchor:start;fill:#f2f2f2;fill-opacity:1;stroke-width:0.26458332"
         id="path5319"
         inkscape:connector-curvature="0" />
      <path
         d="m 11.647189,182.27838 h 0.227376 q 0.02067,0 0.02067,-0.0207 v -0.49609 h 0.396186 v 0.49609 q 0,0.0207 0.02067,0.0207 h 0.366902 v 0.30145 h -0.366902 q -0.02067,0 -0.02067,0.0207 v 1.03008 q 0.01206,0.25839 0.192925,0.25839 0.08613,0 0.194648,-0.0207 v 0.30489 q -0.132636,0.0482 -0.266995,0.0482 -0.502984,-0.002 -0.516764,-0.55811 v -1.06281 q 0,-0.0207 -0.02067,-0.0207 h -0.227376 z"
         style="text-align:start;text-anchor:start;fill:#f2f2f2;fill-opacity:1;stroke-width:0.26458332"
         id="path5321"
         inkscape:connector-curvature="0" />
      <path
         d="m 13.517876,181.53252 v 0.80443 q 0,0.0121 0.01206,0.0172 0.0052,0.003 0.0086,0.003 0.0069,0 0.01206,-0.005 0.151584,-0.11368 0.38585,-0.11368 0.284221,0 0.440973,0.16192 0.155029,0.16192 0.155029,0.44786 v 1.32464 h -0.396186 v -1.30914 q 0,-0.12574 -0.09302,-0.20154 -0.08785,-0.0706 -0.215318,-0.0706 -0.129191,0 -0.215318,0.0706 -0.09474,0.0758 -0.09474,0.20154 v 1.30914 H 13.12169 v -2.64067 z"
         style="text-align:start;text-anchor:start;fill:#f2f2f2;fill-opacity:1;stroke-width:0.26458332"
         id="path5323"
         inkscape:connector-curvature="0" />
      <path
         d="m 15.181857,183.72016 q 0.105076,0 0.179145,0.0741 0.07235,0.0741 0.07235,0.17742 0,0.10335 -0.07235,0.17742 -0.07407,0.0741 -0.179145,0.0741 -0.103353,0 -0.177422,-0.0741 -0.07235,-0.0741 -0.07235,-0.17742 0,-0.10335 0.07235,-0.17742 0.07407,-0.0741 0.177422,-0.0741 z"
         style="text-align:start;text-anchor:start;fill:#f2f2f2;fill-opacity:1;stroke-width:0.26458332"
         id="path5325"
         inkscape:connector-curvature="0" />
    </g>
    <g
       aria-label="5xVCA"
       style="font-style:normal;font-variant:normal;font-weight:normal;font-stretch:normal;font-size:3.52777767px;line-height:1.25;font-family:Steagisler;-inkscape-font-specification:Steagisler;font-variant-ligatures:normal;font-variant-caps:normal;font-variant-numeric:normal;font-feature-settings:normal;text-align:center;letter-spacing:0px;word-spacing:0px;writing-mode:lr-tb;text-anchor:middle;fill:#f9f9f9;fill-opacity:1;stroke:none;stroke-width:0.26458332"
       id="text7868">
      <path
         d="m 22.516455,289.30938 v 0.33589 h -0.90606 q -0.02067,0 -0.02067,0.0207 l -0.0379,0.56845 q 0,0.0138 0.01034,0.0207 0.0052,0.002 0.01034,0.002 0.0069,0 0.01206,-0.003 0.151585,-0.11368 0.385851,-0.11368 0.284221,0 0.440972,0.16191 0.15503,0.1602 0.15503,0.44787 v 0.64078 q 0,0.28423 -0.215319,0.45303 Q 22.152997,292 21.861887,292 q -0.292833,0 -0.490926,-0.15676 -0.215319,-0.1688 -0.215319,-0.45303 v -0.18603 h 0.396186 v 0.17053 q 0,0.12575 0.09474,0.20154 0.08613,0.0706 0.215319,0.0706 0.127468,0 0.215318,-0.0706 0.09302,-0.0758 0.09302,-0.20154 v -0.6115 q 0,-0.12403 -0.09302,-0.19982 -0.08785,-0.0706 -0.215318,-0.0706 -0.127469,0 -0.215319,0.0689 -0.09302,0.0741 -0.09474,0.19809 v 0.007 h -0.394463 l 0.106798,-1.45727 z"
         style="fill:#f9f9f9;fill-opacity:1;stroke-width:0.26458332"
         id="path7870" />
      <path
         d="m 23.663672,290.72359 q 0.0052,0.0138 0.01895,0.0138 0.01378,0 0.01895,-0.0138 l 0.232544,-0.66835 h 0.442694 l -0.45303,0.96807 0.45303,0.94224 h -0.442694 l -0.232544,-0.64251 q -0.0052,-0.0121 -0.01895,-0.0121 -0.01378,0 -0.01895,0.0121 l -0.232544,0.64251 h -0.440973 l 0.45303,-0.94224 -0.45303,-0.96807 h 0.440973 z"
         style="fill:#f9f9f9;fill-opacity:1;stroke-width:0.26458332"
         id="path7872" />
      <path
         d="m 24.552506,289.30765 h 0.423747 l 0.335897,2.21176 q 0.0034,0.0172 0.02067,0.0172 0.01895,0 0.02239,-0.0172 l 0.335897,-2.21176 h 0.423747 l -0.487481,2.64239 h -0.587389 z"
         style="fill:#f9f9f9;fill-opacity:1;stroke-width:0.26458332"
         id="path7874" />
      <path
         d="m 27.983821,291.38332 q 0,0.28767 -0.225654,0.4582 -0.208428,0.15675 -0.515041,0.15675 -0.306614,0 -0.51332,-0.15675 -0.227376,-0.17053 -0.227376,-0.4582 v -1.50895 q 0,-0.28766 0.220486,-0.45819 0.204983,-0.15676 0.509874,-0.15676 0.304891,0 0.509875,0.15676 0.220486,0.17053 0.220486,0.45819 v 0.17915 h -0.396186 v -0.16537 q 0,-0.12574 -0.09819,-0.20153 -0.0913,-0.0706 -0.225653,-0.0706 -0.134359,0 -0.225654,0.0706 -0.09819,0.0758 -0.09819,0.20153 v 1.48139 q 0,0.12575 0.103353,0.20154 0.09646,0.0706 0.230821,0.0706 0.134359,0 0.230821,-0.0706 0.103353,-0.0758 0.103353,-0.20154 v -0.16536 h 0.396186 z"
         style="fill:#f9f9f9;fill-opacity:1;stroke-width:0.26458332"
         id="path7876" />
      <path
         d="m 29.284345,289.30765 0.504706,2.64239 h -0.423746 l -0.09819,-0.58566 q -0.0017,-0.0172 -0.02067,-0.0172 h -0.477146 q -0.01895,0 -0.02067,0.0172 l -0.09819,0.58566 h -0.423746 l 0.504706,-2.64239 z m -0.489204,1.6881 q 0,0.0103 0.0052,0.0172 0.0069,0.007 0.01723,0.007 h 0.380683 q 0.01033,0 0.01722,-0.007 0.0034,-0.005 0.0034,-0.0121 v -0.005 l -0.18948,-1.25574 q -0.0034,-0.0172 -0.02239,-0.0172 -0.01723,0 -0.02067,0.0172 z"
         style="fill:#f9f9f9;fill-opacity:1;stroke-width:0.26458332"
         id="path7878" />
    </g>
    <rect
       style="display:inline;opacity:0.98000004;fill:#f2f2f2;fill-opacity:1;stroke:none;stroke-width:0.26499999;stroke-miterlimit:4;stroke-dasharray:none;stroke-dashoffset:0;stroke-opacity:0.94779142"
       id="rect5407-1-1-9"
       width="44.799999"
       height="18"
       x="3"
       y="267"
       rx="1.0000006"
       ry="1.0000006" />
    <g
       transform="translate(-1.931037e-6,76.202543)"
       aria-label="in"
       style="font-style:normal;font-variant:normal;font-weight:normal;font-stretch:normal;font-size:3.52777767px;line-height:1.25;font-family:Steagisler;-inkscape-font-specification:Steagisler;font-variant-ligatures:normal;font-variant-caps:normal;font-variant-numeric:normal;font-feature-settings:normal;text-align:center;letter-spacing:0px;word-spacing:0px;writing-mode:lr-tb;text-anchor:middle;display:inline;fill:#000000;fill-opacity:1;stroke:none;stroke-width:0.26458332"
       id="text4627-7-4-4">
      <path
         inkscape:connector-curvature="0"
         d="m 7.0936859,204.35933 q 0.1050754,0 0.1774224,0.0724 0.07407,0.0741 0.07407,0.17742 0,0.10508 -0.07407,0.17915 -0.072347,0.0724 -0.1774224,0.0724 -0.1033529,0 -0.1774224,-0.0724 -0.07407,-0.0741 -0.07407,-0.17915 0,-0.10335 0.07407,-0.17742 0.074069,-0.0724 0.1774224,-0.0724 z M 7.2917788,207 H 6.8955929 v -1.57269 q 0,-0.0207 -0.020671,-0.0207 H 6.681997 v -0.30144 h 0.6097818 z"
         style="stroke-width:0.26458332"
         id="path4755-2-6-2" />
      <path
         inkscape:connector-curvature="0"
         d="m 8.1668331,205.23783 q 0.00345,0.0155 0.022393,0.0155 0.00861,0 0.015503,-0.009 0.1567518,-0.17914 0.4547526,-0.17914 0.2842203,0 0.4409722,0.16192 0.1550293,0.16192 0.1550293,0.44786 V 207 h -0.396186 v -1.30914 q 0,-0.12574 -0.093018,-0.20153 -0.08785,-0.0706 -0.2153184,-0.0706 -0.1291911,0 -0.2153185,0.0706 -0.09474,0.0758 -0.09474,0.20153 V 207 h -0.396186 v -1.8948 h 0.2911106 z"
         style="stroke-width:0.26458332"
         id="path4757-2-6-2" />
    </g>
    <g
       transform="translate(-1.931037e-6,76.202543)"
       aria-label="cv"
       style="font-style:normal;font-variant:normal;font-weight:normal;font-stretch:normal;font-size:3.52777767px;line-height:1.25;font-family:Steagisler;-inkscape-font-specification:Steagisler;font-variant-ligatures:normal;font-variant-caps:normal;font-variant-numeric:normal;font-feature-settings:normal;text-align:center;letter-spacing:0px;word-spacing:0px;writing-mode:lr-tb;text-anchor:middle;display:inline;fill:#000000;fill-opacity:1;stroke:none;stroke-width:0.26458332"
       id="text4631-7-0-8">
      <path
         inkscape:connector-curvature="0"
         d="m 17.914152,206.39022 q 0,0.28422 -0.215318,0.45475 Q 17.500741,207 17.207908,207 q -0.291111,0 -0.489204,-0.15503 -0.215318,-0.17053 -0.215318,-0.45475 v -0.76309 q 0,-0.28422 0.215318,-0.45303 0.198093,-0.15675 0.489204,-0.15675 0.29111,0 0.48059,0.15675 0.204984,0.16881 0.204984,0.45303 v 0.0568 h -0.375516 v -0.0413 q 0,-0.12575 -0.09474,-0.20154 -0.08785,-0.0689 -0.215318,-0.0689 -0.127469,0 -0.215319,0.0689 -0.09474,0.0758 -0.09474,0.20154 v 0.73381 q 0,0.12402 0.09474,0.19981 0.08785,0.0706 0.215319,0.0706 0.129191,0 0.223931,-0.0689 0.105075,-0.0775 0.105075,-0.20153 v -0.0413 h 0.377238 z"
         style="stroke-width:0.26458332"
         id="path4750-0-1-2" />
      <path
         inkscape:connector-curvature="0"
         d="m 18.150141,205.05696 h 0.389296 l 0.310059,1.52274 q 0.0034,0.0172 0.01895,0.0172 0.01722,0 0.02067,-0.0172 l 0.310059,-1.52274 h 0.389295 l -0.45303,1.91031 h -0.532267 z"
         style="stroke-width:0.26458332"
         id="path4752-7-7-4" />
    </g>
    <rect
       style="display:inline;opacity:1;fill:#666666;fill-opacity:1;stroke:none;stroke-width:0.2649999;stroke-miterlimit:4;stroke-dasharray:none;stroke-dashoffset:0;stroke-opacity:0.94779142"
       id="rect5407-5-1-4-2"
       width="9"
       height="16"
       x="37.846664"
       y="268.11612"
       rx="1.0000002"
       ry="1.0000006" />
    <g
       transform="translate(-1.931037e-6,76.202543)"
       aria-label="out"
       style="font-style:normal;font-variant:normal;font-weight:normal;font-stretch:normal;font-size:3.52777767px;line-height:1.25;font-family:Steagisler;-inkscape-font-specification:Steagisler;font-variant-ligatures:normal;font-variant-caps:normal;font-variant-numeric:normal;font-feature-settings:normal;text-align:center;letter-spacing:0px;word-spacing:0px;writing-mode:lr-tb;text-anchor:middle;display:inline;fill:#f9f9f9;fill-opacity:1;stroke:none;stroke-width:0.26458332"
       id="text4639-4-9-1">
      <path
         inkscape:connector-curvature="0"
         d="m 40.286323,205.62713 q 0,-0.28422 0.215318,-0.45303 0.198093,-0.15675 0.489204,-0.15675 0.292833,0 0.490926,0.15675 0.215318,0.16881 0.215318,0.45303 v 0.76309 q 0,0.28422 -0.215318,0.45475 Q 41.283678,207 40.990845,207 q -0.291111,0 -0.489204,-0.15503 -0.215318,-0.17053 -0.215318,-0.45475 z m 1.01458,0.0155 q 0,-0.12575 -0.09474,-0.20154 -0.08785,-0.0689 -0.215318,-0.0689 -0.127469,0 -0.215319,0.0689 -0.09302,0.0758 -0.09302,0.20154 v 0.73381 q 0,0.12402 0.09302,0.19981 0.08785,0.0706 0.215319,0.0706 0.127468,0 0.215318,-0.0706 0.09474,-0.0758 0.09474,-0.19981 z"
         style="fill:#f9f9f9;fill-opacity:1;stroke-width:0.26458332"
         id="path4743-5-6-2" />
      <path
         inkscape:connector-curvature="0"
         d="m 43.145752,206.82774 q -0.0034,-0.0121 -0.0155,-0.0138 -0.0034,-0.002 -0.0069,-0.002 -0.0069,0 -0.01206,0.007 Q 42.952827,207 42.653103,207 q -0.28422,0 -0.440972,-0.16192 -0.155029,-0.16192 -0.155029,-0.44786 v -1.33326 h 0.396186 v 1.31775 q 0,0.12575 0.09302,0.20154 0.08785,0.0706 0.215319,0.0706 0.129191,0 0.215318,-0.0706 0.09474,-0.0758 0.09474,-0.20154 v -1.31775 h 0.396186 v 1.89481 h -0.29111 z"
         style="fill:#f9f9f9;fill-opacity:1;stroke-width:0.26458332"
         id="path4745-7-7-6" />
      <path
         inkscape:connector-curvature="0"
         d="m 43.80721,205.05696 h 0.227376 q 0.02067,0 0.02067,-0.0207 v -0.49609 h 0.396186 v 0.49609 q 0,0.0207 0.02067,0.0207 h 0.366902 v 0.30145 h -0.366902 q -0.02067,0 -0.02067,0.0207 v 1.03008 q 0.01206,0.25839 0.192925,0.25839 0.08613,0 0.194648,-0.0207 v 0.30489 Q 44.70638,207 44.572021,207 q -0.502984,-0.002 -0.516764,-0.55811 v -1.06281 q 0,-0.0207 -0.02067,-0.0207 H 43.80721 Z"
         style="fill:#f9f9f9;fill-opacity:1;stroke-width:0.26458332"
         id="path4747-9-3-2" />
    </g>
    <rect
       style="display:inline;opacity:0.98000004;fill:#f2f2f2;fill-opacity:1;stroke:none;stroke-width:0.26499999;stroke-miterlimit:4;stroke-dasharray:none;stroke-dashoffset:0;stroke-opacity:0.94779142"
       id="rect5407-1-1-9-3"
       width="44.799999"
       height="18"
       x="3"
       y="245.5"
       rx="1.0000006"
       ry="1.0000006" />
    <g
       transform="translate(-1.931037e-6,54.702541)"
       aria-label="in"
       style="font-style:normal;font-variant:normal;font-weight:normal;font-stretch:normal;font-size:3.52777767px;line-height:1.25;font-family:Steagisler;-inkscape-font-specification:Steagisler;font-variant-ligatures:normal;font-variant-caps:normal;font-variant-numeric:normal;font-feature-settings:normal;text-align:center;letter-spacing:0px;word-spacing:0px;writing-mode:lr-tb;text-anchor:middle;display:inline;fill:#333333;fill-opacity:1;stroke:none;stroke-width:0.26458332"
       id="text4627-7-4-4-7">
      <path
         inkscape:connector-curvature="0"
         d="m 7.0936859,204.35933 q 0.1050754,0 0.1774224,0.0724 0.07407,0.0741 0.07407,0.17742 0,0.10508 -0.07407,0.17915 -0.072347,0.0724 -0.1774224,0.0724 -0.1033529,0 -0.1774224,-0.0724 -0.07407,-0.0741 -0.07407,-0.17915 0,-0.10335 0.07407,-0.17742 0.074069,-0.0724 0.1774224,-0.0724 z M 7.2917788,207 H 6.8955929 v -1.57269 q 0,-0.0207 -0.020671,-0.0207 H 6.681997 v -0.30144 h 0.6097818 z"
         style="fill:#333333;fill-opacity:1;stroke-width:0.26458332"
         id="path4755-2-6-2-1" />
      <path
         inkscape:connector-curvature="0"
         d="m 8.1668331,205.23783 q 0.00345,0.0155 0.022393,0.0155 0.00861,0 0.015503,-0.009 0.1567518,-0.17914 0.4547526,-0.17914 0.2842203,0 0.4409722,0.16192 0.1550293,0.16192 0.1550293,0.44786 V 207 h -0.396186 v -1.30914 q 0,-0.12574 -0.093018,-0.20153 -0.08785,-0.0706 -0.2153184,-0.0706 -0.1291911,0 -0.2153185,0.0706 -0.09474,0.0758 -0.09474,0.20153 V 207 h -0.396186 v -1.8948 h 0.2911106 z"
         style="fill:#333333;fill-opacity:1;stroke-width:0.26458332"
         id="path4757-2-6-2-6" />
    </g>
    <g
       transform="translate(-1.931037e-6,54.702541)"
       aria-label="cv"
       style="font-style:normal;font-variant:normal;font-weight:normal;font-stretch:normal;font-size:3.52777767px;line-height:1.25;font-family:Steagisler;-inkscape-font-specification:Steagisler;font-variant-ligatures:normal;font-variant-caps:normal;font-variant-numeric:normal;font-feature-settings:normal;text-align:center;letter-spacing:0px;word-spacing:0px;writing-mode:lr-tb;text-anchor:middle;display:inline;fill:#333333;fill-opacity:1;stroke:none;stroke-width:0.26458332"
       id="text4631-7-0-8-0">
      <path
         inkscape:connector-curvature="0"
         d="m 17.914152,206.39022 q 0,0.28422 -0.215318,0.45475 Q 17.500741,207 17.207908,207 q -0.291111,0 -0.489204,-0.15503 -0.215318,-0.17053 -0.215318,-0.45475 v -0.76309 q 0,-0.28422 0.215318,-0.45303 0.198093,-0.15675 0.489204,-0.15675 0.29111,0 0.48059,0.15675 0.204984,0.16881 0.204984,0.45303 v 0.0568 h -0.375516 v -0.0413 q 0,-0.12575 -0.09474,-0.20154 -0.08785,-0.0689 -0.215318,-0.0689 -0.127469,0 -0.215319,0.0689 -0.09474,0.0758 -0.09474,0.20154 v 0.73381 q 0,0.12402 0.09474,0.19981 0.08785,0.0706 0.215319,0.0706 0.129191,0 0.223931,-0.0689 0.105075,-0.0775 0.105075,-0.20153 v -0.0413 h 0.377238 z"
         style="fill:#333333;fill-opacity:1;stroke-width:0.26458332"
         id="path4750-0-1-2-1" />
      <path
         inkscape:connector-curvature="0"
         d="m 18.150141,205.05696 h 0.389296 l 0.310059,1.52274 q 0.0034,0.0172 0.01895,0.0172 0.01722,0 0.02067,-0.0172 l 0.310059,-1.52274 h 0.389295 l -0.45303,1.91031 h -0.532267 z"
         style="fill:#333333;fill-opacity:1;stroke-width:0.26458332"
         id="path4752-7-7-4-2" />
    </g>
    <rect
       style="display:inline;opacity:1;fill:#666666;fill-opacity:1;stroke:none;stroke-width:0.2649999;stroke-miterlimit:4;stroke-dasharray:none;stroke-dashoffset:0;stroke-opacity:0.94779142"
       id="rect5407-5-1-4-2-5"
       width="9"
       height="16"
       x="37.846664"
       y="246.61612"
       rx="1.0000002"
       ry="1.0000006" />
    <g
       transform="translate(-1.931037e-6,54.702541)"
       aria-label="out"
       style="font-style:normal;font-variant:normal;font-weight:normal;font-stretch:normal;font-size:3.52777767px;line-height:1.25;font-family:Steagisler;-inkscape-font-specification:Steagisler;font-variant-ligatures:normal;font-variant-caps:normal;font-variant-numeric:normal;font-feature-settings:normal;text-align:center;letter-spacing:0px;word-spacing:0px;writing-mode:lr-tb;text-anchor:middle;display:inline;fill:#f9f9f9;fill-opacity:1;stroke:none;stroke-width:0.26458332"
       id="text4639-4-9-1-9">
      <path
         inkscape:connector-curvature="0"
         d="m 40.286323,205.62713 q 0,-0.28422 0.215318,-0.45303 0.198093,-0.15675 0.489204,-0.15675 0.292833,0 0.490926,0.15675 0.215318,0.16881 0.215318,0.45303 v 0.76309 q 0,0.28422 -0.215318,0.45475 Q 41.283678,207 40.990845,207 q -0.291111,0 -0.489204,-0.15503 -0.215318,-0.17053 -0.215318,-0.45475 z m 1.01458,0.0155 q 0,-0.12575 -0.09474,-0.20154 -0.08785,-0.0689 -0.215318,-0.0689 -0.127469,0 -0.215319,0.0689 -0.09302,0.0758 -0.09302,0.20154 v 0.73381 q 0,0.12402 0.09302,0.19981 0.08785,0.0706 0.215319,0.0706 0.127468,0 0.215318,-0.0706 0.09474,-0.0758 0.09474,-0.19981 z"
         style="fill:#f9f9f9;fill-opacity:1;stroke-width:0.26458332"
         id="path4743-5-6-2-2" />
      <path
         inkscape:connector-curvature="0"
         d="m 43.145752,206.82774 q -0.0034,-0.0121 -0.0155,-0.0138 -0.0034,-0.002 -0.0069,-0.002 -0.0069,0 -0.01206,0.007 Q 42.952827,207 42.653103,207 q -0.28422,0 -0.440972,-0.16192 -0.155029,-0.16192 -0.155029,-0.44786 v -1.33326 h 0.396186 v 1.31775 q 0,0.12575 0.09302,0.20154 0.08785,0.0706 0.215319,0.0706 0.129191,0 0.215318,-0.0706 0.09474,-0.0758 0.09474,-0.20154 v -1.31775 h 0.396186 v 1.89481 h -0.29111 z"
         style="fill:#f9f9f9;fill-opacity:1;stroke-width:0.26458332"
         id="path4745-7-7-6-5" />
      <path
         inkscape:connector-curvature="0"
         d="m 43.80721,205.05696 h 0.227376 q 0.02067,0 0.02067,-0.0207 v -0.49609 h 0.396186 v 0.49609 q 0,0.0207 0.02067,0.0207 h 0.366902 v 0.30145 h -0.366902 q -0.02067,0 -0.02067,0.0207 v 1.03008 q 0.01206,0.25839 0.192925,0.25839 0.08613,0 0.194648,-0.0207 v 0.30489 Q 44.70638,207 44.572021,207 q -0.502984,-0.002 -0.516764,-0.55811 v -1.06281 q 0,-0.0207 -0.02067,-0.0207 H 43.80721 Z"
         style="fill:#f9f9f9;fill-opacity:1;stroke-width:0.26458332"
         id="path4747-9-3-2-8" />
    </g>
    <rect
       style="display:inline;opacity:0.98000004;fill:#f2f2f2;fill-opacity:1;stroke:none;stroke-width:0.26499999;stroke-miterlimit:4;stroke-dasharray:none;stroke-dashoffset:0;stroke-opacity:0.94779142"
       id="rect5407-1-1-9-3-9"
       width="44.799999"
       height="18"
       x="3"
       y="224"
       rx="1.0000006"
       ry="1.0000006" />
    <g
       transform="translate(-1.931037e-6,33.202541)"
       aria-label="in"
       style="font-style:normal;font-variant:normal;font-weight:normal;font-stretch:normal;font-size:3.52777767px;line-height:1.25;font-family:Steagisler;-inkscape-font-specification:Steagisler;font-variant-ligatures:normal;font-variant-caps:normal;font-variant-numeric:normal;font-feature-settings:normal;text-align:center;letter-spacing:0px;word-spacing:0px;writing-mode:lr-tb;text-anchor:middle;display:inline;fill:#333333;fill-opacity:1;stroke:none;stroke-width:0.26458332"
       id="text4627-7-4-4-7-5">
      <path
         inkscape:connector-curvature="0"
         d="m 7.0936859,204.35933 q 0.1050754,0 0.1774224,0.0724 0.07407,0.0741 0.07407,0.17742 0,0.10508 -0.07407,0.17915 -0.072347,0.0724 -0.1774224,0.0724 -0.1033529,0 -0.1774224,-0.0724 -0.07407,-0.0741 -0.07407,-0.17915 0,-0.10335 0.07407,-0.17742 0.074069,-0.0724 0.1774224,-0.0724 z M 7.2917788,207 H 6.8955929 v -1.57269 q 0,-0.0207 -0.020671,-0.0207 H 6.681997 v -0.30144 h 0.6097818 z"
         style="fill:#333333;fill-opacity:1;stroke-width:0.26458332"
         id="path4755-2-6-2-1-1" />
      <path
         inkscape:connector-curvature="0"
         d="m 8.1668331,205.23783 q 0.00345,0.0155 0.022393,0.0155 0.00861,0 0.015503,-0.009 0.1567518,-0.17914 0.4547526,-0.17914 0.2842203,0 0.4409722,0.16192 0.1550293,0.16192 0.1550293,0.44786 V 207 h -0.396186 v -1.30914 q 0,-0.12574 -0.093018,-0.20153 -0.08785,-0.0706 -0.2153184,-0.0706 -0.1291911,0 -0.2153185,0.0706 -0.09474,0.0758 -0.09474,0.20153 V 207 h -0.396186 v -1.8948 h 0.2911106 z"
         style="fill:#333333;fill-opacity:1;stroke-width:0.26458332"
         id="path4757-2-6-2-6-2" />
    </g>
    <g
       transform="translate(-1.931037e-6,33.202541)"
       aria-label="cv"
       style="font-style:normal;font-variant:normal;font-weight:normal;font-stretch:normal;font-size:3.52777767px;line-height:1.25;font-family:Steagisler;-inkscape-font-specification:Steagisler;font-variant-ligatures:normal;font-variant-caps:normal;font-variant-numeric:normal;font-feature-settings:normal;text-align:center;letter-spacing:0px;word-spacing:0px;writing-mode:lr-tb;text-anchor:middle;display:inline;fill:#333333;fill-opacity:1;stroke:none;stroke-width:0.26458332"
       id="text4631-7-0-8-0-0">
      <path
         inkscape:connector-curvature="0"
         d="m 17.914152,206.39022 q 0,0.28422 -0.215318,0.45475 Q 17.500741,207 17.207908,207 q -0.291111,0 -0.489204,-0.15503 -0.215318,-0.17053 -0.215318,-0.45475 v -0.76309 q 0,-0.28422 0.215318,-0.45303 0.198093,-0.15675 0.489204,-0.15675 0.29111,0 0.48059,0.15675 0.204984,0.16881 0.204984,0.45303 v 0.0568 h -0.375516 v -0.0413 q 0,-0.12575 -0.09474,-0.20154 -0.08785,-0.0689 -0.215318,-0.0689 -0.127469,0 -0.215319,0.0689 -0.09474,0.0758 -0.09474,0.20154 v 0.73381 q 0,0.12402 0.09474,0.19981 0.08785,0.0706 0.215319,0.0706 0.129191,0 0.223931,-0.0689 0.105075,-0.0775 0.105075,-0.20153 v -0.0413 h 0.377238 z"
         style="fill:#333333;fill-opacity:1;stroke-width:0.26458332"
         id="path4750-0-1-2-1-5" />
      <path
         inkscape:connector-curvature="0"
         d="m 18.150141,205.05696 h 0.389296 l 0.310059,1.52274 q 0.0034,0.0172 0.01895,0.0172 0.01722,0 0.02067,-0.0172 l 0.310059,-1.52274 h 0.389295 l -0.45303,1.91031 h -0.532267 z"
         style="fill:#333333;fill-opacity:1;stroke-width:0.26458332"
         id="path4752-7-7-4-2-1" />
    </g>
    <rect
       style="display:inline;opacity:1;fill:#666666;fill-opacity:1;stroke:none;stroke-width:0.2649999;stroke-miterlimit:4;stroke-dasharray:none;stroke-dashoffset:0;stroke-opacity:0.94779142"
       id="rect5407-5-1-4-2-5-5"
       width="9"
       height="16"
       x="37.846664"
       y="225.11612"
       rx="1.0000002"
       ry="1.0000006" />
    <g
       transform="translate(-1.931037e-6,33.202541)"
       aria-label="out"
       style="font-style:normal;font-variant:normal;font-weight:normal;font-stretch:normal;font-size:3.52777767px;line-height:1.25;font-family:Steagisler;-inkscape-font-specification:Steagisler;font-variant-ligatures:normal;font-variant-caps:normal;font-variant-numeric:normal;font-feature-settings:normal;text-align:center;letter-spacing:0px;word-spacing:0px;writing-mode:lr-tb;text-anchor:middle;display:inline;fill:#f9f9f9;fill-opacity:1;stroke:none;stroke-width:0.26458332"
       id="text4639-4-9-1-9-2">
      <path
         inkscape:connector-curvature="0"
         d="m 40.286323,205.62713 q 0,-0.28422 0.215318,-0.45303 0.198093,-0.15675 0.489204,-0.15675 0.292833,0 0.490926,0.15675 0.215318,0.16881 0.215318,0.45303 v 0.76309 q 0,0.28422 -0.215318,0.45475 Q 41.283678,207 40.990845,207 q -0.291111,0 -0.489204,-0.15503 -0.215318,-0.17053 -0.215318,-0.45475 z m 1.01458,0.0155 q 0,-0.12575 -0.09474,-0.20154 -0.08785,-0.0689 -0.215318,-0.0689 -0.127469,0 -0.215319,0.0689 -0.09302,0.0758 -0.09302,0.20154 v 0.73381 q 0,0.12402 0.09302,0.19981 0.08785,0.0706 0.215319,0.0706 0.127468,0 0.215318,-0.0706 0.09474,-0.0758 0.09474,-0.19981 z"
         style="fill:#f9f9f9;fill-opacity:1;stroke-width:0.26458332"
         id="path4743-5-6-2-2-9" />
      <path
         inkscape:connector-curvature="0"
         d="m 43.145752,206.82774 q -0.0034,-0.0121 -0.0155,-0.0138 -0.0034,-0.002 -0.0069,-0.002 -0.0069,0 -0.01206,0.007 Q 42.952827,207 42.653103,207 q -0.28422,0 -0.440972,-0.16192 -0.155029,-0.16192 -0.155029,-0.44786 v -1.33326 h 0.396186 v 1.31775 q 0,0.12575 0.09302,0.20154 0.08785,0.0706 0.215319,0.0706 0.129191,0 0.215318,-0.0706 0.09474,-0.0758 0.09474,-0.20154 v -1.31775 h 0.396186 v 1.89481 h -0.29111 z"
         style="fill:#f9f9f9;fill-opacity:1;stroke-width:0.26458332"
         id="path4745-7-7-6-5-2" />
      <path
         inkscape:connector-curvature="0"
         d="m 43.80721,205.05696 h 0.227376 q 0.02067,0 0.02067,-0.0207 v -0.49609 h 0.396186 v 0.49609 q 0,0.0207 0.02067,0.0207 h 0.366902 v 0.30145 h -0.366902 q -0.02067,0 -0.02067,0.0207 v 1.03008 q 0.01206,0.25839 0.192925,0.25839 0.08613,0 0.194648,-0.0207 v 0.30489 Q 44.70638,207 44.572021,207 q -0.502984,-0.002 -0.516764,-0.55811 v -1.06281 q 0,-0.0207 -0.02067,-0.0207 H 43.80721 Z"
         style="fill:#f9f9f9;fill-opacity:1;stroke-width:0.26458332"
         id="path4747-9-3-2-8-6" />
    </g>
    <rect
       style="display:inline;opacity:0.98000004;fill:#f2f2f2;fill-opacity:1;stroke:none;stroke-width:0.26499999;stroke-miterlimit:4;stroke-dasharray:none;stroke-dashoffset:0;stroke-opacity:0.94779142"
       id="rect5407-1-1-9-3-1"
       width="44.799999"
       height="18"
       x="3"
       y="202.5"
       rx="1.0000006"
       ry="1.0000006" />
    <g
       transform="translate(-1.931037e-6,11.702545)"
       aria-label="in"
       style="font-style:normal;font-variant:normal;font-weight:normal;font-stretch:normal;font-size:3.52777767px;line-height:1.25;font-family:Steagisler;-inkscape-font-specification:Steagisler;font-variant-ligatures:normal;font-variant-caps:normal;font-variant-numeric:normal;font-feature-settings:normal;text-align:center;letter-spacing:0px;word-spacing:0px;writing-mode:lr-tb;text-anchor:middle;display:inline;fill:#333333;fill-opacity:1;stroke:none;stroke-width:0.26458332"
       id="text4627-7-4-4-7-9">
      <path
         inkscape:connector-curvature="0"
         d="m 7.0936859,204.35933 q 0.1050754,0 0.1774224,0.0724 0.07407,0.0741 0.07407,0.17742 0,0.10508 -0.07407,0.17915 -0.072347,0.0724 -0.1774224,0.0724 -0.1033529,0 -0.1774224,-0.0724 -0.07407,-0.0741 -0.07407,-0.17915 0,-0.10335 0.07407,-0.17742 0.074069,-0.0724 0.1774224,-0.0724 z M 7.2917788,207 H 6.8955929 v -1.57269 q 0,-0.0207 -0.020671,-0.0207 H 6.681997 v -0.30144 h 0.6097818 z"
         style="fill:#333333;fill-opacity:1;stroke-width:0.26458332"
         id="path4755-2-6-2-1-17" />
      <path
         inkscape:connector-curvature="0"
         d="m 8.1668331,205.23783 q 0.00345,0.0155 0.022393,0.0155 0.00861,0 0.015503,-0.009 0.1567518,-0.17914 0.4547526,-0.17914 0.2842203,0 0.4409722,0.16192 0.1550293,0.16192 0.1550293,0.44786 V 207 h -0.396186 v -1.30914 q 0,-0.12574 -0.093018,-0.20153 -0.08785,-0.0706 -0.2153184,-0.0706 -0.1291911,0 -0.2153185,0.0706 -0.09474,0.0758 -0.09474,0.20153 V 207 h -0.396186 v -1.8948 h 0.2911106 z"
         style="fill:#333333;fill-opacity:1;stroke-width:0.26458332"
         id="path4757-2-6-2-6-1" />
    </g>
    <g
       transform="translate(-1.931037e-6,11.702545)"
       aria-label="cv"
       style="font-style:normal;font-variant:normal;font-weight:normal;font-stretch:normal;font-size:3.52777767px;line-height:1.25;font-family:Steagisler;-inkscape-font-specification:Steagisler;font-variant-ligatures:normal;font-variant-caps:normal;font-variant-numeric:normal;font-feature-settings:normal;text-align:center;letter-spacing:0px;word-spacing:0px;writing-mode:lr-tb;text-anchor:middle;display:inline;fill:#333333;fill-opacity:1;stroke:none;stroke-width:0.26458332"
       id="text4631-7-0-8-0-4">
      <path
         inkscape:connector-curvature="0"
         d="m 17.914152,206.39022 q 0,0.28422 -0.215318,0.45475 Q 17.500741,207 17.207908,207 q -0.291111,0 -0.489204,-0.15503 -0.215318,-0.17053 -0.215318,-0.45475 v -0.76309 q 0,-0.28422 0.215318,-0.45303 0.198093,-0.15675 0.489204,-0.15675 0.29111,0 0.48059,0.15675 0.204984,0.16881 0.204984,0.45303 v 0.0568 h -0.375516 v -0.0413 q 0,-0.12575 -0.09474,-0.20154 -0.08785,-0.0689 -0.215318,-0.0689 -0.127469,0 -0.215319,0.0689 -0.09474,0.0758 -0.09474,0.20154 v 0.73381 q 0,0.12402 0.09474,0.19981 0.08785,0.0706 0.215319,0.0706 0.129191,0 0.223931,-0.0689 0.105075,-0.0775 0.105075,-0.20153 v -0.0413 h 0.377238 z"
         style="fill:#333333;fill-opacity:1;stroke-width:0.26458332"
         id="path4750-0-1-2-1-9" />
      <path
         inkscape:connector-curvature="0"
         d="m 18.150141,205.05696 h 0.389296 l 0.310059,1.52274 q 0.0034,0.0172 0.01895,0.0172 0.01722,0 0.02067,-0.0172 l 0.310059,-1.52274 h 0.389295 l -0.45303,1.91031 h -0.532267 z"
         style="fill:#333333;fill-opacity:1;stroke-width:0.26458332"
         id="path4752-7-7-4-2-8" />
    </g>
    <rect
       style="display:inline;opacity:1;fill:#666666;fill-opacity:1;stroke:none;stroke-width:0.2649999;stroke-miterlimit:4;stroke-dasharray:none;stroke-dashoffset:0;stroke-opacity:0.94779142"
       id="rect5407-5-1-4-2-5-1"
       width="9"
       height="16"
       x="37.846664"
       y="203.61612"
       rx="1.0000002"
       ry="1.0000006" />
    <g
       transform="translate(-1.931037e-6,11.702545)"
       aria-label="out"
       style="font-style:normal;font-variant:normal;font-weight:normal;font-stretch:normal;font-size:3.52777767px;line-height:1.25;font-family:Steagisler;-inkscape-font-specification:Steagisler;font-variant-ligatures:normal;font-variant-caps:normal;font-variant-numeric:normal;font-feature-settings:normal;text-align:center;letter-spacing:0px;word-spacing:0px;writing-mode:lr-tb;text-anchor:middle;display:inline;fill:#f9f9f9;fill-opacity:1;stroke:none;stroke-width:0.26458332"
       id="text4639-4-9-1-9-9">
      <path
         inkscape:connector-curvature="0"
         d="m 40.286323,205.62713 q 0,-0.28422 0.215318,-0.45303 0.198093,-0.15675 0.489204,-0.15675 0.292833,0 0.490926,0.15675 0.215318,0.16881 0.215318,0.45303 v 0.76309 q 0,0.28422 -0.215318,0.45475 Q 41.283678,207 40.990845,207 q -0.291111,0 -0.489204,-0.15503 -0.215318,-0.17053 -0.215318,-0.45475 z m 1.01458,0.0155 q 0,-0.12575 -0.09474,-0.20154 -0.08785,-0.0689 -0.215318,-0.0689 -0.127469,0 -0.215319,0.0689 -0.09302,0.0758 -0.09302,0.20154 v 0.73381 q 0,0.12402 0.09302,0.19981 0.08785,0.0706 0.215319,0.0706 0.127468,0 0.215318,-0.0706 0.09474,-0.0758 0.09474,-0.19981 z"
         style="fill:#f9f9f9;fill-opacity:1;stroke-width:0.26458332"
         id="path4743-5-6-2-2-7" />
      <path
         inkscape:connector-curvature="0"
         d="m 43.145752,206.82774 q -0.0034,-0.0121 -0.0155,-0.0138 -0.0034,-0.002 -0.0069,-0.002 -0.0069,0 -0.01206,0.007 Q 42.952827,207 42.653103,207 q -0.28422,0 -0.440972,-0.16192 -0.155029,-0.16192 -0.155029,-0.44786 v -1.33326 h 0.396186 v 1.31775 q 0,0.12575 0.09302,0.20154 0.08785,0.0706 0.215319,0.0706 0.129191,0 0.215318,-0.0706 0.09474,-0.0758 0.09474,-0.20154 v -1.31775 h 0.396186 v 1.89481 h -0.29111 z"
         style="fill:#f9f9f9;fill-opacity:1;stroke-width:0.26458332"
         id="path4745-7-7-6-5-5" />
      <path
         inkscape:connector-curvature="0"
         d="m 43.80721,205.05696 h 0.227376 q 0.02067,0 0.02067,-0.0207 v -0.49609 h 0.396186 v 0.49609 q 0,0.0207 0.02067,0.0207 h 0.366902 v 0.30145 h -0.366902 q -0.02067,0 -0.02067,0.0207 v 1.03008 q 0.01206,0.25839 0.192925,0.25839 0.08613,0 0.194648,-0.0207 v 0.30489 Q 44.70638,207 44.572021,207 q -0.502984,-0.002 -0.516764,-0.55811 v -1.06281 q 0,-0.0207 -0.02067,-0.0207 H 43.80721 Z"
         style="fill:#f9f9f9;fill-opacity:1;stroke-width:0.26458332"
         id="path4747-9-3-2-8-4" />
    </g>
    <rect
       style="display:inline;opacity:0.98000004;fill:#f2f2f2;fill-opacity:1;stroke:none;stroke-width:0.26499999;stroke-miterlimit:4;stroke-dasharray:none;stroke-dashoffset:0;stroke-opacity:0.94779142"
       id="rect5407-1-1-9-3-8"
       width="44.799999"
       height="18"
       x="3"
       y="181"
       rx="1.0000006"
       ry="1.0000006" />
    <g
       transform="translate(-1.931037e-6,-9.7974566)"
       aria-label="in"
       style="font-style:normal;font-variant:normal;font-weight:normal;font-stretch:normal;font-size:3.52777767px;line-height:1.25;font-family:Steagisler;-inkscape-font-specification:Steagisler;font-variant-ligatures:normal;font-variant-caps:normal;font-variant-numeric:normal;font-feature-settings:normal;text-align:center;letter-spacing:0px;word-spacing:0px;writing-mode:lr-tb;text-anchor:middle;display:inline;fill:#333333;fill-opacity:1;stroke:none;stroke-width:0.26458332"
       id="text4627-7-4-4-7-1">
      <path
         inkscape:connector-curvature="0"
         d="m 7.0936859,204.35933 q 0.1050754,0 0.1774224,0.0724 0.07407,0.0741 0.07407,0.17742 0,0.10508 -0.07407,0.17915 -0.072347,0.0724 -0.1774224,0.0724 -0.1033529,0 -0.1774224,-0.0724 -0.07407,-0.0741 -0.07407,-0.17915 0,-0.10335 0.07407,-0.17742 0.074069,-0.0724 0.1774224,-0.0724 z M 7.2917788,207 H 6.8955929 v -1.57269 q 0,-0.0207 -0.020671,-0.0207 H 6.681997 v -0.30144 h 0.6097818 z"
         style="fill:#333333;fill-opacity:1;stroke-width:0.26458332"
         id="path4755-2-6-2-1-4" />
      <path
         inkscape:connector-curvature="0"
         d="m 8.1668331,205.23783 q 0.00345,0.0155 0.022393,0.0155 0.00861,0 0.015503,-0.009 0.1567518,-0.17914 0.4547526,-0.17914 0.2842203,0 0.4409722,0.16192 0.1550293,0.16192 0.1550293,0.44786 V 207 h -0.396186 v -1.30914 q 0,-0.12574 -0.093018,-0.20153 -0.08785,-0.0706 -0.2153184,-0.0706 -0.1291911,0 -0.2153185,0.0706 -0.09474,0.0758 -0.09474,0.20153 V 207 h -0.396186 v -1.8948 h 0.2911106 z"
         style="fill:#333333;fill-opacity:1;stroke-width:0.26458332"
         id="path4757-2-6-2-6-8" />
    </g>
    <g
       transform="translate(-1.931037e-6,-9.7974566)"
       aria-label="cv"
       style="font-style:normal;font-variant:normal;font-weight:normal;font-stretch:normal;font-size:3.52777767px;line-height:1.25;font-family:Steagisler;-inkscape-font-specification:Steagisler;font-variant-ligatures:normal;font-variant-caps:normal;font-variant-numeric:normal;font-feature-settings:normal;text-align:center;letter-spacing:0px;word-spacing:0px;writing-mode:lr-tb;text-anchor:middle;display:inline;fill:#333333;fill-opacity:1;stroke:none;stroke-width:0.26458332"
       id="text4631-7-0-8-0-3">
      <path
         inkscape:connector-curvature="0"
         d="m 17.914152,206.39022 q 0,0.28422 -0.215318,0.45475 Q 17.500741,207 17.207908,207 q -0.291111,0 -0.489204,-0.15503 -0.215318,-0.17053 -0.215318,-0.45475 v -0.76309 q 0,-0.28422 0.215318,-0.45303 0.198093,-0.15675 0.489204,-0.15675 0.29111,0 0.48059,0.15675 0.204984,0.16881 0.204984,0.45303 v 0.0568 h -0.375516 v -0.0413 q 0,-0.12575 -0.09474,-0.20154 -0.08785,-0.0689 -0.215318,-0.0689 -0.127469,0 -0.215319,0.0689 -0.09474,0.0758 -0.09474,0.20154 v 0.73381 q 0,0.12402 0.09474,0.19981 0.08785,0.0706 0.215319,0.0706 0.129191,0 0.223931,-0.0689 0.105075,-0.0775 0.105075,-0.20153 v -0.0413 h 0.377238 z"
         style="fill:#333333;fill-opacity:1;stroke-width:0.26458332"
         id="path4750-0-1-2-1-2" />
      <path
         inkscape:connector-curvature="0"
         d="m 18.150141,205.05696 h 0.389296 l 0.310059,1.52274 q 0.0034,0.0172 0.01895,0.0172 0.01722,0 0.02067,-0.0172 l 0.310059,-1.52274 h 0.389295 l -0.45303,1.91031 h -0.532267 z"
         style="fill:#333333;fill-opacity:1;stroke-width:0.26458332"
         id="path4752-7-7-4-2-4" />
    </g>
    <rect
       style="display:inline;opacity:1;fill:#666666;fill-opacity:1;stroke:none;stroke-width:0.2649999;stroke-miterlimit:4;stroke-dasharray:none;stroke-dashoffset:0;stroke-opacity:0.94779142"
       id="rect5407-5-1-4-2-5-0"
       width="9"
       height="16"
       x="37.846664"
       y="182.11612"
       rx="1.0000002"
       ry="1.0000006" />
    <g
       transform="translate(-1.931037e-6,-9.7974566)"
       aria-label="out"
       style="font-style:normal;font-variant:normal;font-weight:normal;font-stretch:normal;font-size:3.52777767px;line-height:1.25;font-family:Steagisler;-inkscape-font-specification:Steagisler;font-variant-ligatures:normal;font-variant-caps:normal;font-variant-numeric:normal;font-feature-settings:normal;text-align:center;letter-spacing:0px;word-spacing:0px;writing-mode:lr-tb;text-anchor:middle;display:inline;fill:#f9f9f9;fill-opacity:1;stroke:none;stroke-width:0.26458332"
       id="text4639-4-9-1-9-5">
      <path
         inkscape:connector-curvature="0"
         d="m 40.286323,205.62713 q 0,-0.28422 0.215318,-0.45303 0.198093,-0.15675 0.489204,-0.15675 0.292833,0 0.490926,0.15675 0.215318,0.16881 0.215318,0.45303 v 0.76309 q 0,0.28422 -0.215318,0.45475 Q 41.283678,207 40.990845,207 q -0.291111,0 -0.489204,-0.15503 -0.215318,-0.17053 -0.215318,-0.45475 z m 1.01458,0.0155 q 0,-0.12575 -0.09474,-0.20154 -0.08785,-0.0689 -0.215318,-0.0689 -0.127469,0 -0.215319,0.0689 -0.09302,0.0758 -0.09302,0.20154 v 0.73381 q 0,0.12402 0.09302,0.19981 0.08785,0.0706 0.215319,0.0706 0.127468,0 0.215318,-0.0706 0.09474,-0.0758 0.09474,-0.19981 z"
         style="fill:#f9f9f9;fill-opacity:1;stroke-width:0.26458332"
         id="path4743-5-6-2-2-4" />
      <path
         inkscape:connector-curvature="0"
         d="m 43.145752,206.82774 q -0.0034,-0.0121 -0.0155,-0.0138 -0.0034,-0.002 -0.0069,-0.002 -0.0069,0 -0.01206,0.007 Q 42.952827,207 42.653103,207 q -0.28422,0 -0.440972,-0.16192 -0.155029,-0.16192 -0.155029,-0.44786 v -1.33326 h 0.396186 v 1.31775 q 0,0.12575 0.09302,0.20154 0.08785,0.0706 0.215319,0.0706 0.129191,0 0.215318,-0.0706 0.09474,-0.0758 0.09474,-0.20154 v -1.31775 h 0.396186 v 1.89481 h -0.29111 z"
         style="fill:#f9f9f9;fill-opacity:1;stroke-width:0.26458332"
         id="path4745-7-7-6-5-8" />
      <path
         inkscape:connector-curvature="0"
         d="m 43.80721,205.05696 h 0.227376 q 0.02067,0 0.02067,-0.0207 v -0.49609 h 0.396186 v 0.49609 q 0,0.0207 0.02067,0.0207 h 0.366902 v 0.30145 h -0.366902 q -0.02067,0 -0.02067,0.0207 v 1.03008 q 0.01206,0.25839 0.192925,0.25839 0.08613,0 0.194648,-0.0207 v 0.30489 Q 44.70638,207 44.572021,207 q -0.502984,-0.002 -0.516764,-0.55811 v -1.06281 q 0,-0.0207 -0.02067,-0.0207 H 43.80721 Z"
         style="fill:#f9f9f9;fill-opacity:1;stroke-width:0.26458332"
         id="path4747-9-3-2-8-0" />
    </g>
    <g
       transform="translate(-1.3103701e-7,168.50001)"
       aria-label="att"
       style="font-style:normal;font-variant:normal;font-weight:normal;font-stretch:normal;font-size:3.52777767px;line-height:1.25;font-family:Steagisler;-inkscape-font-specification:Steagisler;font-variant-ligatures:normal;font-variant-caps:normal;font-variant-numeric:normal;font-feature-settings:normal;text-align:center;letter-spacing:0px;word-spacing:0px;writing-mode:lr-tb;text-anchor:middle;display:inline;fill:#333333;fill-opacity:1;stroke:none;stroke-width:0.26458332"
       id="text7891">
      <path
         d="m 28.926278,28.702538 h -0.406521 q -0.02067,-0.04651 -0.03445,-0.09646 -0.0034,-0.01206 -0.0155,-0.0155 -0.0034,-0.0017 -0.0052,-0.0017 -0.0069,0 -0.01378,0.0069 -0.149862,0.155029 -0.422025,0.155029 -0.578776,0 -0.578776,-0.568441 0,-0.341064 0.347955,-0.470255 0.165365,-0.06201 0.341065,-0.06201 0.146416,0 0.301445,0.04306 0.0034,0.0017 0.0052,0.0017 0.0069,0 0.01206,-0.0052 0.0086,-0.0052 0.0086,-0.0155 v -0.280776 q 0,-0.125746 -0.09474,-0.201538 -0.08785,-0.0689 -0.215318,-0.0689 -0.127469,0 -0.215318,0.0689 -0.09474,0.07579 -0.09474,0.201538 v 0.04134 H 27.47072 v -0.05684 q 0,-0.28422 0.210151,-0.45303 0.194648,-0.156752 0.485758,-0.156752 0.291111,0 0.485759,0.156752 0.208428,0.16881 0.208428,0.45303 v 1.0542 q 0,0.124023 0.06546,0.27044 z m -0.45992,-0.720025 q 0,-0.01378 -0.01378,-0.01895 -0.120578,-0.04306 -0.244602,-0.04306 -0.06201,0 -0.125746,0.01033 -0.235989,0.03962 -0.235989,0.237712 0,0.229099 0.310059,0.229099 0.127469,0 0.215318,-0.0689 0.09474,-0.07579 0.09474,-0.199816 z"
         style="fill:#333333;fill-opacity:1;stroke-width:0.26458332"
         id="path7893"
         inkscape:connector-curvature="0" />
      <path
         d="m 29.158822,26.807735 h 0.227376 q 0.02067,0 0.02067,-0.02067 v -0.496094 h 0.396186 v 0.496094 q 0,0.02067 0.02067,0.02067 h 0.366903 v 0.301446 h -0.366903 q -0.02067,0 -0.02067,0.02067 v 1.030084 q 0.01206,0.258382 0.192925,0.258382 0.08613,0 0.194648,-0.02067 v 0.304891 q -0.132636,0.04823 -0.266995,0.04823 -0.502984,-0.0017 -0.516764,-0.558106 V 27.12985 q 0,-0.02067 -0.02067,-0.02067 h -0.227376 z"
         style="fill:#333333;fill-opacity:1;stroke-width:0.26458332"
         id="path7895"
         inkscape:connector-curvature="0" />
      <path
         d="m 30.426617,26.807735 h 0.227376 q 0.02067,0 0.02067,-0.02067 v -0.496094 h 0.396186 v 0.496094 q 0,0.02067 0.02067,0.02067 h 0.366903 v 0.301446 H 31.09152 q -0.02067,0 -0.02067,0.02067 v 1.030084 q 0.01206,0.258382 0.192925,0.258382 0.08613,0 0.194648,-0.02067 v 0.304891 q -0.132636,0.04823 -0.266995,0.04823 -0.502984,-0.0017 -0.516764,-0.558106 V 27.12985 q 0,-0.02067 -0.02067,-0.02067 h -0.227376 z"
         style="fill:#333333;fill-opacity:1;stroke-width:0.26458332"
         id="path7897"
         inkscape:connector-curvature="0" />
    </g>
    <g
       transform="translate(-0.74241806,189.96728)"
       aria-label="att"
       style="font-style:normal;font-variant:normal;font-weight:normal;font-stretch:normal;font-size:3.52777767px;line-height:1.25;font-family:Steagisler;-inkscape-font-specification:Steagisler;font-variant-ligatures:normal;font-variant-caps:normal;font-variant-numeric:normal;font-feature-settings:normal;text-align:center;letter-spacing:0px;word-spacing:0px;writing-mode:lr-tb;text-anchor:middle;display:inline;fill:#333333;fill-opacity:1;stroke:none;stroke-width:0.26458332"
       id="text7891-4">
      <path
         inkscape:connector-curvature="0"
         d="m 28.926278,28.702538 h -0.406521 q -0.02067,-0.04651 -0.03445,-0.09646 -0.0034,-0.01206 -0.0155,-0.0155 -0.0034,-0.0017 -0.0052,-0.0017 -0.0069,0 -0.01378,0.0069 -0.149862,0.155029 -0.422025,0.155029 -0.578776,0 -0.578776,-0.568441 0,-0.341064 0.347955,-0.470255 0.165365,-0.06201 0.341065,-0.06201 0.146416,0 0.301445,0.04306 0.0034,0.0017 0.0052,0.0017 0.0069,0 0.01206,-0.0052 0.0086,-0.0052 0.0086,-0.0155 v -0.280776 q 0,-0.125746 -0.09474,-0.201538 -0.08785,-0.0689 -0.215318,-0.0689 -0.127469,0 -0.215318,0.0689 -0.09474,0.07579 -0.09474,0.201538 v 0.04134 H 27.47072 v -0.05684 q 0,-0.28422 0.210151,-0.45303 0.194648,-0.156752 0.485758,-0.156752 0.291111,0 0.485759,0.156752 0.208428,0.16881 0.208428,0.45303 v 1.0542 q 0,0.124023 0.06546,0.27044 z m -0.45992,-0.720025 q 0,-0.01378 -0.01378,-0.01895 -0.120578,-0.04306 -0.244602,-0.04306 -0.06201,0 -0.125746,0.01033 -0.235989,0.03962 -0.235989,0.237712 0,0.229099 0.310059,0.229099 0.127469,0 0.215318,-0.0689 0.09474,-0.07579 0.09474,-0.199816 z"
         style="fill:#333333;fill-opacity:1;stroke-width:0.26458332"
         id="path7893-3" />
      <path
         inkscape:connector-curvature="0"
         d="m 29.158822,26.807735 h 0.227376 q 0.02067,0 0.02067,-0.02067 v -0.496094 h 0.396186 v 0.496094 q 0,0.02067 0.02067,0.02067 h 0.366903 v 0.301446 h -0.366903 q -0.02067,0 -0.02067,0.02067 v 1.030084 q 0.01206,0.258382 0.192925,0.258382 0.08613,0 0.194648,-0.02067 v 0.304891 q -0.132636,0.04823 -0.266995,0.04823 -0.502984,-0.0017 -0.516764,-0.558106 V 27.12985 q 0,-0.02067 -0.02067,-0.02067 h -0.227376 z"
         style="fill:#333333;fill-opacity:1;stroke-width:0.26458332"
         id="path7895-7" />
      <path
         inkscape:connector-curvature="0"
         d="m 30.426617,26.807735 h 0.227376 q 0.02067,0 0.02067,-0.02067 v -0.496094 h 0.396186 v 0.496094 q 0,0.02067 0.02067,0.02067 h 0.366903 v 0.301446 H 31.09152 q -0.02067,0 -0.02067,0.02067 v 1.030084 q 0.01206,0.258382 0.192925,0.258382 0.08613,0 0.194648,-0.02067 v 0.304891 q -0.132636,0.04823 -0.266995,0.04823 -0.502984,-0.0017 -0.516764,-0.558106 V 27.12985 q 0,-0.02067 -0.02067,-0.02067 h -0.227376 z"
         style="fill:#333333;fill-opacity:1;stroke-width:0.26458332"
         id="path7897-8" />
    </g>
    <g
       transform="translate(-0.00601573,211.41901)"
       aria-label="att"
       style="font-style:normal;font-variant:normal;font-weight:normal;font-stretch:normal;font-size:3.52777767px;line-height:1.25;font-family:Steagisler;-inkscape-font-specification:Steagisler;font-variant-ligatures:normal;font-variant-caps:normal;font-variant-numeric:normal;font-feature-settings:normal;text-align:center;letter-spacing:0px;word-spacing:0px;writing-mode:lr-tb;text-anchor:middle;display:inline;fill:#333333;fill-opacity:1;stroke:none;stroke-width:0.26458332"
       id="text7891-4-8">
      <path
         inkscape:connector-curvature="0"
         d="m 28.926278,28.702538 h -0.406521 q -0.02067,-0.04651 -0.03445,-0.09646 -0.0034,-0.01206 -0.0155,-0.0155 -0.0034,-0.0017 -0.0052,-0.0017 -0.0069,0 -0.01378,0.0069 -0.149862,0.155029 -0.422025,0.155029 -0.578776,0 -0.578776,-0.568441 0,-0.341064 0.347955,-0.470255 0.165365,-0.06201 0.341065,-0.06201 0.146416,0 0.301445,0.04306 0.0034,0.0017 0.0052,0.0017 0.0069,0 0.01206,-0.0052 0.0086,-0.0052 0.0086,-0.0155 v -0.280776 q 0,-0.125746 -0.09474,-0.201538 -0.08785,-0.0689 -0.215318,-0.0689 -0.127469,0 -0.215318,0.0689 -0.09474,0.07579 -0.09474,0.201538 v 0.04134 H 27.47072 v -0.05684 q 0,-0.28422 0.210151,-0.45303 0.194648,-0.156752 0.485758,-0.156752 0.291111,0 0.485759,0.156752 0.208428,0.16881 0.208428,0.45303 v 1.0542 q 0,0.124023 0.06546,0.27044 z m -0.45992,-0.720025 q 0,-0.01378 -0.01378,-0.01895 -0.120578,-0.04306 -0.244602,-0.04306 -0.06201,0 -0.125746,0.01033 -0.235989,0.03962 -0.235989,0.237712 0,0.229099 0.310059,0.229099 0.127469,0 0.215318,-0.0689 0.09474,-0.07579 0.09474,-0.199816 z"
         style="fill:#333333;fill-opacity:1;stroke-width:0.26458332"
         id="path7893-3-2" />
      <path
         inkscape:connector-curvature="0"
         d="m 29.158822,26.807735 h 0.227376 q 0.02067,0 0.02067,-0.02067 v -0.496094 h 0.396186 v 0.496094 q 0,0.02067 0.02067,0.02067 h 0.366903 v 0.301446 h -0.366903 q -0.02067,0 -0.02067,0.02067 v 1.030084 q 0.01206,0.258382 0.192925,0.258382 0.08613,0 0.194648,-0.02067 v 0.304891 q -0.132636,0.04823 -0.266995,0.04823 -0.502984,-0.0017 -0.516764,-0.558106 V 27.12985 q 0,-0.02067 -0.02067,-0.02067 h -0.227376 z"
         style="fill:#333333;fill-opacity:1;stroke-width:0.26458332"
         id="path7895-7-5" />
      <path
         inkscape:connector-curvature="0"
         d="m 30.426617,26.807735 h 0.227376 q 0.02067,0 0.02067,-0.02067 v -0.496094 h 0.396186 v 0.496094 q 0,0.02067 0.02067,0.02067 h 0.366903 v 0.301446 H 31.09152 q -0.02067,0 -0.02067,0.02067 v 1.030084 q 0.01206,0.258382 0.192925,0.258382 0.08613,0 0.194648,-0.02067 v 0.304891 q -0.132636,0.04823 -0.266995,0.04823 -0.502984,-0.0017 -0.516764,-0.558106 V 27.12985 q 0,-0.02067 -0.02067,-0.02067 h -0.227376 z"
         style="fill:#333333;fill-opacity:1;stroke-width:0.26458332"
         id="path7897-8-8" />
    </g>
    <g
       transform="translate(-0.00601573,232.91901)"
       aria-label="att"
       style="font-style:normal;font-variant:normal;font-weight:normal;font-stretch:normal;font-size:3.52777767px;line-height:1.25;font-family:Steagisler;-inkscape-font-specification:Steagisler;font-variant-ligatures:normal;font-variant-caps:normal;font-variant-numeric:normal;font-feature-settings:normal;text-align:center;letter-spacing:0px;word-spacing:0px;writing-mode:lr-tb;text-anchor:middle;display:inline;fill:#333333;fill-opacity:1;stroke:none;stroke-width:0.26458332"
       id="text7891-4-8-9">
      <path
         inkscape:connector-curvature="0"
         d="m 28.926278,28.702538 h -0.406521 q -0.02067,-0.04651 -0.03445,-0.09646 -0.0034,-0.01206 -0.0155,-0.0155 -0.0034,-0.0017 -0.0052,-0.0017 -0.0069,0 -0.01378,0.0069 -0.149862,0.155029 -0.422025,0.155029 -0.578776,0 -0.578776,-0.568441 0,-0.341064 0.347955,-0.470255 0.165365,-0.06201 0.341065,-0.06201 0.146416,0 0.301445,0.04306 0.0034,0.0017 0.0052,0.0017 0.0069,0 0.01206,-0.0052 0.0086,-0.0052 0.0086,-0.0155 v -0.280776 q 0,-0.125746 -0.09474,-0.201538 -0.08785,-0.0689 -0.215318,-0.0689 -0.127469,0 -0.215318,0.0689 -0.09474,0.07579 -0.09474,0.201538 v 0.04134 H 27.47072 v -0.05684 q 0,-0.28422 0.210151,-0.45303 0.194648,-0.156752 0.485758,-0.156752 0.291111,0 0.485759,0.156752 0.208428,0.16881 0.208428,0.45303 v 1.0542 q 0,0.124023 0.06546,0.27044 z m -0.45992,-0.720025 q 0,-0.01378 -0.01378,-0.01895 -0.120578,-0.04306 -0.244602,-0.04306 -0.06201,0 -0.125746,0.01033 -0.235989,0.03962 -0.235989,0.237712 0,0.229099 0.310059,0.229099 0.127469,0 0.215318,-0.0689 0.09474,-0.07579 0.09474,-0.199816 z"
         style="fill:#333333;fill-opacity:1;stroke-width:0.26458332"
         id="path7893-3-2-5" />
      <path
         inkscape:connector-curvature="0"
         d="m 29.158822,26.807735 h 0.227376 q 0.02067,0 0.02067,-0.02067 v -0.496094 h 0.396186 v 0.496094 q 0,0.02067 0.02067,0.02067 h 0.366903 v 0.301446 h -0.366903 q -0.02067,0 -0.02067,0.02067 v 1.030084 q 0.01206,0.258382 0.192925,0.258382 0.08613,0 0.194648,-0.02067 v 0.304891 q -0.132636,0.04823 -0.266995,0.04823 -0.502984,-0.0017 -0.516764,-0.558106 V 27.12985 q 0,-0.02067 -0.02067,-0.02067 h -0.227376 z"
         style="fill:#333333;fill-opacity:1;stroke-width:0.26458332"
         id="path7895-7-5-3" />
      <path
         inkscape:connector-curvature="0"
         d="m 30.426617,26.807735 h 0.227376 q 0.02067,0 0.02067,-0.02067 v -0.496094 h 0.396186 v 0.496094 q 0,0.02067 0.02067,0.02067 h 0.366903 v 0.301446 H 31.09152 q -0.02067,0 -0.02067,0.02067 v 1.030084 q 0.01206,0.258382 0.192925,0.258382 0.08613,0 0.194648,-0.02067 v 0.304891 q -0.132636,0.04823 -0.266995,0.04823 -0.502984,-0.0017 -0.516764,-0.558106 V 27.12985 q 0,-0.02067 -0.02067,-0.02067 h -0.227376 z"
         style="fill:#333333;fill-opacity:1;stroke-width:0.26458332"
         id="path7897-8-8-9" />
    </g>
    <g
       transform="translate(-0.00601573,254.41901)"
       aria-label="att"
       style="font-style:normal;font-variant:normal;font-weight:normal;font-stretch:normal;font-size:3.52777767px;line-height:1.25;font-family:Steagisler;-inkscape-font-specification:Steagisler;font-variant-ligatures:normal;font-variant-caps:normal;font-variant-numeric:normal;font-feature-settings:normal;text-align:center;letter-spacing:0px;word-spacing:0px;writing-mode:lr-tb;text-anchor:middle;display:inline;fill:#333333;fill-opacity:1;stroke:none;stroke-width:0.26458332"
       id="text7891-4-8-1">
      <path
         inkscape:connector-curvature="0"
         d="m 28.926278,28.702538 h -0.406521 q -0.02067,-0.04651 -0.03445,-0.09646 -0.0034,-0.01206 -0.0155,-0.0155 -0.0034,-0.0017 -0.0052,-0.0017 -0.0069,0 -0.01378,0.0069 -0.149862,0.155029 -0.422025,0.155029 -0.578776,0 -0.578776,-0.568441 0,-0.341064 0.347955,-0.470255 0.165365,-0.06201 0.341065,-0.06201 0.146416,0 0.301445,0.04306 0.0034,0.0017 0.0052,0.0017 0.0069,0 0.01206,-0.0052 0.0086,-0.0052 0.0086,-0.0155 v -0.280776 q 0,-0.125746 -0.09474,-0.201538 -0.08785,-0.0689 -0.215318,-0.0689 -0.127469,0 -0.215318,0.0689 -0.09474,0.07579 -0.09474,0.201538 v 0.04134 H 27.47072 v -0.05684 q 0,-0.28422 0.210151,-0.45303 0.194648,-0.156752 0.485758,-0.156752 0.291111,0 0.485759,0.156752 0.208428,0.16881 0.208428,0.45303 v 1.0542 q 0,0.124023 0.06546,0.27044 z m -0.45992,-0.720025 q 0,-0.01378 -0.01378,-0.01895 -0.120578,-0.04306 -0.244602,-0.04306 -0.06201,0 -0.125746,0.01033 -0.235989,0.03962 -0.235989,0.237712 0,0.229099 0.310059,0.229099 0.127469,0 0.215318,-0.0689 0.09474,-0.07579 0.09474,-0.199816 z"
         style="fill:#333333;fill-opacity:1;stroke-width:0.26458332"
         id="path7893-3-2-2" />
      <path
         inkscape:connector-curvature="0"
         d="m 29.158822,26.807735 h 0.227376 q 0.02067,0 0.02067,-0.02067 v -0.496094 h 0.396186 v 0.496094 q 0,0.02067 0.02067,0.02067 h 0.366903 v 0.301446 h -0.366903 q -0.02067,0 -0.02067,0.02067 v 1.030084 q 0.01206,0.258382 0.192925,0.258382 0.08613,0 0.194648,-0.02067 v 0.304891 q -0.132636,0.04823 -0.266995,0.04823 -0.502984,-0.0017 -0.516764,-0.558106 V 27.12985 q 0,-0.02067 -0.02067,-0.02067 h -0.227376 z"
         style="fill:#333333;fill-opacity:1;stroke-width:0.26458332"
         id="path7895-7-5-6" />
      <path
         inkscape:connector-curvature="0"
         d="m 30.426617,26.807735 h 0.227376 q 0.02067,0 0.02067,-0.02067 v -0.496094 h 0.396186 v 0.496094 q 0,0.02067 0.02067,0.02067 h 0.366903 v 0.301446 H 31.09152 q -0.02067,0 -0.02067,0.02067 v 1.030084 q 0.01206,0.258382 0.192925,0.258382 0.08613,0 0.194648,-0.02067 v 0.304891 q -0.132636,0.04823 -0.266995,0.04823 -0.502984,-0.0017 -0.516764,-0.558106 V 27.12985 q 0,-0.02067 -0.02067,-0.02067 h -0.227376 z"
         style="fill:#333333;fill-opacity:1;stroke-width:0.26458332"
         id="path7897-8-8-3" />
    </g>
  </g>
  <g
     inkscape:groupmode="layer"
     id="layer2"
     inkscape:label="components"
     style="display:none">
    <circle
       style="display:inline;opacity:1;fill:#00ff00;fill-opacity:1;stroke:none;stroke-width:0.39999998;stroke-linecap:butt;stroke-miterlimit:4;stroke-dasharray:none;stroke-dashoffset:0;stroke-opacity:1;paint-order:normal"
       id="path4623-25-6-3"
       cx="7.9999995"
       cy="105.69999"
       r="1"
       inkscape:label="IN4" />
    <circle
       style="display:inline;opacity:1;fill:#00ff00;fill-opacity:1;stroke:none;stroke-width:0.39999998;stroke-linecap:butt;stroke-miterlimit:4;stroke-dasharray:none;stroke-dashoffset:0;stroke-opacity:1;paint-order:normal"
       id="path4623-2-1-6-0"
       cx="17.967312"
       cy="105.69999"
       r="1"
       inkscape:label="CV4" />
    <circle
       style="display:inline;opacity:1;fill:#ff0000;fill-opacity:1;stroke:none;stroke-width:0.40000001;stroke-linecap:butt;stroke-miterlimit:4;stroke-dasharray:none;stroke-dashoffset:0;stroke-opacity:1;paint-order:normal"
       id="path4656-0-9-7"
       cx="29.44821"
       cy="105.69999"
       r="3.4490328"
       inkscape:label="KNOB4" />
    <circle
       style="display:inline;opacity:1;fill:#0000ff;fill-opacity:1;stroke:none;stroke-width:0.39999998;stroke-linecap:butt;stroke-miterlimit:4;stroke-dasharray:none;stroke-dashoffset:0;stroke-opacity:1;paint-order:normal"
       id="path4623-2-0-2-3-0"
       cx="42.346672"
       cy="105.69999"
       r="1"
       inkscape:label="OUT4" />
    <circle
       style="display:inline;opacity:1;fill:#00ff00;fill-opacity:1;stroke:none;stroke-width:0.39999998;stroke-linecap:butt;stroke-miterlimit:4;stroke-dasharray:none;stroke-dashoffset:0;stroke-opacity:1;paint-order:normal"
       id="path4623-25-6-3-8"
       cx="7.9999995"
       cy="84.199989"
       r="1"
       inkscape:label="IN4" />
    <circle
       style="display:inline;opacity:1;fill:#00ff00;fill-opacity:1;stroke:none;stroke-width:0.39999998;stroke-linecap:butt;stroke-miterlimit:4;stroke-dasharray:none;stroke-dashoffset:0;stroke-opacity:1;paint-order:normal"
       id="path4623-2-1-6-0-1"
       cx="17.967312"
       cy="84.199989"
       r="1"
       inkscape:label="CV4" />
    <circle
       style="display:inline;opacity:1;fill:#ff0000;fill-opacity:1;stroke:none;stroke-width:0.40000001;stroke-linecap:butt;stroke-miterlimit:4;stroke-dasharray:none;stroke-dashoffset:0;stroke-opacity:1;paint-order:normal"
       id="path4656-0-9-7-7"
       cx="29.44821"
       cy="84.199989"
       r="3.4490328"
       inkscape:label="KNOB4" />
    <circle
       style="display:inline;opacity:1;fill:#0000ff;fill-opacity:1;stroke:none;stroke-width:0.39999998;stroke-linecap:butt;stroke-miterlimit:4;stroke-dasharray:none;stroke-dashoffset:0;stroke-opacity:1;paint-order:normal"
       id="path4623-2-0-2-3-0-1"
       cx="42.346672"
       cy="84.199989"
       r="1"
       inkscape:label="OUT4" />
    <circle
       style="display:inline;opacity:1;fill:#00ff00;fill-opacity:1;stroke:none;stroke-width:0.39999998;stroke-linecap:butt;stroke-miterlimit:4;stroke-dasharray:none;stroke-dashoffset:0;stroke-opacity:1;paint-order:normal"
       id="path4623-25-6-3-8-0"
       cx="7.9999995"
       cy="62.699989"
       r="1"
       inkscape:label="IN4" />
    <circle
       style="display:inline;opacity:1;fill:#00ff00;fill-opacity:1;stroke:none;stroke-width:0.39999998;stroke-linecap:butt;stroke-miterlimit:4;stroke-dasharray:none;stroke-dashoffset:0;stroke-opacity:1;paint-order:normal"
       id="path4623-2-1-6-0-1-3"
       cx="17.967312"
       cy="62.699989"
       r="1"
       inkscape:label="CV4" />
    <circle
       style="display:inline;opacity:1;fill:#ff0000;fill-opacity:1;stroke:none;stroke-width:0.40000001;stroke-linecap:butt;stroke-miterlimit:4;stroke-dasharray:none;stroke-dashoffset:0;stroke-opacity:1;paint-order:normal"
       id="path4656-0-9-7-7-3"
       cx="29.44821"
       cy="62.699989"
       r="3.4490328"
       inkscape:label="KNOB4" />
    <circle
       style="display:inline;opacity:1;fill:#0000ff;fill-opacity:1;stroke:none;stroke-width:0.39999998;stroke-linecap:butt;stroke-miterlimit:4;stroke-dasharray:none;stroke-dashoffset:0;stroke-opacity:1;paint-order:normal"
       id="path4623-2-0-2-3-0-1-0"
       cx="42.346672"
       cy="62.699989"
       r="1"
       inkscape:label="OUT4" />
    <circle
       style="display:inline;opacity:1;fill:#00ff00;fill-opacity:1;stroke:none;stroke-width:0.39999998;stroke-linecap:butt;stroke-miterlimit:4;stroke-dasharray:none;stroke-dashoffset:0;stroke-opacity:1;paint-order:normal"
       id="path4623-25-6-3-8-6"
       cx="7.9999995"
       cy="41.199989"
       r="1"
       inkscape:label="IN4" />
    <circle
       style="display:inline;opacity:1;fill:#00ff00;fill-opacity:1;stroke:none;stroke-width:0.39999998;stroke-linecap:butt;stroke-miterlimit:4;stroke-dasharray:none;stroke-dashoffset:0;stroke-opacity:1;paint-order:normal"
       id="path4623-2-1-6-0-1-8"
       cx="17.967312"
       cy="41.199989"
       r="1"
       inkscape:label="CV4" />
    <circle
       style="display:inline;opacity:1;fill:#ff0000;fill-opacity:1;stroke:none;stroke-width:0.40000001;stroke-linecap:butt;stroke-miterlimit:4;stroke-dasharray:none;stroke-dashoffset:0;stroke-opacity:1;paint-order:normal"
       id="path4656-0-9-7-7-4"
       cx="29.44821"
       cy="41.199989"
       r="3.4490328"
       inkscape:label="KNOB4" />
    <circle
       style="display:inline;opacity:1;fill:#0000ff;fill-opacity:1;stroke:none;stroke-width:0.39999998;stroke-linecap:butt;stroke-miterlimit:4;stroke-dasharray:none;stroke-dashoffset:0;stroke-opacity:1;paint-order:normal"
       id="path4623-2-0-2-3-0-1-2"
       cx="42.346672"
       cy="41.199989"
       r="1"
       inkscape:label="OUT4" />
    <circle
       style="display:inline;opacity:1;fill:#00ff00;fill-opacity:1;stroke:none;stroke-width:0.39999998;stroke-linecap:butt;stroke-miterlimit:4;stroke-dasharray:none;stroke-dashoffset:0;stroke-opacity:1;paint-order:normal"
       id="path4623-25-6-3-8-7"
       cx="7.9999995"
       cy="19.699989"
       r="1"
       inkscape:label="IN4" />
    <circle
       style="display:inline;opacity:1;fill:#00ff00;fill-opacity:1;stroke:none;stroke-width:0.39999998;stroke-linecap:butt;stroke-miterlimit:4;stroke-dasharray:none;stroke-dashoffset:0;stroke-opacity:1;paint-order:normal"
       id="path4623-2-1-6-0-1-85"
       cx="17.967312"
       cy="19.699989"
       r="1"
       inkscape:label="CV4" />
    <circle
       style="display:inline;opacity:1;fill:#ff0000;fill-opacity:1;stroke:none;stroke-width:0.40000001;stroke-linecap:butt;stroke-miterlimit:4;stroke-dasharray:none;stroke-dashoffset:0;stroke-opacity:1;paint-order:normal"
       id="path4656-0-9-7-7-6"
       cx="29.44821"
       cy="19.699989"
       r="3.4490328"
       inkscape:label="KNOB4" />
    <circle
       style="display:inline;opacity:1;fill:#0000ff;fill-opacity:1;stroke:none;stroke-width:0.39999998;stroke-linecap:butt;stroke-miterlimit:4;stroke-dasharray:none;stroke-dashoffset:0;stroke-opacity:1;paint-order:normal"
       id="path4623-2-0-2-3-0-1-3"
       cx="42.346672"
       cy="19.699989"
       r="1"
       inkscape:label="OUT4" />
  </g>
</svg>
