<?xml version="1.0" encoding="UTF-8" standalone="no"?>
<!-- Created with Inkscape (http://www.inkscape.org/) -->

<svg
   xmlns:dc="http://purl.org/dc/elements/1.1/"
   xmlns:cc="http://creativecommons.org/ns#"
   xmlns:rdf="http://www.w3.org/1999/02/22-rdf-syntax-ns#"
   xmlns:svg="http://www.w3.org/2000/svg"
   xmlns="http://www.w3.org/2000/svg"
   xmlns:sodipodi="http://sodipodi.sourceforge.net/DTD/sodipodi-0.dtd"
   xmlns:inkscape="http://www.inkscape.org/namespaces/inkscape"
   width="10.159999mm"
   height="128.5mm"
   viewBox="0 0 10.159999 128.5"
   version="1.1"
   id="svg8"
   inkscape:version="0.92.1 r15371"
   sodipodi:docname="ClockDiv.svg">
  <defs
     id="defs2">
    <inkscape:path-effect
       effect="simplify"
       id="path-effect5498"
       is_visible="true"
       steps="1"
       threshold="0.000408163"
       smooth_angles="360"
       helper_size="0"
       simplify_individual_paths="false"
       simplify_just_coalesce="false"
       simplifyindividualpaths="false"
       simplifyJustCoalesce="false" />
    <inkscape:path-effect
       effect="simplify"
       id="path-effect5494"
       is_visible="true"
       steps="1"
       threshold="0.000408163"
       smooth_angles="360"
       helper_size="0"
       simplify_individual_paths="false"
       simplify_just_coalesce="false"
       simplifyindividualpaths="false"
       simplifyJustCoalesce="false" />
    <clipPath
       id="clip89">
      <rect
         id="rect4864"
         height="19"
         width="18"
         x="0"
         y="0" />
    </clipPath>
    <clipPath
       id="clip90">
      <path
         id="path4861"
         d="m 0.898438,0.128906 h 16.25 v 17.882813 h -16.25 z m 0,0"
         inkscape:connector-curvature="0" />
    </clipPath>
    <mask
       id="mask44">
      <g
         transform="matrix(0.26458333,0,0,0.26458333,89.358789,128.57765)"
         id="g4858"
         style="filter:url(#alpha)">
        <rect
           id="rect4856"
           style="fill:#000000;fill-opacity:0.14999402;stroke:none"
           height="3351.5"
           width="3052.8701"
           y="0"
           x="0" />
      </g>
    </mask>
    <filter
       height="1"
       width="1"
       y="0"
       x="0"
       filterUnits="objectBoundingBox"
       id="alpha">
      <feColorMatrix
         id="feColorMatrix4149"
         values="0 0 0 0 1 0 0 0 0 1 0 0 0 0 1 0 0 0 1 0"
         in="SourceGraphic"
         type="matrix" />
    </filter>
    <clipPath
       id="clipPath17821">
      <rect
         id="rect17819"
         height="19"
         width="18"
         x="0"
         y="0" />
    </clipPath>
    <clipPath
       id="clipPath17825">
      <path
         id="path17823"
         d="m 0.898438,0.128906 h 16.25 v 17.882813 h -16.25 z m 0,0"
         inkscape:connector-curvature="0" />
    </clipPath>
    <clipPath
       id="clip87">
      <rect
         id="rect4848"
         height="26"
         width="24"
         x="0"
         y="0" />
    </clipPath>
    <clipPath
       id="clip88">
      <path
         id="path4845"
         d="m 0.683594,0.921875 h 22.679687 v 24.9375 H 0.683594 Z m 0,0"
         inkscape:connector-curvature="0" />
    </clipPath>
    <mask
       id="mask43">
      <g
         transform="matrix(0.26458333,0,0,0.26458333,89.358789,128.57765)"
         id="g4842"
         style="filter:url(#alpha)">
        <rect
           id="rect4840"
           style="fill:#000000;fill-opacity:0.14999402;stroke:none"
           height="3351.5"
           width="3052.8701"
           y="0"
           x="0" />
      </g>
    </mask>
    <filter
       height="1"
       width="1"
       y="0"
       x="0"
       filterUnits="objectBoundingBox"
       id="filter17836">
      <feColorMatrix
         id="feColorMatrix17834"
         values="0 0 0 0 1 0 0 0 0 1 0 0 0 0 1 0 0 0 1 0"
         in="SourceGraphic"
         type="matrix" />
    </filter>
    <clipPath
       id="clipPath17840">
      <rect
         id="rect17838"
         height="26"
         width="24"
         x="0"
         y="0" />
    </clipPath>
    <clipPath
       id="clipPath17844">
      <path
         id="path17842"
         d="m 0.683594,0.921875 h 22.679687 v 24.9375 H 0.683594 Z m 0,0"
         inkscape:connector-curvature="0" />
    </clipPath>
  </defs>
  <sodipodi:namedview
     id="base"
     pagecolor="#262626"
     bordercolor="#666666"
     borderopacity="1.0"
     inkscape:pageopacity="0"
     inkscape:pageshadow="2"
     inkscape:zoom="11.313708"
     inkscape:cx="48.545046"
     inkscape:cy="394.00517"
     inkscape:document-units="mm"
     inkscape:current-layer="layer1"
     showgrid="false"
     inkscape:window-width="1857"
     inkscape:window-height="1057"
     inkscape:window-x="-8"
     inkscape:window-y="-8"
     inkscape:window-maximized="1"
     showguides="true"
     inkscape:snap-grids="false"
     inkscape:guide-bbox="true"
     inkscape:snap-bbox="true"
     inkscape:bbox-paths="true"
     inkscape:snap-bbox-edge-midpoints="true"
     inkscape:bbox-nodes="true"
     inkscape:snap-bbox-midpoints="true"
     fit-margin-top="0"
     fit-margin-left="0"
     fit-margin-right="0"
     fit-margin-bottom="0">
    <inkscape:grid
       type="xygrid"
       id="grid31"
       originx="2.7755573e-018"
       originy="1.5039822e-014" />
    <sodipodi:guide
       position="2.7755574e-018,1.5039821e-014"
       orientation="0,192"
       id="guide4607"
       inkscape:locked="false" />
    <sodipodi:guide
       position="50.799997,128.49999"
       orientation="0,-192"
       id="guide4611"
       inkscape:locked="false" />
    <sodipodi:guide
       position="2.7755574e-018,128.49999"
       orientation="485.66929,0"
       id="guide4613"
       inkscape:locked="false" />
    <sodipodi:guide
       position="0.99999995,118.65624"
       orientation="1,0"
       id="guide4615"
       inkscape:locked="false"
       inkscape:label=""
       inkscape:color="rgb(0,0,255)" />
    <sodipodi:guide
       position="18.32,113.45591"
       orientation="1,0"
       id="guide4617"
       inkscape:locked="false"
       inkscape:label=""
       inkscape:color="rgb(0,0,255)" />
    <sodipodi:guide
       position="9.1599999,111.0305"
       orientation="1,0"
       id="guide4619"
       inkscape:locked="false"
       inkscape:label=""
       inkscape:color="rgb(0,0,255)" />
    <sodipodi:guide
       position="10.159999,105.6215"
       orientation="1,0"
       id="guide4637"
       inkscape:locked="false"
       inkscape:label=""
       inkscape:color="rgb(0,0,255)" />
    <sodipodi:guide
       position="10.16,115.99999"
       orientation="0,1"
       id="guide4776"
       inkscape:locked="false" />
    <sodipodi:guide
       position="10.16,23.723999"
       orientation="0,1"
       id="guide4778"
       inkscape:locked="false" />
    <sodipodi:guide
       position="10.159999,21.445007"
       orientation="0,1"
       id="guide4780"
       inkscape:locked="false" />
    <sodipodi:guide
       position="10.159999,12"
       orientation="0,1"
       id="guide4782"
       inkscape:locked="false"
       inkscape:label=""
       inkscape:color="rgb(0,0,255)" />
    <sodipodi:guide
       position="10.159999,105.99999"
       orientation="0,1"
       id="guide4784"
       inkscape:locked="false"
       inkscape:label=""
       inkscape:color="rgb(0,0,255)" />
    <sodipodi:guide
       position="-4.2994791,103.99999"
       orientation="0,1"
       id="guide4786"
       inkscape:locked="false"
       inkscape:label=""
       inkscape:color="rgb(0,0,255)" />
    <sodipodi:guide
       position="7.2506154,120"
       orientation="0,1"
       id="guide8553"
       inkscape:locked="false"
       inkscape:label=""
       inkscape:color="rgb(0,0,255)" />
    <sodipodi:guide
       position="6.3359434,5"
       orientation="0,1"
       id="guide8555"
       inkscape:locked="false"
       inkscape:label=""
       inkscape:color="rgb(0,0,255)" />
    <sodipodi:guide
       position="5.0799999,13.630745"
       orientation="1,0"
       id="guide8557"
       inkscape:locked="false"
       inkscape:label=""
       inkscape:color="rgb(0,0,255)" />
    <sodipodi:guide
       position="4.08,105.63253"
       orientation="1,0"
       id="guide8572"
       inkscape:locked="false"
       inkscape:label=""
       inkscape:color="rgb(0,0,255)" />
    <sodipodi:guide
       position="6.0799999,105.17187"
       orientation="1,0"
       id="guide8574"
       inkscape:locked="false"
       inkscape:label=""
       inkscape:color="rgb(0,0,255)" />
    <sodipodi:guide
       position="2.4450335,104.99999"
       orientation="0,1"
       id="guide8576"
       inkscape:locked="false"
       inkscape:label=""
       inkscape:color="rgb(0,0,255)" />
    <sodipodi:guide
       position="33.734374,13"
       orientation="0,1"
       id="guide7786"
       inkscape:locked="false"
       inkscape:label=""
       inkscape:color="rgb(0,0,255)" />
    <sodipodi:guide
       position="25.168489,89.499999"
       orientation="0,1"
       id="guide7788"
       inkscape:locked="false"
       inkscape:label=""
       inkscape:color="rgb(0,0,255)" />
    <sodipodi:guide
       position="12.981119,107"
       orientation="0,1"
       id="guide7814"
       inkscape:locked="false"
       inkscape:label=""
       inkscape:color="rgb(0,0,255)" />
    <sodipodi:guide
       position="8.1846075,107.00066"
       orientation="1,0"
       id="guide7834"
       inkscape:locked="false" />
  </sodipodi:namedview>
  <metadata
     id="metadata5">
    <rdf:RDF>
      <cc:Work
         rdf:about="">
        <dc:format>image/svg+xml</dc:format>
        <dc:type
           rdf:resource="http://purl.org/dc/dcmitype/StillImage" />
        <dc:title />
      </cc:Work>
    </rdf:RDF>
  </metadata>
  <g
     inkscape:label="panel"
     inkscape:groupmode="layer"
     id="layer1"
     transform="translate(0,-168.5)"
     style="display:inline">
    <rect
       style="opacity:1;fill:#e6e6e6;stroke-width:0.26458332"
       id="rect39"
       width="10.159999"
       height="128.5"
       x="-2.7755574e-018"
       y="168.5" />
    <text
       xml:space="preserve"
       style="font-style:normal;font-weight:normal;font-size:4.93888855px;line-height:1.25;font-family:sans-serif;letter-spacing:0px;word-spacing:0px;fill:#000000;fill-opacity:1;stroke:none;stroke-width:0.26458332"
       x="6.1471992"
       y="177.26324"
       id="text3713"><tspan
         sodipodi:role="line"
         id="tspan3711"
         x="6.1471992"
         y="181.76915"
         style="stroke-width:0.26458332" /></text>
    <g
       aria-label="a"
       style="font-style:normal;font-variant:normal;font-weight:normal;font-stretch:normal;font-size:14.11111069px;line-height:1.25;font-family:'Opus Special Extra Std';-inkscape-font-specification:'Opus Special Extra Std';letter-spacing:0px;word-spacing:0px;fill:#ffcc00;fill-opacity:1;stroke:none;stroke-width:0.26458332"
       id="text3719" />
    <rect
       style="opacity:1;fill:#333333;fill-opacity:1;stroke:none;stroke-width:0.26499999;stroke-miterlimit:4;stroke-dasharray:none;stroke-dashoffset:0;stroke-opacity:1"
       id="rect3797"
       width="10.159999"
       height="10"
       x="3.70859e-007"
       y="168.5" />
    <rect
       style="display:inline;opacity:1;fill:#333333;fill-opacity:1;stroke-width:0.26458332"
       id="rect3797-4"
       width="10.159999"
       height="10"
       x="0"
       y="287" />
    <text
       xml:space="preserve"
       style="font-style:normal;font-variant:normal;font-weight:normal;font-stretch:normal;font-size:4.93888855px;line-height:1.25;font-family:'ornaments labels and frames';-inkscape-font-specification:'ornaments labels and frames, Normal';font-variant-ligatures:normal;font-variant-caps:normal;font-variant-numeric:normal;text-align:center;letter-spacing:0px;word-spacing:0px;writing-mode:lr-tb;text-anchor:middle;display:inline;fill:#000000;fill-opacity:1;stroke:none;stroke-width:0.26458332"
       x="30.067825"
       y="196.50633"
       id="text3786"><tspan
         sodipodi:role="line"
         id="tspan3784"
         x="30.067825"
         y="200.96446"
         style="stroke-width:0.26458332" /></text>
    <rect
       style="display:inline;opacity:1;fill:#666666;fill-opacity:1;stroke:none;stroke-width:0.2649999;stroke-miterlimit:4;stroke-dasharray:none;stroke-dashoffset:0;stroke-opacity:0.94779142"
       id="rect5407-5"
       width="8.1600008"
       height="92"
       x="0.99999994"
       y="193"
       rx="1.0000001"
       ry="1.0000006" />
    <g
       transform="matrix(1.8133333,0,0,1,-66.628621,77.64139)"
       aria-label="out"
       style="font-style:normal;font-variant:normal;font-weight:normal;font-stretch:normal;font-size:3.52777767px;line-height:1.25;font-family:Steagisler;-inkscape-font-specification:Steagisler;font-variant-ligatures:normal;font-variant-caps:normal;font-variant-numeric:normal;font-feature-settings:normal;text-align:center;letter-spacing:0px;word-spacing:0px;writing-mode:lr-tb;text-anchor:middle;display:inline;fill:#f9f9f9;fill-opacity:1;stroke:none;stroke-width:0.19648239"
       id="text4639" />
    <rect
       style="display:inline;opacity:0.98000004;fill:#f2f2f2;fill-opacity:1;stroke:none;stroke-width:0.26499999;stroke-miterlimit:4;stroke-dasharray:none;stroke-dashoffset:0;stroke-opacity:0.94779142"
       id="rect5407"
       width="8.1599998"
       height="11"
       x="1"
       y="181"
       rx="1.0000006"
       ry="1.0000006" />
    <g
       aria-label="ads."
       style="font-style:normal;font-variant:normal;font-weight:normal;font-stretch:normal;font-size:3.52777767px;line-height:0.80000001;font-family:Steagisler;-inkscape-font-specification:Steagisler;font-variant-ligatures:normal;font-variant-caps:normal;font-variant-numeric:normal;font-feature-settings:normal;text-align:center;letter-spacing:0px;word-spacing:0px;writing-mode:lr-tb;text-anchor:middle;fill:#f2f2f2;fill-opacity:1;stroke:none;stroke-width:0.26458332"
       id="text8561"
       transform="translate(0,114.6006)">
      <path
         d="M 3.6761236,177.40961 H 3.2696023 q -0.020671,-0.0465 -0.034451,-0.0965 -0.00345,-0.0121 -0.015503,-0.0155 -0.00345,-0.002 -0.00517,-0.002 -0.00689,0 -0.01378,0.007 -0.1498617,0.15503 -0.4220242,0.15503 -0.578776,0 -0.578776,-0.56844 0,-0.34107 0.3479546,-0.47026 0.1653646,-0.062 0.3410645,-0.062 0.1464165,0 0.3014458,0.0431 0.00345,0.002 0.00517,0.002 0.00689,0 0.012058,-0.005 0.00861,-0.005 0.00861,-0.0155 v -0.28078 q 0,-0.12575 -0.09474,-0.20154 -0.08785,-0.0689 -0.2153185,-0.0689 -0.1274685,0 -0.2153184,0.0689 -0.09474,0.0758 -0.09474,0.20154 v 0.0413 H 2.2205708 v -0.0568 q 0,-0.28422 0.2101508,-0.45303 0.1946479,-0.15675 0.4857584,-0.15675 0.2911106,0 0.4857585,0.15675 0.2084282,0.16881 0.2084282,0.45303 v 1.0542 q 0,0.12402 0.065457,0.27044 z m -0.4599203,-0.72003 q 0,-0.0138 -0.01378,-0.019 -0.1205783,-0.0431 -0.2446017,-0.0431 -0.062012,0 -0.125746,0.0103 -0.235989,0.0396 -0.235989,0.23771 0,0.2291 0.3100585,0.2291 0.1274686,0 0.2153185,-0.0689 0.09474,-0.0758 0.09474,-0.19981 z"
         style="fill:#f2f2f2;fill-opacity:1;stroke-width:0.26458332"
         id="path8563"
         inkscape:connector-curvature="0" />
      <path
         d="M 5.5071917,177.40961 H 5.102393 q -0.022393,-0.0448 -0.034451,-0.0947 -0.00345,-0.0103 -0.015503,-0.0138 -0.00345,-0.002 -0.00517,-0.002 -0.00689,0 -0.01378,0.007 -0.1515842,0.15159 -0.4220242,0.15159 -0.2824978,0 -0.434082,-0.16364 -0.144694,-0.15848 -0.144694,-0.44614 v -0.76309 q 0,-0.28595 0.1550293,-0.44614 0.1567518,-0.16364 0.4409722,-0.16364 0.2342665,0 0.3858507,0.11368 0.00517,0.005 0.012058,0.005 0.00345,0 0.00861,-0.003 0.012058,-0.005 0.012058,-0.0172 v -0.80443 h 0.396186 v 2.37023 q 0,0.12402 0.063734,0.27044 z m -0.4599202,-1.30914 q 0,-0.12575 -0.09474,-0.20154 -0.086127,-0.0689 -0.2153185,-0.0689 -0.1274685,0 -0.2153184,0.0689 -0.093018,0.0758 -0.093018,0.20154 v 0.73381 q 0,0.12402 0.093018,0.19981 0.08785,0.0706 0.2153184,0.0706 0.1291911,0 0.2153185,-0.0706 0.09474,-0.0758 0.09474,-0.19981 z"
         style="fill:#f2f2f2;fill-opacity:1;stroke-width:0.26458332"
         id="path8565"
         inkscape:connector-curvature="0" />
      <path
         d="m 6.2082686,176.8515 q 0,0.12058 0.093018,0.18948 0.084405,0.0637 0.2084283,0.0637 0.1240234,0 0.2084283,-0.0637 0.093018,-0.0689 0.093018,-0.18948 0,-0.12574 -0.1550293,-0.17225 -0.1412489,-0.0413 -0.3341742,-0.0775 -0.2428792,-0.0586 -0.3669027,-0.20326 -0.1223009,-0.14642 -0.1223009,-0.36001 0,-0.27044 0.2084283,-0.42375 0.1877577,-0.1378 0.468533,-0.1378 0.2807753,0 0.468533,0.1378 0.2084282,0.15331 0.2084282,0.42375 v 0.10163 H 6.8111603 v -0.0603 q 0,-0.11886 -0.08785,-0.18776 -0.079237,-0.0637 -0.2032606,-0.0637 -0.1223009,0 -0.2032607,0.0637 -0.08785,0.0689 -0.08785,0.18776 0,0.12747 0.1550293,0.16881 0.1963704,0.0517 0.3341743,0.0758 0.2256537,0.0482 0.3565673,0.17398 0.1326362,0.12402 0.1326362,0.36346 0,0.30317 -0.2153185,0.45819 -0.1912028,0.13781 -0.471978,0.13781 -0.2807753,0 -0.4719781,-0.13781 -0.2153185,-0.15502 -0.2153185,-0.42374 v -0.10508 h 0.3755154 z"
         style="fill:#f2f2f2;fill-opacity:1;stroke-width:0.26458332"
         id="path8567"
         inkscape:connector-curvature="0" />
      <path
         d="m 7.7533937,176.95658 q 0.1050754,0 0.1791449,0.0741 0.072347,0.0741 0.072347,0.17742 0,0.10335 -0.072347,0.17742 -0.07407,0.0741 -0.1791449,0.0741 -0.1033529,0 -0.1774224,-0.0741 -0.072347,-0.0741 -0.072347,-0.17742 0,-0.10335 0.072347,-0.17742 0.07407,-0.0741 0.1774224,-0.0741 z"
         style="fill:#f2f2f2;fill-opacity:1;stroke-width:0.26458332"
         id="path8569"
         inkscape:connector-curvature="0" />
    </g>
    <g
       aria-label="div"
       style="font-style:normal;font-variant:normal;font-weight:normal;font-stretch:normal;font-size:3.52777767px;line-height:0.80000001;font-family:Steagisler;-inkscape-font-specification:'Steagisler, Normal';font-variant-ligatures:normal;font-variant-caps:normal;font-variant-numeric:normal;font-feature-settings:normal;text-align:center;letter-spacing:0px;word-spacing:0px;writing-mode:lr-tb;text-anchor:middle;fill:#f2f2f2;fill-opacity:1;stroke:none;stroke-width:0.26458332"
       id="text6987">
      <path
         d="M 4.5150043,177 H 4.1102056 q -0.022393,-0.0448 -0.034451,-0.0947 -0.00345,-0.0103 -0.015503,-0.0138 -0.00345,-0.002 -0.00517,-0.002 -0.00689,0 -0.01378,0.007 -0.1515842,0.15158 -0.4220242,0.15158 -0.2824978,0 -0.434082,-0.16364 -0.144694,-0.15848 -0.144694,-0.44614 v -0.76309 q 0,-0.28594 0.1550292,-0.44614 0.1567519,-0.16364 0.4409723,-0.16364 0.2342664,0 0.3858506,0.11369 0.00517,0.005 0.012058,0.005 0.00345,0 0.00861,-0.003 0.012058,-0.005 0.012058,-0.0172 v -0.80443 H 4.45127 v 2.37023 q 0,0.12402 0.063734,0.27044 z M 4.055084,175.69086 q 0,-0.12574 -0.09474,-0.20153 -0.086127,-0.0689 -0.2153184,-0.0689 -0.1274686,0 -0.2153185,0.0689 -0.093018,0.0758 -0.093018,0.20153 v 0.73381 q 0,0.12402 0.093018,0.19981 0.08785,0.0706 0.2153185,0.0706 0.129191,0 0.2153184,-0.0706 0.09474,-0.0758 0.09474,-0.19981 z"
         style="fill:#f2f2f2;fill-opacity:1;stroke-width:0.26458332"
         id="path6989" />
      <path
         d="m 5.2005783,174.35933 q 0.1050754,0 0.1774224,0.0724 0.074069,0.0741 0.074069,0.17742 0,0.10508 -0.074069,0.17915 -0.072347,0.0724 -0.1774224,0.0724 -0.1033529,0 -0.1774225,-0.0724 -0.074069,-0.0741 -0.074069,-0.17915 0,-0.10335 0.074069,-0.17742 0.07407,-0.0724 0.1774225,-0.0724 z M 5.3986712,177 H 5.0024853 v -1.57269 q 0,-0.0207 -0.020671,-0.0207 H 4.7888894 v -0.30144 h 0.6097818 z"
         style="fill:#f2f2f2;fill-opacity:1;stroke-width:0.26458332"
         id="path6991" />
      <path
         d="m 5.7896895,175.1052 h 0.3892958 l 0.3100586,1.52273 q 0.00345,0.0172 0.018948,0.0172 0.017225,0 0.020671,-0.0172 L 6.838721,175.1052 h 0.3892958 l -0.45303,1.9103 H 6.2427195 Z"
         style="fill:#f2f2f2;fill-opacity:1;stroke-width:0.26458332"
         id="path6993" />
    </g>
    <g
       aria-label="1"
       style="font-style:normal;font-variant:normal;font-weight:normal;font-stretch:normal;font-size:3.52777767px;line-height:0.80000001;font-family:Steagisler;-inkscape-font-specification:'Steagisler, Normal';font-variant-ligatures:normal;font-variant-caps:normal;font-variant-numeric:normal;font-feature-settings:normal;text-align:center;letter-spacing:0px;word-spacing:0px;writing-mode:lr-tb;text-anchor:middle;fill:#f2f2f2;fill-opacity:1;stroke:none;stroke-width:0.26458332"
       id="text6998"
       transform="translate(-7.819913e-8,7.0000002)">
      <path
         d="m 7.6867915,200.5 v -0.3359 h 0.2773302 q 0.020671,0 0.020671,-0.0207 v -1.92753 q 0,-0.019 -0.020671,-0.019 H 7.6867915 v -0.24632 l 0.4771458,-0.0913 h 0.2204861 v 2.2841 q 0,0.0207 0.020671,0.0207 H 8.6824241 V 200.5 Z"
         style="fill:#f2f2f2;fill-opacity:1;stroke-width:0.26458332"
         id="path7811"
         inkscape:connector-curvature="0" />
    </g>
    <g
       aria-label="2"
       style="font-style:normal;font-variant:normal;font-weight:normal;font-stretch:normal;font-size:3.52777767px;line-height:0.80000001;font-family:Steagisler;-inkscape-font-specification:'Steagisler, Normal';font-variant-ligatures:normal;font-variant-caps:normal;font-variant-numeric:normal;font-feature-settings:normal;text-align:center;letter-spacing:0px;word-spacing:0px;writing-mode:lr-tb;text-anchor:middle;fill:#f2f2f2;fill-opacity:1;stroke:none;stroke-width:0.26458332"
       id="text7002"
       transform="translate(-1.7819913e-7,6.0000259)">
      <path
         d="m 7.5197045,210.33936 q 0,-0.28766 0.2135959,-0.45647 0.1912028,-0.15159 0.4668105,-0.15159 0.2773301,0 0.4685329,0.15159 0.2135959,0.16881 0.2135959,0.45647 v 0.19637 q 0,0.18604 -0.063734,0.32384 -0.041341,0.0879 -0.1825901,0.27905 -0.067179,0.093 -0.163642,0.21188 -0.044786,0.0551 -0.1774224,0.21187 -0.1102431,0.13264 -0.1739773,0.2136 -0.1688097,0.21359 -0.1688097,0.28938 0,0.0207 0.020671,0.0207 h 0.9060601 v 0.3359 H 7.4869761 v -0.14814 q 0,-0.28594 0.4289144,-0.81649 0.3892958,-0.48059 0.4254693,-0.53571 0.1395263,-0.20154 0.1395263,-0.38757 v -0.17915 q 0,-0.12574 -0.08785,-0.19981 -0.079237,-0.0655 -0.1929253,-0.0655 -0.1119656,0 -0.1912028,0.0655 -0.08785,0.0741 -0.08785,0.19981 v 0.17226 H 7.5197045 Z"
         style="fill:#f2f2f2;fill-opacity:1;stroke-width:0.26458332"
         id="path7808"
         inkscape:connector-curvature="0" />
    </g>
    <g
       aria-label="3"
       style="font-style:normal;font-variant:normal;font-weight:normal;font-stretch:normal;font-size:3.52777767px;line-height:0.80000001;font-family:Steagisler;-inkscape-font-specification:'Steagisler, Normal';font-variant-ligatures:normal;font-variant-caps:normal;font-variant-numeric:normal;font-feature-settings:normal;text-align:center;letter-spacing:0px;word-spacing:0px;writing-mode:lr-tb;text-anchor:middle;fill:#f2f2f2;fill-opacity:1;stroke:none;stroke-width:0.26458332"
       id="text7006"
       transform="translate(-3.2819913e-7,5.0000416)">
      <path
         d="m 7.8711044,223.76853 q 0,0.12746 0.098185,0.20326 0.08785,0.0672 0.2153184,0.0672 0.1274686,0 0.2153185,-0.0672 0.096463,-0.0758 0.096463,-0.20326 v -0.28939 q 0,-0.31867 -0.3117812,-0.31867 H 7.9451739 v -0.27906 h 0.2377116 q 0.1188558,0 0.198093,-0.0706 0.082682,-0.0758 0.082682,-0.19465 v -0.33934 q 0,-0.12575 -0.08785,-0.19982 -0.077515,-0.0654 -0.1912028,-0.0654 -0.1136881,0 -0.1929253,0.0654 -0.086127,0.0741 -0.086127,0.19982 v 0.17225 H 7.5042017 v -0.18775 q 0,-0.28767 0.2118734,-0.45648 0.1912028,-0.15158 0.4685329,-0.15158 0.2756077,0 0.468533,0.15158 0.2118734,0.16881 0.2118734,0.45648 v 0.30317 q 0,0.298 -0.2428792,0.43063 -0.010335,0.005 -0.010335,0.0155 v 0.003 q 0,0.0121 0.010335,0.0172 0.2756076,0.13091 0.2756076,0.44786 v 0.30317 q 0,0.28938 -0.2222087,0.45819 -0.2015381,0.15331 -0.4909261,0.15331 -0.289388,0 -0.4909261,-0.15331 -0.2222086,-0.16881 -0.2222086,-0.45819 v -0.18432 h 0.3996311 z"
         style="fill:#f2f2f2;fill-opacity:1;stroke-width:0.26458332"
         id="path7805"
         inkscape:connector-curvature="0" />
    </g>
    <g
       aria-label="4"
       style="font-style:normal;font-variant:normal;font-weight:normal;font-stretch:normal;font-size:3.52777767px;line-height:0.80000001;font-family:Steagisler;-inkscape-font-specification:'Steagisler, Normal';font-variant-ligatures:normal;font-variant-caps:normal;font-variant-numeric:normal;font-feature-settings:normal;text-align:center;letter-spacing:0px;word-spacing:0px;writing-mode:lr-tb;text-anchor:middle;fill:#f2f2f2;fill-opacity:1;stroke:none;stroke-width:0.26458332"
       id="text7010"
       transform="translate(-2.2819913e-7,3.9996073)">
      <path
         d="m 8.6841468,235.51991 h 0.2532145 v 0.33762 H 8.6841468 v 0.40825 H 8.2827931 v -0.40825 H 7.4318546 v -0.14469 l 0.6476779,-2.08773 h 0.6046143 z m -0.4013537,0 v -1.51928 l -0.4168565,1.49345 q -0.00172,0.003 -0.00172,0.007 0,0.007 0.00517,0.0121 0.00689,0.007 0.015503,0.007 z"
         style="fill:#f2f2f2;fill-opacity:1;stroke-width:0.26458332"
         id="path7802"
         inkscape:connector-curvature="0" />
    </g>
    <g
       aria-label="5"
       style="font-style:normal;font-variant:normal;font-weight:normal;font-stretch:normal;font-size:3.52777767px;line-height:0.80000001;font-family:Steagisler;-inkscape-font-specification:'Steagisler, Normal';font-variant-ligatures:normal;font-variant-caps:normal;font-variant-numeric:normal;font-feature-settings:normal;text-align:center;letter-spacing:0px;word-spacing:0px;writing-mode:lr-tb;text-anchor:middle;fill:#f2f2f2;fill-opacity:1;stroke:none;stroke-width:0.26458332"
       id="text7014"
       transform="translate(5.7180087e-7,2.9996229)">
      <path
         d="m 8.8400373,245.49709 v 0.3359 H 7.9339772 q -0.020671,0 -0.020671,0.0207 l -0.037896,0.56844 q 0,0.0138 0.010335,0.0207 0.00517,0.002 0.010335,0.002 0.00689,0 0.012058,-0.003 0.1515842,-0.11369 0.3858507,-0.11369 0.2842204,0 0.4409722,0.16192 0.1550293,0.1602 0.1550293,0.44786 v 0.64079 q 0,0.28422 -0.2153185,0.45303 -0.1980929,0.15675 -0.4892035,0.15675 -0.2928331,0 -0.4909261,-0.15675 -0.2153184,-0.16881 -0.2153184,-0.45303 v -0.18604 h 0.3961859 v 0.17054 q 0,0.12574 0.09474,0.20153 0.086127,0.0706 0.2153185,0.0706 0.1274685,0 0.2153185,-0.0706 0.093018,-0.0758 0.093018,-0.20153 v -0.61151 q 0,-0.12402 -0.093018,-0.19981 -0.08785,-0.0706 -0.2153185,-0.0706 -0.1274685,0 -0.2153185,0.0689 -0.093017,0.0741 -0.09474,0.1981 v 0.007 H 7.4809472 l 0.106798,-1.45728 z"
         style="fill:#f2f2f2;fill-opacity:1;stroke-width:0.26458332"
         id="path7799"
         inkscape:connector-curvature="0" />
    </g>
    <g
       aria-label="6"
       style="font-style:normal;font-variant:normal;font-weight:normal;font-stretch:normal;font-size:3.52777767px;line-height:0.80000001;font-family:Steagisler;-inkscape-font-specification:'Steagisler, Normal';font-variant-ligatures:normal;font-variant-caps:normal;font-variant-numeric:normal;font-feature-settings:normal;text-align:center;letter-spacing:0px;word-spacing:0px;writing-mode:lr-tb;text-anchor:middle;fill:#f2f2f2;fill-opacity:1;stroke:none;stroke-width:0.26458332"
       id="text7018"
       transform="translate(1.3718009e-6,1.9996386)">
      <path
         d="m 8.4955284,258.04259 q 0,-0.12402 -0.09474,-0.19982 -0.08785,-0.0706 -0.2153185,-0.0706 -0.1274685,0 -0.2153184,0.0706 -0.09474,0.0758 -0.09474,0.19982 v 0.57016 q 0,0.0138 0.012058,0.019 0.00517,0.002 0.00861,0.002 0.00689,0 0.012058,-0.003 0.1515842,-0.11369 0.3858506,-0.11369 0.2842204,0 0.4409723,0.16192 0.1550292,0.1602 0.1550292,0.44786 v 0.4203 q 0,0.28422 -0.2153184,0.45303 -0.198093,0.15676 -0.4892036,0.15676 -0.2928331,0 -0.4909261,-0.15676 -0.2153184,-0.16881 -0.2153184,-0.45303 v -1.51756 q 0,-0.28422 0.2153184,-0.45475 0.198093,-0.15503 0.4909261,-0.15503 0.2911106,0 0.4805908,0.15675 0.2049832,0.16881 0.2049832,0.45303 v 0.18259 H 8.4955284 Z m -0.6201171,1.48828 q 0,0.12575 0.09474,0.20154 0.08785,0.0706 0.2153184,0.0706 0.1274686,0 0.2153185,-0.0706 0.09474,-0.0758 0.09474,-0.20154 l -0.00172,-0.39102 q 0,-0.12402 -0.093018,-0.19981 -0.08785,-0.0706 -0.2153185,-0.0706 -0.1274685,0 -0.2135959,0.0689 -0.09474,0.0758 -0.096463,0.1981 z"
         style="fill:#f2f2f2;fill-opacity:1;stroke-width:0.26458332"
         id="path7796"
         inkscape:connector-curvature="0" />
    </g>
    <g
       aria-label="7"
       style="font-style:normal;font-variant:normal;font-weight:normal;font-stretch:normal;font-size:3.52777767px;line-height:0.80000001;font-family:Steagisler;-inkscape-font-specification:'Steagisler, Normal';font-variant-ligatures:normal;font-variant-caps:normal;font-variant-numeric:normal;font-feature-settings:normal;text-align:center;letter-spacing:0px;word-spacing:0px;writing-mode:lr-tb;text-anchor:middle;fill:#f2f2f2;fill-opacity:1;stroke:none;stroke-width:0.26458332"
       id="text7022"
       transform="translate(-4.7819913e-7,1.0007143)">
      <path
         d="m 8.391314,269.74918 v -0.005 q 0,-0.005 -0.00345,-0.0121 -0.00689,-0.009 -0.017226,-0.009 H 7.5128146 v -0.3359 h 1.3435872 v 0.1447 l -0.6338975,2.49597 H 7.8125379 Z"
         style="fill:#f2f2f2;fill-opacity:1;stroke-width:0.26458332"
         id="path7793"
         inkscape:connector-curvature="0" />
    </g>
    <g
       aria-label="8"
       style="font-style:normal;font-variant:normal;font-weight:normal;font-stretch:normal;font-size:3.52777767px;line-height:0.80000001;font-family:Steagisler;-inkscape-font-specification:'Steagisler, Normal';font-variant-ligatures:normal;font-variant-caps:normal;font-variant-numeric:normal;font-feature-settings:normal;text-align:center;letter-spacing:0px;word-spacing:0px;writing-mode:lr-tb;text-anchor:middle;fill:#f2f2f2;fill-opacity:1;stroke:none;stroke-width:0.26458332"
       id="text7026">
      <path
         d="m 8.8650143,282.17065 q 0,0.298 -0.2428793,0.43064 -0.010335,0.005 -0.010335,0.0155 v 0.003 q 0,0.012 0.010335,0.0172 0.2756077,0.13092 0.2756077,0.44786 v 0.30317 q 0,0.28939 -0.2222087,0.4582 Q 8.4739959,284 8.1846079,284 q -0.289388,0 -0.4909261,-0.15331 -0.2222086,-0.16881 -0.2222086,-0.4582 v -0.30317 q 0,-0.31694 0.2756076,-0.44786 0.010335,-0.005 0.010335,-0.0172 v -0.003 q 0,-0.0103 -0.010335,-0.0155 -0.2428792,-0.13264 -0.2428792,-0.43064 v -0.30317 q 0,-0.28766 0.2118734,-0.45647 0.1912028,-0.15159 0.4685329,-0.15159 0.2756077,0 0.468533,0.15159 0.2118734,0.16881 0.2118734,0.45647 z m -0.9594591,0.0517 q 0,0.12574 0.086127,0.19809 0.079237,0.0672 0.1929253,0.0672 0.1136882,0 0.1929254,-0.0672 0.086127,-0.0723 0.086127,-0.19809 v -0.33934 q 0,-0.12575 -0.086127,-0.19982 -0.079237,-0.0655 -0.1929254,-0.0655 -0.1136881,0 -0.1929253,0.0655 -0.086127,0.0741 -0.086127,0.19982 z m 0.5925564,0.86299 q 0,-0.31867 -0.3135037,-0.31867 -0.3135037,0 -0.3135037,0.31867 v 0.28939 q 0,0.12747 0.098185,0.20326 0.08785,0.0672 0.2153184,0.0672 0.1274686,0 0.2153185,-0.0672 0.098185,-0.0758 0.098185,-0.20326 z"
         style="fill:#f2f2f2;fill-opacity:1;stroke-width:0.26458332"
         id="path7790"
         inkscape:connector-curvature="0" />
    </g>
    <g
       aria-label="in"
       style="font-style:normal;font-variant:normal;font-weight:normal;font-stretch:normal;font-size:3.52777767px;line-height:0.80000001;font-family:Steagisler;-inkscape-font-specification:'Steagisler, Normal';font-variant-ligatures:normal;font-variant-caps:normal;font-variant-numeric:normal;font-feature-settings:normal;text-align:center;letter-spacing:-0.16404167px;word-spacing:0px;writing-mode:lr-tb;text-anchor:middle;fill:#666666;fill-opacity:1;stroke:none;stroke-width:0.26458332"
       id="text16818"
       transform="translate(0,0.52916667)">
      <path
         d="m 4.4564652,188.88748 q 0.08406,0 0.1419379,0.0579 0.059256,0.0593 0.059256,0.14194 0,0.0841 -0.059256,0.14331 -0.057878,0.0579 -0.1419379,0.0579 -0.082682,0 -0.1419379,-0.0579 -0.059256,-0.0593 -0.059256,-0.14331 0,-0.0827 0.059256,-0.14194 0.059256,-0.0579 0.1419379,-0.0579 z m 0.1584744,2.11254 H 4.2979908 v -1.25815 q 0,-0.0165 -0.016536,-0.0165 H 4.1271141 v -0.24116 h 0.4878255 z"
         style="font-size:2.82222223px;fill:#666666;fill-opacity:1;stroke-width:0.26458332"
         id="path16820"
         inkscape:connector-curvature="0" />
      <path
         d="m 5.1509413,189.59028 q 0.00276,0.0124 0.017914,0.0124 0.00689,0 0.012402,-0.007 0.1254015,-0.14331 0.3638021,-0.14331 0.2273763,0 0.3527778,0.12953 0.1240234,0.12954 0.1240234,0.35829 v 1.05972 h -0.316948 v -1.04731 q 0,-0.1006 -0.074414,-0.16123 -0.07028,-0.0565 -0.1722548,-0.0565 -0.1033529,0 -0.1722548,0.0565 -0.075792,0.0606 -0.075792,0.16123 v 1.04731 H 4.8932481 v -1.51585 h 0.2328885 z"
         style="font-size:2.82222223px;fill:#666666;fill-opacity:1;stroke-width:0.26458332"
         id="path16822"
         inkscape:connector-curvature="0" />
    </g>
  </g>
  <g
     inkscape:groupmode="layer"
     id="layer3"
     inkscape:label="mockup" />
</svg>
