<?xml version="1.0" encoding="UTF-8" standalone="no"?>
<!-- Created with Inkscape (http://www.inkscape.org/) -->

<svg
   xmlns:dc="http://purl.org/dc/elements/1.1/"
   xmlns:cc="http://creativecommons.org/ns#"
   xmlns:rdf="http://www.w3.org/1999/02/22-rdf-syntax-ns#"
   xmlns:svg="http://www.w3.org/2000/svg"
   xmlns="http://www.w3.org/2000/svg"
   xmlns:sodipodi="http://sodipodi.sourceforge.net/DTD/sodipodi-0.dtd"
   xmlns:inkscape="http://www.inkscape.org/namespaces/inkscape"
   width="20.32mm"
   height="128.5mm"
   viewBox="0 0 20.32 128.5"
   version="1.1"
   id="svg8"
   inkscape:version="0.92.1 r15371"
   sodipodi:docname="Logic.svg">
  <defs
     id="defs2">
    <inkscape:path-effect
       effect="simplify"
       id="path-effect5498"
       is_visible="true"
       steps="1"
       threshold="0.000408163"
       smooth_angles="360"
       helper_size="0"
       simplify_individual_paths="false"
       simplify_just_coalesce="false"
       simplifyindividualpaths="false"
       simplifyJustCoalesce="false" />
    <inkscape:path-effect
       effect="simplify"
       id="path-effect5494"
       is_visible="true"
       steps="1"
       threshold="0.000408163"
       smooth_angles="360"
       helper_size="0"
       simplify_individual_paths="false"
       simplify_just_coalesce="false"
       simplifyindividualpaths="false"
       simplifyJustCoalesce="false" />
  </defs>
  <sodipodi:namedview
     id="base"
     pagecolor="#262626"
     bordercolor="#666666"
     borderopacity="1.0"
     inkscape:pageopacity="0"
     inkscape:pageshadow="2"
     inkscape:zoom="3.5332685"
     inkscape:cx="18.795053"
     inkscape:cy="116.81821"
     inkscape:document-units="mm"
     inkscape:current-layer="layer1"
     showgrid="false"
     inkscape:window-width="1827"
     inkscape:window-height="1057"
     inkscape:window-x="-8"
     inkscape:window-y="-8"
     inkscape:window-maximized="1"
     showguides="true"
     inkscape:snap-grids="false"
     inkscape:guide-bbox="true"
     inkscape:snap-bbox="true"
     inkscape:bbox-paths="true"
     inkscape:snap-bbox-edge-midpoints="true"
     inkscape:bbox-nodes="true"
     inkscape:snap-bbox-midpoints="true">
    <inkscape:grid
       type="xygrid"
       id="grid31" />
    <sodipodi:guide
       position="0,0"
       orientation="0,192"
       id="guide4607"
       inkscape:locked="false" />
    <sodipodi:guide
       position="50.799999,128.5"
       orientation="0,-192"
       id="guide4611"
       inkscape:locked="false" />
    <sodipodi:guide
       position="0,128.5"
       orientation="485.66929,0"
       id="guide4613"
       inkscape:locked="false" />
    <sodipodi:guide
       position="2.0000001,118.65625"
       orientation="1,0"
       id="guide4615"
       inkscape:locked="false"
       inkscape:label=""
       inkscape:color="rgb(0,0,255)" />
    <sodipodi:guide
       position="18.320001,113.45592"
       orientation="1,0"
       id="guide4617"
       inkscape:locked="false"
       inkscape:label=""
       inkscape:color="rgb(0,0,255)" />
    <sodipodi:guide
       position="10.160001,105.62151"
       orientation="1,0"
       id="guide4637"
       inkscape:locked="false" />
    <sodipodi:guide
       position="10.160001,116"
       orientation="0,1"
       id="guide4776"
       inkscape:locked="false" />
    <sodipodi:guide
       position="10.16,11.5"
       orientation="0,1"
       id="guide4782"
       inkscape:locked="false" />
    <sodipodi:guide
       position="10.165169,5.8861601"
       orientation="0,1"
       id="guide4864"
       inkscape:locked="false" />
    <sodipodi:guide
       position="10.16,10"
       orientation="0,1"
       id="guide4902"
       inkscape:locked="false" />
    <sodipodi:guide
       position="33.261907,111.5"
       orientation="0,1"
       id="guide4976"
       inkscape:locked="false"
       inkscape:label=""
       inkscape:color="rgb(0,0,255)" />
    <sodipodi:guide
       position="10.160001,88.000004"
       orientation="0,1"
       id="guide6210"
       inkscape:locked="false"
       inkscape:label=""
       inkscape:color="rgb(0,0,255)" />
    <sodipodi:guide
       position="27.220136,83.500003"
       orientation="0,1"
       id="guide6212"
       inkscape:locked="false"
       inkscape:label=""
       inkscape:color="rgb(0,0,255)" />
    <sodipodi:guide
       position="24.973632,81.500003"
       orientation="0,1"
       id="guide6214"
       inkscape:locked="false"
       inkscape:label=""
       inkscape:color="rgb(0,0,255)" />
    <sodipodi:guide
       position="24.71154,77.000003"
       orientation="0,1"
       id="guide6216"
       inkscape:locked="false"
       inkscape:label=""
       inkscape:color="rgb(0,0,255)" />
    <sodipodi:guide
       position="10.160001,71.92"
       orientation="0,1"
       id="guide6222"
       inkscape:locked="false" />
    <sodipodi:guide
       position="3.5000001,33.167191"
       orientation="1,0"
       id="guide6224"
       inkscape:locked="false"
       inkscape:label=""
       inkscape:color="rgb(0,0,255)" />
    <sodipodi:guide
       position="4.6435332,49.416352"
       orientation="0,1"
       id="guide6226"
       inkscape:locked="false"
       inkscape:label=""
       inkscape:color="rgb(0,0,255)" />
    <sodipodi:guide
       position="10.160001,74.460003"
       orientation="0,1"
       id="guide6228"
       inkscape:locked="false"
       inkscape:label=""
       inkscape:color="rgb(0,0,255)" />
    <sodipodi:guide
       position="4.9642967,33.167191"
       orientation="0,1"
       id="guide6230"
       inkscape:locked="false"
       inkscape:label=""
       inkscape:color="rgb(0,0,255)" />
    <sodipodi:guide
       position="5.9297168,16.171891"
       orientation="0,1"
       id="guide6232"
       inkscape:locked="false" />
    <sodipodi:guide
       position="4.4442365,66.459873"
       orientation="0,1"
       id="guide6234"
       inkscape:locked="false"
       inkscape:label=""
       inkscape:color="rgb(0,0,255)" />
    <sodipodi:guide
       position="4.2964453,100.8325"
       orientation="0,1"
       id="guide6252"
       inkscape:locked="false"
       inkscape:label=""
       inkscape:color="rgb(0,0,255)" />
    <sodipodi:guide
       position="10.160001,84.000003"
       orientation="0,1"
       id="guide6254"
       inkscape:locked="false"
       inkscape:label=""
       inkscape:color="rgb(0,0,255)" />
    <sodipodi:guide
       position="16.820001,64.493826"
       orientation="1,0"
       id="guide6297"
       inkscape:locked="false"
       inkscape:label=""
       inkscape:color="rgb(0,0,255)" />
    <sodipodi:guide
       position="15.409235,13.3866"
       orientation="0,1"
       id="guide6349"
       inkscape:locked="false" />
    <sodipodi:guide
       position="15.409235,30.381901"
       orientation="0,1"
       id="guide6351"
       inkscape:locked="false" />
    <sodipodi:guide
       position="15.302432,46.629501"
       orientation="0,1"
       id="guide6353"
       inkscape:locked="false" />
    <sodipodi:guide
       position="15.302431,63.672902"
       orientation="0,1"
       id="guide6355"
       inkscape:locked="false" />
    <sodipodi:guide
       position="14.668539,50.097031"
       orientation="1,0"
       id="guide6359"
       inkscape:locked="false" />
  </sodipodi:namedview>
  <metadata
     id="metadata5">
    <rdf:RDF>
      <cc:Work
         rdf:about="">
        <dc:format>image/svg+xml</dc:format>
        <dc:type
           rdf:resource="http://purl.org/dc/dcmitype/StillImage" />
        <dc:title></dc:title>
      </cc:Work>
    </rdf:RDF>
  </metadata>
  <g
     inkscape:label="panel"
     inkscape:groupmode="layer"
     id="layer1"
     transform="translate(0,-168.5)"
     style="display:inline">
    <rect
       style="opacity:1;fill:#e6e6e6;stroke-width:0.26458332"
       id="rect39"
       width="20.32"
       height="128.5"
       x="-5.5511152e-018"
       y="168.5" />
    <text
       xml:space="preserve"
       style="font-style:normal;font-weight:normal;font-size:4.93888855px;line-height:1.25;font-family:sans-serif;letter-spacing:0px;word-spacing:0px;fill:#000000;fill-opacity:1;stroke:none;stroke-width:0.26458332"
       x="6.1471992"
       y="177.26324"
       id="text3713"><tspan
         sodipodi:role="line"
         id="tspan3711"
         x="6.1471992"
         y="181.76915"
         style="stroke-width:0.26458332" /></text>
    <g
       aria-label="a"
       style="font-style:normal;font-variant:normal;font-weight:normal;font-stretch:normal;font-size:14.11111069px;line-height:1.25;font-family:'Opus Special Extra Std';-inkscape-font-specification:'Opus Special Extra Std';letter-spacing:0px;word-spacing:0px;fill:#ffcc00;fill-opacity:1;stroke:none;stroke-width:0.26458332"
       id="text3719" />
    <rect
       style="opacity:1;fill:#383838;fill-opacity:1;stroke:none;stroke-width:0.26499999;stroke-miterlimit:4;stroke-dasharray:none;stroke-dashoffset:0;stroke-opacity:1"
       id="rect3797"
       width="20.32"
       height="10"
       x="2.744981e-016"
       y="168.5" />
    <rect
       style="display:inline;opacity:1;fill:#383838;fill-opacity:1;stroke-width:0.26458332"
       id="rect3797-4"
       width="20.32"
       height="10"
       x="0"
       y="287" />
    <text
       xml:space="preserve"
       style="font-style:normal;font-variant:normal;font-weight:normal;font-stretch:normal;font-size:4.93888855px;line-height:1.25;font-family:'ornaments labels and frames';-inkscape-font-specification:'ornaments labels and frames, Normal';font-variant-ligatures:normal;font-variant-caps:normal;font-variant-numeric:normal;text-align:center;letter-spacing:0px;word-spacing:0px;writing-mode:lr-tb;text-anchor:middle;display:inline;fill:#000000;fill-opacity:1;stroke:none;stroke-width:0.26458332"
       x="30.067825"
       y="196.50633"
       id="text3786"><tspan
         sodipodi:role="line"
         id="tspan3784"
         x="30.067825"
         y="200.96446"
         style="stroke-width:0.26458332" /></text>
    <rect
       style="display:inline;opacity:1;fill:#666666;fill-opacity:1;stroke:none;stroke-width:0.26499993;stroke-miterlimit:4;stroke-dasharray:none;stroke-dashoffset:0;stroke-opacity:0.94779142"
       id="rect5407-5"
       width="16.32"
       height="70.000031"
       x="1.9999999"
       y="215.5"
       rx="1.0000001"
       ry="1.000001" />
    <g
       transform="matrix(1.8133333,0,0,1,-66.628621,77.64139)"
       aria-label="out"
       style="font-style:normal;font-variant:normal;font-weight:normal;font-stretch:normal;font-size:3.52777767px;line-height:1.25;font-family:Steagisler;-inkscape-font-specification:Steagisler;font-variant-ligatures:normal;font-variant-caps:normal;font-variant-numeric:normal;font-feature-settings:normal;text-align:center;letter-spacing:0px;word-spacing:0px;writing-mode:lr-tb;text-anchor:middle;display:inline;fill:#f9f9f9;fill-opacity:1;stroke:none;stroke-width:0.19648239"
       id="text4639" />
    <g
       aria-label="adsynth."
       style="font-style:normal;font-variant:normal;font-weight:normal;font-stretch:normal;font-size:3.52777767px;line-height:1.25;font-family:Steagisler;-inkscape-font-specification:Steagisler;font-variant-ligatures:normal;font-variant-caps:normal;font-variant-numeric:normal;font-feature-settings:normal;text-align:start;letter-spacing:0px;word-spacing:0px;writing-mode:lr-tb;text-anchor:start;fill:#f2f2f2;fill-opacity:1;stroke:none;stroke-width:0.26458332"
       id="text5305"
       transform="translate(0.94332385,-6.99484)">
      <path
         d="M 4.4762234,184.17319 H 4.0697021 q -0.020671,-0.0465 -0.034451,-0.0965 -0.00345,-0.012 -0.015503,-0.0155 -0.00345,-0.002 -0.00517,-0.002 -0.00689,0 -0.01378,0.007 -0.1498616,0.15503 -0.4220242,0.15503 Q 3,184.22142 3,183.65298 q 0,-0.34107 0.3479546,-0.47026 0.1653646,-0.062 0.3410645,-0.062 0.1464165,0 0.3014458,0.0431 0.00345,0.002 0.00517,0.002 0.00689,0 0.012058,-0.005 0.00861,-0.005 0.00861,-0.0155 v -0.28078 q 0,-0.12574 -0.09474,-0.20154 -0.08785,-0.0689 -0.2153185,-0.0689 -0.1274685,0 -0.2153184,0.0689 -0.09474,0.0758 -0.09474,0.20154 v 0.0413 H 3.0206706 v -0.0568 q 0,-0.28422 0.2101508,-0.45303 0.1946479,-0.15675 0.4857584,-0.15675 0.2911106,0 0.4857585,0.15675 0.2084283,0.16881 0.2084283,0.45303 v 1.0542 q 0,0.12402 0.065457,0.27044 z m -0.4599203,-0.72003 q 0,-0.0138 -0.01378,-0.0189 -0.1205784,-0.0431 -0.2446018,-0.0431 -0.062012,0 -0.125746,0.0103 -0.235989,0.0396 -0.235989,0.23771 0,0.2291 0.3100585,0.2291 0.1274686,0 0.2153185,-0.0689 0.09474,-0.0758 0.09474,-0.19981 z"
         style="text-align:start;text-anchor:start;fill:#f2f2f2;fill-opacity:1;stroke-width:0.26458332"
         id="path5311"
         inkscape:connector-curvature="0" />
      <path
         d="M 6.3072915,184.17319 H 5.9024928 q -0.022393,-0.0448 -0.034451,-0.0947 -0.00345,-0.0103 -0.015503,-0.0138 -0.00345,-0.002 -0.00517,-0.002 -0.00689,0 -0.01378,0.007 -0.1515842,0.15159 -0.4220241,0.15159 -0.2824979,0 -0.4340821,-0.16364 -0.144694,-0.15848 -0.144694,-0.44614 v -0.76309 q 0,-0.28594 0.1550293,-0.44614 0.1567519,-0.16364 0.4409722,-0.16364 0.2342665,0 0.3858507,0.11368 0.00517,0.005 0.012058,0.005 0.00345,0 0.00861,-0.003 0.012058,-0.005 0.012058,-0.0172 v -0.80443 h 0.396186 v 2.37023 q 0,0.12402 0.063734,0.27044 z m -0.4599202,-1.30914 q 0,-0.12574 -0.09474,-0.20154 -0.086127,-0.0689 -0.2153185,-0.0689 -0.1274685,0 -0.2153184,0.0689 -0.093018,0.0758 -0.093018,0.20154 v 0.73381 q 0,0.12402 0.093018,0.19981 0.08785,0.0706 0.2153184,0.0706 0.1291911,0 0.2153185,-0.0706 0.09474,-0.0758 0.09474,-0.19981 z"
         style="text-align:start;text-anchor:start;fill:#f2f2f2;fill-opacity:1;stroke-width:0.26458332"
         id="path5313"
         inkscape:connector-curvature="0" />
      <path
         d="m 7.0083684,183.61508 q 0,0.12058 0.093018,0.18948 0.084405,0.0637 0.2084283,0.0637 0.1240234,0 0.2084283,-0.0637 0.093018,-0.0689 0.093018,-0.18948 0,-0.12574 -0.1550293,-0.17225 -0.1412489,-0.0413 -0.3341742,-0.0775 -0.2428792,-0.0586 -0.3669027,-0.20326 -0.1223008,-0.14641 -0.1223008,-0.36001 0,-0.27044 0.2084282,-0.42375 0.1877577,-0.1378 0.468533,-0.1378 0.2807753,0 0.468533,0.1378 0.2084282,0.15331 0.2084282,0.42375 v 0.10163 H 7.6112601 v -0.0603 q 0,-0.11886 -0.08785,-0.18776 -0.079237,-0.0637 -0.2032606,-0.0637 -0.1223009,0 -0.2032606,0.0637 -0.08785,0.0689 -0.08785,0.18776 0,0.12747 0.1550293,0.16881 0.1963705,0.0517 0.3341743,0.0758 0.2256537,0.0482 0.3565673,0.17398 0.1326362,0.12402 0.1326362,0.36346 0,0.30317 -0.2153185,0.45819 -0.1912027,0.13781 -0.471978,0.13781 -0.2807753,0 -0.4719781,-0.13781 -0.2153184,-0.15502 -0.2153184,-0.42374 v -0.10508 h 0.3755153 z"
         style="text-align:start;text-anchor:start;fill:#f2f2f2;fill-opacity:1;stroke-width:0.26458332"
         id="path5315"
         inkscape:connector-curvature="0" />
      <path
         d="M 8.898003,184.04055 H 8.7033551 l -0.4805908,-1.76217 h 0.3892958 l 0.3376194,1.3746 q 0.00345,0.0172 0.018948,0.0172 0.017226,0 0.020671,-0.0172 l 0.2824978,-1.3746 h 0.3892958 l -0.6097819,2.71646 H 8.662014 Z"
         style="text-align:start;text-anchor:start;fill:#f2f2f2;fill-opacity:1;stroke-width:0.26458332"
         id="path5317"
         inkscape:connector-curvature="0" />
      <path
         d="m 10.319105,182.41102 q 0.0034,0.0155 0.02239,0.0155 0.0086,0 0.0155,-0.009 0.156752,-0.17914 0.454753,-0.17914 0.28422,0 0.440972,0.16192 0.155029,0.16192 0.155029,0.44786 v 1.32464 h -0.396186 v -1.30914 q 0,-0.12574 -0.09302,-0.20154 -0.08785,-0.0706 -0.215319,-0.0706 -0.129191,0 -0.215318,0.0706 -0.09474,0.0758 -0.09474,0.20154 v 1.30914 H 9.9969887 v -1.89481 h 0.2911103 z"
         style="text-align:start;text-anchor:start;fill:#f2f2f2;fill-opacity:1;stroke-width:0.26458332"
         id="path5319"
         inkscape:connector-curvature="0" />
      <path
         d="m 11.647189,182.27838 h 0.227376 q 0.02067,0 0.02067,-0.0207 v -0.49609 h 0.396186 v 0.49609 q 0,0.0207 0.02067,0.0207 h 0.366902 v 0.30145 h -0.366902 q -0.02067,0 -0.02067,0.0207 v 1.03008 q 0.01206,0.25839 0.192925,0.25839 0.08613,0 0.194648,-0.0207 v 0.30489 q -0.132636,0.0482 -0.266995,0.0482 -0.502984,-0.002 -0.516764,-0.55811 v -1.06281 q 0,-0.0207 -0.02067,-0.0207 h -0.227376 z"
         style="text-align:start;text-anchor:start;fill:#f2f2f2;fill-opacity:1;stroke-width:0.26458332"
         id="path5321"
         inkscape:connector-curvature="0" />
      <path
         d="m 13.517876,181.53252 v 0.80443 q 0,0.0121 0.01206,0.0172 0.0052,0.003 0.0086,0.003 0.0069,0 0.01206,-0.005 0.151584,-0.11368 0.38585,-0.11368 0.284221,0 0.440973,0.16192 0.155029,0.16192 0.155029,0.44786 v 1.32464 h -0.396186 v -1.30914 q 0,-0.12574 -0.09302,-0.20154 -0.08785,-0.0706 -0.215318,-0.0706 -0.129191,0 -0.215318,0.0706 -0.09474,0.0758 -0.09474,0.20154 v 1.30914 H 13.12169 v -2.64067 z"
         style="text-align:start;text-anchor:start;fill:#f2f2f2;fill-opacity:1;stroke-width:0.26458332"
         id="path5323"
         inkscape:connector-curvature="0" />
      <path
         d="m 15.181857,183.72016 q 0.105076,0 0.179145,0.0741 0.07235,0.0741 0.07235,0.17742 0,0.10335 -0.07235,0.17742 -0.07407,0.0741 -0.179145,0.0741 -0.103353,0 -0.177422,-0.0741 -0.07235,-0.0741 -0.07235,-0.17742 0,-0.10335 0.07235,-0.17742 0.07407,-0.0741 0.177422,-0.0741 z"
         style="text-align:start;text-anchor:start;fill:#f2f2f2;fill-opacity:1;stroke-width:0.26458332"
         id="path5325"
         inkscape:connector-curvature="0" />
    </g>
    <rect
       style="display:inline;opacity:0.98000004;fill:#f2f2f2;fill-opacity:1;stroke:none;stroke-width:0.26499999;stroke-miterlimit:4;stroke-dasharray:none;stroke-dashoffset:0;stroke-opacity:0.94779142"
       id="rect5407-4"
       width="16.320002"
       height="32.5"
       x="1.9999998"
       y="181"
       rx="1.0000006"
       ry="1.0000005" />
    <g
       aria-label="logic"
       style="font-style:normal;font-variant:normal;font-weight:normal;font-stretch:normal;font-size:3.52777767px;line-height:1.25;font-family:Steagisler;-inkscape-font-specification:Steagisler;font-variant-ligatures:normal;font-variant-caps:normal;font-variant-numeric:normal;font-feature-settings:normal;text-align:center;letter-spacing:0px;word-spacing:0px;writing-mode:lr-tb;text-anchor:middle;fill:#eeeeee;fill-opacity:1;stroke:none;stroke-width:0.26458332"
       id="text6220"
       transform="translate(0,0.08204)">
      <path
         d="M 7.2420041,291.11383 H 6.8354828 q -0.055122,-0.11541 -0.055122,-0.25666 v -2.38401 h 0.3961859 v 2.37023 q 0,0.12402 0.065457,0.27044 z"
         style="fill:#eeeeee;fill-opacity:1;stroke-width:0.26458332"
         id="path6286"
         inkscape:connector-curvature="0" />
      <path
         d="m 7.600294,289.78919 q 0,-0.28422 0.2153185,-0.45303 0.1980929,-0.15675 0.4892035,-0.15675 0.2928331,0 0.4909261,0.15675 0.2153185,0.16881 0.2153185,0.45303 v 0.76309 q 0,0.28422 -0.2153185,0.45475 -0.198093,0.15503 -0.4909261,0.15503 -0.2911106,0 -0.4892035,-0.15503 Q 7.600294,290.8365 7.600294,290.55228 Z m 1.0145806,0.0155 q 0,-0.12574 -0.09474,-0.20153 -0.08785,-0.0689 -0.2153185,-0.0689 -0.1274685,0 -0.2153185,0.0689 -0.093018,0.0758 -0.093018,0.20153 v 0.73381 q 0,0.12402 0.093018,0.19982 0.08785,0.0706 0.2153185,0.0706 0.1274685,0 0.2153185,-0.0706 0.09474,-0.0758 0.09474,-0.19982 z"
         style="fill:#eeeeee;fill-opacity:1;stroke-width:0.26458332"
         id="path6288"
         inkscape:connector-curvature="0" />
      <path
         d="m 10.08593,291.56514 q 0.125746,-0.003 0.210151,-0.0741 0.08957,-0.0741 0.08957,-0.19637 v -0.33934 q 0,-0.0138 -0.01206,-0.0189 -0.0052,-0.002 -0.0086,-0.002 -0.0069,0 -0.01378,0.005 -0.14814,0.13264 -0.401354,0.13264 -0.2824978,0 -0.4323595,-0.16364 -0.1464165,-0.15848 -0.1464165,-0.44614 v -0.67352 q 0,-0.28594 0.1550292,-0.44614 0.1567519,-0.16364 0.4409723,-0.16364 0.2997235,0 0.4581975,0.18087 0.0069,0.007 0.0155,0.007 0.0155,0 0.01895,-0.0155 l 0.03101,-0.13263 h 0.291111 v 2.08945 q 0,0.28422 -0.210151,0.45475 -0.194648,0.15503 -0.485759,0.15503 H 9.5140444 v -0.35312 z m 0.299724,-1.76045 q 0,-0.12574 -0.09474,-0.20153 -0.08613,-0.0689 -0.215318,-0.0689 -0.1274686,0 -0.2153185,0.0689 -0.093018,0.0758 -0.093018,0.20153 v 0.64424 q 0,0.12402 0.093018,0.19981 0.08785,0.0706 0.2153185,0.0706 0.129191,0 0.215318,-0.0706 0.09474,-0.0758 0.09474,-0.19981 z"
         style="fill:#eeeeee;fill-opacity:1;stroke-width:0.26458332"
         id="path6290"
         inkscape:connector-curvature="0" />
      <path
         d="m 11.572489,288.47316 q 0.105075,0 0.177422,0.0723 0.07407,0.0741 0.07407,0.17742 0,0.10508 -0.07407,0.17915 -0.07235,0.0723 -0.177422,0.0723 -0.103353,0 -0.177422,-0.0723 -0.07407,-0.0741 -0.07407,-0.17915 0,-0.10335 0.07407,-0.17742 0.07407,-0.0723 0.177422,-0.0723 z m 0.198093,2.64067 h -0.396186 v -1.57269 q 0,-0.0207 -0.02067,-0.0207 H 11.1608 V 289.219 h 0.609782 z"
         style="fill:#eeeeee;fill-opacity:1;stroke-width:0.26458332"
         id="path6292"
         inkscape:connector-curvature="0" />
      <path
         d="m 13.696391,290.55228 q 0,0.28422 -0.215319,0.45475 -0.198093,0.15503 -0.490926,0.15503 -0.291111,0 -0.489204,-0.15503 -0.215318,-0.17053 -0.215318,-0.45475 v -0.76309 q 0,-0.28422 0.215318,-0.45303 0.198093,-0.15675 0.489204,-0.15675 0.291111,0 0.480591,0.15675 0.204983,0.16881 0.204983,0.45303 v 0.0568 h -0.375515 v -0.0414 q 0,-0.12574 -0.09474,-0.20153 -0.08785,-0.0689 -0.215318,-0.0689 -0.127469,0 -0.215318,0.0689 -0.09474,0.0758 -0.09474,0.20153 v 0.73381 q 0,0.12402 0.09474,0.19982 0.08785,0.0706 0.215318,0.0706 0.129191,0 0.223931,-0.0689 0.105076,-0.0775 0.105076,-0.20154 v -0.0413 h 0.377238 z"
         style="fill:#eeeeee;fill-opacity:1;stroke-width:0.26458332"
         id="path6294"
         inkscape:connector-curvature="0" />
    </g>
    <g
       aria-label="&amp;"
       style="font-style:normal;font-variant:normal;font-weight:normal;font-stretch:normal;font-size:3.52777767px;line-height:1.25;font-family:Steagisler;-inkscape-font-specification:Steagisler;font-variant-ligatures:normal;font-variant-caps:normal;font-variant-numeric:normal;font-feature-settings:normal;text-align:start;letter-spacing:0px;word-spacing:0px;writing-mode:lr-tb;text-anchor:start;fill:#eeeeee;fill-opacity:1;stroke:none;stroke-width:0.26458332"
       id="text6238"
       transform="translate(12.789,0.04990969)">
      <path
         d="m 3.5951958,230.49005 q -0.025838,-0.0551 -0.039619,-0.11885 -0.00345,-0.0121 -0.015503,-0.0155 h -0.00345 q -0.010335,0 -0.017226,0.007 -0.144694,0.17743 -0.4375271,0.17743 -0.2842204,0 -0.4306369,-0.16537 Q 2.51343,230.21629 2.51343,229.92518 v -0.26872 q 0,-0.30317 0.2532145,-0.4427 0.010335,-0.005 0.010335,-0.0172 0,-0.0121 -0.012058,-0.0189 -0.2514919,-0.13264 -0.2514919,-0.43408 v -0.32556 q 0,-0.28595 0.2187635,-0.4582 0.1998155,-0.15675 0.4960937,-0.15675 0.2928332,0 0.4857585,0.15847 0.2084283,0.17053 0.2084283,0.45648 v 0.17742 H 3.5211263 v -0.16192 q 0,-0.12575 -0.084405,-0.20154 -0.08096,-0.0724 -0.2084283,-0.0724 -0.129191,0 -0.2187635,0.0706 -0.09474,0.0775 -0.09474,0.20326 v 0.23254 q 0,0.14986 0.079237,0.25322 0.08785,0.11196 0.2342664,0.11196 h 0.8199328 q 0.1067979,0 0.2101508,-0.0568 v 0.28766 q -0.056844,0.0465 -0.1756999,0.0465 H 3.9620985 q -0.020671,0 -0.020671,0.0207 v 0.88884 q 0,0.14814 0.089573,0.27216 z m -0.055121,-1.161 q 0,-0.0207 -0.020671,-0.0207 H 3.2282931 q -0.1464165,0 -0.2342664,0.11197 -0.079237,0.10335 -0.079237,0.25494 v 0.23426 q 0,0.12747 0.09474,0.20326 0.089573,0.0706 0.2187635,0.0706 0.1274686,0 0.2153185,-0.0689 0.09474,-0.0758 0.096463,-0.20154 z"
         style="fill:#eeeeee;fill-opacity:1;stroke-width:0.26458332"
         id="path6270"
         inkscape:connector-curvature="0" />
    </g>
    <g
       aria-label="!&amp;"
       style="font-style:normal;font-variant:normal;font-weight:normal;font-stretch:normal;font-size:3.52777767px;line-height:1.25;font-family:Steagisler;-inkscape-font-specification:Steagisler;font-variant-ligatures:normal;font-variant-caps:normal;font-variant-numeric:normal;font-feature-settings:normal;text-align:start;letter-spacing:0px;word-spacing:0px;writing-mode:lr-tb;text-anchor:start;fill:#eeeeee;fill-opacity:1;stroke:none;stroke-width:0.26458332"
       id="text6242"
       transform="translate(11.717231,0.04979)">
      <path
         d="M 2.9513075,246.85318 H 2.5499539 v -1.96026 h 0.4013536 z m -0.2015381,0.22737 q 0.1050754,0 0.179145,0.0741 0.072347,0.0741 0.072347,0.17743 0,0.10335 -0.072347,0.17742 -0.07407,0.0741 -0.179145,0.0741 -0.1033528,0 -0.1774224,-0.0741 Q 2.5,247.4354 2.5,247.33205 q 0,-0.10336 0.072347,-0.17743 0.07407,-0.0741 0.1774224,-0.0741 z"
         style="fill:#eeeeee;fill-opacity:1;stroke-width:0.26458332"
         id="path6273"
         inkscape:connector-curvature="0" />
      <path
         d="m 4.666965,247.53358 q -0.025838,-0.0551 -0.039619,-0.11885 -0.00345,-0.0121 -0.015503,-0.0155 h -0.00345 q -0.010335,0 -0.017225,0.007 -0.144694,0.17742 -0.4375271,0.17742 -0.2842203,0 -0.4306369,-0.16537 -0.1378038,-0.15847 -0.1378038,-0.44958 v -0.26872 q 0,-0.30317 0.2532145,-0.44269 0.010335,-0.005 0.010335,-0.0172 0,-0.0121 -0.012058,-0.0189 -0.251492,-0.13263 -0.251492,-0.43408 v -0.32556 q 0,-0.28594 0.2187636,-0.4582 0.1998155,-0.15675 0.4960937,-0.15675 0.2928331,0 0.4857584,0.15847 0.2084283,0.17054 0.2084283,0.45648 v 0.17742 H 4.5928955 v -0.16192 q 0,-0.12574 -0.084405,-0.20154 -0.08096,-0.0723 -0.2084283,-0.0723 -0.1291911,0 -0.2187636,0.0706 -0.09474,0.0775 -0.09474,0.20326 v 0.23255 q 0,0.14986 0.079237,0.25321 0.08785,0.11197 0.2342665,0.11197 h 0.8199327 q 0.1067979,0 0.2101508,-0.0568 v 0.28767 q -0.056844,0.0465 -0.1756999,0.0465 h -0.120578 q -0.020671,0 -0.020671,0.0207 v 0.88883 q 0,0.14814 0.089573,0.27216 z m -0.055122,-1.16099 q 0,-0.0207 -0.020671,-0.0207 H 4.3000624 q -0.1464166,0 -0.2342665,0.11196 -0.079237,0.10336 -0.079237,0.25494 v 0.23427 q 0,0.12746 0.09474,0.20326 0.089573,0.0706 0.2187636,0.0706 0.1274685,0 0.2153184,-0.0689 0.09474,-0.0758 0.096463,-0.20154 z"
         style="fill:#eeeeee;fill-opacity:1;stroke-width:0.26458332"
         id="path6275"
         inkscape:connector-curvature="0" />
    </g>
    <g
       aria-label="u"
       style="font-style:normal;font-variant:normal;font-weight:normal;font-stretch:normal;font-size:3.52777767px;line-height:1.25;font-family:Steagisler;-inkscape-font-specification:Steagisler;font-variant-ligatures:normal;font-variant-caps:normal;font-variant-numeric:normal;font-feature-settings:normal;text-align:start;letter-spacing:0px;word-spacing:0px;writing-mode:lr-tb;text-anchor:start;fill:#eeeeee;fill-opacity:1;stroke:none;stroke-width:0.26458332"
       id="text6246"
       transform="translate(12.914037,0.04823034)">
      <path
         d="m 3.5838467,263.66074 q -0.00345,-0.0121 -0.015503,-0.0138 -0.00345,-0.002 -0.00689,-0.002 -0.00689,0 -0.012058,0.007 -0.1584744,0.18087 -0.4581977,0.18087 -0.2842204,0 -0.4409722,-0.16192 -0.1550293,-0.16192 -0.1550293,-0.44786 v -1.33325 h 0.3961859 v 1.31775 q 0,0.12574 0.093018,0.20153 0.08785,0.0706 0.2153185,0.0706 0.1291911,0 0.2153184,-0.0706 0.09474,-0.0758 0.09474,-0.20153 v -1.31775 h 0.3961859 v 1.8948 H 3.6148526 Z"
         style="fill:#eeeeee;fill-opacity:1;stroke-width:0.26458332"
         id="path6278"
         inkscape:connector-curvature="0" />
    </g>
    <g
       aria-label="!u"
       style="font-style:normal;font-variant:normal;font-weight:normal;font-stretch:normal;font-size:3.52777767px;line-height:1.25;font-family:Steagisler;-inkscape-font-specification:Steagisler;font-variant-ligatures:normal;font-variant-caps:normal;font-variant-numeric:normal;font-feature-settings:normal;text-align:start;letter-spacing:0px;word-spacing:0px;writing-mode:lr-tb;text-anchor:start;fill:#eeeeee;fill-opacity:1;stroke:none;stroke-width:0.26458332"
       id="text6250"
       transform="translate(11.948617,0.04822965)">
      <path
         d="M 2.933517,280.09965 H 2.5321633 v -1.96026 H 2.933517 Z m -0.2015381,0.22738 q 0.1050754,0 0.1791449,0.0741 0.072347,0.0741 0.072347,0.17742 0,0.10335 -0.072347,0.17742 -0.074069,0.0741 -0.1791449,0.0741 -0.1033529,0 -0.1774224,-0.0741 -0.072347,-0.0741 -0.072347,-0.17742 0,-0.10335 0.072347,-0.17742 0.07407,-0.0741 0.1774224,-0.0741 z"
         style="fill:#eeeeee;fill-opacity:1;stroke-width:0.26458332"
         id="path6281"
         inkscape:connector-curvature="0" />
      <path
         d="m 4.5492667,280.65604 q -0.00345,-0.0121 -0.015503,-0.0138 -0.00345,-0.002 -0.00689,-0.002 -0.00689,0 -0.012058,0.007 -0.1584744,0.18087 -0.4581977,0.18087 -0.2842204,0 -0.4409722,-0.16192 -0.1550293,-0.16192 -0.1550293,-0.44786 v -1.33325 h 0.396186 v 1.31775 q 0,0.12574 0.093018,0.20153 0.08785,0.0706 0.2153185,0.0706 0.1291911,0 0.2153184,-0.0706 0.09474,-0.0758 0.09474,-0.20153 v -1.31775 h 0.3961859 v 1.8948 H 4.5802726 Z"
         style="fill:#eeeeee;fill-opacity:1;stroke-width:0.26458332"
         id="path6283"
         inkscape:connector-curvature="0" />
    </g>
    <g
       aria-label="b"
       style="font-style:normal;font-variant:normal;font-weight:normal;font-stretch:normal;font-size:3.52777767px;line-height:1.25;font-family:Steagisler;-inkscape-font-specification:Steagisler;font-variant-ligatures:normal;font-variant-caps:normal;font-variant-numeric:normal;font-feature-settings:normal;text-align:start;letter-spacing:0px;word-spacing:0px;writing-mode:lr-tb;text-anchor:start;fill:#383838;fill-opacity:1;stroke:none;stroke-width:0.26458332"
       id="text6258"
       transform="translate(1.0583333)">
      <path
         d="m 2.8961859,210.3111 v 0.80443 q 0,0.0121 0.010335,0.0172 0.00517,0.003 0.010335,0.003 0.00689,0 0.012058,-0.005 0.1515842,-0.11368 0.3858507,-0.11368 0.2824978,0 0.4409722,0.16364 0.1550293,0.16019 0.1550293,0.44614 v 0.76309 q 0,0.28766 -0.1550293,0.44786 Q 3.5989853,213 3.314765,213 q -0.2997233,0 -0.4581977,-0.17915 -0.00517,-0.009 -0.01378,-0.009 -0.00172,0 -0.00517,0.002 -0.012058,0.003 -0.015503,0.0155 l -0.031006,0.1223 H 2.4999999 v -2.64067 z m 0,2.06534 q 0,0.12402 0.093018,0.19981 0.08785,0.0706 0.2153184,0.0706 0.1291911,0 0.2153185,-0.0706 0.09474,-0.0758 0.09474,-0.19981 v -0.73381 q 0,-0.12575 -0.09474,-0.20154 -0.086127,-0.0689 -0.2153185,-0.0689 -0.1274685,0 -0.2153184,0.0689 -0.093018,0.0758 -0.093018,0.20154 z"
         style="fill:#383838;fill-opacity:1;stroke-width:0.26458332"
         id="path6264"
         inkscape:connector-curvature="0" />
    </g>
    <g
       aria-label="a"
       style="font-style:normal;font-variant:normal;font-weight:normal;font-stretch:normal;font-size:3.52777767px;line-height:1.25;font-family:Steagisler;-inkscape-font-specification:Steagisler;font-variant-ligatures:normal;font-variant-caps:normal;font-variant-numeric:normal;font-feature-settings:normal;text-align:start;letter-spacing:0px;word-spacing:0px;writing-mode:lr-tb;text-anchor:start;fill:#383838;fill-opacity:1;stroke:none;stroke-width:0.26458332"
       id="text6262"
       transform="translate(1.0583333,1.5875)">
      <path
         d="M 3.9762234,194.53177 H 3.5697021 q -0.020671,-0.0465 -0.034451,-0.0965 -0.00345,-0.0121 -0.015503,-0.0155 -0.00345,-0.002 -0.00517,-0.002 -0.00689,0 -0.01378,0.007 Q 3.3509386,194.58 3.078776,194.58 2.5,194.58 2.5,194.01156 q 0,-0.34107 0.3479546,-0.47026 0.1653646,-0.062 0.3410645,-0.062 0.1464165,0 0.3014458,0.0431 0.00345,0.002 0.00517,0.002 0.00689,0 0.012058,-0.005 0.00861,-0.005 0.00861,-0.0155 v -0.28078 q 0,-0.12574 -0.09474,-0.20154 -0.08785,-0.0689 -0.2153185,-0.0689 -0.1274685,0 -0.2153184,0.0689 -0.09474,0.0758 -0.09474,0.20154 v 0.0413 H 2.5206706 v -0.0568 q 0,-0.28422 0.2101508,-0.45303 0.1946479,-0.15675 0.4857584,-0.15675 0.2911106,0 0.4857585,0.15675 0.2084283,0.16881 0.2084283,0.45303 v 1.0542 q 0,0.12402 0.065457,0.27044 z m -0.4599203,-0.72003 q 0,-0.0138 -0.01378,-0.0189 -0.1205784,-0.0431 -0.2446018,-0.0431 -0.062012,0 -0.125746,0.0103 -0.235989,0.0396 -0.235989,0.23771 0,0.2291 0.3100585,0.2291 0.1274686,0 0.2153185,-0.0689 0.09474,-0.0758 0.09474,-0.19982 z"
         style="fill:#383838;fill-opacity:1;stroke-width:0.26458332"
         id="path6267"
         inkscape:connector-curvature="0" />
    </g>
    <path
       style="fill:none;stroke:#383838;stroke-width:0.26458332px;stroke-linecap:butt;stroke-linejoin:miter;stroke-opacity:1"
       d="m 15.019457,233.45948 v -2.33549 h 1.139085 v 2.20311 H 16.82 16.158542"
       id="path6361"
       inkscape:connector-curvature="0"
       sodipodi:nodetypes="cccccc" />
    <path
       style="fill:none;stroke:#383838;stroke-width:0.26458332px;stroke-linecap:butt;stroke-linejoin:miter;stroke-opacity:1"
       d="m 15.015918,266.63949 c 2.192449,-4.88524 0.4927,1.03776 1.67533,-0.67979"
       id="path6365"
       inkscape:connector-curvature="0"
       sodipodi:nodetypes="cc" />
    <path
       style="display:inline;fill:none;stroke:#383838;stroke-width:0.26458332px;stroke-linecap:butt;stroke-linejoin:miter;stroke-opacity:1"
       d="m 15.015918,283.63479 c 2.192449,-4.88524 0.4927,1.03776 1.67533,-0.67979"
       id="path6365-2"
       inkscape:connector-curvature="0"
       sodipodi:nodetypes="cc" />
    <path
       style="display:inline;fill:none;stroke:#383838;stroke-width:0.26458332px;stroke-linecap:butt;stroke-linejoin:miter;stroke-opacity:1"
       d="m 15.019457,250.50288 v -2.33549 h 1.139085 v 2.20311 H 16.82 16.158542"
       id="path6361-2"
       inkscape:connector-curvature="0"
       sodipodi:nodetypes="cccccc" />
  </g>
  <g
     inkscape:groupmode="layer"
     id="layer2"
     inkscape:label="components"
     style="display:none">
    <circle
       style="display:inline;opacity:1;fill:#0000ff;fill-opacity:1;stroke:none;stroke-width:0.39999998;stroke-linecap:butt;stroke-miterlimit:4;stroke-dasharray:none;stroke-dashoffset:0;stroke-opacity:1;paint-order:normal"
       id="path4623"
       cx="10.160001"
       cy="106.96"
       inkscape:label="NOR"
       r="2.5400002" />
    <circle
       style="display:inline;opacity:1;fill:#00ff00;fill-opacity:1;stroke:none;stroke-width:0.39999998;stroke-linecap:butt;stroke-miterlimit:4;stroke-dasharray:none;stroke-dashoffset:0;stroke-opacity:1;paint-order:normal"
       id="path4623-5"
       cx="10.160001"
       cy="21.127506"
       inkscape:label="INA"
       r="2.5400004" />
    <circle
       style="display:inline;opacity:1;fill:#00ff00;fill-opacity:1;stroke:none;stroke-width:0.39999998;stroke-linecap:butt;stroke-miterlimit:4;stroke-dasharray:none;stroke-dashoffset:0;stroke-opacity:1;paint-order:normal"
       id="path4623-5-7"
       cx="10.160001"
       cy="36.236504"
       inkscape:label="INB"
       r="2.5400004"
       inkscape:transform-center-x="-4.2522322"
       inkscape:transform-center-y="-1.8898782" />
    <circle
       style="display:inline;opacity:1;fill:#0000ff;fill-opacity:1;stroke:none;stroke-width:0.39999998;stroke-linecap:butt;stroke-miterlimit:4;stroke-dasharray:none;stroke-dashoffset:0;stroke-opacity:1;paint-order:normal"
       id="path4623-5-7-5"
       cx="10.160001"
       cy="58.040001"
       inkscape:label="AND"
       r="2.5400004"
       inkscape:transform-center-x="-4.2522322"
       inkscape:transform-center-y="-1.8898782" />
    <circle
       style="display:inline;opacity:1;fill:#0000ff;fill-opacity:1;stroke:none;stroke-width:0.39999998;stroke-linecap:butt;stroke-miterlimit:4;stroke-dasharray:none;stroke-dashoffset:0;stroke-opacity:1;paint-order:normal"
       id="path4623-5-7-2"
       cx="10.160001"
       cy="74.346664"
       inkscape:label="NAND"
       r="2.5400004"
       inkscape:transform-center-x="-4.2522322"
       inkscape:transform-center-y="-1.8898782" />
    <circle
       style="display:inline;opacity:1;fill:#0000ff;fill-opacity:1;stroke:none;stroke-width:0.39999998;stroke-linecap:butt;stroke-miterlimit:4;stroke-dasharray:none;stroke-dashoffset:0;stroke-opacity:1;paint-order:normal"
       id="path4623-5-7-2-5"
       cx="10.160001"
       cy="90.653336"
       inkscape:label="OR"
       r="2.5400004"
       inkscape:transform-center-x="-4.2522322"
       inkscape:transform-center-y="-1.8898782" />
  </g>
</svg>
