<?xml version="1.0" encoding="UTF-8" standalone="no"?>
<!-- Created with Inkscape (http://www.inkscape.org/) -->

<svg
   xmlns:dc="http://purl.org/dc/elements/1.1/"
   xmlns:cc="http://creativecommons.org/ns#"
   xmlns:rdf="http://www.w3.org/1999/02/22-rdf-syntax-ns#"
   xmlns:svg="http://www.w3.org/2000/svg"
   xmlns="http://www.w3.org/2000/svg"
   xmlns:sodipodi="http://sodipodi.sourceforge.net/DTD/sodipodi-0.dtd"
   xmlns:inkscape="http://www.inkscape.org/namespaces/inkscape"
   width="20.32mm"
   height="128.5mm"
   viewBox="0 0 20.32 128.5"
   version="1.1"
   id="svg8"
   inkscape:version="0.92.1 r15371"
   sodipodi:docname="Logic.svg">
  <defs
     id="defs2">
    <inkscape:path-effect
       effect="simplify"
       id="path-effect5498"
       is_visible="true"
       steps="1"
       threshold="0.000408163"
       smooth_angles="360"
       helper_size="0"
       simplify_individual_paths="false"
       simplify_just_coalesce="false"
       simplifyindividualpaths="false"
       simplifyJustCoalesce="false" />
    <inkscape:path-effect
       effect="simplify"
       id="path-effect5494"
       is_visible="true"
       steps="1"
       threshold="0.000408163"
       smooth_angles="360"
       helper_size="0"
       simplify_individual_paths="false"
       simplify_just_coalesce="false"
       simplifyindividualpaths="false"
       simplifyJustCoalesce="false" />
  </defs>
  <sodipodi:namedview
     id="base"
     pagecolor="#262626"
     bordercolor="#666666"
     borderopacity="1.0"
     inkscape:pageopacity="0"
     inkscape:pageshadow="2"
     inkscape:zoom="256"
     inkscape:cx="41.419993"
     inkscape:cy="19.26196"
     inkscape:document-units="mm"
     inkscape:current-layer="layer1"
     showgrid="false"
     inkscape:window-width="1857"
     inkscape:window-height="1057"
     inkscape:window-x="-8"
     inkscape:window-y="-8"
     inkscape:window-maximized="1"
     showguides="true"
     inkscape:snap-grids="false"
     inkscape:guide-bbox="true"
     inkscape:snap-bbox="true"
     inkscape:bbox-paths="true"
     inkscape:snap-bbox-edge-midpoints="true"
     inkscape:bbox-nodes="true"
     inkscape:snap-bbox-midpoints="true">
    <inkscape:grid
       type="xygrid"
       id="grid31" />
    <sodipodi:guide
       position="0,0"
       orientation="0,192"
       id="guide4607"
       inkscape:locked="false" />
    <sodipodi:guide
       position="50.799999,128.5"
       orientation="0,-192"
       id="guide4611"
       inkscape:locked="false" />
    <sodipodi:guide
       position="0,128.5"
       orientation="485.66929,0"
       id="guide4613"
       inkscape:locked="false" />
    <sodipodi:guide
       position="1,118.65625"
       orientation="1,0"
       id="guide4615"
       inkscape:locked="false"
       inkscape:label=""
       inkscape:color="rgb(0,0,255)" />
    <sodipodi:guide
       position="19.320001,113.45592"
       orientation="1,0"
       id="guide4617"
       inkscape:locked="false"
       inkscape:label=""
       inkscape:color="rgb(0,0,255)" />
    <sodipodi:guide
       position="10.160001,116"
       orientation="0,1"
       id="guide4776"
       inkscape:locked="false" />
    <sodipodi:guide
       position="10.16,11.5"
       orientation="0,1"
       id="guide4782"
       inkscape:locked="false" />
    <sodipodi:guide
       position="10.165169,5.0000002"
       orientation="0,1"
       id="guide4864"
       inkscape:locked="false"
       inkscape:label=""
       inkscape:color="rgb(0,0,255)" />
    <sodipodi:guide
       position="10.16,10"
       orientation="0,1"
       id="guide4902"
       inkscape:locked="false" />
    <sodipodi:guide
       position="12.805832,89.500004"
       orientation="0,1"
       id="guide6210"
       inkscape:locked="false"
       inkscape:label=""
       inkscape:color="rgb(0,0,255)" />
    <sodipodi:guide
       position="28.381519,88.500004"
       orientation="0,1"
       id="guide6214"
       inkscape:locked="false"
       inkscape:label=""
       inkscape:color="rgb(0,0,255)" />
    <sodipodi:guide
       position="72.786715,80.000003"
       orientation="0,1"
       id="guide6388"
       inkscape:locked="false"
       inkscape:label=""
       inkscape:color="rgb(0,0,255)" />
    <sodipodi:guide
       position="64.699302,68.000003"
       orientation="0,1"
       id="guide6390"
       inkscape:locked="false"
       inkscape:label=""
       inkscape:color="rgb(0,0,255)" />
    <sodipodi:guide
       position="58.259324,56.000002"
       orientation="0,1"
       id="guide6392"
       inkscape:locked="false"
       inkscape:label=""
       inkscape:color="rgb(0,0,255)" />
    <sodipodi:guide
       position="69.19231,44.000002"
       orientation="0,1"
       id="guide6394"
       inkscape:locked="false"
       inkscape:label=""
       inkscape:color="rgb(0,0,255)" />
    <sodipodi:guide
       position="58.858393,31.500001"
       orientation="0,1"
       id="guide6398"
       inkscape:locked="false"
       inkscape:label=""
       inkscape:color="rgb(0,0,255)" />
    <sodipodi:guide
       position="55.11422,19.500001"
       orientation="0,1"
       id="guide6400"
       inkscape:locked="false"
       inkscape:label=""
       inkscape:color="rgb(0,0,255)" />
    <sodipodi:guide
       position="10.16,10.16"
       orientation="1,0"
       id="guide6402"
       inkscape:locked="false"
       inkscape:label=""
       inkscape:color="rgb(0,0,255)" />
    <sodipodi:guide
       position="5.0800002,81.84761"
       orientation="1,0"
       id="guide6404"
       inkscape:locked="false"
       inkscape:label=""
       inkscape:color="rgb(0,0,255)" />
    <sodipodi:guide
       position="10.16,96.000004"
       orientation="0,1"
       id="guide6430"
       inkscape:locked="false"
       inkscape:label=""
       inkscape:color="rgb(0,0,255)" />
    <sodipodi:guide
       position="15.240001,110.87855"
       orientation="1,0"
       id="guide6432"
       inkscape:locked="false"
       inkscape:label=""
       inkscape:color="rgb(0,0,255)" />
    <sodipodi:guide
       position="39.837996,94.500004"
       orientation="0,1"
       id="guide6501"
       inkscape:locked="false"
       inkscape:label=""
       inkscape:color="rgb(0,0,255)" />
    <sodipodi:guide
       position="28.169717,10.5"
       orientation="0,1"
       id="guide6503"
       inkscape:locked="false"
       inkscape:label=""
       inkscape:color="rgb(0,0,255)" />
    <sodipodi:guide
       position="29.652334,110.5"
       orientation="0,1"
       id="guide6505"
       inkscape:locked="false"
       inkscape:label=""
       inkscape:color="rgb(0,0,255)" />
    <sodipodi:guide
       position="28.487421,100.5"
       orientation="0,1"
       id="guide6507"
       inkscape:locked="false"
       inkscape:label=""
       inkscape:color="rgb(0,0,255)" />
    <sodipodi:guide
       position="28.297405,120"
       orientation="0,1"
       id="guide8304"
       inkscape:locked="false"
       inkscape:label=""
       inkscape:color="rgb(0,0,255)" />
  </sodipodi:namedview>
  <metadata
     id="metadata5">
    <rdf:RDF>
      <cc:Work
         rdf:about="">
        <dc:format>image/svg+xml</dc:format>
        <dc:type
           rdf:resource="http://purl.org/dc/dcmitype/StillImage" />
        <dc:title />
      </cc:Work>
    </rdf:RDF>
  </metadata>
  <g
     inkscape:label="panel"
     inkscape:groupmode="layer"
     id="layer1"
     transform="translate(0,-168.5)"
     style="display:inline">
    <rect
       style="opacity:1;fill:#e6e6e6;stroke-width:0.26458332"
       id="rect39"
       width="20.32"
       height="128.5"
       x="-5.5511152e-018"
       y="168.5" />
    <rect
       style="display:inline;opacity:1;fill:#f2f2f2;fill-opacity:1;stroke:none;stroke-width:0.26499999;stroke-miterlimit:4;stroke-dasharray:none;stroke-dashoffset:0;stroke-opacity:0.94779142"
       id="rect5407-4"
       width="18.32"
       height="26.5"
       x="1.000001"
       y="181"
       rx="1.0000006"
       ry="1.0000005" />
    <text
       xml:space="preserve"
       style="font-style:normal;font-weight:normal;font-size:4.93888855px;line-height:1.25;font-family:sans-serif;letter-spacing:0px;word-spacing:0px;fill:#000000;fill-opacity:1;stroke:none;stroke-width:0.26458332"
       x="6.1471992"
       y="177.26324"
       id="text3713"><tspan
         sodipodi:role="line"
         id="tspan3711"
         x="6.1471992"
         y="181.76915"
         style="stroke-width:0.26458332" /></text>
    <g
       aria-label="a"
       style="font-style:normal;font-variant:normal;font-weight:normal;font-stretch:normal;font-size:14.11111069px;line-height:1.25;font-family:'Opus Special Extra Std';-inkscape-font-specification:'Opus Special Extra Std';letter-spacing:0px;word-spacing:0px;fill:#ffcc00;fill-opacity:1;stroke:none;stroke-width:0.26458332"
       id="text3719" />
    <rect
       style="opacity:1;fill:#383838;fill-opacity:1;stroke:none;stroke-width:0.26499999;stroke-miterlimit:4;stroke-dasharray:none;stroke-dashoffset:0;stroke-opacity:1"
       id="rect3797"
       width="20.32"
       height="10"
       x="2.744981e-016"
       y="168.5" />
    <rect
       style="display:inline;opacity:1;fill:#383838;fill-opacity:1;stroke-width:0.26458332"
       id="rect3797-4"
       width="20.32"
       height="10"
       x="0"
       y="287" />
    <text
       xml:space="preserve"
       style="font-style:normal;font-variant:normal;font-weight:normal;font-stretch:normal;font-size:4.93888855px;line-height:1.25;font-family:'ornaments labels and frames';-inkscape-font-specification:'ornaments labels and frames, Normal';font-variant-ligatures:normal;font-variant-caps:normal;font-variant-numeric:normal;text-align:center;letter-spacing:0px;word-spacing:0px;writing-mode:lr-tb;text-anchor:middle;display:inline;fill:#000000;fill-opacity:1;stroke:none;stroke-width:0.26458332"
       x="30.067825"
       y="196.50633"
       id="text3786"><tspan
         sodipodi:role="line"
         id="tspan3784"
         x="30.067825"
         y="200.96446"
         style="stroke-width:0.26458332" /></text>
    <rect
       style="display:inline;opacity:1;fill:#666666;fill-opacity:1;stroke:none;stroke-width:0.26499993;stroke-miterlimit:4;stroke-dasharray:none;stroke-dashoffset:0;stroke-opacity:0.94779142"
       id="rect5407-5"
       width="18.319998"
       height="76.999985"
       x="1.000002"
       y="208.5"
       rx="1.0000001"
       ry="1.000001" />
    <g
       transform="matrix(1.8133333,0,0,1,-66.628621,77.64139)"
       aria-label="out"
       style="font-style:normal;font-variant:normal;font-weight:normal;font-stretch:normal;font-size:3.52777767px;line-height:1.25;font-family:Steagisler;-inkscape-font-specification:Steagisler;font-variant-ligatures:normal;font-variant-caps:normal;font-variant-numeric:normal;font-feature-settings:normal;text-align:center;letter-spacing:0px;word-spacing:0px;writing-mode:lr-tb;text-anchor:middle;display:inline;fill:#f9f9f9;fill-opacity:1;stroke:none;stroke-width:0.19648239"
       id="text4639" />
    <g
       id="g8302"
       transform="translate(0,114.82196)">
      <path
         d="M 9.8413269,177.04571 H 9.646679 L 9.1660882,175.28354 H 9.555384 l 0.3376193,1.3746 q 0.00345,0.0172 0.018948,0.0172 0.017226,0 0.020671,-0.0172 l 0.2824977,-1.3746 h 0.389296 L 9.994634,178 H 9.6053379 Z"
         style="font-style:normal;font-variant:normal;font-weight:normal;font-stretch:normal;font-size:medium;line-height:1.25;font-family:Steagisler;-inkscape-font-specification:Steagisler;font-variant-ligatures:normal;font-variant-caps:normal;font-variant-numeric:normal;font-feature-settings:normal;text-align:start;letter-spacing:0px;word-spacing:0px;writing-mode:lr-tb;text-anchor:start;fill:#f2f2f2;fill-opacity:1;stroke:none;stroke-width:0.26458332"
         id="path5317"
         inkscape:connector-curvature="0" />
      <g
         id="g8292">
        <path
           inkscape:connector-curvature="0"
           id="path5311"
           style="font-style:normal;font-variant:normal;font-weight:normal;font-stretch:normal;font-size:medium;line-height:1.25;font-family:Steagisler;-inkscape-font-specification:Steagisler;font-variant-ligatures:normal;font-variant-caps:normal;font-variant-numeric:normal;font-feature-settings:normal;text-align:start;letter-spacing:0px;word-spacing:0px;writing-mode:lr-tb;text-anchor:start;fill:#f2f2f2;fill-opacity:1;stroke:none;stroke-width:0.26458332"
           d="M 5.4195472,177.17835 H 5.0130259 q -0.020671,-0.0465 -0.034451,-0.0965 -0.00345,-0.012 -0.015503,-0.0155 -0.00345,-0.002 -0.00517,-0.002 -0.00689,0 -0.01378,0.007 -0.1498616,0.15503 -0.4220242,0.15503 -0.5787739,2e-4 -0.5787739,-0.56824 0,-0.34107 0.3479545,-0.47026 0.1653646,-0.062 0.3410645,-0.062 0.1464165,0 0.3014458,0.0431 0.00345,0.002 0.00517,0.002 0.00689,0 0.012058,-0.005 0.00861,-0.005 0.00861,-0.0155 v -0.28078 q 0,-0.12574 -0.09474,-0.20154 -0.08785,-0.0689 -0.2153184,-0.0689 -0.1274685,0 -0.2153184,0.0689 -0.09474,0.0758 -0.09474,0.20154 v 0.0413 H 3.9639945 v -0.0568 q 0,-0.28422 0.2101507,-0.45303 0.1946479,-0.15675 0.4857584,-0.15675 0.2911106,0 0.4857585,0.15675 0.2084283,0.16881 0.2084283,0.45303 v 1.0542 q 0,0.12402 0.065457,0.27044 z m -0.4599203,-0.72003 q 0,-0.0138 -0.01378,-0.0189 -0.1205783,-0.0431 -0.2446018,-0.0431 -0.062012,0 -0.1257459,0.0103 -0.235989,0.0396 -0.235989,0.23771 0,0.2291 0.3100584,0.2291 0.1274686,0 0.2153186,-0.0689 0.09474,-0.0758 0.09474,-0.19981 z" />
        <path
           inkscape:connector-curvature="0"
           id="path5313"
           style="font-style:normal;font-variant:normal;font-weight:normal;font-stretch:normal;font-size:medium;line-height:1.25;font-family:Steagisler;-inkscape-font-specification:Steagisler;font-variant-ligatures:normal;font-variant-caps:normal;font-variant-numeric:normal;font-feature-settings:normal;text-align:start;letter-spacing:0px;word-spacing:0px;writing-mode:lr-tb;text-anchor:start;fill:#f2f2f2;fill-opacity:1;stroke:none;stroke-width:0.26458332"
           d="M 7.2506153,177.17835 H 6.8458166 q -0.022393,-0.0448 -0.034451,-0.0947 -0.00345,-0.0103 -0.015503,-0.0138 -0.00345,-0.002 -0.00517,-0.002 -0.00689,0 -0.01378,0.007 -0.1515842,0.15159 -0.4220241,0.15159 -0.2824979,0 -0.4340821,-0.16364 -0.1446941,-0.15848 -0.1446941,-0.44614 v -0.76309 q 0,-0.28594 0.1550293,-0.44614 0.1567519,-0.16364 0.4409722,-0.16364 0.2342666,0 0.3858507,0.11368 0.00517,0.005 0.012058,0.005 0.00345,0 0.00861,-0.003 0.012058,-0.005 0.012058,-0.0172 v -0.80443 h 0.396186 v 2.37023 q 0,0.12402 0.063734,0.27044 z m -0.4599202,-1.30914 q 0,-0.12574 -0.09474,-0.20154 -0.086127,-0.0689 -0.2153185,-0.0689 -0.1274685,0 -0.2153184,0.0689 -0.093018,0.0758 -0.093018,0.20154 v 0.73381 q 0,0.12402 0.093018,0.19981 0.08785,0.0706 0.2153184,0.0706 0.1291911,0 0.2153185,-0.0706 0.09474,-0.0758 0.09474,-0.19981 z" />
        <path
           inkscape:connector-curvature="0"
           id="path5315"
           style="font-style:normal;font-variant:normal;font-weight:normal;font-stretch:normal;font-size:medium;line-height:1.25;font-family:Steagisler;-inkscape-font-specification:Steagisler;font-variant-ligatures:normal;font-variant-caps:normal;font-variant-numeric:normal;font-feature-settings:normal;text-align:start;letter-spacing:0px;word-spacing:0px;writing-mode:lr-tb;text-anchor:start;fill:#f2f2f2;fill-opacity:1;stroke:none;stroke-width:0.26458332"
           d="m 7.9516922,176.62024 q 0,0.12058 0.093018,0.18948 0.084405,0.0637 0.2084283,0.0637 0.1240234,0 0.2084283,-0.0637 0.093018,-0.0689 0.093018,-0.18948 0,-0.12574 -0.1550293,-0.17225 -0.1412489,-0.0413 -0.3341742,-0.0775 -0.2428793,-0.0586 -0.3669028,-0.20326 -0.1223007,-0.14641 -0.1223007,-0.36001 0,-0.27044 0.2084282,-0.42375 0.1877577,-0.1378 0.468533,-0.1378 0.2807753,0 0.468533,0.1378 0.2084282,0.15331 0.2084282,0.42375 v 0.10163 H 8.554584 v -0.0603 q 0,-0.11886 -0.08785,-0.18776 -0.079237,-0.0637 -0.2032606,-0.0637 -0.122301,0 -0.2032606,0.0637 -0.08785,0.0689 -0.08785,0.18776 0,0.12747 0.1550293,0.16881 0.1963706,0.0517 0.3341743,0.0758 0.2256537,0.0482 0.3565673,0.17398 0.1326362,0.12402 0.1326362,0.36346 0,0.30317 -0.2153185,0.45819 -0.1912027,0.13781 -0.471978,0.13781 -0.2807753,0 -0.4719781,-0.13781 -0.2153184,-0.15502 -0.2153184,-0.42374 v -0.10508 h 0.3755153 z" />
        <path
           inkscape:connector-curvature="0"
           id="path5319"
           style="font-style:normal;font-variant:normal;font-weight:normal;font-stretch:normal;font-size:medium;line-height:1.25;font-family:Steagisler;-inkscape-font-specification:Steagisler;font-variant-ligatures:normal;font-variant-caps:normal;font-variant-numeric:normal;font-feature-settings:normal;text-align:start;letter-spacing:0px;word-spacing:0px;writing-mode:lr-tb;text-anchor:start;fill:#f2f2f2;fill-opacity:1;stroke:none;stroke-width:0.26458332"
           d="m 11.262429,175.41618 q 0.0034,0.0155 0.02239,0.0155 0.0086,0 0.0155,-0.009 0.156752,-0.17914 0.454753,-0.17914 0.28422,0 0.440972,0.16192 0.155029,0.16192 0.155029,0.44786 v 1.32464 h -0.396186 v -1.30914 q 0,-0.12574 -0.09302,-0.20154 -0.08785,-0.0706 -0.215319,-0.0706 -0.129191,0 -0.215318,0.0706 -0.09474,0.0758 -0.09474,0.20154 v 1.30914 h -0.396177 v -1.89481 h 0.29111 z" />
        <path
           inkscape:connector-curvature="0"
           id="path5321"
           style="font-style:normal;font-variant:normal;font-weight:normal;font-stretch:normal;font-size:medium;line-height:1.25;font-family:Steagisler;-inkscape-font-specification:Steagisler;font-variant-ligatures:normal;font-variant-caps:normal;font-variant-numeric:normal;font-feature-settings:normal;text-align:start;letter-spacing:0px;word-spacing:0px;writing-mode:lr-tb;text-anchor:start;fill:#f2f2f2;fill-opacity:1;stroke:none;stroke-width:0.26458332"
           d="m 12.590513,175.28354 h 0.227376 q 0.02067,0 0.02067,-0.0207 v -0.49609 h 0.396186 v 0.49609 q 0,0.0207 0.02067,0.0207 h 0.366902 v 0.30145 h -0.366902 q -0.02067,0 -0.02067,0.0207 v 1.03008 q 0.01206,0.25839 0.192925,0.25839 0.08613,0 0.194648,-0.0207 v 0.30489 q -0.132636,0.0482 -0.266995,0.0482 -0.502984,-0.002 -0.516764,-0.55811 v -1.06281 q 0,-0.0207 -0.02067,-0.0207 h -0.227376 z" />
        <path
           inkscape:connector-curvature="0"
           id="path5323"
           style="font-style:normal;font-variant:normal;font-weight:normal;font-stretch:normal;font-size:medium;line-height:1.25;font-family:Steagisler;-inkscape-font-specification:Steagisler;font-variant-ligatures:normal;font-variant-caps:normal;font-variant-numeric:normal;font-feature-settings:normal;text-align:start;letter-spacing:0px;word-spacing:0px;writing-mode:lr-tb;text-anchor:start;fill:#f2f2f2;fill-opacity:1;stroke:none;stroke-width:0.26458332"
           d="m 14.4612,174.53768 v 0.80443 q 0,0.0121 0.01206,0.0172 0.0052,0.003 0.0086,0.003 0.0069,0 0.01206,-0.005 0.151584,-0.11368 0.38585,-0.11368 0.284221,0 0.440973,0.16192 0.155029,0.16192 0.155029,0.44786 v 1.32464 h -0.396186 v -1.30914 q 0,-0.12574 -0.09302,-0.20154 -0.08785,-0.0706 -0.215318,-0.0706 -0.129191,0 -0.215318,0.0706 -0.09474,0.0758 -0.09474,0.20154 v 1.30914 h -0.396176 v -2.64067 z" />
      </g>
    </g>
    <g
       aria-label="logic"
       style="font-style:normal;font-variant:normal;font-weight:normal;font-stretch:normal;font-size:3.52777767px;line-height:1.25;font-family:Steagisler;-inkscape-font-specification:Steagisler;font-variant-ligatures:normal;font-variant-caps:normal;font-variant-numeric:normal;font-feature-settings:normal;text-align:center;letter-spacing:0px;word-spacing:0px;writing-mode:lr-tb;text-anchor:middle;fill:#eeeeee;fill-opacity:1;stroke:none;stroke-width:0.26458332"
       id="text6220"
       transform="translate(3.6666667e-8,-114.11249)">
      <path
         d="M 7.2420041,291.11383 H 6.8354828 q -0.055122,-0.11541 -0.055122,-0.25666 v -2.38401 h 0.3961859 v 2.37023 q 0,0.12402 0.065457,0.27044 z"
         style="fill:#eeeeee;fill-opacity:1;stroke-width:0.26458332"
         id="path6286"
         inkscape:connector-curvature="0" />
      <path
         d="m 7.600294,289.78919 q 0,-0.28422 0.2153185,-0.45303 0.1980929,-0.15675 0.4892035,-0.15675 0.2928331,0 0.4909261,0.15675 0.2153185,0.16881 0.2153185,0.45303 v 0.76309 q 0,0.28422 -0.2153185,0.45475 -0.198093,0.15503 -0.4909261,0.15503 -0.2911106,0 -0.4892035,-0.15503 Q 7.600294,290.8365 7.600294,290.55228 Z m 1.0145806,0.0155 q 0,-0.12574 -0.09474,-0.20153 -0.08785,-0.0689 -0.2153185,-0.0689 -0.1274685,0 -0.2153185,0.0689 -0.093018,0.0758 -0.093018,0.20153 v 0.73381 q 0,0.12402 0.093018,0.19982 0.08785,0.0706 0.2153185,0.0706 0.1274685,0 0.2153185,-0.0706 0.09474,-0.0758 0.09474,-0.19982 z"
         style="fill:#eeeeee;fill-opacity:1;stroke-width:0.26458332"
         id="path6288"
         inkscape:connector-curvature="0" />
      <path
         d="m 10.08593,291.56514 q 0.125746,-0.003 0.210151,-0.0741 0.08957,-0.0741 0.08957,-0.19637 v -0.33934 q 0,-0.0138 -0.01206,-0.0189 -0.0052,-0.002 -0.0086,-0.002 -0.0069,0 -0.01378,0.005 -0.14814,0.13264 -0.401354,0.13264 -0.2824978,0 -0.4323595,-0.16364 -0.1464165,-0.15848 -0.1464165,-0.44614 v -0.67352 q 0,-0.28594 0.1550292,-0.44614 0.1567519,-0.16364 0.4409723,-0.16364 0.2997235,0 0.4581975,0.18087 0.0069,0.007 0.0155,0.007 0.0155,0 0.01895,-0.0155 l 0.03101,-0.13263 h 0.291111 v 2.08945 q 0,0.28422 -0.210151,0.45475 -0.194648,0.15503 -0.485759,0.15503 H 9.5140444 v -0.35312 z m 0.299724,-1.76045 q 0,-0.12574 -0.09474,-0.20153 -0.08613,-0.0689 -0.215318,-0.0689 -0.1274686,0 -0.2153185,0.0689 -0.093018,0.0758 -0.093018,0.20153 v 0.64424 q 0,0.12402 0.093018,0.19981 0.08785,0.0706 0.2153185,0.0706 0.129191,0 0.215318,-0.0706 0.09474,-0.0758 0.09474,-0.19981 z"
         style="fill:#eeeeee;fill-opacity:1;stroke-width:0.26458332"
         id="path6290"
         inkscape:connector-curvature="0" />
      <path
         d="m 11.572489,288.47316 q 0.105075,0 0.177422,0.0723 0.07407,0.0741 0.07407,0.17742 0,0.10508 -0.07407,0.17915 -0.07235,0.0723 -0.177422,0.0723 -0.103353,0 -0.177422,-0.0723 -0.07407,-0.0741 -0.07407,-0.17915 0,-0.10335 0.07407,-0.17742 0.07407,-0.0723 0.177422,-0.0723 z m 0.198093,2.64067 h -0.396186 v -1.57269 q 0,-0.0207 -0.02067,-0.0207 H 11.1608 V 289.219 h 0.609782 z"
         style="fill:#eeeeee;fill-opacity:1;stroke-width:0.26458332"
         id="path6292"
         inkscape:connector-curvature="0" />
      <path
         d="m 13.696391,290.55228 q 0,0.28422 -0.215319,0.45475 -0.198093,0.15503 -0.490926,0.15503 -0.291111,0 -0.489204,-0.15503 -0.215318,-0.17053 -0.215318,-0.45475 v -0.76309 q 0,-0.28422 0.215318,-0.45303 0.198093,-0.15675 0.489204,-0.15675 0.291111,0 0.480591,0.15675 0.204983,0.16881 0.204983,0.45303 v 0.0568 h -0.375515 v -0.0414 q 0,-0.12574 -0.09474,-0.20153 -0.08785,-0.0689 -0.215318,-0.0689 -0.127469,0 -0.215318,0.0689 -0.09474,0.0758 -0.09474,0.20153 v 0.73381 q 0,0.12402 0.09474,0.19982 0.08785,0.0706 0.215318,0.0706 0.129191,0 0.223931,-0.0689 0.105076,-0.0775 0.105076,-0.20154 v -0.0413 h 0.377238 z"
         style="fill:#eeeeee;fill-opacity:1;stroke-width:0.26458332"
         id="path6294"
         inkscape:connector-curvature="0" />
    </g>
    <text
       xml:space="preserve"
       style="font-style:normal;font-variant:normal;font-weight:normal;font-stretch:normal;font-size:3.52777767px;line-height:1.25;font-family:Steagisler;-inkscape-font-specification:Steagisler;font-variant-ligatures:normal;font-variant-caps:normal;font-variant-numeric:normal;font-feature-settings:normal;text-align:end;letter-spacing:0px;word-spacing:0px;writing-mode:lr-tb;text-anchor:end;fill:#000000;fill-opacity:1;stroke:none;stroke-width:0.26458332"
       x="3.4999998"
       y="225.08"
       id="text4633"><tspan
         sodipodi:role="line"
         id="tspan4631"
         x="3.4999998"
         y="228.26341"
         style="stroke-width:0.26458332" /></text>
    <g
       aria-label="or"
       style="font-style:normal;font-variant:normal;font-weight:normal;font-stretch:normal;font-size:3.52777767px;line-height:0.80000001;font-family:Steagisler;-inkscape-font-specification:'Steagisler, Normal';font-variant-ligatures:normal;font-variant-caps:normal;font-variant-numeric:normal;font-feature-settings:normal;text-align:center;letter-spacing:0px;word-spacing:0px;writing-mode:lr-tb;text-anchor:middle;fill:#f2f2f2;fill-opacity:1;stroke:none;stroke-width:0.26458332"
       id="text6408"
       transform="translate(1.0583333,-2)">
      <path
         d="m 3.8604362,215.67536 q 0,-0.28422 0.2153184,-0.45303 0.198093,-0.15675 0.4892036,-0.15675 0.2928331,0 0.4909261,0.15675 0.2153184,0.16881 0.2153184,0.45303 v 0.76309 q 0,0.28422 -0.2153184,0.45475 -0.198093,0.15503 -0.4909261,0.15503 -0.2911106,0 -0.4892036,-0.15503 -0.2153184,-0.17053 -0.2153184,-0.45475 z m 1.0145805,0.0155 q 0,-0.12574 -0.09474,-0.20153 -0.08785,-0.0689 -0.2153184,-0.0689 -0.1274686,0 -0.2153185,0.0689 -0.093018,0.0758 -0.093018,0.20153 v 0.73381 q 0,0.12402 0.093018,0.19981 0.08785,0.0706 0.2153185,0.0706 0.1274685,0 0.2153184,-0.0706 0.09474,-0.0758 0.09474,-0.19981 z"
         style="fill:#f2f2f2;fill-opacity:1;stroke-width:0.26458332"
         id="path6492"
         inkscape:connector-curvature="0" />
      <path
         d="m 6.4632057,215.42904 q -0.070624,-0.0138 -0.1395264,-0.0172 -0.129191,0 -0.1860351,0.0689 -0.072347,0.0844 -0.072347,0.21015 V 217 h -0.396186 v -1.8948 h 0.2911106 l 0.031006,0.13263 q 0.00345,0.0155 0.018948,0.0155 0.01378,0 0.020671,-0.0121 0.015503,-0.0258 0.032728,-0.0482 0.096463,-0.1223 0.2618273,-0.12747 0.1171332,0.002 0.1894802,0.0396 z"
         style="fill:#f2f2f2;fill-opacity:1;stroke-width:0.26458332"
         id="path6494"
         inkscape:connector-curvature="0" />
    </g>
    <g
       aria-label="nor"
       style="font-style:normal;font-variant:normal;font-weight:normal;font-stretch:normal;font-size:3.52777767px;line-height:0.80000001;font-family:Steagisler;-inkscape-font-specification:'Steagisler, Normal';font-variant-ligatures:normal;font-variant-caps:normal;font-variant-numeric:normal;font-feature-settings:normal;text-align:center;letter-spacing:0px;word-spacing:0px;writing-mode:lr-tb;text-anchor:middle;fill:#f2f2f2;fill-opacity:1;stroke:none;stroke-width:0.26458332"
       id="text6412"
       transform="translate(1.0583333,-2)">
      <path
         d="m 3.3143885,227.23783 q 0.00345,0.0155 0.022393,0.0155 0.00861,0 0.015503,-0.009 0.1567518,-0.17914 0.4547526,-0.17914 0.2842203,0 0.4409722,0.16192 0.1550293,0.16192 0.1550293,0.44786 V 229 h -0.396186 v -1.30914 q 0,-0.12574 -0.093018,-0.20153 -0.08785,-0.0706 -0.2153184,-0.0706 -0.1291911,0 -0.2153185,0.0706 -0.09474,0.0758 -0.09474,0.20153 V 229 h -0.396186 v -1.8948 h 0.2911106 z"
         style="fill:#f2f2f2;fill-opacity:1;stroke-width:0.26458332"
         id="path6485"
         inkscape:connector-curvature="0" />
      <path
         d="m 4.7664963,227.67536 q 0,-0.28422 0.2153184,-0.45303 0.198093,-0.15675 0.4892036,-0.15675 0.2928331,0 0.4909261,0.15675 0.2153184,0.16881 0.2153184,0.45303 v 0.76309 q 0,0.28422 -0.2153184,0.45475 -0.198093,0.15503 -0.4909261,0.15503 -0.2911106,0 -0.4892036,-0.15503 -0.2153184,-0.17053 -0.2153184,-0.45475 z m 1.0145806,0.0155 q 0,-0.12574 -0.09474,-0.20153 -0.08785,-0.0689 -0.2153184,-0.0689 -0.1274686,0 -0.2153185,0.0689 -0.093018,0.0758 -0.093018,0.20153 v 0.73381 q 0,0.12402 0.093018,0.19981 0.08785,0.0706 0.2153185,0.0706 0.1274685,0 0.2153184,-0.0706 0.09474,-0.0758 0.09474,-0.19981 z"
         style="fill:#f2f2f2;fill-opacity:1;stroke-width:0.26458332"
         id="path6487"
         inkscape:connector-curvature="0" />
      <path
         d="m 7.3692657,227.42904 q -0.070625,-0.0138 -0.1395264,-0.0172 -0.129191,0 -0.1860351,0.0689 -0.072347,0.0844 -0.072347,0.21015 V 229 h -0.396186 v -1.8948 h 0.2911106 l 0.031006,0.13263 q 0.00345,0.0155 0.018948,0.0155 0.01378,0 0.020671,-0.0121 0.015503,-0.0258 0.032728,-0.0482 0.096463,-0.1223 0.2618273,-0.12747 0.1171332,0.002 0.1894802,0.0396 z"
         style="fill:#f2f2f2;fill-opacity:1;stroke-width:0.26458332"
         id="path6489"
         inkscape:connector-curvature="0" />
    </g>
    <g
       aria-label="and"
       style="font-style:normal;font-variant:normal;font-weight:normal;font-stretch:normal;font-size:3.52777767px;line-height:0.80000001;font-family:Steagisler;-inkscape-font-specification:'Steagisler, Normal';font-variant-ligatures:normal;font-variant-caps:normal;font-variant-numeric:normal;font-feature-settings:normal;text-align:center;letter-spacing:0px;word-spacing:0px;writing-mode:lr-tb;text-anchor:middle;fill:#f2f2f2;fill-opacity:1;stroke:none;stroke-width:0.26458332"
       id="text6416"
       transform="translate(1.0583333,-2)">
      <path
         d="M 4.0034076,241 H 3.5968864 q -0.020671,-0.0465 -0.034451,-0.0965 -0.00345,-0.0121 -0.015503,-0.0155 -0.00345,-0.002 -0.00517,-0.002 -0.00689,0 -0.01378,0.007 -0.1498617,0.15503 -0.4220242,0.15503 -0.5787761,0 -0.5787761,-0.56844 0,-0.34106 0.3479547,-0.47025 0.1653646,-0.062 0.3410644,-0.062 0.1464166,0 0.3014459,0.0431 0.00345,0.002 0.00517,0.002 0.00689,0 0.012058,-0.005 0.00861,-0.005 0.00861,-0.0155 v -0.28078 q 0,-0.12574 -0.09474,-0.20153 -0.08785,-0.0689 -0.2153185,-0.0689 -0.1274685,0 -0.2153185,0.0689 -0.09474,0.0758 -0.09474,0.20153 v 0.0413 H 2.5478548 v -0.0568 q 0,-0.28422 0.2101508,-0.45303 0.1946479,-0.15675 0.4857585,-0.15675 0.2911105,0 0.4857584,0.15675 0.2084283,0.16881 0.2084283,0.45303 v 1.0542 q 0,0.12402 0.065457,0.27044 z m -0.4599202,-0.72002 q 0,-0.0138 -0.01378,-0.0189 -0.1205783,-0.0431 -0.2446018,-0.0431 -0.062012,0 -0.125746,0.0103 -0.235989,0.0396 -0.235989,0.23771 0,0.2291 0.3100586,0.2291 0.1274685,0 0.2153185,-0.0689 0.09474,-0.0758 0.09474,-0.19982 z"
         style="fill:#f2f2f2;fill-opacity:1;stroke-width:0.26458332"
         id="path6478"
         inkscape:connector-curvature="0" />
      <path
         d="m 4.7199874,239.23783 q 0.00345,0.0155 0.022393,0.0155 0.00861,0 0.015503,-0.009 0.1567518,-0.17914 0.4547526,-0.17914 0.2842204,0 0.4409722,0.16192 0.1550293,0.16192 0.1550293,0.44786 V 241 h -0.396186 v -1.30914 q 0,-0.12574 -0.093018,-0.20153 -0.08785,-0.0706 -0.2153184,-0.0706 -0.1291911,0 -0.2153185,0.0706 -0.09474,0.0758 -0.09474,0.20153 V 241 H 4.397871 v -1.8948 h 0.2911106 z"
         style="fill:#f2f2f2;fill-opacity:1;stroke-width:0.26458332"
         id="path6480"
         inkscape:connector-curvature="0" />
      <path
         d="M 7.6465959,241 H 7.2417972 q -0.022393,-0.0448 -0.034451,-0.0947 -0.00345,-0.0103 -0.015503,-0.0138 -0.00345,-0.002 -0.00517,-0.002 -0.00689,0 -0.01378,0.007 -0.1515842,0.15158 -0.4220242,0.15158 -0.2824978,0 -0.434082,-0.16364 -0.144694,-0.15848 -0.144694,-0.44614 v -0.76309 q 0,-0.28594 0.1550292,-0.44614 0.1567519,-0.16364 0.4409723,-0.16364 0.2342664,0 0.3858506,0.11369 0.00517,0.005 0.012058,0.005 0.00345,0 0.00861,-0.003 0.012058,-0.005 0.012058,-0.0172 v -0.80443 h 0.396186 v 2.37023 q 0,0.12402 0.063734,0.27044 z m -0.4599203,-1.30914 q 0,-0.12574 -0.09474,-0.20153 -0.086127,-0.0689 -0.2153184,-0.0689 -0.1274686,0 -0.2153185,0.0689 -0.093018,0.0758 -0.093018,0.20153 v 0.73381 q 0,0.12402 0.093018,0.19981 0.08785,0.0706 0.2153185,0.0706 0.129191,0 0.2153184,-0.0706 0.09474,-0.0758 0.09474,-0.19981 z"
         style="fill:#f2f2f2;fill-opacity:1;stroke-width:0.26458332"
         id="path6482"
         inkscape:connector-curvature="0" />
    </g>
    <g
       aria-label="nand"
       style="font-style:normal;font-variant:normal;font-weight:normal;font-stretch:normal;font-size:3.52777767px;line-height:0.80000001;font-family:Steagisler;-inkscape-font-specification:'Steagisler, Normal';font-variant-ligatures:normal;font-variant-caps:normal;font-variant-numeric:normal;font-feature-settings:normal;text-align:center;letter-spacing:0px;word-spacing:0px;writing-mode:lr-tb;text-anchor:middle;fill:#f2f2f2;fill-opacity:1;stroke:none;stroke-width:0.26458332"
       id="text6420"
       transform="translate(1.0583333,-2)">
      <path
         d="m 2.0431483,251.23783 q 0.00345,0.0155 0.022393,0.0155 0.00861,0 0.015503,-0.009 0.1567518,-0.17914 0.4547526,-0.17914 0.2842204,0 0.4409722,0.16192 0.1550293,0.16192 0.1550293,0.44786 V 253 h -0.396186 v -1.30914 q 0,-0.12574 -0.093018,-0.20153 -0.08785,-0.0706 -0.2153184,-0.0706 -0.1291911,0 -0.2153185,0.0706 -0.09474,0.0758 -0.09474,0.20153 V 253 h -0.396186 v -1.8948 h 0.2911106 z"
         style="fill:#f2f2f2;fill-opacity:1;stroke-width:0.26458332"
         id="path6469"
         inkscape:connector-curvature="0" />
      <path
         d="M 4.9094677,253 H 4.5029465 q -0.020671,-0.0465 -0.034451,-0.0965 -0.00345,-0.0121 -0.015503,-0.0155 -0.00345,-0.002 -0.00517,-0.002 -0.00689,0 -0.01378,0.007 -0.1498617,0.15503 -0.4220242,0.15503 -0.578776,0 -0.578776,-0.56844 0,-0.34106 0.3479546,-0.47025 0.1653646,-0.062 0.3410644,-0.062 0.1464166,0 0.3014459,0.0431 0.00345,0.002 0.00517,0.002 0.00689,0 0.012058,-0.005 0.00861,-0.005 0.00861,-0.0155 v -0.28078 q 0,-0.12574 -0.09474,-0.20153 -0.08785,-0.0689 -0.2153185,-0.0689 -0.1274685,0 -0.2153184,0.0689 -0.09474,0.0758 -0.09474,0.20153 v 0.0413 H 3.4539149 v -0.0568 q 0,-0.28422 0.2101508,-0.45303 0.1946479,-0.15675 0.4857585,-0.15675 0.2911106,0 0.4857584,0.15675 0.2084283,0.16881 0.2084283,0.45303 v 1.0542 q 0,0.12402 0.065457,0.27044 z m -0.4599202,-0.72002 q 0,-0.0138 -0.01378,-0.0189 -0.1205783,-0.0431 -0.2446018,-0.0431 -0.062012,0 -0.1257459,0.0103 -0.2359891,0.0396 -0.2359891,0.23771 0,0.2291 0.3100586,0.2291 0.1274685,0 0.2153185,-0.0689 0.09474,-0.0758 0.09474,-0.19982 z"
         style="fill:#f2f2f2;fill-opacity:1;stroke-width:0.26458332"
         id="path6471"
         inkscape:connector-curvature="0" />
      <path
         d="m 5.6260474,251.23783 q 0.00345,0.0155 0.022393,0.0155 0.00861,0 0.015503,-0.009 0.1567518,-0.17914 0.4547526,-0.17914 0.2842203,0 0.4409722,0.16192 0.1550293,0.16192 0.1550293,0.44786 V 253 h -0.396186 v -1.30914 q 0,-0.12574 -0.093018,-0.20153 -0.08785,-0.0706 -0.2153184,-0.0706 -0.1291911,0 -0.2153185,0.0706 -0.09474,0.0758 -0.09474,0.20153 V 253 H 5.303931 v -1.8948 h 0.2911106 z"
         style="fill:#f2f2f2;fill-opacity:1;stroke-width:0.26458332"
         id="path6473"
         inkscape:connector-curvature="0" />
      <path
         d="M 8.5526562,253 H 8.1478575 q -0.022393,-0.0448 -0.034451,-0.0947 -0.00345,-0.0103 -0.015503,-0.0138 -0.00345,-0.002 -0.00517,-0.002 -0.00689,0 -0.01378,0.007 -0.1515842,0.15158 -0.4220242,0.15158 -0.2824978,0 -0.434082,-0.16364 -0.144694,-0.15848 -0.144694,-0.44614 v -0.76309 q 0,-0.28594 0.1550293,-0.44614 0.1567518,-0.16364 0.4409722,-0.16364 0.2342665,0 0.3858507,0.11369 0.00517,0.005 0.012058,0.005 0.00345,0 0.00861,-0.003 0.012058,-0.005 0.012058,-0.0172 v -0.80443 h 0.396186 v 2.37023 q 0,0.12402 0.063734,0.27044 z M 8.092736,251.69086 q 0,-0.12574 -0.09474,-0.20153 -0.086127,-0.0689 -0.2153185,-0.0689 -0.1274685,0 -0.2153184,0.0689 -0.093018,0.0758 -0.093018,0.20153 v 0.73381 q 0,0.12402 0.093018,0.19981 0.08785,0.0706 0.2153184,0.0706 0.1291911,0 0.2153185,-0.0706 0.09474,-0.0758 0.09474,-0.19981 z"
         style="fill:#f2f2f2;fill-opacity:1;stroke-width:0.26458332"
         id="path6475"
         inkscape:connector-curvature="0" />
    </g>
    <g
       aria-label="max"
       style="font-style:normal;font-variant:normal;font-weight:normal;font-stretch:normal;font-size:3.52777767px;line-height:0.80000001;font-family:Steagisler;-inkscape-font-specification:'Steagisler, Normal';font-variant-ligatures:normal;font-variant-caps:normal;font-variant-numeric:normal;font-feature-settings:normal;text-align:center;letter-spacing:0px;word-spacing:0px;writing-mode:lr-tb;text-anchor:middle;fill:#f2f2f2;fill-opacity:1;stroke:none;stroke-width:0.26458332"
       id="text6424"
       transform="translate(1.0583333,-2)">
      <path
         d="m 2.5616352,263.73094 q 0.00345,0.0155 0.020671,0.0155 0.00689,0 0.01378,-0.007 0.1515841,-0.17398 0.4409722,-0.17398 0.3238389,0 0.471978,0.21359 0.00689,0.009 0.017226,0.009 0.010335,0 0.017225,-0.009 0.1481391,-0.21359 0.4719781,-0.21359 0.2824978,0 0.4323594,0.16364 0.144694,0.15848 0.144694,0.44614 V 265.5 H 4.196333 v -1.30914 q 0,-0.12574 -0.084405,-0.19981 -0.079237,-0.0723 -0.2067057,-0.0723 -0.125746,0 -0.2067057,0.0723 -0.084405,0.0741 -0.084405,0.19981 V 265.5 H 3.2179259 v -1.30914 q 0,-0.12574 -0.082682,-0.19981 -0.08096,-0.0723 -0.2084283,-0.0723 -0.125746,0 -0.2067057,0.0723 -0.082682,0.0741 -0.082682,0.19981 V 265.5 h -0.396186 v -1.8948 h 0.289388 z"
         style="fill:#f2f2f2;fill-opacity:1;stroke-width:0.26458332"
         id="path6462"
         inkscape:connector-curvature="0" />
      <path
         d="M 6.470096,265.5 H 6.0635747 q -0.020671,-0.0465 -0.034451,-0.0965 -0.00345,-0.0121 -0.015503,-0.0155 -0.00345,-0.002 -0.00517,-0.002 -0.00689,0 -0.01378,0.007 -0.1498616,0.15503 -0.4220242,0.15503 -0.578776,0 -0.578776,-0.56844 0,-0.34106 0.3479547,-0.47025 0.1653645,-0.062 0.3410644,-0.062 0.1464166,0 0.3014458,0.0431 0.00345,0.002 0.00517,0.002 0.00689,0 0.012058,-0.005 0.00861,-0.005 0.00861,-0.0155 v -0.28078 q 0,-0.12574 -0.09474,-0.20153 -0.08785,-0.0689 -0.2153184,-0.0689 -0.1274686,0 -0.2153185,0.0689 -0.09474,0.0758 -0.09474,0.20153 v 0.0413 H 5.0145432 v -0.0568 q 0,-0.28422 0.2101508,-0.45303 0.1946479,-0.15675 0.4857585,-0.15675 0.2911105,0 0.4857584,0.15675 0.2084283,0.16881 0.2084283,0.45303 v 1.0542 q 0,0.12402 0.065457,0.27044 z m -0.4599202,-0.72002 q 0,-0.0138 -0.01378,-0.019 -0.1205784,-0.0431 -0.2446018,-0.0431 -0.062012,0 -0.125746,0.0103 -0.235989,0.0396 -0.235989,0.23771 0,0.2291 0.3100586,0.2291 0.1274685,0 0.2153184,-0.0689 0.09474,-0.0758 0.09474,-0.19982 z"
         style="fill:#f2f2f2;fill-opacity:1;stroke-width:0.26458332"
         id="path6464"
         inkscape:connector-curvature="0" />
      <path
         d="m 7.4088846,264.27355 q 0.00517,0.0138 0.018948,0.0138 0.01378,0 0.018948,-0.0138 l 0.232544,-0.66835 h 0.4426947 l -0.45303,0.96807 0.45303,0.94223 H 7.6793246 l -0.232544,-0.64251 q -0.00517,-0.0121 -0.018948,-0.0121 -0.01378,0 -0.018948,0.0121 L 7.1763407,265.5155 H 6.7353684 l 0.4530301,-0.94223 -0.4530301,-0.96807 h 0.4409723 z"
         style="fill:#f2f2f2;fill-opacity:1;stroke-width:0.26458332"
         id="path6466"
         inkscape:connector-curvature="0" />
    </g>
    <g
       aria-label="min"
       style="font-style:normal;font-variant:normal;font-weight:normal;font-stretch:normal;font-size:3.52777767px;line-height:0.80000001;font-family:Steagisler;-inkscape-font-specification:'Steagisler, Normal';font-variant-ligatures:normal;font-variant-caps:normal;font-variant-numeric:normal;font-feature-settings:normal;text-align:center;letter-spacing:0px;word-spacing:0px;writing-mode:lr-tb;text-anchor:middle;fill:#f2f2f2;fill-opacity:1;stroke:none;stroke-width:0.26458332"
       id="text6428"
       transform="translate(1.0583333,-2)">
      <path
         d="m 2.8027919,275.73094 q 0.00345,0.0155 0.020671,0.0155 0.00689,0 0.01378,-0.007 0.1515842,-0.17398 0.4409722,-0.17398 0.323839,0 0.4719781,0.21359 0.00689,0.009 0.017225,0.009 0.010335,0 0.017225,-0.009 0.1481391,-0.21359 0.471978,-0.21359 0.2824978,0 0.4323595,0.16364 0.144694,0.15848 0.144694,0.44614 V 277.5 h -0.396186 v -1.30914 q 0,-0.12574 -0.084405,-0.19981 -0.079237,-0.0723 -0.2067057,-0.0723 -0.125746,0 -0.2067057,0.0723 -0.084405,0.0741 -0.084405,0.19981 V 277.5 h -0.396186 v -1.30914 q 0,-0.12574 -0.082682,-0.19981 -0.08096,-0.0723 -0.2084283,-0.0723 -0.125746,0 -0.2067057,0.0723 -0.082682,0.0741 -0.082682,0.19981 V 277.5 H 2.482398 v -1.8948 h 0.289388 z"
         style="fill:#f2f2f2;fill-opacity:1;stroke-width:0.26458332"
         id="path6455"
         inkscape:connector-curvature="0" />
      <path
         d="m 5.6243251,274.85933 q 0.1050754,0 0.1774224,0.0723 0.074069,0.0741 0.074069,0.17742 0,0.10508 -0.074069,0.17915 -0.072347,0.0723 -0.1774224,0.0723 -0.1033529,0 -0.1774224,-0.0723 -0.07407,-0.0741 -0.07407,-0.17915 0,-0.10335 0.07407,-0.17742 0.07407,-0.0723 0.1774224,-0.0723 z M 5.8224181,277.5 h -0.396186 v -1.57269 q 0,-0.0207 -0.020671,-0.0207 H 5.2126362 v -0.30144 h 0.6097819 z"
         style="fill:#f2f2f2;fill-opacity:1;stroke-width:0.26458332"
         id="path6457"
         inkscape:connector-curvature="0" />
      <path
         d="m 6.6974723,275.73783 q 0.00345,0.0155 0.022393,0.0155 0.00861,0 0.015503,-0.009 0.1567518,-0.17914 0.4547526,-0.17914 0.2842204,0 0.4409722,0.16192 0.1550293,0.16192 0.1550293,0.44786 V 277.5 h -0.396186 v -1.30914 q 0,-0.12574 -0.093018,-0.20153 -0.08785,-0.0706 -0.2153184,-0.0706 -0.1291911,0 -0.2153185,0.0706 -0.09474,0.0758 -0.09474,0.20153 V 277.5 h -0.396186 v -1.8948 h 0.2911106 z"
         style="fill:#f2f2f2;fill-opacity:1;stroke-width:0.26458332"
         id="path6459"
         inkscape:connector-curvature="0" />
    </g>
    <g
       aria-label="tresh"
       style="font-style:normal;font-variant:normal;font-weight:normal;font-stretch:normal;font-size:3.52777767px;line-height:0.80000001;font-family:Steagisler;-inkscape-font-specification:'Steagisler, Normal';font-variant-ligatures:normal;font-variant-caps:normal;font-variant-numeric:normal;font-feature-settings:normal;text-align:center;letter-spacing:0px;word-spacing:0px;writing-mode:lr-tb;text-anchor:middle;fill:#666666;fill-opacity:1;stroke:none;stroke-width:0.26458332"
       id="text6499"
       transform="translate(1.5875,2.6458334)">
      <path
         d="m 1.3050368,201.90142 h 0.2273763 q 0.02067,0 0.02067,-0.0207 v -0.4961 h 0.396186 v 0.4961 q 0,0.0207 0.020671,0.0207 h 0.3669026 v 0.30144 H 1.9699402 q -0.020671,0 -0.020671,0.0207 v 1.03009 q 0.012058,0.25838 0.1929253,0.25838 0.086127,0 0.1946479,-0.0207 v 0.30489 q -0.1326361,0.0482 -0.2669949,0.0482 -0.5029839,-0.002 -0.5167643,-0.55811 v -1.06281 q 0,-0.0207 -0.02067,-0.0207 H 1.3050368 Z"
         style="fill:#666666;fill-opacity:1;stroke-width:0.26458332"
         id="path6531"
         inkscape:connector-curvature="0" />
      <path
         d="m 3.5288458,202.22526 q -0.070624,-0.0138 -0.1395263,-0.0172 -0.1291911,0 -0.1860352,0.0689 -0.072347,0.0844 -0.072347,0.21015 v 1.30914 h -0.396186 v -1.8948 h 0.2911106 l 0.031006,0.13263 q 0.00345,0.0155 0.018948,0.0155 0.01378,0 0.020671,-0.0121 0.015503,-0.0258 0.032728,-0.0482 0.096463,-0.1223 0.2618272,-0.12747 0.1171332,0.002 0.1894803,0.0396 z"
         style="fill:#666666;fill-opacity:1;stroke-width:0.26458332"
         id="path6533"
         inkscape:connector-curvature="0" />
      <path
         d="m 4.2161424,202.95217 q -0.020671,0 -0.020671,0.0207 v 0.24805 q 0,0.12402 0.09474,0.19981 0.086127,0.0706 0.2153184,0.0706 0.1291911,0 0.2239312,-0.0689 0.1050754,-0.0775 0.1050754,-0.20154 v -0.0413 h 0.3755154 v 0.0551 q 0,0.28422 -0.2153184,0.45475 -0.198093,0.15503 -0.4892036,0.15503 -0.2928331,0 -0.4909261,-0.15503 -0.2153184,-0.17053 -0.2153184,-0.45475 v -0.76309 q 0,-0.28422 0.2153184,-0.45303 0.198093,-0.15675 0.4909261,-0.15675 0.289388,0 0.4805908,0.15675 0.2049832,0.16881 0.2049832,0.45303 v 0.48059 z m -0.020671,-0.29628 q 0,0.0207 0.020671,0.0207 h 0.5770535 q 0.020671,0 0.020671,-0.0207 v -0.16881 q 0,-0.12574 -0.093018,-0.20154 -0.08785,-0.0689 -0.2153185,-0.0689 -0.1291911,0 -0.2153184,0.0689 -0.09474,0.0758 -0.09474,0.20154 z"
         style="fill:#666666;fill-opacity:1;stroke-width:0.26458332"
         id="path6535"
         inkscape:connector-curvature="0" />
      <path
         d="m 6.0024247,203.23811 q 0,0.12058 0.093018,0.18948 0.084405,0.0637 0.2084283,0.0637 0.1240234,0 0.2084283,-0.0637 0.093018,-0.0689 0.093018,-0.18948 0,-0.12574 -0.1550293,-0.17225 -0.141249,-0.0413 -0.3341743,-0.0775 -0.2428792,-0.0586 -0.3669027,-0.20326 -0.1223008,-0.14641 -0.1223008,-0.36001 0,-0.27044 0.2084282,-0.42375 0.1877577,-0.1378 0.468533,-0.1378 0.2807753,0 0.468533,0.1378 0.2084282,0.15331 0.2084282,0.42375 v 0.10163 H 6.6053164 v -0.0603 q 0,-0.11885 -0.08785,-0.18776 -0.079237,-0.0637 -0.2032606,-0.0637 -0.1223009,0 -0.2032606,0.0637 -0.08785,0.0689 -0.08785,0.18776 0,0.12747 0.1550293,0.16881 0.1963705,0.0517 0.3341743,0.0758 0.2256537,0.0482 0.3565673,0.17398 0.1326362,0.12402 0.1326362,0.36346 0,0.30317 -0.2153184,0.4582 -0.1912028,0.1378 -0.4719781,0.1378 -0.2807753,0 -0.4719781,-0.1378 -0.2153184,-0.15503 -0.2153184,-0.42375 v -0.10508 h 0.3755154 z"
         style="fill:#666666;fill-opacity:1;stroke-width:0.26458332"
         id="path6537"
         inkscape:connector-curvature="0" />
      <path
         d="m 7.8403826,201.15555 v 0.80443 q 0,0.0121 0.012058,0.0172 0.00517,0.003 0.00861,0.003 0.00689,0 0.012058,-0.005 0.1515842,-0.11369 0.3858507,-0.11369 0.2842203,0 0.4409722,0.16192 0.1550293,0.16192 0.1550293,0.44786 v 1.32464 h -0.396186 v -1.30914 q 0,-0.12574 -0.093018,-0.20154 -0.08785,-0.0706 -0.2153184,-0.0706 -0.1291911,0 -0.2153185,0.0706 -0.09474,0.0758 -0.09474,0.20154 v 1.30914 h -0.396186 v -2.64067 z"
         style="fill:#666666;fill-opacity:1;stroke-width:0.26458332"
         id="path6539"
         inkscape:connector-curvature="0" />
    </g>
    <path
       inkscape:connector-curvature="0"
       id="path6528"
       style="font-style:normal;font-variant:normal;font-weight:normal;font-stretch:normal;font-size:medium;line-height:0.80000001;font-family:Steagisler;-inkscape-font-specification:'Steagisler, Normal';font-variant-ligatures:normal;font-variant-caps:normal;font-variant-numeric:normal;font-feature-settings:normal;text-align:center;letter-spacing:0px;word-spacing:0px;writing-mode:lr-tb;text-anchor:middle;fill:#852727;fill-opacity:1;stroke:none;stroke-width:0.26458332"
       d="m 10.486282,193.85838 h 0.735528 q 0.301446,0 0.497816,0.16709 0.213596,0.17053 0.213596,0.44786 v 0.24977 q 0,0.29628 -0.251492,0.43064 -0.01206,0.005 -0.01206,0.0172 0.0017,0.0138 0.01206,0.019 0.285943,0.13091 0.285943,0.44614 v 0.24805 q 0,0.28766 -0.225653,0.4582 -0.208429,0.15675 -0.515042,0.15675 l -0.740696,0.002 z m 0.416857,2.26343 q 0,0.0207 0.02067,0.0207 h 0.303169 q 0.134359,0 0.225654,-0.0706 0.09991,-0.0758 0.09991,-0.20154 v -0.16881 q 0,-0.14986 -0.08268,-0.25322 -0.09129,-0.11368 -0.242879,-0.11368 h -0.303169 q -0.02067,0 -0.02067,0.0207 z m 0,-1.13516 q 0,0.0207 0.02067,0.0207 h 0.268718 q 0.151584,0 0.242879,-0.11369 0.08268,-0.10335 0.08268,-0.25321 v -0.15159 q 0,-0.12402 -0.09819,-0.20153 -0.08957,-0.0706 -0.222208,-0.0706 h -0.273886 q -0.02067,0 -0.02067,0.0207 z" />
    <path
       inkscape:connector-curvature="0"
       id="path6521"
       style="font-style:normal;font-variant:normal;font-weight:normal;font-stretch:normal;font-size:medium;line-height:0.80000001;font-family:Steagisler;-inkscape-font-specification:'Steagisler, Normal';font-variant-ligatures:normal;font-variant-caps:normal;font-variant-numeric:normal;font-feature-settings:normal;text-align:center;letter-spacing:0px;word-spacing:0px;writing-mode:lr-tb;text-anchor:middle;fill:#247c76;fill-opacity:1;stroke:none;stroke-width:0.26458332"
       d="m 11.449186,183.85838 0.504707,2.64239 h -0.423747 l -0.09819,-0.58567 q -0.0017,-0.0172 -0.02067,-0.0172 h -0.477145 q -0.01895,0 -0.02067,0.0172 l -0.09818,0.58567 h -0.423747 l 0.504707,-2.64239 z m -0.489203,1.6881 q 0,0.0103 0.0052,0.0172 0.0069,0.007 0.01722,0.007 h 0.380683 q 0.01034,0 0.01723,-0.007 0.0034,-0.005 0.0034,-0.012 v -0.005 l -0.189481,-1.25574 q -0.0034,-0.0172 -0.02239,-0.0172 -0.01722,0 -0.02067,0.0172 z" />
    <path
       style="fill:none;stroke:#96e0db;stroke-width:0.3;stroke-linecap:butt;stroke-linejoin:miter;stroke-opacity:1;stroke-miterlimit:4;stroke-dasharray:none"
       d="M 12.064998,186.6323 H 5.0800004"
       id="path6550"
       inkscape:connector-curvature="0" />
    <path
       style="display:inline;fill:none;stroke:#96e0db;stroke-width:0.3;stroke-linecap:butt;stroke-linejoin:miter;stroke-opacity:1;stroke-miterlimit:4;stroke-dasharray:none"
       d="M 12.064998,187.16147 H 5.0800002"
       id="path6550-9"
       inkscape:connector-curvature="0" />
    <path
       style="display:inline;fill:none;stroke:#96e0db;stroke-width:0.3;stroke-linecap:butt;stroke-linejoin:miter;stroke-opacity:1;stroke-miterlimit:4;stroke-dasharray:none"
       d="M 12.064998,187.69064 H 5.08"
       id="path6550-9-1"
       inkscape:connector-curvature="0" />
    <path
       style="display:inline;fill:none;stroke:#e09696;stroke-width:0.3;stroke-linecap:butt;stroke-linejoin:miter;stroke-opacity:1;stroke-miterlimit:4;stroke-dasharray:none"
       d="M 12.064998,196.6323 H 5.0800002"
       id="path6550-2"
       inkscape:connector-curvature="0" />
    <path
       style="display:inline;fill:none;stroke:#e09696;stroke-width:0.3;stroke-linecap:butt;stroke-linejoin:miter;stroke-opacity:1;stroke-miterlimit:4;stroke-dasharray:none"
       d="M 12.064998,197.16147 H 5.0800002"
       id="path6550-9-0"
       inkscape:connector-curvature="0" />
    <path
       style="display:inline;fill:none;stroke:#e09696;stroke-width:0.3;stroke-linecap:butt;stroke-linejoin:miter;stroke-opacity:1;stroke-miterlimit:4;stroke-dasharray:none"
       d="M 12.064998,197.69064 H 5.0800002"
       id="path6550-9-1-0"
       inkscape:connector-curvature="0" />
    <g
       aria-label="8"
       style="font-style:normal;font-variant:normal;font-weight:normal;font-stretch:normal;font-size:19.75555611px;line-height:0.80000001;font-family:'ornaments labels and frames';-inkscape-font-specification:'ornaments labels and frames, Normal';font-variant-ligatures:normal;font-variant-caps:normal;font-variant-numeric:normal;font-feature-settings:normal;text-align:center;letter-spacing:0px;word-spacing:0px;writing-mode:lr-tb;text-anchor:middle;fill:#e09696;fill-opacity:1;stroke:none;stroke-width:0.26458332"
       id="text6637">
      <path
         d="m 14.815565,185.39234 q 0.299034,0 0.414789,0.26045 v 0.01 h 0.01929 q 0,-0.13504 0.270095,-0.2508 l 0.144694,-0.0193 q 0.41479,0.0579 0.41479,0.34726 0,0.16399 -0.163987,0.2701 v -0.01 q 0.05788,-0.0772 0.05788,-0.14469 v -0.0482 q 0,-0.17363 -0.250803,-0.2508 -0.01929,-0.0193 -0.106109,-0.0289 -0.250803,0 -0.356912,0.23151 v 1.24437 h 0.0096 q 0.202572,-0.42444 0.694532,-0.42444 h 0.04823 q 0.356912,0 0.540191,0.31833 l 0.0096,0.10611 v 0.01 q 0,0.19293 -0.173633,0.2701 -0.04823,0.01 -0.08682,0.01 h -0.01929 q -0.202571,0 -0.241156,-0.18328 v -0.0289 q 0,-0.15434 0.212218,-0.19293 h 0.09646 l 0.01929,0.01 v -0.01 q -0.183279,-0.18328 -0.405143,-0.18328 h -0.02894 q -0.434082,0 -0.588422,0.40514 l -0.01929,0.16399 q 0,0.46302 0.897103,1.23472 0,0.0193 0.250803,0.30868 0,-0.29903 0.23151,-0.41479 0.09646,-0.0482 0.202572,-0.0482 h 0.04823 q 0.366558,0 0.501606,0.38585 h -0.0096 q -0.183279,-0.0965 -0.318327,-0.0965 -0.279742,0 -0.395497,0.34727 l -0.0096,0.0675 q 0,0.22186 0.366558,0.93569 0.318327,0.70418 0.318327,1.19614 v 0.0386 q 0,1.0418 -0.98392,1.97749 0.98392,0.90674 0.98392,1.95819 v 0.0386 q 0,0.65595 -0.588423,1.77492 -0.09646,0.21221 -0.09646,0.36655 0,0.21222 0.260449,0.37621 0.115755,0.0289 0.15434,0.0289 0.135048,0 0.318327,-0.0965 v 0.01 q -0.15434,0.37621 -0.482313,0.37621 h -0.09646 q -0.270095,0 -0.376204,-0.28939 -0.02894,-0.1254 -0.02894,-0.17364 -0.15434,0.21222 -0.790994,0.82958 -0.356912,0.40515 -0.356912,0.71383 0,0.38585 0.414789,0.54984 0.09646,0.0193 0.163987,0.0193 h 0.07717 q 0.192926,0 0.366558,-0.16399 h 0.0096 v -0.0193 h -0.04823 q -0.0096,0 -0.0096,0.01 -0.260449,-0.0482 -0.260449,-0.18327 v -0.0386 q 0.03858,-0.19292 0.221864,-0.19292 h 0.05788 q 0.144694,0 0.221864,0.16398 0.01929,0.0386 0.01929,0.11576 v 0.01 q 0,0.31833 -0.491959,0.42444 h -0.135048 q -0.453375,0 -0.665593,-0.42444 h -0.0096 v 1.23473 q 0,0.14469 0.270096,0.23151 0.05788,0.01 0.08682,0.01 0.299034,0 0.356912,-0.27974 v -0.0482 q 0,-0.0675 -0.05788,-0.14469 h 0.0096 q 0.15434,0.0965 0.15434,0.27974 0,0.24115 -0.376205,0.32797 h -0.03858 q -0.270095,0 -0.405143,-0.22186 -0.0096,-0.0193 -0.0096,-0.0482 h -0.01929 q 0,0.12541 -0.23151,0.24116 -0.04823,0.0193 -0.173633,0.0289 -0.424436,-0.0579 -0.424436,-0.34727 0,-0.14469 0.154341,-0.26044 h 0.0096 q -0.05788,0.0965 -0.05788,0.16398 v 0.0289 q 0,0.18328 0.289388,0.2701 0.05788,0.01 0.07717,0.01 0.26045,0 0.347266,-0.24115 v -1.23473 h -0.0096 q -0.202572,0.42444 -0.665593,0.42444 h -0.08682 q -0.289388,0 -0.49196,-0.24116 -0.04823,-0.0675 -0.04823,-0.20257 0,-0.24116 0.279742,-0.27009 h 0.01929 q 0.231511,0.0482 0.231511,0.20257 0,0.17363 -0.250803,0.21221 l -0.02894,-0.01 h -0.04823 q 0.15434,0.18328 0.395497,0.18328 h 0.07717 q 0.347265,0 0.520898,-0.35691 0.03858,-0.10611 0.03858,-0.21222 0,-0.46302 -0.887456,-1.22508 0,-0.0193 -0.26045,-0.31833 0,0.33762 -0.270095,0.43409 -0.09646,0.0289 -0.135048,0.0289 h -0.09646 q -0.260449,0 -0.414789,-0.25081 -0.06752,-0.11575 -0.06752,-0.13504 h 0.0096 q 0.173633,0.0965 0.327973,0.0965 0.318327,0 0.395497,-0.41479 0,-0.23151 -0.347265,-0.87781 -0.327973,-0.75241 -0.327973,-1.2926 0,-1.03215 0.974273,-1.97749 -0.974273,-0.8971 -0.974273,-1.97748 0,-0.67524 0.607714,-1.83279 0.06752,-0.17364 0.06752,-0.32798 -0.07717,-0.40514 -0.405143,-0.40514 -0.125401,0 -0.327973,0.0965 0.135048,-0.38585 0.501606,-0.38585 h 0.05788 q 0.347265,0 0.414789,0.35692 0.0096,0.0386 0.0096,0.11575 h 0.0096 q 0.01929,-0.0965 0.810286,-0.85852 0.221864,-0.30868 0.221864,-0.32797 0.106109,-0.20257 0.106109,-0.37621 0,-0.33761 -0.337619,-0.5016 -0.115755,-0.0579 -0.241157,-0.0579 h -0.04823 q -0.250803,0 -0.41479,0.19293 l 0.01929,-0.01 h 0.09646 q 0.221865,0.0482 0.221865,0.20257 0,0.15434 -0.221865,0.20257 h -0.06752 q -0.221865,0 -0.241157,-0.29903 0,-0.24116 0.337619,-0.37621 0.106109,-0.0386 0.212218,-0.0386 h 0.06752 q 0.472667,0 0.675239,0.42444 h 0.0096 v -1.23473 q 0,-0.15434 -0.279742,-0.23151 l -0.07717,-0.01 q -0.356912,0.0579 -0.356912,0.28938 v 0.0193 q 0,0.0675 0.05788,0.16398 h -0.0096 q -0.154341,-0.10611 -0.154341,-0.27009 0,-0.21222 0.289388,-0.31833 z m -1.408355,5.50802 q 0,0.95498 0.742762,1.74597 0.453375,-0.15434 0.858518,-0.54019 l 0.202572,-0.24116 v -1.05144 q -0.05788,-0.21222 -0.250803,-0.34726 -0.231511,-0.1447 -0.463021,-0.1447 -0.511252,0 -0.733116,0.48232 v 0.0289 h -0.01929 l -0.0096,-0.1254 v -0.0482 q 0,-0.35691 0.424436,-0.55948 0.144694,-0.0675 0.279741,-0.0675 h 0.07717 q 0.424435,0 0.655946,0.37621 0.02894,0.0289 0.02894,0.0482 h 0.0096 v -0.69453 q 0,-0.13505 -0.434082,-0.48232 l -0.0096,-0.0289 q 0.318327,-0.33762 0.463021,-0.76206 h 0.01929 q 0.106109,0.33762 0.463021,0.7717 -0.443729,0.36656 -0.443729,0.53055 v 0.67524 h 0.0096 q 0.08682,-0.21222 0.318326,-0.33762 0.18328,-0.0965 0.347266,-0.0965 h 0.09646 q 0.405143,0 0.6463,0.3955 0.05788,0.13505 0.05788,0.21222 v 0.0868 l -0.0096,0.10611 q -0.01929,0 -0.06752,-0.13504 -0.250803,-0.37621 -0.665592,-0.37621 -0.501606,0 -0.72347,0.44373 l -0.0096,0.0675 v 1.00322 q 0,0.0675 0.376205,0.41479 0.173633,0.17363 0.627007,0.3762 0.05788,0.0193 0.06752,0.0193 0.733116,-0.79099 0.733116,-1.77491 0,-0.82958 -0.655946,-1.77491 -0.173633,-0.29904 -0.598068,-0.74277 -0.530545,-0.53054 -0.56913,-0.78134 -0.01929,0 -0.08682,0.17363 -0.07717,0.18328 -0.617361,0.74276 -0.472667,0.5209 -0.781347,1.10932 -0.356912,0.63666 -0.356912,1.30225 z m 1.823144,1.33118 q -0.279741,0.59807 -0.829579,0.85852 -0.250803,0.0965 -0.299034,0.0965 v 0.0193 q 0.501606,0.1254 0.771701,0.44372 0.241157,0.24116 0.356912,0.51126 h 0.01929 q 0.08682,-0.23151 0.434082,-0.60772 0.337619,-0.27009 0.694531,-0.34726 v -0.0193 q -0.501606,-0.1254 -0.771701,-0.44373 -0.250803,-0.26044 -0.356912,-0.51125 z m -1.080382,1.51447 q -0.742762,0.79099 -0.742762,1.75562 0,0.91639 0.810286,2.00642 0.135048,0.21222 0.675239,0.76206 0.260449,0.29903 0.347266,0.54983 h 0.0096 q 0.03859,-0.23151 0.501606,-0.72347 0.588422,-0.59807 0.868164,-1.12861 0.453374,-0.71382 0.453374,-1.48553 0,-0.94533 -0.742762,-1.73632 -0.49196,0.20257 -0.684885,0.39549 -0.356912,0.33762 -0.376205,0.3955 v 1.02251 q 0,0.19292 0.308681,0.40514 0.202572,0.10611 0.434082,0.10611 0.472667,0 0.704178,-0.46302 0,-0.0482 0.01929,-0.0482 l 0.0096,0.1061 v 0.0868 q 0,0.36656 -0.491959,0.57878 -0.135048,0.0289 -0.202572,0.0289 h -0.115755 q -0.356912,0 -0.607715,-0.33762 -0.04823,-0.0579 -0.04823,-0.0965 h -0.0096 v 0.70418 q 0.01929,0.15434 0.443729,0.50161 -0.356912,0.43408 -0.463021,0.7717 h -0.01929 q -0.115755,-0.35691 -0.463021,-0.7717 0.443729,-0.35692 0.443729,-0.50161 v -0.69453 h -0.0096 q -0.04823,0.15434 -0.279742,0.31833 -0.212218,0.10611 -0.376205,0.10611 h -0.115755 q -0.327973,0 -0.588422,-0.30869 -0.106109,-0.16398 -0.106109,-0.31832 v -0.0482 l 0.0096,-0.1254 q 0.01929,0.0193 0.09646,0.19292 0.250803,0.31833 0.655946,0.31833 0.472667,0 0.704178,-0.43408 l 0.0096,-0.0675 v -1.01286 q 0,-0.10611 -0.540191,-0.54019 -0.144694,-0.10611 -0.520899,-0.27009 z"
         style=""
         id="path6661" />
    </g>
    <g
       aria-label="8"
       style="font-style:normal;font-variant:normal;font-weight:normal;font-stretch:normal;font-size:19.75555611px;line-height:0.80000001;font-family:'ornaments labels and frames';-inkscape-font-specification:'ornaments labels and frames, Normal';font-variant-ligatures:normal;font-variant-caps:normal;font-variant-numeric:normal;font-feature-settings:normal;text-align:center;letter-spacing:0px;word-spacing:0px;writing-mode:lr-tb;text-anchor:middle;display:inline;fill:#96e0db;fill-opacity:1;stroke:none;stroke-width:0.26458332"
       id="text6637-3">
      <path
         d="m 14.815565,181.19875 q 0.299034,0 0.414789,0.26045 v 0.01 h 0.01929 q 0,-0.13505 0.270095,-0.25081 l 0.144694,-0.0193 q 0.41479,0.0579 0.41479,0.34727 0,0.16398 -0.163987,0.27009 v -0.01 q 0.05788,-0.0772 0.05788,-0.1447 v -0.0482 q 0,-0.17363 -0.250803,-0.2508 -0.01929,-0.0193 -0.106109,-0.0289 -0.250803,0 -0.356912,0.23151 v 1.24437 h 0.0096 q 0.202572,-0.42444 0.694532,-0.42444 h 0.04823 q 0.356912,0 0.540191,0.31833 l 0.0096,0.10611 v 0.01 q 0,0.19293 -0.173633,0.2701 -0.04823,0.01 -0.08682,0.01 h -0.01929 q -0.202571,0 -0.241156,-0.18328 v -0.0289 q 0,-0.15434 0.212218,-0.19293 h 0.09646 l 0.01929,0.01 v -0.01 q -0.183279,-0.18328 -0.405143,-0.18328 h -0.02894 q -0.434082,0 -0.588422,0.40515 l -0.01929,0.16398 q 0,0.46302 0.897103,1.23473 0,0.0193 0.250803,0.30868 0,-0.29904 0.23151,-0.41479 0.09646,-0.0482 0.202572,-0.0482 h 0.04823 q 0.366558,0 0.501606,0.38586 h -0.0096 q -0.183279,-0.0965 -0.318327,-0.0965 -0.279742,0 -0.395497,0.34727 l -0.0096,0.0675 q 0,0.22187 0.366558,0.93569 0.318327,0.70418 0.318327,1.19614 v 0.0386 q 0,1.0418 -0.98392,1.97749 0.98392,0.90675 0.98392,1.95819 v 0.0386 q 0,0.65595 -0.588423,1.77492 -0.09646,0.21222 -0.09646,0.36656 0,0.21221 0.260449,0.3762 0.115755,0.0289 0.15434,0.0289 0.135048,0 0.318327,-0.0965 v 0.01 q -0.15434,0.37621 -0.482313,0.37621 h -0.09646 q -0.270095,0 -0.376204,-0.28939 -0.02894,-0.1254 -0.02894,-0.17363 -0.15434,0.21221 -0.790994,0.82958 -0.356912,0.40514 -0.356912,0.71382 0,0.38585 0.414789,0.54984 0.09646,0.0193 0.163987,0.0193 h 0.07717 q 0.192926,0 0.366558,-0.16399 h 0.0096 v -0.0193 h -0.04823 q -0.0096,0 -0.0096,0.01 -0.260449,-0.0482 -0.260449,-0.18328 v -0.0386 q 0.03858,-0.19292 0.221864,-0.19292 h 0.05788 q 0.144694,0 0.221864,0.16398 0.01929,0.0386 0.01929,0.11576 v 0.01 q 0,0.31832 -0.491959,0.42443 h -0.135048 q -0.453375,0 -0.665593,-0.42443 h -0.0096 v 1.23472 q 0,0.14469 0.270096,0.23151 0.05788,0.01 0.08682,0.01 0.299034,0 0.356912,-0.27974 v -0.0482 q 0,-0.0675 -0.05788,-0.14469 h 0.0096 q 0.15434,0.0965 0.15434,0.27974 0,0.24116 -0.376205,0.32797 h -0.03858 q -0.270095,0 -0.405143,-0.22186 -0.0096,-0.0193 -0.0096,-0.0482 h -0.01929 q 0,0.1254 -0.23151,0.24115 -0.04823,0.0193 -0.173633,0.0289 -0.424436,-0.0579 -0.424436,-0.34726 0,-0.1447 0.154341,-0.26045 h 0.0096 q -0.05788,0.0965 -0.05788,0.16398 v 0.0289 q 0,0.18328 0.289388,0.2701 0.05788,0.01 0.07717,0.01 0.26045,0 0.347266,-0.24115 v -1.23472 h -0.0096 q -0.202572,0.42443 -0.665593,0.42443 h -0.08682 q -0.289388,0 -0.49196,-0.24116 -0.04823,-0.0675 -0.04823,-0.20257 0,-0.24115 0.279742,-0.27009 h 0.01929 q 0.231511,0.0482 0.231511,0.20257 0,0.17363 -0.250803,0.21222 l -0.02894,-0.01 h -0.04823 q 0.15434,0.18328 0.395497,0.18328 h 0.07717 q 0.347265,0 0.520898,-0.35691 0.03858,-0.10611 0.03858,-0.21222 0,-0.46302 -0.887456,-1.22508 0,-0.0193 -0.26045,-0.31832 0,0.33762 -0.270095,0.43408 -0.09646,0.0289 -0.135048,0.0289 h -0.09646 q -0.260449,0 -0.414789,-0.25081 -0.06752,-0.11575 -0.06752,-0.13504 h 0.0096 q 0.173633,0.0965 0.327973,0.0965 0.318327,0 0.395497,-0.41479 0,-0.23151 -0.347265,-0.87781 -0.327973,-0.75241 -0.327973,-1.2926 0,-1.03215 0.974273,-1.97749 -0.974273,-0.8971 -0.974273,-1.97748 0,-0.67524 0.607714,-1.83279 0.06752,-0.17363 0.06752,-0.32797 -0.07717,-0.40515 -0.405143,-0.40515 -0.125401,0 -0.327973,0.0965 0.135048,-0.38586 0.501606,-0.38586 h 0.05788 q 0.347265,0 0.414789,0.35692 0.0096,0.0386 0.0096,0.11575 h 0.0096 q 0.01929,-0.0965 0.810286,-0.85852 0.221864,-0.30868 0.221864,-0.32797 0.106109,-0.20257 0.106109,-0.3762 0,-0.33762 -0.337619,-0.50161 -0.115755,-0.0579 -0.241157,-0.0579 h -0.04823 q -0.250803,0 -0.41479,0.19293 l 0.01929,-0.01 h 0.09646 q 0.221865,0.0482 0.221865,0.20257 0,0.15434 -0.221865,0.20258 h -0.06752 q -0.221865,0 -0.241157,-0.29904 0,-0.24116 0.337619,-0.3762 0.106109,-0.0386 0.212218,-0.0386 h 0.06752 q 0.472667,0 0.675239,0.42444 h 0.0096 v -1.23472 q 0,-0.15435 -0.279742,-0.23152 l -0.07717,-0.01 q -0.356912,0.0579 -0.356912,0.28939 v 0.0193 q 0,0.0675 0.05788,0.16399 h -0.0096 q -0.154341,-0.10611 -0.154341,-0.2701 0,-0.21222 0.289388,-0.31833 z m -1.408355,5.50802 q 0,0.95498 0.742762,1.74597 0.453375,-0.15434 0.858518,-0.54019 l 0.202572,-0.24115 v -1.05145 q -0.05788,-0.21221 -0.250803,-0.34726 -0.231511,-0.1447 -0.463021,-0.1447 -0.511252,0 -0.733116,0.48232 v 0.0289 h -0.01929 l -0.0096,-0.12541 v -0.0482 q 0,-0.35691 0.424436,-0.55948 0.144694,-0.0675 0.279741,-0.0675 h 0.07717 q 0.424435,0 0.655946,0.3762 0.02894,0.0289 0.02894,0.0482 h 0.0096 v -0.69453 q 0,-0.13505 -0.434082,-0.48231 l -0.0096,-0.0289 q 0.318327,-0.33762 0.463021,-0.76206 h 0.01929 q 0.106109,0.33762 0.463021,0.7717 -0.443729,0.36656 -0.443729,0.53055 v 0.67524 h 0.0096 q 0.08682,-0.21222 0.318326,-0.33762 0.18328,-0.0965 0.347266,-0.0965 h 0.09646 q 0.405143,0 0.6463,0.39549 0.05788,0.13505 0.05788,0.21222 v 0.0868 l -0.0096,0.10611 q -0.01929,0 -0.06752,-0.13505 -0.250803,-0.37621 -0.665592,-0.37621 -0.501606,0 -0.72347,0.44373 l -0.0096,0.0675 v 1.00321 q 0,0.0675 0.376205,0.41479 0.173633,0.17363 0.627007,0.3762 0.05788,0.0193 0.06752,0.0193 0.733116,-0.79099 0.733116,-1.77491 0,-0.82958 -0.655946,-1.77491 -0.173633,-0.29904 -0.598068,-0.74277 -0.530545,-0.53054 -0.56913,-0.78134 -0.01929,0 -0.08682,0.17363 -0.07717,0.18328 -0.617361,0.74276 -0.472667,0.5209 -0.781347,1.10932 -0.356912,0.63666 -0.356912,1.30225 z m 1.823144,1.33118 q -0.279741,0.59807 -0.829579,0.85852 -0.250803,0.0965 -0.299034,0.0965 v 0.0193 q 0.501606,0.1254 0.771701,0.44373 0.241157,0.24115 0.356912,0.51125 h 0.01929 q 0.08682,-0.23151 0.434082,-0.60772 0.337619,-0.27009 0.694531,-0.34726 v -0.0193 q -0.501606,-0.1254 -0.771701,-0.44372 -0.250803,-0.26045 -0.356912,-0.51126 z m -1.080382,1.51447 q -0.742762,0.79099 -0.742762,1.75562 0,0.91639 0.810286,2.00642 0.135048,0.21222 0.675239,0.76206 0.260449,0.29903 0.347266,0.54984 h 0.0096 q 0.03859,-0.23152 0.501606,-0.72347 0.588422,-0.59807 0.868164,-1.12862 0.453374,-0.71382 0.453374,-1.48552 0,-0.94534 -0.742762,-1.73633 -0.49196,0.20257 -0.684885,0.3955 -0.356912,0.33761 -0.376205,0.39549 v 1.02251 q 0,0.19292 0.308681,0.40514 0.202572,0.10611 0.434082,0.10611 0.472667,0 0.704178,-0.46302 0,-0.0482 0.01929,-0.0482 l 0.0096,0.10611 v 0.0868 q 0,0.36656 -0.491959,0.57878 -0.135048,0.0289 -0.202572,0.0289 h -0.115755 q -0.356912,0 -0.607715,-0.33762 -0.04823,-0.0579 -0.04823,-0.0965 h -0.0096 v 0.70418 q 0.01929,0.15434 0.443729,0.50161 -0.356912,0.43408 -0.463021,0.7717 h -0.01929 q -0.115755,-0.35691 -0.463021,-0.7717 0.443729,-0.35691 0.443729,-0.50161 v -0.69453 h -0.0096 q -0.04823,0.15434 -0.279742,0.31833 -0.212218,0.10611 -0.376205,0.10611 h -0.115755 q -0.327973,0 -0.588422,-0.30868 -0.106109,-0.16399 -0.106109,-0.31833 v -0.0482 l 0.0096,-0.1254 q 0.01929,0.0193 0.09646,0.19292 0.250803,0.31833 0.655946,0.31833 0.472667,0 0.704178,-0.43408 l 0.0096,-0.0675 v -1.01286 q 0,-0.1061 -0.540191,-0.54019 -0.144694,-0.1061 -0.520899,-0.27009 z"
         style="fill:#96e0db;fill-opacity:1;stroke-width:0.26458332"
         id="path6664" />
    </g>
  </g>
  <g
     inkscape:groupmode="layer"
     id="layer2"
     inkscape:label="components"
     style="display:none">
    <circle
       style="display:inline;opacity:1;fill:#0000ff;fill-opacity:1;stroke:none;stroke-width:0.39999998;stroke-linecap:butt;stroke-miterlimit:4;stroke-dasharray:none;stroke-dashoffset:0;stroke-opacity:1;paint-order:normal"
       id="path4623"
       cx="12.805832"
       cy="106.96"
       inkscape:label="MIN"
       r="2.5400002" />
    <circle
       style="display:inline;opacity:1;fill:#00ff00;fill-opacity:1;stroke:none;stroke-width:0.39999998;stroke-linecap:butt;stroke-miterlimit:4;stroke-dasharray:none;stroke-dashoffset:0;stroke-opacity:1;paint-order:normal"
       id="path4623-5"
       cx="12.805832"
       cy="18.48167"
       inkscape:label="INA"
       r="2.5400004" />
    <circle
       style="display:inline;opacity:1;fill:#00ff00;fill-opacity:1;stroke:none;stroke-width:0.39999998;stroke-linecap:butt;stroke-miterlimit:4;stroke-dasharray:none;stroke-dashoffset:0;stroke-opacity:1;paint-order:normal"
       id="path4623-5-7"
       cx="12.805832"
       cy="28.828163"
       inkscape:label="INB"
       r="2.5400004"
       inkscape:transform-center-x="-4.2522322"
       inkscape:transform-center-y="-1.8898782" />
    <circle
       style="display:inline;opacity:1;fill:#0000ff;fill-opacity:1;stroke:none;stroke-width:0.39999998;stroke-linecap:butt;stroke-miterlimit:4;stroke-dasharray:none;stroke-dashoffset:0;stroke-opacity:1;paint-order:normal"
       id="path4623-5-7-5"
       cx="12.805832"
       cy="75.208"
       inkscape:label="AND"
       r="2.5400004"
       inkscape:transform-center-x="-4.2522322"
       inkscape:transform-center-y="-1.8898782" />
    <circle
       style="display:inline;opacity:1;fill:#0000ff;fill-opacity:1;stroke:none;stroke-width:0.39999998;stroke-linecap:butt;stroke-miterlimit:4;stroke-dasharray:none;stroke-dashoffset:0;stroke-opacity:1;paint-order:normal"
       id="path4623-5-7-2"
       cx="12.805832"
       cy="85.792"
       inkscape:label="NAND"
       r="2.5400004"
       inkscape:transform-center-x="-4.2522322"
       inkscape:transform-center-y="-1.8898782" />
    <circle
       style="display:inline;opacity:1;fill:#0000ff;fill-opacity:1;stroke:none;stroke-width:0.39999998;stroke-linecap:butt;stroke-miterlimit:4;stroke-dasharray:none;stroke-dashoffset:0;stroke-opacity:1;paint-order:normal"
       id="path4623-5-7-2-5"
       cx="12.805832"
       cy="96.375999"
       inkscape:label="MAX"
       r="2.5400004"
       inkscape:transform-center-x="-4.2522322"
       inkscape:transform-center-y="-1.8898782" />
    <circle
       style="display:inline;opacity:1;fill:#0000ff;fill-opacity:1;stroke:none;stroke-width:0.39999998;stroke-linecap:butt;stroke-miterlimit:4;stroke-dasharray:none;stroke-dashoffset:0;stroke-opacity:1;paint-order:normal"
       id="path4623-5-7-5-7"
       cx="12.805832"
       cy="54.040001"
       inkscape:label="OR"
       r="2.5400004"
       inkscape:transform-center-x="-4.2522322"
       inkscape:transform-center-y="-1.8898782" />
    <circle
       style="display:inline;opacity:1;fill:#0000ff;fill-opacity:1;stroke:none;stroke-width:0.39999998;stroke-linecap:butt;stroke-miterlimit:4;stroke-dasharray:none;stroke-dashoffset:0;stroke-opacity:1;paint-order:normal"
       id="path4623-5-7-5-7-7"
       cx="12.805832"
       cy="64.624001"
       inkscape:label="NOR"
       r="2.5400004"
       inkscape:transform-center-x="-4.2522322"
       inkscape:transform-center-y="-1.8898782" />
    <circle
       style="opacity:0.97000002;fill:#ff0000;fill-opacity:1;stroke:none;stroke-width:0.40000001;stroke-linecap:butt;stroke-miterlimit:4;stroke-dasharray:none;stroke-dashoffset:0;stroke-opacity:1;paint-order:normal"
       id="path4693"
       cx="10.160001"
       cy="39"
       r="1.7984338"
       inkscape:label="TRESHOLD" />
    <circle
       style="opacity:0.97000002;fill:#ff00ff;fill-opacity:1;stroke:none;stroke-width:0.40000001;stroke-linecap:butt;stroke-miterlimit:4;stroke-dasharray:none;stroke-dashoffset:0;stroke-opacity:1;paint-order:normal"
       id="path4629"
       cx="6"
       cy="54.040001"
       r="1"
       inkscape:label="LEDOR" />
    <circle
       style="display:inline;opacity:0.97000002;fill:#ff00ff;fill-opacity:1;stroke:none;stroke-width:0.40000001;stroke-linecap:butt;stroke-miterlimit:4;stroke-dasharray:none;stroke-dashoffset:0;stroke-opacity:1;paint-order:normal"
       id="path4629-9"
       cx="6"
       cy="64.624001"
       r="1"
       inkscape:label="LEDNOR" />
    <circle
       style="display:inline;opacity:0.97000002;fill:#ff00ff;fill-opacity:1;stroke:none;stroke-width:0.40000001;stroke-linecap:butt;stroke-miterlimit:4;stroke-dasharray:none;stroke-dashoffset:0;stroke-opacity:1;paint-order:normal"
       id="path4629-9-9"
       cx="6"
       cy="75.208"
       r="1"
       inkscape:label="LEDAND" />
    <circle
       style="display:inline;opacity:0.97000002;fill:#ff00ff;fill-opacity:1;stroke:none;stroke-width:0.40000001;stroke-linecap:butt;stroke-miterlimit:4;stroke-dasharray:none;stroke-dashoffset:0;stroke-opacity:1;paint-order:normal"
       id="path4629-9-9-9"
       cx="6"
       cy="85.792"
       r="1"
       inkscape:label="LEDNAND" />
    <circle
       style="display:inline;opacity:0.97000002;fill:#ff00ff;fill-opacity:1;stroke:none;stroke-width:0.40000001;stroke-linecap:butt;stroke-miterlimit:4;stroke-dasharray:none;stroke-dashoffset:0;stroke-opacity:1;paint-order:normal"
       id="path4629-9-9-2"
       cx="6"
       cy="96.375999"
       r="1"
       inkscape:label="LEDMAX" />
    <circle
       style="display:inline;opacity:0.97000002;fill:#ff00ff;fill-opacity:1;stroke:none;stroke-width:0.40000001;stroke-linecap:butt;stroke-miterlimit:4;stroke-dasharray:none;stroke-dashoffset:0;stroke-opacity:1;paint-order:normal"
       id="path4629-9-9-2-0"
       cx="6"
       cy="106.96"
       r="1"
       inkscape:label="LEDMIN" />
  </g>
</svg>
