<?xml version="1.0" encoding="UTF-8" standalone="no"?>
<!-- Created with Inkscape (http://www.inkscape.org/) -->

<svg
   xmlns:dc="http://purl.org/dc/elements/1.1/"
   xmlns:cc="http://creativecommons.org/ns#"
   xmlns:rdf="http://www.w3.org/1999/02/22-rdf-syntax-ns#"
   xmlns:svg="http://www.w3.org/2000/svg"
   xmlns="http://www.w3.org/2000/svg"
   xmlns:sodipodi="http://sodipodi.sourceforge.net/DTD/sodipodi-0.dtd"
   xmlns:inkscape="http://www.inkscape.org/namespaces/inkscape"
   width="20.32mm"
   height="128.5mm"
   viewBox="0 0 20.32 128.5"
   version="1.1"
   id="svg8"
   inkscape:version="0.92.1 r15371"
   sodipodi:docname="Logic.svg">
  <defs
     id="defs2">
    <inkscape:path-effect
       effect="simplify"
       id="path-effect5498"
       is_visible="true"
       steps="1"
       threshold="0.000408163"
       smooth_angles="360"
       helper_size="0"
       simplify_individual_paths="false"
       simplify_just_coalesce="false"
       simplifyindividualpaths="false"
       simplifyJustCoalesce="false" />
    <inkscape:path-effect
       effect="simplify"
       id="path-effect5494"
       is_visible="true"
       steps="1"
       threshold="0.000408163"
       smooth_angles="360"
       helper_size="0"
       simplify_individual_paths="false"
       simplify_just_coalesce="false"
       simplifyindividualpaths="false"
       simplifyJustCoalesce="false" />
  </defs>
  <sodipodi:namedview
     id="base"
     pagecolor="#262626"
     bordercolor="#666666"
     borderopacity="1.0"
     inkscape:pageopacity="0"
     inkscape:pageshadow="2"
     inkscape:zoom="1.7666343"
     inkscape:cx="181.71655"
     inkscape:cy="252.39375"
     inkscape:document-units="mm"
     inkscape:current-layer="layer2"
     showgrid="false"
     inkscape:window-width="1850"
     inkscape:window-height="1057"
     inkscape:window-x="-8"
     inkscape:window-y="-8"
     inkscape:window-maximized="1"
     showguides="true"
     inkscape:snap-grids="false"
     inkscape:guide-bbox="true"
     inkscape:snap-bbox="true"
     inkscape:bbox-paths="true"
     inkscape:snap-bbox-edge-midpoints="true"
     inkscape:bbox-nodes="true"
     inkscape:snap-bbox-midpoints="true">
    <inkscape:grid
       type="xygrid"
       id="grid31" />
    <sodipodi:guide
       position="0,0"
       orientation="0,192"
       id="guide4607"
       inkscape:locked="false" />
    <sodipodi:guide
       position="50.799999,128.5"
       orientation="0,-192"
       id="guide4611"
       inkscape:locked="false" />
    <sodipodi:guide
       position="0,128.5"
       orientation="485.66929,0"
       id="guide4613"
       inkscape:locked="false" />
    <sodipodi:guide
       position="2.0000001,118.65625"
       orientation="1,0"
       id="guide4615"
       inkscape:locked="false"
       inkscape:label=""
       inkscape:color="rgb(0,0,255)" />
    <sodipodi:guide
       position="18.320001,113.45592"
       orientation="1,0"
       id="guide4617"
       inkscape:locked="false"
       inkscape:label=""
       inkscape:color="rgb(0,0,255)" />
    <sodipodi:guide
       position="12.805832,92.2635"
       orientation="1,0"
       id="guide4637"
       inkscape:locked="false" />
    <sodipodi:guide
       position="10.160001,116"
       orientation="0,1"
       id="guide4776"
       inkscape:locked="false" />
    <sodipodi:guide
       position="10.16,11.5"
       orientation="0,1"
       id="guide4782"
       inkscape:locked="false" />
    <sodipodi:guide
       position="10.165169,5.8861601"
       orientation="0,1"
       id="guide4864"
       inkscape:locked="false" />
    <sodipodi:guide
       position="10.16,10"
       orientation="0,1"
       id="guide4902"
       inkscape:locked="false" />
    <sodipodi:guide
       position="12.805832,110.01833"
       orientation="0,1"
       id="guide4976"
       inkscape:locked="false"
       inkscape:label=""
       inkscape:color="rgb(0,0,255)" />
    <sodipodi:guide
       position="12.805832,89.500004"
       orientation="0,1"
       id="guide6210"
       inkscape:locked="false"
       inkscape:label=""
       inkscape:color="rgb(0,0,255)" />
    <sodipodi:guide
       position="27.220136,83.500003"
       orientation="0,1"
       id="guide6212"
       inkscape:locked="false"
       inkscape:label=""
       inkscape:color="rgb(0,0,255)" />
    <sodipodi:guide
       position="24.973632,81.500003"
       orientation="0,1"
       id="guide6214"
       inkscape:locked="false"
       inkscape:label=""
       inkscape:color="rgb(0,0,255)" />
    <sodipodi:guide
       position="24.71154,77.000003"
       orientation="0,1"
       id="guide6216"
       inkscape:locked="false"
       inkscape:label=""
       inkscape:color="rgb(0,0,255)" />
    <sodipodi:guide
       position="10.160001,71.92"
       orientation="0,1"
       id="guide6222"
       inkscape:locked="false" />
    <sodipodi:guide
       position="3.5000001,33.167191"
       orientation="1,0"
       id="guide6224"
       inkscape:locked="false"
       inkscape:label=""
       inkscape:color="rgb(0,0,255)" />
    <sodipodi:guide
       position="10.160001,53.292002"
       orientation="0,1"
       id="guide6226"
       inkscape:locked="false"
       inkscape:label=""
       inkscape:color="rgb(0,0,255)" />
    <sodipodi:guide
       position="10.160001,74.460003"
       orientation="0,1"
       id="guide6228"
       inkscape:locked="false"
       inkscape:label=""
       inkscape:color="rgb(0,0,255)" />
    <sodipodi:guide
       position="10.160001,32.124002"
       orientation="0,1"
       id="guide6230"
       inkscape:locked="false"
       inkscape:label=""
       inkscape:color="rgb(0,0,255)" />
    <sodipodi:guide
       position="10.160001,21.540002"
       orientation="0,1"
       id="guide6232"
       inkscape:locked="false" />
    <sodipodi:guide
       position="10.160001,40.168001"
       orientation="1.6228825e-007,1"
       id="guide6234"
       inkscape:locked="false"
       inkscape:label=""
       inkscape:color="rgb(0,0,255)" />
    <sodipodi:guide
       position="12.805832,99.671841"
       orientation="0,1"
       id="guide6252"
       inkscape:locked="false"
       inkscape:label=""
       inkscape:color="rgb(0,0,255)" />
    <sodipodi:guide
       position="10.160001,84.000003"
       orientation="0,1"
       id="guide6254"
       inkscape:locked="false"
       inkscape:label=""
       inkscape:color="rgb(0,0,255)" />
    <sodipodi:guide
       position="16.820001,64.493826"
       orientation="1,0"
       id="guide6297"
       inkscape:locked="false"
       inkscape:label=""
       inkscape:color="rgb(0,0,255)" />
    <sodipodi:guide
       position="10.160001,19.000001"
       orientation="0,1"
       id="guide6349"
       inkscape:locked="false" />
    <sodipodi:guide
       position="10.160001,29.584001"
       orientation="0,1"
       id="guide6351"
       inkscape:locked="false" />
    <sodipodi:guide
       position="10.160001,50.752001"
       orientation="0,1"
       id="guide6353"
       inkscape:locked="false" />
    <sodipodi:guide
       position="10.160001,63.876002"
       orientation="0,1"
       id="guide6355"
       inkscape:locked="false" />
    <sodipodi:guide
       position="14.668539,50.097031"
       orientation="1,0"
       id="guide6359"
       inkscape:locked="false" />
    <sodipodi:guide
       position="10.160001,61.336"
       orientation="0,1"
       id="guide4604"
       inkscape:locked="false" />
    <sodipodi:guide
       position="10.160001,42.708001"
       orientation="0,1"
       id="guide4606"
       inkscape:locked="false" />
    <sodipodi:guide
       position="3.5000002,47.485773"
       orientation="0,1"
       id="guide4608"
       inkscape:locked="false" />
    <sodipodi:guide
       position="3.4500463,36.948154"
       orientation="0,1"
       id="guide4610"
       inkscape:locked="false" />
    <sodipodi:guide
       position="3.5000001,27.006884"
       orientation="0,1"
       id="guide4612"
       inkscape:locked="false" />
    <sodipodi:guide
       position="3.5264752,15.819764"
       orientation="0,1"
       id="guide4614"
       inkscape:locked="false" />
    <sodipodi:guide
       position="3.5000001,58.824191"
       orientation="0,1"
       id="guide4658"
       inkscape:locked="false" />
    <sodipodi:guide
       position="3.5000002,69.408191"
       orientation="0,1"
       id="guide4660"
       inkscape:locked="false" />
    <sodipodi:guide
       position="12.805833,107.47833"
       orientation="0,1"
       id="guide4689"
       inkscape:locked="false" />
    <sodipodi:guide
       position="12.805832,97.13184"
       orientation="0,1"
       id="guide4691"
       inkscape:locked="false" />
    <sodipodi:guide
       position="10.160001,89.632696"
       orientation="1,0"
       id="guide5894"
       inkscape:locked="false" />
    <sodipodi:guide
       position="5.683914,86.694477"
       orientation="0,1"
       id="guide5904"
       inkscape:locked="false" />
    <sodipodi:guide
       position="7.9050894,89.632696"
       orientation="1,0"
       id="guide5906"
       inkscape:locked="false" />
    <sodipodi:guide
       position="12.414912,89.632696"
       orientation="1,0"
       id="guide5908"
       inkscape:locked="false" />
    <sodipodi:guide
       position="6.0000002,74.460001"
       orientation="1,0"
       id="guide4631"
       inkscape:locked="false"
       inkscape:label=""
       inkscape:color="rgb(0,0,255)" />
  </sodipodi:namedview>
  <metadata
     id="metadata5">
    <rdf:RDF>
      <cc:Work
         rdf:about="">
        <dc:format>image/svg+xml</dc:format>
        <dc:type
           rdf:resource="http://purl.org/dc/dcmitype/StillImage" />
        <dc:title />
      </cc:Work>
    </rdf:RDF>
  </metadata>
  <g
     inkscape:label="panel"
     inkscape:groupmode="layer"
     id="layer1"
     transform="translate(0,-168.5)"
     style="display:inline">
    <rect
       style="opacity:1;fill:#e6e6e6;stroke-width:0.26458332"
       id="rect39"
       width="20.32"
       height="128.5"
       x="-5.5511152e-018"
       y="168.5" />
    <text
       xml:space="preserve"
       style="font-style:normal;font-weight:normal;font-size:4.93888855px;line-height:1.25;font-family:sans-serif;letter-spacing:0px;word-spacing:0px;fill:#000000;fill-opacity:1;stroke:none;stroke-width:0.26458332"
       x="6.1471992"
       y="177.26324"
       id="text3713"><tspan
         sodipodi:role="line"
         id="tspan3711"
         x="6.1471992"
         y="181.76915"
         style="stroke-width:0.26458332" /></text>
    <g
       aria-label="a"
       style="font-style:normal;font-variant:normal;font-weight:normal;font-stretch:normal;font-size:14.11111069px;line-height:1.25;font-family:'Opus Special Extra Std';-inkscape-font-specification:'Opus Special Extra Std';letter-spacing:0px;word-spacing:0px;fill:#ffcc00;fill-opacity:1;stroke:none;stroke-width:0.26458332"
       id="text3719" />
    <rect
       style="opacity:1;fill:#383838;fill-opacity:1;stroke:none;stroke-width:0.26499999;stroke-miterlimit:4;stroke-dasharray:none;stroke-dashoffset:0;stroke-opacity:1"
       id="rect3797"
       width="20.32"
       height="10"
       x="2.744981e-016"
       y="168.5" />
    <rect
       style="display:inline;opacity:1;fill:#383838;fill-opacity:1;stroke-width:0.26458332"
       id="rect3797-4"
       width="20.32"
       height="10"
       x="0"
       y="287" />
    <text
       xml:space="preserve"
       style="font-style:normal;font-variant:normal;font-weight:normal;font-stretch:normal;font-size:4.93888855px;line-height:1.25;font-family:'ornaments labels and frames';-inkscape-font-specification:'ornaments labels and frames, Normal';font-variant-ligatures:normal;font-variant-caps:normal;font-variant-numeric:normal;text-align:center;letter-spacing:0px;word-spacing:0px;writing-mode:lr-tb;text-anchor:middle;display:inline;fill:#000000;fill-opacity:1;stroke:none;stroke-width:0.26458332"
       x="30.067825"
       y="196.50633"
       id="text3786"><tspan
         sodipodi:role="line"
         id="tspan3784"
         x="30.067825"
         y="200.96446"
         style="stroke-width:0.26458332" /></text>
    <rect
       style="display:inline;opacity:1;fill:#666666;fill-opacity:1;stroke:none;stroke-width:0.26499993;stroke-miterlimit:4;stroke-dasharray:none;stroke-dashoffset:0;stroke-opacity:0.94779142"
       id="rect5407-5"
       width="16.32"
       height="70.000031"
       x="2.0000007"
       y="215.49997"
       rx="1.0000001"
       ry="1.000001" />
    <g
       transform="matrix(1.8133333,0,0,1,-66.628621,77.64139)"
       aria-label="out"
       style="font-style:normal;font-variant:normal;font-weight:normal;font-stretch:normal;font-size:3.52777767px;line-height:1.25;font-family:Steagisler;-inkscape-font-specification:Steagisler;font-variant-ligatures:normal;font-variant-caps:normal;font-variant-numeric:normal;font-feature-settings:normal;text-align:center;letter-spacing:0px;word-spacing:0px;writing-mode:lr-tb;text-anchor:middle;display:inline;fill:#f9f9f9;fill-opacity:1;stroke:none;stroke-width:0.19648239"
       id="text4639" />
    <g
       aria-label="adsynth."
       style="font-style:normal;font-variant:normal;font-weight:normal;font-stretch:normal;font-size:3.52777767px;line-height:1.25;font-family:Steagisler;-inkscape-font-specification:Steagisler;font-variant-ligatures:normal;font-variant-caps:normal;font-variant-numeric:normal;font-feature-settings:normal;text-align:start;letter-spacing:0px;word-spacing:0px;writing-mode:lr-tb;text-anchor:start;fill:#f2f2f2;fill-opacity:1;stroke:none;stroke-width:0.26458332"
       id="text5305"
       transform="translate(0.94332385,-6.99484)">
      <path
         d="M 4.4762234,184.17319 H 4.0697021 q -0.020671,-0.0465 -0.034451,-0.0965 -0.00345,-0.012 -0.015503,-0.0155 -0.00345,-0.002 -0.00517,-0.002 -0.00689,0 -0.01378,0.007 -0.1498616,0.15503 -0.4220242,0.15503 Q 3,184.22142 3,183.65298 q 0,-0.34107 0.3479546,-0.47026 0.1653646,-0.062 0.3410645,-0.062 0.1464165,0 0.3014458,0.0431 0.00345,0.002 0.00517,0.002 0.00689,0 0.012058,-0.005 0.00861,-0.005 0.00861,-0.0155 v -0.28078 q 0,-0.12574 -0.09474,-0.20154 -0.08785,-0.0689 -0.2153185,-0.0689 -0.1274685,0 -0.2153184,0.0689 -0.09474,0.0758 -0.09474,0.20154 v 0.0413 H 3.0206706 v -0.0568 q 0,-0.28422 0.2101508,-0.45303 0.1946479,-0.15675 0.4857584,-0.15675 0.2911106,0 0.4857585,0.15675 0.2084283,0.16881 0.2084283,0.45303 v 1.0542 q 0,0.12402 0.065457,0.27044 z m -0.4599203,-0.72003 q 0,-0.0138 -0.01378,-0.0189 -0.1205784,-0.0431 -0.2446018,-0.0431 -0.062012,0 -0.125746,0.0103 -0.235989,0.0396 -0.235989,0.23771 0,0.2291 0.3100585,0.2291 0.1274686,0 0.2153185,-0.0689 0.09474,-0.0758 0.09474,-0.19981 z"
         style="text-align:start;text-anchor:start;fill:#f2f2f2;fill-opacity:1;stroke-width:0.26458332"
         id="path5311"
         inkscape:connector-curvature="0" />
      <path
         d="M 6.3072915,184.17319 H 5.9024928 q -0.022393,-0.0448 -0.034451,-0.0947 -0.00345,-0.0103 -0.015503,-0.0138 -0.00345,-0.002 -0.00517,-0.002 -0.00689,0 -0.01378,0.007 -0.1515842,0.15159 -0.4220241,0.15159 -0.2824979,0 -0.4340821,-0.16364 -0.144694,-0.15848 -0.144694,-0.44614 v -0.76309 q 0,-0.28594 0.1550293,-0.44614 0.1567519,-0.16364 0.4409722,-0.16364 0.2342665,0 0.3858507,0.11368 0.00517,0.005 0.012058,0.005 0.00345,0 0.00861,-0.003 0.012058,-0.005 0.012058,-0.0172 v -0.80443 h 0.396186 v 2.37023 q 0,0.12402 0.063734,0.27044 z m -0.4599202,-1.30914 q 0,-0.12574 -0.09474,-0.20154 -0.086127,-0.0689 -0.2153185,-0.0689 -0.1274685,0 -0.2153184,0.0689 -0.093018,0.0758 -0.093018,0.20154 v 0.73381 q 0,0.12402 0.093018,0.19981 0.08785,0.0706 0.2153184,0.0706 0.1291911,0 0.2153185,-0.0706 0.09474,-0.0758 0.09474,-0.19981 z"
         style="text-align:start;text-anchor:start;fill:#f2f2f2;fill-opacity:1;stroke-width:0.26458332"
         id="path5313"
         inkscape:connector-curvature="0" />
      <path
         d="m 7.0083684,183.61508 q 0,0.12058 0.093018,0.18948 0.084405,0.0637 0.2084283,0.0637 0.1240234,0 0.2084283,-0.0637 0.093018,-0.0689 0.093018,-0.18948 0,-0.12574 -0.1550293,-0.17225 -0.1412489,-0.0413 -0.3341742,-0.0775 -0.2428792,-0.0586 -0.3669027,-0.20326 -0.1223008,-0.14641 -0.1223008,-0.36001 0,-0.27044 0.2084282,-0.42375 0.1877577,-0.1378 0.468533,-0.1378 0.2807753,0 0.468533,0.1378 0.2084282,0.15331 0.2084282,0.42375 v 0.10163 H 7.6112601 v -0.0603 q 0,-0.11886 -0.08785,-0.18776 -0.079237,-0.0637 -0.2032606,-0.0637 -0.1223009,0 -0.2032606,0.0637 -0.08785,0.0689 -0.08785,0.18776 0,0.12747 0.1550293,0.16881 0.1963705,0.0517 0.3341743,0.0758 0.2256537,0.0482 0.3565673,0.17398 0.1326362,0.12402 0.1326362,0.36346 0,0.30317 -0.2153185,0.45819 -0.1912027,0.13781 -0.471978,0.13781 -0.2807753,0 -0.4719781,-0.13781 -0.2153184,-0.15502 -0.2153184,-0.42374 v -0.10508 h 0.3755153 z"
         style="text-align:start;text-anchor:start;fill:#f2f2f2;fill-opacity:1;stroke-width:0.26458332"
         id="path5315"
         inkscape:connector-curvature="0" />
      <path
         d="M 8.898003,184.04055 H 8.7033551 l -0.4805908,-1.76217 h 0.3892958 l 0.3376194,1.3746 q 0.00345,0.0172 0.018948,0.0172 0.017226,0 0.020671,-0.0172 l 0.2824978,-1.3746 h 0.3892958 l -0.6097819,2.71646 H 8.662014 Z"
         style="text-align:start;text-anchor:start;fill:#f2f2f2;fill-opacity:1;stroke-width:0.26458332"
         id="path5317"
         inkscape:connector-curvature="0" />
      <path
         d="m 10.319105,182.41102 q 0.0034,0.0155 0.02239,0.0155 0.0086,0 0.0155,-0.009 0.156752,-0.17914 0.454753,-0.17914 0.28422,0 0.440972,0.16192 0.155029,0.16192 0.155029,0.44786 v 1.32464 h -0.396186 v -1.30914 q 0,-0.12574 -0.09302,-0.20154 -0.08785,-0.0706 -0.215319,-0.0706 -0.129191,0 -0.215318,0.0706 -0.09474,0.0758 -0.09474,0.20154 v 1.30914 H 9.9969887 v -1.89481 h 0.2911103 z"
         style="text-align:start;text-anchor:start;fill:#f2f2f2;fill-opacity:1;stroke-width:0.26458332"
         id="path5319"
         inkscape:connector-curvature="0" />
      <path
         d="m 11.647189,182.27838 h 0.227376 q 0.02067,0 0.02067,-0.0207 v -0.49609 h 0.396186 v 0.49609 q 0,0.0207 0.02067,0.0207 h 0.366902 v 0.30145 h -0.366902 q -0.02067,0 -0.02067,0.0207 v 1.03008 q 0.01206,0.25839 0.192925,0.25839 0.08613,0 0.194648,-0.0207 v 0.30489 q -0.132636,0.0482 -0.266995,0.0482 -0.502984,-0.002 -0.516764,-0.55811 v -1.06281 q 0,-0.0207 -0.02067,-0.0207 h -0.227376 z"
         style="text-align:start;text-anchor:start;fill:#f2f2f2;fill-opacity:1;stroke-width:0.26458332"
         id="path5321"
         inkscape:connector-curvature="0" />
      <path
         d="m 13.517876,181.53252 v 0.80443 q 0,0.0121 0.01206,0.0172 0.0052,0.003 0.0086,0.003 0.0069,0 0.01206,-0.005 0.151584,-0.11368 0.38585,-0.11368 0.284221,0 0.440973,0.16192 0.155029,0.16192 0.155029,0.44786 v 1.32464 h -0.396186 v -1.30914 q 0,-0.12574 -0.09302,-0.20154 -0.08785,-0.0706 -0.215318,-0.0706 -0.129191,0 -0.215318,0.0706 -0.09474,0.0758 -0.09474,0.20154 v 1.30914 H 13.12169 v -2.64067 z"
         style="text-align:start;text-anchor:start;fill:#f2f2f2;fill-opacity:1;stroke-width:0.26458332"
         id="path5323"
         inkscape:connector-curvature="0" />
      <path
         d="m 15.181857,183.72016 q 0.105076,0 0.179145,0.0741 0.07235,0.0741 0.07235,0.17742 0,0.10335 -0.07235,0.17742 -0.07407,0.0741 -0.179145,0.0741 -0.103353,0 -0.177422,-0.0741 -0.07235,-0.0741 -0.07235,-0.17742 0,-0.10335 0.07235,-0.17742 0.07407,-0.0741 0.177422,-0.0741 z"
         style="text-align:start;text-anchor:start;fill:#f2f2f2;fill-opacity:1;stroke-width:0.26458332"
         id="path5325"
         inkscape:connector-curvature="0" />
    </g>
    <rect
       style="display:inline;opacity:0.98000004;fill:#f2f2f2;fill-opacity:1;stroke:none;stroke-width:0.26499999;stroke-miterlimit:4;stroke-dasharray:none;stroke-dashoffset:0;stroke-opacity:0.94779142"
       id="rect5407-4"
       width="16.320002"
       height="32.5"
       x="1.9999998"
       y="181"
       rx="1.0000006"
       ry="1.0000005" />
    <g
       aria-label="logic"
       style="font-style:normal;font-variant:normal;font-weight:normal;font-stretch:normal;font-size:3.52777767px;line-height:1.25;font-family:Steagisler;-inkscape-font-specification:Steagisler;font-variant-ligatures:normal;font-variant-caps:normal;font-variant-numeric:normal;font-feature-settings:normal;text-align:center;letter-spacing:0px;word-spacing:0px;writing-mode:lr-tb;text-anchor:middle;fill:#eeeeee;fill-opacity:1;stroke:none;stroke-width:0.26458332"
       id="text6220"
       transform="translate(0,0.08204)">
      <path
         d="M 7.2420041,291.11383 H 6.8354828 q -0.055122,-0.11541 -0.055122,-0.25666 v -2.38401 h 0.3961859 v 2.37023 q 0,0.12402 0.065457,0.27044 z"
         style="fill:#eeeeee;fill-opacity:1;stroke-width:0.26458332"
         id="path6286"
         inkscape:connector-curvature="0" />
      <path
         d="m 7.600294,289.78919 q 0,-0.28422 0.2153185,-0.45303 0.1980929,-0.15675 0.4892035,-0.15675 0.2928331,0 0.4909261,0.15675 0.2153185,0.16881 0.2153185,0.45303 v 0.76309 q 0,0.28422 -0.2153185,0.45475 -0.198093,0.15503 -0.4909261,0.15503 -0.2911106,0 -0.4892035,-0.15503 Q 7.600294,290.8365 7.600294,290.55228 Z m 1.0145806,0.0155 q 0,-0.12574 -0.09474,-0.20153 -0.08785,-0.0689 -0.2153185,-0.0689 -0.1274685,0 -0.2153185,0.0689 -0.093018,0.0758 -0.093018,0.20153 v 0.73381 q 0,0.12402 0.093018,0.19982 0.08785,0.0706 0.2153185,0.0706 0.1274685,0 0.2153185,-0.0706 0.09474,-0.0758 0.09474,-0.19982 z"
         style="fill:#eeeeee;fill-opacity:1;stroke-width:0.26458332"
         id="path6288"
         inkscape:connector-curvature="0" />
      <path
         d="m 10.08593,291.56514 q 0.125746,-0.003 0.210151,-0.0741 0.08957,-0.0741 0.08957,-0.19637 v -0.33934 q 0,-0.0138 -0.01206,-0.0189 -0.0052,-0.002 -0.0086,-0.002 -0.0069,0 -0.01378,0.005 -0.14814,0.13264 -0.401354,0.13264 -0.2824978,0 -0.4323595,-0.16364 -0.1464165,-0.15848 -0.1464165,-0.44614 v -0.67352 q 0,-0.28594 0.1550292,-0.44614 0.1567519,-0.16364 0.4409723,-0.16364 0.2997235,0 0.4581975,0.18087 0.0069,0.007 0.0155,0.007 0.0155,0 0.01895,-0.0155 l 0.03101,-0.13263 h 0.291111 v 2.08945 q 0,0.28422 -0.210151,0.45475 -0.194648,0.15503 -0.485759,0.15503 H 9.5140444 v -0.35312 z m 0.299724,-1.76045 q 0,-0.12574 -0.09474,-0.20153 -0.08613,-0.0689 -0.215318,-0.0689 -0.1274686,0 -0.2153185,0.0689 -0.093018,0.0758 -0.093018,0.20153 v 0.64424 q 0,0.12402 0.093018,0.19981 0.08785,0.0706 0.2153185,0.0706 0.129191,0 0.215318,-0.0706 0.09474,-0.0758 0.09474,-0.19981 z"
         style="fill:#eeeeee;fill-opacity:1;stroke-width:0.26458332"
         id="path6290"
         inkscape:connector-curvature="0" />
      <path
         d="m 11.572489,288.47316 q 0.105075,0 0.177422,0.0723 0.07407,0.0741 0.07407,0.17742 0,0.10508 -0.07407,0.17915 -0.07235,0.0723 -0.177422,0.0723 -0.103353,0 -0.177422,-0.0723 -0.07407,-0.0741 -0.07407,-0.17915 0,-0.10335 0.07407,-0.17742 0.07407,-0.0723 0.177422,-0.0723 z m 0.198093,2.64067 h -0.396186 v -1.57269 q 0,-0.0207 -0.02067,-0.0207 H 11.1608 V 289.219 h 0.609782 z"
         style="fill:#eeeeee;fill-opacity:1;stroke-width:0.26458332"
         id="path6292"
         inkscape:connector-curvature="0" />
      <path
         d="m 13.696391,290.55228 q 0,0.28422 -0.215319,0.45475 -0.198093,0.15503 -0.490926,0.15503 -0.291111,0 -0.489204,-0.15503 -0.215318,-0.17053 -0.215318,-0.45475 v -0.76309 q 0,-0.28422 0.215318,-0.45303 0.198093,-0.15675 0.489204,-0.15675 0.291111,0 0.480591,0.15675 0.204983,0.16881 0.204983,0.45303 v 0.0568 h -0.375515 v -0.0414 q 0,-0.12574 -0.09474,-0.20153 -0.08785,-0.0689 -0.215318,-0.0689 -0.127469,0 -0.215318,0.0689 -0.09474,0.0758 -0.09474,0.20153 v 0.73381 q 0,0.12402 0.09474,0.19982 0.08785,0.0706 0.215318,0.0706 0.129191,0 0.223931,-0.0689 0.105076,-0.0775 0.105076,-0.20154 v -0.0413 h 0.377238 z"
         style="fill:#eeeeee;fill-opacity:1;stroke-width:0.26458332"
         id="path6294"
         inkscape:connector-curvature="0" />
    </g>
    <g
       aria-label="&amp;"
       style="font-style:normal;font-variant:normal;font-weight:normal;font-stretch:normal;font-size:3.52777767px;line-height:1.25;font-family:Steagisler;-inkscape-font-specification:Steagisler;font-variant-ligatures:normal;font-variant-caps:normal;font-variant-numeric:normal;font-feature-settings:normal;text-align:start;letter-spacing:0px;word-spacing:0px;writing-mode:lr-tb;text-anchor:start;fill:#eeeeee;fill-opacity:1;stroke:none;stroke-width:0.26458332"
       id="text6238"
       transform="translate(0.98657036,18.974098)">
      <path
         d="m 3.5951958,230.49005 q -0.025838,-0.0551 -0.039619,-0.11885 -0.00345,-0.0121 -0.015503,-0.0155 h -0.00345 q -0.010335,0 -0.017226,0.007 -0.144694,0.17743 -0.4375271,0.17743 -0.2842204,0 -0.4306369,-0.16537 Q 2.51343,230.21629 2.51343,229.92518 v -0.26872 q 0,-0.30317 0.2532145,-0.4427 0.010335,-0.005 0.010335,-0.0172 0,-0.0121 -0.012058,-0.0189 -0.2514919,-0.13264 -0.2514919,-0.43408 v -0.32556 q 0,-0.28595 0.2187635,-0.4582 0.1998155,-0.15675 0.4960937,-0.15675 0.2928332,0 0.4857585,0.15847 0.2084283,0.17053 0.2084283,0.45648 v 0.17742 H 3.5211263 v -0.16192 q 0,-0.12575 -0.084405,-0.20154 -0.08096,-0.0724 -0.2084283,-0.0724 -0.129191,0 -0.2187635,0.0706 -0.09474,0.0775 -0.09474,0.20326 v 0.23254 q 0,0.14986 0.079237,0.25322 0.08785,0.11196 0.2342664,0.11196 h 0.8199328 q 0.1067979,0 0.2101508,-0.0568 v 0.28766 q -0.056844,0.0465 -0.1756999,0.0465 H 3.9620985 q -0.020671,0 -0.020671,0.0207 v 0.88884 q 0,0.14814 0.089573,0.27216 z m -0.055121,-1.161 q 0,-0.0207 -0.020671,-0.0207 H 3.2282931 q -0.1464165,0 -0.2342664,0.11197 -0.079237,0.10335 -0.079237,0.25494 v 0.23426 q 0,0.12747 0.09474,0.20326 0.089573,0.0706 0.2187635,0.0706 0.1274686,0 0.2153185,-0.0689 0.09474,-0.0758 0.096463,-0.20154 z"
         style="fill:#eeeeee;fill-opacity:1;stroke-width:0.26458332"
         id="path6270"
         inkscape:connector-curvature="0" />
    </g>
    <g
       aria-label="!&amp;"
       style="font-style:normal;font-variant:normal;font-weight:normal;font-stretch:normal;font-size:3.52777767px;line-height:1.25;font-family:Steagisler;-inkscape-font-specification:Steagisler;font-variant-ligatures:normal;font-variant-caps:normal;font-variant-numeric:normal;font-feature-settings:normal;text-align:start;letter-spacing:0px;word-spacing:0px;writing-mode:lr-tb;text-anchor:start;fill:#eeeeee;fill-opacity:1;stroke:none;stroke-width:0.26458332"
       id="text6242"
       transform="translate(0.95004606,12.468247)">
      <path
         d="M 2.9513075,246.85318 H 2.5499539 v -1.96026 h 0.4013536 z m -0.2015381,0.22737 q 0.1050754,0 0.179145,0.0741 0.072347,0.0741 0.072347,0.17743 0,0.10335 -0.072347,0.17742 -0.07407,0.0741 -0.179145,0.0741 -0.1033528,0 -0.1774224,-0.0741 Q 2.5,247.4354 2.5,247.33205 q 0,-0.10336 0.072347,-0.17743 0.07407,-0.0741 0.1774224,-0.0741 z"
         style="fill:#eeeeee;fill-opacity:1;stroke-width:0.26458332"
         id="path6273"
         inkscape:connector-curvature="0" />
      <path
         d="m 4.666965,247.53358 q -0.025838,-0.0551 -0.039619,-0.11885 -0.00345,-0.0121 -0.015503,-0.0155 h -0.00345 q -0.010335,0 -0.017225,0.007 -0.144694,0.17742 -0.4375271,0.17742 -0.2842203,0 -0.4306369,-0.16537 -0.1378038,-0.15847 -0.1378038,-0.44958 v -0.26872 q 0,-0.30317 0.2532145,-0.44269 0.010335,-0.005 0.010335,-0.0172 0,-0.0121 -0.012058,-0.0189 -0.251492,-0.13263 -0.251492,-0.43408 v -0.32556 q 0,-0.28594 0.2187636,-0.4582 0.1998155,-0.15675 0.4960937,-0.15675 0.2928331,0 0.4857584,0.15847 0.2084283,0.17054 0.2084283,0.45648 v 0.17742 H 4.5928955 v -0.16192 q 0,-0.12574 -0.084405,-0.20154 -0.08096,-0.0723 -0.2084283,-0.0723 -0.1291911,0 -0.2187636,0.0706 -0.09474,0.0775 -0.09474,0.20326 v 0.23255 q 0,0.14986 0.079237,0.25321 0.08785,0.11197 0.2342665,0.11197 h 0.8199327 q 0.1067979,0 0.2101508,-0.0568 v 0.28767 q -0.056844,0.0465 -0.1756999,0.0465 h -0.120578 q -0.020671,0 -0.020671,0.0207 v 0.88883 q 0,0.14814 0.089573,0.27216 z m -0.055122,-1.16099 q 0,-0.0207 -0.020671,-0.0207 H 4.3000624 q -0.1464166,0 -0.2342665,0.11196 -0.079237,0.10336 -0.079237,0.25494 v 0.23427 q 0,0.12746 0.09474,0.20326 0.089573,0.0706 0.2187636,0.0706 0.1274685,0 0.2153184,-0.0689 0.09474,-0.0758 0.096463,-0.20154 z"
         style="fill:#eeeeee;fill-opacity:1;stroke-width:0.26458332"
         id="path6275"
         inkscape:connector-curvature="0" />
    </g>
    <path
       style="fill:none;stroke:#383838;stroke-width:0.26458332px;stroke-linecap:butt;stroke-linejoin:miter;stroke-opacity:1"
       d="m 3.632376,252.37889 v -2.33549 h 1.139085 v 2.20311 H 5.432919 4.771461"
       id="path6361"
       inkscape:connector-curvature="0"
       sodipodi:nodetypes="cccccc" />
    <path
       style="fill:none;stroke:#383838;stroke-width:0.26458332px;stroke-linecap:butt;stroke-linejoin:miter;stroke-opacity:1"
       d="m 3.6204112,272.63213 c 2.192449,-4.88524 0.4927,1.03776 1.67533,-0.67979"
       id="path6365"
       inkscape:connector-curvature="0"
       sodipodi:nodetypes="cc" />
    <path
       style="display:inline;fill:none;stroke:#383838;stroke-width:0.26458332px;stroke-linecap:butt;stroke-linejoin:miter;stroke-opacity:1"
       d="m 3.6216498,283.81925 c 2.1924485,-4.88524 0.4927,1.03776 1.6753295,-0.67979"
       id="path6365-2"
       inkscape:connector-curvature="0"
       sodipodi:nodetypes="cc" />
    <path
       style="display:inline;fill:none;stroke:#383838;stroke-width:0.26458332px;stroke-linecap:butt;stroke-linejoin:miter;stroke-opacity:1"
       d="m 3.6310456,262.91651 v -2.33549 h 1.139085 v 2.20311 h 0.661458 -0.661458"
       id="path6361-2"
       inkscape:connector-curvature="0"
       sodipodi:nodetypes="cccccc" />
    <g
       aria-label="max"
       style="font-style:normal;font-variant:normal;font-weight:normal;font-stretch:normal;font-size:3.52777767px;line-height:1.25;font-family:Steagisler;-inkscape-font-specification:Steagisler;font-variant-ligatures:normal;font-variant-caps:normal;font-variant-numeric:normal;font-feature-settings:normal;text-align:end;letter-spacing:0px;word-spacing:0px;writing-mode:lr-tb;text-anchor:end;fill:#eeeeee;fill-opacity:1;stroke:none;stroke-width:0.26458332"
       id="text4568">
      <path
         d="m 3.8203937,268.17583 q 0.00345,0.0155 0.020671,0.0155 0.00689,0 0.01378,-0.007 0.1515842,-0.17398 0.4409722,-0.17398 0.323839,0 0.4719781,0.2136 0.00689,0.009 0.017225,0.009 0.010335,0 0.017226,-0.009 0.1481391,-0.2136 0.4719781,-0.2136 0.2824978,0 0.4323595,0.16365 0.144694,0.15847 0.144694,0.44614 v 1.32464 h -0.396186 v -1.30914 q 0,-0.12575 -0.084405,-0.19982 -0.079237,-0.0723 -0.2067058,-0.0723 -0.125746,0 -0.2067057,0.0723 -0.084405,0.0741 -0.084405,0.19982 v 1.30914 h -0.396186 v -1.30914 q 0,-0.12575 -0.082682,-0.19982 -0.08096,-0.0723 -0.2084283,-0.0723 -0.1257459,0 -0.2067057,0.0723 -0.082682,0.0741 -0.082682,0.19982 v 1.30914 H 3.4999999 v -1.89481 h 0.289388 z"
         style="fill:#eeeeee;fill-opacity:1;stroke-width:0.26458332"
         id="path4624"
         inkscape:connector-curvature="0" />
      <path
         d="M 7.7288545,269.94489 H 7.3223333 q -0.020671,-0.0465 -0.034451,-0.0965 -0.00345,-0.0121 -0.015503,-0.0155 -0.00345,-0.002 -0.00517,-0.002 -0.00689,0 -0.01378,0.007 -0.1498617,0.15503 -0.4220242,0.15503 -0.578776,0 -0.578776,-0.56844 0,-0.34107 0.3479546,-0.47026 0.1653646,-0.062 0.3410644,-0.062 0.1464166,0 0.3014459,0.0431 0.00345,0.002 0.00517,0.002 0.00689,0 0.012058,-0.005 0.00861,-0.005 0.00861,-0.0155 v -0.28077 q 0,-0.12575 -0.09474,-0.20154 -0.08785,-0.0689 -0.2153185,-0.0689 -0.1274685,0 -0.2153185,0.0689 -0.09474,0.0758 -0.09474,0.20154 v 0.0413 H 6.2733017 v -0.0568 q 0,-0.28422 0.2101508,-0.45303 0.1946479,-0.15676 0.4857585,-0.15676 0.2911106,0 0.4857584,0.15676 0.2084283,0.16881 0.2084283,0.45303 v 1.0542 q 0,0.12402 0.065457,0.27044 z m -0.4599202,-0.72003 q 0,-0.0138 -0.01378,-0.0189 -0.1205783,-0.0431 -0.2446018,-0.0431 -0.062012,0 -0.1257459,0.0103 -0.2359891,0.0396 -0.2359891,0.23772 0,0.22909 0.3100586,0.22909 0.1274685,0 0.2153185,-0.0689 0.09474,-0.0758 0.09474,-0.19981 z"
         style="fill:#eeeeee;fill-opacity:1;stroke-width:0.26458332"
         id="path4626"
         inkscape:connector-curvature="0" />
      <path
         d="m 8.6676431,268.71843 q 0.00517,0.0138 0.018948,0.0138 0.01378,0 0.018948,-0.0138 l 0.2325439,-0.66835 h 0.4426948 l -0.4530301,0.96807 0.4530301,0.94224 H 8.9380831 l -0.2325439,-0.64251 q -0.00517,-0.0121 -0.018948,-0.0121 -0.01378,0 -0.018948,0.0121 l -0.2325439,0.64251 H 7.994127 l 0.45303,-0.94224 -0.45303,-0.96807 h 0.4409722 z"
         style="fill:#eeeeee;fill-opacity:1;stroke-width:0.26458332"
         id="path4628"
         inkscape:connector-curvature="0" />
    </g>
    <g
       aria-label="min"
       style="font-style:normal;font-variant:normal;font-weight:normal;font-stretch:normal;font-size:3.52777767px;line-height:1.25;font-family:Steagisler;-inkscape-font-specification:Steagisler;font-variant-ligatures:normal;font-variant-caps:normal;font-variant-numeric:normal;font-feature-settings:normal;text-align:end;letter-spacing:0px;word-spacing:0px;writing-mode:lr-tb;text-anchor:end;fill:#eeeeee;fill-opacity:1;stroke:none;stroke-width:0.26458332"
       id="text4572">
      <path
         d="m 3.8468689,279.41118 q 0.00345,0.0155 0.020671,0.0155 0.00689,0 0.01378,-0.007 0.1515842,-0.17397 0.4409722,-0.17397 0.323839,0 0.4719781,0.21359 0.00689,0.009 0.017225,0.009 0.010335,0 0.017226,-0.009 0.1481391,-0.21359 0.471978,-0.21359 0.2824979,0 0.4323595,0.16364 0.144694,0.15847 0.144694,0.44614 v 1.32464 h -0.396186 v -1.30914 q 0,-0.12575 -0.084405,-0.19981 -0.079237,-0.0723 -0.2067057,-0.0723 -0.125746,0 -0.2067057,0.0723 -0.084405,0.0741 -0.084405,0.19981 v 1.30914 H 4.5031596 v -1.30914 q 0,-0.12575 -0.082682,-0.19981 -0.08096,-0.0723 -0.2084283,-0.0723 -0.125746,0 -0.2067057,0.0723 -0.082682,0.0741 -0.082682,0.19981 v 1.30914 H 3.526475 v -1.89481 h 0.289388 z"
         style="fill:#eeeeee;fill-opacity:1;stroke-width:0.26458332"
         id="path4616"
         inkscape:connector-curvature="0" />
      <path
         d="m 6.6684021,278.53957 q 0.1050754,0 0.1774224,0.0723 0.07407,0.0741 0.07407,0.17742 0,0.10508 -0.07407,0.17915 -0.072347,0.0723 -0.1774224,0.0723 -0.1033529,0 -0.1774224,-0.0723 -0.07407,-0.0741 -0.07407,-0.17915 0,-0.10335 0.07407,-0.17742 0.07407,-0.0723 0.1774224,-0.0723 z m 0.198093,2.64067 h -0.396186 v -1.57269 q 0,-0.0207 -0.020671,-0.0207 H 6.2567132 v -0.30145 h 0.6097819 z"
         style="fill:#eeeeee;fill-opacity:1;stroke-width:0.26458332"
         id="path4618"
         inkscape:connector-curvature="0" />
      <path
         d="m 7.7415494,279.41807 q 0.00345,0.0155 0.022393,0.0155 0.00861,0 0.015503,-0.009 0.1567518,-0.17914 0.4547526,-0.17914 0.2842204,0 0.4409722,0.16192 0.1550293,0.16191 0.1550293,0.44786 v 1.32464 h -0.396186 v -1.30914 q 0,-0.12575 -0.093018,-0.20154 -0.08785,-0.0706 -0.2153185,-0.0706 -0.1291911,0 -0.2153185,0.0706 -0.09474,0.0758 -0.09474,0.20154 v 1.30914 h -0.396186 v -1.89481 h 0.2911106 z"
         style="fill:#eeeeee;fill-opacity:1;stroke-width:0.26458332"
         id="path4620"
         inkscape:connector-curvature="0" />
    </g>
    <text
       xml:space="preserve"
       style="font-style:normal;font-variant:normal;font-weight:normal;font-stretch:normal;font-size:3.52777767px;line-height:1.25;font-family:Steagisler;-inkscape-font-specification:Steagisler;font-variant-ligatures:normal;font-variant-caps:normal;font-variant-numeric:normal;font-feature-settings:normal;text-align:end;letter-spacing:0px;word-spacing:0px;writing-mode:lr-tb;text-anchor:end;fill:#000000;fill-opacity:1;stroke:none;stroke-width:0.26458332"
       x="3.4999998"
       y="225.08"
       id="text4633"><tspan
         sodipodi:role="line"
         id="tspan4631"
         x="3.4999998"
         y="228.26341"
         style="stroke-width:0.26458332" /></text>
    <g
       aria-label="or"
       style="font-style:normal;font-variant:normal;font-weight:normal;font-stretch:normal;font-size:3.52777767px;line-height:1.25;font-family:Steagisler;-inkscape-font-specification:Steagisler;font-variant-ligatures:normal;font-variant-caps:normal;font-variant-numeric:normal;font-feature-settings:normal;text-align:start;letter-spacing:0px;word-spacing:0px;writing-mode:lr-tb;text-anchor:start;fill:#eeeeee;fill-opacity:1;stroke:none;stroke-width:0.26458332"
       id="text4637">
      <path
         d="m 3.5,226.21894 q 0,-0.28422 0.2153185,-0.45303 0.1980929,-0.15675 0.4892035,-0.15675 0.2928331,0 0.4909261,0.15675 0.2153185,0.16881 0.2153185,0.45303 v 0.76309 q 0,0.28422 -0.2153185,0.45475 -0.198093,0.15503 -0.4909261,0.15503 -0.2911106,0 -0.4892035,-0.15503 Q 3.5,227.26625 3.5,226.98203 Z m 1.0145806,0.0155 q 0,-0.12574 -0.09474,-0.20154 -0.08785,-0.0689 -0.2153185,-0.0689 -0.1274685,0 -0.2153185,0.0689 -0.093017,0.0758 -0.093017,0.20154 v 0.73381 q 0,0.12402 0.093017,0.19981 0.08785,0.0706 0.2153185,0.0706 0.1274685,0 0.2153185,-0.0706 0.09474,-0.0758 0.09474,-0.19981 z"
         style="fill:#eeeeee;fill-opacity:1;stroke-width:0.26458332"
         id="path4677"
         inkscape:connector-curvature="0" />
      <path
         d="m 6.1027695,225.97262 q -0.070624,-0.0138 -0.1395263,-0.0172 -0.1291911,0 -0.1860352,0.0689 -0.072347,0.0844 -0.072347,0.21015 v 1.30914 H 5.3086751 v -1.8948 h 0.2911105 l 0.031006,0.13263 q 0.00345,0.0155 0.018948,0.0155 0.01378,0 0.020671,-0.0121 0.015503,-0.0258 0.032728,-0.0482 0.096463,-0.1223 0.2618272,-0.12747 0.1171333,0.002 0.1894803,0.0396 z"
         style="fill:#eeeeee;fill-opacity:1;stroke-width:0.26458332"
         id="path4679"
         inkscape:connector-curvature="0" />
    </g>
    <g
       aria-label="nor"
       style="font-style:normal;font-variant:normal;font-weight:normal;font-stretch:normal;font-size:3.52777767px;line-height:1.25;font-family:Steagisler;-inkscape-font-specification:Steagisler;font-variant-ligatures:normal;font-variant-caps:normal;font-variant-numeric:normal;font-feature-settings:normal;text-align:start;letter-spacing:0px;word-spacing:0px;writing-mode:lr-tb;text-anchor:start;fill:#eeeeee;fill-opacity:1;stroke:none;stroke-width:0.26458332"
       id="text4641">
      <path
         d="m 3.8221163,236.36541 q 0.00345,0.0155 0.022393,0.0155 0.00861,0 0.015503,-0.009 0.1567518,-0.17914 0.4547525,-0.17914 0.2842204,0 0.4409723,0.16192 0.1550292,0.16192 0.1550292,0.44786 v 1.32464 H 4.5145805 v -1.30914 q 0,-0.12574 -0.093018,-0.20154 -0.08785,-0.0706 -0.2153185,-0.0706 -0.129191,0 -0.2153184,0.0706 -0.09474,0.0758 -0.09474,0.20154 v 1.30914 h -0.396186 v -1.8948 h 0.2911105 z"
         style="fill:#eeeeee;fill-opacity:1;stroke-width:0.26458332"
         id="path4682"
         inkscape:connector-curvature="0" />
      <path
         d="m 5.274224,236.80294 q 0,-0.28422 0.2153185,-0.45303 0.198093,-0.15675 0.4892035,-0.15675 0.2928331,0 0.4909261,0.15675 0.2153185,0.16881 0.2153185,0.45303 v 0.76309 q 0,0.28422 -0.2153185,0.45475 -0.198093,0.15503 -0.4909261,0.15503 -0.2911105,0 -0.4892035,-0.15503 -0.2153185,-0.17053 -0.2153185,-0.45475 z m 1.0145806,0.0155 q 0,-0.12574 -0.09474,-0.20154 -0.08785,-0.0689 -0.2153185,-0.0689 -0.1274685,0 -0.2153184,0.0689 -0.093018,0.0758 -0.093018,0.20154 v 0.73381 q 0,0.12402 0.093018,0.19981 0.08785,0.0706 0.2153184,0.0706 0.1274686,0 0.2153185,-0.0706 0.09474,-0.0758 0.09474,-0.19981 z"
         style="fill:#eeeeee;fill-opacity:1;stroke-width:0.26458332"
         id="path4684"
         inkscape:connector-curvature="0" />
      <path
         d="m 7.8769935,236.55662 q -0.070625,-0.0138 -0.1395264,-0.0172 -0.1291911,0 -0.1860351,0.0689 -0.072347,0.0844 -0.072347,0.21015 v 1.30914 H 7.082899 v -1.8948 h 0.2911105 l 0.031006,0.13263 q 0.00345,0.0155 0.018948,0.0155 0.01378,0 0.020671,-0.0121 0.015503,-0.0258 0.032728,-0.0482 0.096463,-0.1223 0.2618273,-0.12747 0.1171332,0.002 0.1894802,0.0396 z"
         style="fill:#eeeeee;fill-opacity:1;stroke-width:0.26458332"
         id="path4686"
         inkscape:connector-curvature="0" />
    </g>
    <path
       style="display:inline;fill:none;stroke:#383838;stroke-width:0.26458332px;stroke-linecap:butt;stroke-linejoin:miter;stroke-opacity:1"
       d="m 3.6357258,241.04047 v -2.33549 h 1.139085 v 2.20311 h 0.661458 -0.661458"
       id="path6361-5"
       inkscape:connector-curvature="0"
       sodipodi:nodetypes="cccccc" />
    <path
       style="display:inline;fill:none;stroke:#383838;stroke-width:0.26458332px;stroke-linecap:butt;stroke-linejoin:miter;stroke-opacity:1"
       d="m 3.6357258,230.45647 v -2.33549 h 1.139085 v 2.20311 h 0.661458 -0.661458"
       id="path6361-5-7"
       inkscape:connector-curvature="0"
       sodipodi:nodetypes="cccccc" />
    <g
       aria-label="treshold"
       style="font-style:normal;font-variant:normal;font-weight:normal;font-stretch:normal;font-size:2.11666656px;line-height:1.25;font-family:Steagisler;-inkscape-font-specification:'Steagisler, Normal';font-variant-ligatures:normal;font-variant-caps:normal;font-variant-numeric:normal;font-feature-settings:normal;text-align:start;letter-spacing:0px;word-spacing:0px;writing-mode:lr-tb;text-anchor:start;display:inline;fill:#383838;fill-opacity:1;stroke:none;stroke-width:0.26458332"
       id="text4697"
       transform="translate(3.0488516)">
      <path
         d="m 3.462793,211.81489 h 0.1364257 q 0.012402,0 0.012402,-0.0124 v -0.29765 h 0.2377116 v 0.29765 q 0,0.0124 0.012402,0.0124 h 0.2201416 v 0.18086 H 3.861735 q -0.012402,0 -0.012402,0.0124 v 0.61805 q 0.00723,0.15502 0.1157552,0.15502 0.051676,0 0.1167887,-0.0124 v 0.18294 q -0.079582,0.0289 -0.1601969,0.0289 -0.3017904,-0.001 -0.3100586,-0.33487 v -0.63768 q 0,-0.0124 -0.012402,-0.0124 H 3.462793 Z"
         style="font-style:normal;font-variant:normal;font-weight:normal;font-stretch:normal;font-size:2.11666656px;font-family:Steagisler;-inkscape-font-specification:'Steagisler, Normal';font-variant-ligatures:normal;font-variant-caps:normal;font-variant-numeric:normal;font-feature-settings:normal;text-align:start;writing-mode:lr-tb;text-anchor:start;fill:#383838;fill-opacity:1;stroke-width:0.26458332"
         id="path5314"
         inkscape:connector-curvature="0" />
      <path
         d="m 4.7970784,212.00919 q -0.042375,-0.008 -0.083716,-0.0103 -0.077515,0 -0.1116211,0.0413 -0.043408,0.0506 -0.043408,0.1261 v 0.78548 H 4.3206217 v -1.13688 H 4.495288 l 0.018603,0.0796 q 0.00207,0.009 0.011369,0.009 0.00827,0 0.012402,-0.007 0.0093,-0.0155 0.019637,-0.0289 0.057878,-0.0734 0.1570964,-0.0765 0.07028,0.001 0.1136881,0.0238 z"
         style="font-style:normal;font-variant:normal;font-weight:normal;font-stretch:normal;font-size:2.11666656px;font-family:Steagisler;-inkscape-font-specification:'Steagisler, Normal';font-variant-ligatures:normal;font-variant-caps:normal;font-variant-numeric:normal;font-feature-settings:normal;text-align:start;writing-mode:lr-tb;text-anchor:start;fill:#383838;fill-opacity:1;stroke-width:0.26458332"
         id="path5316"
         inkscape:connector-curvature="0" />
      <path
         d="m 5.2094563,212.44534 q -0.012402,0 -0.012402,0.0124 v 0.14883 q 0,0.0744 0.056844,0.11989 0.051676,0.0424 0.1291911,0.0424 0.077515,0 0.1343587,-0.0413 0.063045,-0.0465 0.063045,-0.12092 v -0.0248 h 0.2253092 v 0.0331 q 0,0.17053 -0.1291911,0.27285 -0.1188558,0.093 -0.2935221,0.093 -0.1756999,0 -0.2945556,-0.093 -0.1291911,-0.10232 -0.1291911,-0.27285 v -0.45786 q 0,-0.17053 0.1291911,-0.27181 0.1188557,-0.0941 0.2945556,-0.0941 0.1736328,0 0.2883545,0.0941 0.1229899,0.10128 0.1229899,0.27181 v 0.28836 z m -0.012402,-0.17777 q 0,0.0124 0.012402,0.0124 h 0.3462321 q 0.012402,0 0.012402,-0.0124 v -0.10128 q 0,-0.0755 -0.05581,-0.12093 -0.05271,-0.0413 -0.1291911,-0.0413 -0.077515,0 -0.1291911,0.0413 -0.056844,0.0455 -0.056844,0.12093 z"
         style="font-style:normal;font-variant:normal;font-weight:normal;font-stretch:normal;font-size:2.11666656px;font-family:Steagisler;-inkscape-font-specification:'Steagisler, Normal';font-variant-ligatures:normal;font-variant-caps:normal;font-variant-numeric:normal;font-feature-settings:normal;text-align:start;writing-mode:lr-tb;text-anchor:start;fill:#383838;fill-opacity:1;stroke-width:0.26458332"
         id="path5318"
         inkscape:connector-curvature="0" />
      <path
         d="m 6.2812255,212.6169 q 0,0.0724 0.055811,0.11369 0.050643,0.0382 0.125057,0.0382 0.074414,0 0.125057,-0.0382 0.05581,-0.0413 0.05581,-0.11369 0,-0.0754 -0.093018,-0.10335 -0.084749,-0.0248 -0.2005045,-0.0465 -0.1457275,-0.0351 -0.2201416,-0.12195 -0.07338,-0.0879 -0.07338,-0.21601 0,-0.16227 0.1250569,-0.25425 0.1126546,-0.0827 0.2811198,-0.0827 0.1684652,0 0.2811198,0.0827 0.1250569,0.092 0.1250569,0.25425 v 0.061 H 6.6429605 v -0.0362 q 0,-0.0713 -0.05271,-0.11265 -0.047542,-0.0382 -0.1219564,-0.0382 -0.073381,0 -0.1219564,0.0382 -0.05271,0.0413 -0.05271,0.11265 0,0.0765 0.093018,0.10129 0.1178223,0.031 0.2005046,0.0455 0.1353922,0.0289 0.2139404,0.10439 0.079582,0.0744 0.079582,0.21807 0,0.18191 -0.1291911,0.27492 -0.1147217,0.0827 -0.2831868,0.0827 -0.1684652,0 -0.2831869,-0.0827 -0.129191,-0.093 -0.129191,-0.25424 v -0.0631 h 0.2253092 z"
         style="font-style:normal;font-variant:normal;font-weight:normal;font-stretch:normal;font-size:2.11666656px;font-family:Steagisler;-inkscape-font-specification:'Steagisler, Normal';font-variant-ligatures:normal;font-variant-caps:normal;font-variant-numeric:normal;font-feature-settings:normal;text-align:start;writing-mode:lr-tb;text-anchor:start;fill:#383838;fill-opacity:1;stroke-width:0.26458332"
         id="path5320"
         inkscape:connector-curvature="0" />
      <path
         d="m 7.3840005,211.36737 v 0.48266 q 0,0.007 0.00723,0.0103 0.0031,0.002 0.00517,0.002 0.00413,0 0.00723,-0.003 0.09095,-0.0682 0.2315104,-0.0682 0.1705322,0 0.2645833,0.0972 0.093018,0.0971 0.093018,0.26871 v 0.79479 H 7.7550373 v -0.78548 q 0,-0.0755 -0.05581,-0.12093 -0.05271,-0.0424 -0.1291911,-0.0424 -0.077515,0 -0.1291911,0.0424 -0.056844,0.0455 -0.056844,0.12093 v 0.78548 H 7.146289 v -1.5844 z"
         style="font-style:normal;font-variant:normal;font-weight:normal;font-stretch:normal;font-size:2.11666656px;font-family:Steagisler;-inkscape-font-specification:'Steagisler, Normal';font-variant-ligatures:normal;font-variant-caps:normal;font-variant-numeric:normal;font-feature-settings:normal;text-align:start;writing-mode:lr-tb;text-anchor:start;fill:#383838;fill-opacity:1;stroke-width:0.26458332"
         id="path5322"
         inkscape:connector-curvature="0" />
      <path
         d="m 8.2707681,212.15698 q 0,-0.17053 0.129191,-0.27181 0.1188558,-0.0941 0.2935222,-0.0941 0.1756998,0 0.2945556,0.0941 0.1291911,0.10128 0.1291911,0.27181 v 0.45786 q 0,0.17053 -0.1291911,0.27285 -0.1188558,0.093 -0.2945556,0.093 -0.1746664,0 -0.2935222,-0.093 -0.129191,-0.10232 -0.129191,-0.27285 z m 0.6087483,0.009 q 0,-0.0755 -0.056844,-0.12093 -0.05271,-0.0413 -0.129191,-0.0413 -0.076481,0 -0.1291911,0.0413 -0.055811,0.0455 -0.055811,0.12093 v 0.44028 q 0,0.0744 0.055811,0.11989 0.05271,0.0424 0.1291911,0.0424 0.076481,0 0.129191,-0.0424 0.056844,-0.0455 0.056844,-0.11989 z"
         style="font-style:normal;font-variant:normal;font-weight:normal;font-stretch:normal;font-size:2.11666656px;font-family:Steagisler;-inkscape-font-specification:'Steagisler, Normal';font-variant-ligatures:normal;font-variant-caps:normal;font-variant-numeric:normal;font-feature-settings:normal;text-align:start;writing-mode:lr-tb;text-anchor:start;fill:#383838;fill-opacity:1;stroke-width:0.26458332"
         id="path5324"
         inkscape:connector-curvature="0" />
      <path
         d="M 9.6598302,212.95177 H 9.4159174 q -0.033073,-0.0693 -0.033073,-0.154 v -1.4304 H 9.620556 v 1.42213 q 0,0.0744 0.039274,0.16227 z"
         style="font-style:normal;font-variant:normal;font-weight:normal;font-stretch:normal;font-size:2.11666656px;font-family:Steagisler;-inkscape-font-specification:'Steagisler, Normal';font-variant-ligatures:normal;font-variant-caps:normal;font-variant-numeric:normal;font-feature-settings:normal;text-align:start;writing-mode:lr-tb;text-anchor:start;fill:#383838;fill-opacity:1;stroke-width:0.26458332"
         id="path5326"
         inkscape:connector-curvature="0" />
      <path
         d="m 10.759505,212.95177 h -0.242879 q -0.01344,-0.0269 -0.02067,-0.0568 -0.0021,-0.006 -0.0093,-0.008 -0.0021,-0.001 -0.0031,-0.001 -0.0041,0 -0.0083,0.004 -0.09095,0.0909 -0.253215,0.0909 -0.169499,0 -0.2604492,-0.0982 -0.086816,-0.0951 -0.086816,-0.26768 v -0.45786 q 0,-0.17156 0.093018,-0.26768 0.094051,-0.0982 0.2645832,-0.0982 0.14056,0 0.231511,0.0682 0.0031,0.003 0.0072,0.003 0.0021,0 0.0052,-0.002 0.0072,-0.003 0.0072,-0.0103 v -0.48266 h 0.237711 v 1.42213 q 0,0.0744 0.03824,0.16227 z m -0.275952,-0.78548 q 0,-0.0755 -0.05684,-0.12093 -0.05168,-0.0413 -0.129191,-0.0413 -0.07648,0 -0.129191,0.0413 -0.05581,0.0455 -0.05581,0.12093 v 0.44028 q 0,0.0744 0.05581,0.11989 0.05271,0.0424 0.129191,0.0424 0.07751,0 0.129191,-0.0424 0.05684,-0.0455 0.05684,-0.11989 z"
         style="font-style:normal;font-variant:normal;font-weight:normal;font-stretch:normal;font-size:2.11666656px;font-family:Steagisler;-inkscape-font-specification:'Steagisler, Normal';font-variant-ligatures:normal;font-variant-caps:normal;font-variant-numeric:normal;font-feature-settings:normal;text-align:start;writing-mode:lr-tb;text-anchor:start;fill:#383838;fill-opacity:1;stroke-width:0.26458332"
         id="path5328"
         inkscape:connector-curvature="0" />
    </g>
    <g
       aria-label="in.A"
       style="font-style:normal;font-variant:normal;font-weight:normal;font-stretch:normal;font-size:3.52777767px;line-height:1.25;font-family:Steagisler;-inkscape-font-specification:Steagisler;font-variant-ligatures:normal;font-variant-caps:normal;font-variant-numeric:normal;font-feature-settings:normal;text-align:start;letter-spacing:0px;word-spacing:0px;writing-mode:lr-tb;text-anchor:start;fill:#383838;fill-opacity:1;stroke:none;stroke-width:0.26458332"
       id="text4719">
      <path
         d="m 3.9116888,190.05256 q 0.1050754,0 0.1774224,0.0723 0.07407,0.0741 0.07407,0.17743 0,0.10507 -0.07407,0.17914 -0.072347,0.0724 -0.1774224,0.0724 -0.1033529,0 -0.1774225,-0.0724 -0.074069,-0.0741 -0.074069,-0.17914 0,-0.10336 0.074069,-0.17743 0.07407,-0.0723 0.1774225,-0.0723 z m 0.1980929,2.64066 H 3.7135958 v -1.57268 q 0,-0.0207 -0.020671,-0.0207 H 3.4999999 v -0.30145 h 0.6097818 z"
         style="fill:#383838;fill-opacity:1;stroke-width:0.26458332"
         id="path4725" />
      <path
         d="m 4.984836,190.93106 q 0.00345,0.0155 0.022393,0.0155 0.00861,0 0.015503,-0.009 0.1567518,-0.17915 0.4547526,-0.17915 0.2842203,0 0.4409722,0.16192 0.1550293,0.16192 0.1550293,0.44786 v 1.32464 h -0.396186 v -1.30913 q 0,-0.12575 -0.093018,-0.20154 -0.08785,-0.0706 -0.2153184,-0.0706 -0.1291911,0 -0.2153185,0.0706 -0.09474,0.0758 -0.09474,0.20154 v 1.30913 h -0.396186 v -1.8948 h 0.2911106 z"
         style="fill:#383838;fill-opacity:1;stroke-width:0.26458332"
         id="path4727" />
      <path
         d="m 6.6229789,192.24019 q 0.1050754,0 0.179145,0.0741 0.072347,0.0741 0.072347,0.17742 0,0.10336 -0.072347,0.17743 -0.07407,0.0741 -0.179145,0.0741 -0.1033528,0 -0.1774224,-0.0741 -0.072347,-0.0741 -0.072347,-0.17743 0,-0.10335 0.072347,-0.17742 0.07407,-0.0741 0.1774224,-0.0741 z"
         style="fill:#383838;fill-opacity:1;stroke-width:0.26458332"
         id="path4729" />
      <path
         d="m 8.1405433,190.05083 0.5047065,2.64239 H 8.221503 l -0.098185,-0.58566 q -0.00172,-0.0172 -0.020671,-0.0172 H 7.6255015 q -0.018948,0 -0.020671,0.0172 l -0.098185,0.58566 H 7.082899 l 0.5047065,-2.64239 z m -0.4892036,1.6881 q 0,0.0103 0.00517,0.0172 0.00689,0.007 0.017226,0.007 h 0.380683 q 0.010335,0 0.017226,-0.007 0.00345,-0.005 0.00345,-0.0121 v -0.005 l -0.1894803,-1.25574 q -0.00345,-0.0172 -0.022393,-0.0172 -0.017226,0 -0.020671,0.0172 z"
         style="fill:#383838;fill-opacity:1;stroke-width:0.26458332"
         id="path4731" />
    </g>
    <g
       aria-label="in.B"
       style="font-style:normal;font-variant:normal;font-weight:normal;font-stretch:normal;font-size:3.52777767px;line-height:1.25;font-family:Steagisler;-inkscape-font-specification:Steagisler;font-variant-ligatures:normal;font-variant-caps:normal;font-variant-numeric:normal;font-feature-settings:normal;text-align:start;letter-spacing:0px;word-spacing:0px;writing-mode:lr-tb;text-anchor:start;fill:#383838;fill-opacity:1;stroke:none;stroke-width:0.26458332"
       id="text4723">
      <path
         d="m 3.9116888,200.39905 q 0.1050754,0 0.1774224,0.0724 0.07407,0.0741 0.07407,0.17742 0,0.10508 -0.07407,0.17915 -0.072347,0.0723 -0.1774224,0.0723 -0.1033529,0 -0.1774225,-0.0723 -0.074069,-0.0741 -0.074069,-0.17915 0,-0.10335 0.074069,-0.17742 0.07407,-0.0724 0.1774225,-0.0724 z m 0.1980929,2.64067 H 3.7135958 v -1.57269 q 0,-0.0207 -0.020671,-0.0207 H 3.4999999 v -0.30144 h 0.6097818 z"
         style="fill:#383838;fill-opacity:1;stroke-width:0.26458332"
         id="path4734" />
      <path
         d="m 4.984836,201.27755 q 0.00345,0.0155 0.022393,0.0155 0.00861,0 0.015503,-0.009 0.1567518,-0.17914 0.4547526,-0.17914 0.2842203,0 0.4409722,0.16192 0.1550293,0.16192 0.1550293,0.44786 v 1.32464 h -0.396186 v -1.30914 q 0,-0.12574 -0.093018,-0.20154 -0.08785,-0.0706 -0.2153184,-0.0706 -0.1291911,0 -0.2153185,0.0706 -0.09474,0.0758 -0.09474,0.20154 v 1.30914 h -0.396186 v -1.8948 h 0.2911106 z"
         style="fill:#383838;fill-opacity:1;stroke-width:0.26458332"
         id="path4736" />
      <path
         d="m 6.6229789,202.58669 q 0.1050754,0 0.179145,0.0741 0.072347,0.0741 0.072347,0.17742 0,0.10335 -0.072347,0.17742 -0.07407,0.0741 -0.179145,0.0741 -0.1033528,0 -0.1774224,-0.0741 -0.072347,-0.0741 -0.072347,-0.17742 0,-0.10335 0.072347,-0.17742 0.07407,-0.0741 0.1774224,-0.0741 z"
         style="fill:#383838;fill-opacity:1;stroke-width:0.26458332"
         id="path4738" />
      <path
         d="m 7.2947724,200.39733 h 0.7355278 q 0.3014459,0 0.4978163,0.16709 0.2135959,0.17053 0.2135959,0.44786 v 0.24977 q 0,0.29628 -0.2514919,0.43064 -0.012058,0.005 -0.012058,0.0172 0.00172,0.0138 0.012058,0.0189 0.2859429,0.13091 0.2859429,0.44614 v 0.24805 q 0,0.28766 -0.2256538,0.45819 -0.2084282,0.15676 -0.5150417,0.15676 l -0.7406955,0.002 z m 0.4168565,2.26343 q 0,0.0207 0.020671,0.0207 h 0.3031684 q 0.1343587,0 0.2256537,-0.0706 0.099908,-0.0758 0.099908,-0.20153 v -0.16881 q 0,-0.14987 -0.082682,-0.25322 -0.091295,-0.11369 -0.2428792,-0.11369 H 7.7322995 q -0.020671,0 -0.020671,0.0207 z m 0,-1.13516 q 0,0.0207 0.020671,0.0207 h 0.2687174 q 0.1515842,0 0.2428793,-0.11369 0.082682,-0.10335 0.082682,-0.25321 v -0.15159 q 0,-0.12402 -0.098185,-0.20154 -0.089572,-0.0706 -0.2222086,-0.0706 H 7.7322995 q -0.020671,0 -0.020671,0.0207 z"
         style="fill:#383838;fill-opacity:1;stroke-width:0.26458332"
         id="path4740" />
    </g>
    <path
       style="opacity:0.97000002;fill:#383838;fill-opacity:1;stroke:none;stroke-width:0.40000001;stroke-linecap:butt;stroke-miterlimit:4;stroke-dasharray:none;stroke-dashoffset:0;stroke-opacity:1;paint-order:normal"
       d="m 10.168929,205.25613 c -0.2683952,-0.002 0.0032,1.24884 -0.2563142,1.31729 -0.259524,0.0684 -0.6394967,-1.15292 -0.8724637,-1.01964 -0.2329657,0.13328 0.6274257,1.07997 0.4368937,1.26901 -0.1905327,0.18904 -1.1302551,-0.67873 -1.2653691,-0.44681 -0.135114,0.23191 1.0831794,0.62142 1.0126914,0.8804 -0.07049,0.25897 -1.3182204,-0.0226 -1.3192774,0.24572 -0.0011,0.2684 1.2488494,-0.004 1.3172934,0.256 0.06845,0.25952 -1.1529194,0.63982 -1.0196364,0.87279 0.133282,0.23297 1.0799694,-0.62743 1.2690061,-0.4369 0.189038,0.19054 -0.6787234,1.13026 -0.4468147,1.26537 0.231909,0.13512 0.6214237,-1.08318 0.8804007,-1.01269 l 0.5017152,0.002 c 0.259525,-0.0685 0.639497,1.15292 0.872464,1.01964 0.232967,-0.13329 -0.627095,-1.07997 -0.436563,-1.26901 0.190533,-0.18904 1.130256,0.67872 1.26537,0.44681 0.135113,-0.2319 -1.08318,-0.62141 -1.012692,-0.8804 0.07049,-0.25897 1.318221,0.0226 1.319278,-0.24573 0.0011,-0.2684 -1.248849,0.003 -1.317294,-0.25631 -0.06845,-0.25953 1.152921,-0.6395 1.019638,-0.87246 -0.133282,-0.23297 -1.07997,0.62741 -1.269008,0.43688 -0.189037,-0.19052 0.678725,-1.13025 0.446815,-1.26536 -0.231909,-0.13511 -0.621424,1.08318 -0.880401,1.01269 -0.258977,-0.0705 0.02266,-1.31822 -0.245732,-1.31928 z"
       id="path4743"
       inkscape:connector-curvature="0"
       sodipodi:nodetypes="cccsscccscccccsscccsccscc" />
    <g
       aria-label="0V"
       style="font-style:normal;font-variant:normal;font-weight:normal;font-stretch:normal;font-size:1.41111112px;line-height:1.25;font-family:Steagisler;-inkscape-font-specification:'Steagisler, Normal';font-variant-ligatures:normal;font-variant-caps:normal;font-variant-numeric:normal;font-feature-settings:normal;text-align:start;letter-spacing:0px;word-spacing:0px;writing-mode:lr-tb;text-anchor:start;fill:#383838;fill-opacity:1;stroke:none;stroke-width:0.26458332"
       id="text5898">
      <path
         d="m 6.5401423,209.52211 q 0,-0.14745 0.088194,-0.23427 0.079237,-0.0785 0.1936144,-0.0785 0.1150661,0 0.1943033,0.0785 0.088195,0.0868 0.088195,0.23427 v 0.4706 q 0,0.14745 -0.088195,0.23427 -0.079237,0.0786 -0.1943033,0.0786 -0.1143772,0 -0.1936144,-0.0786 -0.088194,-0.0868 -0.088194,-0.23427 z m 0.4058323,-0.008 q 0,-0.0675 -0.027561,-0.11093 -0.033073,-0.0503 -0.096463,-0.0503 -0.06339,0 -0.095774,0.051 -0.027561,0.0427 -0.027561,0.11024 v 0.48714 q 0,0.0675 0.027561,0.11024 0.032384,0.051 0.095774,0.051 h 0.00207 q 0.062012,0 0.094396,-0.0503 0.027561,-0.0434 0.027561,-0.11093 z"
         style="font-style:normal;font-variant:normal;font-weight:normal;font-stretch:normal;font-size:1.41111112px;font-family:Steagisler;-inkscape-font-specification:'Steagisler, Normal';font-variant-ligatures:normal;font-variant-caps:normal;font-variant-numeric:normal;font-feature-settings:normal;text-align:start;writing-mode:lr-tb;text-anchor:start;fill:#383838;fill-opacity:1;stroke-width:0.26458332"
         id="path5917" />
      <path
         d="m 7.2801489,209.22239 h 0.1694987 l 0.1343587,0.8847 q 0.00138,0.007 0.00827,0.007 0.00758,0 0.00896,-0.007 l 0.1343587,-0.8847 h 0.1694987 l -0.1949924,1.05695 H 7.4751413 Z"
         style="font-style:normal;font-variant:normal;font-weight:normal;font-stretch:normal;font-size:1.41111112px;font-family:Steagisler;-inkscape-font-specification:'Steagisler, Normal';font-variant-ligatures:normal;font-variant-caps:normal;font-variant-numeric:normal;font-feature-settings:normal;text-align:start;writing-mode:lr-tb;text-anchor:start;fill:#383838;fill-opacity:1;stroke-width:0.26458332"
         id="path5919" />
    </g>
    <g
       aria-label="10V"
       style="font-style:normal;font-variant:normal;font-weight:normal;font-stretch:normal;font-size:1.41111112px;line-height:1.25;font-family:Steagisler;-inkscape-font-specification:'Steagisler, Normal';font-variant-ligatures:normal;font-variant-caps:normal;font-variant-numeric:normal;font-feature-settings:normal;text-align:start;letter-spacing:0px;word-spacing:0px;writing-mode:lr-tb;text-anchor:start;fill:#383838;fill-opacity:1;stroke:none;stroke-width:0.26458332"
       id="text5902">
      <path
         d="m 12.414911,210.28554 v -0.13435 h 0.110932 q 0.0083,0 0.0083,-0.008 v -0.77102 q 0,-0.008 -0.0083,-0.008 h -0.110932 v -0.0985 l 0.190859,-0.0365 h 0.08819 v 0.91364 q 0,0.008 0.0083,0.008 h 0.110932 v 0.13435 z"
         style="font-style:normal;font-variant:normal;font-weight:normal;font-stretch:normal;font-size:1.41111112px;font-family:Steagisler;-inkscape-font-specification:'Steagisler, Normal';font-variant-ligatures:normal;font-variant-caps:normal;font-variant-numeric:normal;font-feature-settings:normal;text-align:start;writing-mode:lr-tb;text-anchor:start;fill:#383838;fill-opacity:1;stroke-width:0.26458332"
         id="path5910" />
      <path
         d="m 13.026071,209.52211 q 0,-0.14745 0.0882,-0.23427 0.07924,-0.0785 0.193614,-0.0785 0.115066,0 0.194304,0.0785 0.08819,0.0868 0.08819,0.23427 v 0.4706 q 0,0.14745 -0.08819,0.23427 -0.07924,0.0786 -0.194304,0.0786 -0.114377,0 -0.193614,-0.0786 -0.0882,-0.0868 -0.0882,-0.23427 z m 0.405833,-0.008 q 0,-0.0675 -0.02756,-0.11093 -0.03307,-0.0503 -0.09646,-0.0503 -0.06339,0 -0.09577,0.051 -0.02756,0.0427 -0.02756,0.11024 v 0.48714 q 0,0.0675 0.02756,0.11024 0.03238,0.051 0.09577,0.051 h 0.0021 q 0.06201,0 0.0944,-0.0503 0.02756,-0.0434 0.02756,-0.11093 z"
         style="font-style:normal;font-variant:normal;font-weight:normal;font-stretch:normal;font-size:1.41111112px;font-family:Steagisler;-inkscape-font-specification:'Steagisler, Normal';font-variant-ligatures:normal;font-variant-caps:normal;font-variant-numeric:normal;font-feature-settings:normal;text-align:start;writing-mode:lr-tb;text-anchor:start;fill:#383838;fill-opacity:1;stroke-width:0.26458332"
         id="path5912" />
      <path
         d="m 13.766078,209.22239 h 0.169499 l 0.134358,0.8847 q 0.0014,0.007 0.0083,0.007 0.0076,0 0.009,-0.007 l 0.134359,-0.8847 h 0.169498 l -0.194992,1.05695 H 13.96107 Z"
         style="font-style:normal;font-variant:normal;font-weight:normal;font-stretch:normal;font-size:1.41111112px;font-family:Steagisler;-inkscape-font-specification:'Steagisler, Normal';font-variant-ligatures:normal;font-variant-caps:normal;font-variant-numeric:normal;font-feature-settings:normal;text-align:start;writing-mode:lr-tb;text-anchor:start;fill:#383838;fill-opacity:1;stroke-width:0.26458332"
         id="path5914" />
    </g>
  </g>
  <g
     inkscape:groupmode="layer"
     id="layer2"
     inkscape:label="components"
     style="display:none">
    <circle
       style="display:inline;opacity:1;fill:#0000ff;fill-opacity:1;stroke:none;stroke-width:0.39999998;stroke-linecap:butt;stroke-miterlimit:4;stroke-dasharray:none;stroke-dashoffset:0;stroke-opacity:1;paint-order:normal"
       id="path4623"
       cx="12.805832"
       cy="106.96"
       inkscape:label="MIN"
       r="2.5400002" />
    <circle
       style="display:inline;opacity:1;fill:#00ff00;fill-opacity:1;stroke:none;stroke-width:0.39999998;stroke-linecap:butt;stroke-miterlimit:4;stroke-dasharray:none;stroke-dashoffset:0;stroke-opacity:1;paint-order:normal"
       id="path4623-5"
       cx="12.805832"
       cy="18.48167"
       inkscape:label="INA"
       r="2.5400004" />
    <circle
       style="display:inline;opacity:1;fill:#00ff00;fill-opacity:1;stroke:none;stroke-width:0.39999998;stroke-linecap:butt;stroke-miterlimit:4;stroke-dasharray:none;stroke-dashoffset:0;stroke-opacity:1;paint-order:normal"
       id="path4623-5-7"
       cx="12.805832"
       cy="28.828163"
       inkscape:label="INB"
       r="2.5400004"
       inkscape:transform-center-x="-4.2522322"
       inkscape:transform-center-y="-1.8898782" />
    <circle
       style="display:inline;opacity:1;fill:#0000ff;fill-opacity:1;stroke:none;stroke-width:0.39999998;stroke-linecap:butt;stroke-miterlimit:4;stroke-dasharray:none;stroke-dashoffset:0;stroke-opacity:1;paint-order:normal"
       id="path4623-5-7-5"
       cx="12.805832"
       cy="75.208"
       inkscape:label="AND"
       r="2.5400004"
       inkscape:transform-center-x="-4.2522322"
       inkscape:transform-center-y="-1.8898782" />
    <circle
       style="display:inline;opacity:1;fill:#0000ff;fill-opacity:1;stroke:none;stroke-width:0.39999998;stroke-linecap:butt;stroke-miterlimit:4;stroke-dasharray:none;stroke-dashoffset:0;stroke-opacity:1;paint-order:normal"
       id="path4623-5-7-2"
       cx="12.805832"
       cy="85.792"
       inkscape:label="NAND"
       r="2.5400004"
       inkscape:transform-center-x="-4.2522322"
       inkscape:transform-center-y="-1.8898782" />
    <circle
       style="display:inline;opacity:1;fill:#0000ff;fill-opacity:1;stroke:none;stroke-width:0.39999998;stroke-linecap:butt;stroke-miterlimit:4;stroke-dasharray:none;stroke-dashoffset:0;stroke-opacity:1;paint-order:normal"
       id="path4623-5-7-2-5"
       cx="12.805832"
       cy="96.375999"
       inkscape:label="MAX"
       r="2.5400004"
       inkscape:transform-center-x="-4.2522322"
       inkscape:transform-center-y="-1.8898782" />
    <circle
       style="display:inline;opacity:1;fill:#0000ff;fill-opacity:1;stroke:none;stroke-width:0.39999998;stroke-linecap:butt;stroke-miterlimit:4;stroke-dasharray:none;stroke-dashoffset:0;stroke-opacity:1;paint-order:normal"
       id="path4623-5-7-5-7"
       cx="12.805832"
       cy="54.040001"
       inkscape:label="OR"
       r="2.5400004"
       inkscape:transform-center-x="-4.2522322"
       inkscape:transform-center-y="-1.8898782" />
    <circle
       style="display:inline;opacity:1;fill:#0000ff;fill-opacity:1;stroke:none;stroke-width:0.39999998;stroke-linecap:butt;stroke-miterlimit:4;stroke-dasharray:none;stroke-dashoffset:0;stroke-opacity:1;paint-order:normal"
       id="path4623-5-7-5-7-7"
       cx="12.805832"
       cy="64.624001"
       inkscape:label="NOR"
       r="2.5400004"
       inkscape:transform-center-x="-4.2522322"
       inkscape:transform-center-y="-1.8898782" />
    <circle
       style="opacity:0.97000002;fill:#ff0000;fill-opacity:1;stroke:none;stroke-width:0.40000001;stroke-linecap:butt;stroke-miterlimit:4;stroke-dasharray:none;stroke-dashoffset:0;stroke-opacity:1;paint-order:normal"
       id="path4693"
       cx="10.160001"
       cy="39"
       r="1.7984338"
       inkscape:label="TRESHOLD" />
    <circle
       style="opacity:0.97000002;fill:#ff00ff;fill-opacity:1;stroke:none;stroke-width:0.40000001;stroke-linecap:butt;stroke-miterlimit:4;stroke-dasharray:none;stroke-dashoffset:0;stroke-opacity:1;paint-order:normal"
       id="path4629"
       cx="6"
       cy="54.040001"
       r="1"
       inkscape:label="LEDOR" />
    <circle
       style="display:inline;opacity:0.97000002;fill:#ff00ff;fill-opacity:1;stroke:none;stroke-width:0.40000001;stroke-linecap:butt;stroke-miterlimit:4;stroke-dasharray:none;stroke-dashoffset:0;stroke-opacity:1;paint-order:normal"
       id="path4629-9"
       cx="6"
       cy="64.624001"
       r="1"
       inkscape:label="LEDNOR" />
    <circle
       style="display:inline;opacity:0.97000002;fill:#ff00ff;fill-opacity:1;stroke:none;stroke-width:0.40000001;stroke-linecap:butt;stroke-miterlimit:4;stroke-dasharray:none;stroke-dashoffset:0;stroke-opacity:1;paint-order:normal"
       id="path4629-9-9"
       cx="6"
       cy="75.208"
       r="1"
       inkscape:label="LEDAND" />
    <circle
       style="display:inline;opacity:0.97000002;fill:#ff00ff;fill-opacity:1;stroke:none;stroke-width:0.40000001;stroke-linecap:butt;stroke-miterlimit:4;stroke-dasharray:none;stroke-dashoffset:0;stroke-opacity:1;paint-order:normal"
       id="path4629-9-9-9"
       cx="6"
       cy="85.792"
       r="1"
       inkscape:label="LEDNAND" />
    <circle
       style="display:inline;opacity:0.97000002;fill:#ff00ff;fill-opacity:1;stroke:none;stroke-width:0.40000001;stroke-linecap:butt;stroke-miterlimit:4;stroke-dasharray:none;stroke-dashoffset:0;stroke-opacity:1;paint-order:normal"
       id="path4629-9-9-2"
       cx="6"
       cy="96.375999"
       r="1"
       inkscape:label="LEDMAX" />
    <circle
       style="display:inline;opacity:0.97000002;fill:#ff00ff;fill-opacity:1;stroke:none;stroke-width:0.40000001;stroke-linecap:butt;stroke-miterlimit:4;stroke-dasharray:none;stroke-dashoffset:0;stroke-opacity:1;paint-order:normal"
       id="path4629-9-9-2-0"
       cx="6"
       cy="106.96"
       r="1"
       inkscape:label="LEDMIN" />
  </g>
</svg>
