<?xml version="1.0" encoding="UTF-8" standalone="no"?>
<!-- Created with Inkscape (http://www.inkscape.org/) -->

<svg
   xmlns:osb="http://www.openswatchbook.org/uri/2009/osb"
   xmlns:dc="http://purl.org/dc/elements/1.1/"
   xmlns:cc="http://creativecommons.org/ns#"
   xmlns:rdf="http://www.w3.org/1999/02/22-rdf-syntax-ns#"
   xmlns:svg="http://www.w3.org/2000/svg"
   xmlns="http://www.w3.org/2000/svg"
   xmlns:sodipodi="http://sodipodi.sourceforge.net/DTD/sodipodi-0.dtd"
   xmlns:inkscape="http://www.inkscape.org/namespaces/inkscape"
   width="10.16mm"
   height="128.5mm"
   viewBox="0 0 10.16 128.49999"
   version="1.1"
   id="svg8"
   inkscape:version="0.92.1 r15371"
   sodipodi:docname="MiniLFO.svg">
  <defs
     id="defs2">
    <inkscape:path-effect
       effect="bspline"
       id="path-effect9253"
       is_visible="true"
       weight="33.333333"
       steps="2"
       helper_size="0"
       apply_no_weight="true"
       apply_with_weight="true"
       only_selected="false" />
    <inkscape:path-effect
       effect="bspline"
       id="path-effect9249"
       is_visible="true"
       weight="33.333333"
       steps="2"
       helper_size="0"
       apply_no_weight="true"
       apply_with_weight="true"
       only_selected="false" />
    <inkscape:path-effect
       effect="bspline"
       id="path-effect9188"
       is_visible="true"
       weight="33.333333"
       steps="2"
       helper_size="0"
       apply_no_weight="true"
       apply_with_weight="true"
       only_selected="false" />
    <inkscape:path-effect
       effect="bspline"
       id="path-effect9174"
       is_visible="true"
       weight="33.333333"
       steps="2"
       helper_size="0"
       apply_no_weight="true"
       apply_with_weight="true"
       only_selected="false" />
    <inkscape:path-effect
       effect="simplify"
       id="path-effect5498"
       is_visible="true"
       steps="1"
       threshold="0.000408163"
       smooth_angles="360"
       helper_size="0"
       simplify_individual_paths="false"
       simplify_just_coalesce="false"
       simplifyindividualpaths="false"
       simplifyJustCoalesce="false" />
    <inkscape:path-effect
       effect="simplify"
       id="path-effect5494"
       is_visible="true"
       steps="1"
       threshold="0.000408163"
       smooth_angles="360"
       helper_size="0"
       simplify_individual_paths="false"
       simplify_just_coalesce="false"
       simplifyindividualpaths="false"
       simplifyJustCoalesce="false" />
    <inkscape:path-effect
       effect="bspline"
       id="path-effect9188-6"
       is_visible="true"
       weight="33.333333"
       steps="2"
       helper_size="0"
       apply_no_weight="true"
       apply_with_weight="true"
       only_selected="false" />
    <inkscape:path-effect
       effect="bspline"
       id="path-effect9188-6-5"
       is_visible="true"
       weight="33.333333"
       steps="2"
       helper_size="0"
       apply_no_weight="true"
       apply_with_weight="true"
       only_selected="false" />
    <inkscape:path-effect
       effect="bspline"
       id="path-effect9188-6-5-1"
       is_visible="true"
       weight="33.333333"
       steps="2"
       helper_size="0"
       apply_no_weight="true"
       apply_with_weight="true"
       only_selected="false" />
    <inkscape:path-effect
       effect="bspline"
       id="path-effect9188-6-5-9"
       is_visible="true"
       weight="33.333333"
       steps="2"
       helper_size="0"
       apply_no_weight="true"
       apply_with_weight="true"
       only_selected="false" />
    <clipPath
       id="clip89">
      <rect
         id="rect4864"
         height="19"
         width="18"
         x="0"
         y="0" />
    </clipPath>
    <clipPath
       id="clip90">
      <path
         id="path4861"
         d="m 0.898438,0.128906 h 16.25 v 17.882813 h -16.25 z m 0,0"
         inkscape:connector-curvature="0" />
    </clipPath>
    <mask
       id="mask44">
      <g
         transform="matrix(0.26458333,0,0,0.26458333,89.358789,128.57765)"
         id="g4858"
         style="filter:url(#alpha)">
        <rect
           id="rect4856"
           style="fill:#000000;fill-opacity:0.14999402;stroke:none"
           height="3351.5"
           width="3052.8701"
           y="0"
           x="0" />
      </g>
    </mask>
    <filter
       height="1"
       width="1"
       y="0"
       x="0"
       filterUnits="objectBoundingBox"
       id="alpha">
      <feColorMatrix
         id="feColorMatrix4149"
         values="0 0 0 0 1 0 0 0 0 1 0 0 0 0 1 0 0 0 1 0"
         in="SourceGraphic"
         type="matrix" />
    </filter>
    <clipPath
       id="clipPath17821">
      <rect
         id="rect17819"
         height="19"
         width="18"
         x="0"
         y="0" />
    </clipPath>
    <clipPath
       id="clipPath17825">
      <path
         id="path17823"
         d="m 0.898438,0.128906 h 16.25 v 17.882813 h -16.25 z m 0,0"
         inkscape:connector-curvature="0" />
    </clipPath>
    <clipPath
       id="clip87">
      <rect
         id="rect4848"
         height="26"
         width="24"
         x="0"
         y="0" />
    </clipPath>
    <clipPath
       id="clip88">
      <path
         id="path4845"
         d="m 0.683594,0.921875 h 22.679687 v 24.9375 H 0.683594 Z m 0,0"
         inkscape:connector-curvature="0" />
    </clipPath>
    <mask
       id="mask43">
      <g
         transform="matrix(0.26458333,0,0,0.26458333,89.358789,128.57765)"
         id="g4842"
         style="filter:url(#alpha)">
        <rect
           id="rect4840"
           style="fill:#000000;fill-opacity:0.14999402;stroke:none"
           height="3351.5"
           width="3052.8701"
           y="0"
           x="0" />
      </g>
    </mask>
    <filter
       height="1"
       width="1"
       y="0"
       x="0"
       filterUnits="objectBoundingBox"
       id="filter17836">
      <feColorMatrix
         id="feColorMatrix17834"
         values="0 0 0 0 1 0 0 0 0 1 0 0 0 0 1 0 0 0 1 0"
         in="SourceGraphic"
         type="matrix" />
    </filter>
    <clipPath
       id="clipPath17840">
      <rect
         id="rect17838"
         height="26"
         width="24"
         x="0"
         y="0" />
    </clipPath>
    <clipPath
       id="clipPath17844">
      <path
         id="path17842"
         d="m 0.683594,0.921875 h 22.679687 v 24.9375 H 0.683594 Z m 0,0"
         inkscape:connector-curvature="0" />
    </clipPath>
    <linearGradient
       id="linearGradient8459-9"
       osb:paint="gradient">
      <stop
         style="stop-color:#000000;stop-opacity:1;"
         offset="0"
         id="stop8470" />
      <stop
         style="stop-color:#000000;stop-opacity:0;"
         offset="1"
         id="stop8472" />
    </linearGradient>
    <linearGradient
       id="linearGradient8459"
       osb:paint="gradient">
      <stop
         style="stop-color:#ffffff;stop-opacity:1;"
         offset="0"
         id="stop8465" />
      <stop
         style="stop-color:#000000;stop-opacity:0;"
         offset="1"
         id="stop8467" />
    </linearGradient>
    <inkscape:path-effect
       simplifyJustCoalesce="false"
       simplifyindividualpaths="false"
       simplify_just_coalesce="false"
       simplify_individual_paths="false"
       helper_size="0"
       smooth_angles="360"
       threshold="0.0001"
       steps="1"
       is_visible="true"
       id="path-effect4534"
       effect="simplify" />
  </defs>
  <sodipodi:namedview
     id="base"
     pagecolor="#262626"
     bordercolor="#666666"
     borderopacity="1.0"
     inkscape:pageopacity="0"
     inkscape:pageshadow="2"
     inkscape:zoom="5.6568543"
     inkscape:cx="80.381222"
     inkscape:cy="400.86803"
     inkscape:document-units="mm"
     inkscape:current-layer="layer7"
     showgrid="false"
     inkscape:window-width="1858"
     inkscape:window-height="1057"
     inkscape:window-x="-8"
     inkscape:window-y="-8"
     inkscape:window-maximized="1"
     showguides="true"
     inkscape:snap-grids="false"
     inkscape:guide-bbox="true"
     inkscape:snap-bbox="true"
     inkscape:bbox-paths="true"
     inkscape:snap-bbox-edge-midpoints="true"
     inkscape:bbox-nodes="true"
     inkscape:snap-bbox-midpoints="true"
     inkscape:lockguides="false"
     units="mm"
     width="20.32mm">
    <inkscape:grid
       type="xygrid"
       id="grid31" />
    <sodipodi:guide
       position="0.99999995,101.81734"
       orientation="1,0"
       id="guide4972"
       inkscape:locked="false"
       inkscape:label=""
       inkscape:color="rgb(0,0,255)" />
    <sodipodi:guide
       position="5.0800044,110"
       orientation="0,1"
       id="guide7786"
       inkscape:locked="false"
       inkscape:label=""
       inkscape:color="rgb(0,0,255)" />
    <sodipodi:guide
       position="18.869303,13"
       orientation="0,1"
       id="guide7930"
       inkscape:locked="false"
       inkscape:label=""
       inkscape:color="rgb(0,0,255)" />
    <sodipodi:guide
       position="12.027128,116"
       orientation="0,1"
       id="guide7992"
       inkscape:locked="false" />
    <sodipodi:guide
       position="0,0"
       orientation="0,76.799999"
       id="guide5248"
       inkscape:locked="false" />
    <sodipodi:guide
       position="20.319999,128.49999"
       orientation="0,-76.799999"
       id="guide5252"
       inkscape:locked="false" />
    <sodipodi:guide
       position="0,128.49999"
       orientation="485.66929,0"
       id="guide5254"
       inkscape:locked="false" />
    <sodipodi:guide
       position="-29.633333,116"
       orientation="0,1"
       id="guide5256"
       inkscape:locked="false" />
    <sodipodi:guide
       position="9.8210023,5.0499697"
       orientation="0,1"
       id="guide5258"
       inkscape:locked="false" />
    <sodipodi:guide
       position="1531.9999,103.08585"
       orientation="1,0"
       id="guide5262"
       inkscape:locked="false"
       inkscape:label=""
       inkscape:color="rgb(0,0,255)" />
    <sodipodi:guide
       position="5.079998,20"
       orientation="0,1"
       id="guide5330"
       inkscape:locked="false"
       inkscape:label=""
       inkscape:color="rgb(0,0,255)" />
    <sodipodi:guide
       position="0,0"
       orientation="0,115.2"
       id="guide4605"
       inkscape:locked="false" />
    <sodipodi:guide
       position="30.479999,128.5"
       orientation="0,-115.2"
       id="guide4609"
       inkscape:locked="false" />
    <sodipodi:guide
       position="0,128.5"
       orientation="485.66929,0"
       id="guide4611"
       inkscape:locked="false" />
    <sodipodi:guide
       position="10.16,78.297454"
       orientation="1,0"
       id="guide5647"
       inkscape:locked="false"
       inkscape:label=""
       inkscape:color="rgb(0,0,255)" />
    <sodipodi:guide
       position="12.815574,12"
       orientation="0,1"
       id="guide5649"
       inkscape:locked="false"
       inkscape:label=""
       inkscape:color="rgb(0,0,255)" />
    <sodipodi:guide
       position="25.036199,115"
       orientation="0,1"
       id="guide6997"
       inkscape:locked="false"
       inkscape:label=""
       inkscape:color="rgb(0,0,255)" />
    <sodipodi:guide
       position="2,111.65416"
       orientation="1,0"
       id="guide7005"
       inkscape:locked="false"
       inkscape:label=""
       inkscape:color="rgb(0,0,255)" />
    <sodipodi:guide
       position="6.0000002,107"
       orientation="0,1"
       id="guide8379"
       inkscape:locked="false" />
    <sodipodi:guide
       position="5.08,32"
       orientation="0,1"
       id="guide8999"
       inkscape:locked="false"
       inkscape:label=""
       inkscape:color="rgb(0,0,255)" />
    <sodipodi:guide
       position="12.633855,44"
       orientation="0,1"
       id="guide9005"
       inkscape:locked="false"
       inkscape:label=""
       inkscape:color="rgb(0,0,255)" />
    <sodipodi:guide
       position="20.968229,56"
       orientation="0,1"
       id="guide9022"
       inkscape:locked="false"
       inkscape:label=""
       inkscape:color="rgb(0,0,255)" />
    <sodipodi:guide
       position="17.866969,57.999999"
       orientation="0,1"
       id="guide9024"
       inkscape:locked="false"
       inkscape:label=""
       inkscape:color="rgb(0,0,255)" />
    <sodipodi:guide
       position="18.428235,58.999999"
       orientation="0,1"
       id="guide9026"
       inkscape:locked="false"
       inkscape:label=""
       inkscape:color="rgb(0,0,255)" />
    <sodipodi:guide
       position="2.7490887,48.910659"
       orientation="0,1"
       id="guide9114"
       inkscape:locked="false" />
    <sodipodi:guide
       position="2.7523171,47.089965"
       orientation="0,1"
       id="guide9116"
       inkscape:locked="false" />
    <sodipodi:guide
       position="12.352999,119.82203"
       orientation="0,1"
       id="guide9158"
       inkscape:locked="false" />
    <sodipodi:guide
       position="10.16,103"
       orientation="0,1"
       id="guide9164"
       inkscape:locked="false"
       inkscape:label=""
       inkscape:color="rgb(0,0,255)" />
    <sodipodi:guide
       position="12.581713,62"
       orientation="0,1"
       id="guide9166"
       inkscape:locked="false"
       inkscape:label="#"
       inkscape:color="rgb(0,0,255)" />
    <sodipodi:guide
       position="5.08,89.666665"
       orientation="1,0"
       id="guide9168"
       inkscape:locked="false"
       inkscape:label=""
       inkscape:color="rgb(0,0,255)" />
    <sodipodi:guide
       position="10.16,83"
       orientation="0,1"
       id="guide9176"
       inkscape:locked="false"
       inkscape:label=""
       inkscape:color="rgb(0,0,255)" />
    <sodipodi:guide
       position="10.16,767"
       orientation="0,1"
       id="guide9178"
       inkscape:locked="false"
       inkscape:label=""
       inkscape:color="rgb(0,0,255)" />
    <sodipodi:guide
       position="10.16,63"
       orientation="0,1"
       id="guide9180"
       inkscape:locked="false"
       inkscape:label="Mistral"
       inkscape:color="rgb(0,0,255)" />
    <sodipodi:guide
       position="-82.038387,109.72019"
       orientation="1,0"
       id="guide9308"
       inkscape:locked="false" />
    <sodipodi:guide
       position="9.16,92.88952"
       orientation="1,0"
       id="guide9310"
       inkscape:locked="false"
       inkscape:label=""
       inkscape:color="rgb(0,0,255)" />
    <sodipodi:guide
       position="8.16,93.263697"
       orientation="1,0"
       id="guide9312"
       inkscape:locked="false"
       inkscape:label=""
       inkscape:color="rgb(0,0,255)" />
    <sodipodi:guide
       position="22.026564,71"
       orientation="0,1"
       id="guide7598"
       inkscape:locked="false"
       inkscape:label=""
       inkscape:color="rgb(0,0,255)" />
    <sodipodi:guide
       position="6.2674704,64"
       orientation="0,1"
       id="guide7684"
       inkscape:locked="false"
       inkscape:label=""
       inkscape:color="rgb(0,0,255)" />
    <sodipodi:guide
       position="5.0799995,99.99999"
       orientation="0,1"
       id="guide7834"
       inkscape:locked="false" />
    <sodipodi:guide
       position="5.0800007,92.5"
       orientation="0,1"
       id="guide7885"
       inkscape:locked="false"
       inkscape:label=""
       inkscape:color="rgb(0,0,255)" />
    <sodipodi:guide
       position="5.1575148,87.619453"
       orientation="0,1"
       id="guide7891"
       inkscape:locked="false" />
  </sodipodi:namedview>
  <metadata
     id="metadata5">
    <rdf:RDF>
      <cc:Work
         rdf:about="">
        <dc:format>image/svg+xml</dc:format>
        <dc:type
           rdf:resource="http://purl.org/dc/dcmitype/StillImage" />
        <dc:title></dc:title>
      </cc:Work>
    </rdf:RDF>
  </metadata>
  <g
     inkscape:label="panel"
     inkscape:groupmode="layer"
     id="layer1"
     transform="translate(0,-168.50001)"
     style="display:inline"
     sodipodi:insensitive="true">
    <rect
       style="opacity:1;fill:#e6e6e6;stroke-width:0.26458332"
       id="rect39"
       width="10.16"
       height="128.5"
       x="-2.7755574e-018"
       y="168.5" />
    <text
       xml:space="preserve"
       style="font-style:normal;font-weight:normal;font-size:6.04887819px;line-height:1.25;font-family:sans-serif;letter-spacing:0px;word-spacing:0px;fill:#000000;fill-opacity:1;stroke:none;stroke-width:0.26458332"
       x="7.5287504"
       y="217.10225"
       id="text3713"
       transform="scale(1.2247449,0.81649658)"><tspan
         sodipodi:role="line"
         id="tspan3711"
         x="7.5287504"
         y="222.62082"
         style="stroke-width:0.26458332" /></text>
    <g
       aria-label="a"
       style="font-style:normal;font-variant:normal;font-weight:normal;font-stretch:normal;font-size:14.11111069px;line-height:1.25;font-family:'Opus Special Extra Std';-inkscape-font-specification:'Opus Special Extra Std';letter-spacing:0px;word-spacing:0px;fill:#ffcc00;fill-opacity:1;stroke:none;stroke-width:0.21603137"
       id="text3719"
       transform="scale(1.5,1)" />
    <rect
       style="opacity:1;fill:#333333;fill-opacity:1;stroke:none;stroke-width:0.26499999;stroke-miterlimit:4;stroke-dasharray:none;stroke-dashoffset:0;stroke-opacity:1"
       id="rect3797"
       width="10.16"
       height="10"
       x="-2.7755578e-018"
       y="168.5" />
    <rect
       style="display:inline;opacity:1;fill:#333333;fill-opacity:1;stroke-width:0.26458332"
       id="rect3797-4"
       width="10.16"
       height="10"
       x="0"
       y="287" />
    <text
       xml:space="preserve"
       style="font-style:normal;font-variant:normal;font-weight:normal;font-stretch:normal;font-size:6.04887819px;line-height:1.25;font-family:'ornaments labels and frames';-inkscape-font-specification:'ornaments labels and frames, Normal';font-variant-ligatures:normal;font-variant-caps:normal;font-variant-numeric:normal;text-align:center;letter-spacing:0px;word-spacing:0px;writing-mode:lr-tb;text-anchor:middle;display:inline;fill:#000000;fill-opacity:1;stroke:none;stroke-width:0.26458332"
       x="36.825417"
       y="240.67012"
       id="text3786"
       transform="scale(1.2247449,0.81649658)"><tspan
         sodipodi:role="line"
         id="tspan3784"
         x="36.825417"
         y="246.13019"
         style="stroke-width:0.26458332" /></text>
    <rect
       style="display:inline;opacity:0.98000004;fill:#f2f2f2;fill-opacity:1;stroke:none;stroke-width:0.26499999;stroke-miterlimit:4;stroke-dasharray:none;stroke-dashoffset:0;stroke-opacity:0.94779142"
       id="rect5407-1-1-9-3-8"
       width="8.1599998"
       height="52.999981"
       x="1"
       y="181.00003"
       rx="1.0000006"
       ry="1.0000007" />
    <rect
       style="display:inline;opacity:0.98000004;fill:#666666;fill-opacity:1;stroke:none;stroke-width:0.26499999;stroke-miterlimit:4;stroke-dasharray:none;stroke-dashoffset:0;stroke-opacity:0.94779142"
       id="rect5407-1-1-9-3-8-1"
       width="8.1599998"
       height="50"
       x="1"
       y="235.00002"
       rx="1.0000006"
       ry="1.0000007" />
  </g>
  <g
     inkscape:groupmode="layer"
     id="layer4"
     inkscape:label="labels 12"
     style="display:none;opacity:1">
    <g
       aria-label="ads."
       style="font-style:normal;font-variant:normal;font-weight:normal;font-stretch:normal;font-size:3.52777767px;line-height:0.80000001;font-family:Steagisler;-inkscape-font-specification:Steagisler;font-variant-ligatures:normal;font-variant-caps:normal;font-variant-numeric:normal;font-feature-settings:normal;text-align:center;letter-spacing:0px;word-spacing:0px;writing-mode:lr-tb;text-anchor:middle;fill:#f2f2f2;fill-opacity:1;stroke:none;stroke-width:0.26458332"
       id="text9331">
      <path
         d="M 3.6761236,8.677968 H 3.2696023 Q 3.2489313,8.631459 3.2351513,8.581505 3.2317013,8.569447 3.2196483,8.566002 q -0.00345,-0.00172 -0.00517,-0.00172 -0.00689,0 -0.01378,0.00689 -0.1498617,0.1550293 -0.4220242,0.1550293 -0.578776,0 -0.578776,-0.5684408 0,-0.3410644 0.3479546,-0.4702555 0.1653646,-0.062012 0.3410645,-0.062012 0.1464165,0 0.3014458,0.043064 0.00345,0.00172 0.00517,0.00172 0.00689,0 0.012058,-0.00517 0.00861,-0.00517 0.00861,-0.015503 V 7.3688318 q 0,-0.125746 -0.09474,-0.2015381 -0.08785,-0.068902 -0.2153185,-0.068902 -0.1274685,0 -0.2153184,0.068902 -0.09474,0.075792 -0.09474,0.2015381 v 0.041341 H 2.2205708 v -0.056844 q 0,-0.2842204 0.2101508,-0.4530301 Q 2.6253695,6.743547 2.91648,6.743547 q 0.2911106,0 0.4857585,0.1567518 0.2084282,0.1688097 0.2084282,0.4530301 V 8.407528 q 0,0.1240235 0.065457,0.27044 z M 3.2162033,7.9579431 q 0,-0.01378 -0.01378,-0.018948 -0.1205783,-0.043064 -0.2446017,-0.043064 -0.062012,0 -0.125746,0.010335 -0.235989,0.039619 -0.235989,0.2377115 0,0.2290989 0.3100585,0.2290989 0.1274686,0 0.2153185,-0.068902 0.09474,-0.075792 0.09474,-0.1998156 z"
         style="fill:#f2f2f2;fill-opacity:1;stroke-width:0.26458332"
         id="path9421"
         inkscape:connector-curvature="0" />
      <path
         d="M 5.5071917,8.677968 H 5.102393 Q 5.08,8.633182 5.067942,8.583228 5.064492,8.572893 5.052439,8.569448 q -0.00345,-0.00172 -0.00517,-0.00172 -0.00689,0 -0.01378,0.00689 -0.1515842,0.1515842 -0.4220242,0.1515842 -0.2824978,0 -0.434082,-0.1636421 Q 4.0326909,8.4040829 4.0326909,8.1164175 V 7.3533289 q 0,-0.285943 0.1550293,-0.4461399 0.1567518,-0.163642 0.4409722,-0.163642 0.2342665,0 0.3858507,0.1136881 0.00517,0.00517 0.012058,0.00517 0.00345,0 0.00861,-0.00345 0.012058,-0.00517 0.012058,-0.017226 V 6.0373024 h 0.396186 V 8.407528 q 0,0.1240235 0.063734,0.27044 z M 5.0472715,7.3688318 q 0,-0.125746 -0.09474,-0.2015381 -0.086127,-0.068902 -0.2153185,-0.068902 -0.1274685,0 -0.2153184,0.068902 -0.093018,0.075792 -0.093018,0.2015381 v 0.7338053 q 0,0.1240234 0.093018,0.1998155 0.08785,0.070624 0.2153184,0.070624 0.1291911,0 0.2153185,-0.070624 0.09474,-0.075792 0.09474,-0.1998155 z"
         style="fill:#f2f2f2;fill-opacity:1;stroke-width:0.26458332"
         id="path9423"
         inkscape:connector-curvature="0" />
      <path
         d="m 6.2082686,8.1198626 q 0,0.1205783 0.093018,0.1894802 0.084405,0.063734 0.2084283,0.063734 0.1240234,0 0.2084283,-0.063734 0.093018,-0.068902 0.093018,-0.1894802 0,-0.125746 -0.1550293,-0.1722548 Q 6.5148821,7.9062667 6.3219568,7.8700932 6.0790776,7.8115265 5.9550541,7.6668325 5.8327532,7.520416 5.8327532,7.3068201 q 0,-0.27044 0.2084283,-0.4237468 0.1877577,-0.1378038 0.468533,-0.1378038 0.2807753,0 0.468533,0.1378038 0.2084282,0.1533068 0.2084282,0.4237468 V 7.4084504 H 6.8111603 v -0.060289 q 0,-0.1188558 -0.08785,-0.1877577 -0.079237,-0.063734 -0.2032606,-0.063734 -0.1223009,0 -0.2032607,0.063734 -0.08785,0.068902 -0.08785,0.1877577 0,0.1274685 0.1550293,0.1688097 0.1963704,0.051676 0.3341743,0.075792 0.2256537,0.048231 0.3565673,0.1739773 0.1326362,0.1240234 0.1326362,0.3634576 0,0.3031684 -0.2153185,0.4581976 -0.1912028,0.1378039 -0.471978,0.1378039 -0.2807753,0 -0.4719781,-0.1378039 Q 5.8327532,8.4333663 5.8327532,8.1646488 V 8.0595734 h 0.3755154 z"
         style="fill:#f2f2f2;fill-opacity:1;stroke-width:0.26458332"
         id="path9425"
         inkscape:connector-curvature="0" />
      <path
         d="m 7.7533937,8.224938 q 0.1050754,0 0.1791449,0.07407 0.072347,0.07407 0.072347,0.1774224 0,0.1033529 -0.072347,0.1774225 -0.07407,0.07407 -0.1791449,0.07407 -0.1033529,0 -0.1774224,-0.07407 -0.072347,-0.07407 -0.072347,-0.1774225 0,-0.1033528 0.072347,-0.1774224 0.07407,-0.07407 0.1774224,-0.07407 z"
         style="fill:#f2f2f2;fill-opacity:1;stroke-width:0.26458332"
         id="path9427"
         inkscape:connector-curvature="0" />
    </g>
    <g
       transform="translate(-167.01312,-52.896109)"
       id="layer1-0"
       inkscape:label="Layer 1">
      <path
         d="m 175.97312,71.396111 c 0,0.139422 0.0834,0.557288 0.0592,0.694592 -0.0242,0.137305 -0.24554,0.501431 -0.29323,0.632446 -0.0477,0.131014 -0.11219,0.552218 -0.1819,0.672961 -0.0697,0.120744 -0.40223,0.387212 -0.49185,0.494016 -0.0896,0.106804 -0.2943,0.480543 -0.40111,0.570162 -0.1068,0.08962 -0.5104,0.22629 -0.63115,0.296001 -0.12074,0.06971 -0.4409,0.350906 -0.57192,0.398592 -0.13101,0.04769 -0.55702,0.03807 -0.69432,0.06228 -0.13731,0.02421 -0.53433,0.178946 -0.67376,0.178946 -0.13942,0 -0.53645,-0.154735 -0.67375,-0.178946 -0.13731,-0.02421 -0.56331,-0.0146 -0.69433,-0.06228 -0.13101,-0.04769 -0.45117,-0.328881 -0.57192,-0.398592 -0.12074,-0.06971 -0.52434,-0.206382 -0.63115,-0.296001 -0.1068,-0.08962 -0.31148,-0.463358 -0.4011,-0.570162 -0.0896,-0.106804 -0.42214,-0.373272 -0.49185,-0.494016 -0.0697,-0.120743 -0.13422,-0.541947 -0.1819,-0.672961 -0.0477,-0.131015 -0.26902,-0.495141 -0.29323,-0.632446 -0.0242,-0.137304 0.0592,-0.55517 0.0592,-0.694592 0,-0.139423 -0.0834,-0.557289 -0.0592,-0.694593 0.0242,-0.137305 0.24554,-0.501431 0.29323,-0.632446 0.0477,-0.131014 0.11219,-0.552218 0.1819,-0.672961 0.0697,-0.120744 0.40223,-0.387212 0.49185,-0.494016 0.0896,-0.106804 0.2943,-0.480543 0.4011,-0.570162 0.10681,-0.08962 0.51041,-0.22629 0.63115,-0.296001 0.12075,-0.06971 0.44091,-0.350906 0.57192,-0.398592 0.13102,-0.04769 0.55702,-0.03807 0.69433,-0.06228 0.1373,-0.02421 0.53433,-0.178946 0.67375,-0.178946 0.13943,0 0.53645,0.154735 0.67376,0.178946 0.1373,0.02421 0.56331,0.0146 0.69432,0.06228 0.13102,0.04769 0.45118,0.328881 0.57192,0.398592 0.12075,0.06971 0.52435,0.206382 0.63115,0.296001 0.10681,0.08962 0.31149,0.463358 0.40111,0.570162 0.0896,0.106804 0.42213,0.373272 0.49185,0.494016 0.0697,0.120743 0.13422,0.541947 0.1819,0.672961 0.0477,0.131015 0.26901,0.495141 0.29323,0.632446 0.0242,0.137304 -0.0592,0.55517 -0.0592,0.694593 z"
         inkscape:randomized="0"
         inkscape:rounded="0.2"
         inkscape:flatsided="false"
         sodipodi:arg2="0.17453293"
         sodipodi:arg1="3.5249582e-016"
         sodipodi:r2="3.9999998"
         sodipodi:r1="3.8799999"
         sodipodi:cy="71.396111"
         sodipodi:cx="172.09312"
         sodipodi:sides="18"
         id="path4509"
         style="opacity:1;fill:#1a1a1a;fill-opacity:1;stroke:none;stroke-width:0.40000001;stroke-linecap:butt;stroke-miterlimit:4;stroke-dasharray:none;stroke-dashoffset:0;stroke-opacity:1;paint-order:normal"
         sodipodi:type="star" />
      <path
         d="m 175.17307,71.396111 c 0,0.110673 0.0662,0.442375 0.047,0.551367 -0.0192,0.108993 -0.19491,0.398036 -0.23276,0.502035 -0.0379,0.104 -0.0891,0.438351 -0.1444,0.534197 -0.0553,0.09585 -0.31929,0.307369 -0.39043,0.39215 -0.0711,0.08478 -0.23362,0.381455 -0.3184,0.452595 -0.0848,0.07114 -0.40516,0.179629 -0.501,0.234965 -0.0959,0.05534 -0.34999,0.27855 -0.45399,0.316402 -0.104,0.03785 -0.44217,0.03022 -0.55116,0.04944 -0.10899,0.01922 -0.42415,0.142047 -0.53483,0.142047 -0.11067,0 -0.42583,-0.122828 -0.53482,-0.142047 -0.10899,-0.01922 -0.44716,-0.01159 -0.55116,-0.04944 -0.104,-0.03785 -0.35814,-0.261065 -0.45399,-0.316402 -0.0958,-0.05534 -0.41622,-0.163826 -0.501,-0.234965 -0.0848,-0.07114 -0.24726,-0.367814 -0.3184,-0.452595 -0.0711,-0.08478 -0.33509,-0.296303 -0.39043,-0.39215 -0.0553,-0.09585 -0.10654,-0.430197 -0.1444,-0.534197 -0.0378,-0.103999 -0.21354,-0.393042 -0.23276,-0.502035 -0.0192,-0.108992 0.047,-0.440694 0.047,-0.551367 0,-0.110674 -0.0662,-0.442376 -0.047,-0.551368 0.0192,-0.108992 0.19491,-0.398036 0.23276,-0.502035 0.0379,-0.104 0.0891,-0.438351 0.1444,-0.534197 0.0553,-0.09585 0.31929,-0.307369 0.39043,-0.39215 0.0711,-0.08478 0.23361,-0.381455 0.3184,-0.452595 0.0848,-0.07114 0.40516,-0.179628 0.501,-0.234965 0.0959,-0.05534 0.34999,-0.27855 0.45399,-0.316402 0.104,-0.03785 0.44217,-0.03022 0.55116,-0.04944 0.10899,-0.01922 0.42415,-0.142047 0.53482,-0.142047 0.11068,0 0.42584,0.122828 0.53483,0.142047 0.10899,0.01922 0.44716,0.01159 0.55116,0.04944 0.104,0.03785 0.35814,0.261065 0.45399,0.316402 0.0958,0.05534 0.41622,0.163826 0.501,0.234965 0.0848,0.07114 0.24726,0.367814 0.3184,0.452595 0.0711,0.08478 0.33509,0.296303 0.39043,0.39215 0.0553,0.09585 0.10654,0.430197 0.1444,0.534197 0.0379,0.103999 0.21354,0.393043 0.23276,0.502035 0.0192,0.108992 -0.047,0.440694 -0.047,0.551368 z"
         inkscape:randomized="0"
         inkscape:rounded="0.2"
         inkscape:flatsided="false"
         sodipodi:arg2="0.17453293"
         sodipodi:arg1="3.5249582e-016"
         sodipodi:r2="3.1751997"
         sodipodi:r1="3.0799441"
         sodipodi:cy="71.396111"
         sodipodi:cx="172.09312"
         sodipodi:sides="18"
         id="path4509-0"
         style="opacity:1;fill:#000000;fill-opacity:1;stroke:none;stroke-width:0.40000001;stroke-linecap:butt;stroke-miterlimit:4;stroke-dasharray:none;stroke-dashoffset:0;stroke-opacity:1;paint-order:normal"
         sodipodi:type="star" />
      <path
         sodipodi:nodetypes="cscccc"
         id="path110600-0"
         d="m 172.2261,67.418818 c -0.0427,-0.0086 -0.0868,-0.02271 -0.13229,-0.02271 -0.0455,0 -0.0896,0.01317 -0.13367,0.02167 v 0.827783 l 0.26596,-0.0023 z"
         style="fill:#b3b3b3;fill-opacity:1;fill-rule:evenodd;stroke:none;stroke-width:0.35277775"
         inkscape:connector-curvature="0" />
      <path
         sodipodi:nodetypes="cscccc"
         id="path110600"
         d="m 172.2261,68.243251 c -0.0427,-0.0086 -0.087,-0.02581 -0.13252,-0.02581 -0.0455,0 -0.0894,0.01962 -0.13344,0.02812 l -2.3e-4,3.20109 h 0.26596 z"
         style="fill:#f2f2f2;fill-opacity:1;fill-rule:evenodd;stroke:none;stroke-width:0.35277775"
         inkscape:connector-curvature="0" />
    </g>
    <g
       transform="translate(-87.708964,-50.876405)"
       id="layer1-1"
       inkscape:label="Layer 1">
      <path
         style="fill:#e6e6e6;fill-opacity:1;fill-rule:nonzero;stroke:#636663;stroke-width:0.25;stroke-miterlimit:4;stroke-dasharray:none;stroke-opacity:1"
         d="m 92.788964,127.42922 c -2.235179,0 -4.05281,-1.81762 -4.05281,-4.05282 0,-2.23516 1.817631,-4.05281 4.05281,-4.05281 2.235176,0 4.05281,1.81765 4.05281,4.05281 0,2.2352 -1.817634,4.05282 -4.05281,4.05282"
         id="path7255"
         inkscape:connector-curvature="0" />
      <path
         transform="matrix(1.0465418,0,0,1.046738,-4.3185666,-5.7663704)"
         d="m 95.966679,123.37643 c 0,0.28599 -1.34118,2.60898 -1.588858,2.75198 -0.247678,0.143 -2.930037,0.143 -3.177715,0 -0.247679,-0.143 -1.588858,-2.46599 -1.588858,-2.75198 0,-0.286 1.341179,-2.60899 1.588858,-2.75199 0.247678,-0.14299 2.930037,-0.14299 3.177715,0 0.247678,0.143 1.588858,2.46599 1.588858,2.75199 z"
         inkscape:randomized="0"
         inkscape:rounded="0.09"
         inkscape:flatsided="true"
         sodipodi:arg2="0.52359878"
         sodipodi:arg1="-3.8101156e-016"
         sodipodi:r2="2.7519822"
         sodipodi:r1="3.1777153"
         sodipodi:cy="123.37643"
         sodipodi:cx="92.788963"
         sodipodi:sides="6"
         id="path4529"
         style="opacity:0.97000002;fill:#b3b3b3;fill-opacity:1;stroke:#636663;stroke-width:0.23885961;stroke-linecap:butt;stroke-miterlimit:4;stroke-dasharray:none;stroke-dashoffset:0;stroke-opacity:1;paint-order:normal"
         sodipodi:type="star" />
      <path
         transform="matrix(0.95481567,0,0,0.95451359,4.1926083,5.6119492)"
         d="m 95.966679,123.37643 c 0,0.50843 -1.148541,2.49776 -1.588858,2.75198 -0.440317,0.25422 -2.737398,0.25422 -3.177715,0 -0.440317,-0.25422 -1.588858,-2.24355 -1.588858,-2.75198 0,-0.50844 1.148541,-2.49777 1.588858,-2.75199 0.440317,-0.25421 2.737398,-0.25421 3.177715,0 0.440317,0.25422 1.588858,2.24355 1.588858,2.75199 z"
         inkscape:randomized="0"
         inkscape:rounded="0.16"
         inkscape:flatsided="true"
         sodipodi:arg2="0.52359878"
         sodipodi:arg1="-3.8101156e-016"
         sodipodi:r2="2.7519822"
         sodipodi:r1="3.1777153"
         sodipodi:cy="123.37643"
         sodipodi:cx="92.788963"
         sodipodi:sides="6"
         id="path4529-6"
         style="opacity:1;fill:#e6e6e6;fill-opacity:1;stroke:none;stroke-width:0.26187205;stroke-linecap:butt;stroke-miterlimit:4;stroke-dasharray:none;stroke-dashoffset:0;stroke-opacity:1;paint-order:normal"
         sodipodi:type="star" />
      <path
         style="fill:#999999;fill-opacity:1;fill-rule:nonzero;stroke:none;stroke-width:0.24999997;stroke-miterlimit:4;stroke-dasharray:none;stroke-opacity:1"
         d="m 95.259663,123.37638 c 0,1.36401 -1.106707,2.47074 -2.470696,2.47074 -1.363994,0 -2.470701,-1.10673 -2.470701,-2.47074 0,-1.36398 1.106707,-2.47065 2.470701,-2.47065 1.363989,0 2.470696,1.10667 2.470696,2.47065"
         id="path7265-4-9"
         inkscape:connector-curvature="0" />
      <path
         style="fill:#e6e6e6;fill-opacity:1;fill-rule:nonzero;stroke:#636663;stroke-width:0.24999997;stroke-miterlimit:4;stroke-dasharray:none;stroke-opacity:1"
         d="m 94.881684,123.37639 c 0,1.15534 -0.937399,2.09276 -2.09272,2.09276 -1.155325,0 -2.092724,-0.93742 -2.092724,-2.09276 0,-1.15531 0.937399,-2.09268 2.092724,-2.09268 1.155321,0 2.09272,0.93737 2.09272,2.09268"
         id="path7265-4"
         inkscape:connector-curvature="0" />
      <path
         style="fill:#000000;fill-opacity:1;fill-rule:nonzero;stroke:#636663;stroke-width:0.24999997;stroke-miterlimit:4;stroke-dasharray:none;stroke-opacity:1"
         d="m 94.413964,123.3764 c 0,0.89712 -0.727891,1.62503 -1.624998,1.62503 -0.897111,0 -1.625002,-0.72791 -1.625002,-1.62503 0,-0.8971 0.727891,-1.62497 1.625002,-1.62497 0.897107,0 1.624998,0.72787 1.624998,1.62497"
         id="path7265"
         inkscape:connector-curvature="0" />
    </g>
    <g
       style="display:inline;opacity:1"
       transform="translate(-87.708964,-38.876405)"
       id="layer1-1-8"
       inkscape:label="Layer 1">
      <path
         style="fill:#e6e6e6;fill-opacity:1;fill-rule:nonzero;stroke:#636663;stroke-width:0.25;stroke-miterlimit:4;stroke-dasharray:none;stroke-opacity:1"
         d="m 92.788964,127.42922 c -2.235179,0 -4.05281,-1.81762 -4.05281,-4.05282 0,-2.23516 1.817631,-4.05281 4.05281,-4.05281 2.235176,0 4.05281,1.81765 4.05281,4.05281 0,2.2352 -1.817634,4.05282 -4.05281,4.05282"
         id="path7255-9"
         inkscape:connector-curvature="0" />
      <path
         transform="matrix(1.0465418,0,0,1.046738,-4.3185666,-5.7663704)"
         d="m 95.966679,123.37643 c 0,0.28599 -1.34118,2.60898 -1.588858,2.75198 -0.247678,0.143 -2.930037,0.143 -3.177715,0 -0.247679,-0.143 -1.588858,-2.46599 -1.588858,-2.75198 0,-0.286 1.341179,-2.60899 1.588858,-2.75199 0.247678,-0.14299 2.930037,-0.14299 3.177715,0 0.247678,0.143 1.588858,2.46599 1.588858,2.75199 z"
         inkscape:randomized="0"
         inkscape:rounded="0.09"
         inkscape:flatsided="true"
         sodipodi:arg2="0.52359878"
         sodipodi:arg1="-3.8101156e-016"
         sodipodi:r2="2.7519822"
         sodipodi:r1="3.1777153"
         sodipodi:cy="123.37643"
         sodipodi:cx="92.788963"
         sodipodi:sides="6"
         id="path4529-8"
         style="opacity:0.97000002;fill:#b3b3b3;fill-opacity:1;stroke:#636663;stroke-width:0.23885961;stroke-linecap:butt;stroke-miterlimit:4;stroke-dasharray:none;stroke-dashoffset:0;stroke-opacity:1;paint-order:normal"
         sodipodi:type="star" />
      <path
         transform="matrix(0.95481567,0,0,0.95451359,4.1926083,5.6119492)"
         d="m 95.966679,123.37643 c 0,0.50843 -1.148541,2.49776 -1.588858,2.75198 -0.440317,0.25422 -2.737398,0.25422 -3.177715,0 -0.440317,-0.25422 -1.588858,-2.24355 -1.588858,-2.75198 0,-0.50844 1.148541,-2.49777 1.588858,-2.75199 0.440317,-0.25421 2.737398,-0.25421 3.177715,0 0.440317,0.25422 1.588858,2.24355 1.588858,2.75199 z"
         inkscape:randomized="0"
         inkscape:rounded="0.16"
         inkscape:flatsided="true"
         sodipodi:arg2="0.52359878"
         sodipodi:arg1="-3.8101156e-016"
         sodipodi:r2="2.7519822"
         sodipodi:r1="3.1777153"
         sodipodi:cy="123.37643"
         sodipodi:cx="92.788963"
         sodipodi:sides="6"
         id="path4529-6-9"
         style="opacity:1;fill:#e6e6e6;fill-opacity:1;stroke:none;stroke-width:0.26187205;stroke-linecap:butt;stroke-miterlimit:4;stroke-dasharray:none;stroke-dashoffset:0;stroke-opacity:1;paint-order:normal"
         sodipodi:type="star" />
      <path
         style="fill:#999999;fill-opacity:1;fill-rule:nonzero;stroke:none;stroke-width:0.24999997;stroke-miterlimit:4;stroke-dasharray:none;stroke-opacity:1"
         d="m 95.259663,123.37638 c 0,1.36401 -1.106707,2.47074 -2.470696,2.47074 -1.363994,0 -2.470701,-1.10673 -2.470701,-2.47074 0,-1.36398 1.106707,-2.47065 2.470701,-2.47065 1.363989,0 2.470696,1.10667 2.470696,2.47065"
         id="path7265-4-9-1"
         inkscape:connector-curvature="0" />
      <path
         style="fill:#e6e6e6;fill-opacity:1;fill-rule:nonzero;stroke:#636663;stroke-width:0.24999997;stroke-miterlimit:4;stroke-dasharray:none;stroke-opacity:1"
         d="m 94.881684,123.37639 c 0,1.15534 -0.937399,2.09276 -2.09272,2.09276 -1.155325,0 -2.092724,-0.93742 -2.092724,-2.09276 0,-1.15531 0.937399,-2.09268 2.092724,-2.09268 1.155321,0 2.09272,0.93737 2.09272,2.09268"
         id="path7265-4-3"
         inkscape:connector-curvature="0" />
      <path
         style="fill:#000000;fill-opacity:1;fill-rule:nonzero;stroke:#636663;stroke-width:0.24999997;stroke-miterlimit:4;stroke-dasharray:none;stroke-opacity:1"
         d="m 94.413964,123.3764 c 0,0.89712 -0.727891,1.62503 -1.624998,1.62503 -0.897111,0 -1.625002,-0.72791 -1.625002,-1.62503 0,-0.8971 0.727891,-1.62497 1.625002,-1.62497 0.897107,0 1.624998,0.72787 1.624998,1.62497"
         id="path7265-5"
         inkscape:connector-curvature="0" />
    </g>
    <g
       style="display:inline;opacity:1"
       transform="translate(-87.708964,-14.876405)"
       id="layer1-1-4"
       inkscape:label="Layer 1">
      <path
         style="fill:#e6e6e6;fill-opacity:1;fill-rule:nonzero;stroke:#636663;stroke-width:0.25;stroke-miterlimit:4;stroke-dasharray:none;stroke-opacity:1"
         d="m 92.788964,127.42922 c -2.235179,0 -4.05281,-1.81762 -4.05281,-4.05282 0,-2.23516 1.817631,-4.05281 4.05281,-4.05281 2.235176,0 4.05281,1.81765 4.05281,4.05281 0,2.2352 -1.817634,4.05282 -4.05281,4.05282"
         id="path7255-2"
         inkscape:connector-curvature="0" />
      <path
         transform="matrix(1.0465418,0,0,1.046738,-4.3185666,-5.7663704)"
         d="m 95.966679,123.37643 c 0,0.28599 -1.34118,2.60898 -1.588858,2.75198 -0.247678,0.143 -2.930037,0.143 -3.177715,0 -0.247679,-0.143 -1.588858,-2.46599 -1.588858,-2.75198 0,-0.286 1.341179,-2.60899 1.588858,-2.75199 0.247678,-0.14299 2.930037,-0.14299 3.177715,0 0.247678,0.143 1.588858,2.46599 1.588858,2.75199 z"
         inkscape:randomized="0"
         inkscape:rounded="0.09"
         inkscape:flatsided="true"
         sodipodi:arg2="0.52359878"
         sodipodi:arg1="-3.8101156e-016"
         sodipodi:r2="2.7519822"
         sodipodi:r1="3.1777153"
         sodipodi:cy="123.37643"
         sodipodi:cx="92.788963"
         sodipodi:sides="6"
         id="path4529-5"
         style="opacity:0.97000002;fill:#b3b3b3;fill-opacity:1;stroke:#636663;stroke-width:0.23885961;stroke-linecap:butt;stroke-miterlimit:4;stroke-dasharray:none;stroke-dashoffset:0;stroke-opacity:1;paint-order:normal"
         sodipodi:type="star" />
      <path
         transform="matrix(0.95481567,0,0,0.95451359,4.1926083,5.6119492)"
         d="m 95.966679,123.37643 c 0,0.50843 -1.148541,2.49776 -1.588858,2.75198 -0.440317,0.25422 -2.737398,0.25422 -3.177715,0 -0.440317,-0.25422 -1.588858,-2.24355 -1.588858,-2.75198 0,-0.50844 1.148541,-2.49777 1.588858,-2.75199 0.440317,-0.25421 2.737398,-0.25421 3.177715,0 0.440317,0.25422 1.588858,2.24355 1.588858,2.75199 z"
         inkscape:randomized="0"
         inkscape:rounded="0.16"
         inkscape:flatsided="true"
         sodipodi:arg2="0.52359878"
         sodipodi:arg1="-3.8101156e-016"
         sodipodi:r2="2.7519822"
         sodipodi:r1="3.1777153"
         sodipodi:cy="123.37643"
         sodipodi:cx="92.788963"
         sodipodi:sides="6"
         id="path4529-6-3"
         style="opacity:1;fill:#e6e6e6;fill-opacity:1;stroke:none;stroke-width:0.26187205;stroke-linecap:butt;stroke-miterlimit:4;stroke-dasharray:none;stroke-dashoffset:0;stroke-opacity:1;paint-order:normal"
         sodipodi:type="star" />
      <path
         style="fill:#999999;fill-opacity:1;fill-rule:nonzero;stroke:none;stroke-width:0.24999997;stroke-miterlimit:4;stroke-dasharray:none;stroke-opacity:1"
         d="m 95.259663,123.37638 c 0,1.36401 -1.106707,2.47074 -2.470696,2.47074 -1.363994,0 -2.470701,-1.10673 -2.470701,-2.47074 0,-1.36398 1.106707,-2.47065 2.470701,-2.47065 1.363989,0 2.470696,1.10667 2.470696,2.47065"
         id="path7265-4-9-8"
         inkscape:connector-curvature="0" />
      <path
         style="fill:#e6e6e6;fill-opacity:1;fill-rule:nonzero;stroke:#636663;stroke-width:0.24999997;stroke-miterlimit:4;stroke-dasharray:none;stroke-opacity:1"
         d="m 94.881684,123.37639 c 0,1.15534 -0.937399,2.09276 -2.09272,2.09276 -1.155325,0 -2.092724,-0.93742 -2.092724,-2.09276 0,-1.15531 0.937399,-2.09268 2.092724,-2.09268 1.155321,0 2.09272,0.93737 2.09272,2.09268"
         id="path7265-4-92"
         inkscape:connector-curvature="0" />
      <path
         style="fill:#000000;fill-opacity:1;fill-rule:nonzero;stroke:#636663;stroke-width:0.24999997;stroke-miterlimit:4;stroke-dasharray:none;stroke-opacity:1"
         d="m 94.413964,123.3764 c 0,0.89712 -0.727891,1.62503 -1.624998,1.62503 -0.897111,0 -1.625002,-0.72791 -1.625002,-1.62503 0,-0.8971 0.727891,-1.62497 1.625002,-1.62497 0.897107,0 1.624998,0.72787 1.624998,1.62497"
         id="path7265-8"
         inkscape:connector-curvature="0" />
    </g>
    <g
       style="display:inline;opacity:1"
       transform="translate(-87.708964,-26.876405)"
       id="layer1-1-4-9"
       inkscape:label="Layer 1">
      <path
         style="fill:#e6e6e6;fill-opacity:1;fill-rule:nonzero;stroke:#636663;stroke-width:0.25;stroke-miterlimit:4;stroke-dasharray:none;stroke-opacity:1"
         d="m 92.788964,127.42922 c -2.235179,0 -4.05281,-1.81762 -4.05281,-4.05282 0,-2.23516 1.817631,-4.05281 4.05281,-4.05281 2.235176,0 4.05281,1.81765 4.05281,4.05281 0,2.2352 -1.817634,4.05282 -4.05281,4.05282"
         id="path7255-2-8"
         inkscape:connector-curvature="0" />
      <path
         transform="matrix(1.0465418,0,0,1.046738,-4.3185666,-5.7663704)"
         d="m 95.966679,123.37643 c 0,0.28599 -1.34118,2.60898 -1.588858,2.75198 -0.247678,0.143 -2.930037,0.143 -3.177715,0 -0.247679,-0.143 -1.588858,-2.46599 -1.588858,-2.75198 0,-0.286 1.341179,-2.60899 1.588858,-2.75199 0.247678,-0.14299 2.930037,-0.14299 3.177715,0 0.247678,0.143 1.588858,2.46599 1.588858,2.75199 z"
         inkscape:randomized="0"
         inkscape:rounded="0.09"
         inkscape:flatsided="true"
         sodipodi:arg2="0.52359878"
         sodipodi:arg1="-3.8101156e-016"
         sodipodi:r2="2.7519822"
         sodipodi:r1="3.1777153"
         sodipodi:cy="123.37643"
         sodipodi:cx="92.788963"
         sodipodi:sides="6"
         id="path4529-5-0"
         style="opacity:0.97000002;fill:#b3b3b3;fill-opacity:1;stroke:#636663;stroke-width:0.23885961;stroke-linecap:butt;stroke-miterlimit:4;stroke-dasharray:none;stroke-dashoffset:0;stroke-opacity:1;paint-order:normal"
         sodipodi:type="star" />
      <path
         transform="matrix(0.95481567,0,0,0.95451359,4.1926083,5.6119492)"
         d="m 95.966679,123.37643 c 0,0.50843 -1.148541,2.49776 -1.588858,2.75198 -0.440317,0.25422 -2.737398,0.25422 -3.177715,0 -0.440317,-0.25422 -1.588858,-2.24355 -1.588858,-2.75198 0,-0.50844 1.148541,-2.49777 1.588858,-2.75199 0.440317,-0.25421 2.737398,-0.25421 3.177715,0 0.440317,0.25422 1.588858,2.24355 1.588858,2.75199 z"
         inkscape:randomized="0"
         inkscape:rounded="0.16"
         inkscape:flatsided="true"
         sodipodi:arg2="0.52359878"
         sodipodi:arg1="-3.8101156e-016"
         sodipodi:r2="2.7519822"
         sodipodi:r1="3.1777153"
         sodipodi:cy="123.37643"
         sodipodi:cx="92.788963"
         sodipodi:sides="6"
         id="path4529-6-3-1"
         style="opacity:1;fill:#e6e6e6;fill-opacity:1;stroke:none;stroke-width:0.26187205;stroke-linecap:butt;stroke-miterlimit:4;stroke-dasharray:none;stroke-dashoffset:0;stroke-opacity:1;paint-order:normal"
         sodipodi:type="star" />
      <path
         style="fill:#999999;fill-opacity:1;fill-rule:nonzero;stroke:none;stroke-width:0.24999997;stroke-miterlimit:4;stroke-dasharray:none;stroke-opacity:1"
         d="m 95.259663,123.37638 c 0,1.36401 -1.106707,2.47074 -2.470696,2.47074 -1.363994,0 -2.470701,-1.10673 -2.470701,-2.47074 0,-1.36398 1.106707,-2.47065 2.470701,-2.47065 1.363989,0 2.470696,1.10667 2.470696,2.47065"
         id="path7265-4-9-8-4"
         inkscape:connector-curvature="0" />
      <path
         style="fill:#e6e6e6;fill-opacity:1;fill-rule:nonzero;stroke:#636663;stroke-width:0.24999997;stroke-miterlimit:4;stroke-dasharray:none;stroke-opacity:1"
         d="m 94.881684,123.37639 c 0,1.15534 -0.937399,2.09276 -2.09272,2.09276 -1.155325,0 -2.092724,-0.93742 -2.092724,-2.09276 0,-1.15531 0.937399,-2.09268 2.092724,-2.09268 1.155321,0 2.09272,0.93737 2.09272,2.09268"
         id="path7265-4-92-7"
         inkscape:connector-curvature="0" />
      <path
         style="fill:#000000;fill-opacity:1;fill-rule:nonzero;stroke:#636663;stroke-width:0.24999997;stroke-miterlimit:4;stroke-dasharray:none;stroke-opacity:1"
         d="m 94.413964,123.3764 c 0,0.89712 -0.727891,1.62503 -1.624998,1.62503 -0.897111,0 -1.625002,-0.72791 -1.625002,-1.62503 0,-0.8971 0.727891,-1.62497 1.625002,-1.62497 0.897107,0 1.624998,0.72787 1.624998,1.62497"
         id="path7265-8-5"
         inkscape:connector-curvature="0" />
    </g>
    <g
       style="display:inline;opacity:1"
       transform="translate(-87.708964,-65.876405)"
       id="layer1-1-5"
       inkscape:label="Layer 1">
      <path
         style="fill:#e6e6e6;fill-opacity:1;fill-rule:nonzero;stroke:#636663;stroke-width:0.25;stroke-miterlimit:4;stroke-dasharray:none;stroke-opacity:1"
         d="m 92.788964,127.42922 c -2.235179,0 -4.05281,-1.81762 -4.05281,-4.05282 0,-2.23516 1.817631,-4.05281 4.05281,-4.05281 2.235176,0 4.05281,1.81765 4.05281,4.05281 0,2.2352 -1.817634,4.05282 -4.05281,4.05282"
         id="path7255-0"
         inkscape:connector-curvature="0" />
      <path
         transform="matrix(1.0465418,0,0,1.046738,-4.3185666,-5.7663704)"
         d="m 95.966679,123.37643 c 0,0.28599 -1.34118,2.60898 -1.588858,2.75198 -0.247678,0.143 -2.930037,0.143 -3.177715,0 -0.247679,-0.143 -1.588858,-2.46599 -1.588858,-2.75198 0,-0.286 1.341179,-2.60899 1.588858,-2.75199 0.247678,-0.14299 2.930037,-0.14299 3.177715,0 0.247678,0.143 1.588858,2.46599 1.588858,2.75199 z"
         inkscape:randomized="0"
         inkscape:rounded="0.09"
         inkscape:flatsided="true"
         sodipodi:arg2="0.52359878"
         sodipodi:arg1="-3.8101156e-016"
         sodipodi:r2="2.7519822"
         sodipodi:r1="3.1777153"
         sodipodi:cy="123.37643"
         sodipodi:cx="92.788963"
         sodipodi:sides="6"
         id="path4529-9"
         style="opacity:0.97000002;fill:#b3b3b3;fill-opacity:1;stroke:#636663;stroke-width:0.23885961;stroke-linecap:butt;stroke-miterlimit:4;stroke-dasharray:none;stroke-dashoffset:0;stroke-opacity:1;paint-order:normal"
         sodipodi:type="star" />
      <path
         transform="matrix(0.95481567,0,0,0.95451359,4.1926083,5.6119492)"
         d="m 95.966679,123.37643 c 0,0.50843 -1.148541,2.49776 -1.588858,2.75198 -0.440317,0.25422 -2.737398,0.25422 -3.177715,0 -0.440317,-0.25422 -1.588858,-2.24355 -1.588858,-2.75198 0,-0.50844 1.148541,-2.49777 1.588858,-2.75199 0.440317,-0.25421 2.737398,-0.25421 3.177715,0 0.440317,0.25422 1.588858,2.24355 1.588858,2.75199 z"
         inkscape:randomized="0"
         inkscape:rounded="0.16"
         inkscape:flatsided="true"
         sodipodi:arg2="0.52359878"
         sodipodi:arg1="-3.8101156e-016"
         sodipodi:r2="2.7519822"
         sodipodi:r1="3.1777153"
         sodipodi:cy="123.37643"
         sodipodi:cx="92.788963"
         sodipodi:sides="6"
         id="path4529-6-2"
         style="opacity:1;fill:#e6e6e6;fill-opacity:1;stroke:none;stroke-width:0.26187205;stroke-linecap:butt;stroke-miterlimit:4;stroke-dasharray:none;stroke-dashoffset:0;stroke-opacity:1;paint-order:normal"
         sodipodi:type="star" />
      <path
         style="fill:#999999;fill-opacity:1;fill-rule:nonzero;stroke:none;stroke-width:0.24999997;stroke-miterlimit:4;stroke-dasharray:none;stroke-opacity:1"
         d="m 95.259663,123.37638 c 0,1.36401 -1.106707,2.47074 -2.470696,2.47074 -1.363994,0 -2.470701,-1.10673 -2.470701,-2.47074 0,-1.36398 1.106707,-2.47065 2.470701,-2.47065 1.363989,0 2.470696,1.10667 2.470696,2.47065"
         id="path7265-4-9-82"
         inkscape:connector-curvature="0" />
      <path
         style="fill:#e6e6e6;fill-opacity:1;fill-rule:nonzero;stroke:#636663;stroke-width:0.24999997;stroke-miterlimit:4;stroke-dasharray:none;stroke-opacity:1"
         d="m 94.881684,123.37639 c 0,1.15534 -0.937399,2.09276 -2.09272,2.09276 -1.155325,0 -2.092724,-0.93742 -2.092724,-2.09276 0,-1.15531 0.937399,-2.09268 2.092724,-2.09268 1.155321,0 2.09272,0.93737 2.09272,2.09268"
         id="path7265-4-4"
         inkscape:connector-curvature="0" />
      <path
         style="fill:#000000;fill-opacity:1;fill-rule:nonzero;stroke:#636663;stroke-width:0.24999997;stroke-miterlimit:4;stroke-dasharray:none;stroke-opacity:1"
         d="m 94.413964,123.3764 c 0,0.89712 -0.727891,1.62503 -1.624998,1.62503 -0.897111,0 -1.625002,-0.72791 -1.625002,-1.62503 0,-0.8971 0.727891,-1.62497 1.625002,-1.62497 0.897107,0 1.624998,0.72787 1.624998,1.62497"
         id="path7265-50"
         inkscape:connector-curvature="0" />
    </g>
    <g
       style="display:inline;opacity:1"
       transform="translate(-87.708964,-77.876405)"
       id="layer1-1-40"
       inkscape:label="Layer 1">
      <path
         style="fill:#e6e6e6;fill-opacity:1;fill-rule:nonzero;stroke:#636663;stroke-width:0.25;stroke-miterlimit:4;stroke-dasharray:none;stroke-opacity:1"
         d="m 92.788964,127.42922 c -2.235179,0 -4.05281,-1.81762 -4.05281,-4.05282 0,-2.23516 1.817631,-4.05281 4.05281,-4.05281 2.235176,0 4.05281,1.81765 4.05281,4.05281 0,2.2352 -1.817634,4.05282 -4.05281,4.05282"
         id="path7255-5"
         inkscape:connector-curvature="0" />
      <path
         transform="matrix(1.0465418,0,0,1.046738,-4.3185666,-5.7663704)"
         d="m 95.966679,123.37643 c 0,0.28599 -1.34118,2.60898 -1.588858,2.75198 -0.247678,0.143 -2.930037,0.143 -3.177715,0 -0.247679,-0.143 -1.588858,-2.46599 -1.588858,-2.75198 0,-0.286 1.341179,-2.60899 1.588858,-2.75199 0.247678,-0.14299 2.930037,-0.14299 3.177715,0 0.247678,0.143 1.588858,2.46599 1.588858,2.75199 z"
         inkscape:randomized="0"
         inkscape:rounded="0.09"
         inkscape:flatsided="true"
         sodipodi:arg2="0.52359878"
         sodipodi:arg1="-3.8101156e-016"
         sodipodi:r2="2.7519822"
         sodipodi:r1="3.1777153"
         sodipodi:cy="123.37643"
         sodipodi:cx="92.788963"
         sodipodi:sides="6"
         id="path4529-1"
         style="opacity:0.97000002;fill:#b3b3b3;fill-opacity:1;stroke:#636663;stroke-width:0.23885961;stroke-linecap:butt;stroke-miterlimit:4;stroke-dasharray:none;stroke-dashoffset:0;stroke-opacity:1;paint-order:normal"
         sodipodi:type="star" />
      <path
         transform="matrix(0.95481567,0,0,0.95451359,4.1926083,5.6119492)"
         d="m 95.966679,123.37643 c 0,0.50843 -1.148541,2.49776 -1.588858,2.75198 -0.440317,0.25422 -2.737398,0.25422 -3.177715,0 -0.440317,-0.25422 -1.588858,-2.24355 -1.588858,-2.75198 0,-0.50844 1.148541,-2.49777 1.588858,-2.75199 0.440317,-0.25421 2.737398,-0.25421 3.177715,0 0.440317,0.25422 1.588858,2.24355 1.588858,2.75199 z"
         inkscape:randomized="0"
         inkscape:rounded="0.16"
         inkscape:flatsided="true"
         sodipodi:arg2="0.52359878"
         sodipodi:arg1="-3.8101156e-016"
         sodipodi:r2="2.7519822"
         sodipodi:r1="3.1777153"
         sodipodi:cy="123.37643"
         sodipodi:cx="92.788963"
         sodipodi:sides="6"
         id="path4529-6-1"
         style="opacity:1;fill:#e6e6e6;fill-opacity:1;stroke:none;stroke-width:0.26187205;stroke-linecap:butt;stroke-miterlimit:4;stroke-dasharray:none;stroke-dashoffset:0;stroke-opacity:1;paint-order:normal"
         sodipodi:type="star" />
      <path
         style="fill:#999999;fill-opacity:1;fill-rule:nonzero;stroke:none;stroke-width:0.24999997;stroke-miterlimit:4;stroke-dasharray:none;stroke-opacity:1"
         d="m 95.259663,123.37638 c 0,1.36401 -1.106707,2.47074 -2.470696,2.47074 -1.363994,0 -2.470701,-1.10673 -2.470701,-2.47074 0,-1.36398 1.106707,-2.47065 2.470701,-2.47065 1.363989,0 2.470696,1.10667 2.470696,2.47065"
         id="path7265-4-9-5"
         inkscape:connector-curvature="0" />
      <path
         style="fill:#e6e6e6;fill-opacity:1;fill-rule:nonzero;stroke:#636663;stroke-width:0.24999997;stroke-miterlimit:4;stroke-dasharray:none;stroke-opacity:1"
         d="m 94.881684,123.37639 c 0,1.15534 -0.937399,2.09276 -2.09272,2.09276 -1.155325,0 -2.092724,-0.93742 -2.092724,-2.09276 0,-1.15531 0.937399,-2.09268 2.092724,-2.09268 1.155321,0 2.09272,0.93737 2.09272,2.09268"
         id="path7265-4-90"
         inkscape:connector-curvature="0" />
      <path
         style="fill:#000000;fill-opacity:1;fill-rule:nonzero;stroke:#636663;stroke-width:0.24999997;stroke-miterlimit:4;stroke-dasharray:none;stroke-opacity:1"
         d="m 94.413964,123.3764 c 0,0.89712 -0.727891,1.62503 -1.624998,1.62503 -0.897111,0 -1.625002,-0.72791 -1.625002,-1.62503 0,-0.8971 0.727891,-1.62497 1.625002,-1.62497 0.897107,0 1.624998,0.72787 1.624998,1.62497"
         id="path7265-83"
         inkscape:connector-curvature="0" />
    </g>
    <text
       xml:space="preserve"
       style="font-style:normal;font-variant:normal;font-weight:normal;font-stretch:normal;font-size:3.52777767px;line-height:0.80000001;font-family:Steagisler;-inkscape-font-specification:Steagisler;font-variant-ligatures:normal;font-variant-caps:normal;font-variant-numeric:normal;font-feature-settings:normal;text-align:center;letter-spacing:0px;word-spacing:0px;writing-mode:lr-tb;text-anchor:middle;fill:#000000;fill-opacity:1;stroke:none;stroke-width:0.26458332"
       x="2"
       y="115.5"
       id="text7629"><tspan
         sodipodi:role="line"
         id="tspan7627"
         x="2"
         y="117.88966"
         style="stroke-width:0.26458332"></tspan></text>
    <g
       transform="translate(-167.01312,-42.896102)"
       id="layer1-13"
       inkscape:label="Layer 1">
      <path
         transform="matrix(1.0321422,0,0,1.0175979,-5.5314565,-1.25642)"
         d="m 173.99957,71.396111 c 0,0.06851 0.041,0.273825 0.0291,0.34129 -0.0119,0.06746 -0.12065,0.246379 -0.14408,0.310753 -0.0234,0.06437 -0.0551,0.271334 -0.0894,0.330662 -0.0343,0.05933 -0.19764,0.190258 -0.24167,0.242736 -0.044,0.05248 -0.14461,0.236116 -0.19708,0.280151 -0.0525,0.04403 -0.25079,0.111188 -0.31012,0.145441 -0.0593,0.03425 -0.21664,0.172419 -0.28102,0.195849 -0.0644,0.02343 -0.27369,0.01871 -0.34115,0.0306 -0.0675,0.0119 -0.26255,0.08793 -0.33106,0.08793 -0.0685,0 -0.26358,-0.07603 -0.33105,-0.08793 -0.0675,-0.0119 -0.27678,-0.0072 -0.34116,-0.0306 -0.0644,-0.02343 -0.22168,-0.161596 -0.28101,-0.195849 -0.0593,-0.03425 -0.25764,-0.101407 -0.31012,-0.145441 -0.0525,-0.04403 -0.15305,-0.227672 -0.19708,-0.280151 -0.044,-0.05248 -0.20742,-0.183408 -0.24167,-0.242736 -0.0343,-0.05933 -0.0659,-0.266287 -0.0894,-0.330662 -0.0234,-0.06437 -0.13218,-0.243288 -0.14408,-0.310753 -0.0119,-0.06746 0.0291,-0.272785 0.0291,-0.34129 0,-0.06851 -0.041,-0.273826 -0.0291,-0.341291 0.0119,-0.06747 0.12065,-0.246379 0.14408,-0.310753 0.0234,-0.06437 0.0551,-0.271334 0.0894,-0.330662 0.0342,-0.05933 0.19764,-0.190258 0.24167,-0.242736 0.044,-0.05248 0.1446,-0.236116 0.19708,-0.280151 0.0525,-0.04403 0.25079,-0.111188 0.31012,-0.145441 0.0593,-0.03425 0.21664,-0.172419 0.28101,-0.195849 0.0644,-0.02343 0.2737,-0.01871 0.34116,-0.0306 0.0675,-0.0119 0.26255,-0.08793 0.33105,-0.08793 0.0685,0 0.26359,0.07603 0.33106,0.08793 0.0675,0.0119 0.27678,0.0072 0.34115,0.0306 0.0644,0.02343 0.22169,0.161597 0.28102,0.195849 0.0593,0.03425 0.25764,0.101407 0.31012,0.145441 0.0525,0.04403 0.15304,0.227672 0.19708,0.280151 0.044,0.05248 0.20742,0.183408 0.24167,0.242736 0.0342,0.05933 0.0659,0.266287 0.0894,0.330662 0.0234,0.06437 0.13218,0.243288 0.14408,0.310753 0.0119,0.06746 -0.0291,0.272785 -0.0291,0.341291 z"
         inkscape:randomized="0"
         inkscape:rounded="0.2"
         inkscape:flatsided="false"
         sodipodi:arg2="0.17453293"
         sodipodi:arg1="3.5249582e-016"
         sodipodi:r2="1.9654112"
         sodipodi:r1="1.9064488"
         sodipodi:cy="71.396111"
         sodipodi:cx="172.09312"
         sodipodi:sides="18"
         id="path4509-7"
         style="opacity:0.97000002;fill:#1a1a1a;fill-opacity:1;stroke:none;stroke-width:0.39030319;stroke-linecap:butt;stroke-miterlimit:4;stroke-dasharray:none;stroke-dashoffset:0;stroke-opacity:1;paint-order:normal"
         sodipodi:type="star" />
      <path
         transform="matrix(1.0321422,0,0,1.0175979,-5.5314565,-1.25642)"
         d="m 173.60646,71.396111 c 0,0.05438 0.0326,0.217362 0.0231,0.270916 -0.009,0.05355 -0.0958,0.195576 -0.11437,0.246676 -0.0186,0.0511 -0.0438,0.215385 -0.0709,0.262479 -0.0272,0.04709 -0.15689,0.151027 -0.19184,0.192684 -0.035,0.04166 -0.11479,0.187429 -0.15644,0.222384 -0.0417,0.03495 -0.19908,0.08826 -0.24618,0.115451 -0.0471,0.02719 -0.17196,0.136866 -0.22307,0.155465 -0.0511,0.0186 -0.21725,0.01485 -0.27081,0.02429 -0.0536,0.0094 -0.20841,0.06979 -0.26279,0.06979 -0.0544,0 -0.20923,-0.06035 -0.26278,-0.06979 -0.0536,-0.0094 -0.21972,-0.0057 -0.27082,-0.02429 -0.0511,-0.0186 -0.17597,-0.128275 -0.22307,-0.155465 -0.0471,-0.02719 -0.20451,-0.0805 -0.24617,-0.115451 -0.0417,-0.03495 -0.12149,-0.180726 -0.15644,-0.222384 -0.035,-0.04166 -0.16465,-0.145589 -0.19184,-0.192684 -0.0272,-0.04709 -0.0523,-0.211379 -0.0709,-0.262479 -0.0186,-0.0511 -0.10492,-0.193123 -0.11437,-0.246676 -0.009,-0.05355 0.0231,-0.216537 0.0231,-0.270916 0,-0.05438 -0.0326,-0.217363 -0.0231,-0.270917 0.009,-0.05355 0.0958,-0.195576 0.11437,-0.246676 0.0186,-0.0511 0.0438,-0.215385 0.0709,-0.262479 0.0272,-0.04709 0.15688,-0.151027 0.19184,-0.192684 0.035,-0.04166 0.11479,-0.187429 0.15644,-0.222384 0.0417,-0.03495 0.19908,-0.08826 0.24617,-0.115451 0.0471,-0.02719 0.17197,-0.136866 0.22307,-0.155465 0.0511,-0.0186 0.21726,-0.01485 0.27082,-0.02429 0.0536,-0.0094 0.2084,-0.06979 0.26278,-0.06979 0.0544,0 0.20924,0.06035 0.26279,0.06979 0.0536,0.0094 0.21971,0.0057 0.27081,0.02429 0.0511,0.0186 0.17598,0.128275 0.22307,0.155465 0.0471,0.02719 0.20452,0.0805 0.24618,0.115451 0.0417,0.03496 0.12148,0.180726 0.15644,0.222384 0.035,0.04166 0.16465,0.14559 0.19184,0.192684 0.0272,0.04709 0.0523,0.211379 0.0709,0.262479 0.0186,0.0511 0.10492,0.193123 0.11437,0.246676 0.009,0.05355 -0.0231,0.216537 -0.0231,0.270917 z"
         inkscape:randomized="0"
         inkscape:rounded="0.2"
         inkscape:flatsided="false"
         sodipodi:arg2="0.17453293"
         sodipodi:arg1="3.5249582e-016"
         sodipodi:r2="1.5601434"
         sodipodi:r1="1.5133393"
         sodipodi:cy="71.396111"
         sodipodi:cx="172.09312"
         sodipodi:sides="18"
         id="path4509-0-35"
         style="opacity:0.97000002;fill:#000000;fill-opacity:1;stroke:none;stroke-width:0.39030319;stroke-linecap:butt;stroke-miterlimit:4;stroke-dasharray:none;stroke-dashoffset:0;stroke-opacity:1;paint-order:normal"
         sodipodi:type="star" />
      <path
         sodipodi:nodetypes="cscccc"
         id="path110600-0-85"
         d="m 172.16056,69.407467 c -0.0217,-0.0043 -0.044,-0.01136 -0.0671,-0.01136 -0.023,0 -0.0454,0.0066 -0.0678,0.01084 v 0.413892 l 0.13488,-0.0011 z"
         style="fill:#b3b3b3;fill-opacity:1;fill-rule:evenodd;stroke:none;stroke-width:0.35277775"
         inkscape:connector-curvature="0" />
      <path
         sodipodi:nodetypes="cscccc"
         id="path110600-6"
         d="m 172.16056,69.819684 c -0.0217,-0.0043 -0.0441,-0.0129 -0.0672,-0.0129 -0.0231,0 -0.0453,0.0098 -0.0677,0.01406 l -1.1e-4,1.600543 h 0.13488 z"
         style="fill:#f2f2f2;fill-opacity:1;fill-rule:evenodd;stroke:none;stroke-width:0.35277775"
         inkscape:connector-curvature="0" />
    </g>
    <g
       transform="translate(1.5609186,36.55779)"
       style="display:inline"
       inkscape:label="Layer 3"
       id="layer3">
      <rect
         ry="1"
         rx="1"
         y="-2.9077897"
         x="1.1690814"
         height="4.6999998"
         width="4.6999998"
         id="rect6118"
         style="opacity:1;fill:#e6e6e6;fill-opacity:1;stroke:#969696;stroke-width:0.30000001;stroke-linecap:butt;stroke-linejoin:round;stroke-miterlimit:4;stroke-dasharray:none;stroke-dashoffset:0;stroke-opacity:1;paint-order:normal" />
      <rect
         ry="1"
         rx="1"
         y="-2.4395092"
         x="1.6373621"
         height="3.7634392"
         width="3.7634392"
         id="rect6120"
         style="opacity:1;fill:#9ad542;fill-opacity:1;stroke:#c2fd6a;stroke-width:0.30000001;stroke-linecap:butt;stroke-linejoin:round;stroke-miterlimit:4;stroke-dasharray:none;stroke-dashoffset:0;stroke-opacity:1;paint-order:normal" />
      <circle
         r="0.65180349"
         cy="-0.55778962"
         cx="3.5190818"
         id="path4511"
         style="display:inline;opacity:1;fill:#c4e673;fill-opacity:1;stroke:none;stroke-width:0.20000002;stroke-linecap:butt;stroke-linejoin:round;stroke-miterlimit:4;stroke-dasharray:none;stroke-dashoffset:0;stroke-opacity:1;paint-order:normal" />
    </g>
  </g>
  <g
     inkscape:groupmode="layer"
     id="layer7"
     inkscape:label="labels"
     style="display:inline">
    <g
       aria-label="sin"
       style="font-style:normal;font-variant:normal;font-weight:normal;font-stretch:normal;font-size:3.52777767px;line-height:0.80000001;font-family:Steagisler;-inkscape-font-specification:Steagisler;font-variant-ligatures:normal;font-variant-caps:normal;font-variant-numeric:normal;font-feature-settings:normal;text-align:center;letter-spacing:0px;word-spacing:0px;writing-mode:lr-tb;text-anchor:middle;display:inline;opacity:1;fill:#e6e6e6;fill-opacity:1;stroke:none;stroke-width:0.26458332"
       id="text7633">
      <path
         d="m 3.3031921,78.932838 q 0,0.120579 0.093018,0.189481 0.084405,0.06373 0.2084283,0.06373 0.1240234,0 0.2084283,-0.06373 0.093018,-0.0689 0.093018,-0.189481 0,-0.125746 -0.1550293,-0.172254 -0.1412489,-0.04134 -0.3341742,-0.07751 -0.2428792,-0.05857 -0.3669027,-0.203261 -0.1223009,-0.146416 -0.1223009,-0.360012 0,-0.27044 0.2084283,-0.423747 0.1877577,-0.137804 0.468533,-0.137804 0.2807753,0 0.468533,0.137804 0.2084282,0.153307 0.2084282,0.423747 v 0.10163 H 3.9060838 v -0.06029 q 0,-0.118856 -0.08785,-0.187758 -0.079237,-0.06373 -0.2032606,-0.06373 -0.1223009,0 -0.2032607,0.06373 -0.08785,0.0689 -0.08785,0.187758 0,0.127469 0.1550293,0.16881 0.1963704,0.05168 0.3341743,0.07579 0.2256537,0.04823 0.3565673,0.173977 0.1326362,0.124024 0.1326362,0.363458 0,0.303168 -0.2153185,0.458197 -0.1912028,0.137804 -0.471978,0.137804 -0.2807753,0 -0.4719781,-0.137804 -0.2153185,-0.155029 -0.2153185,-0.423746 v -0.105076 h 0.3755154 z"
         style="fill:#e6e6e6;fill-opacity:1;stroke-width:0.26458332"
         id="path7731"
         inkscape:connector-curvature="0" />
      <path
         d="m 4.9895663,76.850278 q 0.1050754,0 0.1774224,0.07235 0.07407,0.07407 0.07407,0.177423 0,0.105075 -0.07407,0.179145 -0.072347,0.07235 -0.1774224,0.07235 -0.1033528,0 -0.1774224,-0.07235 -0.074069,-0.07407 -0.074069,-0.179145 0,-0.103353 0.074069,-0.177423 0.07407,-0.07235 0.1774224,-0.07235 z m 0.198093,2.640666 h -0.396186 v -1.572686 q 0,-0.02067 -0.02067,-0.02067 H 4.5778774 v -0.301446 h 0.6097819 z"
         style="fill:#e6e6e6;fill-opacity:1;stroke-width:0.26458332"
         id="path7733"
         inkscape:connector-curvature="0" />
      <path
         d="m 6.0627136,77.728778 q 0.00345,0.0155 0.022393,0.0155 0.00861,0 0.015503,-0.0086 0.1567519,-0.179145 0.4547526,-0.179145 0.2842204,0 0.4409722,0.161919 0.1550293,0.16192 0.1550293,0.447863 v 1.324639 H 6.7551778 v -1.309136 q 0,-0.125746 -0.093018,-0.201538 -0.08785,-0.07063 -0.2153185,-0.07063 -0.129191,0 -0.2153184,0.07063 -0.09474,0.07579 -0.09474,0.201538 v 1.309136 H 5.7405972 v -1.894803 h 0.2911105 z"
         style="fill:#e6e6e6;fill-opacity:1;stroke-width:0.26458332"
         id="path7735"
         inkscape:connector-curvature="0" />
    </g>
    <g
       aria-label="tri"
       style="font-style:normal;font-variant:normal;font-weight:normal;font-stretch:normal;font-size:3.52777767px;line-height:0.80000001;font-family:Steagisler;-inkscape-font-specification:Steagisler;font-variant-ligatures:normal;font-variant-caps:normal;font-variant-numeric:normal;font-feature-settings:normal;text-align:center;letter-spacing:0px;word-spacing:0px;writing-mode:lr-tb;text-anchor:middle;display:inline;opacity:1;fill:#e6e6e6;fill-opacity:1;stroke:none;stroke-width:0.26458332"
       id="text7637">
      <path
         d="m 3.4082675,89.596141 h 0.2273763 q 0.020671,0 0.020671,-0.02067 v -0.496094 h 0.396186 v 0.496094 q 0,0.02067 0.020671,0.02067 h 0.3669026 v 0.301446 H 4.073171 q -0.020671,0 -0.020671,0.02067 v 1.030083 q 0.012058,0.258383 0.1929253,0.258383 0.086127,0 0.1946479,-0.02067 v 0.304891 q -0.1326362,0.04823 -0.2669949,0.04823 -0.5029839,-0.0017 -0.5167643,-0.558105 v -1.062812 q 0,-0.02067 -0.020671,-0.02067 H 3.4082675 Z"
         style="fill:#e6e6e6;fill-opacity:1;stroke-width:0.26458332"
         id="path7724"
         inkscape:connector-curvature="0" />
      <path
         d="m 5.6320766,89.91998 q -0.070625,-0.01378 -0.1395264,-0.01722 -0.129191,0 -0.1860351,0.0689 -0.072347,0.08441 -0.072347,0.210151 v 1.309136 h -0.396186 v -1.894803 h 0.2911106 l 0.031006,0.132637 q 0.00345,0.0155 0.018948,0.0155 0.01378,0 0.02067,-0.01206 0.015503,-0.02584 0.032728,-0.04823 0.096463,-0.122301 0.2618273,-0.127468 0.1171332,0.0017 0.1894802,0.03962 z"
         style="fill:#e6e6e6;fill-opacity:1;stroke-width:0.26458332"
         id="path7726"
         inkscape:connector-curvature="0" />
      <path
         d="m 6.2298007,88.850278 q 0.1050754,0 0.1774224,0.07235 0.07407,0.07407 0.07407,0.177423 0,0.105075 -0.07407,0.179145 -0.072347,0.07235 -0.1774224,0.07235 -0.1033529,0 -0.1774224,-0.07235 -0.07407,-0.07407 -0.07407,-0.179145 0,-0.103353 0.07407,-0.177423 0.07407,-0.07235 0.1774224,-0.07235 z m 0.198093,2.640666 h -0.396186 v -1.572686 q 0,-0.02067 -0.020671,-0.02067 H 5.8181118 v -0.301446 h 0.6097819 z"
         style="fill:#e6e6e6;fill-opacity:1;stroke-width:0.26458332"
         id="path7728"
         inkscape:connector-curvature="0" />
    </g>
    <g
       aria-label="saw"
       style="font-style:normal;font-variant:normal;font-weight:normal;font-stretch:normal;font-size:3.52777767px;line-height:0.80000001;font-family:Steagisler;-inkscape-font-specification:Steagisler;font-variant-ligatures:normal;font-variant-caps:normal;font-variant-numeric:normal;font-feature-settings:normal;text-align:center;letter-spacing:0px;word-spacing:0px;writing-mode:lr-tb;text-anchor:middle;display:inline;opacity:1;fill:#e6e6e6;fill-opacity:1;stroke:none;stroke-width:0.26458332"
       id="text7641">
      <path
         d="m 2.5556064,102.93285 q 0,0.12057 0.093018,0.18948 0.084405,0.0637 0.2084283,0.0637 0.1240234,0 0.2084283,-0.0637 0.093018,-0.0689 0.093018,-0.18948 0,-0.12575 -0.1550293,-0.17226 -0.1412489,-0.0413 -0.3341742,-0.0775 -0.2428792,-0.0586 -0.3669027,-0.20326 -0.1223009,-0.14642 -0.1223009,-0.36002 0,-0.27044 0.2084283,-0.42374 0.1877577,-0.13781 0.468533,-0.13781 0.2807753,0 0.468533,0.13781 0.2084282,0.1533 0.2084282,0.42374 v 0.10163 H 3.1584981 v -0.0603 q 0,-0.11885 -0.08785,-0.18775 -0.079237,-0.0637 -0.2032606,-0.0637 -0.1223009,0 -0.2032607,0.0637 -0.08785,0.0689 -0.08785,0.18775 0,0.12747 0.1550293,0.16881 0.1963704,0.0517 0.3341743,0.0758 0.2256537,0.0482 0.3565673,0.17397 0.1326362,0.12403 0.1326362,0.36346 0,0.30317 -0.2153185,0.4582 -0.1912028,0.1378 -0.471978,0.1378 -0.2807753,0 -0.4719781,-0.1378 -0.2153185,-0.15503 -0.2153185,-0.42375 v -0.10507 h 0.3755154 z"
         style="fill:#e6e6e6;fill-opacity:1;stroke-width:0.26458332"
         id="path7717"
         inkscape:connector-curvature="0" />
      <path
         d="M 5.3289082,103.49095 H 4.922387 q -0.020671,-0.0465 -0.034451,-0.0965 -0.00345,-0.0121 -0.015503,-0.0155 -0.00345,-0.002 -0.00517,-0.002 -0.00689,0 -0.01378,0.007 -0.1498617,0.15503 -0.4220242,0.15503 -0.5787761,0 -0.5787761,-0.56844 0,-0.34106 0.3479547,-0.47025 0.1653646,-0.062 0.3410644,-0.062 0.1464166,0 0.3014459,0.0431 0.00345,0.002 0.00517,0.002 0.00689,0 0.012058,-0.005 0.00861,-0.005 0.00861,-0.0155 v -0.28077 q 0,-0.12575 -0.09474,-0.20154 -0.08785,-0.0689 -0.2153185,-0.0689 -0.1274685,0 -0.2153185,0.0689 -0.09474,0.0758 -0.09474,0.20154 v 0.0413 H 3.8733554 v -0.0568 q 0,-0.28422 0.2101508,-0.45303 0.1946479,-0.15675 0.4857585,-0.15675 0.2911105,0 0.4857584,0.15675 0.2084283,0.16881 0.2084283,0.45303 v 1.0542 q 0,0.12402 0.065457,0.27044 z M 4.868988,102.77093 q 0,-0.0138 -0.01378,-0.019 -0.1205783,-0.0431 -0.2446018,-0.0431 -0.062012,0 -0.1257459,0.0103 -0.2359891,0.0396 -0.2359891,0.23771 0,0.2291 0.3100586,0.2291 0.1274685,0 0.2153185,-0.0689 0.09474,-0.0758 0.09474,-0.19982 z"
         style="fill:#e6e6e6;fill-opacity:1;stroke-width:0.26458332"
         id="path7719"
         inkscape:connector-curvature="0" />
      <path
         d="M 5.5614523,101.59615 H 5.950748 l 0.3100586,1.52273 q 0.00345,0.0172 0.020671,0.0172 0.017225,-0.002 0.018948,-0.019 l 0.1946479,-1.52101 h 0.5133192 l 0.1946479,1.52101 q 0.00172,0.0172 0.018948,0.019 0.017225,0 0.020671,-0.0172 l 0.3100586,-1.52273 H 7.942014 l -0.4530301,1.9103 H 6.9584384 l -0.1860351,-1.45038 q -0.00345,-0.019 -0.020671,-0.019 -0.017225,0 -0.020671,0.019 L 6.545027,103.50645 H 6.0144823 Z"
         style="fill:#e6e6e6;fill-opacity:1;stroke-width:0.26458332"
         id="path7721"
         inkscape:connector-curvature="0" />
    </g>
    <g
       aria-label="pul"
       style="font-style:normal;font-variant:normal;font-weight:normal;font-stretch:normal;font-size:3.52777767px;line-height:0.80000001;font-family:Steagisler;-inkscape-font-specification:Steagisler;font-variant-ligatures:normal;font-variant-caps:normal;font-variant-numeric:normal;font-feature-settings:normal;text-align:center;letter-spacing:0px;word-spacing:0px;writing-mode:lr-tb;text-anchor:middle;display:inline;opacity:1;fill:#e6e6e6;fill-opacity:1;stroke:none;stroke-width:0.26458332"
       id="text7645">
      <path
         d="m 2.9827983,113.59613 h 0.2911105 l 0.031006,0.13264 q 0.00345,0.0155 0.018948,0.0155 0.010335,0 0.017226,-0.009 0.1584744,-0.17914 0.4564751,-0.17914 0.2842204,0 0.4409722,0.16364 0.1550293,0.16019 0.1550293,0.44614 v 0.76309 q 0,0.28766 -0.1550293,0.44786 -0.1567518,0.16192 -0.4409722,0.16192 -0.2342665,0 -0.3858507,-0.11369 -0.00517,-0.003 -0.012058,-0.003 -0.020671,0 -0.020671,0.0207 v 0.80443 H 2.9827983 Z m 0.3961859,1.31948 q 0,0.12402 0.09474,0.19981 0.086127,0.0706 0.2153184,0.0706 0.1274685,0 0.2153185,-0.0706 0.093018,-0.0758 0.093018,-0.19981 v -0.73381 q 0,-0.12575 -0.093018,-0.20154 -0.08785,-0.0689 -0.2153185,-0.0689 -0.1291911,0 -0.2153184,0.0689 -0.09474,0.0758 -0.09474,0.20154 z"
         style="fill:#e6e6e6;fill-opacity:1;stroke-width:0.26458332"
         id="path7710"
         inkscape:connector-curvature="0" />
      <path
         d="m 5.8473951,115.36691 q -0.00345,-0.0121 -0.015503,-0.0138 -0.00345,-0.002 -0.00689,-0.002 -0.00689,0 -0.012058,0.007 -0.1584743,0.18087 -0.4581976,0.18087 -0.2842204,0 -0.4409723,-0.16192 Q 4.758745,115.21514 4.758745,114.9292 v -1.33326 h 0.3961859 v 1.31775 q 0,0.12575 0.093018,0.20154 0.08785,0.0706 0.2153185,0.0706 0.129191,0 0.2153184,-0.0706 0.09474,-0.0758 0.09474,-0.20154 v -1.31775 h 0.396186 v 1.89481 H 5.878401 Z"
         style="fill:#e6e6e6;fill-opacity:1;stroke-width:0.26458332"
         id="path7712"
         inkscape:connector-curvature="0" />
      <path
         d="M 7.1772021,115.49094 H 6.7706808 q -0.055122,-0.11541 -0.055122,-0.25666 v -2.38401 h 0.3961859 v 2.37023 q 0,0.12402 0.065457,0.27044 z"
         style="fill:#e6e6e6;fill-opacity:1;stroke-width:0.26458332"
         id="path7714"
         inkscape:connector-curvature="0" />
    </g>
    <g
       aria-label="cv"
       style="font-style:normal;font-variant:normal;font-weight:normal;font-stretch:normal;font-size:3.52777767px;line-height:0.80000001;font-family:Steagisler;-inkscape-font-specification:Steagisler;font-variant-ligatures:normal;font-variant-caps:normal;font-variant-numeric:normal;font-feature-settings:normal;text-align:center;letter-spacing:0px;word-spacing:0px;writing-mode:lr-tb;text-anchor:middle;fill:#696969;fill-opacity:1;stroke:none;stroke-width:0.26458332"
       id="text7688">
      <path
         d="m 5.0024853,51.938449 q 0,0.284221 -0.2153185,0.454753 -0.198093,0.155029 -0.4909261,0.155029 -0.2911105,0 -0.4892035,-0.155029 Q 3.5917187,52.22267 3.5917187,51.938449 v -0.763088 q 0,-0.284221 0.2153185,-0.45303 0.198093,-0.156752 0.4892035,-0.156752 0.2911106,0 0.4805908,0.156752 0.2049832,0.168809 0.2049832,0.45303 v 0.05684 H 4.6062993 v -0.04134 q 0,-0.125746 -0.09474,-0.201538 -0.08785,-0.0689 -0.2153185,-0.0689 -0.1274685,0 -0.2153184,0.0689 -0.09474,0.07579 -0.09474,0.201538 v 0.733805 q 0,0.124024 0.09474,0.199816 0.08785,0.07062 0.2153184,0.07062 0.1291911,0 0.2239312,-0.0689 0.1050754,-0.07751 0.1050754,-0.201538 v -0.04134 h 0.377238 z"
         style="fill:#696969;fill-opacity:1;stroke-width:0.26458332"
         id="path7705"
         inkscape:connector-curvature="0" />
      <path
         d="m 5.2384743,50.605198 h 0.3892958 l 0.3100586,1.522732 q 0.00345,0.01723 0.018948,0.01723 0.017226,0 0.020671,-0.01723 L 6.2875062,50.605198 H 6.676802 l -0.45303,1.910305 H 5.6915043 Z"
         style="fill:#696969;fill-opacity:1;stroke-width:0.26458332"
         id="path7707"
         inkscape:connector-curvature="0" />
    </g>
    <g
       aria-label="reset"
       style="font-style:normal;font-variant:normal;font-weight:normal;font-stretch:normal;font-size:3.52777767px;line-height:0.80000001;font-family:Steagisler;-inkscape-font-specification:Steagisler;font-variant-ligatures:normal;font-variant-caps:normal;font-variant-numeric:normal;font-feature-settings:normal;text-align:center;letter-spacing:0px;word-spacing:0px;writing-mode:lr-tb;text-anchor:middle;fill:#696969;fill-opacity:1;stroke:none;stroke-width:0.26458332"
       id="text7692">
      <path
         d="m 2.2774148,62.929037 q -0.070624,-0.01378 -0.1395263,-0.01723 -0.1291911,0 -0.1860352,0.0689 -0.072347,0.0844 -0.072347,0.210151 V 64.5 h -0.396186 v -1.894802 h 0.2911106 l 0.031006,0.132636 q 0.00345,0.0155 0.018948,0.0155 0.01378,0 0.020671,-0.01206 0.015503,-0.02584 0.032728,-0.04823 0.096463,-0.1223 0.2618272,-0.127468 0.1171333,0.0017 0.1894803,0.03962 z"
         style="fill:#696969;fill-opacity:1;stroke-width:0.26458332"
         id="path7694"
         inkscape:connector-curvature="0" />
      <path
         d="m 2.9647114,63.655952 q -0.020671,0 -0.020671,0.02067 v 0.248047 q 0,0.124024 0.09474,0.199816 0.086127,0.07062 0.2153184,0.07062 0.1291911,0 0.2239312,-0.0689 0.1050754,-0.07751 0.1050754,-0.201538 v -0.04134 h 0.3755154 v 0.05512 q 0,0.284221 -0.2153184,0.454753 -0.198093,0.155029 -0.4892036,0.155029 -0.2928331,0 -0.4909261,-0.155029 -0.2153178,-0.17053 -0.2153178,-0.454751 v -0.763088 q 0,-0.284221 0.2153184,-0.45303 0.198093,-0.156752 0.4909261,-0.156752 0.289388,0 0.4805908,0.156752 0.2049832,0.168809 0.2049832,0.45303 v 0.480591 z m -0.020671,-0.296279 q 0,0.02067 0.020671,0.02067 h 0.5770535 q 0.020671,0 0.020671,-0.02067 v -0.168809 q 0,-0.125746 -0.093018,-0.201538 -0.08785,-0.0689 -0.2153185,-0.0689 -0.129191,0 -0.2153184,0.0689 -0.09474,0.07579 -0.09474,0.201538 z"
         style="fill:#696969;fill-opacity:1;stroke-width:0.26458332"
         id="path7696"
         inkscape:connector-curvature="0" />
      <path
         d="m 4.7509934,63.941895 q 0,0.120578 0.093018,0.18948 0.084405,0.06373 0.2084283,0.06373 0.1240234,0 0.2084282,-0.06373 0.093018,-0.0689 0.093018,-0.18948 0,-0.125746 -0.1550293,-0.172255 Q 5.0576077,63.7283 4.8646824,63.69212 4.6218032,63.63355 4.4977797,63.48886 4.3754788,63.342443 4.3754788,63.128847 q 0,-0.27044 0.2084283,-0.423747 0.1877577,-0.137804 0.468533,-0.137804 0.2807752,0 0.4685329,0.137804 0.2084283,0.153307 0.2084283,0.423747 v 0.10163 H 5.3538851 v -0.06029 q 0,-0.118856 -0.08785,-0.187758 -0.079237,-0.06373 -0.2032606,-0.06373 -0.1223009,0 -0.2032607,0.06373 -0.08785,0.0689 -0.08785,0.187758 0,0.127469 0.1550293,0.16881 0.1963704,0.05168 0.3341742,0.07579 0.2256538,0.04823 0.3565674,0.173977 0.1326362,0.124024 0.1326362,0.363458 0,0.303168 -0.2153185,0.458198 -0.1912028,0.137803 -0.471978,0.137803 -0.2807753,0 -0.4719781,-0.137803 Q 4.375478,64.255398 4.375478,63.986681 v -0.105076 h 0.3755154 z"
         style="fill:#696969;fill-opacity:1;stroke-width:0.26458332"
         id="path7698"
         inkscape:connector-curvature="0" />
      <path
         d="m 6.5269403,63.655952 q -0.02067,0 -0.02067,0.02067 v 0.248047 q 0,0.124024 0.09474,0.199816 0.086127,0.07062 0.2153184,0.07062 0.1291911,0 0.2239312,-0.0689 0.1050755,-0.07751 0.1050755,-0.201538 v -0.04134 h 0.3755154 v 0.05512 q 0,0.284221 -0.2153185,0.454753 -0.198093,0.155029 -0.4892036,0.155029 -0.2928331,0 -0.490926,-0.155029 -0.2153189,-0.17053 -0.2153189,-0.454751 v -0.763088 q 0,-0.284221 0.2153185,-0.45303 0.1980929,-0.156752 0.490926,-0.156752 0.2893881,0 0.4805909,0.156752 0.2049831,0.168809 0.2049831,0.45303 v 0.480591 z m -0.02067,-0.296279 q 0,0.02067 0.02067,0.02067 h 0.5770535 q 0.020671,0 0.020671,-0.02067 v -0.168809 q 0,-0.125746 -0.093018,-0.201538 -0.08785,-0.0689 -0.2153185,-0.0689 -0.129191,0 -0.2153184,0.0689 -0.09474,0.07579 -0.09474,0.201538 z"
         style="fill:#696969;fill-opacity:1;stroke-width:0.26458332"
         id="path7700"
         inkscape:connector-curvature="0" />
      <path
         d="m 7.756839,62.605198 h 0.2273763 q 0.020671,0 0.020671,-0.02067 v -0.496094 h 0.396186 v 0.496094 q 0,0.02067 0.02067,0.02067 H 8.788645 v 0.301445 H 8.4217424 q -0.02067,0 -0.02067,0.02067 v 1.030083 q 0.012058,0.258383 0.1929253,0.258383 0.086127,0 0.1946479,-0.02067 V 64.5 Q 8.6560094,64.54823 8.5216507,64.54823 8.0186668,64.54653 8.0048864,63.990125 v -1.062812 q 0,-0.02067 -0.020671,-0.02067 H 7.756839 Z"
         style="fill:#696969;fill-opacity:1;stroke-width:0.26458332"
         id="path7702"
         inkscape:connector-curvature="0" />
    </g>
    <g
       aria-label="ads."
       style="font-style:normal;font-variant:normal;font-weight:normal;font-stretch:normal;font-size:3.52777767px;line-height:0.80000001;font-family:Steagisler;-inkscape-font-specification:Steagisler;font-variant-ligatures:normal;font-variant-caps:normal;font-variant-numeric:normal;font-feature-settings:normal;text-align:center;letter-spacing:0px;word-spacing:0px;writing-mode:lr-tb;text-anchor:middle;fill:#f2f2f2;fill-opacity:1;stroke:none;stroke-width:0.26458332"
       id="text7740">
      <path
         d="M 3.6761236,8.6779699 H 3.2696023 q -0.020671,-0.046509 -0.034451,-0.096463 -0.00345,-0.012058 -0.015503,-0.015503 -0.00345,-0.00172 -0.00517,-0.00172 -0.00689,0 -0.01378,0.00689 -0.1498617,0.1550293 -0.4220242,0.1550293 -0.578776,0 -0.578776,-0.5684408 0,-0.3410644 0.3479546,-0.4702555 0.1653646,-0.062012 0.3410645,-0.062012 0.1464165,0 0.3014458,0.043064 0.00345,0.00172 0.00517,0.00172 0.00689,0 0.012058,-0.00517 0.00861,-0.00517 0.00861,-0.015503 V 7.3688337 q 0,-0.125746 -0.09474,-0.2015381 -0.08785,-0.068902 -0.2153185,-0.068902 -0.1274685,0 -0.2153184,0.068902 -0.09474,0.075792 -0.09474,0.2015381 v 0.041341 H 2.2205708 v -0.056844 q 0,-0.2842204 0.2101508,-0.4530301 0.1946479,-0.1567518 0.4857584,-0.1567518 0.2911106,0 0.4857585,0.1567518 0.2084282,0.1688097 0.2084282,0.4530301 v 1.0541991 q 0,0.1240235 0.065457,0.2704401 z M 3.2162033,7.957945 q 0,-0.01378 -0.01378,-0.018948 Q 3.081845,7.895933 2.9578216,7.895933 q -0.062012,0 -0.125746,0.010335 -0.235989,0.039619 -0.235989,0.2377115 0,0.2290989 0.3100585,0.2290989 0.1274686,0 0.2153185,-0.068902 0.09474,-0.075792 0.09474,-0.1998155 z"
         style="fill:#f2f2f2;fill-opacity:1;stroke-width:0.26458332"
         id="path7742"
         inkscape:connector-curvature="0" />
      <path
         d="M 5.5071917,8.6779699 H 5.102393 Q 5.08,8.6331839 5.067942,8.5832299 q -0.00345,-0.010335 -0.015503,-0.01378 -0.00345,-0.00172 -0.00517,-0.00172 -0.00689,0 -0.01378,0.00689 -0.1515842,0.1515842 -0.4220242,0.1515842 -0.2824978,0 -0.434082,-0.1636421 Q 4.0326909,8.4040848 4.0326909,8.1164194 V 7.3533308 q 0,-0.285943 0.1550293,-0.4461399 0.1567518,-0.163642 0.4409722,-0.163642 0.2342665,0 0.3858507,0.1136881 0.00517,0.00517 0.012058,0.00517 0.00345,0 0.00861,-0.00345 0.012058,-0.00517 0.012058,-0.017226 V 6.0373043 h 0.396186 v 2.3702256 q 0,0.1240235 0.063734,0.27044 z M 5.0472715,7.3688337 q 0,-0.125746 -0.09474,-0.2015381 -0.086127,-0.068902 -0.2153185,-0.068902 -0.1274685,0 -0.2153184,0.068902 -0.093018,0.075792 -0.093018,0.2015381 V 8.102639 q 0,0.1240234 0.093018,0.1998155 0.08785,0.070625 0.2153184,0.070625 0.1291911,0 0.2153185,-0.070625 0.09474,-0.075792 0.09474,-0.1998155 z"
         style="fill:#f2f2f2;fill-opacity:1;stroke-width:0.26458332"
         id="path7744"
         inkscape:connector-curvature="0" />
      <path
         d="m 6.2082686,8.1198645 q 0,0.1205783 0.093018,0.1894802 0.084405,0.063734 0.2084283,0.063734 0.1240234,0 0.2084283,-0.063734 0.093018,-0.068902 0.093018,-0.1894802 0,-0.125746 -0.1550293,-0.1722548 Q 6.5148821,7.9062686 6.3219568,7.8700951 6.0790776,7.8115284 5.9550541,7.6668344 5.8327532,7.5204179 5.8327532,7.306822 q 0,-0.27044 0.2084283,-0.4237468 0.1877577,-0.1378038 0.468533,-0.1378038 0.2807753,0 0.468533,0.1378038 Q 7.1866757,7.036382 7.1866757,7.306822 V 7.4084523 H 6.8111603 v -0.060289 q 0,-0.1188558 -0.08785,-0.1877577 -0.079237,-0.063734 -0.2032606,-0.063734 -0.1223009,0 -0.2032607,0.063734 -0.08785,0.068902 -0.08785,0.1877577 0,0.1274685 0.1550293,0.1688097 0.1963704,0.051676 0.3341743,0.075792 0.2256537,0.048231 0.3565673,0.1739773 0.1326362,0.1240234 0.1326362,0.3634576 0,0.3031684 -0.2153185,0.4581977 -0.1912028,0.1378038 -0.471978,0.1378038 -0.2807753,0 -0.4719781,-0.1378038 Q 5.8327532,8.4333682 5.8327532,8.1646507 V 8.0595753 h 0.3755154 z"
         style="fill:#f2f2f2;fill-opacity:1;stroke-width:0.26458332"
         id="path7746"
         inkscape:connector-curvature="0" />
      <path
         d="m 7.7533937,8.2249399 q 0.1050754,0 0.1791449,0.074069 0.072347,0.07407 0.072347,0.1774225 0,0.1033528 -0.072347,0.1774224 -0.07407,0.074069 -0.1791449,0.074069 -0.1033529,0 -0.1774224,-0.074069 -0.072347,-0.07407 -0.072347,-0.1774224 0,-0.1033529 0.072347,-0.1774225 0.07407,-0.074069 0.1774224,-0.074069 z"
         style="fill:#f2f2f2;fill-opacity:1;stroke-width:0.26458332"
         id="path7748"
         inkscape:connector-curvature="0" />
    </g>
    <g
       aria-label="uLFO"
       style="font-style:normal;font-variant:normal;font-weight:normal;font-stretch:normal;font-size:3.52777767px;line-height:0.80000001;font-family:Steagisler;-inkscape-font-specification:Steagisler;font-variant-ligatures:normal;font-variant-caps:normal;font-variant-numeric:normal;font-feature-settings:normal;text-align:center;letter-spacing:0px;word-spacing:0px;writing-mode:lr-tb;text-anchor:middle;fill:#f2f2f2;fill-opacity:1;stroke:none;stroke-width:0.26458332"
       id="text7753">
      <path
         d="m 2.0086974,123.326 c 0.0023,-0.008 0.00747,-0.0126 0.015503,-0.0138 0.0023,-0.001 0.0046,-0.002 0.00689,-0.002 0.00459,0 0.00861,0.002 0.012058,0.007 0.1056496,0.12058 0.2583822,0.18087 0.4581977,0.18087 0.1894803,0 0.336471,-0.054 0.4409722,-0.16192 0.1033529,-0.10795 0.1550293,-0.25723 0.1550293,-0.44786 v -1.33325 H 2.7011617 v 1.31774 c 0,0.0838 -0.031006,0.15101 -0.093018,0.20154 -0.058567,0.0471 -0.1303395,0.0706 -0.2153185,0.0706 -0.086127,0 -0.1579002,-0.0235 -0.2153184,-0.0706 -0.06316,-0.0505 -0.09474,-0.11771 -0.09474,-0.20154 v -1.31774 H 1.6865809 v 3.05235 h 0.2911106 z"
         style="fill:#f2f2f2;fill-opacity:1;stroke-width:0.26458332"
         id="path7755"
         inkscape:connector-curvature="0"
         sodipodi:nodetypes="ccscscsccscscsccccc" />
      <path
         d="m 4.070587,123.09346 q 0,0.0207 0.020671,0.0207 h 0.8130425 v 0.3359 h -1.25057 v -2.64239 H 4.070587 Z"
         style="fill:#f2f2f2;fill-opacity:1;stroke-width:0.26458332"
         id="path7757"
         inkscape:connector-curvature="0" />
      <path
         d="m 5.7449033,122.60253 q -0.02067,0 -0.02067,0.0207 v 0.82683 H 5.3073762 v -2.64239 h 1.2522922 v 0.33762 H 5.7449033 q -0.02067,0 -0.02067,0.0207 v 1.07831 q 0,0.0207 0.02067,0.0207 h 0.7355279 v 0.33762 z"
         style="fill:#f2f2f2;fill-opacity:1;stroke-width:0.26458332"
         id="path7759"
         inkscape:connector-curvature="0" />
      <path
         d="m 6.9610217,121.37608 q 0,-0.28767 0.2273763,-0.4582 0.2067058,-0.15675 0.5133192,-0.15675 0.3066135,0 0.5150418,0.15675 0.2256537,0.17053 0.2256537,0.4582 v 1.50895 q 0,0.28767 -0.2256537,0.4582 -0.2084283,0.15675 -0.5150418,0.15675 -0.3066134,0 -0.5133192,-0.15675 -0.2273763,-0.17053 -0.2273763,-0.4582 z m 1.0662571,0.0138 q 0,-0.12575 -0.099908,-0.20154 -0.091295,-0.0706 -0.2256538,-0.0706 -0.1343587,0 -0.2256537,0.0706 -0.098185,0.0758 -0.098185,0.20154 v 1.47967 q 0,0.12747 0.098185,0.20326 0.091295,0.0706 0.2256537,0.0706 0.1343588,0 0.2256538,-0.0706 0.099908,-0.0758 0.099908,-0.20326 z"
         style="fill:#f2f2f2;fill-opacity:1;stroke-width:0.26458332"
         id="path7761"
         inkscape:connector-curvature="0" />
    </g>
    <g
       transform="translate(-0.01169254,0.04828216)"
       aria-label="rate"
       style="font-style:normal;font-variant:normal;font-weight:normal;font-stretch:normal;font-size:3.52777767px;line-height:0.80000001;font-family:Steagisler;-inkscape-font-specification:Steagisler;font-variant-ligatures:normal;font-variant-caps:normal;font-variant-numeric:normal;font-feature-settings:normal;text-align:center;letter-spacing:0px;word-spacing:0px;writing-mode:lr-tb;text-anchor:middle;display:inline;opacity:1;fill:#696969;fill-opacity:1;stroke:none;stroke-width:0.26458332"
       id="text7793">
      <path
         inkscape:connector-curvature="0"
         d="m 3.1653879,23.880805 q -0.070624,-0.01378 -0.1395264,-0.01722 -0.129191,0 -0.1860351,0.0689 -0.072347,0.08441 -0.072347,0.210151 v 1.309136 H 2.3712934 V 23.556966 H 2.662404 l 0.031006,0.132637 q 0.00345,0.0155 0.018948,0.0155 0.01378,0 0.02067,-0.01206 0.015503,-0.02584 0.032728,-0.04823 0.096463,-0.122301 0.2618273,-0.127468 0.1171332,0.0017 0.1894802,0.03962 z"
         style="fill:#696969;fill-opacity:1;stroke-width:0.26458332"
         id="path7836" />
      <path
         inkscape:connector-curvature="0"
         d="M 4.8500396,25.451769 H 4.4435183 q -0.02067,-0.04651 -0.034451,-0.09646 -0.00345,-0.01206 -0.015503,-0.0155 -0.00345,-0.0017 -0.00517,-0.0017 -0.00689,0 -0.01378,0.0069 Q 4.2247548,25.5 3.9525923,25.5 q -0.5787761,0 -0.5787761,-0.568441 0,-0.341064 0.3479547,-0.470255 0.1653645,-0.06201 0.3410644,-0.06201 0.1464166,0 0.3014459,0.04306 0.00345,0.0017 0.00517,0.0017 0.00689,0 0.012058,-0.0052 0.00861,-0.0052 0.00861,-0.0155 v -0.280775 q 0,-0.125746 -0.09474,-0.201538 -0.08785,-0.0689 -0.2153184,-0.0689 -0.1274685,0 -0.2153185,0.0689 -0.09474,0.07579 -0.09474,0.201538 v 0.04134 H 3.3944868 v -0.05684 q 0,-0.284221 0.2101508,-0.45303 0.1946479,-0.156752 0.4857585,-0.156752 0.2911105,0 0.4857584,0.156752 0.2084283,0.168809 0.2084283,0.45303 v 1.054199 q 0,0.124023 0.065457,0.27044 z M 4.3901194,24.731744 q 0,-0.01378 -0.01378,-0.01895 -0.1205784,-0.04306 -0.2446018,-0.04306 -0.062012,0 -0.125746,0.01034 -0.235989,0.03962 -0.235989,0.237711 0,0.229099 0.3100586,0.229099 0.1274685,0 0.2153184,-0.0689 0.09474,-0.07579 0.09474,-0.199816 z"
         style="fill:#696969;fill-opacity:1;stroke-width:0.26458332"
         id="path7838" />
      <path
         inkscape:connector-curvature="0"
         d="m 5.0825834,23.556966 h 0.2273763 q 0.020671,0 0.020671,-0.02067 v -0.496094 h 0.3961859 v 0.496094 q 0,0.02067 0.020671,0.02067 h 0.3669027 v 0.301446 H 5.7474868 q -0.020671,0 -0.020671,0.02067 v 1.030083 q 0.012058,0.258383 0.1929254,0.258383 0.086127,0 0.1946479,-0.02067 v 0.304891 Q 5.9817533,25.5 5.8473946,25.5 5.3444107,25.498278 5.3306303,24.941895 v -1.062812 q 0,-0.02067 -0.020671,-0.02067 H 5.0825834 Z"
         style="fill:#696969;fill-opacity:1;stroke-width:0.26458332"
         id="path7840" />
      <path
         inkscape:connector-curvature="0"
         d="m 6.7947962,24.607721 q -0.020671,0 -0.020671,0.02067 v 0.248047 q 0,0.124023 0.09474,0.199815 0.086127,0.07062 0.2153184,0.07062 0.1291911,0 0.2239312,-0.0689 0.1050754,-0.07751 0.1050754,-0.201538 v -0.04134 h 0.3755154 v 0.05512 q 0,0.284221 -0.2153184,0.454753 Q 7.3752948,25.5 7.0841842,25.5 6.7913511,25.5 6.5932581,25.344971 6.3779397,25.174439 6.3779397,24.890218 V 24.12713 q 0,-0.284221 0.2153184,-0.45303 0.198093,-0.156752 0.4909261,-0.156752 0.289388,0 0.4805908,0.156752 0.2049832,0.168809 0.2049832,0.45303 v 0.480591 z m -0.020671,-0.296279 q 0,0.02067 0.020671,0.02067 h 0.5770535 q 0.020671,0 0.020671,-0.02067 v -0.168809 q 0,-0.125746 -0.093018,-0.201538 -0.08785,-0.0689 -0.2153185,-0.0689 -0.129191,0 -0.2153184,0.0689 -0.09474,0.07579 -0.09474,0.201538 z"
         style="fill:#696969;fill-opacity:1;stroke-width:0.26458332"
         id="path7842" />
    </g>
    <g
       transform="translate(-0.01169254,0.04828216)"
       aria-label="pw"
       style="font-style:normal;font-variant:normal;font-weight:normal;font-stretch:normal;font-size:2.11666656px;line-height:0.80000001;font-family:Steagisler;-inkscape-font-specification:Steagisler;font-variant-ligatures:normal;font-variant-caps:normal;font-variant-numeric:normal;font-feature-settings:normal;text-align:center;letter-spacing:0px;word-spacing:0px;writing-mode:lr-tb;text-anchor:middle;display:inline;opacity:1;fill:#696969;fill-opacity:1;stroke:none;stroke-width:0.26458332"
       id="text7793-0">
      <path
         inkscape:connector-curvature="0"
         d="m 3.8612972,31.256547 h 0.1746663 l 0.018603,0.07958 q 0.00207,0.0093 0.011369,0.0093 0.0062,0 0.010335,-0.0052 0.095085,-0.107487 0.2738851,-0.107487 0.1705322,0 0.2645833,0.09818 0.093018,0.09612 0.093018,0.267684 v 0.457853 q 0,0.1726 -0.093018,0.268718 -0.094051,0.09715 -0.2645833,0.09715 -0.1405599,0 -0.2315104,-0.06821 -0.0031,-0.0021 -0.00723,-0.0021 -0.012402,0 -0.012402,0.0124 v 0.482658 h -0.237716 z m 0.2377116,0.791683 q 0,0.07441 0.056844,0.11989 0.051677,0.04237 0.1291911,0.04237 0.076481,0 0.1291911,-0.04237 0.055811,-0.04548 0.055811,-0.11989 v -0.440283 q 0,-0.07545 -0.055811,-0.120923 -0.05271,-0.04134 -0.1291911,-0.04134 -0.077515,0 -0.1291911,0.04134 -0.056844,0.04547 -0.056844,0.120923 z"
         style="font-size:2.11666656px;fill:#696969;fill-opacity:1;stroke-width:0.26458332"
         id="path7845" />
      <path
         inkscape:connector-curvature="0"
         d="m 4.8524511,31.256547 h 0.2335775 l 0.1860352,0.91364 q 0.00207,0.01034 0.012402,0.01034 0.010335,-10e-4 0.011369,-0.01137 l 0.1167887,-0.912606 h 0.3079916 l 0.1167887,0.912606 q 0.00103,0.01033 0.011369,0.01137 0.010335,0 0.012402,-0.01034 L 6.04721,31.256547 H 6.2807877 L 6.0089696,32.402731 H 5.6906428 L 5.5790217,31.532499 q -0.00207,-0.01137 -0.012402,-0.01137 -0.010335,0 -0.012402,0.01137 L 5.442596,32.402731 H 5.1242692 Z"
         style="font-size:2.11666656px;fill:#696969;fill-opacity:1;stroke-width:0.26458332"
         id="path7847" />
    </g>
    <g
       aria-label="polar"
       style="font-style:normal;font-variant:normal;font-weight:normal;font-stretch:normal;font-size:3.52777767px;line-height:0.80000001;font-family:Steagisler;-inkscape-font-specification:Steagisler;font-variant-ligatures:normal;font-variant-caps:normal;font-variant-numeric:normal;font-feature-settings:normal;text-align:center;letter-spacing:0px;word-spacing:0px;writing-mode:lr-tb;text-anchor:middle;display:inline;opacity:1;fill:#696969;fill-opacity:1;stroke:none;stroke-width:0.26458332"
       id="text7889">
      <path
         d="m 3.0146861,39.33822 h 0.1746663 l 0.018603,0.07958 q 0.00207,0.0093 0.011369,0.0093 0.0062,0 0.010335,-0.0052 0.095085,-0.107487 0.2738851,-0.107487 0.1705322,0 0.2645833,0.09818 0.093018,0.09612 0.093018,0.267684 v 0.457853 q 0,0.172599 -0.093018,0.268718 -0.094051,0.09715 -0.2645833,0.09715 -0.1405599,0 -0.2315104,-0.06821 -0.0031,-0.0021 -0.00723,-0.0021 -0.012402,0 -0.012402,0.0124 v 0.482658 H 3.0146861 Z m 0.2377116,0.791683 q 0,0.07441 0.056844,0.119889 0.051677,0.04237 0.1291911,0.04237 0.076481,0 0.1291911,-0.04237 0.05581,-0.04547 0.05581,-0.119889 V 39.68962 q 0,-0.07545 -0.05581,-0.120923 -0.05271,-0.04134 -0.1291911,-0.04134 -0.077515,0 -0.1291911,0.04134 -0.056844,0.04548 -0.056844,0.120923 z"
         style="font-size:2.11666656px;fill:#696969;fill-opacity:1;stroke-width:0.26458332"
         id="path7935" />
      <path
         d="m 4.0802541,39.680318 q 0,-0.170532 0.1291911,-0.271818 0.1188558,-0.09405 0.2935221,-0.09405 0.1756999,0 0.2945556,0.09405 0.1291911,0.101286 0.1291911,0.271818 v 0.457853 q 0,0.170532 -0.1291911,0.272852 -0.1188557,0.09302 -0.2945556,0.09302 -0.1746663,0 -0.2935221,-0.09302 -0.1291911,-0.10232 -0.1291911,-0.272852 z m 0.6087483,0.0093 q 0,-0.07545 -0.056844,-0.120923 -0.05271,-0.04134 -0.1291911,-0.04134 -0.076481,0 -0.1291911,0.04134 -0.05581,0.04548 -0.05581,0.120923 v 0.440283 q 0,0.07441 0.05581,0.119889 0.05271,0.04237 0.1291911,0.04237 0.076481,0 0.1291911,-0.04237 0.056844,-0.04547 0.056844,-0.119889 z"
         style="font-size:2.11666656px;fill:#696969;fill-opacity:1;stroke-width:0.26458332"
         id="path7937" />
      <path
         d="M 5.4693164,40.475101 H 5.2254036 q -0.033073,-0.06925 -0.033073,-0.153995 v -1.430404 h 0.2377116 v 1.422135 q 0,0.07441 0.039274,0.162264 z"
         style="font-size:2.11666656px;fill:#696969;fill-opacity:1;stroke-width:0.26458332"
         id="path7939" />
      <path
         d="M 6.5328175,40.475101 H 6.2889048 q -0.012402,-0.02791 -0.020671,-0.05788 -0.00207,-0.0072 -0.0093,-0.0093 -0.00207,-0.001 -0.0031,-0.001 -0.00413,0 -0.00827,0.0041 -0.089917,0.09302 -0.2532145,0.09302 -0.3472656,0 -0.3472656,-0.341064 0,-0.204639 0.2087728,-0.282153 0.099219,-0.03721 0.2046387,-0.03721 0.08785,0 0.1808675,0.02584 0.00207,0.001 0.0031,0.001 0.00413,0 0.00723,-0.0031 0.00517,-0.0031 0.00517,-0.0093 V 39.68962 q 0,-0.07545 -0.056844,-0.120923 -0.05271,-0.04134 -0.1291911,-0.04134 -0.076481,0 -0.129191,0.04134 -0.056844,0.04548 -0.056844,0.120923 v 0.0248 H 5.6594859 v -0.03411 q 0,-0.170532 0.1260905,-0.271818 0.1167887,-0.09405 0.291455,-0.09405 0.1746663,0 0.2914551,0.09405 0.1250569,0.101286 0.1250569,0.271818 v 0.632519 q 0,0.07441 0.039274,0.162264 z M 6.2568654,40.043087 q 0,-0.0083 -0.00827,-0.01137 -0.072347,-0.02584 -0.1467611,-0.02584 -0.037207,0 -0.075448,0.0062 -0.1415934,0.02377 -0.1415934,0.142627 0,0.137459 0.1860351,0.137459 0.076481,0 0.1291911,-0.04134 0.056844,-0.04548 0.056844,-0.11989 z"
         style="font-size:2.11666656px;fill:#696969;fill-opacity:1;stroke-width:0.26458332"
         id="path7941" />
      <path
         d="m 7.245952,39.532523 q -0.042375,-0.0083 -0.083716,-0.01033 -0.077515,0 -0.111621,0.04134 -0.043408,0.05064 -0.043408,0.126091 v 0.785481 H 6.7694953 V 39.33822 h 0.1746663 l 0.018604,0.07958 q 0.00207,0.0093 0.011369,0.0093 0.00827,0 0.012402,-0.0072 0.0093,-0.0155 0.019637,-0.02894 0.057878,-0.07338 0.1570964,-0.07648 0.07028,0.001 0.1136881,0.02377 z"
         style="font-size:2.11666656px;fill:#696969;fill-opacity:1;stroke-width:0.26458332"
         id="path7943" />
    </g>
  </g>
</svg>
