<?xml version="1.0" encoding="UTF-8" standalone="no"?>
<!-- Created with Inkscape (http://www.inkscape.org/) -->

<svg
   xmlns:dc="http://purl.org/dc/elements/1.1/"
   xmlns:cc="http://creativecommons.org/ns#"
   xmlns:rdf="http://www.w3.org/1999/02/22-rdf-syntax-ns#"
   xmlns:svg="http://www.w3.org/2000/svg"
   xmlns="http://www.w3.org/2000/svg"
   xmlns:sodipodi="http://sodipodi.sourceforge.net/DTD/sodipodi-0.dtd"
   xmlns:inkscape="http://www.inkscape.org/namespaces/inkscape"
   width="10.159999mm"
   height="128.5mm"
   viewBox="0 0 10.159999 128.5"
   version="1.1"
   id="svg8"
   inkscape:version="0.92.1 r15371"
   sodipodi:docname="mult8.svg">
  <defs
     id="defs2">
    <inkscape:path-effect
       effect="simplify"
       id="path-effect5498"
       is_visible="true"
       steps="1"
       threshold="0.000408163"
       smooth_angles="360"
       helper_size="0"
       simplify_individual_paths="false"
       simplify_just_coalesce="false"
       simplifyindividualpaths="false"
       simplifyJustCoalesce="false" />
    <inkscape:path-effect
       effect="simplify"
       id="path-effect5494"
       is_visible="true"
       steps="1"
       threshold="0.000408163"
       smooth_angles="360"
       helper_size="0"
       simplify_individual_paths="false"
       simplify_just_coalesce="false"
       simplifyindividualpaths="false"
       simplifyJustCoalesce="false" />
  </defs>
  <sodipodi:namedview
     id="base"
     pagecolor="#262626"
     bordercolor="#666666"
     borderopacity="1.0"
     inkscape:pageopacity="0"
     inkscape:pageshadow="2"
     inkscape:zoom="11.2"
     inkscape:cx="-14.995932"
     inkscape:cy="420.45376"
     inkscape:document-units="mm"
     inkscape:current-layer="layer1"
     showgrid="false"
     inkscape:window-width="1857"
     inkscape:window-height="1057"
     inkscape:window-x="-8"
     inkscape:window-y="-8"
     inkscape:window-maximized="1"
     showguides="true"
     inkscape:snap-grids="false"
     inkscape:guide-bbox="true"
     inkscape:snap-bbox="true"
     inkscape:bbox-paths="true"
     inkscape:snap-bbox-edge-midpoints="true"
     inkscape:bbox-nodes="true"
     inkscape:snap-bbox-midpoints="true"
     fit-margin-top="0"
     fit-margin-left="0"
     fit-margin-right="0"
     fit-margin-bottom="0">
    <inkscape:grid
       type="xygrid"
       id="grid31"
       originx="2.7755573e-018"
       originy="1.5039822e-014" />
    <sodipodi:guide
       position="2.7755574e-018,1.5039821e-014"
       orientation="0,192"
       id="guide4607"
       inkscape:locked="false" />
    <sodipodi:guide
       position="50.799997,128.49999"
       orientation="0,-192"
       id="guide4611"
       inkscape:locked="false" />
    <sodipodi:guide
       position="2.7755574e-018,128.49999"
       orientation="485.66929,0"
       id="guide4613"
       inkscape:locked="false" />
    <sodipodi:guide
       position="0.99999995,118.65624"
       orientation="1,0"
       id="guide4615"
       inkscape:locked="false"
       inkscape:label=""
       inkscape:color="rgb(0,0,255)" />
    <sodipodi:guide
       position="18.32,113.45591"
       orientation="1,0"
       id="guide4617"
       inkscape:locked="false"
       inkscape:label=""
       inkscape:color="rgb(0,0,255)" />
    <sodipodi:guide
       position="9.1599999,111.0305"
       orientation="1,0"
       id="guide4619"
       inkscape:locked="false"
       inkscape:label=""
       inkscape:color="rgb(0,0,255)" />
    <sodipodi:guide
       position="10.159999,105.6215"
       orientation="1,0"
       id="guide4637"
       inkscape:locked="false"
       inkscape:label=""
       inkscape:color="rgb(0,0,255)" />
    <sodipodi:guide
       position="10.16,115.99999"
       orientation="0,1"
       id="guide4776"
       inkscape:locked="false" />
    <sodipodi:guide
       position="10.16,23.723999"
       orientation="0,1"
       id="guide4778"
       inkscape:locked="false" />
    <sodipodi:guide
       position="10.159999,21.445007"
       orientation="0,1"
       id="guide4780"
       inkscape:locked="false" />
    <sodipodi:guide
       position="10.159999,12"
       orientation="0,1"
       id="guide4782"
       inkscape:locked="false"
       inkscape:label=""
       inkscape:color="rgb(0,0,255)" />
    <sodipodi:guide
       position="10.159999,105.99999"
       orientation="0,1"
       id="guide4784"
       inkscape:locked="false"
       inkscape:label=""
       inkscape:color="rgb(0,0,255)" />
    <sodipodi:guide
       position="-4.2994791,103.99999"
       orientation="0,1"
       id="guide4786"
       inkscape:locked="false"
       inkscape:label=""
       inkscape:color="rgb(0,0,255)" />
    <sodipodi:guide
       position="7.2506154,120"
       orientation="0,1"
       id="guide8553"
       inkscape:locked="false"
       inkscape:label=""
       inkscape:color="rgb(0,0,255)" />
    <sodipodi:guide
       position="6.3359434,5"
       orientation="0,1"
       id="guide8555"
       inkscape:locked="false"
       inkscape:label=""
       inkscape:color="rgb(0,0,255)" />
    <sodipodi:guide
       position="5.0799999,13.630745"
       orientation="1,0"
       id="guide8557"
       inkscape:locked="false"
       inkscape:label=""
       inkscape:color="rgb(0,0,255)" />
    <sodipodi:guide
       position="4.08,105.63253"
       orientation="1,0"
       id="guide8572"
       inkscape:locked="false"
       inkscape:label=""
       inkscape:color="rgb(0,0,255)" />
    <sodipodi:guide
       position="6.0799999,105.17187"
       orientation="1,0"
       id="guide8574"
       inkscape:locked="false"
       inkscape:label=""
       inkscape:color="rgb(0,0,255)" />
    <sodipodi:guide
       position="2.4450335,104.99999"
       orientation="0,1"
       id="guide8576"
       inkscape:locked="false"
       inkscape:label=""
       inkscape:color="rgb(0,0,255)" />
  </sodipodi:namedview>
  <metadata
     id="metadata5">
    <rdf:RDF>
      <cc:Work
         rdf:about="">
        <dc:format>image/svg+xml</dc:format>
        <dc:type
           rdf:resource="http://purl.org/dc/dcmitype/StillImage" />
        <dc:title />
      </cc:Work>
    </rdf:RDF>
  </metadata>
  <g
     inkscape:label="panel"
     inkscape:groupmode="layer"
     id="layer1"
     transform="translate(0,-168.5)"
     style="display:inline">
    <rect
       style="opacity:1;fill:#e6e6e6;stroke-width:0.26458332"
       id="rect39"
       width="10.159999"
       height="128.5"
       x="-2.7755574e-018"
       y="168.5" />
    <text
       xml:space="preserve"
       style="font-style:normal;font-weight:normal;font-size:4.93888855px;line-height:1.25;font-family:sans-serif;letter-spacing:0px;word-spacing:0px;fill:#000000;fill-opacity:1;stroke:none;stroke-width:0.26458332"
       x="6.1471992"
       y="177.26324"
       id="text3713"><tspan
         sodipodi:role="line"
         id="tspan3711"
         x="6.1471992"
         y="181.76915"
         style="stroke-width:0.26458332" /></text>
    <g
       aria-label="a"
       style="font-style:normal;font-variant:normal;font-weight:normal;font-stretch:normal;font-size:14.11111069px;line-height:1.25;font-family:'Opus Special Extra Std';-inkscape-font-specification:'Opus Special Extra Std';letter-spacing:0px;word-spacing:0px;fill:#ffcc00;fill-opacity:1;stroke:none;stroke-width:0.26458332"
       id="text3719" />
    <rect
       style="opacity:1;fill:#333333;fill-opacity:1;stroke:none;stroke-width:0.26499999;stroke-miterlimit:4;stroke-dasharray:none;stroke-dashoffset:0;stroke-opacity:1"
       id="rect3797"
       width="10.159999"
       height="10"
       x="3.70859e-007"
       y="168.5" />
    <rect
       style="display:inline;opacity:1;fill:#333333;fill-opacity:1;stroke-width:0.26458332"
       id="rect3797-4"
       width="10.159999"
       height="10"
       x="0"
       y="287" />
    <text
       xml:space="preserve"
       style="font-style:normal;font-variant:normal;font-weight:normal;font-stretch:normal;font-size:4.93888855px;line-height:1.25;font-family:'ornaments labels and frames';-inkscape-font-specification:'ornaments labels and frames, Normal';font-variant-ligatures:normal;font-variant-caps:normal;font-variant-numeric:normal;text-align:center;letter-spacing:0px;word-spacing:0px;writing-mode:lr-tb;text-anchor:middle;display:inline;fill:#000000;fill-opacity:1;stroke:none;stroke-width:0.26458332"
       x="30.067825"
       y="196.50633"
       id="text3786"><tspan
         sodipodi:role="line"
         id="tspan3784"
         x="30.067825"
         y="200.96446"
         style="stroke-width:0.26458332" /></text>
    <rect
       style="display:inline;opacity:1;fill:#666666;fill-opacity:1;stroke:none;stroke-width:0.2649999;stroke-miterlimit:4;stroke-dasharray:none;stroke-dashoffset:0;stroke-opacity:0.94779142"
       id="rect5407-5"
       width="8.1600008"
       height="92"
       x="0.99999994"
       y="193"
       rx="1.0000001"
       ry="1.0000006" />
    <g
       transform="matrix(1.8133333,0,0,1,-66.628621,77.64139)"
       aria-label="out"
       style="font-style:normal;font-variant:normal;font-weight:normal;font-stretch:normal;font-size:3.52777767px;line-height:1.25;font-family:Steagisler;-inkscape-font-specification:Steagisler;font-variant-ligatures:normal;font-variant-caps:normal;font-variant-numeric:normal;font-feature-settings:normal;text-align:center;letter-spacing:0px;word-spacing:0px;writing-mode:lr-tb;text-anchor:middle;display:inline;fill:#f9f9f9;fill-opacity:1;stroke:none;stroke-width:0.19648239"
       id="text4639" />
    <rect
       style="display:inline;opacity:0.98000004;fill:#f2f2f2;fill-opacity:1;stroke:none;stroke-width:0.26499999;stroke-miterlimit:4;stroke-dasharray:none;stroke-dashoffset:0;stroke-opacity:0.94779142"
       id="rect5407"
       width="8.1599998"
       height="11.000009"
       x="1"
       y="181"
       rx="1.0000006"
       ry="1.0000006" />
    <g
       aria-label="mult8"
       style="font-style:normal;font-variant:normal;font-weight:normal;font-stretch:normal;font-size:3.52777767px;line-height:1.25;font-family:Steagisler;-inkscape-font-specification:Steagisler;font-variant-ligatures:normal;font-variant-caps:normal;font-variant-numeric:normal;font-feature-settings:normal;text-align:center;letter-spacing:0px;word-spacing:0px;writing-mode:lr-tb;text-anchor:middle;fill:#f2f2f2;fill-opacity:1;stroke:none;stroke-width:0.26458332"
       id="text4790"
       transform="translate(-5.0601905,-114.0687)">
      <path
         d="m 6.2601519,289.29674 q 0.00345,0.0155 0.02067,0.0155 0.00689,0 0.01378,-0.007 0.1515842,-0.17398 0.4409722,-0.17398 0.323839,0 0.4719781,0.2136 0.00689,0.009 0.017225,0.009 0.010335,0 0.017226,-0.009 0.1481391,-0.2136 0.471978,-0.2136 0.2824978,0 0.4323595,0.16365 0.144694,0.15847 0.144694,0.44614 v 1.32464 h -0.396186 v -1.30914 q 0,-0.12575 -0.084405,-0.19982 -0.079237,-0.0723 -0.2067057,-0.0723 -0.125746,0 -0.2067057,0.0723 -0.084405,0.0741 -0.084405,0.19982 v 1.30914 h -0.396186 v -1.30914 q 0,-0.12575 -0.082682,-0.19982 -0.08096,-0.0723 -0.2084283,-0.0723 -0.125746,0 -0.2067057,0.0723 -0.082682,0.0741 -0.082682,0.19982 v 1.30914 H 5.939758 v -1.89481 h 0.289388 z"
         style="fill:#f2f2f2;fill-opacity:1;stroke-width:0.26458332"
         id="path4792"
         inkscape:connector-curvature="0" />
      <path
         d="m 9.8430512,290.94177 q -0.00345,-0.0121 -0.015503,-0.0138 -0.00345,-0.002 -0.00689,-0.002 -0.00689,0 -0.012058,0.007 -0.1584744,0.18087 -0.4581977,0.18087 -0.2842204,0 -0.4409722,-0.16192 Q 8.754401,290.79 8.754401,290.50406 v -1.33326 h 0.396186 v 1.31775 q 0,0.12575 0.093018,0.20154 0.08785,0.0706 0.2153184,0.0706 0.1291911,0 0.2153185,-0.0706 0.09474,-0.0758 0.09474,-0.20154 v -1.31775 h 0.3961861 v 1.89481 H 9.874057 Z"
         style="fill:#f2f2f2;fill-opacity:1;stroke-width:0.26458332"
         id="path4794"
         inkscape:connector-curvature="0" />
      <path
         d="m 11.172858,291.0658 h -0.406521 q -0.05512,-0.11541 -0.05512,-0.25666 v -2.38401 h 0.396186 v 2.37023 q 0,0.12402 0.06546,0.27044 z"
         style="fill:#f2f2f2;fill-opacity:1;stroke-width:0.26458332"
         id="path4796"
         inkscape:connector-curvature="0" />
      <path
         d="m 11.407124,289.17099 h 0.227377 q 0.02067,0 0.02067,-0.0207 v -0.49609 h 0.396186 v 0.49609 q 0,0.0207 0.02067,0.0207 h 0.366902 v 0.30145 h -0.366902 q -0.02067,0 -0.02067,0.0207 v 1.03008 q 0.01206,0.25839 0.192926,0.25839 0.08613,0 0.194647,-0.0207 v 0.3049 q -0.132636,0.0482 -0.266994,0.0482 -0.502984,-0.002 -0.516765,-0.55811 v -1.06281 q 0,-0.0207 -0.02067,-0.0207 h -0.227377 z"
         style="fill:#f2f2f2;fill-opacity:1;stroke-width:0.26458332"
         id="path4798"
         inkscape:connector-curvature="0" />
      <path
         d="m 14.307895,289.2864 q 0,0.298 -0.24288,0.43064 -0.01034,0.005 -0.01034,0.0155 v 0.003 q 0,0.0121 0.01034,0.0172 0.275608,0.13092 0.275608,0.44787 v 0.30317 q 0,0.28938 -0.222209,0.45819 -0.201538,0.15331 -0.490926,0.15331 -0.289388,0 -0.490926,-0.15331 -0.222208,-0.16881 -0.222208,-0.45819 v -0.30317 q 0,-0.31695 0.275607,-0.44787 0.01033,-0.005 0.01033,-0.0172 v -0.003 q 0,-0.0103 -0.01033,-0.0155 -0.242879,-0.13264 -0.242879,-0.43064 v -0.30316 q 0,-0.28767 0.211873,-0.45648 0.191203,-0.15158 0.468533,-0.15158 0.275608,0 0.468533,0.15158 0.211874,0.16881 0.211874,0.45648 z m -0.959459,0.0517 q 0,0.12575 0.08613,0.19809 0.07924,0.0672 0.192925,0.0672 0.113688,0 0.192926,-0.0672 0.08613,-0.0723 0.08613,-0.19809 v -0.33934 q 0,-0.12575 -0.08613,-0.19982 -0.07924,-0.0654 -0.192926,-0.0654 -0.113688,0 -0.192925,0.0654 -0.08613,0.0741 -0.08613,0.19982 z m 0.592556,0.863 q 0,-0.31867 -0.313504,-0.31867 -0.313503,0 -0.313503,0.31867 v 0.28938 q 0,0.12747 0.09818,0.20327 0.08785,0.0672 0.215318,0.0672 0.127469,0 0.215319,-0.0672 0.09818,-0.0758 0.09818,-0.20327 z"
         style="fill:#f2f2f2;fill-opacity:1;stroke-width:0.26458332"
         id="path4800"
         inkscape:connector-curvature="0" />
    </g>
    <g
       aria-label="ads."
       style="font-style:normal;font-variant:normal;font-weight:normal;font-stretch:normal;font-size:3.52777767px;line-height:0.80000001;font-family:Steagisler;-inkscape-font-specification:Steagisler;font-variant-ligatures:normal;font-variant-caps:normal;font-variant-numeric:normal;font-feature-settings:normal;text-align:center;letter-spacing:0px;word-spacing:0px;writing-mode:lr-tb;text-anchor:middle;fill:#f2f2f2;fill-opacity:1;stroke:none;stroke-width:0.26458332"
       id="text8561"
       transform="translate(0,114.6006)">
      <path
         d="M 3.6761236,177.40961 H 3.2696023 q -0.020671,-0.0465 -0.034451,-0.0965 -0.00345,-0.0121 -0.015503,-0.0155 -0.00345,-0.002 -0.00517,-0.002 -0.00689,0 -0.01378,0.007 -0.1498617,0.15503 -0.4220242,0.15503 -0.578776,0 -0.578776,-0.56844 0,-0.34107 0.3479546,-0.47026 0.1653646,-0.062 0.3410645,-0.062 0.1464165,0 0.3014458,0.0431 0.00345,0.002 0.00517,0.002 0.00689,0 0.012058,-0.005 0.00861,-0.005 0.00861,-0.0155 v -0.28078 q 0,-0.12575 -0.09474,-0.20154 -0.08785,-0.0689 -0.2153185,-0.0689 -0.1274685,0 -0.2153184,0.0689 -0.09474,0.0758 -0.09474,0.20154 v 0.0413 H 2.2205708 v -0.0568 q 0,-0.28422 0.2101508,-0.45303 0.1946479,-0.15675 0.4857584,-0.15675 0.2911106,0 0.4857585,0.15675 0.2084282,0.16881 0.2084282,0.45303 v 1.0542 q 0,0.12402 0.065457,0.27044 z m -0.4599203,-0.72003 q 0,-0.0138 -0.01378,-0.019 -0.1205783,-0.0431 -0.2446017,-0.0431 -0.062012,0 -0.125746,0.0103 -0.235989,0.0396 -0.235989,0.23771 0,0.2291 0.3100585,0.2291 0.1274686,0 0.2153185,-0.0689 0.09474,-0.0758 0.09474,-0.19981 z"
         style="fill:#f2f2f2;fill-opacity:1;stroke-width:0.26458332"
         id="path8563"
         inkscape:connector-curvature="0" />
      <path
         d="M 5.5071917,177.40961 H 5.102393 q -0.022393,-0.0448 -0.034451,-0.0947 -0.00345,-0.0103 -0.015503,-0.0138 -0.00345,-0.002 -0.00517,-0.002 -0.00689,0 -0.01378,0.007 -0.1515842,0.15159 -0.4220242,0.15159 -0.2824978,0 -0.434082,-0.16364 -0.144694,-0.15848 -0.144694,-0.44614 v -0.76309 q 0,-0.28595 0.1550293,-0.44614 0.1567518,-0.16364 0.4409722,-0.16364 0.2342665,0 0.3858507,0.11368 0.00517,0.005 0.012058,0.005 0.00345,0 0.00861,-0.003 0.012058,-0.005 0.012058,-0.0172 v -0.80443 h 0.396186 v 2.37023 q 0,0.12402 0.063734,0.27044 z m -0.4599202,-1.30914 q 0,-0.12575 -0.09474,-0.20154 -0.086127,-0.0689 -0.2153185,-0.0689 -0.1274685,0 -0.2153184,0.0689 -0.093018,0.0758 -0.093018,0.20154 v 0.73381 q 0,0.12402 0.093018,0.19981 0.08785,0.0706 0.2153184,0.0706 0.1291911,0 0.2153185,-0.0706 0.09474,-0.0758 0.09474,-0.19981 z"
         style="fill:#f2f2f2;fill-opacity:1;stroke-width:0.26458332"
         id="path8565"
         inkscape:connector-curvature="0" />
      <path
         d="m 6.2082686,176.8515 q 0,0.12058 0.093018,0.18948 0.084405,0.0637 0.2084283,0.0637 0.1240234,0 0.2084283,-0.0637 0.093018,-0.0689 0.093018,-0.18948 0,-0.12574 -0.1550293,-0.17225 -0.1412489,-0.0413 -0.3341742,-0.0775 -0.2428792,-0.0586 -0.3669027,-0.20326 -0.1223009,-0.14642 -0.1223009,-0.36001 0,-0.27044 0.2084283,-0.42375 0.1877577,-0.1378 0.468533,-0.1378 0.2807753,0 0.468533,0.1378 0.2084282,0.15331 0.2084282,0.42375 v 0.10163 H 6.8111603 v -0.0603 q 0,-0.11886 -0.08785,-0.18776 -0.079237,-0.0637 -0.2032606,-0.0637 -0.1223009,0 -0.2032607,0.0637 -0.08785,0.0689 -0.08785,0.18776 0,0.12747 0.1550293,0.16881 0.1963704,0.0517 0.3341743,0.0758 0.2256537,0.0482 0.3565673,0.17398 0.1326362,0.12402 0.1326362,0.36346 0,0.30317 -0.2153185,0.45819 -0.1912028,0.13781 -0.471978,0.13781 -0.2807753,0 -0.4719781,-0.13781 -0.2153185,-0.15502 -0.2153185,-0.42374 v -0.10508 h 0.3755154 z"
         style="fill:#f2f2f2;fill-opacity:1;stroke-width:0.26458332"
         id="path8567"
         inkscape:connector-curvature="0" />
      <path
         d="m 7.7533937,176.95658 q 0.1050754,0 0.1791449,0.0741 0.072347,0.0741 0.072347,0.17742 0,0.10335 -0.072347,0.17742 -0.07407,0.0741 -0.1791449,0.0741 -0.1033529,0 -0.1774224,-0.0741 -0.072347,-0.0741 -0.072347,-0.17742 0,-0.10335 0.072347,-0.17742 0.07407,-0.0741 0.1774224,-0.0741 z"
         style="fill:#f2f2f2;fill-opacity:1;stroke-width:0.26458332"
         id="path8569"
         inkscape:connector-curvature="0" />
    </g>
    <path
       style="fill:#f2f2f2;stroke:#f2f2f2;stroke-width:0.3;stroke-linecap:butt;stroke-linejoin:miter;stroke-opacity:1;fill-opacity:1;stroke-miterlimit:4;stroke-dasharray:none"
       d="m 5.0799999,199.31299 v 80.44812"
       id="path11696"
       inkscape:connector-curvature="0" />
    <g
       aria-label="in"
       style="font-style:normal;font-variant:normal;font-weight:normal;font-stretch:normal;font-size:2.82222223px;line-height:0.80000001;font-family:Steagisler;-inkscape-font-specification:'Steagisler, Normal';font-variant-ligatures:normal;font-variant-caps:normal;font-variant-numeric:normal;font-feature-settings:normal;text-align:center;letter-spacing:-0.16404167px;word-spacing:0px;writing-mode:lr-tb;text-anchor:middle;fill:#666666;fill-opacity:1;stroke:none;stroke-width:0.26458332"
       id="text17420">
      <path
         d="m 4.4564652,189.41664 q 0.08406,0 0.1419379,0.0579 0.059256,0.0593 0.059256,0.14194 0,0.0841 -0.059256,0.14331 -0.057878,0.0579 -0.1419379,0.0579 -0.082682,0 -0.1419379,-0.0579 -0.059256,-0.0592 -0.059256,-0.14331 0,-0.0827 0.059256,-0.14194 0.059256,-0.0579 0.1419379,-0.0579 z m 0.1584744,2.11253 H 4.2979908 v -1.25814 q 0,-0.0165 -0.016536,-0.0165 H 4.1271141 v -0.24116 h 0.4878255 z"
         style="font-size:2.82222223px;fill:#666666;fill-opacity:1;stroke-width:0.26458332"
         id="path17422" />
      <path
         d="m 5.1509413,190.11944 q 0.00276,0.0124 0.017914,0.0124 0.00689,0 0.012402,-0.007 0.1254015,-0.14331 0.3638021,-0.14331 0.2273763,0 0.3527778,0.12953 0.1240234,0.12954 0.1240234,0.35829 v 1.05971 H 5.7049126 v -1.0473 q 0,-0.1006 -0.074414,-0.16123 -0.07028,-0.0565 -0.1722548,-0.0565 -0.1033529,0 -0.1722548,0.0565 -0.075792,0.0606 -0.075792,0.16123 v 1.0473 H 4.8932481 v -1.51584 h 0.2328885 z"
         style="font-size:2.82222223px;fill:#666666;fill-opacity:1;stroke-width:0.26458332"
         id="path17424" />
    </g>
  </g>
</svg>
