<?xml version="1.0" encoding="UTF-8" standalone="no"?>
<!-- Created with Inkscape (http://www.inkscape.org/) -->

<svg
   xmlns:dc="http://purl.org/dc/elements/1.1/"
   xmlns:cc="http://creativecommons.org/ns#"
   xmlns:rdf="http://www.w3.org/1999/02/22-rdf-syntax-ns#"
   xmlns:svg="http://www.w3.org/2000/svg"
   xmlns="http://www.w3.org/2000/svg"
   xmlns:sodipodi="http://sodipodi.sourceforge.net/DTD/sodipodi-0.dtd"
   xmlns:inkscape="http://www.inkscape.org/namespaces/inkscape"
   width="30.48mm"
   height="128.5mm"
   viewBox="0 0 30.48 128.49999"
   version="1.1"
   id="svg8"
   inkscape:version="0.92.1 r15371"
   sodipodi:docname="Offset.svg">
  <defs
     id="defs2">
    <inkscape:path-effect
       effect="simplify"
       id="path-effect5498"
       is_visible="true"
       steps="1"
       threshold="0.000408163"
       smooth_angles="360"
       helper_size="0"
       simplify_individual_paths="false"
       simplify_just_coalesce="false"
       simplifyindividualpaths="false"
       simplifyJustCoalesce="false" />
    <inkscape:path-effect
       effect="simplify"
       id="path-effect5494"
       is_visible="true"
       steps="1"
       threshold="0.000408163"
       smooth_angles="360"
       helper_size="0"
       simplify_individual_paths="false"
       simplify_just_coalesce="false"
       simplifyindividualpaths="false"
       simplifyJustCoalesce="false" />
  </defs>
  <sodipodi:namedview
     id="base"
     pagecolor="#262626"
     bordercolor="#666666"
     borderopacity="1.0"
     inkscape:pageopacity="0"
     inkscape:pageshadow="2"
     inkscape:zoom="64"
     inkscape:cx="56.887367"
     inkscape:cy="455.26729"
     inkscape:document-units="mm"
     inkscape:current-layer="layer3"
     showgrid="false"
     inkscape:window-width="1857"
     inkscape:window-height="1057"
     inkscape:window-x="-8"
     inkscape:window-y="-8"
     inkscape:window-maximized="1"
     showguides="true"
     inkscape:snap-grids="false"
     inkscape:guide-bbox="true"
     inkscape:snap-bbox="true"
     inkscape:bbox-paths="true"
     inkscape:snap-bbox-edge-midpoints="true"
     inkscape:bbox-nodes="true"
     inkscape:snap-bbox-midpoints="true"
     inkscape:lockguides="false"
     units="mm"
     width="20.32mm">
    <inkscape:grid
       type="xygrid"
       id="grid31" />
    <sodipodi:guide
       position="0.99999995,101.81734"
       orientation="1,0"
       id="guide4972"
       inkscape:locked="false"
       inkscape:label=""
       inkscape:color="rgb(0,0,255)" />
    <sodipodi:guide
       position="30.383655,98.982516"
       orientation="0,1"
       id="guide4685"
       inkscape:locked="false" />
    <sodipodi:guide
       position="34.994654,90.000004"
       orientation="0,1"
       id="guide4687"
       inkscape:locked="false" />
    <sodipodi:guide
       position="7.9999998,108.80001"
       orientation="0,1"
       id="guide7786"
       inkscape:locked="false" />
    <sodipodi:guide
       position="7.9999999,106.17281"
       orientation="1,0"
       id="guide7788"
       inkscape:locked="false"
       inkscape:label=""
       inkscape:color="rgb(0,0,255)" />
    <sodipodi:guide
       position="17.208767,99.797462"
       orientation="0,1"
       id="guide7881"
       inkscape:locked="false" />
    <sodipodi:guide
       position="18.869302,78.329996"
       orientation="0,1"
       id="guide7924"
       inkscape:locked="false"
       inkscape:label=""
       inkscape:color="rgb(0,0,255)" />
    <sodipodi:guide
       position="18.869303,56.830191"
       orientation="0,1"
       id="guide7926"
       inkscape:locked="false" />
    <sodipodi:guide
       position="18.869303,35.330191"
       orientation="0,1"
       id="guide7928"
       inkscape:locked="false" />
    <sodipodi:guide
       position="18.869303,13.83019"
       orientation="0,1"
       id="guide7930"
       inkscape:locked="false" />
    <sodipodi:guide
       position="12.027128,116"
       orientation="0,1"
       id="guide7992"
       inkscape:locked="false" />
    <sodipodi:guide
       position="0,0"
       orientation="0,76.799999"
       id="guide5248"
       inkscape:locked="false" />
    <sodipodi:guide
       position="30.48,0"
       orientation="1,0"
       id="guide5250"
       inkscape:locked="false"
       inkscape:label=""
       inkscape:color="rgb(0,0,255)" />
    <sodipodi:guide
       position="20.319999,128.49999"
       orientation="0,-76.799999"
       id="guide5252"
       inkscape:locked="false" />
    <sodipodi:guide
       position="0,128.49999"
       orientation="485.66929,0"
       id="guide5254"
       inkscape:locked="false" />
    <sodipodi:guide
       position="10.630596,119.82204"
       orientation="0,1"
       id="guide5256"
       inkscape:locked="false" />
    <sodipodi:guide
       position="9.8210023,4.9999999"
       orientation="0,1"
       id="guide5258"
       inkscape:locked="false"
       inkscape:label=""
       inkscape:color="rgb(0,0,255)" />
    <sodipodi:guide
       position="29.48,66.807288"
       orientation="1,0"
       id="guide5260"
       inkscape:locked="false"
       inkscape:label=""
       inkscape:color="rgb(0,0,255)" />
    <sodipodi:guide
       position="1531.9999,103.08585"
       orientation="1,0"
       id="guide5262"
       inkscape:locked="false"
       inkscape:label=""
       inkscape:color="rgb(0,0,255)" />
    <sodipodi:guide
       position="22.48,93.637872"
       orientation="1,0"
       id="guide5264"
       inkscape:locked="false"
       inkscape:label=""
       inkscape:color="rgb(0,0,255)" />
    <sodipodi:guide
       position="5.8499999,103.65"
       orientation="0,1"
       id="guide5266"
       inkscape:locked="false"
       inkscape:label=""
       inkscape:color="rgb(0,0,255)" />
    <sodipodi:guide
       position="15.24,105.89218"
       orientation="1,0"
       id="guide5268"
       inkscape:locked="false"
       inkscape:label=""
       inkscape:color="rgb(0,0,255)" />
    <sodipodi:guide
       position="14.319999,22.799999"
       orientation="0,1"
       id="guide5330"
       inkscape:locked="false"
       inkscape:label=""
       inkscape:color="rgb(0,0,255)" />
    <sodipodi:guide
       position="27.219009,17.799999"
       orientation="0,1"
       id="guide5332"
       inkscape:locked="false"
       inkscape:label=""
       inkscape:color="rgb(0,0,255)" />
    <sodipodi:guide
       position="0,0"
       orientation="0,115.2"
       id="guide4605"
       inkscape:locked="false" />
    <sodipodi:guide
       position="30.479999,0"
       orientation="-485.66929,0"
       id="guide4607"
       inkscape:locked="false" />
    <sodipodi:guide
       position="30.479999,128.5"
       orientation="0,-115.2"
       id="guide4609"
       inkscape:locked="false" />
    <sodipodi:guide
       position="0,128.5"
       orientation="485.66929,0"
       id="guide4611"
       inkscape:locked="false" />
    <sodipodi:guide
       position="39.422916,110.86042"
       orientation="1,0"
       id="guide5337"
       inkscape:locked="false" />
    <sodipodi:guide
       position="28.48,111.50484"
       orientation="1,0"
       id="guide5339"
       inkscape:locked="false"
       inkscape:label=""
       inkscape:color="rgb(0,0,255)" />
    <sodipodi:guide
       position="23.98,112.01934"
       orientation="1,0"
       id="guide5480"
       inkscape:locked="false"
       inkscape:label=""
       inkscape:color="rgb(0,0,255)" />
    <sodipodi:guide
       position="5.9999999,78.297453"
       orientation="1,0"
       id="guide5647"
       inkscape:locked="false"
       inkscape:label=""
       inkscape:color="rgb(0,0,255)" />
    <sodipodi:guide
       position="12.815574,12"
       orientation="0,1"
       id="guide5649"
       inkscape:locked="false"
       inkscape:label=""
       inkscape:color="rgb(0,0,255)" />
  </sodipodi:namedview>
  <metadata
     id="metadata5">
    <rdf:RDF>
      <cc:Work
         rdf:about="">
        <dc:format>image/svg+xml</dc:format>
        <dc:type
           rdf:resource="http://purl.org/dc/dcmitype/StillImage" />
        <dc:title />
      </cc:Work>
    </rdf:RDF>
  </metadata>
  <g
     inkscape:label="panel"
     inkscape:groupmode="layer"
     id="layer1"
     transform="translate(0,-168.50001)"
     style="display:inline">
    <rect
       style="opacity:1;fill:#e6e6e6;stroke-width:0.26458332"
       id="rect39"
       width="30.48"
       height="128.5"
       x="-8.3266722e-018"
       y="168.5" />
    <text
       xml:space="preserve"
       style="font-style:normal;font-weight:normal;font-size:6.04887819px;line-height:1.25;font-family:sans-serif;letter-spacing:0px;word-spacing:0px;fill:#000000;fill-opacity:1;stroke:none;stroke-width:0.26458332"
       x="7.5287504"
       y="217.10225"
       id="text3713"
       transform="scale(1.2247449,0.81649658)"><tspan
         sodipodi:role="line"
         id="tspan3711"
         x="7.5287504"
         y="222.62082"
         style="stroke-width:0.26458332" /></text>
    <g
       aria-label="a"
       style="font-style:normal;font-variant:normal;font-weight:normal;font-stretch:normal;font-size:14.11111069px;line-height:1.25;font-family:'Opus Special Extra Std';-inkscape-font-specification:'Opus Special Extra Std';letter-spacing:0px;word-spacing:0px;fill:#ffcc00;fill-opacity:1;stroke:none;stroke-width:0.21603137"
       id="text3719"
       transform="scale(1.5,1)" />
    <rect
       style="opacity:1;fill:#333333;fill-opacity:1;stroke:none;stroke-width:0.26499999;stroke-miterlimit:4;stroke-dasharray:none;stroke-dashoffset:0;stroke-opacity:1"
       id="rect3797"
       width="30.48"
       height="10"
       x="-8.326673e-018"
       y="168.5" />
    <rect
       style="display:inline;opacity:1;fill:#333333;fill-opacity:1;stroke-width:0.26458332"
       id="rect3797-4"
       width="30.48"
       height="10"
       x="0"
       y="287" />
    <text
       xml:space="preserve"
       style="font-style:normal;font-variant:normal;font-weight:normal;font-stretch:normal;font-size:6.04887819px;line-height:1.25;font-family:'ornaments labels and frames';-inkscape-font-specification:'ornaments labels and frames, Normal';font-variant-ligatures:normal;font-variant-caps:normal;font-variant-numeric:normal;text-align:center;letter-spacing:0px;word-spacing:0px;writing-mode:lr-tb;text-anchor:middle;display:inline;fill:#000000;fill-opacity:1;stroke:none;stroke-width:0.26458332"
       x="36.825417"
       y="240.67012"
       id="text3786"
       transform="scale(1.2247449,0.81649658)"><tspan
         sodipodi:role="line"
         id="tspan3784"
         x="36.825417"
         y="246.13019"
         style="stroke-width:0.26458332" /></text>
    <rect
       style="display:inline;opacity:0.98000004;fill:#f2f2f2;fill-opacity:1;stroke:none;stroke-width:0.26499999;stroke-miterlimit:4;stroke-dasharray:none;stroke-dashoffset:0;stroke-opacity:0.94779142"
       id="rect5407-1-1-9"
       width="28.479998"
       height="18"
       x="1.0000012"
       y="267"
       rx="1.0000006"
       ry="1.0000006" />
    <rect
       style="display:inline;opacity:0.98000004;fill:#f2f2f2;fill-opacity:1;stroke:none;stroke-width:0.26499999;stroke-miterlimit:4;stroke-dasharray:none;stroke-dashoffset:0;stroke-opacity:0.94779142"
       id="rect5407-1-1-9-3"
       width="28.479998"
       height="18"
       x="1.0000012"
       y="245.5"
       rx="1.0000006"
       ry="1.0000006" />
    <rect
       style="display:inline;opacity:0.98000004;fill:#f2f2f2;fill-opacity:1;stroke:none;stroke-width:0.26499999;stroke-miterlimit:4;stroke-dasharray:none;stroke-dashoffset:0;stroke-opacity:0.94779142"
       id="rect5407-1-1-9-3-9"
       width="28.479998"
       height="18"
       x="1.0000012"
       y="224"
       rx="1.0000006"
       ry="1.0000006" />
    <rect
       style="display:inline;opacity:0.98000004;fill:#f2f2f2;fill-opacity:1;stroke:none;stroke-width:0.26499999;stroke-miterlimit:4;stroke-dasharray:none;stroke-dashoffset:0;stroke-opacity:0.94779142"
       id="rect5407-1-1-9-3-1"
       width="28.479998"
       height="18"
       x="1.0000012"
       y="202.5"
       rx="1.0000006"
       ry="1.0000006" />
    <rect
       style="display:inline;opacity:0.98000004;fill:#f2f2f2;fill-opacity:1;stroke:none;stroke-width:0.26499999;stroke-miterlimit:4;stroke-dasharray:none;stroke-dashoffset:0;stroke-opacity:0.94779142"
       id="rect5407-1-1-9-3-8"
       width="28.479998"
       height="18"
       x="1.0000012"
       y="181"
       rx="1.0000006"
       ry="1.0000006" />
  </g>
  <g
     inkscape:groupmode="layer"
     id="layer3"
     inkscape:label="labels">
    <g
       aria-label="offset"
       style="font-style:normal;font-variant:normal;font-weight:normal;font-stretch:normal;font-size:3.52777767px;line-height:1.25;font-family:Steagisler;-inkscape-font-specification:Steagisler;font-variant-ligatures:normal;font-variant-caps:normal;font-variant-numeric:normal;font-feature-settings:normal;text-align:center;letter-spacing:0px;word-spacing:0px;writing-mode:lr-tb;text-anchor:middle;fill:#f2f2f2;fill-opacity:1;stroke:none;stroke-width:0.26458332"
       id="text4554"
       transform="translate(0,-114.77132)">
      <path
         d="m 11.036984,122.12539 q 0,-0.28422 0.215319,-0.45303 0.198093,-0.15675 0.489203,-0.15675 0.292833,0 0.490926,0.15675 0.215319,0.16881 0.215319,0.45303 v 0.76309 q 0,0.28422 -0.215319,0.45475 -0.198093,0.15503 -0.490926,0.15503 -0.29111,0 -0.489203,-0.15503 -0.215319,-0.17053 -0.215319,-0.45475 z m 1.014581,0.0155 q 0,-0.12574 -0.09474,-0.20154 -0.08785,-0.0689 -0.215319,-0.0689 -0.127468,0 -0.215318,0.0689 -0.09302,0.0758 -0.09302,0.20154 v 0.73381 q 0,0.12402 0.09302,0.19981 0.08785,0.0706 0.215318,0.0706 0.127469,0 0.215319,-0.0706 0.09474,-0.0758 0.09474,-0.19981 z"
         style="fill:#f2f2f2;fill-opacity:1;stroke-width:0.26458332"
         id="path4556"
         inkscape:connector-curvature="0" />
      <path
         d="m 13.672482,121.85667 h -0.316948 q -0.02067,0 -0.02067,0.0207 v 1.57269 h -0.396186 v -1.57269 q 0,-0.0207 -0.02067,-0.0207 h -0.194647 v -0.30144 h 0.194647 q 0.02067,0 0.02067,-0.0207 v -0.14297 q 0,-0.28422 0.215318,-0.45475 0.198093,-0.15503 0.490927,-0.15503 h 0.07751 v 0.35312 h -0.07751 q -0.129192,0 -0.215319,0.0706 -0.09474,0.0758 -0.09474,0.19981 v 0.12919 q 0,0.0207 0.02067,0.0207 h 0.316948 z"
         style="fill:#f2f2f2;fill-opacity:1;stroke-width:0.26458332"
         id="path4558"
         inkscape:connector-curvature="0" />
      <path
         d="m 14.878266,121.85667 h -0.316949 q -0.02067,0 -0.02067,0.0207 v 1.57269 H 14.14446 v -1.57269 q 0,-0.0207 -0.02067,-0.0207 h -0.194648 v -0.30144 h 0.194648 q 0.02067,0 0.02067,-0.0207 v -0.14297 q 0,-0.28422 0.215319,-0.45475 0.198093,-0.15503 0.490926,-0.15503 h 0.07752 v 0.35312 h -0.07752 q -0.129191,0 -0.215318,0.0706 -0.09474,0.0758 -0.09474,0.19981 v 0.12919 q 0,0.0207 0.02067,0.0207 h 0.316949 z"
         style="fill:#f2f2f2;fill-opacity:1;stroke-width:0.26458332"
         id="path4560"
         inkscape:connector-curvature="0" />
      <path
         d="m 15.479435,122.89192 q 0,0.12058 0.09302,0.18948 0.0844,0.0637 0.208428,0.0637 0.124023,0 0.208428,-0.0637 0.09302,-0.0689 0.09302,-0.18948 0,-0.12574 -0.15503,-0.17225 -0.141248,-0.0413 -0.334174,-0.0775 -0.242879,-0.0586 -0.366902,-0.20326 -0.122301,-0.14641 -0.122301,-0.36001 0,-0.27044 0.208428,-0.42375 0.187758,-0.1378 0.468533,-0.1378 0.280775,0 0.468533,0.1378 0.208428,0.15331 0.208428,0.42375 v 0.10163 h -0.375515 v -0.0603 q 0,-0.11886 -0.08785,-0.18776 -0.07924,-0.0637 -0.203261,-0.0637 -0.122301,0 -0.20326,0.0637 -0.08785,0.0689 -0.08785,0.18776 0,0.12747 0.155029,0.16881 0.19637,0.0517 0.334174,0.0758 0.225654,0.0482 0.356568,0.17398 0.132636,0.12402 0.132636,0.36346 0,0.30317 -0.215319,0.45819 -0.191203,0.13781 -0.471978,0.13781 -0.280775,0 -0.471978,-0.13781 -0.215318,-0.15502 -0.215318,-0.42374 v -0.10508 h 0.375515 z"
         style="fill:#f2f2f2;fill-opacity:1;stroke-width:0.26458332"
         id="path4562"
         inkscape:connector-curvature="0" />
      <path
         d="m 17.255381,122.60598 q -0.02067,0 -0.02067,0.0207 v 0.24805 q 0,0.12402 0.09474,0.19981 0.08613,0.0706 0.215318,0.0706 0.129191,0 0.223931,-0.0689 0.105076,-0.0775 0.105076,-0.20153 v -0.0413 h 0.375515 v 0.0551 q 0,0.28422 -0.215318,0.45475 -0.198093,0.15503 -0.489204,0.15503 -0.292833,0 -0.490926,-0.15503 -0.215318,-0.17053 -0.215318,-0.45475 v -0.76309 q 0,-0.28422 0.215318,-0.45303 0.198093,-0.15675 0.490926,-0.15675 0.289388,0 0.480591,0.15675 0.204983,0.16881 0.204983,0.45303 v 0.48059 z m -0.02067,-0.29628 q 0,0.0207 0.02067,0.0207 h 0.577054 q 0.02067,0 0.02067,-0.0207 v -0.16881 q 0,-0.12574 -0.09302,-0.20154 -0.08785,-0.0689 -0.215319,-0.0689 -0.129191,0 -0.215318,0.0689 -0.09474,0.0758 -0.09474,0.20154 z"
         style="fill:#f2f2f2;fill-opacity:1;stroke-width:0.26458332"
         id="path4564"
         inkscape:connector-curvature="0" />
      <path
         d="m 18.48528,121.55523 h 0.227377 q 0.02067,0 0.02067,-0.0207 v -0.49609 h 0.396186 v 0.49609 q 0,0.0207 0.02067,0.0207 h 0.366902 v 0.30144 h -0.366902 q -0.02067,0 -0.02067,0.0207 v 1.03008 q 0.01206,0.25839 0.192926,0.25839 0.08613,0 0.194647,-0.0207 v 0.30489 q -0.132636,0.0482 -0.266994,0.0482 -0.502984,-0.002 -0.516765,-0.55811 v -1.06281 q 0,-0.0207 -0.02067,-0.0207 H 18.48528 Z"
         style="fill:#f2f2f2;fill-opacity:1;stroke-width:0.26458332"
         id="path4566"
         inkscape:connector-curvature="0" />
    </g>
    <g
       aria-label="adsynth."
       style="font-style:normal;font-variant:normal;font-weight:normal;font-stretch:normal;font-size:3.52777767px;line-height:1.25;font-family:Steagisler;-inkscape-font-specification:Steagisler;font-variant-ligatures:normal;font-variant-caps:normal;font-variant-numeric:normal;font-feature-settings:normal;text-align:center;letter-spacing:0px;word-spacing:0px;writing-mode:lr-tb;text-anchor:middle;fill:#f2f2f2;fill-opacity:1;stroke:none;stroke-width:0.26458332"
       id="text4586"
       transform="translate(0,114.82628)">
      <path
         d="m 10.521943,8.6779575 h -0.406522 q -0.02067,-0.046509 -0.03445,-0.096463 -0.0034,-0.012058 -0.0155,-0.015503 -0.0034,-0.00172 -0.0052,-0.00172 -0.0069,0 -0.01378,0.00689 -0.1498612,0.1550293 -0.4220237,0.1550293 -0.5787761,0 -0.5787761,-0.5684408 0,-0.3410644 0.3479547,-0.4702555 0.1653645,-0.062012 0.3410644,-0.062012 0.1464166,0 0.3014457,0.043064 0.0034,0.00172 0.0052,0.00172 0.0069,0 0.01206,-0.00517 0.0086,-0.00517 0.0086,-0.015503 V 7.3688213 q 0,-0.125746 -0.09474,-0.2015381 -0.08785,-0.068902 -0.2153184,-0.068902 -0.1274685,0 -0.2153185,0.068902 -0.09474,0.075792 -0.09474,0.2015381 v 0.041341 H 9.0663898 v -0.056844 q 0,-0.2842204 0.2101508,-0.4530301 0.1946479,-0.1567518 0.4857585,-0.1567518 0.2911109,0 0.4857589,0.1567518 0.208428,0.1688097 0.208428,0.4530301 v 1.0541991 q 0,0.1240235 0.06546,0.27044 z M 10.062022,7.9579326 q 0,-0.01378 -0.01378,-0.018948 -0.1205784,-0.043064 -0.2446018,-0.043064 -0.062012,0 -0.125746,0.010335 -0.235989,0.039619 -0.235989,0.2377116 0,0.2290988 0.3100586,0.2290988 0.1274685,0 0.2153184,-0.068902 0.09474,-0.075792 0.09474,-0.1998155 z"
         style="fill:#f2f2f2;fill-opacity:1;stroke-width:0.26458332"
         id="path4588"
         inkscape:connector-curvature="0" />
      <path
         d="m 12.353011,8.6779575 h -0.404799 q -0.02239,-0.044786 -0.03445,-0.09474 -0.0034,-0.010335 -0.0155,-0.01378 -0.0034,-0.00172 -0.0052,-0.00172 -0.0069,0 -0.01378,0.00689 -0.151584,0.1515842 -0.422024,0.1515842 -0.282498,0 -0.434082,-0.1636421 Q 10.87851,8.4040725 10.87851,8.116407 V 7.3533184 q 0,-0.285943 0.155029,-0.4461399 0.156752,-0.163642 0.440972,-0.163642 0.234267,0 0.385851,0.1136881 0.0052,0.00517 0.01206,0.00517 0.0034,0 0.0086,-0.00345 0.01206,-0.00517 0.01206,-0.017226 V 6.0372919 h 0.396186 v 2.3702256 q 0,0.1240235 0.06373,0.27044 z m -0.45992,-1.3091362 q 0,-0.125746 -0.09474,-0.2015381 -0.08613,-0.068902 -0.215318,-0.068902 -0.127469,0 -0.215318,0.068902 -0.09302,0.075792 -0.09302,0.2015381 v 0.7338053 q 0,0.1240234 0.09302,0.1998155 0.08785,0.070624 0.215318,0.070624 0.129191,0 0.215318,-0.070624 0.09474,-0.075792 0.09474,-0.1998155 z"
         style="fill:#f2f2f2;fill-opacity:1;stroke-width:0.26458332"
         id="path4590"
         inkscape:connector-curvature="0" />
      <path
         d="m 13.054088,8.1198521 q 0,0.1205783 0.09302,0.1894802 0.08441,0.063734 0.208429,0.063734 0.124023,0 0.208428,-0.063734 0.09302,-0.068902 0.09302,-0.1894802 0,-0.125746 -0.155029,-0.1722548 -0.141255,-0.041341 -0.33418,-0.077515 Q 12.924897,7.811516 12.800873,7.666822 12.678572,7.5204055 12.678572,7.3068096 q 0,-0.27044 0.208429,-0.4237468 0.187757,-0.1378038 0.468533,-0.1378038 0.280775,0 0.468532,0.1378038 0.208429,0.1533068 0.208429,0.4237468 v 0.1016303 h -0.375516 v -0.060289 q 0,-0.1188558 -0.08785,-0.1877577 -0.07924,-0.063734 -0.20326,-0.063734 -0.122301,0 -0.203261,0.063734 -0.08785,0.068902 -0.08785,0.1877577 0,0.1274685 0.15503,0.1688097 0.19637,0.051676 0.334174,0.075792 0.225654,0.048231 0.356567,0.1739773 0.132636,0.1240234 0.132636,0.3634576 0,0.3031684 -0.215318,0.4581977 -0.191203,0.1378038 -0.471978,0.1378038 -0.280775,0 -0.471978,-0.1378038 Q 12.678572,8.4333558 12.678572,8.1646383 V 8.0595629 h 0.375516 z"
         style="fill:#f2f2f2;fill-opacity:1;stroke-width:0.26458332"
         id="path4592"
         inkscape:connector-curvature="0" />
      <path
         d="m 14.943722,8.5453214 h -0.194648 l -0.48059,-1.7621663 h 0.389295 l 0.33762,1.374593 q 0.0034,0.017226 0.01895,0.017226 0.01722,0 0.02067,-0.017226 l 0.282498,-1.374593 h 0.389296 l -0.609782,2.7164577 h -0.389296 z"
         style="fill:#f2f2f2;fill-opacity:1;stroke-width:0.26458332"
         id="path4594"
         inkscape:connector-curvature="0" />
      <path
         d="m 16.364824,6.9157912 q 0.0034,0.015503 0.02239,0.015503 0.0086,0 0.0155,-0.00861 0.156752,-0.1791449 0.454753,-0.1791449 0.28422,0 0.440972,0.1619195 0.155029,0.1619194 0.155029,0.4478624 v 1.3246363 h -0.39618 V 7.3688213 q 0,-0.125746 -0.09302,-0.2015381 -0.08785,-0.070624 -0.215319,-0.070624 -0.129191,0 -0.215318,0.070624 -0.09474,0.075792 -0.09474,0.2015381 V 8.6779575 H 16.042708 V 6.7831551 h 0.29111 z"
         style="fill:#f2f2f2;fill-opacity:1;stroke-width:0.26458332"
         id="path4596"
         inkscape:connector-curvature="0" />
      <path
         d="m 17.692908,6.7831551 h 0.227377 q 0.02067,0 0.02067,-0.020671 V 6.2663908 h 0.396186 v 0.4960937 q 0,0.020671 0.02067,0.020671 h 0.366902 v 0.3014458 h -0.366902 q -0.02067,0 -0.02067,0.020671 V 8.135355 q 0.01206,0.2583822 0.192926,0.2583822 0.08613,0 0.194647,-0.020671 v 0.3048909 q -0.132636,0.048231 -0.266994,0.048231 -0.502984,-0.00172 -0.516765,-0.5581055 V 7.1052715 q 0,-0.020671 -0.02067,-0.020671 h -0.227377 z"
         style="fill:#f2f2f2;fill-opacity:1;stroke-width:0.26458332"
         id="path4598"
         inkscape:connector-curvature="0" />
      <path
         d="m 19.563596,6.0372919 v 0.8044298 q 0,0.012058 0.01206,0.017226 0.0052,0.00345 0.0086,0.00345 0.0069,0 0.01206,-0.00517 0.151584,-0.1136881 0.385851,-0.1136881 0.28422,0 0.440972,0.1619195 0.155029,0.1619194 0.155029,0.4478624 v 1.324636 H 20.18199 V 7.3688213 q 0,-0.125746 -0.09302,-0.2015381 -0.08785,-0.070624 -0.215319,-0.070624 -0.129191,0 -0.215318,0.070624 -0.09474,0.075792 -0.09474,0.2015381 V 8.6779575 H 19.16741 V 6.0372919 Z"
         style="fill:#f2f2f2;fill-opacity:1;stroke-width:0.26458332"
         id="path4600"
         inkscape:connector-curvature="0" />
      <path
         d="m 21.227576,8.2249275 q 0.105076,0 0.179145,0.07407 0.07235,0.07407 0.07235,0.1774225 0,0.1033528 -0.07235,0.1774224 -0.07407,0.07407 -0.179145,0.07407 -0.103353,0 -0.177422,-0.07407 -0.07235,-0.07407 -0.07235,-0.1774224 0,-0.1033529 0.07235,-0.1774225 0.07407,-0.07407 0.177422,-0.07407 z"
         style="fill:#f2f2f2;fill-opacity:1;stroke-width:0.26458332"
         id="path4602"
         inkscape:connector-curvature="0" />
    </g>
    <g
       aria-label="DC -/+"
       style="font-style:normal;font-variant:normal;font-weight:normal;font-stretch:normal;font-size:3.52777767px;line-height:0.69999999;font-family:Steagisler;-inkscape-font-specification:Steagisler;font-variant-ligatures:normal;font-variant-caps:normal;font-variant-numeric:normal;font-feature-settings:normal;text-align:center;letter-spacing:0px;word-spacing:0px;writing-mode:lr-tb;text-anchor:middle;fill:#666666;fill-opacity:1;stroke:none;stroke-width:0.26458332"
       id="text4615"
       transform="translate(-1)">
      <path
         inkscape:connector-curvature="0"
         d="m 13.49506,14.588157 h 0.740695 q 0.306614,0 0.513319,0.158474 0.227377,0.170532 0.227377,0.458198 v 1.409044 q 0,0.287665 -0.227377,0.458198 -0.206705,0.158474 -0.513319,0.158474 H 13.49506 Z m 0.416856,2.263428 q 0,0.02067 0.02067,0.02067 h 0.303168 q 0.134359,0 0.225654,-0.07062 0.09819,-0.07579 0.09819,-0.201538 v -1.381484 q 0,-0.125746 -0.09819,-0.201538 -0.0913,-0.07062 -0.225654,-0.07062 h -0.303168 q -0.02067,0 -0.02067,0.02067 z"
         style="line-height:0.69999999;fill:#666666;fill-opacity:1;stroke-width:0.26458332"
         id="path4621" />
      <path
         inkscape:connector-curvature="0"
         d="m 17.015947,16.663827 q 0,0.287665 -0.225654,0.458198 -0.208428,0.156751 -0.515041,0.156751 -0.306614,0 -0.51332,-0.156751 -0.227376,-0.170533 -0.227376,-0.458198 v -1.508952 q 0,-0.287665 0.220486,-0.458198 0.204983,-0.156751 0.509874,-0.156751 0.304891,0 0.509874,0.156751 0.220486,0.170533 0.220486,0.458198 V 15.33402 H 16.59909 v -0.165365 q 0,-0.125746 -0.09819,-0.201538 -0.09129,-0.07062 -0.225653,-0.07062 -0.134359,0 -0.225654,0.07062 -0.09818,0.07579 -0.09818,0.201538 v 1.481391 q 0,0.125746 0.103352,0.201539 0.09646,0.07062 0.230822,0.07062 0.134359,0 0.230821,-0.07062 0.103353,-0.07579 0.103353,-0.201539 v -0.165364 h 0.396186 z"
         style="line-height:0.69999999;fill:#666666;fill-opacity:1;stroke-width:0.26458332"
         id="path4623" />
      <path
         inkscape:connector-curvature="0"
         d="M 14.389062,18.618229 V 18.89556 H 13.355533 V 18.618229 Z"
         style="line-height:0.69999999;fill:#666666;fill-opacity:1;stroke-width:0.26458332"
         id="path4625" />
      <path
         inkscape:connector-curvature="0"
         d="m 15.438093,17.059324 -0.465087,2.640665 H 14.69223 l 0.466811,-2.640665 z"
         style="line-height:0.69999999;fill:#666666;fill-opacity:1;stroke-width:0.26458332"
         id="path4627" />
      <path
         inkscape:connector-curvature="0"
         d="m 16.535356,18.518322 v 0.589111 h -0.275607 v -0.589111 h -0.590834 v -0.275608 h 0.590834 v -0.589111 h 0.275607 v 0.589111 h 0.589112 v 0.275608 z"
         style="line-height:0.69999999;fill:#666666;fill-opacity:1;stroke-width:0.26458332"
         id="path4629" />
    </g>
    <rect
       style="display:inline;opacity:1;fill:#666666;fill-opacity:1;stroke:none;stroke-width:0.2649999;stroke-miterlimit:4;stroke-dasharray:none;stroke-dashoffset:0;stroke-opacity:0.94779142"
       id="rect5407-5-1-4-2-5-0"
       width="9"
       height="16"
       x="19.48"
       y="13.517484"
       rx="1.0000002"
       ry="1.0000006" />
    <path
       style="fill:none;stroke:#e09696;stroke-width:0.30000001;stroke-linecap:butt;stroke-linejoin:miter;stroke-miterlimit:4;stroke-dasharray:none;stroke-dashoffset:0;stroke-opacity:1"
       d="m 6,16.949765 0,2.750222 c 0,0 0,5.150009 9.24,5.00001 7.239046,-0.117516 7.24,-5.00001 7.24,-5.00001 v -1.908323"
       id="path4619"
       inkscape:connector-curvature="0"
       sodipodi:nodetypes="ccscc" />
    <g
       aria-label="DC -/+"
       style="font-style:normal;font-variant:normal;font-weight:normal;font-stretch:normal;font-size:3.52777767px;line-height:0.69999999;font-family:Steagisler;-inkscape-font-specification:Steagisler;font-variant-ligatures:normal;font-variant-caps:normal;font-variant-numeric:normal;font-feature-settings:normal;text-align:center;letter-spacing:0px;word-spacing:0px;writing-mode:lr-tb;text-anchor:middle;fill:#666666;fill-opacity:1;stroke:none;stroke-width:0.26458332"
       id="text4615-7"
       transform="translate(-0.99999911,21.560933)">
      <path
         d="m 13.49506,14.588157 h 0.740695 q 0.306614,0 0.513319,0.158474 0.227377,0.170532 0.227377,0.458198 v 1.409044 q 0,0.287665 -0.227377,0.458198 -0.206705,0.158474 -0.513319,0.158474 H 13.49506 Z m 0.416856,2.263428 q 0,0.02067 0.02067,0.02067 h 0.303168 q 0.134359,0 0.225654,-0.07062 0.09819,-0.07579 0.09819,-0.201538 v -1.381484 q 0,-0.125746 -0.09819,-0.201538 -0.0913,-0.07062 -0.225654,-0.07062 h -0.303168 q -0.02067,0 -0.02067,0.02067 z"
         style="line-height:0.69999999;fill:#666666;fill-opacity:1;stroke-width:0.26458332"
         id="path4621-2"
         inkscape:connector-curvature="0" />
      <path
         d="m 17.015947,16.663827 q 0,0.287665 -0.225654,0.458198 -0.208428,0.156751 -0.515041,0.156751 -0.306614,0 -0.51332,-0.156751 -0.227376,-0.170533 -0.227376,-0.458198 v -1.508952 q 0,-0.287665 0.220486,-0.458198 0.204983,-0.156751 0.509874,-0.156751 0.304891,0 0.509874,0.156751 0.220486,0.170533 0.220486,0.458198 V 15.33402 H 16.59909 v -0.165365 q 0,-0.125746 -0.09819,-0.201538 -0.09129,-0.07062 -0.225653,-0.07062 -0.134359,0 -0.225654,0.07062 -0.09818,0.07579 -0.09818,0.201538 v 1.481391 q 0,0.125746 0.103352,0.201539 0.09646,0.07062 0.230822,0.07062 0.134359,0 0.230821,-0.07062 0.103353,-0.07579 0.103353,-0.201539 v -0.165364 h 0.396186 z"
         style="line-height:0.69999999;fill:#666666;fill-opacity:1;stroke-width:0.26458332"
         id="path4623-1"
         inkscape:connector-curvature="0" />
      <path
         d="M 14.389062,18.618229 V 18.89556 H 13.355533 V 18.618229 Z"
         style="line-height:0.69999999;fill:#666666;fill-opacity:1;stroke-width:0.26458332"
         id="path4625-3"
         inkscape:connector-curvature="0" />
      <path
         d="m 15.438093,17.059324 -0.465087,2.640665 H 14.69223 l 0.466811,-2.640665 z"
         style="line-height:0.69999999;fill:#666666;fill-opacity:1;stroke-width:0.26458332"
         id="path4627-7"
         inkscape:connector-curvature="0" />
      <path
         d="m 16.535356,18.518322 v 0.589111 h -0.275607 v -0.589111 h -0.590834 v -0.275608 h 0.590834 v -0.589111 h 0.275607 v 0.589111 h 0.589112 v 0.275608 z"
         style="line-height:0.69999999;fill:#666666;fill-opacity:1;stroke-width:0.26458332"
         id="path4629-9"
         inkscape:connector-curvature="0" />
    </g>
    <rect
       style="display:inline;opacity:1;fill:#666666;fill-opacity:1;stroke:none;stroke-width:0.2649999;stroke-miterlimit:4;stroke-dasharray:none;stroke-dashoffset:0;stroke-opacity:0.94779142"
       id="rect5407-5-1-4-2-5-0-4"
       width="9"
       height="16"
       x="19.48"
       y="35.078415"
       rx="1.0000002"
       ry="1.0000006" />
    <path
       style="fill:none;stroke:#852727;stroke-width:0.30000001;stroke-linecap:butt;stroke-linejoin:miter;stroke-miterlimit:4;stroke-dasharray:none;stroke-dashoffset:0;stroke-opacity:1"
       d="m 8.0000009,39.352597 v 1.908323 c 0,0 0,5.00001 7.2400001,5.00001 7.24,0 7.24,-5.00001 7.24,-5.00001 v -1.908323"
       id="path4619-2"
       inkscape:connector-curvature="0"
       sodipodi:nodetypes="ccscc" />
    <g
       aria-label="DC -/+"
       style="font-style:normal;font-variant:normal;font-weight:normal;font-stretch:normal;font-size:3.52777767px;line-height:0.69999999;font-family:Steagisler;-inkscape-font-specification:Steagisler;font-variant-ligatures:normal;font-variant-caps:normal;font-variant-numeric:normal;font-feature-settings:normal;text-align:center;letter-spacing:0px;word-spacing:0px;writing-mode:lr-tb;text-anchor:middle;fill:#666666;fill-opacity:1;stroke:none;stroke-width:0.26458332"
       id="text4615-6"
       transform="translate(-0.99999911,43.121866)">
      <path
         d="m 13.49506,14.588157 h 0.740695 q 0.306614,0 0.513319,0.158474 0.227377,0.170532 0.227377,0.458198 v 1.409044 q 0,0.287665 -0.227377,0.458198 -0.206705,0.158474 -0.513319,0.158474 H 13.49506 Z m 0.416856,2.263428 q 0,0.02067 0.02067,0.02067 h 0.303168 q 0.134359,0 0.225654,-0.07062 0.09819,-0.07579 0.09819,-0.201538 v -1.381484 q 0,-0.125746 -0.09819,-0.201538 -0.0913,-0.07062 -0.225654,-0.07062 h -0.303168 q -0.02067,0 -0.02067,0.02067 z"
         style="line-height:0.69999999;fill:#666666;fill-opacity:1;stroke-width:0.26458332"
         id="path4621-1"
         inkscape:connector-curvature="0" />
      <path
         d="m 17.015947,16.663827 q 0,0.287665 -0.225654,0.458198 -0.208428,0.156751 -0.515041,0.156751 -0.306614,0 -0.51332,-0.156751 -0.227376,-0.170533 -0.227376,-0.458198 v -1.508952 q 0,-0.287665 0.220486,-0.458198 0.204983,-0.156751 0.509874,-0.156751 0.304891,0 0.509874,0.156751 0.220486,0.170533 0.220486,0.458198 V 15.33402 H 16.59909 v -0.165365 q 0,-0.125746 -0.09819,-0.201538 -0.09129,-0.07062 -0.225653,-0.07062 -0.134359,0 -0.225654,0.07062 -0.09818,0.07579 -0.09818,0.201538 v 1.481391 q 0,0.125746 0.103352,0.201539 0.09646,0.07062 0.230822,0.07062 0.134359,0 0.230821,-0.07062 0.103353,-0.07579 0.103353,-0.201539 v -0.165364 h 0.396186 z"
         style="line-height:0.69999999;fill:#666666;fill-opacity:1;stroke-width:0.26458332"
         id="path4623-5"
         inkscape:connector-curvature="0" />
      <path
         d="M 14.389062,18.618229 V 18.89556 H 13.355533 V 18.618229 Z"
         style="line-height:0.69999999;fill:#666666;fill-opacity:1;stroke-width:0.26458332"
         id="path4625-5"
         inkscape:connector-curvature="0" />
      <path
         d="m 15.438093,17.059324 -0.465087,2.640665 H 14.69223 l 0.466811,-2.640665 z"
         style="line-height:0.69999999;fill:#666666;fill-opacity:1;stroke-width:0.26458332"
         id="path4627-4"
         inkscape:connector-curvature="0" />
      <path
         d="m 16.535356,18.518322 v 0.589111 h -0.275607 v -0.589111 h -0.590834 v -0.275608 h 0.590834 v -0.589111 h 0.275607 v 0.589111 h 0.589112 v 0.275608 z"
         style="line-height:0.69999999;fill:#666666;fill-opacity:1;stroke-width:0.26458332"
         id="path4629-0"
         inkscape:connector-curvature="0" />
    </g>
    <rect
       style="display:inline;opacity:1;fill:#666666;fill-opacity:1;stroke:none;stroke-width:0.2649999;stroke-miterlimit:4;stroke-dasharray:none;stroke-dashoffset:0;stroke-opacity:0.94779142"
       id="rect5407-5-1-4-2-5-0-45"
       width="9"
       height="16"
       x="19.48"
       y="56.639351"
       rx="1.0000002"
       ry="1.0000006" />
    <path
       style="fill:none;stroke:#96e0db;stroke-width:0.30000001;stroke-linecap:butt;stroke-linejoin:miter;stroke-miterlimit:4;stroke-dasharray:none;stroke-dashoffset:0;stroke-opacity:1"
       d="m 8.0000009,60.91353 v 1.908323 c 0,0 0,5.00001 7.2400001,5.00001 7.24,0 7.24,-5.00001 7.24,-5.00001 V 60.91353"
       id="path4619-20"
       inkscape:connector-curvature="0"
       sodipodi:nodetypes="ccscc" />
    <g
       aria-label="DC -/+"
       style="font-style:normal;font-variant:normal;font-weight:normal;font-stretch:normal;font-size:3.52777767px;line-height:0.69999999;font-family:Steagisler;-inkscape-font-specification:Steagisler;font-variant-ligatures:normal;font-variant-caps:normal;font-variant-numeric:normal;font-feature-settings:normal;text-align:center;letter-spacing:0px;word-spacing:0px;writing-mode:lr-tb;text-anchor:middle;fill:#666666;fill-opacity:1;stroke:none;stroke-width:0.26458332"
       id="text4615-9"
       transform="translate(-0.99999911,64.682799)">
      <path
         d="m 13.49506,14.588157 h 0.740695 q 0.306614,0 0.513319,0.158474 0.227377,0.170532 0.227377,0.458198 v 1.409044 q 0,0.287665 -0.227377,0.458198 -0.206705,0.158474 -0.513319,0.158474 H 13.49506 Z m 0.416856,2.263428 q 0,0.02067 0.02067,0.02067 h 0.303168 q 0.134359,0 0.225654,-0.07062 0.09819,-0.07579 0.09819,-0.201538 v -1.381484 q 0,-0.125746 -0.09819,-0.201538 -0.0913,-0.07062 -0.225654,-0.07062 h -0.303168 q -0.02067,0 -0.02067,0.02067 z"
         style="line-height:0.69999999;fill:#666666;fill-opacity:1;stroke-width:0.26458332"
         id="path4621-6"
         inkscape:connector-curvature="0" />
      <path
         d="m 17.015947,16.663827 q 0,0.287665 -0.225654,0.458198 -0.208428,0.156751 -0.515041,0.156751 -0.306614,0 -0.51332,-0.156751 -0.227376,-0.170533 -0.227376,-0.458198 v -1.508952 q 0,-0.287665 0.220486,-0.458198 0.204983,-0.156751 0.509874,-0.156751 0.304891,0 0.509874,0.156751 0.220486,0.170533 0.220486,0.458198 V 15.33402 H 16.59909 v -0.165365 q 0,-0.125746 -0.09819,-0.201538 -0.09129,-0.07062 -0.225653,-0.07062 -0.134359,0 -0.225654,0.07062 -0.09818,0.07579 -0.09818,0.201538 v 1.481391 q 0,0.125746 0.103352,0.201539 0.09646,0.07062 0.230822,0.07062 0.134359,0 0.230821,-0.07062 0.103353,-0.07579 0.103353,-0.201539 v -0.165364 h 0.396186 z"
         style="line-height:0.69999999;fill:#666666;fill-opacity:1;stroke-width:0.26458332"
         id="path4623-3"
         inkscape:connector-curvature="0" />
      <path
         d="M 14.389062,18.618229 V 18.89556 H 13.355533 V 18.618229 Z"
         style="line-height:0.69999999;fill:#666666;fill-opacity:1;stroke-width:0.26458332"
         id="path4625-9"
         inkscape:connector-curvature="0" />
      <path
         d="m 15.438093,17.059324 -0.465087,2.640665 H 14.69223 l 0.466811,-2.640665 z"
         style="line-height:0.69999999;fill:#666666;fill-opacity:1;stroke-width:0.26458332"
         id="path4627-1"
         inkscape:connector-curvature="0" />
      <path
         d="m 16.535356,18.518322 v 0.589111 h -0.275607 v -0.589111 h -0.590834 v -0.275608 h 0.590834 v -0.589111 h 0.275607 v 0.589111 h 0.589112 v 0.275608 z"
         style="line-height:0.69999999;fill:#666666;fill-opacity:1;stroke-width:0.26458332"
         id="path4629-7"
         inkscape:connector-curvature="0" />
    </g>
    <rect
       style="display:inline;opacity:1;fill:#666666;fill-opacity:1;stroke:none;stroke-width:0.2649999;stroke-miterlimit:4;stroke-dasharray:none;stroke-dashoffset:0;stroke-opacity:0.94779142"
       id="rect5407-5-1-4-2-5-0-1"
       width="9"
       height="16"
       x="19.48"
       y="78.200279"
       rx="1.0000002"
       ry="1.0000006" />
    <path
       style="fill:none;stroke:#247c76;stroke-width:0.30000001;stroke-linecap:butt;stroke-linejoin:miter;stroke-miterlimit:4;stroke-dasharray:none;stroke-dashoffset:0;stroke-opacity:1"
       d="m 8.0000009,82.474463 v 1.908323 c 0,0 0,5.00001 7.2400001,5.00001 7.24,0 7.24,-5.00001 7.24,-5.00001 v -1.908323"
       id="path4619-28"
       inkscape:connector-curvature="0"
       sodipodi:nodetypes="ccscc" />
    <g
       aria-label="DC -/+"
       style="font-style:normal;font-variant:normal;font-weight:normal;font-stretch:normal;font-size:3.52777767px;line-height:0.69999999;font-family:Steagisler;-inkscape-font-specification:Steagisler;font-variant-ligatures:normal;font-variant-caps:normal;font-variant-numeric:normal;font-feature-settings:normal;text-align:center;letter-spacing:0px;word-spacing:0px;writing-mode:lr-tb;text-anchor:middle;fill:#666666;fill-opacity:1;stroke:none;stroke-width:0.26458332"
       id="text4615-3"
       transform="translate(-0.99999911,86.243732)">
      <path
         d="m 13.49506,14.588157 h 0.740695 q 0.306614,0 0.513319,0.158474 0.227377,0.170532 0.227377,0.458198 v 1.409044 q 0,0.287665 -0.227377,0.458198 -0.206705,0.158474 -0.513319,0.158474 H 13.49506 Z m 0.416856,2.263428 q 0,0.02067 0.02067,0.02067 h 0.303168 q 0.134359,0 0.225654,-0.07062 0.09819,-0.07579 0.09819,-0.201538 v -1.381484 q 0,-0.125746 -0.09819,-0.201538 -0.0913,-0.07062 -0.225654,-0.07062 h -0.303168 q -0.02067,0 -0.02067,0.02067 z"
         style="line-height:0.69999999;fill:#666666;fill-opacity:1;stroke-width:0.26458332"
         id="path4621-3"
         inkscape:connector-curvature="0" />
      <path
         d="m 17.015947,16.663827 q 0,0.287665 -0.225654,0.458198 -0.208428,0.156751 -0.515041,0.156751 -0.306614,0 -0.51332,-0.156751 -0.227376,-0.170533 -0.227376,-0.458198 v -1.508952 q 0,-0.287665 0.220486,-0.458198 0.204983,-0.156751 0.509874,-0.156751 0.304891,0 0.509874,0.156751 0.220486,0.170533 0.220486,0.458198 V 15.33402 H 16.59909 v -0.165365 q 0,-0.125746 -0.09819,-0.201538 -0.09129,-0.07062 -0.225653,-0.07062 -0.134359,0 -0.225654,0.07062 -0.09818,0.07579 -0.09818,0.201538 v 1.481391 q 0,0.125746 0.103352,0.201539 0.09646,0.07062 0.230822,0.07062 0.134359,0 0.230821,-0.07062 0.103353,-0.07579 0.103353,-0.201539 v -0.165364 h 0.396186 z"
         style="line-height:0.69999999;fill:#666666;fill-opacity:1;stroke-width:0.26458332"
         id="path4623-55"
         inkscape:connector-curvature="0" />
      <path
         d="M 14.389062,18.618229 V 18.89556 H 13.355533 V 18.618229 Z"
         style="line-height:0.69999999;fill:#666666;fill-opacity:1;stroke-width:0.26458332"
         id="path4625-8"
         inkscape:connector-curvature="0" />
      <path
         d="m 15.438093,17.059324 -0.465087,2.640665 H 14.69223 l 0.466811,-2.640665 z"
         style="line-height:0.69999999;fill:#666666;fill-opacity:1;stroke-width:0.26458332"
         id="path4627-6"
         inkscape:connector-curvature="0" />
      <path
         d="m 16.535356,18.518322 v 0.589111 h -0.275607 v -0.589111 h -0.590834 v -0.275608 h 0.590834 v -0.589111 h 0.275607 v 0.589111 h 0.589112 v 0.275608 z"
         style="line-height:0.69999999;fill:#666666;fill-opacity:1;stroke-width:0.26458332"
         id="path4629-6"
         inkscape:connector-curvature="0" />
    </g>
    <rect
       style="display:inline;opacity:1;fill:#666666;fill-opacity:1;stroke:none;stroke-width:0.2649999;stroke-miterlimit:4;stroke-dasharray:none;stroke-dashoffset:0;stroke-opacity:0.94779142"
       id="rect5407-5-1-4-2-5-0-41"
       width="9"
       height="16"
       x="19.48"
       y="99.761215"
       rx="1.0000002"
       ry="1.0000006" />
    <path
       style="fill:none;stroke:#bbbbbb;stroke-width:0.30000001;stroke-linecap:butt;stroke-linejoin:miter;stroke-miterlimit:4;stroke-dasharray:none;stroke-dashoffset:0;stroke-opacity:1"
       d="m 8.0000009,104.0354 v 1.90832 c 0,0 0,5.00001 7.2400001,5.00001 7.24,0 7.24,-5.00001 7.24,-5.00001 v -1.90832"
       id="path4619-3"
       inkscape:connector-curvature="0"
       sodipodi:nodetypes="ccscc" />
    <g
       transform="translate(-18.582669,-92.297464)"
       aria-label="out"
       style="font-style:normal;font-variant:normal;font-weight:normal;font-stretch:normal;font-size:3.52777767px;line-height:1.25;font-family:Steagisler;-inkscape-font-specification:Steagisler;font-variant-ligatures:normal;font-variant-caps:normal;font-variant-numeric:normal;font-feature-settings:normal;text-align:center;letter-spacing:0px;word-spacing:0px;writing-mode:lr-tb;text-anchor:middle;display:inline;fill:#f9f9f9;fill-opacity:1;stroke:none;stroke-width:0.26458332"
       id="text4639-4-9-1">
      <path
         inkscape:connector-curvature="0"
         d="m 40.286323,205.62713 q 0,-0.28422 0.215318,-0.45303 0.198093,-0.15675 0.489204,-0.15675 0.292833,0 0.490926,0.15675 0.215318,0.16881 0.215318,0.45303 v 0.76309 q 0,0.28422 -0.215318,0.45475 Q 41.283678,207 40.990845,207 q -0.291111,0 -0.489204,-0.15503 -0.215318,-0.17053 -0.215318,-0.45475 z m 1.01458,0.0155 q 0,-0.12575 -0.09474,-0.20154 -0.08785,-0.0689 -0.215318,-0.0689 -0.127469,0 -0.215319,0.0689 -0.09302,0.0758 -0.09302,0.20154 v 0.73381 q 0,0.12402 0.09302,0.19981 0.08785,0.0706 0.215319,0.0706 0.127468,0 0.215318,-0.0706 0.09474,-0.0758 0.09474,-0.19981 z"
         style="fill:#f9f9f9;fill-opacity:1;stroke-width:0.26458332"
         id="path4743-5-6-2" />
      <path
         inkscape:connector-curvature="0"
         d="m 43.145752,206.82774 q -0.0034,-0.0121 -0.0155,-0.0138 -0.0034,-0.002 -0.0069,-0.002 -0.0069,0 -0.01206,0.007 Q 42.952827,207 42.653103,207 q -0.28422,0 -0.440972,-0.16192 -0.155029,-0.16192 -0.155029,-0.44786 v -1.33326 h 0.396186 v 1.31775 q 0,0.12575 0.09302,0.20154 0.08785,0.0706 0.215319,0.0706 0.129191,0 0.215318,-0.0706 0.09474,-0.0758 0.09474,-0.20154 v -1.31775 h 0.396186 v 1.89481 h -0.29111 z"
         style="fill:#f9f9f9;fill-opacity:1;stroke-width:0.26458332"
         id="path4745-7-7-6" />
      <path
         inkscape:connector-curvature="0"
         d="m 43.80721,205.05696 h 0.227376 q 0.02067,0 0.02067,-0.0207 v -0.49609 h 0.396186 v 0.49609 q 0,0.0207 0.02067,0.0207 h 0.366902 v 0.30145 h -0.366902 q -0.02067,0 -0.02067,0.0207 v 1.03008 q 0.01206,0.25839 0.192925,0.25839 0.08613,0 0.194648,-0.0207 v 0.30489 Q 44.70638,207 44.572021,207 q -0.502984,-0.002 -0.516764,-0.55811 v -1.06281 q 0,-0.0207 -0.02067,-0.0207 H 43.80721 Z"
         style="fill:#f9f9f9;fill-opacity:1;stroke-width:0.26458332"
         id="path4747-9-3-2" />
    </g>
    <g
       transform="translate(-18.582669,-113.79746)"
       aria-label="out"
       style="font-style:normal;font-variant:normal;font-weight:normal;font-stretch:normal;font-size:3.52777767px;line-height:1.25;font-family:Steagisler;-inkscape-font-specification:Steagisler;font-variant-ligatures:normal;font-variant-caps:normal;font-variant-numeric:normal;font-feature-settings:normal;text-align:center;letter-spacing:0px;word-spacing:0px;writing-mode:lr-tb;text-anchor:middle;display:inline;fill:#f9f9f9;fill-opacity:1;stroke:none;stroke-width:0.26458332"
       id="text4639-4-9-1-9">
      <path
         inkscape:connector-curvature="0"
         d="m 40.286323,205.62713 q 0,-0.28422 0.215318,-0.45303 0.198093,-0.15675 0.489204,-0.15675 0.292833,0 0.490926,0.15675 0.215318,0.16881 0.215318,0.45303 v 0.76309 q 0,0.28422 -0.215318,0.45475 Q 41.283678,207 40.990845,207 q -0.291111,0 -0.489204,-0.15503 -0.215318,-0.17053 -0.215318,-0.45475 z m 1.01458,0.0155 q 0,-0.12575 -0.09474,-0.20154 -0.08785,-0.0689 -0.215318,-0.0689 -0.127469,0 -0.215319,0.0689 -0.09302,0.0758 -0.09302,0.20154 v 0.73381 q 0,0.12402 0.09302,0.19981 0.08785,0.0706 0.215319,0.0706 0.127468,0 0.215318,-0.0706 0.09474,-0.0758 0.09474,-0.19981 z"
         style="fill:#f9f9f9;fill-opacity:1;stroke-width:0.26458332"
         id="path4743-5-6-2-2" />
      <path
         inkscape:connector-curvature="0"
         d="m 43.145752,206.82774 q -0.0034,-0.0121 -0.0155,-0.0138 -0.0034,-0.002 -0.0069,-0.002 -0.0069,0 -0.01206,0.007 Q 42.952827,207 42.653103,207 q -0.28422,0 -0.440972,-0.16192 -0.155029,-0.16192 -0.155029,-0.44786 v -1.33326 h 0.396186 v 1.31775 q 0,0.12575 0.09302,0.20154 0.08785,0.0706 0.215319,0.0706 0.129191,0 0.215318,-0.0706 0.09474,-0.0758 0.09474,-0.20154 v -1.31775 h 0.396186 v 1.89481 h -0.29111 z"
         style="fill:#f9f9f9;fill-opacity:1;stroke-width:0.26458332"
         id="path4745-7-7-6-5" />
      <path
         inkscape:connector-curvature="0"
         d="m 43.80721,205.05696 h 0.227376 q 0.02067,0 0.02067,-0.0207 v -0.49609 h 0.396186 v 0.49609 q 0,0.0207 0.02067,0.0207 h 0.366902 v 0.30145 h -0.366902 q -0.02067,0 -0.02067,0.0207 v 1.03008 q 0.01206,0.25839 0.192925,0.25839 0.08613,0 0.194648,-0.0207 v 0.30489 Q 44.70638,207 44.572021,207 q -0.502984,-0.002 -0.516764,-0.55811 v -1.06281 q 0,-0.0207 -0.02067,-0.0207 H 43.80721 Z"
         style="fill:#f9f9f9;fill-opacity:1;stroke-width:0.26458332"
         id="path4747-9-3-2-8" />
    </g>
    <g
       transform="translate(-18.582669,-135.29746)"
       aria-label="out"
       style="font-style:normal;font-variant:normal;font-weight:normal;font-stretch:normal;font-size:3.52777767px;line-height:1.25;font-family:Steagisler;-inkscape-font-specification:Steagisler;font-variant-ligatures:normal;font-variant-caps:normal;font-variant-numeric:normal;font-feature-settings:normal;text-align:center;letter-spacing:0px;word-spacing:0px;writing-mode:lr-tb;text-anchor:middle;display:inline;fill:#f9f9f9;fill-opacity:1;stroke:none;stroke-width:0.26458332"
       id="text4639-4-9-1-9-2">
      <path
         inkscape:connector-curvature="0"
         d="m 40.286323,205.62713 q 0,-0.28422 0.215318,-0.45303 0.198093,-0.15675 0.489204,-0.15675 0.292833,0 0.490926,0.15675 0.215318,0.16881 0.215318,0.45303 v 0.76309 q 0,0.28422 -0.215318,0.45475 Q 41.283678,207 40.990845,207 q -0.291111,0 -0.489204,-0.15503 -0.215318,-0.17053 -0.215318,-0.45475 z m 1.01458,0.0155 q 0,-0.12575 -0.09474,-0.20154 -0.08785,-0.0689 -0.215318,-0.0689 -0.127469,0 -0.215319,0.0689 -0.09302,0.0758 -0.09302,0.20154 v 0.73381 q 0,0.12402 0.09302,0.19981 0.08785,0.0706 0.215319,0.0706 0.127468,0 0.215318,-0.0706 0.09474,-0.0758 0.09474,-0.19981 z"
         style="fill:#f9f9f9;fill-opacity:1;stroke-width:0.26458332"
         id="path4743-5-6-2-2-9" />
      <path
         inkscape:connector-curvature="0"
         d="m 43.145752,206.82774 q -0.0034,-0.0121 -0.0155,-0.0138 -0.0034,-0.002 -0.0069,-0.002 -0.0069,0 -0.01206,0.007 Q 42.952827,207 42.653103,207 q -0.28422,0 -0.440972,-0.16192 -0.155029,-0.16192 -0.155029,-0.44786 v -1.33326 h 0.396186 v 1.31775 q 0,0.12575 0.09302,0.20154 0.08785,0.0706 0.215319,0.0706 0.129191,0 0.215318,-0.0706 0.09474,-0.0758 0.09474,-0.20154 v -1.31775 h 0.396186 v 1.89481 h -0.29111 z"
         style="fill:#f9f9f9;fill-opacity:1;stroke-width:0.26458332"
         id="path4745-7-7-6-5-2" />
      <path
         inkscape:connector-curvature="0"
         d="m 43.80721,205.05696 h 0.227376 q 0.02067,0 0.02067,-0.0207 v -0.49609 h 0.396186 v 0.49609 q 0,0.0207 0.02067,0.0207 h 0.366902 v 0.30145 h -0.366902 q -0.02067,0 -0.02067,0.0207 v 1.03008 q 0.01206,0.25839 0.192925,0.25839 0.08613,0 0.194648,-0.0207 v 0.30489 Q 44.70638,207 44.572021,207 q -0.502984,-0.002 -0.516764,-0.55811 v -1.06281 q 0,-0.0207 -0.02067,-0.0207 H 43.80721 Z"
         style="fill:#f9f9f9;fill-opacity:1;stroke-width:0.26458332"
         id="path4747-9-3-2-8-6" />
    </g>
    <g
       transform="translate(-18.582669,-156.79746)"
       aria-label="out"
       style="font-style:normal;font-variant:normal;font-weight:normal;font-stretch:normal;font-size:3.52777767px;line-height:1.25;font-family:Steagisler;-inkscape-font-specification:Steagisler;font-variant-ligatures:normal;font-variant-caps:normal;font-variant-numeric:normal;font-feature-settings:normal;text-align:center;letter-spacing:0px;word-spacing:0px;writing-mode:lr-tb;text-anchor:middle;display:inline;fill:#f9f9f9;fill-opacity:1;stroke:none;stroke-width:0.26458332"
       id="text4639-4-9-1-9-9">
      <path
         inkscape:connector-curvature="0"
         d="m 40.286323,205.62713 q 0,-0.28422 0.215318,-0.45303 0.198093,-0.15675 0.489204,-0.15675 0.292833,0 0.490926,0.15675 0.215318,0.16881 0.215318,0.45303 v 0.76309 q 0,0.28422 -0.215318,0.45475 Q 41.283678,207 40.990845,207 q -0.291111,0 -0.489204,-0.15503 -0.215318,-0.17053 -0.215318,-0.45475 z m 1.01458,0.0155 q 0,-0.12575 -0.09474,-0.20154 -0.08785,-0.0689 -0.215318,-0.0689 -0.127469,0 -0.215319,0.0689 -0.09302,0.0758 -0.09302,0.20154 v 0.73381 q 0,0.12402 0.09302,0.19981 0.08785,0.0706 0.215319,0.0706 0.127468,0 0.215318,-0.0706 0.09474,-0.0758 0.09474,-0.19981 z"
         style="fill:#f9f9f9;fill-opacity:1;stroke-width:0.26458332"
         id="path4743-5-6-2-2-7" />
      <path
         inkscape:connector-curvature="0"
         d="m 43.145752,206.82774 q -0.0034,-0.0121 -0.0155,-0.0138 -0.0034,-0.002 -0.0069,-0.002 -0.0069,0 -0.01206,0.007 Q 42.952827,207 42.653103,207 q -0.28422,0 -0.440972,-0.16192 -0.155029,-0.16192 -0.155029,-0.44786 v -1.33326 h 0.396186 v 1.31775 q 0,0.12575 0.09302,0.20154 0.08785,0.0706 0.215319,0.0706 0.129191,0 0.215318,-0.0706 0.09474,-0.0758 0.09474,-0.20154 v -1.31775 h 0.396186 v 1.89481 h -0.29111 z"
         style="fill:#f9f9f9;fill-opacity:1;stroke-width:0.26458332"
         id="path4745-7-7-6-5-5" />
      <path
         inkscape:connector-curvature="0"
         d="m 43.80721,205.05696 h 0.227376 q 0.02067,0 0.02067,-0.0207 v -0.49609 h 0.396186 v 0.49609 q 0,0.0207 0.02067,0.0207 h 0.366902 v 0.30145 h -0.366902 q -0.02067,0 -0.02067,0.0207 v 1.03008 q 0.01206,0.25839 0.192925,0.25839 0.08613,0 0.194648,-0.0207 v 0.30489 Q 44.70638,207 44.572021,207 q -0.502984,-0.002 -0.516764,-0.55811 v -1.06281 q 0,-0.0207 -0.02067,-0.0207 H 43.80721 Z"
         style="fill:#f9f9f9;fill-opacity:1;stroke-width:0.26458332"
         id="path4747-9-3-2-8-4" />
    </g>
    <g
       transform="translate(-18.582669,-178.29746)"
       aria-label="out"
       style="font-style:normal;font-variant:normal;font-weight:normal;font-stretch:normal;font-size:3.52777767px;line-height:1.25;font-family:Steagisler;-inkscape-font-specification:Steagisler;font-variant-ligatures:normal;font-variant-caps:normal;font-variant-numeric:normal;font-feature-settings:normal;text-align:center;letter-spacing:0px;word-spacing:0px;writing-mode:lr-tb;text-anchor:middle;display:inline;fill:#f9f9f9;fill-opacity:1;stroke:none;stroke-width:0.26458332"
       id="text4639-4-9-1-9-5">
      <path
         inkscape:connector-curvature="0"
         d="m 40.286323,205.62713 q 0,-0.28422 0.215318,-0.45303 0.198093,-0.15675 0.489204,-0.15675 0.292833,0 0.490926,0.15675 0.215318,0.16881 0.215318,0.45303 v 0.76309 q 0,0.28422 -0.215318,0.45475 Q 41.283678,207 40.990845,207 q -0.291111,0 -0.489204,-0.15503 -0.215318,-0.17053 -0.215318,-0.45475 z m 1.01458,0.0155 q 0,-0.12575 -0.09474,-0.20154 -0.08785,-0.0689 -0.215318,-0.0689 -0.127469,0 -0.215319,0.0689 -0.09302,0.0758 -0.09302,0.20154 v 0.73381 q 0,0.12402 0.09302,0.19981 0.08785,0.0706 0.215319,0.0706 0.127468,0 0.215318,-0.0706 0.09474,-0.0758 0.09474,-0.19981 z"
         style="fill:#f9f9f9;fill-opacity:1;stroke-width:0.26458332"
         id="path4743-5-6-2-2-4" />
      <path
         inkscape:connector-curvature="0"
         d="m 43.145752,206.82774 q -0.0034,-0.0121 -0.0155,-0.0138 -0.0034,-0.002 -0.0069,-0.002 -0.0069,0 -0.01206,0.007 Q 42.952827,207 42.653103,207 q -0.28422,0 -0.440972,-0.16192 -0.155029,-0.16192 -0.155029,-0.44786 v -1.33326 h 0.396186 v 1.31775 q 0,0.12575 0.09302,0.20154 0.08785,0.0706 0.215319,0.0706 0.129191,0 0.215318,-0.0706 0.09474,-0.0758 0.09474,-0.20154 v -1.31775 h 0.396186 v 1.89481 h -0.29111 z"
         style="fill:#f9f9f9;fill-opacity:1;stroke-width:0.26458332"
         id="path4745-7-7-6-5-8" />
      <path
         inkscape:connector-curvature="0"
         d="m 43.80721,205.05696 h 0.227376 q 0.02067,0 0.02067,-0.0207 v -0.49609 h 0.396186 v 0.49609 q 0,0.0207 0.02067,0.0207 h 0.366902 v 0.30145 h -0.366902 q -0.02067,0 -0.02067,0.0207 v 1.03008 q 0.01206,0.25839 0.192925,0.25839 0.08613,0 0.194648,-0.0207 v 0.30489 Q 44.70638,207 44.572021,207 q -0.502984,-0.002 -0.516764,-0.55811 v -1.06281 q 0,-0.0207 -0.02067,-0.0207 H 43.80721 Z"
         style="fill:#f9f9f9;fill-opacity:1;stroke-width:0.26458332"
         id="path4747-9-3-2-8-0" />
    </g>
    <g
       transform="translate(-2.2409023,-92.33001)"
       aria-label="in"
       style="font-style:normal;font-variant:normal;font-weight:normal;font-stretch:normal;font-size:3.52777767px;line-height:1.25;font-family:Steagisler;-inkscape-font-specification:Steagisler;font-variant-ligatures:normal;font-variant-caps:normal;font-variant-numeric:normal;font-feature-settings:normal;text-align:center;letter-spacing:0px;word-spacing:0px;writing-mode:lr-tb;text-anchor:middle;display:inline;fill:#666666;fill-opacity:1;stroke:none;stroke-width:0.26458332"
       id="text4627-7-4-4">
      <path
         inkscape:connector-curvature="0"
         d="m 7.0936859,204.35933 q 0.1050754,0 0.1774224,0.0724 0.07407,0.0741 0.07407,0.17742 0,0.10508 -0.07407,0.17915 -0.072347,0.0724 -0.1774224,0.0724 -0.1033529,0 -0.1774224,-0.0724 -0.07407,-0.0741 -0.07407,-0.17915 0,-0.10335 0.07407,-0.17742 0.074069,-0.0724 0.1774224,-0.0724 z M 7.2917788,207 H 6.8955929 v -1.57269 q 0,-0.0207 -0.020671,-0.0207 H 6.681997 v -0.30144 h 0.6097818 z"
         style="stroke-width:0.26458332;fill:#666666;fill-opacity:1"
         id="path4755-2-6-2" />
      <path
         inkscape:connector-curvature="0"
         d="m 8.1668331,205.23783 q 0.00345,0.0155 0.022393,0.0155 0.00861,0 0.015503,-0.009 0.1567518,-0.17914 0.4547526,-0.17914 0.2842203,0 0.4409722,0.16192 0.1550293,0.16192 0.1550293,0.44786 V 207 h -0.396186 v -1.30914 q 0,-0.12574 -0.093018,-0.20153 -0.08785,-0.0706 -0.2153184,-0.0706 -0.1291911,0 -0.2153185,0.0706 -0.09474,0.0758 -0.09474,0.20153 V 207 h -0.396186 v -1.8948 h 0.2911106 z"
         style="stroke-width:0.26458332;fill:#666666;fill-opacity:1"
         id="path4757-2-6-2" />
    </g>
    <g
       transform="translate(-2.2409023,-113.83)"
       aria-label="in"
       style="font-style:normal;font-variant:normal;font-weight:normal;font-stretch:normal;font-size:3.52777767px;line-height:1.25;font-family:Steagisler;-inkscape-font-specification:Steagisler;font-variant-ligatures:normal;font-variant-caps:normal;font-variant-numeric:normal;font-feature-settings:normal;text-align:center;letter-spacing:0px;word-spacing:0px;writing-mode:lr-tb;text-anchor:middle;display:inline;fill:#666666;fill-opacity:1;stroke:none;stroke-width:0.26458332"
       id="text4627-7-4-4-7">
      <path
         inkscape:connector-curvature="0"
         d="m 7.0936859,204.35933 q 0.1050754,0 0.1774224,0.0724 0.07407,0.0741 0.07407,0.17742 0,0.10508 -0.07407,0.17915 -0.072347,0.0724 -0.1774224,0.0724 -0.1033529,0 -0.1774224,-0.0724 -0.07407,-0.0741 -0.07407,-0.17915 0,-0.10335 0.07407,-0.17742 0.074069,-0.0724 0.1774224,-0.0724 z M 7.2917788,207 H 6.8955929 v -1.57269 q 0,-0.0207 -0.020671,-0.0207 H 6.681997 v -0.30144 h 0.6097818 z"
         style="fill:#666666;fill-opacity:1;stroke-width:0.26458332"
         id="path4755-2-6-2-1" />
      <path
         inkscape:connector-curvature="0"
         d="m 8.1668331,205.23783 q 0.00345,0.0155 0.022393,0.0155 0.00861,0 0.015503,-0.009 0.1567518,-0.17914 0.4547526,-0.17914 0.2842203,0 0.4409722,0.16192 0.1550293,0.16192 0.1550293,0.44786 V 207 h -0.396186 v -1.30914 q 0,-0.12574 -0.093018,-0.20153 -0.08785,-0.0706 -0.2153184,-0.0706 -0.1291911,0 -0.2153185,0.0706 -0.09474,0.0758 -0.09474,0.20153 V 207 h -0.396186 v -1.8948 h 0.2911106 z"
         style="fill:#666666;fill-opacity:1;stroke-width:0.26458332"
         id="path4757-2-6-2-6" />
    </g>
    <g
       transform="translate(-2.2409023,-135.33)"
       aria-label="in"
       style="font-style:normal;font-variant:normal;font-weight:normal;font-stretch:normal;font-size:3.52777767px;line-height:1.25;font-family:Steagisler;-inkscape-font-specification:Steagisler;font-variant-ligatures:normal;font-variant-caps:normal;font-variant-numeric:normal;font-feature-settings:normal;text-align:center;letter-spacing:0px;word-spacing:0px;writing-mode:lr-tb;text-anchor:middle;display:inline;fill:#666666;fill-opacity:1;stroke:none;stroke-width:0.26458332"
       id="text4627-7-4-4-7-5">
      <path
         inkscape:connector-curvature="0"
         d="m 7.0936859,204.35933 q 0.1050754,0 0.1774224,0.0724 0.07407,0.0741 0.07407,0.17742 0,0.10508 -0.07407,0.17915 -0.072347,0.0724 -0.1774224,0.0724 -0.1033529,0 -0.1774224,-0.0724 -0.07407,-0.0741 -0.07407,-0.17915 0,-0.10335 0.07407,-0.17742 0.074069,-0.0724 0.1774224,-0.0724 z M 7.2917788,207 H 6.8955929 v -1.57269 q 0,-0.0207 -0.020671,-0.0207 H 6.681997 v -0.30144 h 0.6097818 z"
         style="fill:#666666;fill-opacity:1;stroke-width:0.26458332"
         id="path4755-2-6-2-1-1" />
      <path
         inkscape:connector-curvature="0"
         d="m 8.1668331,205.23783 q 0.00345,0.0155 0.022393,0.0155 0.00861,0 0.015503,-0.009 0.1567518,-0.17914 0.4547526,-0.17914 0.2842203,0 0.4409722,0.16192 0.1550293,0.16192 0.1550293,0.44786 V 207 h -0.396186 v -1.30914 q 0,-0.12574 -0.093018,-0.20153 -0.08785,-0.0706 -0.2153184,-0.0706 -0.1291911,0 -0.2153185,0.0706 -0.09474,0.0758 -0.09474,0.20153 V 207 h -0.396186 v -1.8948 h 0.2911106 z"
         style="fill:#666666;fill-opacity:1;stroke-width:0.26458332"
         id="path4757-2-6-2-6-2" />
    </g>
    <g
       transform="translate(-2.2409023,-156.83)"
       aria-label="in"
       style="font-style:normal;font-variant:normal;font-weight:normal;font-stretch:normal;font-size:3.52777767px;line-height:1.25;font-family:Steagisler;-inkscape-font-specification:Steagisler;font-variant-ligatures:normal;font-variant-caps:normal;font-variant-numeric:normal;font-feature-settings:normal;text-align:center;letter-spacing:0px;word-spacing:0px;writing-mode:lr-tb;text-anchor:middle;display:inline;fill:#666666;fill-opacity:1;stroke:none;stroke-width:0.26458332"
       id="text4627-7-4-4-7-9">
      <path
         inkscape:connector-curvature="0"
         d="m 7.0936859,204.35933 q 0.1050754,0 0.1774224,0.0724 0.07407,0.0741 0.07407,0.17742 0,0.10508 -0.07407,0.17915 -0.072347,0.0724 -0.1774224,0.0724 -0.1033529,0 -0.1774224,-0.0724 -0.07407,-0.0741 -0.07407,-0.17915 0,-0.10335 0.07407,-0.17742 0.074069,-0.0724 0.1774224,-0.0724 z M 7.2917788,207 H 6.8955929 v -1.57269 q 0,-0.0207 -0.020671,-0.0207 H 6.681997 v -0.30144 h 0.6097818 z"
         style="fill:#666666;fill-opacity:1;stroke-width:0.26458332"
         id="path4755-2-6-2-1-17" />
      <path
         inkscape:connector-curvature="0"
         d="m 8.1668331,205.23783 q 0.00345,0.0155 0.022393,0.0155 0.00861,0 0.015503,-0.009 0.1567518,-0.17914 0.4547526,-0.17914 0.2842203,0 0.4409722,0.16192 0.1550293,0.16192 0.1550293,0.44786 V 207 h -0.396186 v -1.30914 q 0,-0.12574 -0.093018,-0.20153 -0.08785,-0.0706 -0.2153184,-0.0706 -0.1291911,0 -0.2153185,0.0706 -0.09474,0.0758 -0.09474,0.20153 V 207 h -0.396186 v -1.8948 h 0.2911106 z"
         style="fill:#666666;fill-opacity:1;stroke-width:0.26458332"
         id="path4757-2-6-2-6-1" />
    </g>
    <g
       transform="translate(-2.2409023,-178.29746)"
       aria-label="in"
       style="font-style:normal;font-variant:normal;font-weight:normal;font-stretch:normal;font-size:3.52777767px;line-height:1.25;font-family:Steagisler;-inkscape-font-specification:Steagisler;font-variant-ligatures:normal;font-variant-caps:normal;font-variant-numeric:normal;font-feature-settings:normal;text-align:center;letter-spacing:0px;word-spacing:0px;writing-mode:lr-tb;text-anchor:middle;display:inline;fill:#666666;fill-opacity:1;stroke:none;stroke-width:0.26458332"
       id="text4627-7-4-4-7-1">
      <path
         inkscape:connector-curvature="0"
         d="m 7.0936859,204.35933 q 0.1050754,0 0.1774224,0.0724 0.07407,0.0741 0.07407,0.17742 0,0.10508 -0.07407,0.17915 -0.072347,0.0724 -0.1774224,0.0724 -0.1033529,0 -0.1774224,-0.0724 -0.07407,-0.0741 -0.07407,-0.17915 0,-0.10335 0.07407,-0.17742 0.074069,-0.0724 0.1774224,-0.0724 z M 7.2917788,207 H 6.8955929 v -1.57269 q 0,-0.0207 -0.020671,-0.0207 H 6.681997 v -0.30144 h 0.6097818 z"
         style="fill:#666666;fill-opacity:1;stroke-width:0.26458332"
         id="path4755-2-6-2-1-4" />
      <path
         inkscape:connector-curvature="0"
         d="m 8.1668331,205.23783 q 0.00345,0.0155 0.022393,0.0155 0.00861,0 0.015503,-0.009 0.1567518,-0.17914 0.4547526,-0.17914 0.2842203,0 0.4409722,0.16192 0.1550293,0.16192 0.1550293,0.44786 V 207 h -0.396186 v -1.30914 q 0,-0.12574 -0.093018,-0.20153 -0.08785,-0.0706 -0.2153184,-0.0706 -0.1291911,0 -0.2153185,0.0706 -0.09474,0.0758 -0.09474,0.20153 V 207 h -0.396186 v -1.8948 h 0.2911106 z"
         style="fill:#666666;fill-opacity:1;stroke-width:0.26458332"
         id="path4757-2-6-2-6-8" />
    </g>
  </g>
  <g
     inkscape:groupmode="layer"
     id="layer2"
     inkscape:label="components"
     style="display:none"
     transform="translate(0,-1e-5)">
    <circle
       style="display:inline;opacity:1;fill:#00ff00;fill-opacity:1;stroke:none;stroke-width:0.39999998;stroke-linecap:butt;stroke-miterlimit:4;stroke-dasharray:none;stroke-dashoffset:0;stroke-opacity:1;paint-order:normal"
       id="path4623-25-6-3"
       cx="6"
       cy="105.69999"
       r="1.9599999"
       inkscape:label="IN" />
    <circle
       style="display:inline;opacity:1;fill:#0000ff;fill-opacity:1;stroke:none;stroke-width:0.39999998;stroke-linecap:butt;stroke-miterlimit:4;stroke-dasharray:none;stroke-dashoffset:0;stroke-opacity:1;paint-order:normal"
       id="path4623-2-0-2-3-0"
       cx="24.48"
       cy="105.7"
       r="1.9599999"
       inkscape:label="OUT" />
    <circle
       style="display:inline;opacity:1;fill:#00ff00;fill-opacity:1;stroke:none;stroke-width:0.39999998;stroke-linecap:butt;stroke-miterlimit:4;stroke-dasharray:none;stroke-dashoffset:0;stroke-opacity:1;paint-order:normal"
       id="path4623-25-6-3-8"
       cx="6"
       cy="84.199997"
       r="1.9599999"
       inkscape:label="IN" />
    <circle
       style="display:inline;opacity:1;fill:#0000ff;fill-opacity:1;stroke:none;stroke-width:0.39999998;stroke-linecap:butt;stroke-miterlimit:4;stroke-dasharray:none;stroke-dashoffset:0;stroke-opacity:1;paint-order:normal"
       id="path4623-2-0-2-3-0-1"
       cx="24.48"
       cy="84.199989"
       r="1.9599999"
       inkscape:label="OUT" />
    <circle
       style="display:inline;opacity:1;fill:#00ff00;fill-opacity:1;stroke:none;stroke-width:0.39999998;stroke-linecap:butt;stroke-miterlimit:4;stroke-dasharray:none;stroke-dashoffset:0;stroke-opacity:1;paint-order:normal"
       id="path4623-25-6-3-8-0"
       cx="6"
       cy="62.700005"
       r="1.9599999"
       inkscape:label="IN" />
    <circle
       style="display:inline;opacity:1;fill:#0000ff;fill-opacity:1;stroke:none;stroke-width:0.39999998;stroke-linecap:butt;stroke-miterlimit:4;stroke-dasharray:none;stroke-dashoffset:0;stroke-opacity:1;paint-order:normal"
       id="path4623-2-0-2-3-0-1-0"
       cx="24.48"
       cy="62.700005"
       r="1.9599999"
       inkscape:label="OUT" />
    <circle
       style="display:inline;opacity:1;fill:#00ff00;fill-opacity:1;stroke:none;stroke-width:0.39999998;stroke-linecap:butt;stroke-miterlimit:4;stroke-dasharray:none;stroke-dashoffset:0;stroke-opacity:1;paint-order:normal"
       id="path4623-25-6-3-8-6"
       cx="6"
       cy="41.200008"
       r="1.9599999"
       inkscape:label="IN" />
    <circle
       style="display:inline;opacity:1;fill:#0000ff;fill-opacity:1;stroke:none;stroke-width:0.39999998;stroke-linecap:butt;stroke-miterlimit:4;stroke-dasharray:none;stroke-dashoffset:0;stroke-opacity:1;paint-order:normal"
       id="path4623-2-0-2-3-0-1-2"
       cx="24.48"
       cy="41.200005"
       r="1.9599999"
       inkscape:label="OUT" />
    <circle
       style="display:inline;opacity:1;fill:#00ff00;fill-opacity:1;stroke:none;stroke-width:0.39999998;stroke-linecap:butt;stroke-miterlimit:4;stroke-dasharray:none;stroke-dashoffset:0;stroke-opacity:1;paint-order:normal"
       id="path4623-25-6-3-8-7"
       cx="6"
       cy="19.700005"
       r="1.9599999"
       inkscape:label="IN" />
    <circle
       style="display:inline;opacity:1;fill:#0000ff;fill-opacity:1;stroke:none;stroke-width:0.39999998;stroke-linecap:butt;stroke-miterlimit:4;stroke-dasharray:none;stroke-dashoffset:0;stroke-opacity:1;paint-order:normal"
       id="path4623-2-0-2-3-0-1-3"
       cx="24.48"
       cy="19.700001"
       r="1.9599999"
       inkscape:label="OUT" />
    <circle
       style="opacity:1;fill:#ff0000;fill-opacity:1;stroke:none;stroke-width:0.30000001;stroke-linecap:butt;stroke-linejoin:round;stroke-miterlimit:4;stroke-dasharray:none;stroke-dashoffset:0;stroke-opacity:1;paint-order:normal"
       id="path5295"
       cx="15.24"
       cy="24.70001"
       r="3.1297028"
       inkscape:label="KNOB" />
    <circle
       style="display:inline;opacity:1;fill:#ff0000;fill-opacity:1;stroke:none;stroke-width:0.30000001;stroke-linecap:butt;stroke-linejoin:round;stroke-miterlimit:4;stroke-dasharray:none;stroke-dashoffset:0;stroke-opacity:1;paint-order:normal"
       id="path5295-8"
       cx="15.24"
       cy="46.200012"
       r="3.1297028"
       inkscape:label="KNOB" />
    <circle
       style="display:inline;opacity:1;fill:#ff0000;fill-opacity:1;stroke:none;stroke-width:0.30000001;stroke-linecap:butt;stroke-linejoin:round;stroke-miterlimit:4;stroke-dasharray:none;stroke-dashoffset:0;stroke-opacity:1;paint-order:normal"
       id="path5295-9"
       cx="15.24"
       cy="67.700012"
       r="3.1297028"
       inkscape:label="KNOB" />
    <circle
       style="display:inline;opacity:1;fill:#ff0000;fill-opacity:1;stroke:none;stroke-width:0.30000001;stroke-linecap:butt;stroke-linejoin:round;stroke-miterlimit:4;stroke-dasharray:none;stroke-dashoffset:0;stroke-opacity:1;paint-order:normal"
       id="path5295-0"
       cx="15.24"
       cy="89.20002"
       r="3.1297028"
       inkscape:label="KNOB" />
    <circle
       style="display:inline;opacity:1;fill:#ff0000;fill-opacity:1;stroke:none;stroke-width:0.30000001;stroke-linecap:butt;stroke-linejoin:round;stroke-miterlimit:4;stroke-dasharray:none;stroke-dashoffset:0;stroke-opacity:1;paint-order:normal"
       id="path5295-81"
       cx="15.24"
       cy="110.70002"
       r="3.1297028"
       inkscape:label="KNOB" />
  </g>
</svg>
