<?xml version="1.0" encoding="UTF-8" standalone="no"?>
<!-- Created with Inkscape (http://www.inkscape.org/) -->

<svg
   xmlns:dc="http://purl.org/dc/elements/1.1/"
   xmlns:cc="http://creativecommons.org/ns#"
   xmlns:rdf="http://www.w3.org/1999/02/22-rdf-syntax-ns#"
   xmlns:svg="http://www.w3.org/2000/svg"
   xmlns="http://www.w3.org/2000/svg"
   xmlns:sodipodi="http://sodipodi.sourceforge.net/DTD/sodipodi-0.dtd"
   xmlns:inkscape="http://www.inkscape.org/namespaces/inkscape"
   width="10.16mm"
   height="128.5mm"
   viewBox="0 0 10.16 128.49999"
   version="1.1"
   id="svg8"
   inkscape:version="0.92.1 r15371"
   sodipodi:docname="Stripmix.svg">
  <defs
     id="defs2">
    <inkscape:path-effect
       effect="bspline"
       id="path-effect9253"
       is_visible="true"
       weight="33.333333"
       steps="2"
       helper_size="0"
       apply_no_weight="true"
       apply_with_weight="true"
       only_selected="false" />
    <inkscape:path-effect
       effect="bspline"
       id="path-effect9249"
       is_visible="true"
       weight="33.333333"
       steps="2"
       helper_size="0"
       apply_no_weight="true"
       apply_with_weight="true"
       only_selected="false" />
    <inkscape:path-effect
       effect="bspline"
       id="path-effect9188"
       is_visible="true"
       weight="33.333333"
       steps="2"
       helper_size="0"
       apply_no_weight="true"
       apply_with_weight="true"
       only_selected="false" />
    <inkscape:path-effect
       effect="bspline"
       id="path-effect9174"
       is_visible="true"
       weight="33.333333"
       steps="2"
       helper_size="0"
       apply_no_weight="true"
       apply_with_weight="true"
       only_selected="false" />
    <inkscape:path-effect
       effect="simplify"
       id="path-effect5498"
       is_visible="true"
       steps="1"
       threshold="0.000408163"
       smooth_angles="360"
       helper_size="0"
       simplify_individual_paths="false"
       simplify_just_coalesce="false"
       simplifyindividualpaths="false"
       simplifyJustCoalesce="false" />
    <inkscape:path-effect
       effect="simplify"
       id="path-effect5494"
       is_visible="true"
       steps="1"
       threshold="0.000408163"
       smooth_angles="360"
       helper_size="0"
       simplify_individual_paths="false"
       simplify_just_coalesce="false"
       simplifyindividualpaths="false"
       simplifyJustCoalesce="false" />
    <inkscape:path-effect
       effect="bspline"
       id="path-effect9188-6"
       is_visible="true"
       weight="33.333333"
       steps="2"
       helper_size="0"
       apply_no_weight="true"
       apply_with_weight="true"
       only_selected="false" />
    <inkscape:path-effect
       effect="bspline"
       id="path-effect9188-6-5"
       is_visible="true"
       weight="33.333333"
       steps="2"
       helper_size="0"
       apply_no_weight="true"
       apply_with_weight="true"
       only_selected="false" />
    <inkscape:path-effect
       effect="bspline"
       id="path-effect9188-6-5-1"
       is_visible="true"
       weight="33.333333"
       steps="2"
       helper_size="0"
       apply_no_weight="true"
       apply_with_weight="true"
       only_selected="false" />
    <inkscape:path-effect
       effect="bspline"
       id="path-effect9188-6-5-9"
       is_visible="true"
       weight="33.333333"
       steps="2"
       helper_size="0"
       apply_no_weight="true"
       apply_with_weight="true"
       only_selected="false" />
  </defs>
  <sodipodi:namedview
     id="base"
     pagecolor="#262626"
     bordercolor="#666666"
     borderopacity="1.0"
     inkscape:pageopacity="0"
     inkscape:pageshadow="2"
     inkscape:zoom="16.000001"
     inkscape:cx="9.7827153"
     inkscape:cy="169.28749"
     inkscape:document-units="mm"
     inkscape:current-layer="layer1"
     showgrid="false"
     inkscape:window-width="1857"
     inkscape:window-height="1057"
     inkscape:window-x="-8"
     inkscape:window-y="-8"
     inkscape:window-maximized="1"
     showguides="true"
     inkscape:snap-grids="false"
     inkscape:guide-bbox="true"
     inkscape:snap-bbox="true"
     inkscape:bbox-paths="true"
     inkscape:snap-bbox-edge-midpoints="true"
     inkscape:bbox-nodes="true"
     inkscape:snap-bbox-midpoints="true"
     inkscape:lockguides="false"
     units="mm"
     width="20.32mm">
    <inkscape:grid
       type="xygrid"
       id="grid31" />
    <sodipodi:guide
       position="0.99999995,101.81734"
       orientation="1,0"
       id="guide4972"
       inkscape:locked="false"
       inkscape:label=""
       inkscape:color="rgb(0,0,255)" />
    <sodipodi:guide
       position="10.16,109.7202"
       orientation="0,1"
       id="guide7786"
       inkscape:locked="false"
       inkscape:label=""
       inkscape:color="rgb(0,0,255)" />
    <sodipodi:guide
       position="18.869303,13"
       orientation="0,1"
       id="guide7930"
       inkscape:locked="false"
       inkscape:label=""
       inkscape:color="rgb(0,0,255)" />
    <sodipodi:guide
       position="12.027128,116"
       orientation="0,1"
       id="guide7992"
       inkscape:locked="false" />
    <sodipodi:guide
       position="0,0"
       orientation="0,76.799999"
       id="guide5248"
       inkscape:locked="false" />
    <sodipodi:guide
       position="20.319999,128.49999"
       orientation="0,-76.799999"
       id="guide5252"
       inkscape:locked="false" />
    <sodipodi:guide
       position="0,128.49999"
       orientation="485.66929,0"
       id="guide5254"
       inkscape:locked="false" />
    <sodipodi:guide
       position="-29.633333,116"
       orientation="0,1"
       id="guide5256"
       inkscape:locked="false" />
    <sodipodi:guide
       position="9.8210023,5.0499697"
       orientation="0,1"
       id="guide5258"
       inkscape:locked="false" />
    <sodipodi:guide
       position="1531.9999,103.08585"
       orientation="1,0"
       id="guide5262"
       inkscape:locked="false"
       inkscape:label=""
       inkscape:color="rgb(0,0,255)" />
    <sodipodi:guide
       position="0,0"
       orientation="0,115.2"
       id="guide4605"
       inkscape:locked="false" />
    <sodipodi:guide
       position="30.479999,128.5"
       orientation="0,-115.2"
       id="guide4609"
       inkscape:locked="false" />
    <sodipodi:guide
       position="0,128.5"
       orientation="485.66929,0"
       id="guide4611"
       inkscape:locked="false" />
    <sodipodi:guide
       position="10.16,78.297454"
       orientation="1,0"
       id="guide5647"
       inkscape:locked="false"
       inkscape:label=""
       inkscape:color="rgb(0,0,255)" />
    <sodipodi:guide
       position="12.815574,12"
       orientation="0,1"
       id="guide5649"
       inkscape:locked="false"
       inkscape:label=""
       inkscape:color="rgb(0,0,255)" />
    <sodipodi:guide
       position="25.036199,115"
       orientation="0,1"
       id="guide6997"
       inkscape:locked="false"
       inkscape:label=""
       inkscape:color="rgb(0,0,255)" />
    <sodipodi:guide
       position="2,111.65416"
       orientation="1,0"
       id="guide7005"
       inkscape:locked="false"
       inkscape:label=""
       inkscape:color="rgb(0,0,255)" />
    <sodipodi:guide
       position="6.0000002,107"
       orientation="0,1"
       id="guide8379"
       inkscape:locked="false" />
    <sodipodi:guide
       position="11.599498,35"
       orientation="0,1"
       id="guide8991"
       inkscape:locked="false"
       inkscape:label=""
       inkscape:color="rgb(0,0,255)" />
    <sodipodi:guide
       position="6.2507813,37"
       orientation="0,1"
       id="guide8999"
       inkscape:locked="false"
       inkscape:label=""
       inkscape:color="rgb(0,0,255)" />
    <sodipodi:guide
       position="12.633855,38"
       orientation="0,1"
       id="guide9005"
       inkscape:locked="false"
       inkscape:label="8514oem"
       inkscape:color="rgb(0,0,255)" />
    <sodipodi:guide
       position="15.240001,55.999997"
       orientation="0,1"
       id="guide9022"
       inkscape:locked="false" />
    <sodipodi:guide
       position="17.866969,57.999999"
       orientation="0,1"
       id="guide9024"
       inkscape:locked="false"
       inkscape:label=""
       inkscape:color="rgb(0,0,255)" />
    <sodipodi:guide
       position="18.428235,58.999999"
       orientation="0,1"
       id="guide9026"
       inkscape:locked="false"
       inkscape:label=""
       inkscape:color="rgb(0,0,255)" />
    <sodipodi:guide
       position="2.7490887,48.910659"
       orientation="0,1"
       id="guide9114"
       inkscape:locked="false" />
    <sodipodi:guide
       position="2.7523171,47.089965"
       orientation="0,1"
       id="guide9116"
       inkscape:locked="false" />
    <sodipodi:guide
       position="12.352999,120"
       orientation="0,1"
       id="guide9158"
       inkscape:locked="false"
       inkscape:label=""
       inkscape:color="rgb(0,0,255)" />
    <sodipodi:guide
       position="10.16,103"
       orientation="0,1"
       id="guide9164"
       inkscape:locked="false"
       inkscape:label=""
       inkscape:color="rgb(0,0,255)" />
    <sodipodi:guide
       position="10.16,64"
       orientation="0,1"
       id="guide9166"
       inkscape:locked="false"
       inkscape:label=""
       inkscape:color="rgb(0,0,255)" />
    <sodipodi:guide
       position="5.08,89.666665"
       orientation="1,0"
       id="guide9168"
       inkscape:locked="false"
       inkscape:label=""
       inkscape:color="rgb(0,0,255)" />
    <sodipodi:guide
       position="10.16,90"
       orientation="0,1"
       id="guide9176"
       inkscape:locked="false"
       inkscape:label=""
       inkscape:color="rgb(0,0,255)" />
    <sodipodi:guide
       position="10.16,767"
       orientation="0,1"
       id="guide9178"
       inkscape:locked="false"
       inkscape:label=""
       inkscape:color="rgb(0,0,255)" />
    <sodipodi:guide
       position="10.16,77"
       orientation="0,1"
       id="guide9180"
       inkscape:locked="false"
       inkscape:label=""
       inkscape:color="rgb(0,0,255)" />
    <sodipodi:guide
       position="10.16,59.999999"
       orientation="0,1"
       id="guide9261"
       inkscape:locked="false" />
    <sodipodi:guide
       position="-82.038387,109.72019"
       orientation="1,0"
       id="guide9308"
       inkscape:locked="false" />
    <sodipodi:guide
       position="9.16,92.88952"
       orientation="1,0"
       id="guide9310"
       inkscape:locked="false"
       inkscape:label=""
       inkscape:color="rgb(0,0,255)" />
    <sodipodi:guide
       position="8.16,93.263697"
       orientation="1,0"
       id="guide9312"
       inkscape:locked="false"
       inkscape:label=""
       inkscape:color="rgb(0,0,255)" />
    <sodipodi:guide
       position="2.6021681,44.378586"
       orientation="0,1"
       id="guide7890"
       inkscape:locked="false" />
    <sodipodi:guide
       position="2.604749,41.395744"
       orientation="0,1"
       id="guide7892"
       inkscape:locked="false" />
    <sodipodi:guide
       position="5.7291035,45.299111"
       orientation="1,0"
       id="guide7894"
       inkscape:locked="false" />
    <sodipodi:guide
       position="6.9924391,48.374109"
       orientation="1,0"
       id="guide10326"
       inkscape:locked="false" />
    <sodipodi:guide
       position="6.2646631,44.516387"
       orientation="1,0"
       id="guide10328"
       inkscape:locked="false" />
    <sodipodi:guide
       position="7.720216,44.516387"
       orientation="1,0"
       id="guide10330"
       inkscape:locked="false" />
  </sodipodi:namedview>
  <metadata
     id="metadata5">
    <rdf:RDF>
      <cc:Work
         rdf:about="">
        <dc:format>image/svg+xml</dc:format>
        <dc:type
           rdf:resource="http://purl.org/dc/dcmitype/StillImage" />
        <dc:title />
      </cc:Work>
    </rdf:RDF>
  </metadata>
  <g
     inkscape:label="panel"
     inkscape:groupmode="layer"
     id="layer1"
     transform="translate(0,-168.50001)"
     style="display:inline">
    <rect
       style="opacity:1;fill:#e6e6e6;stroke-width:0.26458332"
       id="rect39"
       width="10.16"
       height="128.5"
       x="-2.7755574e-018"
       y="168.5" />
    <text
       xml:space="preserve"
       style="font-style:normal;font-weight:normal;font-size:6.04887819px;line-height:1.25;font-family:sans-serif;letter-spacing:0px;word-spacing:0px;fill:#000000;fill-opacity:1;stroke:none;stroke-width:0.26458332"
       x="7.5287504"
       y="217.10225"
       id="text3713"
       transform="scale(1.2247449,0.81649658)"><tspan
         sodipodi:role="line"
         id="tspan3711"
         x="7.5287504"
         y="222.62082"
         style="stroke-width:0.26458332" /></text>
    <g
       aria-label="a"
       style="font-style:normal;font-variant:normal;font-weight:normal;font-stretch:normal;font-size:14.11111069px;line-height:1.25;font-family:'Opus Special Extra Std';-inkscape-font-specification:'Opus Special Extra Std';letter-spacing:0px;word-spacing:0px;fill:#ffcc00;fill-opacity:1;stroke:none;stroke-width:0.21603137"
       id="text3719"
       transform="scale(1.5,1)" />
    <rect
       style="opacity:1;fill:#333333;fill-opacity:1;stroke:none;stroke-width:0.26499999;stroke-miterlimit:4;stroke-dasharray:none;stroke-dashoffset:0;stroke-opacity:1"
       id="rect3797"
       width="10.16"
       height="10"
       x="-2.7755578e-018"
       y="168.5" />
    <rect
       style="display:inline;opacity:1;fill:#333333;fill-opacity:1;stroke-width:0.26458332"
       id="rect3797-4"
       width="10.16"
       height="10"
       x="0"
       y="287" />
    <text
       xml:space="preserve"
       style="font-style:normal;font-variant:normal;font-weight:normal;font-stretch:normal;font-size:6.04887819px;line-height:1.25;font-family:'ornaments labels and frames';-inkscape-font-specification:'ornaments labels and frames, Normal';font-variant-ligatures:normal;font-variant-caps:normal;font-variant-numeric:normal;text-align:center;letter-spacing:0px;word-spacing:0px;writing-mode:lr-tb;text-anchor:middle;display:inline;fill:#000000;fill-opacity:1;stroke:none;stroke-width:0.26458332"
       x="36.825417"
       y="240.67012"
       id="text3786"
       transform="scale(1.2247449,0.81649658)"><tspan
         sodipodi:role="line"
         id="tspan3784"
         x="36.825417"
         y="246.13019"
         style="stroke-width:0.26458332" /></text>
    <rect
       style="display:inline;opacity:0.98000004;fill:#f2f2f2;fill-opacity:1;stroke:none;stroke-width:0.26499999;stroke-miterlimit:4;stroke-dasharray:none;stroke-dashoffset:0;stroke-opacity:0.94779142"
       id="rect5407-1-1-9-3-8-0"
       width="8.1599998"
       height="18.00001"
       x="1.0000005"
       y="241"
       rx="1.0000006"
       ry="1.0000007" />
    <rect
       style="display:inline;opacity:0.98000004;fill:#f2f2f2;fill-opacity:1;stroke:none;stroke-width:0.26499999;stroke-miterlimit:4;stroke-dasharray:none;stroke-dashoffset:0;stroke-opacity:0.94779142"
       id="rect5407-1-1-9-3-8"
       width="8.1599998"
       height="58"
       x="1"
       y="181.00003"
       rx="1.0000006"
       ry="1.0000007" />
    <rect
       style="display:inline;opacity:0.98000004;fill:#666666;fill-opacity:1;stroke:none;stroke-width:0.26499999;stroke-miterlimit:4;stroke-dasharray:none;stroke-dashoffset:0;stroke-opacity:0.94779142"
       id="rect5407-1-1-9-3-8-1"
       width="8.1599998"
       height="24.999996"
       x="1"
       y="260"
       rx="1.0000006"
       ry="1.0000007" />
  </g>
  <g
     inkscape:groupmode="layer"
     id="layer4"
     inkscape:label="labels 12"
     style="display:inline;opacity:1">
    <g
       aria-label="out"
       style="font-style:normal;font-variant:normal;font-weight:normal;font-stretch:normal;font-size:3.52777767px;line-height:1.25;font-family:Steagisler;-inkscape-font-specification:Steagisler;font-variant-ligatures:normal;font-variant-caps:normal;font-variant-numeric:normal;font-feature-settings:normal;text-align:center;letter-spacing:0px;word-spacing:0px;writing-mode:lr-tb;text-anchor:middle;display:inline;fill:#f2f2f2;fill-opacity:1;stroke:none;stroke-width:0.26458332"
       id="text7047">
      <path
         d="m 2.8036534,114.12713 q 0,-0.28422 0.2153185,-0.45303 0.198093,-0.15675 0.4892035,-0.15675 0.2928331,0 0.4909261,0.15675 0.2153185,0.16881 0.2153185,0.45303 v 0.76309 q 0,0.28422 -0.2153185,0.45475 Q 3.8010085,115.5 3.5081754,115.5 q -0.2911105,0 -0.4892035,-0.15503 -0.2153185,-0.17053 -0.2153185,-0.45475 z m 1.0145806,0.0155 q 0,-0.12575 -0.09474,-0.20154 -0.08785,-0.0689 -0.2153185,-0.0689 -0.1274685,0 -0.2153184,0.0689 -0.093018,0.0758 -0.093018,0.20154 v 0.73381 q 0,0.12402 0.093018,0.19981 0.08785,0.0706 0.2153184,0.0706 0.1274685,0 0.2153185,-0.0706 0.09474,-0.0758 0.09474,-0.19981 z"
         style="fill:#f2f2f2;fill-opacity:1;stroke-width:0.26458332"
         id="path9439"
         inkscape:connector-curvature="0" />
      <path
         d="m 5.6630826,115.32774 q -0.00345,-0.0121 -0.015503,-0.0138 -0.00345,-0.002 -0.00689,-0.002 -0.00689,0 -0.012058,0.007 Q 5.4701572,115.5 5.1704339,115.5 q -0.2842203,0 -0.4409722,-0.16192 -0.1550293,-0.16192 -0.1550293,-0.44786 v -1.33326 h 0.396186 v 1.31775 q 0,0.12575 0.093018,0.20154 0.08785,0.0706 0.2153184,0.0706 0.1291911,0 0.2153185,-0.0706 0.09474,-0.0758 0.09474,-0.20154 v -1.31775 h 0.396186 v 1.89481 H 5.6940884 Z"
         style="fill:#f2f2f2;fill-opacity:1;stroke-width:0.26458332"
         id="path9441"
         inkscape:connector-curvature="0" />
      <path
         d="m 6.3245408,113.55696 h 0.2273763 q 0.020671,0 0.020671,-0.0207 v -0.49609 H 6.968774 v 0.49609 q 0,0.0207 0.020671,0.0207 h 0.3669027 v 0.30145 H 6.9894442 q -0.020671,0 -0.020671,0.0207 v 1.03008 q 0.012058,0.25839 0.1929254,0.25839 0.086127,0 0.1946479,-0.0207 v 0.30489 Q 7.2237107,115.5 7.089352,115.5 6.586368,115.498 6.5725877,114.94189 v -1.06281 q 0,-0.0207 -0.020671,-0.0207 H 6.3245408 Z"
         style="fill:#f2f2f2;fill-opacity:1;stroke-width:0.26458332"
         id="path9443"
         inkscape:connector-curvature="0" />
    </g>
    <g
       aria-label="ads."
       style="font-style:normal;font-variant:normal;font-weight:normal;font-stretch:normal;font-size:3.52777767px;line-height:0.80000001;font-family:Steagisler;-inkscape-font-specification:Steagisler;font-variant-ligatures:normal;font-variant-caps:normal;font-variant-numeric:normal;font-feature-settings:normal;text-align:center;letter-spacing:0px;word-spacing:0px;writing-mode:lr-tb;text-anchor:middle;fill:#f2f2f2;fill-opacity:1;stroke:none;stroke-width:0.26458332"
       id="text9331"
       transform="translate(0,114.77135)">
      <path
         d="M 3.6761236,8.677968 H 3.2696023 Q 3.2489313,8.631459 3.2351513,8.581505 3.2317013,8.569447 3.2196483,8.566002 q -0.00345,-0.00172 -0.00517,-0.00172 -0.00689,0 -0.01378,0.00689 -0.1498617,0.1550293 -0.4220242,0.1550293 -0.578776,0 -0.578776,-0.5684408 0,-0.3410644 0.3479546,-0.4702555 0.1653646,-0.062012 0.3410645,-0.062012 0.1464165,0 0.3014458,0.043064 0.00345,0.00172 0.00517,0.00172 0.00689,0 0.012058,-0.00517 0.00861,-0.00517 0.00861,-0.015503 V 7.3688318 q 0,-0.125746 -0.09474,-0.2015381 -0.08785,-0.068902 -0.2153185,-0.068902 -0.1274685,0 -0.2153184,0.068902 -0.09474,0.075792 -0.09474,0.2015381 v 0.041341 H 2.2205708 v -0.056844 q 0,-0.2842204 0.2101508,-0.4530301 Q 2.6253695,6.743547 2.91648,6.743547 q 0.2911106,0 0.4857585,0.1567518 0.2084282,0.1688097 0.2084282,0.4530301 V 8.407528 q 0,0.1240235 0.065457,0.27044 z M 3.2162033,7.9579431 q 0,-0.01378 -0.01378,-0.018948 -0.1205783,-0.043064 -0.2446017,-0.043064 -0.062012,0 -0.125746,0.010335 -0.235989,0.039619 -0.235989,0.2377115 0,0.2290989 0.3100585,0.2290989 0.1274686,0 0.2153185,-0.068902 0.09474,-0.075792 0.09474,-0.1998156 z"
         style="fill:#f2f2f2;fill-opacity:1;stroke-width:0.26458332"
         id="path9421"
         inkscape:connector-curvature="0" />
      <path
         d="M 5.5071917,8.677968 H 5.102393 Q 5.08,8.633182 5.067942,8.583228 5.064492,8.572893 5.052439,8.569448 q -0.00345,-0.00172 -0.00517,-0.00172 -0.00689,0 -0.01378,0.00689 -0.1515842,0.1515842 -0.4220242,0.1515842 -0.2824978,0 -0.434082,-0.1636421 Q 4.0326909,8.4040829 4.0326909,8.1164175 V 7.3533289 q 0,-0.285943 0.1550293,-0.4461399 0.1567518,-0.163642 0.4409722,-0.163642 0.2342665,0 0.3858507,0.1136881 0.00517,0.00517 0.012058,0.00517 0.00345,0 0.00861,-0.00345 0.012058,-0.00517 0.012058,-0.017226 V 6.0373024 h 0.396186 V 8.407528 q 0,0.1240235 0.063734,0.27044 z M 5.0472715,7.3688318 q 0,-0.125746 -0.09474,-0.2015381 -0.086127,-0.068902 -0.2153185,-0.068902 -0.1274685,0 -0.2153184,0.068902 -0.093018,0.075792 -0.093018,0.2015381 v 0.7338053 q 0,0.1240234 0.093018,0.1998155 0.08785,0.070624 0.2153184,0.070624 0.1291911,0 0.2153185,-0.070624 0.09474,-0.075792 0.09474,-0.1998155 z"
         style="fill:#f2f2f2;fill-opacity:1;stroke-width:0.26458332"
         id="path9423"
         inkscape:connector-curvature="0" />
      <path
         d="m 6.2082686,8.1198626 q 0,0.1205783 0.093018,0.1894802 0.084405,0.063734 0.2084283,0.063734 0.1240234,0 0.2084283,-0.063734 0.093018,-0.068902 0.093018,-0.1894802 0,-0.125746 -0.1550293,-0.1722548 Q 6.5148821,7.9062667 6.3219568,7.8700932 6.0790776,7.8115265 5.9550541,7.6668325 5.8327532,7.520416 5.8327532,7.3068201 q 0,-0.27044 0.2084283,-0.4237468 0.1877577,-0.1378038 0.468533,-0.1378038 0.2807753,0 0.468533,0.1378038 0.2084282,0.1533068 0.2084282,0.4237468 V 7.4084504 H 6.8111603 v -0.060289 q 0,-0.1188558 -0.08785,-0.1877577 -0.079237,-0.063734 -0.2032606,-0.063734 -0.1223009,0 -0.2032607,0.063734 -0.08785,0.068902 -0.08785,0.1877577 0,0.1274685 0.1550293,0.1688097 0.1963704,0.051676 0.3341743,0.075792 0.2256537,0.048231 0.3565673,0.1739773 0.1326362,0.1240234 0.1326362,0.3634576 0,0.3031684 -0.2153185,0.4581976 -0.1912028,0.1378039 -0.471978,0.1378039 -0.2807753,0 -0.4719781,-0.1378039 Q 5.8327532,8.4333663 5.8327532,8.1646488 V 8.0595734 h 0.3755154 z"
         style="fill:#f2f2f2;fill-opacity:1;stroke-width:0.26458332"
         id="path9425"
         inkscape:connector-curvature="0" />
      <path
         d="m 7.7533937,8.224938 q 0.1050754,0 0.1791449,0.07407 0.072347,0.07407 0.072347,0.1774224 0,0.1033529 -0.072347,0.1774225 -0.07407,0.07407 -0.1791449,0.07407 -0.1033529,0 -0.1774224,-0.07407 -0.072347,-0.07407 -0.072347,-0.1774225 0,-0.1033528 0.072347,-0.1774224 0.07407,-0.07407 0.1774224,-0.07407 z"
         style="fill:#f2f2f2;fill-opacity:1;stroke-width:0.26458332"
         id="path9427"
         inkscape:connector-curvature="0" />
    </g>
    <g
       aria-label="stmx"
       style="font-style:normal;font-variant:normal;font-weight:normal;font-stretch:normal;font-size:3.52777767px;line-height:0.80000001;font-family:Steagisler;-inkscape-font-specification:Steagisler;font-variant-ligatures:normal;font-variant-caps:normal;font-variant-numeric:normal;font-feature-settings:normal;text-align:center;letter-spacing:0px;word-spacing:0px;writing-mode:lr-tb;text-anchor:middle;fill:#f2f2f2;fill-opacity:1;stroke:none;stroke-width:0.26458332"
       id="text9335"
       transform="translate(0,-114.94902)">
      <path
         d="m 1.9466857,122.89192 q 0,0.12058 0.093017,0.18948 0.084405,0.0637 0.2084283,0.0637 0.1240235,0 0.2084283,-0.0637 0.093018,-0.0689 0.093018,-0.18948 0,-0.12574 -0.1550293,-0.17225 -0.1412489,-0.0413 -0.3341743,-0.0775 -0.2428792,-0.0586 -0.3669026,-0.20326 -0.1223009,-0.14641 -0.1223009,-0.36001 0,-0.27044 0.2084282,-0.42375 0.1877577,-0.1378 0.468533,-0.1378 0.2807753,0 0.468533,0.1378 0.2084283,0.15331 0.2084283,0.42375 v 0.10163 H 2.5495774 v -0.0603 q 0,-0.11886 -0.08785,-0.18776 -0.079237,-0.0637 -0.2032606,-0.0637 -0.1223009,0 -0.2032606,0.0637 -0.08785,0.0689 -0.08785,0.18776 0,0.12747 0.1550293,0.16881 0.1963705,0.0517 0.3341743,0.0758 0.2256537,0.0482 0.3565674,0.17398 0.1326361,0.12402 0.1326361,0.36346 0,0.30317 -0.2153184,0.45819 -0.1912028,0.13781 -0.4719781,0.13781 -0.2807753,0 -0.4719781,-0.13781 -0.2153184,-0.15502 -0.2153184,-0.42374 v -0.10508 h 0.3755154 z"
         style="fill:#f2f2f2;fill-opacity:1;stroke-width:0.26458332"
         id="path9430"
         inkscape:connector-curvature="0" />
      <path
         d="m 3.1817524,121.55523 h 0.2273763 q 0.020671,0 0.020671,-0.0207 v -0.49609 h 0.396186 v 0.49609 q 0,0.0207 0.020671,0.0207 h 0.3669026 v 0.30144 H 3.8466558 q -0.020671,0 -0.020671,0.0207 v 1.03008 q 0.012058,0.25839 0.1929253,0.25839 0.086127,0 0.1946479,-0.0207 v 0.30489 q -0.1326361,0.0482 -0.2669949,0.0482 -0.5029839,-0.002 -0.5167643,-0.55811 v -1.06281 q 0,-0.0207 -0.020671,-0.0207 H 3.1817524 Z"
         style="fill:#f2f2f2;fill-opacity:1;stroke-width:0.26458332"
         id="path9432"
         inkscape:connector-curvature="0" />
      <path
         d="m 4.9318608,121.68097 q 0.00345,0.0155 0.020671,0.0155 0.00689,0 0.01378,-0.007 0.1515842,-0.17397 0.4409722,-0.17397 0.3238389,0 0.471978,0.21359 0.00689,0.009 0.017226,0.009 0.010335,0 0.017226,-0.009 0.1481391,-0.21359 0.4719781,-0.21359 0.2824978,0 0.4323594,0.16364 0.144694,0.15847 0.144694,0.44614 v 1.32464 H 6.5665586 v -1.30914 q 0,-0.12574 -0.084405,-0.19981 -0.079237,-0.0724 -0.2067057,-0.0724 -0.125746,0 -0.2067057,0.0724 -0.084405,0.0741 -0.084405,0.19981 v 1.30914 H 5.5881515 v -1.30914 q 0,-0.12574 -0.082682,-0.19981 -0.08096,-0.0724 -0.2084283,-0.0724 -0.125746,0 -0.2067057,0.0724 -0.082682,0.0741 -0.082682,0.19981 v 1.30914 h -0.396186 v -1.8948 h 0.289388 z"
         style="fill:#f2f2f2;fill-opacity:1;stroke-width:0.26458332"
         id="path9434"
         inkscape:connector-curvature="0" />
      <path
         d="m 8.0083311,122.22357 q 0.00517,0.0138 0.018948,0.0138 0.01378,0 0.018948,-0.0138 l 0.232544,-0.66834 h 0.4426947 l -0.45303,0.96807 0.45303,0.94223 H 8.2787711 l -0.232544,-0.64251 q -0.00517,-0.0121 -0.018948,-0.0121 -0.01378,0 -0.018948,0.0121 l -0.232544,0.64251 H 7.3348149 L 7.787845,122.5233 7.3348149,121.55523 h 0.4409722 z"
         style="fill:#f2f2f2;fill-opacity:1;stroke-width:0.26458332"
         id="path9436"
         inkscape:connector-curvature="0" />
    </g>
    <g
       aria-label="in"
       style="font-style:normal;font-variant:normal;font-weight:normal;font-stretch:normal;font-size:3.52777767px;line-height:0.80000001;font-family:Steagisler;-inkscape-font-specification:Steagisler;font-variant-ligatures:normal;font-variant-caps:normal;font-variant-numeric:normal;font-feature-settings:normal;text-align:center;letter-spacing:0px;word-spacing:0px;writing-mode:lr-tb;text-anchor:middle;fill:#696969;fill-opacity:1;stroke:none;stroke-width:0.26458332"
       id="text9339">
      <path
         d="m 4.1980555,16.139131 q 0.1050754,0 0.1774224,0.07235 0.07407,0.07407 0.07407,0.177422 0,0.105076 -0.07407,0.179145 -0.072347,0.07235 -0.1774224,0.07235 -0.1033529,0 -0.1774224,-0.07235 -0.07407,-0.07407 -0.07407,-0.179145 0,-0.103352 0.07407,-0.177422 0.074069,-0.07235 0.1774224,-0.07235 z m 0.198093,2.640666 h -0.396186 v -1.572686 q 0,-0.02067 -0.020671,-0.02067 H 3.7863666 v -0.301446 h 0.6097819 z"
         style="fill:#696969;fill-opacity:1;stroke-width:0.26458332"
         id="path9416"
         inkscape:connector-curvature="0" />
      <path
         d="m 5.2712028,17.01763 q 0.00345,0.0155 0.022393,0.0155 0.00861,0 0.015503,-0.0086 0.1567519,-0.179145 0.4547526,-0.179145 0.2842204,0 0.4409722,0.161919 0.1550293,0.16192 0.1550293,0.447862 v 1.32464 H 5.9636669 V 17.47066 q 0,-0.125746 -0.093018,-0.201538 -0.08785,-0.07062 -0.2153185,-0.07062 -0.1291911,0 -0.2153185,0.07062 -0.09474,0.07579 -0.09474,0.201538 v 1.309137 H 4.9490864 v -1.894803 h 0.2911105 z"
         style="fill:#696969;fill-opacity:1;stroke-width:0.26458332"
         id="path9418"
         inkscape:connector-curvature="0" />
    </g>
    <circle
       style="display:inline;opacity:1;fill:#9ad542;fill-opacity:1;stroke:#c2fd6a;stroke-width:0.30000001;stroke-linecap:butt;stroke-linejoin:round;stroke-miterlimit:4;stroke-dasharray:none;stroke-dashoffset:0;stroke-opacity:1;paint-order:normal"
       id="path9131"
       cx="2.6021681"
       cy="84.121414"
       r="0.75"
       inkscape:label="LED" />
    <circle
       style="display:inline;opacity:1;fill:#1a1a1a;fill-opacity:1;stroke:#333333;stroke-width:0.30000001;stroke-linecap:butt;stroke-linejoin:round;stroke-miterlimit:4;stroke-dasharray:none;stroke-dashoffset:0;stroke-opacity:1;paint-order:normal"
       id="path9131-4"
       cx="2.604749"
       cy="87.104256"
       r="0.75"
       inkscape:label="LED" />
    <path
       style="fill:none;stroke:#f2f2f2;stroke-width:0.26458332px;stroke-linecap:butt;stroke-linejoin:miter;stroke-opacity:1"
       d="M 5.0799999,95.525621 V 108.38797"
       id="path7898"
       inkscape:connector-curvature="0" />
    <path
       inkscape:connector-curvature="0"
       id="path10316"
       style="font-style:normal;font-variant:normal;font-weight:normal;font-stretch:normal;font-size:medium;line-height:0.80000001;font-family:Steagisler;-inkscape-font-specification:Steagisler;font-variant-ligatures:normal;font-variant-caps:normal;font-variant-numeric:normal;font-feature-settings:normal;text-align:center;letter-spacing:0px;word-spacing:0px;writing-mode:lr-tb;text-anchor:middle;fill:#333333;fill-opacity:1;stroke:none;stroke-width:0.26458332"
       d="m 7.1954585,84.323171 v 0.86252 H 6.7919413 v -0.86252 H 5.9269018 v -0.403515 h 0.8650395 v -0.862518 h 0.4035172 v 0.862518 h 0.8625179 v 0.403516 z" />
    <path
       inkscape:connector-curvature="0"
       id="path10318"
       style="font-style:normal;font-variant:normal;font-weight:normal;font-stretch:normal;font-size:medium;line-height:0.80000001;font-family:Steagisler;-inkscape-font-specification:Steagisler;font-variant-ligatures:normal;font-variant-caps:normal;font-variant-numeric:normal;font-feature-settings:normal;text-align:center;letter-spacing:0px;word-spacing:0px;writing-mode:lr-tb;text-anchor:middle;fill:#333333;fill-opacity:1;stroke:none;stroke-width:0.26458332"
       d="m 8.0579773,86.901237 v 0.406038 H 5.9269009 v -0.406038 z" />
    <path
       inkscape:connector-curvature="0"
       id="path10320"
       style="font-style:normal;font-variant:normal;font-weight:normal;font-stretch:normal;font-size:medium;line-height:0.80000001;font-family:Steagisler;-inkscape-font-specification:Steagisler;font-variant-ligatures:normal;font-variant-caps:normal;font-variant-numeric:normal;font-feature-settings:normal;text-align:center;letter-spacing:0px;word-spacing:0px;writing-mode:lr-tb;text-anchor:middle;fill:#333333;fill-opacity:1;stroke:none;stroke-width:0.26458332"
       d="m 6.9924391,87.783929 q 0.1538408,0 0.2597641,0.108449 0.1084457,0.108449 0.1084457,0.259763 0,0.151319 -0.1084457,0.259765 -0.1059234,0.108449 -0.2597641,0.108449 -0.151319,0 -0.2597641,-0.108449 -0.1084457,-0.108449 -0.1084457,-0.259765 0,-0.151319 0.1084457,-0.259763 0.1084468,-0.108449 0.2597641,-0.108449 z m 0,-2.095767 q 0.1538408,0 0.2597641,0.108449 0.1084457,0.108449 0.1084457,0.259763 0,0.15384 -0.1084457,0.259763 -0.1059234,0.108449 -0.2597641,0.108449 -0.151319,0 -0.2597641,-0.108449 -0.1084457,-0.105941 -0.1084457,-0.259763 0,-0.151319 0.1084457,-0.259763 0.1084468,-0.108449 0.2597641,-0.108449 z" />
  </g>
  <g
     inkscape:groupmode="layer"
     id="layer2"
     inkscape:label="components"
     style="display:none;opacity:1"
     transform="translate(0,-1e-5)">
    <circle
       style="display:inline;opacity:1;fill:#00ff00;fill-opacity:1;stroke:none;stroke-width:0.39999998;stroke-linecap:butt;stroke-miterlimit:4;stroke-dasharray:none;stroke-dashoffset:0;stroke-opacity:1;paint-order:normal"
       id="path4623-25-6-3-8-7"
       cx="5.0799999"
       cy="25.500006"
       inkscape:label="IN"
       r="4" />
    <circle
       style="display:inline;opacity:1;fill:#0000ff;fill-opacity:1;stroke:none;stroke-width:0.39999998;stroke-linecap:butt;stroke-miterlimit:4;stroke-dasharray:none;stroke-dashoffset:0;stroke-opacity:1;paint-order:normal"
       id="path4623-2-0-2-3-0-1-3"
       cx="5.0799999"
       cy="105.50001"
       inkscape:label="OUT"
       r="4" />
    <circle
       style="display:inline;opacity:1;fill:#00ff00;fill-opacity:1;stroke:none;stroke-width:0.39999998;stroke-linecap:butt;stroke-miterlimit:4;stroke-dasharray:none;stroke-dashoffset:0;stroke-opacity:1;paint-order:normal"
       id="path4623-25-6-3-8-7-5"
       cx="5.0799999"
       cy="38.500011"
       inkscape:label="IN"
       r="4" />
    <circle
       style="display:inline;opacity:1;fill:#00ff00;fill-opacity:1;stroke:none;stroke-width:0.39999998;stroke-linecap:butt;stroke-miterlimit:4;stroke-dasharray:none;stroke-dashoffset:0;stroke-opacity:1;paint-order:normal"
       id="path4623-25-6-3-8-7-8"
       cx="5.0799999"
       cy="51.500011"
       inkscape:label="IN"
       r="4" />
    <circle
       style="display:inline;opacity:1;fill:#00ff00;fill-opacity:1;stroke:none;stroke-width:0.39999998;stroke-linecap:butt;stroke-miterlimit:4;stroke-dasharray:none;stroke-dashoffset:0;stroke-opacity:1;paint-order:normal"
       id="path4623-25-6-3-8-7-5-8"
       cx="5.0799999"
       cy="64.500008"
       inkscape:label="IN"
       r="4" />
    <circle
       style="display:inline;opacity:1;fill:#ff0000;fill-opacity:1;stroke:none;stroke-width:0.30000001;stroke-linecap:butt;stroke-linejoin:round;stroke-miterlimit:4;stroke-dasharray:none;stroke-dashoffset:0;stroke-opacity:1;paint-order:normal"
       id="path5295-9"
       cx="5.0799999"
       cy="75.45105"
       inkscape:label="MODE"
       r="2.0234375" />
    <circle
       style="display:inline;opacity:1;fill:#0000ff;fill-opacity:1;stroke:none;stroke-width:0.39999998;stroke-linecap:butt;stroke-miterlimit:4;stroke-dasharray:none;stroke-dashoffset:0;stroke-opacity:1;paint-order:normal"
       id="path4623-2-0-2-3-0-1-3-2"
       cx="5.0799999"
       cy="93.500008"
       inkscape:label="OUT"
       r="4" />
  </g>
</svg>
