<?xml version="1.0" encoding="UTF-8" standalone="no"?>
<!-- Created with Inkscape (http://www.inkscape.org/) -->

<svg
   xmlns:dc="http://purl.org/dc/elements/1.1/"
   xmlns:cc="http://creativecommons.org/ns#"
   xmlns:rdf="http://www.w3.org/1999/02/22-rdf-syntax-ns#"
   xmlns:svg="http://www.w3.org/2000/svg"
   xmlns="http://www.w3.org/2000/svg"
   xmlns:sodipodi="http://sodipodi.sourceforge.net/DTD/sodipodi-0.dtd"
   xmlns:inkscape="http://www.inkscape.org/namespaces/inkscape"
   width="50.799999mm"
   height="128.5mm"
   viewBox="0 0 50.799999 128.5"
   version="1.1"
   id="svg8"
   inkscape:version="0.92.1 r15371"
   sodipodi:docname="TriggerBurst.svg">
  <defs
     id="defs2">
    <inkscape:path-effect
       effect="simplify"
       id="path-effect5498"
       is_visible="true"
       steps="1"
       threshold="0.000408163"
       smooth_angles="360"
       helper_size="0"
       simplify_individual_paths="false"
       simplify_just_coalesce="false"
       simplifyindividualpaths="false"
       simplifyJustCoalesce="false" />
    <inkscape:path-effect
       effect="simplify"
       id="path-effect5494"
       is_visible="true"
       steps="1"
       threshold="0.000408163"
       smooth_angles="360"
       helper_size="0"
       simplify_individual_paths="false"
       simplify_just_coalesce="false"
       simplifyindividualpaths="false"
       simplifyJustCoalesce="false" />
  </defs>
  <sodipodi:namedview
     id="base"
     pagecolor="#262626"
     bordercolor="#666666"
     borderopacity="1.0"
     inkscape:pageopacity="0"
     inkscape:pageshadow="2"
     inkscape:zoom="3.959798"
     inkscape:cx="71.871662"
     inkscape:cy="386.28964"
     inkscape:document-units="mm"
     inkscape:current-layer="layer1"
     showgrid="false"
     inkscape:window-width="1827"
     inkscape:window-height="1057"
     inkscape:window-x="-8"
     inkscape:window-y="-8"
     inkscape:window-maximized="1"
     showguides="true"
     inkscape:snap-grids="false"
     inkscape:guide-bbox="true"
     inkscape:snap-bbox="true"
     inkscape:bbox-paths="true"
     inkscape:snap-bbox-edge-midpoints="true"
     inkscape:bbox-nodes="true"
     inkscape:snap-bbox-midpoints="true">
    <inkscape:grid
       type="xygrid"
       id="grid31" />
    <sodipodi:guide
       position="25.4,96.100448"
       orientation="1,0"
       id="guide4967"
       inkscape:locked="false"
       inkscape:label=""
       inkscape:color="rgb(0,0,255)" />
    <sodipodi:guide
       position="3,101.81734"
       orientation="1,0"
       id="guide4972"
       inkscape:locked="false"
       inkscape:label=""
       inkscape:color="rgb(0,0,255)" />
    <sodipodi:guide
       position="47.8,94.588544"
       orientation="1,0"
       id="guide4974"
       inkscape:locked="false"
       inkscape:label=""
       inkscape:color="rgb(0,0,255)" />
    <sodipodi:guide
       position="42.562671,86.461694"
       orientation="1,0"
       id="guide5747"
       inkscape:locked="false" />
    <sodipodi:guide
       position="4.4762236,112.77362"
       orientation="0,1"
       id="guide6061"
       inkscape:locked="false" />
    <sodipodi:guide
       position="15.063864,118.11733"
       orientation="0,1"
       id="guide6114"
       inkscape:locked="false" />
  </sodipodi:namedview>
  <metadata
     id="metadata5">
    <rdf:RDF>
      <cc:Work
         rdf:about="">
        <dc:format>image/svg+xml</dc:format>
        <dc:type
           rdf:resource="http://purl.org/dc/dcmitype/StillImage" />
        <dc:title />
      </cc:Work>
    </rdf:RDF>
  </metadata>
  <g
     inkscape:label="panel"
     inkscape:groupmode="layer"
     id="layer1"
     transform="translate(0,-168.5)"
     style="display:inline">
    <rect
       style="opacity:1;fill:#e6e6e6;stroke-width:0.26458332"
       id="rect39"
       width="50.799999"
       height="128.5"
       x="-1.3877788e-017"
       y="168.5" />
    <text
       xml:space="preserve"
       style="font-style:normal;font-weight:normal;font-size:4.93888855px;line-height:1.25;font-family:sans-serif;letter-spacing:0px;word-spacing:0px;fill:#000000;fill-opacity:1;stroke:none;stroke-width:0.26458332"
       x="6.1471992"
       y="177.26324"
       id="text3713"><tspan
         sodipodi:role="line"
         id="tspan3711"
         x="6.1471992"
         y="181.76915"
         style="stroke-width:0.26458332" /></text>
    <g
       aria-label="a"
       style="font-style:normal;font-variant:normal;font-weight:normal;font-stretch:normal;font-size:14.11111069px;line-height:1.25;font-family:'Opus Special Extra Std';-inkscape-font-specification:'Opus Special Extra Std';letter-spacing:0px;word-spacing:0px;fill:#ffcc00;fill-opacity:1;stroke:none;stroke-width:0.26458332"
       id="text3719" />
    <rect
       style="opacity:1;fill:#666666;stroke:none;stroke-width:0.26499999;stroke-miterlimit:4;stroke-dasharray:none;stroke-dashoffset:0;stroke-opacity:1"
       id="rect3797"
       width="50.799999"
       height="20"
       x="6.8624524e-016"
       y="168.5" />
    <rect
       style="display:inline;opacity:1;fill:#666666;stroke-width:0.26458332"
       id="rect3797-4"
       width="50.799999"
       height="25"
       x="0"
       y="272" />
    <rect
       style="opacity:0.98000004;fill:#f2f2f2;fill-opacity:1;stroke:none;stroke-width:0.26499999;stroke-miterlimit:4;stroke-dasharray:none;stroke-dashoffset:0;stroke-opacity:0.94779142"
       id="rect5407"
       width="44.799271"
       height="24.68675"
       x="3.0003788"
       y="194.69406"
       rx="1.0000006"
       ry="1.0000006" />
    <rect
       style="display:inline;opacity:0.98000004;fill:#f2f2f2;fill-opacity:1;stroke:none;stroke-width:0.26499999;stroke-miterlimit:4;stroke-dasharray:none;stroke-dashoffset:0;stroke-opacity:0.94779142"
       id="rect5407-1"
       width="44.799274"
       height="24.68675"
       x="3.0007269"
       y="242.70126"
       rx="1.0000006"
       ry="1.0000006" />
    <text
       xml:space="preserve"
       style="font-style:normal;font-variant:normal;font-weight:normal;font-stretch:normal;font-size:4.93888855px;line-height:1.25;font-family:'ornaments labels and frames';-inkscape-font-specification:'ornaments labels and frames, Normal';font-variant-ligatures:normal;font-variant-caps:normal;font-variant-numeric:normal;text-align:center;letter-spacing:0px;word-spacing:0px;writing-mode:lr-tb;text-anchor:middle;display:inline;fill:#000000;fill-opacity:1;stroke:none;stroke-width:0.26458332"
       x="30.067825"
       y="196.50633"
       id="text3786"><tspan
         sodipodi:role="line"
         id="tspan3784"
         x="30.067825"
         y="200.96446"
         style="stroke-width:0.26458332" /></text>
    <g
       aria-label="freq.1"
       style="font-style:normal;font-variant:normal;font-weight:normal;font-stretch:normal;font-size:3.52777767px;line-height:1.25;font-family:'Opus Special Extra Std';-inkscape-font-specification:'Opus Special Extra Std, Normal';font-variant-ligatures:normal;font-variant-caps:normal;font-variant-numeric:normal;font-feature-settings:normal;text-align:center;letter-spacing:0px;word-spacing:0px;writing-mode:lr-tb;text-anchor:middle;display:inline;fill:#666666;fill-opacity:1;stroke:none;stroke-width:0.26458332"
       id="text3820"
       transform="translate(5.291667,173.79134)">
      <path
         d="M 3.185974,39.323864 H 2.8690252 q -0.020671,0 -0.020671,0.02067 V 40.91722 H 2.4521687 v -1.572686 q 0,-0.02067 -0.020671,-0.02067 H 2.2368502 v -0.301445 h 0.1946479 q 0.020671,0 0.020671,-0.02067 v -0.142971 q 0,-0.284221 0.2153184,-0.454753 0.198093,-0.155029 0.4909261,-0.155029 h 0.077515 v 0.353122 h -0.077515 q -0.129191,0 -0.2153184,0.07062 -0.09474,0.07579 -0.09474,0.199816 v 0.129191 q 0,0.02067 0.020671,0.02067 H 3.185974 Z"
         style="font-style:normal;font-variant:normal;font-weight:normal;font-stretch:normal;font-size:3.52777767px;font-family:Steagisler;-inkscape-font-specification:Steagisler;fill:#666666;stroke-width:0.26458332"
         id="path5248"
         inkscape:connector-curvature="0" />
      <path
         d="m 4.2694565,39.346258 q -0.070624,-0.01378 -0.1395263,-0.01723 -0.1291911,0 -0.1860352,0.0689 -0.072347,0.08441 -0.072347,0.210151 v 1.309136 H 3.475362 v -1.894802 h 0.2911106 l 0.031006,0.132636 q 0.00345,0.0155 0.018948,0.0155 0.01378,0 0.020671,-0.01206 0.015503,-0.02584 0.032728,-0.04823 0.096463,-0.122301 0.2618272,-0.127469 0.1171333,0.0017 0.1894803,0.03962 z"
         style="font-style:normal;font-variant:normal;font-weight:normal;font-stretch:normal;font-size:3.52777767px;font-family:Steagisler;-inkscape-font-specification:Steagisler;fill:#666666;stroke-width:0.26458332"
         id="path5250"
         inkscape:connector-curvature="0" />
      <path
         d="m 4.9567531,40.073173 q -0.020671,0 -0.020671,0.02067 v 0.248047 q 0,0.124024 0.09474,0.199816 0.086127,0.07062 0.2153184,0.07062 0.1291911,0 0.2239312,-0.0689 0.1050754,-0.07751 0.1050754,-0.201538 v -0.04134 h 0.3755154 v 0.05512 q 0,0.28422 -0.2153184,0.454752 -0.198093,0.155029 -0.4892036,0.155029 -0.2928331,0 -0.4909261,-0.155029 Q 4.539896,40.639888 4.539896,40.355668 v -0.763089 q 0,-0.28422 0.2153184,-0.45303 0.198093,-0.156752 0.4909261,-0.156752 0.289388,0 0.4805908,0.156752 0.2049832,0.16881 0.2049832,0.45303 v 0.480591 z m -0.020671,-0.296279 q 0,0.02067 0.020671,0.02067 h 0.5770535 q 0.020671,0 0.020671,-0.02067 v -0.168809 q 0,-0.125746 -0.093018,-0.201538 -0.08785,-0.0689 -0.2153185,-0.0689 -0.129191,0 -0.2153184,0.0689 -0.09474,0.07579 -0.09474,0.201538 z"
         style="font-style:normal;font-variant:normal;font-weight:normal;font-stretch:normal;font-size:3.52777767px;font-family:Steagisler;-inkscape-font-specification:Steagisler;fill:#666666;stroke-width:0.26458332"
         id="path5252"
         inkscape:connector-curvature="0" />
      <path
         d="m 7.3269786,41.67342 v -0.80443 q 0,-0.02067 -0.022393,-0.02067 -0.00517,0 -0.010335,0.0034 -0.1515842,0.113688 -0.3858507,0.113688 -0.2842204,0 -0.4409722,-0.161919 -0.1567518,-0.160197 -0.1567518,-0.447862 v -0.763089 q 0,-0.285943 0.1567518,-0.44614 0.1567518,-0.163642 0.4409722,-0.163642 0.2980008,0 0.4564752,0.180868 0.00689,0.0069 0.017225,0.0069 0.015503,0 0.018948,-0.0155 l 0.029283,-0.132636 H 7.721442 v 2.651001 z m 0,-2.065335 q 0,-0.125746 -0.09474,-0.201538 -0.08785,-0.0689 -0.2153185,-0.0689 -0.1274685,0 -0.2153184,0.0689 -0.09474,0.07579 -0.09474,0.201538 v 0.733805 q 0,0.124024 0.09474,0.199816 0.08785,0.07062 0.2153184,0.07062 0.1274686,0 0.2153185,-0.07062 0.09474,-0.07579 0.09474,-0.199816 z"
         style="font-style:normal;font-variant:normal;font-weight:normal;font-stretch:normal;font-size:3.52777767px;font-family:Steagisler;-inkscape-font-specification:Steagisler;fill:#666666;stroke-width:0.26458332"
         id="path5254"
         inkscape:connector-curvature="0" />
      <path
         d="m 8.3708428,40.464191 q 0.1050754,0 0.1791449,0.07407 0.072347,0.07407 0.072347,0.177422 0,0.103353 -0.072347,0.177422 -0.07407,0.07407 -0.1791449,0.07407 -0.1033529,0 -0.1774224,-0.07407 -0.072347,-0.07407 -0.072347,-0.177422 0,-0.103353 0.072347,-0.177422 0.074069,-0.07407 0.1774224,-0.07407 z"
         style="font-style:normal;font-variant:normal;font-weight:normal;font-stretch:normal;font-size:3.52777767px;font-family:Steagisler;-inkscape-font-specification:Steagisler;fill:#666666;stroke-width:0.26458332"
         id="path5256"
         inkscape:connector-curvature="0" />
      <path
         d="m 8.944451,40.932724 v -0.335897 h 0.2773302 q 0.020671,0 0.020671,-0.02067 v -1.927531 q 0,-0.01895 -0.020671,-0.01895 H 8.944451 v -0.246325 l 0.4771457,-0.0913 h 0.2204861 v 2.284099 q 0,0.02067 0.020671,0.02067 H 9.940084 v 0.335897 z"
         style="font-style:normal;font-variant:normal;font-weight:normal;font-stretch:normal;font-size:3.52777767px;font-family:Steagisler;-inkscape-font-specification:Steagisler;fill:#666666;stroke-width:0.26458332"
         id="path5258"
         inkscape:connector-curvature="0" />
    </g>
    <g
       aria-label="+cv.1"
       style="font-style:normal;font-variant:normal;font-weight:normal;font-stretch:normal;font-size:4.93888855px;line-height:1.25;font-family:Steagisler;-inkscape-font-specification:'Steagisler, Normal';font-variant-ligatures:normal;font-variant-caps:normal;font-variant-numeric:normal;font-feature-settings:normal;text-align:center;letter-spacing:0px;word-spacing:0px;writing-mode:lr-tb;text-anchor:middle;display:inline;fill:#666666;fill-opacity:1;stroke:none;stroke-width:0.26458332"
       id="text3842"
       transform="translate(4.233334,173.79134)">
      <path
         d="m 23.431346,40.067146 v 0.589111 h -0.275608 v -0.589111 h -0.590834 v -0.275608 h 0.590834 v -0.589111 h 0.275608 v 0.589111 h 0.589111 v 0.275608 z"
         style="font-size:3.52777767px;fill:#666666;stroke-width:0.26458332"
         id="path5237"
         inkscape:connector-curvature="0" />
      <path
         d="m 25.656877,40.687263 q 0,0.28422 -0.215318,0.454753 -0.198093,0.155029 -0.490926,0.155029 -0.291111,0 -0.489204,-0.155029 -0.215318,-0.170533 -0.215318,-0.454753 v -0.763089 q 0,-0.28422 0.215318,-0.45303 0.198093,-0.156751 0.489204,-0.156751 0.29111,0 0.480591,0.156751 0.204983,0.16881 0.204983,0.45303 v 0.05685 h -0.375516 v -0.04134 q 0,-0.125746 -0.09474,-0.201538 -0.08785,-0.0689 -0.215318,-0.0689 -0.127469,0 -0.215319,0.0689 -0.09474,0.07579 -0.09474,0.201538 v 0.733806 q 0,0.124023 0.09474,0.199815 0.08785,0.07062 0.215319,0.07062 0.129191,0 0.223931,-0.0689 0.105075,-0.07751 0.105075,-0.201538 v -0.04134 h 0.377238 z"
         style="font-size:3.52777767px;fill:#666666;stroke-width:0.26458332"
         id="path5239"
         inkscape:connector-curvature="0" />
      <path
         d="m 25.892866,39.354011 h 0.389296 l 0.310059,1.522732 q 0.0034,0.01723 0.01895,0.01723 0.01722,0 0.02067,-0.01723 L 26.9419,39.354011 h 0.389296 l -0.45303,1.910306 h -0.532268 z"
         style="font-size:3.52777767px;fill:#666666;stroke-width:0.26458332"
         id="path5241"
         inkscape:connector-curvature="0" />
      <path
         d="m 27.84279,40.795784 q 0.105076,0 0.179145,0.07407 0.07235,0.07407 0.07235,0.177423 0,0.103352 -0.07235,0.177422 -0.07407,0.07407 -0.179145,0.07407 -0.103353,0 -0.177422,-0.07407 -0.07235,-0.07407 -0.07235,-0.177422 0,-0.103353 0.07235,-0.177423 0.07407,-0.07407 0.177422,-0.07407 z"
         style="font-size:3.52777767px;fill:#666666;stroke-width:0.26458332"
         id="path5243"
         inkscape:connector-curvature="0" />
      <path
         d="M 28.416399,41.264317 V 40.92842 h 0.27733 q 0.02067,0 0.02067,-0.02067 v -1.927531 q 0,-0.01895 -0.02067,-0.01895 h -0.27733 v -0.246324 l 0.477145,-0.09129 h 0.220486 v 2.284098 q 0,0.02067 0.02067,0.02067 h 0.27733 v 0.335897 z"
         style="font-size:3.52777767px;fill:#666666;stroke-width:0.26458332"
         id="path5245"
         inkscape:connector-curvature="0" />
    </g>
    <g
       aria-label="ind.1"
       style="font-style:normal;font-variant:normal;font-weight:normal;font-stretch:normal;font-size:3.52777767px;line-height:1.25;font-family:Steagisler;-inkscape-font-specification:'Steagisler, Normal';font-variant-ligatures:normal;font-variant-caps:normal;font-variant-numeric:normal;font-feature-settings:normal;text-align:center;letter-spacing:0px;word-spacing:0px;writing-mode:lr-tb;text-anchor:middle;display:inline;fill:#666666;fill-opacity:1;stroke:none;stroke-width:0.26458332"
       id="text3854"
       transform="translate(-1.8,173.79134)">
      <path
         d="m 42.44854,38.615899 q 0.105076,0 0.177423,0.07235 0.07407,0.07407 0.07407,0.177423 0,0.105075 -0.07407,0.179145 -0.07235,0.07235 -0.177423,0.07235 -0.103353,0 -0.177422,-0.07235 -0.07407,-0.07407 -0.07407,-0.179145 0,-0.103353 0.07407,-0.177423 0.07407,-0.07235 0.177422,-0.07235 z m 0.198093,2.640666 h -0.396186 v -1.572686 q 0,-0.02067 -0.02067,-0.02067 h -0.192926 v -0.301445 h 0.609782 z"
         style="fill:#666666;stroke-width:0.26458332"
         id="path5226"
         inkscape:connector-curvature="0" />
      <path
         d="m 43.521688,39.494399 q 0.0034,0.0155 0.02239,0.0155 0.0086,0 0.0155,-0.0086 0.156751,-0.179145 0.454752,-0.179145 0.284221,0 0.440972,0.16192 0.15503,0.161919 0.15503,0.447862 v 1.324639 h -0.396186 v -1.309136 q 0,-0.125746 -0.09302,-0.201538 -0.08785,-0.07062 -0.215318,-0.07062 -0.129191,0 -0.215319,0.07062 -0.09474,0.07579 -0.09474,0.201538 v 1.309136 h -0.396186 v -1.894802 h 0.291111 z"
         style="fill:#666666;stroke-width:0.26458332"
         id="path5228"
         inkscape:connector-curvature="0" />
      <path
         d="m 46.448296,41.256565 h -0.404799 q -0.02239,-0.04479 -0.03445,-0.09474 -0.0034,-0.01033 -0.0155,-0.01378 -0.0034,-0.0017 -0.0052,-0.0017 -0.0069,0 -0.01378,0.0069 -0.151584,0.151584 -0.422024,0.151584 -0.282498,0 -0.434082,-0.163642 -0.144694,-0.158474 -0.144694,-0.446139 v -0.763089 q 0,-0.285943 0.15503,-0.44614 0.156751,-0.163642 0.440972,-0.163642 0.234266,0 0.38585,0.113688 0.0052,0.0052 0.01206,0.0052 0.0034,0 0.0086,-0.0034 0.01206,-0.0052 0.01206,-0.01723 v -0.80443 h 0.396186 v 2.370226 q 0,0.124024 0.06373,0.27044 z m -0.45992,-1.309136 q 0,-0.125746 -0.09474,-0.201538 -0.08613,-0.0689 -0.215319,-0.0689 -0.127468,0 -0.215318,0.0689 -0.09302,0.07579 -0.09302,0.201538 v 0.733805 q 0,0.124024 0.09302,0.199816 0.08785,0.07062 0.215318,0.07062 0.129191,0 0.215319,-0.07062 0.09474,-0.07579 0.09474,-0.199816 z"
         style="fill:#666666;stroke-width:0.26458332"
         id="path5230"
         inkscape:connector-curvature="0" />
      <path
         d="m 46.992621,40.803535 q 0.105076,0 0.179145,0.07407 0.07235,0.07407 0.07235,0.177422 0,0.103353 -0.07235,0.177422 -0.07407,0.07407 -0.179145,0.07407 -0.103353,0 -0.177422,-0.07407 -0.07235,-0.07407 -0.07235,-0.177422 0,-0.103353 0.07235,-0.177422 0.07407,-0.07407 0.177422,-0.07407 z"
         style="fill:#666666;stroke-width:0.26458332"
         id="path5232"
         inkscape:connector-curvature="0" />
      <path
         d="m 47.566229,41.272068 v -0.335897 h 0.277331 q 0.02067,0 0.02067,-0.02067 V 38.98797 q 0,-0.01895 -0.02067,-0.01895 h -0.277331 v -0.246325 l 0.477146,-0.09129 h 0.220486 v 2.284099 q 0,0.02067 0.02067,0.02067 h 0.27733 v 0.335897 z"
         style="fill:#666666;stroke-width:0.26458332"
         id="path5234"
         inkscape:connector-curvature="0" />
    </g>
    <g
       aria-label="freq.2"
       style="font-style:normal;font-variant:normal;font-weight:normal;font-stretch:normal;font-size:3.52777767px;line-height:1.25;font-family:'Opus Special Extra Std';-inkscape-font-specification:'Opus Special Extra Std, Normal';font-variant-ligatures:normal;font-variant-caps:normal;font-variant-numeric:normal;font-feature-settings:normal;text-align:center;letter-spacing:0px;word-spacing:0px;writing-mode:lr-tb;text-anchor:middle;display:inline;fill:#666666;fill-opacity:1;stroke:none;stroke-width:0.26458332"
       id="text3820-5"
       transform="translate(5.291667,173.79134)">
      <path
         d="M 2.9827145,62.8569 H 2.6657657 q -0.020671,0 -0.020671,0.02067 v 1.572686 H 2.2489092 V 62.87757 q 0,-0.02067 -0.020671,-0.02067 H 2.0335907 v -0.301446 h 0.1946479 q 0.020671,0 0.020671,-0.02067 v -0.142971 q 0,-0.284221 0.2153184,-0.454753 0.198093,-0.155029 0.4909261,-0.155029 h 0.077515 v 0.353122 h -0.077515 q -0.1291911,0 -0.2153184,0.07062 -0.09474,0.07579 -0.09474,0.199815 v 0.129191 q 0,0.02067 0.020671,0.02067 h 0.3169488 z"
         style="font-style:normal;font-variant:normal;font-weight:normal;font-stretch:normal;font-size:3.52777767px;font-family:Steagisler;-inkscape-font-specification:Steagisler;fill:#666666;stroke-width:0.26458332"
         id="path5213"
         inkscape:connector-curvature="0" />
      <path
         d="m 4.066197,62.879293 q -0.070624,-0.01378 -0.1395263,-0.01723 -0.1291911,0 -0.1860352,0.0689 -0.072347,0.08441 -0.072347,0.210151 v 1.309136 h -0.396186 v -1.894802 h 0.2911106 l 0.031006,0.132636 q 0.00345,0.0155 0.018948,0.0155 0.01378,0 0.020671,-0.01206 0.015503,-0.02584 0.032729,-0.04823 0.096463,-0.122301 0.2618272,-0.127469 0.1171332,0.0017 0.1894802,0.03962 z"
         style="font-style:normal;font-variant:normal;font-weight:normal;font-stretch:normal;font-size:3.52777767px;font-family:Steagisler;-inkscape-font-specification:Steagisler;fill:#666666;stroke-width:0.26458332"
         id="path5215"
         inkscape:connector-curvature="0" />
      <path
         d="m 4.7534936,63.606208 q -0.020671,0 -0.020671,0.02067 v 0.248046 q 0,0.124024 0.09474,0.199816 0.086127,0.07062 0.2153184,0.07062 0.1291911,0 0.2239312,-0.0689 0.1050754,-0.07751 0.1050754,-0.201538 v -0.04134 H 5.747403 v 0.05512 q 0,0.28422 -0.2153184,0.454752 -0.198093,0.15503 -0.4892036,0.15503 -0.2928331,0 -0.4909261,-0.15503 -0.2153184,-0.170532 -0.2153184,-0.454752 v -0.763089 q 0,-0.28422 0.2153184,-0.45303 0.198093,-0.156752 0.4909261,-0.156752 0.289388,0 0.4805908,0.156752 0.2049832,0.16881 0.2049832,0.45303 v 0.480591 z M 4.732823,63.30993 q 0,0.02067 0.020671,0.02067 h 0.5770535 q 0.020671,0 0.020671,-0.02067 v -0.16881 q 0,-0.125746 -0.093018,-0.201538 -0.08785,-0.0689 -0.2153185,-0.0689 -0.1291911,0 -0.2153184,0.0689 -0.09474,0.07579 -0.09474,0.201538 z"
         style="font-style:normal;font-variant:normal;font-weight:normal;font-stretch:normal;font-size:3.52777767px;font-family:Steagisler;-inkscape-font-specification:Steagisler;fill:#666666;stroke-width:0.26458332"
         id="path5217"
         inkscape:connector-curvature="0" />
      <path
         d="m 7.1237191,65.206455 v -0.80443 q 0,-0.02067 -0.022393,-0.02067 -0.00517,0 -0.010335,0.0034 -0.1515842,0.113688 -0.3858507,0.113688 -0.2842204,0 -0.4409722,-0.16192 Q 6.107416,64.176371 6.107416,63.888706 v -0.763089 q 0,-0.285943 0.1567518,-0.44614 0.1567518,-0.163642 0.4409722,-0.163642 0.2980008,0 0.4564751,0.180868 0.00689,0.0069 0.017226,0.0069 0.015503,0 0.018948,-0.0155 l 0.029283,-0.132636 h 0.2911105 v 2.651001 z m 0,-2.065335 q 0,-0.125746 -0.09474,-0.201538 -0.08785,-0.0689 -0.2153185,-0.0689 -0.1274685,0 -0.2153185,0.0689 -0.09474,0.07579 -0.09474,0.201538 v 0.733805 q 0,0.124024 0.09474,0.199816 0.08785,0.07062 0.2153185,0.07062 0.1274685,0 0.2153185,-0.07062 0.09474,-0.07579 0.09474,-0.199816 z"
         style="font-style:normal;font-variant:normal;font-weight:normal;font-stretch:normal;font-size:3.52777767px;font-family:Steagisler;-inkscape-font-specification:Steagisler;fill:#666666;stroke-width:0.26458332"
         id="path5219"
         inkscape:connector-curvature="0" />
      <path
         d="m 8.1675833,63.997226 q 0.1050754,0 0.1791449,0.07407 0.072347,0.07407 0.072347,0.177422 0,0.103353 -0.072347,0.177423 -0.07407,0.07407 -0.1791449,0.07407 -0.1033529,0 -0.1774224,-0.07407 -0.072347,-0.07407 -0.072347,-0.177423 0,-0.103353 0.072347,-0.177422 0.074069,-0.07407 0.1774224,-0.07407 z"
         style="font-style:normal;font-variant:normal;font-weight:normal;font-stretch:normal;font-size:3.52777767px;font-family:Steagisler;-inkscape-font-specification:Steagisler;fill:#666666;stroke-width:0.26458332"
         id="path5221"
         inkscape:connector-curvature="0" />
      <path
         d="m 8.7808101,62.367696 q 0,-0.287665 0.2135959,-0.456475 0.1912028,-0.151584 0.4668104,-0.151584 0.2773302,0 0.468533,0.151584 0.2135956,0.16881 0.2135956,0.456475 v 0.196371 q 0,0.186035 -0.06373,0.323839 -0.04134,0.08785 -0.18259,0.279052 -0.067179,0.09302 -0.163642,0.211874 -0.044786,0.05512 -0.1774224,0.211873 -0.1102431,0.132636 -0.1739774,0.213596 -0.1688096,0.213596 -0.1688096,0.289388 0,0.02067 0.02067,0.02067 H 10.1399 v 0.335896 H 8.7480817 v -0.148139 q 0,-0.285943 0.4289144,-0.816487 0.3892958,-0.480591 0.4254693,-0.535713 0.1395263,-0.201538 0.1395263,-0.387573 v -0.179145 q 0,-0.125746 -0.08785,-0.199815 -0.079237,-0.06546 -0.1929254,-0.06546 -0.1119656,0 -0.1912028,0.06546 -0.08785,0.07407 -0.08785,0.199815 v 0.172255 H 8.7808101 Z"
         style="font-style:normal;font-variant:normal;font-weight:normal;font-stretch:normal;font-size:3.52777767px;font-family:Steagisler;-inkscape-font-specification:Steagisler;fill:#666666;stroke-width:0.26458332"
         id="path5223"
         inkscape:connector-curvature="0" />
    </g>
    <g
       aria-label="+cv.2 "
       style="font-style:normal;font-variant:normal;font-weight:normal;font-stretch:normal;font-size:3.52777767px;line-height:1.25;font-family:Steagisler;-inkscape-font-specification:'Steagisler, Normal';font-variant-ligatures:normal;font-variant-caps:normal;font-variant-numeric:normal;font-feature-settings:normal;text-align:center;letter-spacing:0px;word-spacing:0px;writing-mode:lr-tb;text-anchor:middle;display:inline;fill:#666666;fill-opacity:1;stroke:none;stroke-width:0.26458332"
       id="text3848"
       transform="translate(4.233334,173.79134)">
      <path
         d="m 23.228086,63.621708 v 0.589111 H 22.952478 V 63.621708 H 22.361644 V 63.3461 h 0.590834 v -0.589111 h 0.275608 V 63.3461 h 0.589111 v 0.275608 z"
         style="fill:#666666;stroke-width:0.26458332"
         id="path5202"
         inkscape:connector-curvature="0" />
      <path
         d="m 25.453617,64.241825 q 0,0.28422 -0.215318,0.454752 -0.198093,0.15503 -0.490926,0.15503 -0.291111,0 -0.489204,-0.15503 -0.215318,-0.170532 -0.215318,-0.454752 v -0.763089 q 0,-0.28422 0.215318,-0.45303 0.198093,-0.156752 0.489204,-0.156752 0.29111,0 0.480591,0.156752 0.204983,0.16881 0.204983,0.45303 v 0.05684 h -0.375516 v -0.04134 q 0,-0.125746 -0.09474,-0.201538 -0.08785,-0.0689 -0.215318,-0.0689 -0.127469,0 -0.215319,0.0689 -0.09474,0.07579 -0.09474,0.201538 v 0.733805 q 0,0.124024 0.09474,0.199816 0.08785,0.07062 0.215319,0.07062 0.129191,0 0.223931,-0.0689 0.105075,-0.07751 0.105075,-0.201538 v -0.04134 h 0.377238 z"
         style="fill:#666666;stroke-width:0.26458332"
         id="path5204"
         inkscape:connector-curvature="0" />
      <path
         d="m 25.689606,62.908573 h 0.389296 l 0.310059,1.522732 q 0.0034,0.01723 0.01895,0.01723 0.01722,0 0.02067,-0.01723 l 0.310059,-1.522732 h 0.389296 l -0.45303,1.910305 h -0.532268 z"
         style="fill:#666666;stroke-width:0.26458332"
         id="path5206"
         inkscape:connector-curvature="0" />
      <path
         d="m 27.63953,64.350345 q 0.105076,0 0.179145,0.07407 0.07235,0.07407 0.07235,0.177422 0,0.103353 -0.07235,0.177423 -0.07407,0.07407 -0.179145,0.07407 -0.103353,0 -0.177422,-0.07407 -0.07235,-0.07407 -0.07235,-0.177423 0,-0.103353 0.07235,-0.177422 0.07407,-0.07407 0.177422,-0.07407 z"
         style="fill:#666666;stroke-width:0.26458332"
         id="path5208"
         inkscape:connector-curvature="0" />
      <path
         d="m 28.252757,62.720815 q 0,-0.287665 0.213596,-0.456475 0.191203,-0.151584 0.466811,-0.151584 0.27733,0 0.468532,0.151584 0.213596,0.16881 0.213596,0.456475 v 0.196371 q 0,0.186035 -0.06373,0.323838 -0.04134,0.08785 -0.18259,0.279053 -0.06718,0.09302 -0.163642,0.211874 -0.04479,0.05512 -0.177422,0.211873 -0.110243,0.132636 -0.173978,0.213596 -0.168809,0.213596 -0.168809,0.289388 0,0.02067 0.02067,0.02067 h 0.90606 v 0.335897 h -1.391818 v -0.148139 q 0,-0.285943 0.428914,-0.816487 0.389296,-0.480591 0.425469,-0.535713 0.139527,-0.201538 0.139527,-0.387573 v -0.179145 q 0,-0.125746 -0.08785,-0.199816 -0.07924,-0.06546 -0.192925,-0.06546 -0.111966,0 -0.191203,0.06546 -0.08785,0.07407 -0.08785,0.199816 v 0.172255 h -0.401354 z"
         style="fill:#666666;stroke-width:0.26458332"
         id="path5210"
         inkscape:connector-curvature="0" />
    </g>
    <g
       aria-label="ind.2"
       style="font-style:normal;font-variant:normal;font-weight:normal;font-stretch:normal;font-size:3.52777767px;line-height:1.25;font-family:Steagisler;-inkscape-font-specification:'Steagisler, Normal';font-variant-ligatures:normal;font-variant-caps:normal;font-variant-numeric:normal;font-feature-settings:normal;text-align:center;letter-spacing:0px;word-spacing:0px;writing-mode:lr-tb;text-anchor:middle;display:inline;fill:#666666;fill-opacity:1;stroke:none;stroke-width:0.26458332"
       id="text3858"
       transform="translate(-1.8,173.79134)">
      <path
         d="m 42.245278,62.16271 q 0.105076,0 0.177423,0.07235 0.07407,0.07407 0.07407,0.177422 0,0.105075 -0.07407,0.179145 -0.07235,0.07235 -0.177423,0.07235 -0.103353,0 -0.177422,-0.07235 -0.07407,-0.07407 -0.07407,-0.179145 0,-0.103353 0.07407,-0.177422 0.07407,-0.07235 0.177422,-0.07235 z m 0.198093,2.640665 h -0.396186 v -1.572686 q 0,-0.02067 -0.02067,-0.02067 h -0.192926 v -0.301446 h 0.609782 z"
         style="fill:#666666;stroke-width:0.26458332"
         id="path5191"
         inkscape:connector-curvature="0" />
      <path
         d="m 43.318426,63.041209 q 0.0034,0.0155 0.02239,0.0155 0.0086,0 0.0155,-0.0086 0.156752,-0.179145 0.454752,-0.179145 0.284221,0 0.440972,0.16192 0.15503,0.161919 0.15503,0.447862 v 1.324639 h -0.39618 v -1.309136 q 0,-0.125746 -0.09302,-0.201538 -0.08785,-0.07062 -0.215318,-0.07062 -0.129191,0 -0.215319,0.07062 -0.09474,0.07579 -0.09474,0.201538 v 1.309136 h -0.396186 v -1.894802 h 0.291111 z"
         style="fill:#666666;stroke-width:0.26458332"
         id="path5193"
         inkscape:connector-curvature="0" />
      <path
         d="m 46.245034,64.803375 h -0.404799 q -0.02239,-0.04479 -0.03445,-0.09474 -0.0034,-0.01033 -0.0155,-0.01378 -0.0034,-0.0017 -0.0052,-0.0017 -0.0069,0 -0.01378,0.0069 -0.151585,0.151585 -0.422025,0.151585 -0.282497,0 -0.434082,-0.163642 -0.144694,-0.158475 -0.144694,-0.44614 v -0.763089 q 0,-0.285943 0.15503,-0.44614 0.156751,-0.163642 0.440972,-0.163642 0.234266,0 0.385851,0.113688 0.0052,0.0052 0.01206,0.0052 0.0034,0 0.0086,-0.0034 0.01206,-0.0052 0.01206,-0.01723 V 62.16271 H 46.1813 v 2.370225 q 0,0.124024 0.06373,0.27044 z m -0.45992,-1.309136 q 0,-0.125746 -0.09474,-0.201538 -0.08613,-0.0689 -0.215319,-0.0689 -0.127468,0 -0.215318,0.0689 -0.09302,0.07579 -0.09302,0.201538 v 0.733805 q 0,0.124024 0.09302,0.199816 0.08785,0.07062 0.215318,0.07062 0.129191,0 0.215319,-0.07062 0.09474,-0.07579 0.09474,-0.199816 z"
         style="fill:#666666;stroke-width:0.26458332"
         id="path5195"
         inkscape:connector-curvature="0" />
      <path
         d="m 46.789359,64.350345 q 0.105076,0 0.179145,0.07407 0.07235,0.07407 0.07235,0.177422 0,0.103353 -0.07235,0.177423 -0.07407,0.07407 -0.179145,0.07407 -0.103353,0 -0.177422,-0.07407 -0.07235,-0.07407 -0.07235,-0.177423 0,-0.103353 0.07235,-0.177422 0.07407,-0.07407 0.177422,-0.07407 z"
         style="fill:#666666;stroke-width:0.26458332"
         id="path5197"
         inkscape:connector-curvature="0" />
      <path
         d="m 47.402586,62.720815 q 0,-0.287665 0.213596,-0.456475 0.191203,-0.151584 0.466811,-0.151584 0.27733,0 0.468533,0.151584 0.213595,0.16881 0.213595,0.456475 v 0.196371 q 0,0.186035 -0.06373,0.323838 -0.04134,0.08785 -0.18259,0.279053 -0.06718,0.09302 -0.163642,0.211874 -0.04479,0.05512 -0.177422,0.211873 -0.110243,0.132636 -0.173978,0.213596 -0.168809,0.213596 -0.168809,0.289388 0,0.02067 0.02067,0.02067 h 0.90606 v 0.335897 h -1.391818 v -0.148139 q 0,-0.285943 0.428914,-0.816487 0.389296,-0.480591 0.425469,-0.535713 0.139527,-0.201538 0.139527,-0.387573 v -0.179145 q 0,-0.125746 -0.08785,-0.199816 -0.07924,-0.06546 -0.192925,-0.06546 -0.111966,0 -0.191203,0.06546 -0.08785,0.07407 -0.08785,0.199816 v 0.172255 H 47.40259 Z"
         style="fill:#666666;stroke-width:0.26458332"
         id="path5199"
         inkscape:connector-curvature="0" />
    </g>
    <g
       aria-label="freq.3"
       style="font-style:normal;font-variant:normal;font-weight:normal;font-stretch:normal;font-size:3.52777767px;line-height:1.25;font-family:Steagisler;-inkscape-font-specification:'Steagisler, Normal';font-variant-ligatures:normal;font-variant-caps:normal;font-variant-numeric:normal;font-feature-settings:normal;text-align:center;letter-spacing:0px;word-spacing:0px;writing-mode:lr-tb;text-anchor:middle;display:inline;fill:#666666;fill-opacity:1;stroke:none;stroke-width:0.26458332"
       id="text3862"
       transform="translate(5.291667,173.79134)">
      <path
         d="M 2.9491236,86.367543 H 2.6321749 q -0.020671,0 -0.020671,0.02067 v 1.572686 h -0.396186 v -1.572686 q 0,-0.02067 -0.020671,-0.02067 h -0.194647 v -0.301446 h 0.1946478 q 0.020671,0 0.020671,-0.02067 v -0.142971 q 0,-0.284221 0.2153185,-0.454753 0.198093,-0.155029 0.4909261,-0.155029 h 0.077515 v 0.353122 h -0.077515 q -0.1291911,0 -0.2153185,0.07062 -0.09474,0.07579 -0.09474,0.199815 v 0.129191 q 0,0.02067 0.020671,0.02067 h 0.3169487 z"
         style="fill:#666666;stroke-width:0.26458332"
         id="path5178"
         inkscape:connector-curvature="0" />
      <path
         d="m 4.0326062,86.389936 q -0.070625,-0.01378 -0.1395264,-0.01723 -0.1291911,0 -0.1860351,0.0689 -0.072347,0.0844 -0.072347,0.210151 v 1.309136 h -0.396186 v -1.894802 h 0.2911105 l 0.031006,0.132636 q 0.00345,0.0155 0.018948,0.0155 0.01378,0 0.020671,-0.01206 0.015503,-0.02584 0.032728,-0.04823 0.096463,-0.122301 0.2618273,-0.127469 0.1171332,0.0017 0.1894802,0.03962 z"
         style="fill:#666666;stroke-width:0.26458332"
         id="path5180"
         inkscape:connector-curvature="0" />
      <path
         d="m 4.7199028,87.116851 q -0.020671,0 -0.020671,0.02067 v 0.248046 q 0,0.124024 0.09474,0.199816 0.086127,0.07062 0.2153185,0.07062 0.129191,0 0.2239312,-0.0689 0.1050754,-0.07752 0.1050754,-0.201539 v -0.04134 h 0.3755154 v 0.05512 q 0,0.28422 -0.2153185,0.454752 -0.198093,0.15503 -0.4892035,0.15503 -0.2928331,0 -0.4909261,-0.15503 -0.215318,-0.170527 -0.215318,-0.454747 V 86.63626 q 0,-0.28422 0.2153185,-0.45303 0.198093,-0.156752 0.4909261,-0.156752 0.289388,0 0.4805908,0.156752 0.2049832,0.16881 0.2049832,0.45303 v 0.480591 z m -0.020671,-0.296278 q 0,0.02067 0.020671,0.02067 h 0.5770534 q 0.020671,0 0.020671,-0.02067 v -0.16881 q 0,-0.125746 -0.093018,-0.201538 -0.08785,-0.0689 -0.2153184,-0.0689 -0.1291911,0 -0.2153185,0.0689 -0.09474,0.07579 -0.09474,0.201538 z"
         style="fill:#666666;stroke-width:0.26458332"
         id="path5182"
         inkscape:connector-curvature="0" />
      <path
         d="m 7.0901282,88.717098 v -0.80443 q 0,-0.02067 -0.022393,-0.02067 -0.00517,0 -0.010335,0.0034 -0.1515842,0.113688 -0.3858506,0.113688 -0.2842204,0 -0.4409722,-0.16192 Q 6.0738251,87.687014 6.0738251,87.399349 V 86.63626 q 0,-0.285943 0.1567519,-0.44614 0.1567518,-0.163642 0.4409722,-0.163642 0.2980007,0 0.4564751,0.180868 0.00689,0.0069 0.017226,0.0069 0.015503,0 0.018948,-0.0155 l 0.029283,-0.132636 h 0.2911106 v 2.651001 z m 0,-2.065335 q 0,-0.125746 -0.09474,-0.201538 -0.08785,-0.0689 -0.2153184,-0.0689 -0.1274686,0 -0.2153185,0.0689 -0.09474,0.07579 -0.09474,0.201538 v 0.733805 q 0,0.124024 0.09474,0.199816 0.08785,0.07062 0.2153185,0.07062 0.1274685,0 0.2153184,-0.07062 0.09474,-0.07579 0.09474,-0.199816 z"
         style="fill:#666666;stroke-width:0.26458332"
         id="path5184"
         inkscape:connector-curvature="0" />
      <path
         d="m 8.1339924,87.507869 q 0.1050754,0 0.179145,0.07407 0.072347,0.07407 0.072347,0.177422 0,0.103353 -0.072347,0.177423 -0.07407,0.07407 -0.179145,0.07407 -0.1033528,0 -0.1774224,-0.07407 -0.072347,-0.07407 -0.072347,-0.177423 0,-0.103353 0.072347,-0.177422 0.07407,-0.07407 0.1774224,-0.07407 z"
         style="fill:#666666;stroke-width:0.26458332"
         id="path5186"
         inkscape:connector-curvature="0" />
      <path
         d="m 9.1502954,87.385568 q 0,0.127469 0.098185,0.203261 0.08785,0.06718 0.2153185,0.06718 0.1274685,0 0.2153185,-0.06718 0.096463,-0.07579 0.096463,-0.203261 V 87.09618 q 0,-0.318671 -0.3117811,-0.318671 H 9.224365 v -0.279053 h 0.2377116 q 0.1188557,0 0.1980929,-0.07062 0.082682,-0.07579 0.082682,-0.194648 v -0.339342 q 0,-0.125746 -0.08785,-0.199815 -0.077515,-0.06546 -0.1912028,-0.06546 -0.1136881,0 -0.1929253,0.06546 -0.086127,0.07407 -0.086127,0.199815 v 0.172255 H 8.7833928 v -0.187758 q 0,-0.287665 0.2118733,-0.456475 0.1912028,-0.151584 0.468533,-0.151584 0.2756076,0 0.468533,0.151584 0.2118729,0.16881 0.2118729,0.456475 v 0.303169 q 0,0.298 -0.2428788,0.430637 -0.010335,0.0052 -0.010335,0.0155 v 0.0034 q 0,0.01206 0.010335,0.01722 0.2756078,0.130914 0.2756078,0.447862 V 87.3993 q 0,0.289388 -0.2222088,0.458197 -0.2015381,0.153307 -0.4909261,0.153307 -0.289388,0 -0.4909261,-0.153307 Q 8.7506644,87.688688 8.7506644,87.3993 v -0.184313 h 0.399631 z"
         style="fill:#666666;stroke-width:0.26458332"
         id="path5188"
         inkscape:connector-curvature="0" />
    </g>
    <g
       aria-label="+cv.3"
       style="font-style:normal;font-variant:normal;font-weight:normal;font-stretch:normal;font-size:3.52777767px;line-height:1.25;font-family:Steagisler;-inkscape-font-specification:'Steagisler, Normal';font-variant-ligatures:normal;font-variant-caps:normal;font-variant-numeric:normal;font-feature-settings:normal;text-align:center;letter-spacing:0px;word-spacing:0px;writing-mode:lr-tb;text-anchor:middle;display:inline;fill:#666666;fill-opacity:1;stroke:none;stroke-width:0.26458332"
       id="text3866"
       transform="translate(4.233334,173.79134)">
      <path
         d="m 23.194496,87.132351 v 0.589111 h -0.275608 v -0.589111 h -0.590834 v -0.275608 h 0.590834 v -0.589111 h 0.275608 v 0.589111 h 0.589111 v 0.275608 z"
         style="fill:#666666;stroke-width:0.26458332"
         id="path5167"
         inkscape:connector-curvature="0" />
      <path
         d="m 25.420027,87.752468 q 0,0.28422 -0.215318,0.454752 -0.198093,0.15503 -0.490926,0.15503 -0.291111,0 -0.489204,-0.15503 -0.215318,-0.170532 -0.215318,-0.454752 v -0.763089 q 0,-0.28422 0.215318,-0.45303 0.198093,-0.156752 0.489204,-0.156752 0.29111,0 0.480591,0.156752 0.204983,0.16881 0.204983,0.45303 v 0.05684 h -0.375516 v -0.04134 q 0,-0.125746 -0.09474,-0.201538 -0.08785,-0.0689 -0.215318,-0.0689 -0.127469,0 -0.215319,0.0689 -0.09474,0.07579 -0.09474,0.201538 v 0.733805 q 0,0.124024 0.09474,0.199816 0.08785,0.07062 0.215319,0.07062 0.129191,0 0.223931,-0.0689 0.105075,-0.07751 0.105075,-0.201538 v -0.04134 h 0.377238 z"
         style="fill:#666666;stroke-width:0.26458332"
         id="path5169"
         inkscape:connector-curvature="0" />
      <path
         d="m 25.656016,86.419216 h 0.389296 l 0.310059,1.522732 q 0.0034,0.01723 0.01895,0.01723 0.01722,0 0.02067,-0.01723 l 0.310059,-1.522732 h 0.389296 l -0.45303,1.910305 h -0.532267 z"
         style="fill:#666666;stroke-width:0.26458332"
         id="path5171"
         inkscape:connector-curvature="0" />
      <path
         d="m 27.60594,87.860988 q 0.105076,0 0.179145,0.07407 0.07235,0.07407 0.07235,0.177422 0,0.103353 -0.07235,0.177423 -0.07407,0.07407 -0.179145,0.07407 -0.103352,0 -0.177422,-0.07407 -0.07235,-0.07407 -0.07235,-0.177423 0,-0.103353 0.07235,-0.177422 0.07407,-0.07407 0.177422,-0.07407 z"
         style="fill:#666666;stroke-width:0.26458332"
         id="path5173"
         inkscape:connector-curvature="0" />
      <path
         d="m 28.622243,87.738687 q 0,0.127469 0.09819,0.203261 0.08785,0.06718 0.215318,0.06718 0.127469,0 0.215319,-0.06718 0.09646,-0.07579 0.09646,-0.203261 v -0.289388 q 0,-0.318671 -0.311781,-0.318671 h -0.239434 v -0.279053 h 0.237712 q 0.118855,0 0.198093,-0.07062 0.08268,-0.07579 0.08268,-0.194648 v -0.339342 q 0,-0.125746 -0.08785,-0.199816 -0.07752,-0.06546 -0.191203,-0.06546 -0.113688,0 -0.192925,0.06546 -0.08613,0.07407 -0.08613,0.199816 v 0.172255 h -0.401353 v -0.187758 q 0,-0.287665 0.211873,-0.456475 0.191203,-0.151584 0.468533,-0.151584 0.275608,0 0.468533,0.151584 0.211873,0.16881 0.211873,0.456475 v 0.303168 q 0,0.298001 -0.242879,0.430637 -0.01033,0.0052 -0.01033,0.0155 v 0.0034 q 0,0.01206 0.01033,0.01723 0.275608,0.130914 0.275608,0.447862 v 0.303169 q 0,0.289388 -0.222209,0.458197 -0.201538,0.153307 -0.490926,0.153307 -0.289388,0 -0.490926,-0.153307 -0.222209,-0.168809 -0.222209,-0.458197 v -0.184313 h 0.399631 z"
         style="fill:#666666;stroke-width:0.26458332"
         id="path5175"
         inkscape:connector-curvature="0" />
    </g>
    <g
       aria-label="ind.3"
       style="font-style:normal;font-variant:normal;font-weight:normal;font-stretch:normal;font-size:3.52777767px;line-height:1.25;font-family:Steagisler;-inkscape-font-specification:'Steagisler, Normal';font-variant-ligatures:normal;font-variant-caps:normal;font-variant-numeric:normal;font-feature-settings:normal;text-align:center;letter-spacing:0px;word-spacing:0px;writing-mode:lr-tb;text-anchor:middle;display:inline;fill:#666666;fill-opacity:1;stroke:none;stroke-width:0.26458332"
       id="text3870"
       transform="translate(-1.8,173.79134)">
      <path
         d="m 42.21169,85.673353 q 0.105076,0 0.177423,0.07235 0.07407,0.07407 0.07407,0.177422 0,0.105075 -0.07407,0.179145 -0.07235,0.07235 -0.177423,0.07235 -0.103352,0 -0.177422,-0.07235 -0.07407,-0.07407 -0.07407,-0.179145 0,-0.103353 0.07407,-0.177422 0.07407,-0.07235 0.177422,-0.07235 z m 0.198093,2.640665 h -0.396186 v -1.572686 q 0,-0.02067 -0.02067,-0.02067 h -0.192926 v -0.301446 h 0.609782 z"
         style="fill:#666666;stroke-width:0.26458332"
         id="path5156"
         inkscape:connector-curvature="0" />
      <path
         d="m 43.284838,86.551852 q 0.0034,0.0155 0.02239,0.0155 0.0086,0 0.0155,-0.0086 0.156752,-0.179145 0.454752,-0.179145 0.284221,0 0.440972,0.16192 0.15503,0.161919 0.15503,0.447862 v 1.324639 h -0.396186 v -1.309136 q 0,-0.125746 -0.09302,-0.201538 -0.08785,-0.07062 -0.215318,-0.07062 -0.129191,0 -0.215319,0.07062 -0.09474,0.07579 -0.09474,0.201538 v 1.309136 h -0.396186 v -1.894802 h 0.291111 z"
         style="fill:#666666;stroke-width:0.26458332"
         id="path5158"
         inkscape:connector-curvature="0" />
      <path
         d="m 46.211446,88.314018 h -0.404799 q -0.02239,-0.04479 -0.03445,-0.09474 -0.0034,-0.01033 -0.0155,-0.01378 -0.0034,-0.0017 -0.0052,-0.0017 -0.0069,0 -0.01378,0.0069 -0.151585,0.151585 -0.422025,0.151585 -0.282497,0 -0.434082,-0.163642 -0.144694,-0.158475 -0.144694,-0.44614 v -0.763089 q 0,-0.285943 0.15503,-0.44614 0.156751,-0.163642 0.440972,-0.163642 0.234266,0 0.385851,0.113688 0.0052,0.0052 0.01206,0.0052 0.0034,0 0.0086,-0.0034 0.01206,-0.0052 0.01206,-0.01723 v -0.804429 h 0.396186 v 2.370225 q 0,0.124024 0.06373,0.27044 z m -0.45992,-1.309136 q 0,-0.125746 -0.09474,-0.201538 -0.08613,-0.0689 -0.215319,-0.0689 -0.127468,0 -0.215318,0.0689 -0.09302,0.07579 -0.09302,0.201538 v 0.733805 q 0,0.124024 0.09302,0.199816 0.08785,0.07062 0.215318,0.07062 0.129191,0 0.215319,-0.07062 0.09474,-0.07579 0.09474,-0.199816 z"
         style="fill:#666666;stroke-width:0.26458332"
         id="path5160"
         inkscape:connector-curvature="0" />
      <path
         d="m 46.755771,87.860988 q 0.105076,0 0.179145,0.07407 0.07235,0.07407 0.07235,0.177422 0,0.103353 -0.07235,0.177423 -0.07407,0.07407 -0.179145,0.07407 -0.103352,0 -0.177422,-0.07407 -0.07235,-0.07407 -0.07235,-0.177423 0,-0.103353 0.07235,-0.177422 0.07407,-0.07407 0.177422,-0.07407 z"
         style="fill:#666666;stroke-width:0.26458332"
         id="path5162"
         inkscape:connector-curvature="0" />
      <path
         d="m 47.772074,87.738687 q 0,0.127469 0.09819,0.203261 0.08785,0.06718 0.215318,0.06718 0.127469,0 0.215319,-0.06718 0.09646,-0.07579 0.09646,-0.203261 v -0.289388 q 0,-0.318671 -0.311781,-0.318671 h -0.239434 v -0.279053 h 0.237711 q 0.118856,0 0.198093,-0.07062 0.08268,-0.07579 0.08268,-0.194648 v -0.339342 q 0,-0.125746 -0.08785,-0.199816 -0.07751,-0.06546 -0.191203,-0.06546 -0.113688,0 -0.192925,0.06546 -0.08613,0.07407 -0.08613,0.199816 v 0.172255 h -0.401353 v -0.187758 q 0,-0.287665 0.211873,-0.456475 0.191203,-0.151584 0.468533,-0.151584 0.275608,0 0.468533,0.151584 0.211873,0.16881 0.211873,0.456475 v 0.303168 q 0,0.298001 -0.242879,0.430637 -0.01033,0.0052 -0.01033,0.0155 v 0.0034 q 0,0.01206 0.01033,0.01723 0.275608,0.130914 0.275608,0.447862 v 0.303169 q 0,0.289388 -0.222209,0.458197 -0.201538,0.153307 -0.490926,0.153307 -0.289388,0 -0.490926,-0.153307 -0.222209,-0.168809 -0.222209,-0.458197 v -0.184313 h 0.399631 z"
         style="fill:#666666;stroke-width:0.26458332"
         id="path5164"
         inkscape:connector-curvature="0" />
    </g>
    <rect
       style="display:inline;opacity:1;fill:#e6e6e6;fill-opacity:1;stroke:none;stroke-width:0.26458332"
       id="rect5048"
       width="28.399998"
       height="15"
       x="3"
       y="273.70801"
       ry="1"
       rx="0.99999994" />
    <rect
       style="display:inline;opacity:1;fill:#333333;fill-opacity:1;stroke:none;stroke-width:0.26458332"
       id="rect5048-8"
       width="14.400001"
       height="15"
       x="33.400002"
       y="273.70801"
       ry="1"
       rx="1" />
    <g
       aria-label="ins"
       style="font-style:normal;font-variant:normal;font-weight:normal;font-stretch:normal;font-size:2.82222223px;line-height:1.25;font-family:Steagisler;-inkscape-font-specification:'Steagisler, Normal';font-variant-ligatures:normal;font-variant-caps:normal;font-variant-numeric:normal;font-feature-settings:normal;text-align:center;letter-spacing:0px;word-spacing:0px;writing-mode:lr-tb;text-anchor:middle;display:inline;fill:#666666;fill-opacity:1;stroke:none;stroke-width:0.26458332"
       id="text5067"
       transform="translate(7.000006,163.73717)">
      <path
         d="m 20.32935,122.34889 q 0.08406,0 0.141938,0.0579 0.05926,0.0593 0.05926,0.14194 0,0.0841 -0.05926,0.14332 -0.05788,0.0579 -0.141938,0.0579 -0.08268,0 -0.141938,-0.0579 -0.05925,-0.0593 -0.05925,-0.14332 0,-0.0827 0.05925,-0.14194 0.05926,-0.0579 0.141938,-0.0579 z m 0.158475,2.11253 h -0.316949 v -1.25815 q 0,-0.0165 -0.01654,-0.0165 h -0.154341 v -0.24115 h 0.487826 z"
         style="font-size:2.82222223px;fill:#666666;stroke-width:0.26458332"
         id="path5272"
         inkscape:connector-curvature="0" />
      <path
         d="m 21.187868,123.05169 q 0.0028,0.0124 0.01791,0.0124 0.0069,0 0.0124,-0.007 0.125401,-0.14332 0.363802,-0.14332 0.227376,0 0.352778,0.12954 0.124023,0.12953 0.124023,0.35829 v 1.05971 H 21.74184 V 123.414 q 0,-0.1006 -0.07441,-0.16123 -0.07028,-0.0565 -0.172254,-0.0565 -0.103353,0 -0.172255,0.0565 -0.07579,0.0606 -0.07579,0.16123 v 1.04731 h -0.316949 v -1.51584 h 0.232888 z"
         style="font-size:2.82222223px;fill:#666666;stroke-width:0.26458332"
         id="path5274"
         inkscape:connector-curvature="0" />
      <path
         d="m 22.695442,124.01493 q 0,0.0965 0.07441,0.15159 0.06752,0.051 0.166743,0.051 0.09922,0 0.166742,-0.051 0.07441,-0.0551 0.07441,-0.15159 0,-0.10059 -0.124023,-0.1378 -0.112999,-0.0331 -0.26734,-0.062 -0.194303,-0.0469 -0.293522,-0.16261 -0.09784,-0.11713 -0.09784,-0.28801 0,-0.21635 0.166742,-0.339 0.150206,-0.11024 0.374827,-0.11024 0.22462,0 0.374826,0.11024 0.166743,0.12265 0.166743,0.339 v 0.0813 h -0.300413 v -0.0482 q 0,-0.0951 -0.07028,-0.1502 -0.06339,-0.051 -0.162608,-0.051 -0.09784,0 -0.162609,0.051 -0.07028,0.0551 -0.07028,0.1502 0,0.10198 0.124024,0.13505 0.157096,0.0413 0.267339,0.0606 0.180523,0.0386 0.285254,0.13919 0.106109,0.0992 0.106109,0.29076 0,0.24254 -0.172255,0.36656 -0.152962,0.11024 -0.377582,0.11024 -0.22462,0 -0.377583,-0.11024 -0.172254,-0.12402 -0.172254,-0.339 v -0.0841 h 0.300412 z"
         style="font-size:2.82222223px;fill:#666666;stroke-width:0.26458332"
         id="path5276"
         inkscape:connector-curvature="0" />
    </g>
    <g
       aria-label="outs"
       style="font-style:normal;font-variant:normal;font-weight:normal;font-stretch:normal;font-size:2.82222223px;line-height:1.25;font-family:Steagisler;-inkscape-font-specification:'Steagisler, Normal';font-variant-ligatures:normal;font-variant-caps:normal;font-variant-numeric:normal;font-feature-settings:normal;text-align:center;letter-spacing:0px;word-spacing:0px;writing-mode:lr-tb;text-anchor:middle;display:inline;fill:#e6e6e6;fill-opacity:1;stroke:none;stroke-width:0.26458332"
       id="text5071"
       transform="translate(7.000001,163.73717)">
      <path
         d="m 27.5,123.40171 q 0,-0.22738 0.172255,-0.36243 0.158474,-0.1254 0.391362,-0.1254 0.234267,0 0.392741,0.1254 0.172255,0.13505 0.172255,0.36243 v 0.61047 q 0,0.22737 -0.172255,0.3638 -0.158474,0.12402 -0.392741,0.12402 -0.232888,0 -0.391362,-0.12402 Q 27.5,124.23955 27.5,124.01218 Z m 0.811664,0.0124 q 0,-0.1006 -0.07579,-0.16123 -0.07028,-0.0551 -0.172255,-0.0551 -0.101974,0 -0.172254,0.0551 -0.07441,0.0606 -0.07441,0.16123 v 0.58704 q 0,0.0992 0.07441,0.15986 0.07028,0.0565 0.172254,0.0565 0.101975,0 0.172255,-0.0565 0.07579,-0.0606 0.07579,-0.15986 z"
         style="font-size:2.82222223px;fill:#e6e6e6;stroke-width:0.26458332"
         id="path5279"
         inkscape:connector-curvature="0" />
      <path
         d="m 29.787543,124.3622 q -0.0028,-0.01 -0.0124,-0.011 -0.0028,-0.001 -0.0055,-0.001 -0.0055,0 -0.0096,0.006 -0.126779,0.14469 -0.366558,0.14469 -0.227376,0 -0.352777,-0.12953 -0.124024,-0.12954 -0.124024,-0.35829 v -1.0666 h 0.316949 v 1.0542 q 0,0.10059 0.07441,0.16123 0.07028,0.0565 0.172255,0.0565 0.103353,0 0.172254,-0.0565 0.07579,-0.0606 0.07579,-0.16123 v -1.0542 h 0.316948 v 1.51584 h -0.232888 z"
         style="font-size:2.82222223px;fill:#e6e6e6;stroke-width:0.26458332"
         id="path5281"
         inkscape:connector-curvature="0" />
      <path
         d="m 30.31671,122.94558 h 0.181901 q 0.01654,0 0.01654,-0.0165 V 122.5322 H 30.8321 v 0.39688 q 0,0.0165 0.01654,0.0165 h 0.293522 v 0.24115 H 30.84864 q -0.01654,0 -0.01654,0.0165 v 0.82407 q 0.0096,0.2067 0.154341,0.2067 0.0689,0 0.155718,-0.0165 v 0.24391 q -0.106109,0.0386 -0.213596,0.0386 -0.402387,-0.001 -0.413412,-0.44648 v -0.85025 q 0,-0.0165 -0.01654,-0.0165 H 30.31671 Z"
         style="font-size:2.82222223px;fill:#e6e6e6;stroke-width:0.26458332"
         id="path5283"
         inkscape:connector-curvature="0" />
      <path
         d="m 31.704394,124.01493 q 0,0.0965 0.07441,0.15159 0.06752,0.051 0.166743,0.051 0.09922,0 0.166743,-0.051 0.07441,-0.0551 0.07441,-0.15159 0,-0.10059 -0.124024,-0.1378 -0.112999,-0.0331 -0.267339,-0.062 -0.194304,-0.0469 -0.293522,-0.16261 -0.09784,-0.11713 -0.09784,-0.28801 0,-0.21635 0.166743,-0.339 0.150206,-0.11024 0.374826,-0.11024 0.22462,0 0.374826,0.11024 0.166743,0.12265 0.166743,0.339 v 0.0813 h -0.300412 v -0.0482 q 0,-0.0951 -0.07028,-0.1502 -0.06339,-0.051 -0.162609,-0.051 -0.09784,0 -0.162608,0.051 -0.07028,0.0551 -0.07028,0.1502 0,0.10198 0.124023,0.13505 0.157097,0.0413 0.26734,0.0606 0.180523,0.0386 0.285253,0.13919 0.106109,0.0992 0.106109,0.29076 0,0.24254 -0.172254,0.36656 -0.152963,0.11024 -0.377583,0.11024 -0.22462,0 -0.377582,-0.11024 -0.172255,-0.12402 -0.172255,-0.339 v -0.0841 h 0.300412 z"
         style="font-size:2.82222223px;fill:#e6e6e6;stroke-width:0.26458332"
         id="path5285"
         inkscape:connector-curvature="0" />
    </g>
    <g
       transform="translate(1e-7,0.00516)"
       aria-label="adsynth."
       style="font-style:normal;font-variant:normal;font-weight:normal;font-stretch:normal;font-size:3.52777767px;line-height:1.25;font-family:Steagisler;-inkscape-font-specification:Steagisler;font-variant-ligatures:normal;font-variant-caps:normal;font-variant-numeric:normal;font-feature-settings:normal;text-align:start;letter-spacing:0px;word-spacing:0px;writing-mode:lr-tb;text-anchor:start;display:inline;fill:#f2f2f2;fill-opacity:1;stroke:none;stroke-width:0.26458332"
       id="text5305">
      <path
         inkscape:connector-curvature="0"
         d="M 4.4762234,184.17319 H 4.0697021 q -0.020671,-0.0465 -0.034451,-0.0965 -0.00345,-0.012 -0.015503,-0.0155 -0.00345,-0.002 -0.00517,-0.002 -0.00689,0 -0.01378,0.007 -0.1498616,0.15503 -0.4220242,0.15503 Q 3,184.22142 3,183.65298 q 0,-0.34107 0.3479546,-0.47026 0.1653646,-0.062 0.3410645,-0.062 0.1464165,0 0.3014458,0.0431 0.00345,0.002 0.00517,0.002 0.00689,0 0.012058,-0.005 0.00861,-0.005 0.00861,-0.0155 v -0.28078 q 0,-0.12574 -0.09474,-0.20154 -0.08785,-0.0689 -0.2153185,-0.0689 -0.1274685,0 -0.2153184,0.0689 -0.09474,0.0758 -0.09474,0.20154 v 0.0413 H 3.0206706 v -0.0568 q 0,-0.28422 0.2101508,-0.45303 0.1946479,-0.15675 0.4857584,-0.15675 0.2911106,0 0.4857585,0.15675 0.2084283,0.16881 0.2084283,0.45303 v 1.0542 q 0,0.12402 0.065457,0.27044 z m -0.4599203,-0.72003 q 0,-0.0138 -0.01378,-0.0189 -0.1205784,-0.0431 -0.2446018,-0.0431 -0.062012,0 -0.125746,0.0103 -0.235989,0.0396 -0.235989,0.23771 0,0.2291 0.3100585,0.2291 0.1274686,0 0.2153185,-0.0689 0.09474,-0.0758 0.09474,-0.19981 z"
         style="text-align:start;text-anchor:start;fill:#f2f2f2;fill-opacity:1;stroke-width:0.26458332"
         id="path5311" />
      <path
         inkscape:connector-curvature="0"
         d="M 6.3072915,184.17319 H 5.9024928 q -0.022393,-0.0448 -0.034451,-0.0947 -0.00345,-0.0103 -0.015503,-0.0138 -0.00345,-0.002 -0.00517,-0.002 -0.00689,0 -0.01378,0.007 -0.1515842,0.15159 -0.4220241,0.15159 -0.2824979,0 -0.4340821,-0.16364 -0.144694,-0.15848 -0.144694,-0.44614 v -0.76309 q 0,-0.28594 0.1550293,-0.44614 0.1567519,-0.16364 0.4409722,-0.16364 0.2342665,0 0.3858507,0.11368 0.00517,0.005 0.012058,0.005 0.00345,0 0.00861,-0.003 0.012058,-0.005 0.012058,-0.0172 v -0.80443 h 0.396186 v 2.37023 q 0,0.12402 0.063734,0.27044 z m -0.4599202,-1.30914 q 0,-0.12574 -0.09474,-0.20154 -0.086127,-0.0689 -0.2153185,-0.0689 -0.1274685,0 -0.2153184,0.0689 -0.093018,0.0758 -0.093018,0.20154 v 0.73381 q 0,0.12402 0.093018,0.19981 0.08785,0.0706 0.2153184,0.0706 0.1291911,0 0.2153185,-0.0706 0.09474,-0.0758 0.09474,-0.19981 z"
         style="text-align:start;text-anchor:start;fill:#f2f2f2;fill-opacity:1;stroke-width:0.26458332"
         id="path5313" />
      <path
         inkscape:connector-curvature="0"
         d="m 7.0083684,183.61508 q 0,0.12058 0.093018,0.18948 0.084405,0.0637 0.2084283,0.0637 0.1240234,0 0.2084283,-0.0637 0.093018,-0.0689 0.093018,-0.18948 0,-0.12574 -0.1550293,-0.17225 -0.1412489,-0.0413 -0.3341742,-0.0775 -0.2428792,-0.0586 -0.3669027,-0.20326 -0.1223008,-0.14641 -0.1223008,-0.36001 0,-0.27044 0.2084282,-0.42375 0.1877577,-0.1378 0.468533,-0.1378 0.2807753,0 0.468533,0.1378 0.2084282,0.15331 0.2084282,0.42375 v 0.10163 H 7.6112601 v -0.0603 q 0,-0.11886 -0.08785,-0.18776 -0.079237,-0.0637 -0.2032606,-0.0637 -0.1223009,0 -0.2032606,0.0637 -0.08785,0.0689 -0.08785,0.18776 0,0.12747 0.1550293,0.16881 0.1963705,0.0517 0.3341743,0.0758 0.2256537,0.0482 0.3565673,0.17398 0.1326362,0.12402 0.1326362,0.36346 0,0.30317 -0.2153185,0.45819 -0.1912027,0.13781 -0.471978,0.13781 -0.2807753,0 -0.4719781,-0.13781 -0.2153184,-0.15502 -0.2153184,-0.42374 v -0.10508 h 0.3755153 z"
         style="text-align:start;text-anchor:start;fill:#f2f2f2;fill-opacity:1;stroke-width:0.26458332"
         id="path5315" />
      <path
         inkscape:connector-curvature="0"
         d="M 8.898003,184.04055 H 8.7033551 l -0.4805908,-1.76217 h 0.3892958 l 0.3376194,1.3746 q 0.00345,0.0172 0.018948,0.0172 0.017226,0 0.020671,-0.0172 l 0.2824978,-1.3746 h 0.3892958 l -0.6097819,2.71646 H 8.662014 Z"
         style="text-align:start;text-anchor:start;fill:#f2f2f2;fill-opacity:1;stroke-width:0.26458332"
         id="path5317" />
      <path
         inkscape:connector-curvature="0"
         d="m 10.319105,182.41102 q 0.0034,0.0155 0.02239,0.0155 0.0086,0 0.0155,-0.009 0.156752,-0.17914 0.454753,-0.17914 0.28422,0 0.440972,0.16192 0.155029,0.16192 0.155029,0.44786 v 1.32464 h -0.396186 v -1.30914 q 0,-0.12574 -0.09302,-0.20154 -0.08785,-0.0706 -0.215319,-0.0706 -0.129191,0 -0.215318,0.0706 -0.09474,0.0758 -0.09474,0.20154 v 1.30914 H 9.9969887 v -1.89481 h 0.2911103 z"
         style="text-align:start;text-anchor:start;fill:#f2f2f2;fill-opacity:1;stroke-width:0.26458332"
         id="path5319" />
      <path
         inkscape:connector-curvature="0"
         d="m 11.647189,182.27838 h 0.227376 q 0.02067,0 0.02067,-0.0207 v -0.49609 h 0.396186 v 0.49609 q 0,0.0207 0.02067,0.0207 h 0.366902 v 0.30145 h -0.366902 q -0.02067,0 -0.02067,0.0207 v 1.03008 q 0.01206,0.25839 0.192925,0.25839 0.08613,0 0.194648,-0.0207 v 0.30489 q -0.132636,0.0482 -0.266995,0.0482 -0.502984,-0.002 -0.516764,-0.55811 v -1.06281 q 0,-0.0207 -0.02067,-0.0207 h -0.227376 z"
         style="text-align:start;text-anchor:start;fill:#f2f2f2;fill-opacity:1;stroke-width:0.26458332"
         id="path5321" />
      <path
         inkscape:connector-curvature="0"
         d="m 13.517876,181.53252 v 0.80443 q 0,0.0121 0.01206,0.0172 0.0052,0.003 0.0086,0.003 0.0069,0 0.01206,-0.005 0.151584,-0.11368 0.38585,-0.11368 0.284221,0 0.440973,0.16192 0.155029,0.16192 0.155029,0.44786 v 1.32464 h -0.396186 v -1.30914 q 0,-0.12574 -0.09302,-0.20154 -0.08785,-0.0706 -0.215318,-0.0706 -0.129191,0 -0.215318,0.0706 -0.09474,0.0758 -0.09474,0.20154 v 1.30914 H 13.12169 v -2.64067 z"
         style="text-align:start;text-anchor:start;fill:#f2f2f2;fill-opacity:1;stroke-width:0.26458332"
         id="path5323" />
      <path
         inkscape:connector-curvature="0"
         d="m 15.181857,183.72016 q 0.105076,0 0.179145,0.0741 0.07235,0.0741 0.07235,0.17742 0,0.10335 -0.07235,0.17742 -0.07407,0.0741 -0.179145,0.0741 -0.103353,0 -0.177422,-0.0741 -0.07235,-0.0741 -0.07235,-0.17742 0,-0.10335 0.07235,-0.17742 0.07407,-0.0741 0.177422,-0.0741 z"
         style="text-align:start;text-anchor:start;fill:#f2f2f2;fill-opacity:1;stroke-width:0.26458332"
         id="path5325" />
    </g>
    <g
       transform="translate(1e-7,0.00516)"
       aria-label="made_by"
       style="font-style:normal;font-variant:normal;font-weight:normal;font-stretch:normal;font-size:3.52777767px;line-height:1.25;font-family:Steagisler;-inkscape-font-specification:Steagisler;font-variant-ligatures:normal;font-variant-caps:normal;font-variant-numeric:normal;font-feature-settings:normal;text-align:center;letter-spacing:0px;word-spacing:0px;writing-mode:lr-tb;text-anchor:middle;display:inline;fill:#333333;fill-opacity:1;stroke:none;stroke-width:0.26458332"
       id="text5309">
      <path
         inkscape:connector-curvature="0"
         d="m 3.3203937,179.00325 q 0.00345,0.0155 0.020671,0.0155 0.00689,0 0.01378,-0.007 0.1515842,-0.17397 0.4409722,-0.17397 0.323839,0 0.4719781,0.21359 0.00689,0.009 0.017225,0.009 0.010335,0 0.017226,-0.009 0.1481391,-0.21359 0.4719781,-0.21359 0.2824978,0 0.4323595,0.16364 0.144694,0.15847 0.144694,0.44614 v 1.32464 h -0.396186 v -1.30914 q 0,-0.12574 -0.084405,-0.19981 -0.079237,-0.0724 -0.2067058,-0.0724 -0.1257459,0 -0.2067057,0.0724 -0.084405,0.0741 -0.084405,0.19981 v 1.30914 h -0.396186 v -1.30914 q 0,-0.12574 -0.082682,-0.19981 -0.08096,-0.0724 -0.2084282,-0.0724 -0.125746,0 -0.2067058,0.0724 -0.082682,0.0741 -0.082682,0.19981 v 1.30914 H 2.9999999 v -1.8948 h 0.289388 z"
         style="fill:#333333;fill-opacity:1;stroke-width:0.26458332"
         id="path5328" />
      <path
         inkscape:connector-curvature="0"
         d="M 7.2288545,180.77231 H 6.8223333 q -0.020671,-0.0465 -0.034451,-0.0965 -0.00345,-0.0121 -0.015503,-0.0155 -0.00345,-0.002 -0.00517,-0.002 -0.00689,0 -0.01378,0.007 -0.1498617,0.15503 -0.4220242,0.15503 -0.578776,0 -0.578776,-0.56844 0,-0.34107 0.3479546,-0.47026 0.1653646,-0.062 0.3410644,-0.062 0.1464166,0 0.3014459,0.0431 0.00345,0.002 0.00517,0.002 0.00689,0 0.012058,-0.005 0.00861,-0.005 0.00861,-0.0155 v -0.28078 q 0,-0.12574 -0.09474,-0.20154 -0.08785,-0.0689 -0.2153185,-0.0689 -0.1274685,0 -0.2153184,0.0689 -0.09474,0.0758 -0.09474,0.20154 v 0.0413 H 5.7733017 v -0.0568 q 0,-0.28422 0.2101509,-0.45303 0.1946478,-0.15675 0.4857584,-0.15675 0.2911106,0 0.4857585,0.15675 0.2084282,0.16881 0.2084282,0.45303 v 1.0542 q 0,0.12402 0.065457,0.27044 z m -0.4599202,-0.72003 q 0,-0.0138 -0.01378,-0.0189 -0.1205783,-0.0431 -0.2446017,-0.0431 -0.062012,0 -0.125746,0.0103 -0.2359891,0.0396 -0.2359891,0.23771 0,0.2291 0.3100586,0.2291 0.1274686,0 0.2153185,-0.0689 0.09474,-0.0758 0.09474,-0.19982 z"
         style="fill:#333333;fill-opacity:1;stroke-width:0.26458332"
         id="path5330" />
      <path
         inkscape:connector-curvature="0"
         d="M 9.0599228,180.77231 H 8.6551241 q -0.022393,-0.0448 -0.034451,-0.0947 -0.00345,-0.0103 -0.015503,-0.0138 -0.00345,-0.002 -0.00517,-0.002 -0.00689,0 -0.01378,0.007 -0.1515842,0.15158 -0.4220242,0.15158 -0.2824978,0 -0.434082,-0.16364 -0.144694,-0.15848 -0.144694,-0.44614 v -0.76309 q 0,-0.28594 0.1550293,-0.44614 0.1567518,-0.16364 0.4409722,-0.16364 0.2342665,0 0.3858507,0.11369 0.00517,0.005 0.012058,0.005 0.00345,0 0.00861,-0.003 0.012058,-0.005 0.012058,-0.0172 v -0.80443 h 0.396186 v 2.37023 q 0,0.12402 0.063734,0.27044 z m -0.4599202,-1.30914 q 0,-0.12574 -0.09474,-0.20154 -0.086127,-0.0689 -0.2153185,-0.0689 -0.1274685,0 -0.2153184,0.0689 -0.093018,0.0758 -0.093018,0.20154 v 0.73381 q 0,0.12402 0.093018,0.19981 0.08785,0.0706 0.2153184,0.0706 0.1291911,0 0.2153185,-0.0706 0.09474,-0.0758 0.09474,-0.19981 z"
         style="fill:#333333;fill-opacity:1;stroke-width:0.26458332"
         id="path5332" />
      <path
         inkscape:connector-curvature="0"
         d="m 9.8350694,179.92826 q -0.020671,0 -0.020671,0.0207 v 0.24805 q 0,0.12402 0.09474,0.19981 0.086127,0.0706 0.2153176,0.0706 0.129191,0 0.223932,-0.0689 0.105075,-0.0775 0.105075,-0.20154 v -0.0413 h 0.375515 v 0.0551 q 0,0.28422 -0.215318,0.45475 -0.198093,0.15503 -0.489204,0.15503 -0.2928323,0 -0.4909253,-0.15503 -0.2153184,-0.17053 -0.2153184,-0.45475 v -0.76309 q 0,-0.28422 0.2153184,-0.45303 0.198093,-0.15675 0.4909253,-0.15675 0.289388,0 0.480591,0.15675 0.204983,0.16881 0.204983,0.45303 v 0.48059 z m -0.020671,-0.29628 q 0,0.0207 0.020671,0.0207 h 0.5770536 q 0.02067,0 0.02067,-0.0207 v -0.16881 q 0,-0.12574 -0.09302,-0.20154 -0.08785,-0.0689 -0.215319,-0.0689 -0.1291907,0 -0.215318,0.0689 -0.09474,0.0758 -0.09474,0.20154 z"
         style="fill:#333333;fill-opacity:1;stroke-width:0.26458332"
         id="path5334" />
      <path
         inkscape:connector-curvature="0"
         d="m 10.989176,181.13921 v -0.27561 h 1.410767 v 0.27561 z"
         style="fill:#333333;fill-opacity:1;stroke-width:0.26458332"
         id="path5336" />
      <path
         inkscape:connector-curvature="0"
         d="m 13.1148,178.13164 v 0.80443 q 0,0.0121 0.01033,0.0172 0.0052,0.003 0.01034,0.003 0.0069,0 0.01206,-0.005 0.151584,-0.11369 0.38585,-0.11369 0.282498,0 0.440973,0.16364 0.155029,0.1602 0.155029,0.44614 v 0.76309 q 0,0.28766 -0.155029,0.44786 -0.156752,0.16192 -0.440973,0.16192 -0.299723,0 -0.458197,-0.17915 -0.0052,-0.009 -0.01378,-0.009 -0.0017,0 -0.0052,0.002 -0.01206,0.003 -0.0155,0.0155 l -0.03101,0.1223 h -0.291111 v -2.64067 z m 0,2.06534 q 0,0.12402 0.09302,0.19981 0.08785,0.0706 0.215318,0.0706 0.129191,0 0.215319,-0.0706 0.09474,-0.0758 0.09474,-0.19981 v -0.73381 q 0,-0.12574 -0.09474,-0.20154 -0.08613,-0.0689 -0.215319,-0.0689 -0.127468,0 -0.215318,0.0689 -0.09302,0.0758 -0.09302,0.20154 z"
         style="fill:#333333;fill-opacity:1;stroke-width:0.26458332"
         id="path5338" />
      <path
         inkscape:connector-curvature="0"
         d="M 15.019938,180.63967 H 14.82529 l -0.480591,-1.76216 h 0.389296 l 0.337619,1.37459 q 0.0034,0.0172 0.01895,0.0172 0.01723,0 0.02067,-0.0172 l 0.282498,-1.37459 h 0.389296 l -0.609782,2.71645 H 14.78395 Z"
         style="fill:#333333;fill-opacity:1;stroke-width:0.26458332"
         id="path5340" />
    </g>
    <g
       aria-label="trigger"
       style="font-style:normal;font-variant:normal;font-weight:normal;font-stretch:normal;font-size:3.52777767px;line-height:1.25;font-family:Steagisler;-inkscape-font-specification:Steagisler;font-variant-ligatures:normal;font-variant-caps:normal;font-variant-numeric:normal;font-feature-settings:normal;text-align:center;letter-spacing:0px;word-spacing:0px;writing-mode:lr-tb;text-anchor:middle;fill:#333333;fill-opacity:1;stroke:none;stroke-width:0.26458332"
       id="text6059">
      <path
         d="m 36.006482,178.91828 h 0.227376 q 0.02067,0 0.02067,-0.0207 v -0.4961 h 0.396186 v 0.4961 q 0,0.0207 0.02067,0.0207 h 0.366902 v 0.30144 h -0.366902 q -0.02067,0 -0.02067,0.0207 v 1.03009 q 0.01206,0.25838 0.192925,0.25838 0.08613,0 0.194648,-0.0207 v 0.30489 q -0.132636,0.0482 -0.266995,0.0482 -0.502984,-0.002 -0.516764,-0.5581 v -1.06282 q 0,-0.0207 -0.02067,-0.0207 h -0.227376 z"
         style="font-size:3.52777767px;fill:#333333;fill-opacity:1;stroke-width:0.26458332"
         id="path6116" />
      <path
         d="m 38.230291,179.24212 q -0.07062,-0.0138 -0.139526,-0.0172 -0.129191,0 -0.186035,0.0689 -0.07235,0.0844 -0.07235,0.21015 v 1.30914 h -0.396186 v -1.8948 h 0.29111 l 0.03101,0.13263 q 0.0034,0.0155 0.01895,0.0155 0.01378,0 0.02067,-0.0121 0.0155,-0.0258 0.03273,-0.0482 0.09646,-0.1223 0.261827,-0.12747 0.117134,0.002 0.189481,0.0396 z"
         style="font-size:3.52777767px;fill:#333333;fill-opacity:1;stroke-width:0.26458332"
         id="path6118" />
      <path
         d="m 38.828015,178.17241 q 0.105076,0 0.177423,0.0724 0.07407,0.0741 0.07407,0.17742 0,0.10508 -0.07407,0.17915 -0.07235,0.0724 -0.177423,0.0724 -0.103353,0 -0.177422,-0.0724 -0.07407,-0.0741 -0.07407,-0.17915 0,-0.10335 0.07407,-0.17742 0.07407,-0.0724 0.177422,-0.0724 z m 0.198093,2.64067 h -0.396186 v -1.57269 q 0,-0.0207 -0.02067,-0.0207 h -0.192926 v -0.30144 h 0.609782 z"
         style="font-size:3.52777767px;fill:#333333;fill-opacity:1;stroke-width:0.26458332"
         id="path6120" />
      <path
         d="m 40.256007,181.26439 q 0.125746,-0.003 0.210151,-0.0741 0.08957,-0.0741 0.08957,-0.19637 v -0.33934 q 0,-0.0138 -0.01206,-0.0189 -0.0052,-0.002 -0.0086,-0.002 -0.0069,0 -0.01378,0.005 -0.148139,0.13264 -0.401354,0.13264 -0.282498,0 -0.432359,-0.16364 -0.146417,-0.15848 -0.146417,-0.44614 v -0.67352 q 0,-0.28594 0.155029,-0.44614 0.156752,-0.16364 0.440973,-0.16364 0.299723,0 0.458197,0.18087 0.0069,0.007 0.0155,0.007 0.0155,0 0.01895,-0.0155 l 0.03101,-0.13263 h 0.291111 v 2.08945 q 0,0.28422 -0.210151,0.45475 -0.194648,0.15503 -0.485759,0.15503 h -0.571885 v -0.35312 z m 0.299724,-1.76045 q 0,-0.12574 -0.09474,-0.20153 -0.08613,-0.0689 -0.215319,-0.0689 -0.127468,0 -0.215318,0.0689 -0.09302,0.0758 -0.09302,0.20153 v 0.64424 q 0,0.12402 0.09302,0.19981 0.08785,0.0706 0.215318,0.0706 0.129191,0 0.215319,-0.0706 0.09474,-0.0758 0.09474,-0.19981 z"
         style="font-size:3.52777767px;fill:#333333;fill-opacity:1;stroke-width:0.26458332"
         id="path6122" />
      <path
         d="m 42.13014,181.26439 q 0.125746,-0.003 0.21015,-0.0741 0.08957,-0.0741 0.08957,-0.19637 v -0.33934 q 0,-0.0138 -0.01206,-0.0189 -0.0052,-0.002 -0.0086,-0.002 -0.0069,0 -0.01378,0.005 -0.148139,0.13264 -0.401354,0.13264 -0.282498,0 -0.432359,-0.16364 -0.146417,-0.15848 -0.146417,-0.44614 v -0.67352 q 0,-0.28594 0.15503,-0.44614 0.156751,-0.16364 0.440972,-0.16364 0.299723,0 0.458197,0.18087 0.0069,0.007 0.0155,0.007 0.0155,0 0.01895,-0.0155 l 0.03101,-0.13263 h 0.291111 v 2.08945 q 0,0.28422 -0.210151,0.45475 -0.194648,0.15503 -0.485758,0.15503 h -0.571886 v -0.35312 z m 0.299723,-1.76045 q 0,-0.12574 -0.09474,-0.20153 -0.08613,-0.0689 -0.215319,-0.0689 -0.127468,0 -0.215318,0.0689 -0.09302,0.0758 -0.09302,0.20153 v 0.64424 q 0,0.12402 0.09302,0.19981 0.08785,0.0706 0.215318,0.0706 0.129191,0 0.215319,-0.0706 0.09474,-0.0758 0.09474,-0.19981 z"
         style="font-size:3.52777767px;fill:#333333;fill-opacity:1;stroke-width:0.26458332"
         id="path6124" />
      <path
         d="m 43.706271,179.96903 q -0.02067,0 -0.02067,0.0207 v 0.24805 q 0,0.12402 0.09474,0.19981 0.08613,0.0706 0.215319,0.0706 0.129191,0 0.223931,-0.0689 0.105075,-0.0775 0.105075,-0.20154 v -0.0413 h 0.375516 v 0.0551 q 0,0.28422 -0.215319,0.45475 -0.198093,0.15503 -0.489203,0.15503 -0.292834,0 -0.490927,-0.15503 -0.215318,-0.17053 -0.215318,-0.45475 v -0.76309 q 0,-0.28422 0.215318,-0.45303 0.198093,-0.15675 0.490927,-0.15675 0.289388,0 0.48059,0.15675 0.204984,0.16881 0.204984,0.45303 v 0.48059 z m -0.02067,-0.29628 q 0,0.0207 0.02067,0.0207 h 0.577053 q 0.02067,0 0.02067,-0.0207 v -0.16881 q 0,-0.12574 -0.09302,-0.20153 -0.08785,-0.0689 -0.215318,-0.0689 -0.129192,0 -0.215319,0.0689 -0.09474,0.0758 -0.09474,0.20153 z"
         style="font-size:3.52777767px;fill:#333333;fill-opacity:1;stroke-width:0.26458332"
         id="path6126" />
      <path
         d="m 45.892184,179.24212 q -0.07062,-0.0138 -0.139527,-0.0172 -0.129191,0 -0.186035,0.0689 -0.07235,0.0844 -0.07235,0.21015 v 1.30914 h -0.396186 v -1.8948 H 45.3892 l 0.03101,0.13263 q 0.0034,0.0155 0.01895,0.0155 0.01378,0 0.02067,-0.0121 0.0155,-0.0258 0.03273,-0.0482 0.09646,-0.1223 0.261827,-0.12747 0.117133,0.002 0.18948,0.0396 z"
         style="font-size:3.52777767px;fill:#333333;fill-opacity:1;stroke-width:0.26458332"
         id="path6128" />
    </g>
    <g
       aria-label="burst"
       style="font-style:normal;font-variant:normal;font-weight:normal;font-stretch:normal;font-size:4.93888903px;line-height:1.25;font-family:Steagisler;-inkscape-font-specification:Steagisler;font-variant-ligatures:normal;font-variant-caps:normal;font-variant-numeric:normal;font-feature-settings:normal;text-align:center;letter-spacing:0px;word-spacing:0px;writing-mode:lr-tb;text-anchor:middle;display:inline;fill:#f2f2f2;fill-opacity:1;stroke:none;stroke-width:0.26458332"
       id="text6059-2">
      <path
         d="m 35.18578,179.40566 v 1.44797 q 0,0.0217 0.0186,0.031 0.0093,0.006 0.0186,0.006 0.0124,0 0.0217,-0.009 0.272851,-0.20464 0.694531,-0.20464 0.508496,0 0.79375,0.29456 0.279053,0.28835 0.279053,0.80305 v 1.37356 q 0,0.5178 -0.279053,0.80615 -0.282153,0.29146 -0.79375,0.29146 -0.539502,0 -0.824756,-0.32247 -0.0093,-0.0155 -0.02481,-0.0155 -0.0031,0 -0.0093,0.003 -0.0217,0.006 -0.02791,0.0279 l -0.05581,0.22014 h -0.523999 v -4.7532 z m 0,3.7176 q 0,0.22325 0.167431,0.35967 0.15813,0.12713 0.387574,0.12713 0.232543,0 0.387573,-0.12713 0.170532,-0.13642 0.170532,-0.35967 v -1.32085 q 0,-0.22634 -0.170532,-0.36276 -0.15503,-0.12403 -0.387573,-0.12403 -0.229444,0 -0.387574,0.12403 -0.167431,0.13642 -0.167431,0.36276 z"
         style="font-size:6.3499999px;fill:#f2f2f2;fill-opacity:1;stroke-width:0.26458332"
         id="path6131" />
      <path
         d="m 39.619618,183.93562 q -0.0062,-0.0217 -0.02791,-0.0248 -0.0062,-0.003 -0.0124,-0.003 -0.0124,0 -0.0217,0.0124 -0.285254,0.32557 -0.824756,0.32557 -0.511597,0 -0.79375,-0.29146 -0.279053,-0.29145 -0.279053,-0.80615 v -2.39986 h 0.713135 v 2.37195 q 0,0.22635 0.167432,0.36277 0.15813,0.12713 0.387573,0.12713 0.232544,0 0.387573,-0.12713 0.170532,-0.13642 0.170532,-0.36277 v -2.37195 h 0.713135 v 3.41065 h -0.523999 z"
         style="font-size:6.3499999px;fill:#f2f2f2;fill-opacity:1;stroke-width:0.26458332"
         id="path6133" />
      <path
         d="m 42.531068,181.33112 q -0.127124,-0.0248 -0.251148,-0.031 -0.232543,0 -0.334863,0.12402 -0.130224,0.15193 -0.130224,0.37827 v 2.35645 h -0.713135 v -3.41065 h 0.523999 l 0.05581,0.23875 q 0.0062,0.0279 0.03411,0.0279 0.02481,0 0.03721,-0.0217 0.02791,-0.0465 0.05891,-0.0868 0.173633,-0.22014 0.471289,-0.22944 0.21084,0.003 0.341065,0.0713 z"
         style="font-size:6.3499999px;fill:#f2f2f2;fill-opacity:1;stroke-width:0.26458332"
         id="path6135" />
      <path
         d="m 43.634877,183.15427 q 0,0.21704 0.167431,0.34106 0.151929,0.11473 0.375171,0.11473 0.223242,0 0.375171,-0.11473 0.167432,-0.12402 0.167432,-0.34106 0,-0.22634 -0.279053,-0.31006 -0.254248,-0.0744 -0.601514,-0.13953 -0.437182,-0.10542 -0.660425,-0.36586 -0.220141,-0.26355 -0.220141,-0.64803 0,-0.48679 0.375171,-0.76274 0.337964,-0.24805 0.843359,-0.24805 0.505396,0 0.843359,0.24805 0.375171,0.27595 0.375171,0.76274 v 0.18294 h -0.675927 v -0.10852 q 0,-0.21394 -0.15813,-0.33797 -0.142627,-0.11472 -0.365869,-0.11472 -0.220142,0 -0.36587,0.11472 -0.158129,0.12403 -0.158129,0.33797 0,0.22944 0.279052,0.30385 0.353467,0.093 0.601514,0.13643 0.406177,0.0868 0.641821,0.31316 0.238745,0.22324 0.238745,0.65422 0,0.54571 -0.387573,0.82476 -0.344165,0.24805 -0.84956,0.24805 -0.505396,0 -0.849561,-0.24805 -0.387573,-0.27905 -0.387573,-0.76275 v -0.18913 h 0.675928 z"
         style="font-size:6.3499999px;fill:#f2f2f2;fill-opacity:1;stroke-width:0.26458332"
         id="path6137" />
      <path
         d="m 45.857996,180.74821 h 0.409277 q 0.03721,0 0.03721,-0.0372 v -0.89297 h 0.713135 v 0.89297 q 0,0.0372 0.03721,0.0372 h 0.660425 v 0.54261 h -0.660425 q -0.03721,0 -0.03721,0.0372 v 1.85415 q 0.0217,0.46509 0.347266,0.46509 0.155029,0 0.350366,-0.0372 v 0.5488 q -0.238745,0.0868 -0.480591,0.0868 -0.905371,-0.003 -0.930176,-1.00459 v -1.91307 q 0,-0.0372 -0.03721,-0.0372 h -0.409277 z"
         style="font-size:6.3499999px;fill:#f2f2f2;fill-opacity:1;stroke-width:0.26458332"
         id="path6139" />
    </g>
  </g>
  <g
     inkscape:groupmode="layer"
     id="layer2"
     inkscape:label="components"
     style="display:none">
    <circle
       style="opacity:1;fill:#ff0000;fill-opacity:1;stroke:none;stroke-width:0.26458332"
       id="path3920"
       cx="11.085576"
       cy="34.572918"
       r="2.7875743"
       inkscape:label="FREQ1" />
    <circle
       style="opacity:1;fill:#ff0000;fill-opacity:1;stroke:none;stroke-width:0.26458332"
       id="path3920-9"
       cx="30.691023"
       cy="34.572918"
       r="2.7875743"
       inkscape:label="MCV1" />
    <circle
       style="opacity:1;fill:#ff0000;fill-opacity:1;stroke:none;stroke-width:0.26458332"
       id="path3920-0"
       cx="11.085575"
       cy="58.083561"
       r="2.7875743"
       inkscape:label="FREQ2" />
    <circle
       style="opacity:1;fill:#ff0000;fill-opacity:1;stroke:none;stroke-width:0.26458332"
       id="path3920-9-60"
       cx="30.691023"
       cy="58.083561"
       r="2.7875743"
       inkscape:label="MCV2" />
    <circle
       style="opacity:1;fill:#ff00ff;fill-opacity:1;stroke:none;stroke-width:0.26458332"
       id="path3920-9-6-1"
       cx="43.204803"
       cy="58.083561"
       r="0.55751485"
       inkscape:label="LED2" />
    <circle
       style="opacity:1;fill:#ff0000;fill-opacity:1;stroke:none;stroke-width:0.26458332"
       id="path3920-0-8"
       cx="11.085576"
       cy="81.594208"
       r="2.7875743"
       inkscape:label="FREQ3" />
    <circle
       style="opacity:1;fill:#ff0000;fill-opacity:1;stroke:none;stroke-width:0.26458332"
       id="path3920-9-60-8"
       cx="30.691021"
       cy="81.594208"
       r="2.7875743"
       inkscape:label="MCV3" />
    <circle
       style="opacity:1;fill:#ff00ff;fill-opacity:1;stroke:none;stroke-width:0.26458332"
       id="path3920-9-6-1-9"
       cx="43.204803"
       cy="81.594208"
       r="0.55751485"
       inkscape:label="LED3" />
    <circle
       style="opacity:1;fill:#00ff00;fill-opacity:1;stroke:none;stroke-width:0.26458332"
       id="path5075"
       cx="8"
       cy="112"
       r="1.5"
       inkscape:label="CV1" />
    <circle
       style="opacity:1;fill:#00ff00;fill-opacity:1;stroke:none;stroke-width:0.26458332"
       id="path5075-7"
       cx="26.4"
       cy="112"
       r="1.5"
       inkscape:label="CV3" />
    <circle
       style="opacity:1;fill:#00ff00;fill-opacity:1;stroke:none;stroke-width:0.26458332"
       id="path5075-7-1"
       cx="17.200001"
       cy="112"
       r="1.5"
       inkscape:label="CV2" />
    <circle
       style="opacity:1;fill:#0000ff;fill-opacity:1;stroke:none;stroke-width:0.26458332"
       id="path5075-7-10"
       cx="40.600002"
       cy="112"
       r="1.5"
       inkscape:label="OUT1" />
    <circle
       style="opacity:1;fill:#ff00ff;fill-opacity:1;stroke:none;stroke-width:0.39999998;stroke-linecap:butt;stroke-miterlimit:4;stroke-dasharray:none;stroke-dashoffset:0;stroke-opacity:1;paint-order:normal"
       id="path5511"
       cx="43.204498"
       cy="34.565418"
       r="0.5575"
       inkscape:label="LED1"
       inkscape:transform-center-y="0.044834029" />
  </g>
</svg>
