<?xml version="1.0" encoding="UTF-8" standalone="no"?>
<!-- Created with Inkscape (http://www.inkscape.org/) -->

<svg
   xmlns:dc="http://purl.org/dc/elements/1.1/"
   xmlns:cc="http://creativecommons.org/ns#"
   xmlns:rdf="http://www.w3.org/1999/02/22-rdf-syntax-ns#"
   xmlns:svg="http://www.w3.org/2000/svg"
   xmlns="http://www.w3.org/2000/svg"
   xmlns:sodipodi="http://sodipodi.sourceforge.net/DTD/sodipodi-0.dtd"
   xmlns:inkscape="http://www.inkscape.org/namespaces/inkscape"
   width="50.799999mm"
   height="128.5mm"
   viewBox="0 0 50.799999 128.5"
   version="1.1"
   id="svg8"
   inkscape:version="0.92.1 r15371"
   sodipodi:docname="TriggerBurst.svg">
  <defs
     id="defs2" />
  <sodipodi:namedview
     id="base"
     pagecolor="#262626"
     bordercolor="#666666"
     borderopacity="1.0"
     inkscape:pageopacity="0"
     inkscape:pageshadow="2"
     inkscape:zoom="1.979899"
     inkscape:cx="-107.62983"
     inkscape:cy="264.6823"
     inkscape:document-units="mm"
     inkscape:current-layer="layer3"
     showgrid="false"
     inkscape:window-width="1827"
     inkscape:window-height="1057"
     inkscape:window-x="-8"
     inkscape:window-y="-8"
     inkscape:window-maximized="1"
     showguides="true"
     inkscape:snap-grids="false"
     inkscape:guide-bbox="true"
     inkscape:snap-bbox="true"
     inkscape:bbox-paths="true"
     inkscape:snap-bbox-edge-midpoints="true"
     inkscape:bbox-nodes="true"
     inkscape:snap-bbox-midpoints="true">
    <inkscape:grid
       type="xygrid"
       id="grid31" />
    <sodipodi:guide
       position="25.4,96.100448"
       orientation="1,0"
       id="guide4967"
       inkscape:locked="true"
       inkscape:label=""
       inkscape:color="rgb(0,0,255)" />
    <sodipodi:guide
       position="3,101.81734"
       orientation="1,0"
       id="guide4972"
       inkscape:locked="true"
       inkscape:label=""
       inkscape:color="rgb(0,0,255)" />
    <sodipodi:guide
       position="47.8,94.588544"
       orientation="1,0"
       id="guide4974"
       inkscape:locked="true"
       inkscape:label=""
       inkscape:color="rgb(0,0,255)" />
  </sodipodi:namedview>
  <metadata
     id="metadata5">
    <rdf:RDF>
      <cc:Work
         rdf:about="">
        <dc:format>image/svg+xml</dc:format>
        <dc:type
           rdf:resource="http://purl.org/dc/dcmitype/StillImage" />
        <dc:title></dc:title>
      </cc:Work>
    </rdf:RDF>
  </metadata>
  <g
     inkscape:label="panel"
     inkscape:groupmode="layer"
     id="layer1"
     transform="translate(0,-168.5)"
     style="display:inline"
     sodipodi:insensitive="true">
    <rect
       style="opacity:1;fill:#bfbfbf;stroke-width:0.26458332"
       id="rect39"
       width="50.799999"
       height="128.5"
       x="-1.3877788e-017"
       y="168.5" />
    <text
       xml:space="preserve"
       style="font-style:normal;font-weight:normal;font-size:4.93888855px;line-height:1.25;font-family:sans-serif;letter-spacing:0px;word-spacing:0px;fill:#000000;fill-opacity:1;stroke:none;stroke-width:0.26458332"
       x="6.1471992"
       y="177.26324"
       id="text3713"><tspan
         sodipodi:role="line"
         id="tspan3711"
         x="6.1471992"
         y="181.76915"
         style="stroke-width:0.26458332" /></text>
    <g
       aria-label="a"
       style="font-style:normal;font-variant:normal;font-weight:normal;font-stretch:normal;font-size:14.11111069px;line-height:1.25;font-family:'Opus Special Extra Std';-inkscape-font-specification:'Opus Special Extra Std';letter-spacing:0px;word-spacing:0px;fill:#ffcc00;fill-opacity:1;stroke:none;stroke-width:0.26458332"
       id="text3719" />
    <rect
       style="opacity:1;fill:#808080;stroke-width:0.26458332"
       id="rect3797"
       width="50.799999"
       height="20"
       x="6.8624524e-016"
       y="168.5" />
    <rect
       style="display:inline;opacity:1;fill:#808080;stroke-width:0.26458332"
       id="rect3797-4"
       width="50.799999"
       height="20"
       x="0"
       y="277" />
    <path
       style="opacity:1;fill:#808080;stroke-width:0.26458332"
       id="path3814"
       d="m 14.563222,185.97277 c -0.177568,-0.33345 -0.286002,-0.70229 -0.390832,-1.06421 0.0276,-0.56032 0.246611,-1.10321 0.62221,-1.5232 0.06631,-0.0742 0.143319,-0.13798 0.214978,-0.20697 0.862,-0.65337 1.663154,-1.06402 2.687728,-1.2248 0.54533,-0.0701 1.09664,-0.072 1.645601,-0.0754 0.366257,-0.011 0.731225,0.008 1.096534,0.0312 0.08488,0.005 0.170391,0.004 0.254635,0.0161 0.08944,0.0124 0.176702,0.0373 0.265053,0.0559 0.722784,0.17856 1.386587,0.52299 2.049056,0.8525 0.910249,0.47018 1.853775,0.86265 2.815052,1.21427 0.98347,0.35002 1.977393,0.66968 2.973211,0.98251 0.31374,0.0817 0.62942,0.21047 0.958887,0.20928 0.08392,-3.2e-4 0.325067,-0.0282 0.404204,-0.0366 0.712859,-0.15101 1.370904,-0.46516 2.023996,-0.7772 0.152107,-0.0705 0.305057,-0.13928 0.456319,-0.21161 0.265637,-0.12701 0.655894,-0.32242 0.915943,-0.46292 0.13843,-0.0748 0.549269,-0.30723 0.41122,-0.23174 -0.853625,0.46679 -1.060256,0.62857 -0.477758,0.21905 0.389684,-0.31289 0.746348,-0.67463 1.011071,-1.10132 0.171199,-0.27594 0.204698,-0.3852 0.333761,-0.68506 0.387758,-1.00232 0.530932,-2.07583 0.67428,-3.13467 0.111088,-0.84208 0.15461,-1.69054 0.169723,-2.53911 0.0043,-0.50986 2.33e-4,-1.01976 -0.0033,-1.52962 0.0073,-0.38207 -0.03723,-0.76178 -0.130125,-1.1319 -0.162068,-0.48899 -0.382974,-0.95498 -0.645499,-1.39737 -0.265533,-0.43837 -0.562914,-0.85348 -0.931322,-1.21044 -0.252013,-0.27316 -0.592117,-0.40302 -0.916517,-0.56126 -0.296124,-0.14318 -0.604729,-0.25754 -0.923356,-0.33842 -0.35538,-0.0688 -0.708009,-0.14942 -1.066393,-0.20157 -0.556924,-0.0651 -1.118737,-0.0681 -1.678701,-0.0749 -0.614125,0.0242 -1.231932,0.0256 -1.839529,0.12554 -0.07198,0.0185 -0.145127,0.0328 -0.215921,0.0554 -0.06999,0.0223 -0.139706,0.0468 -0.205719,0.079 -0.07562,0.0369 -0.291473,0.16823 -0.217758,0.12766 0.314503,-0.1731 0.618972,-0.36499 0.940192,-0.52527 0.09344,-0.0466 -0.171633,0.11915 -0.254265,0.183 -0.09171,0.0709 -0.178998,0.14728 -0.268499,0.22092 -0.734052,0.63568 -1.330346,1.40978 -1.931795,2.16701 -0.940062,1.23985 -1.909585,2.45651 -2.93231,3.62921 -0.33489,0.38589 -0.692065,0.75127 -1.046519,1.11893 0,0 -1.23914,0.51468 -1.23914,0.51468 v 0 c 0.371593,-0.37265 0.749845,-0.73914 1.09897,-1.13344 1.034781,-1.15719 2.002618,-2.37025 2.925844,-3.61825 0.583748,-0.75413 1.15582,-1.53092 1.869031,-2.16989 0.635093,-0.55606 1.039032,-0.74445 1.906749,-1.24612 0.208021,-0.12027 0.433023,-0.18952 0.669542,-0.22539 0.609983,-0.0778 1.226542,-0.0787 1.840396,-0.0997 0.569503,0.006 1.141436,0.006 1.707319,0.0777 0.363284,0.0564 0.724022,0.12892 1.082628,0.20981 0.321749,0.093 0.636471,0.20995 0.936223,0.36024 0.338613,0.15975 0.677605,0.32286 0.935675,0.60421 0.365434,0.37441 0.663331,0.80212 0.937056,1.24728 0.268322,0.45334 0.499507,0.92596 0.678373,1.42219 0.106463,0.3787 0.151064,0.77191 0.142603,1.16546 -2.65e-4,0.51448 1.35e-4,1.02901 -0.0154,1.54332 -0.02646,0.85938 -0.07439,1.71838 -0.197906,2.5702 -0.151733,1.05987 -0.275267,2.13687 -0.631925,3.15191 -0.118539,0.2984 -0.158449,0.43174 -0.319239,0.70862 -0.256048,0.44091 -0.61065,0.81594 -0.995196,1.14639 -1.113025,0.81099 -2.360863,1.42395 -3.601344,2.01299 -0.670695,0.31859 -1.351825,0.63931 -2.08943,0.76725 -0.153194,0.0121 -0.269103,0.0273 -0.422577,0.0163 -0.327599,-0.0236 -0.637196,-0.15854 -0.947618,-0.25263 -0.980919,-0.33984 -1.967774,-0.66184 -2.947715,-1.00455 -0.96928,-0.35001 -1.920553,-0.74147 -2.836207,-1.21666 -0.665943,-0.31613 -1.335494,-0.64413 -2.060833,-0.80072 -0.528613,-0.085 -1.065484,-0.0892 -1.600031,-0.0825 -0.545045,0.005 -1.092769,0.009 -1.632568,0.0937 -0.261845,0.0502 -0.517089,0.10617 -0.768518,0.19716 -0.483331,0.17491 -0.709989,0.3832 0.681986,-0.45323 0.08096,-0.0487 -0.163357,0.0949 -0.245035,0.14229 -0.07521,0.0628 -0.156022,0.11943 -0.225628,0.18839 -0.375893,0.37238 -0.608894,0.87357 -0.662482,1.39694 0.09478,0.34799 0.20043,0.70554 0.389069,1.01503 0,0 -1.210215,0.70915 -1.210215,0.70915 z"
       inkscape:connector-curvature="0" />
  </g>
  <g
     inkscape:groupmode="layer"
     id="layer3"
     inkscape:label="gfx">
    <g
       id="g3742"
       transform="matrix(0.51253263,0,0,0.51254623,-4.0277733,-95.136181)"
       style="display:inline;stroke-width:1.95106936">
      <path
         sodipodi:nodetypes="ccccccccccccccccccccccccccccccccccccccccsssss"
         inkscape:connector-curvature="0"
         id="path3715"
         transform="matrix(0.26458333,0,0,0.26458333,0,168.5)"
         d="m 80.8125,98.78125 c -8.070874,0.01016 -15.915473,2.66825 -22.330078,7.56641 v 6.33007 c 1.226664,0.0533 3.09375,1.59848 3.09375,3.78516 -0.266665,1.65332 -0.267083,2.77378 -3.09375,3.78711 v 8.26758 l 6.986328,3.19922 -0.05273,0.90625 -6.933594,-3.09375 v 4.80078 l 6.986328,3.19922 -0.05273,0.9082 -6.933594,-3.14648 V 140.25 l 6.933594,3.14648 -0.05273,0.90625 -6.880859,-3.14648 v 4.53201 h -1.494141 v -5.17068 l -6.986328,-3.14649 0.05469,-0.96093 6.93164,3.14648 v -4.90625 l -6.93164,-3.14648 0.05273,-0.90625 6.878906,3.14648 v -4.9082 l -6.93164,-3.14649 0.05273,-0.90625 6.878906,3.04102 V 120.25 c -2.826655,-1.01333 -2.879801,-2.07987 -3.146484,-3.83984 0,-1.0667 0.374425,-1.91993 1.121094,-2.61328 0.746664,-0.69332 1.438724,-1.06585 2.02539,-1.11915 v -5.11328 c -8.260916,6.99373 -13.031512,17.26408 -13.046875,28.08789 7.89e-4,20.3627 16.508394,36.86943 36.871094,36.86914 20.362703,2.9e-4 36.870303,-16.50644 36.871093,-36.86914 2.9e-4,-20.36346 -16.50763,-36.871378 -36.871093,-36.87109 z m -23.023438,14.48242 c -1.866663,0 -3.253906,1.43921 -3.253906,3.19922 0,1.70665 1.333907,3.20117 3.253906,3.20117 1.813335,0 3.146485,-1.49452 3.146485,-3.20117 0,-1.76001 -1.439816,-3.19922 -3.146485,-3.19922 z"
         style="opacity:1;fill:#000000;stroke-width:1.95106924" />
      <g
         id="text3723"
         style="font-style:normal;font-variant:normal;font-weight:normal;font-stretch:normal;font-size:12.69999981px;line-height:1.25;font-family:'Bauhaus 93';-inkscape-font-specification:'Bauhaus 93, ';letter-spacing:0px;word-spacing:0px;fill:#000000;fill-opacity:1;stroke:none;stroke-width:0.51622045"
         aria-label="A">
        <path
           id="path3736"
           style="font-style:normal;font-variant:normal;font-weight:normal;font-stretch:normal;font-size:19.75555611px;font-family:'Bauhaus 93';-inkscape-font-specification:'Bauhaus 93, ';letter-spacing:0px;fill:#ffcc00;stroke-width:0.51622045"
           d="m 23.537744,203.58409 v 3.47266 h -1.128613 v 3.13504 h -3.916385 v -8.37296 q 0,-2.43086 1.321539,-3.77169 1.331185,-1.35048 3.733106,-1.35048 2.315104,0 3.424425,1.22508 1.10932,1.21543 1.10932,3.76204 v 8.50801 h -3.916384 v -8.24756 q 0,-0.7717 -0.183279,-1.07074 -0.183279,-0.29903 -0.655946,-0.29903 -0.916396,0 -0.916396,1.36977 v 1.63986 z"
           inkscape:connector-curvature="0" />
      </g>
    </g>
    <g
       aria-label="burst"
       style="font-style:normal;font-variant:normal;font-weight:normal;font-stretch:normal;font-size:4.93888855px;line-height:1.25;font-family:'Bauhaus 93';-inkscape-font-specification:'Bauhaus 93, ';letter-spacing:0px;word-spacing:0px;display:inline;fill:#bfbfbf;fill-opacity:1;stroke:none;stroke-width:0.26458332"
       id="text3746">
      <path
         d="m 2.0078026,18.436354 h -0.00965 v 0.356912 H 1.6026594 v -3.655935 h 0.3954969 v 1.620573 h 0.00965 q 0.2917995,-0.49196 0.8536946,-0.49196 0.4750786,0 0.7427625,0.332797 0.2700955,0.330384 0.2700955,0.887456 0,0.619773 -0.3014459,0.993566 -0.3014458,0.371381 -0.8247558,0.371381 -0.489548,0 -0.7403509,-0.41479 z m -0.00965,-0.995977 v 0.344854 q 0,0.306269 0.1977485,0.520899 0.20016,0.212218 0.506429,0.212218 0.3593234,0 0.561895,-0.274919 0.2049832,-0.274919 0.2049832,-0.764467 0,-0.412377 -0.1905138,-0.646299 -0.1905138,-0.233922 -0.5160753,-0.233922 -0.344854,0 -0.5546603,0.241156 -0.2098063,0.238745 -0.2098063,0.60048 z"
         style="font-style:normal;font-variant:normal;font-weight:normal;font-stretch:normal;font-family:Gadugi;-inkscape-font-specification:Gadugi;text-align:center;text-anchor:middle;fill:#bfbfbf;stroke-width:0.26458332"
         id="path5261" />
      <path
         d="m 6.5029629,18.793266 h -0.395497 v -0.390674 h -0.00965 q -0.2459798,0.448552 -0.7620551,0.448552 -0.8826334,0 -0.8826334,-1.051443 V 16.323822 H 4.8462166 V 17.737 q 0,0.781348 0.5980685,0.781348 0.289388,0 0.4750786,-0.212218 0.1881022,-0.21463 0.1881022,-0.559484 v -1.422824 h 0.395497 z"
         style="font-style:normal;font-variant:normal;font-weight:normal;font-stretch:normal;font-family:Gadugi;-inkscape-font-specification:Gadugi;text-align:center;text-anchor:middle;fill:#bfbfbf;stroke-width:0.26458332"
         id="path5263" />
      <path
         d="m 8.5913799,16.724142 q -0.1036974,-0.07958 -0.2990343,-0.07958 -0.2532145,0 -0.4244357,0.238745 -0.1688097,0.238746 -0.1688097,0.651123 v 1.258838 H 7.3036033 v -2.469444 h 0.3954969 v 0.508841 h 0.00965 q 0.084405,-0.26045 0.2580376,-0.405144 0.1736328,-0.147105 0.3882623,-0.147105 0.1543402,0 0.2363335,0.03376 z"
         style="font-style:normal;font-variant:normal;font-weight:normal;font-stretch:normal;font-family:Gadugi;-inkscape-font-specification:Gadugi;text-align:center;text-anchor:middle;fill:#bfbfbf;stroke-width:0.26458332"
         id="path5265" />
      <path
         d="m 8.8711215,18.704038 v -0.424435 q 0.3231499,0.238745 0.7114121,0.238745 0.5208984,0 0.5208984,-0.347266 0,-0.09887 -0.04582,-0.166398 -0.04341,-0.06994 -0.1205781,-0.12299 -0.074758,-0.05305 -0.1784559,-0.09405 -0.1012858,-0.04341 -0.2194526,-0.08923 -0.1639865,-0.06511 -0.289388,-0.130225 -0.1229899,-0.06752 -0.2073947,-0.149517 -0.081993,-0.0844 -0.1254015,-0.190513 -0.040997,-0.106109 -0.040997,-0.248392 0,-0.173633 0.079582,-0.306269 0.079582,-0.135048 0.2122179,-0.224276 0.1326361,-0.09164 0.3014458,-0.137459 0.1712212,-0.04582 0.3520887,-0.04582 0.3207383,0 0.5739533,0.110932 v 0.400321 q -0.272507,-0.178456 -0.6270077,-0.178456 -0.1109321,0 -0.2001601,0.02653 -0.089228,0.02412 -0.1543402,0.06994 -0.062701,0.04582 -0.098874,0.110932 -0.033762,0.0627 -0.033762,0.139871 0,0.09646 0.033762,0.161575 0.036174,0.06511 0.1036974,0.115755 0.067524,0.05064 0.1639865,0.09164 0.096463,0.041 0.2194526,0.08923 0.1639865,0.0627 0.2942108,0.130224 0.130225,0.06511 0.221864,0.149518 0.09164,0.08199 0.139871,0.190513 0.05064,0.108521 0.05064,0.258038 0,0.183279 -0.08199,0.318327 -0.07958,0.135048 -0.214629,0.224276 -0.135048,0.08923 -0.3110926,0.132636 -0.1760443,0.04341 -0.3689697,0.04341 -0.3810275,0 -0.6607692,-0.147106 z"
         style="font-style:normal;font-variant:normal;font-weight:normal;font-stretch:normal;font-family:Gadugi;-inkscape-font-specification:Gadugi;text-align:center;text-anchor:middle;fill:#bfbfbf;stroke-width:0.26458332"
         id="path5267" />
      <path
         d="m 12.259373,18.769151 q -0.139871,0.07717 -0.36897,0.07717 -0.648712,0 -0.648712,-0.72347 v -1.46141 h -0.424435 v -0.337619 h 0.424435 V 15.72093 l 0.395497,-0.127813 v 0.730705 h 0.622185 v 0.337619 h -0.622185 v 1.391474 q 0,0.248392 0.08441,0.354501 0.08441,0.106109 0.279742,0.106109 0.149517,0 0.258038,-0.08199 z"
         style="font-style:normal;font-variant:normal;font-weight:normal;font-stretch:normal;font-family:Gadugi;-inkscape-font-specification:Gadugi;text-align:center;text-anchor:middle;fill:#bfbfbf;stroke-width:0.26458332"
         id="path5269" />
    </g>
    <text
       xml:space="preserve"
       style="font-style:normal;font-variant:normal;font-weight:normal;font-stretch:normal;font-size:4.93888855px;line-height:1.25;font-family:'ornaments labels and frames';-inkscape-font-specification:'ornaments labels and frames, Normal';font-variant-ligatures:normal;font-variant-caps:normal;font-variant-numeric:normal;text-align:center;letter-spacing:0px;word-spacing:0px;writing-mode:lr-tb;text-anchor:middle;fill:#000000;fill-opacity:1;stroke:none;stroke-width:0.26458332"
       x="30.067822"
       y="28.006657"
       id="text3786"><tspan
         sodipodi:role="line"
         id="tspan3784"
         x="30.067822"
         y="32.464779"
         style="stroke-width:0.26458332" /></text>
    <g
       aria-label="freq.1"
       style="font-style:normal;font-variant:normal;font-weight:normal;font-stretch:normal;font-size:3.52777767px;line-height:1.25;font-family:'Opus Special Extra Std';-inkscape-font-specification:'Opus Special Extra Std, Normal';font-variant-ligatures:normal;font-variant-caps:normal;font-variant-numeric:normal;font-feature-settings:normal;text-align:center;letter-spacing:0px;word-spacing:0px;writing-mode:lr-tb;text-anchor:middle;fill:#404040;fill-opacity:1;stroke:none;stroke-width:0.26458332"
       id="text3820">
      <path
         d="M 3.185974,39.323864 H 2.8690252 q -0.020671,0 -0.020671,0.02067 v 1.572686 H 2.4521687 v -1.572686 q 0,-0.02067 -0.020671,-0.02067 H 2.2368502 v -0.301445 h 0.1946479 q 0.020671,0 0.020671,-0.02067 v -0.142971 q 0,-0.284221 0.2153184,-0.454753 0.198093,-0.155029 0.4909261,-0.155029 h 0.077515 v 0.353122 h -0.077515 q -0.129191,0 -0.2153184,0.07062 -0.09474,0.07579 -0.09474,0.199816 v 0.129191 q 0,0.02067 0.020671,0.02067 H 3.185974 Z"
         style="font-style:normal;font-variant:normal;font-weight:normal;font-stretch:normal;font-size:3.52777767px;font-family:Steagisler;-inkscape-font-specification:Steagisler;stroke-width:0.26458332;fill:#404040"
         id="path5248" />
      <path
         d="m 4.2694565,39.346258 q -0.070624,-0.01378 -0.1395263,-0.01723 -0.1291911,0 -0.1860352,0.0689 -0.072347,0.08441 -0.072347,0.210151 v 1.309136 H 3.475362 v -1.894802 h 0.2911106 l 0.031006,0.132636 q 0.00345,0.0155 0.018948,0.0155 0.01378,0 0.020671,-0.01206 0.015503,-0.02584 0.032728,-0.04823 0.096463,-0.122301 0.2618272,-0.127469 0.1171333,0.0017 0.1894803,0.03962 z"
         style="font-style:normal;font-variant:normal;font-weight:normal;font-stretch:normal;font-size:3.52777767px;font-family:Steagisler;-inkscape-font-specification:Steagisler;stroke-width:0.26458332;fill:#404040"
         id="path5250" />
      <path
         d="m 4.9567531,40.073173 q -0.020671,0 -0.020671,0.02067 v 0.248047 q 0,0.124024 0.09474,0.199816 0.086127,0.07062 0.2153184,0.07062 0.1291911,0 0.2239312,-0.0689 0.1050754,-0.07751 0.1050754,-0.201538 v -0.04134 h 0.3755154 v 0.05512 q 0,0.28422 -0.2153184,0.454752 -0.198093,0.155029 -0.4892036,0.155029 -0.2928331,0 -0.4909261,-0.155029 -0.2153184,-0.170532 -0.2153184,-0.454752 v -0.763089 q 0,-0.28422 0.2153184,-0.45303 0.198093,-0.156752 0.4909261,-0.156752 0.289388,0 0.4805908,0.156752 0.2049832,0.16881 0.2049832,0.45303 v 0.480591 z m -0.020671,-0.296279 q 0,0.02067 0.020671,0.02067 h 0.5770535 q 0.020671,0 0.020671,-0.02067 v -0.168809 q 0,-0.125746 -0.093018,-0.201538 -0.08785,-0.0689 -0.2153185,-0.0689 -0.129191,0 -0.2153184,0.0689 -0.09474,0.07579 -0.09474,0.201538 z"
         style="font-style:normal;font-variant:normal;font-weight:normal;font-stretch:normal;font-size:3.52777767px;font-family:Steagisler;-inkscape-font-specification:Steagisler;stroke-width:0.26458332;fill:#404040"
         id="path5252" />
      <path
         d="m 7.3269786,41.67342 v -0.80443 q 0,-0.02067 -0.022393,-0.02067 -0.00517,0 -0.010335,0.0034 -0.1515842,0.113688 -0.3858507,0.113688 -0.2842204,0 -0.4409722,-0.161919 -0.1567518,-0.160197 -0.1567518,-0.447862 v -0.763089 q 0,-0.285943 0.1567518,-0.44614 0.1567518,-0.163642 0.4409722,-0.163642 0.2980008,0 0.4564752,0.180868 0.00689,0.0069 0.017225,0.0069 0.015503,0 0.018948,-0.0155 l 0.029283,-0.132636 H 7.721442 v 2.651001 z m 0,-2.065335 q 0,-0.125746 -0.09474,-0.201538 -0.08785,-0.0689 -0.2153185,-0.0689 -0.1274685,0 -0.2153184,0.0689 -0.09474,0.07579 -0.09474,0.201538 v 0.733805 q 0,0.124024 0.09474,0.199816 0.08785,0.07062 0.2153184,0.07062 0.1274686,0 0.2153185,-0.07062 0.09474,-0.07579 0.09474,-0.199816 z"
         style="font-style:normal;font-variant:normal;font-weight:normal;font-stretch:normal;font-size:3.52777767px;font-family:Steagisler;-inkscape-font-specification:Steagisler;stroke-width:0.26458332;fill:#404040"
         id="path5254" />
      <path
         d="m 8.3708428,40.464191 q 0.1050754,0 0.1791449,0.07407 0.072347,0.07407 0.072347,0.177422 0,0.103353 -0.072347,0.177422 -0.07407,0.07407 -0.1791449,0.07407 -0.1033529,0 -0.1774224,-0.07407 -0.072347,-0.07407 -0.072347,-0.177422 0,-0.103353 0.072347,-0.177422 0.074069,-0.07407 0.1774224,-0.07407 z"
         style="font-style:normal;font-variant:normal;font-weight:normal;font-stretch:normal;font-size:3.52777767px;font-family:Steagisler;-inkscape-font-specification:Steagisler;stroke-width:0.26458332;fill:#404040"
         id="path5256" />
      <path
         d="m 8.944451,40.932724 v -0.335897 h 0.2773302 q 0.020671,0 0.020671,-0.02067 v -1.927531 q 0,-0.01895 -0.020671,-0.01895 H 8.944451 v -0.246325 l 0.4771457,-0.0913 h 0.2204861 v 2.284099 q 0,0.02067 0.020671,0.02067 h 0.2773302 v 0.335897 z"
         style="font-style:normal;font-variant:normal;font-weight:normal;font-stretch:normal;font-size:3.52777767px;font-family:Steagisler;-inkscape-font-specification:Steagisler;stroke-width:0.26458332;fill:#404040"
         id="path5258" />
    </g>
    <g
       aria-label="+cv.1"
       style="font-style:normal;font-variant:normal;font-weight:normal;font-stretch:normal;font-size:4.93888855px;line-height:1.25;font-family:Steagisler;-inkscape-font-specification:'Steagisler, Normal';font-variant-ligatures:normal;font-variant-caps:normal;font-variant-numeric:normal;font-feature-settings:normal;text-align:center;letter-spacing:0px;word-spacing:0px;writing-mode:lr-tb;text-anchor:middle;fill:#404040;fill-opacity:1;stroke:none;stroke-width:0.26458332"
       id="text3842">
      <path
         d="m 23.431346,40.067146 v 0.589111 h -0.275608 v -0.589111 h -0.590834 v -0.275608 h 0.590834 v -0.589111 h 0.275608 v 0.589111 h 0.589111 v 0.275608 z"
         style="font-size:3.52777767px;stroke-width:0.26458332;fill:#404040"
         id="path5237" />
      <path
         d="m 25.656877,40.687263 q 0,0.28422 -0.215318,0.454753 -0.198093,0.155029 -0.490926,0.155029 -0.291111,0 -0.489204,-0.155029 -0.215318,-0.170533 -0.215318,-0.454753 v -0.763089 q 0,-0.28422 0.215318,-0.45303 0.198093,-0.156751 0.489204,-0.156751 0.29111,0 0.480591,0.156751 0.204983,0.16881 0.204983,0.45303 v 0.05685 h -0.375516 v -0.04134 q 0,-0.125746 -0.09474,-0.201538 -0.08785,-0.0689 -0.215318,-0.0689 -0.127469,0 -0.215319,0.0689 -0.09474,0.07579 -0.09474,0.201538 v 0.733806 q 0,0.124023 0.09474,0.199815 0.08785,0.07062 0.215319,0.07062 0.129191,0 0.223931,-0.0689 0.105075,-0.07751 0.105075,-0.201538 v -0.04134 h 0.377238 z"
         style="font-size:3.52777767px;stroke-width:0.26458332;fill:#404040"
         id="path5239" />
      <path
         d="m 25.892866,39.354011 h 0.389296 l 0.310059,1.522732 q 0.0034,0.01723 0.01895,0.01723 0.01722,0 0.02067,-0.01723 l 0.310059,-1.522732 h 0.389296 l -0.45303,1.910306 h -0.532268 z"
         style="font-size:3.52777767px;stroke-width:0.26458332;fill:#404040"
         id="path5241" />
      <path
         d="m 27.84279,40.795784 q 0.105076,0 0.179145,0.07407 0.07235,0.07407 0.07235,0.177423 0,0.103352 -0.07235,0.177422 -0.07407,0.07407 -0.179145,0.07407 -0.103353,0 -0.177422,-0.07407 -0.07235,-0.07407 -0.07235,-0.177422 0,-0.103353 0.07235,-0.177423 0.07407,-0.07407 0.177422,-0.07407 z"
         style="font-size:3.52777767px;stroke-width:0.26458332;fill:#404040"
         id="path5243" />
      <path
         d="M 28.416399,41.264317 V 40.92842 h 0.27733 q 0.02067,0 0.02067,-0.02067 v -1.927531 q 0,-0.01895 -0.02067,-0.01895 h -0.27733 v -0.246324 l 0.477145,-0.09129 h 0.220486 v 2.284098 q 0,0.02067 0.02067,0.02067 h 0.27733 v 0.335897 z"
         style="font-size:3.52777767px;stroke-width:0.26458332;fill:#404040"
         id="path5245" />
    </g>
    <g
       aria-label="ind.1"
       style="font-style:normal;font-variant:normal;font-weight:normal;font-stretch:normal;font-size:3.52777767px;line-height:1.25;font-family:Steagisler;-inkscape-font-specification:'Steagisler, Normal';font-variant-ligatures:normal;font-variant-caps:normal;font-variant-numeric:normal;font-feature-settings:normal;text-align:center;letter-spacing:0px;word-spacing:0px;writing-mode:lr-tb;text-anchor:middle;fill:#404040;fill-opacity:1;stroke:none;stroke-width:0.26458332"
       id="text3854">
      <path
         d="m 42.44854,38.615899 q 0.105076,0 0.177423,0.07235 0.07407,0.07407 0.07407,0.177423 0,0.105075 -0.07407,0.179145 -0.07235,0.07235 -0.177423,0.07235 -0.103353,0 -0.177422,-0.07235 -0.07407,-0.07407 -0.07407,-0.179145 0,-0.103353 0.07407,-0.177423 0.07407,-0.07235 0.177422,-0.07235 z m 0.198093,2.640666 h -0.396186 v -1.572686 q 0,-0.02067 -0.02067,-0.02067 h -0.192926 v -0.301445 h 0.609782 z"
         style="stroke-width:0.26458332;fill:#404040"
         id="path5226" />
      <path
         d="m 43.521688,39.494399 q 0.0034,0.0155 0.02239,0.0155 0.0086,0 0.0155,-0.0086 0.156751,-0.179145 0.454752,-0.179145 0.284221,0 0.440972,0.16192 0.15503,0.161919 0.15503,0.447862 v 1.324639 h -0.396186 v -1.309136 q 0,-0.125746 -0.09302,-0.201538 -0.08785,-0.07062 -0.215318,-0.07062 -0.129191,0 -0.215319,0.07062 -0.09474,0.07579 -0.09474,0.201538 v 1.309136 h -0.396186 v -1.894802 h 0.291111 z"
         style="stroke-width:0.26458332;fill:#404040"
         id="path5228" />
      <path
         d="m 46.448296,41.256565 h -0.404799 q -0.02239,-0.04479 -0.03445,-0.09474 -0.0034,-0.01033 -0.0155,-0.01378 -0.0034,-0.0017 -0.0052,-0.0017 -0.0069,0 -0.01378,0.0069 -0.151584,0.151584 -0.422024,0.151584 -0.282498,0 -0.434082,-0.163642 -0.144694,-0.158474 -0.144694,-0.446139 v -0.763089 q 0,-0.285943 0.15503,-0.44614 0.156751,-0.163642 0.440972,-0.163642 0.234266,0 0.38585,0.113688 0.0052,0.0052 0.01206,0.0052 0.0034,0 0.0086,-0.0034 0.01206,-0.0052 0.01206,-0.01723 v -0.80443 h 0.396186 v 2.370226 q 0,0.124024 0.06373,0.27044 z m -0.45992,-1.309136 q 0,-0.125746 -0.09474,-0.201538 -0.08613,-0.0689 -0.215319,-0.0689 -0.127468,0 -0.215318,0.0689 -0.09302,0.07579 -0.09302,0.201538 v 0.733805 q 0,0.124024 0.09302,0.199816 0.08785,0.07062 0.215318,0.07062 0.129191,0 0.215319,-0.07062 0.09474,-0.07579 0.09474,-0.199816 z"
         style="stroke-width:0.26458332;fill:#404040"
         id="path5230" />
      <path
         d="m 46.992621,40.803535 q 0.105076,0 0.179145,0.07407 0.07235,0.07407 0.07235,0.177422 0,0.103353 -0.07235,0.177422 -0.07407,0.07407 -0.179145,0.07407 -0.103353,0 -0.177422,-0.07407 -0.07235,-0.07407 -0.07235,-0.177422 0,-0.103353 0.07235,-0.177422 0.07407,-0.07407 0.177422,-0.07407 z"
         style="stroke-width:0.26458332;fill:#404040"
         id="path5232" />
      <path
         d="m 47.566229,41.272068 v -0.335897 h 0.277331 q 0.02067,0 0.02067,-0.02067 V 38.98797 q 0,-0.01895 -0.02067,-0.01895 h -0.277331 v -0.246325 l 0.477146,-0.09129 h 0.220486 v 2.284099 q 0,0.02067 0.02067,0.02067 h 0.27733 v 0.335897 z"
         style="stroke-width:0.26458332;fill:#404040"
         id="path5234" />
    </g>
    <g
       aria-label="freq.2"
       style="font-style:normal;font-variant:normal;font-weight:normal;font-stretch:normal;font-size:3.52777767px;line-height:1.25;font-family:'Opus Special Extra Std';-inkscape-font-specification:'Opus Special Extra Std, Normal';font-variant-ligatures:normal;font-variant-caps:normal;font-variant-numeric:normal;font-feature-settings:normal;text-align:center;letter-spacing:0px;word-spacing:0px;writing-mode:lr-tb;text-anchor:middle;fill:#404040;fill-opacity:1;stroke:none;stroke-width:0.26458332"
       id="text3820-5">
      <path
         d="M 2.9827145,62.8569 H 2.6657657 q -0.020671,0 -0.020671,0.02067 v 1.572686 H 2.2489092 V 62.87757 q 0,-0.02067 -0.020671,-0.02067 H 2.0335907 v -0.301446 h 0.1946479 q 0.020671,0 0.020671,-0.02067 v -0.142971 q 0,-0.284221 0.2153184,-0.454753 0.198093,-0.155029 0.4909261,-0.155029 h 0.077515 v 0.353122 h -0.077515 q -0.1291911,0 -0.2153184,0.07062 -0.09474,0.07579 -0.09474,0.199815 v 0.129191 q 0,0.02067 0.020671,0.02067 h 0.3169488 z"
         style="font-style:normal;font-variant:normal;font-weight:normal;font-stretch:normal;font-size:3.52777767px;font-family:Steagisler;-inkscape-font-specification:Steagisler;stroke-width:0.26458332;fill:#404040"
         id="path5213" />
      <path
         d="m 4.066197,62.879293 q -0.070624,-0.01378 -0.1395263,-0.01723 -0.1291911,0 -0.1860352,0.0689 -0.072347,0.08441 -0.072347,0.210151 v 1.309136 h -0.396186 v -1.894802 h 0.2911106 l 0.031006,0.132636 q 0.00345,0.0155 0.018948,0.0155 0.01378,0 0.020671,-0.01206 0.015503,-0.02584 0.032729,-0.04823 0.096463,-0.122301 0.2618272,-0.127469 0.1171332,0.0017 0.1894802,0.03962 z"
         style="font-style:normal;font-variant:normal;font-weight:normal;font-stretch:normal;font-size:3.52777767px;font-family:Steagisler;-inkscape-font-specification:Steagisler;stroke-width:0.26458332;fill:#404040"
         id="path5215" />
      <path
         d="m 4.7534936,63.606208 q -0.020671,0 -0.020671,0.02067 v 0.248046 q 0,0.124024 0.09474,0.199816 0.086127,0.07062 0.2153184,0.07062 0.1291911,0 0.2239312,-0.0689 0.1050754,-0.07751 0.1050754,-0.201538 v -0.04134 h 0.3755154 v 0.05512 q 0,0.28422 -0.2153184,0.454752 -0.198093,0.15503 -0.4892036,0.15503 -0.2928331,0 -0.4909261,-0.15503 -0.2153184,-0.170532 -0.2153184,-0.454752 v -0.763089 q 0,-0.28422 0.2153184,-0.45303 0.198093,-0.156752 0.4909261,-0.156752 0.289388,0 0.4805908,0.156752 0.2049832,0.16881 0.2049832,0.45303 v 0.480591 z M 4.732823,63.30993 q 0,0.02067 0.020671,0.02067 h 0.5770535 q 0.020671,0 0.020671,-0.02067 v -0.16881 q 0,-0.125746 -0.093018,-0.201538 -0.08785,-0.0689 -0.2153185,-0.0689 -0.1291911,0 -0.2153184,0.0689 -0.09474,0.07579 -0.09474,0.201538 z"
         style="font-style:normal;font-variant:normal;font-weight:normal;font-stretch:normal;font-size:3.52777767px;font-family:Steagisler;-inkscape-font-specification:Steagisler;stroke-width:0.26458332;fill:#404040"
         id="path5217" />
      <path
         d="m 7.1237191,65.206455 v -0.80443 q 0,-0.02067 -0.022393,-0.02067 -0.00517,0 -0.010335,0.0034 -0.1515842,0.113688 -0.3858507,0.113688 -0.2842204,0 -0.4409722,-0.16192 Q 6.107416,64.176371 6.107416,63.888706 v -0.763089 q 0,-0.285943 0.1567518,-0.44614 0.1567518,-0.163642 0.4409722,-0.163642 0.2980008,0 0.4564751,0.180868 0.00689,0.0069 0.017226,0.0069 0.015503,0 0.018948,-0.0155 l 0.029283,-0.132636 h 0.2911105 v 2.651001 z m 0,-2.065335 q 0,-0.125746 -0.09474,-0.201538 -0.08785,-0.0689 -0.2153185,-0.0689 -0.1274685,0 -0.2153185,0.0689 -0.09474,0.07579 -0.09474,0.201538 v 0.733805 q 0,0.124024 0.09474,0.199816 0.08785,0.07062 0.2153185,0.07062 0.1274685,0 0.2153185,-0.07062 0.09474,-0.07579 0.09474,-0.199816 z"
         style="font-style:normal;font-variant:normal;font-weight:normal;font-stretch:normal;font-size:3.52777767px;font-family:Steagisler;-inkscape-font-specification:Steagisler;stroke-width:0.26458332;fill:#404040"
         id="path5219" />
      <path
         d="m 8.1675833,63.997226 q 0.1050754,0 0.1791449,0.07407 0.072347,0.07407 0.072347,0.177422 0,0.103353 -0.072347,0.177423 -0.07407,0.07407 -0.1791449,0.07407 -0.1033529,0 -0.1774224,-0.07407 -0.072347,-0.07407 -0.072347,-0.177423 0,-0.103353 0.072347,-0.177422 0.074069,-0.07407 0.1774224,-0.07407 z"
         style="font-style:normal;font-variant:normal;font-weight:normal;font-stretch:normal;font-size:3.52777767px;font-family:Steagisler;-inkscape-font-specification:Steagisler;stroke-width:0.26458332;fill:#404040"
         id="path5221" />
      <path
         d="m 8.7808101,62.367696 q 0,-0.287665 0.2135959,-0.456475 0.1912028,-0.151584 0.4668104,-0.151584 0.2773302,0 0.468533,0.151584 0.2135956,0.16881 0.2135956,0.456475 v 0.196371 q 0,0.186035 -0.06373,0.323839 -0.04134,0.08785 -0.18259,0.279052 -0.067179,0.09302 -0.163642,0.211874 -0.044786,0.05512 -0.1774224,0.211873 -0.1102431,0.132636 -0.1739774,0.213596 -0.1688096,0.213596 -0.1688096,0.289388 0,0.02067 0.02067,0.02067 H 10.1399 v 0.335896 H 8.7480817 v -0.148139 q 0,-0.285943 0.4289144,-0.816487 0.3892958,-0.480591 0.4254693,-0.535713 0.1395263,-0.201538 0.1395263,-0.387573 v -0.179145 q 0,-0.125746 -0.08785,-0.199815 -0.079237,-0.06546 -0.1929254,-0.06546 -0.1119656,0 -0.1912028,0.06546 -0.08785,0.07407 -0.08785,0.199815 v 0.172255 H 8.7808101 Z"
         style="font-style:normal;font-variant:normal;font-weight:normal;font-stretch:normal;font-size:3.52777767px;font-family:Steagisler;-inkscape-font-specification:Steagisler;stroke-width:0.26458332;fill:#404040"
         id="path5223" />
    </g>
    <g
       aria-label="+cv.2
"
       style="font-style:normal;font-variant:normal;font-weight:normal;font-stretch:normal;font-size:3.52777767px;line-height:1.25;font-family:Steagisler;-inkscape-font-specification:'Steagisler, Normal';font-variant-ligatures:normal;font-variant-caps:normal;font-variant-numeric:normal;font-feature-settings:normal;text-align:center;letter-spacing:0px;word-spacing:0px;writing-mode:lr-tb;text-anchor:middle;fill:#404040;fill-opacity:1;stroke:none;stroke-width:0.26458332"
       id="text3848">
      <path
         d="m 23.228086,63.621708 v 0.589111 H 22.952478 V 63.621708 H 22.361644 V 63.3461 h 0.590834 v -0.589111 h 0.275608 V 63.3461 h 0.589111 v 0.275608 z"
         style="stroke-width:0.26458332;fill:#404040"
         id="path5202" />
      <path
         d="m 25.453617,64.241825 q 0,0.28422 -0.215318,0.454752 -0.198093,0.15503 -0.490926,0.15503 -0.291111,0 -0.489204,-0.15503 -0.215318,-0.170532 -0.215318,-0.454752 v -0.763089 q 0,-0.28422 0.215318,-0.45303 0.198093,-0.156752 0.489204,-0.156752 0.29111,0 0.480591,0.156752 0.204983,0.16881 0.204983,0.45303 v 0.05684 h -0.375516 v -0.04134 q 0,-0.125746 -0.09474,-0.201538 -0.08785,-0.0689 -0.215318,-0.0689 -0.127469,0 -0.215319,0.0689 -0.09474,0.07579 -0.09474,0.201538 v 0.733805 q 0,0.124024 0.09474,0.199816 0.08785,0.07062 0.215319,0.07062 0.129191,0 0.223931,-0.0689 0.105075,-0.07751 0.105075,-0.201538 v -0.04134 h 0.377238 z"
         style="stroke-width:0.26458332;fill:#404040"
         id="path5204" />
      <path
         d="m 25.689606,62.908573 h 0.389296 l 0.310059,1.522732 q 0.0034,0.01723 0.01895,0.01723 0.01722,0 0.02067,-0.01723 l 0.310059,-1.522732 h 0.389296 l -0.45303,1.910305 h -0.532268 z"
         style="stroke-width:0.26458332;fill:#404040"
         id="path5206" />
      <path
         d="m 27.63953,64.350345 q 0.105076,0 0.179145,0.07407 0.07235,0.07407 0.07235,0.177422 0,0.103353 -0.07235,0.177423 -0.07407,0.07407 -0.179145,0.07407 -0.103353,0 -0.177422,-0.07407 -0.07235,-0.07407 -0.07235,-0.177423 0,-0.103353 0.07235,-0.177422 0.07407,-0.07407 0.177422,-0.07407 z"
         style="stroke-width:0.26458332;fill:#404040"
         id="path5208" />
      <path
         d="m 28.252757,62.720815 q 0,-0.287665 0.213596,-0.456475 0.191203,-0.151584 0.466811,-0.151584 0.27733,0 0.468532,0.151584 0.213596,0.16881 0.213596,0.456475 v 0.196371 q 0,0.186035 -0.06373,0.323838 -0.04134,0.08785 -0.18259,0.279053 -0.06718,0.09302 -0.163642,0.211874 -0.04479,0.05512 -0.177422,0.211873 -0.110243,0.132636 -0.173978,0.213596 -0.168809,0.213596 -0.168809,0.289388 0,0.02067 0.02067,0.02067 h 0.90606 v 0.335897 h -1.391818 v -0.148139 q 0,-0.285943 0.428914,-0.816487 0.389296,-0.480591 0.425469,-0.535713 0.139527,-0.201538 0.139527,-0.387573 v -0.179145 q 0,-0.125746 -0.08785,-0.199816 -0.07924,-0.06546 -0.192925,-0.06546 -0.111966,0 -0.191203,0.06546 -0.08785,0.07407 -0.08785,0.199816 v 0.172255 h -0.401354 z"
         style="stroke-width:0.26458332;fill:#404040"
         id="path5210" />
    </g>
    <g
       aria-label="ind.2"
       style="font-style:normal;font-variant:normal;font-weight:normal;font-stretch:normal;font-size:3.52777767px;line-height:1.25;font-family:Steagisler;-inkscape-font-specification:'Steagisler, Normal';font-variant-ligatures:normal;font-variant-caps:normal;font-variant-numeric:normal;font-feature-settings:normal;text-align:center;letter-spacing:0px;word-spacing:0px;writing-mode:lr-tb;text-anchor:middle;fill:#404040;fill-opacity:1;stroke:none;stroke-width:0.26458332"
       id="text3858">
      <path
         d="m 42.245278,62.16271 q 0.105076,0 0.177423,0.07235 0.07407,0.07407 0.07407,0.177422 0,0.105075 -0.07407,0.179145 -0.07235,0.07235 -0.177423,0.07235 -0.103353,0 -0.177422,-0.07235 -0.07407,-0.07407 -0.07407,-0.179145 0,-0.103353 0.07407,-0.177422 0.07407,-0.07235 0.177422,-0.07235 z m 0.198093,2.640665 h -0.396186 v -1.572686 q 0,-0.02067 -0.02067,-0.02067 h -0.192926 v -0.301446 h 0.609782 z"
         style="stroke-width:0.26458332;fill:#404040"
         id="path5191" />
      <path
         d="m 43.318426,63.041209 q 0.0034,0.0155 0.02239,0.0155 0.0086,0 0.0155,-0.0086 0.156752,-0.179145 0.454752,-0.179145 0.284221,0 0.440972,0.16192 0.15503,0.161919 0.15503,0.447862 v 1.324639 H 44.01089 v -1.309136 q 0,-0.125746 -0.09302,-0.201538 -0.08785,-0.07062 -0.215318,-0.07062 -0.129191,0 -0.215319,0.07062 -0.09474,0.07579 -0.09474,0.201538 v 1.309136 h -0.396186 v -1.894802 h 0.291111 z"
         style="stroke-width:0.26458332;fill:#404040"
         id="path5193" />
      <path
         d="m 46.245034,64.803375 h -0.404799 q -0.02239,-0.04479 -0.03445,-0.09474 -0.0034,-0.01033 -0.0155,-0.01378 -0.0034,-0.0017 -0.0052,-0.0017 -0.0069,0 -0.01378,0.0069 -0.151585,0.151585 -0.422025,0.151585 -0.282497,0 -0.434082,-0.163642 -0.144694,-0.158475 -0.144694,-0.44614 v -0.763089 q 0,-0.285943 0.15503,-0.44614 0.156751,-0.163642 0.440972,-0.163642 0.234266,0 0.385851,0.113688 0.0052,0.0052 0.01206,0.0052 0.0034,0 0.0086,-0.0034 0.01206,-0.0052 0.01206,-0.01723 V 62.16271 H 46.1813 v 2.370225 q 0,0.124024 0.06373,0.27044 z m -0.45992,-1.309136 q 0,-0.125746 -0.09474,-0.201538 -0.08613,-0.0689 -0.215319,-0.0689 -0.127468,0 -0.215318,0.0689 -0.09302,0.07579 -0.09302,0.201538 v 0.733805 q 0,0.124024 0.09302,0.199816 0.08785,0.07062 0.215318,0.07062 0.129191,0 0.215319,-0.07062 0.09474,-0.07579 0.09474,-0.199816 z"
         style="stroke-width:0.26458332;fill:#404040"
         id="path5195" />
      <path
         d="m 46.789359,64.350345 q 0.105076,0 0.179145,0.07407 0.07235,0.07407 0.07235,0.177422 0,0.103353 -0.07235,0.177423 -0.07407,0.07407 -0.179145,0.07407 -0.103353,0 -0.177422,-0.07407 -0.07235,-0.07407 -0.07235,-0.177423 0,-0.103353 0.07235,-0.177422 0.07407,-0.07407 0.177422,-0.07407 z"
         style="stroke-width:0.26458332;fill:#404040"
         id="path5197" />
      <path
         d="m 47.402586,62.720815 q 0,-0.287665 0.213596,-0.456475 0.191203,-0.151584 0.466811,-0.151584 0.27733,0 0.468533,0.151584 0.213595,0.16881 0.213595,0.456475 v 0.196371 q 0,0.186035 -0.06373,0.323838 -0.04134,0.08785 -0.18259,0.279053 -0.06718,0.09302 -0.163642,0.211874 -0.04479,0.05512 -0.177422,0.211873 -0.110243,0.132636 -0.173978,0.213596 -0.168809,0.213596 -0.168809,0.289388 0,0.02067 0.02067,0.02067 h 0.90606 v 0.335897 h -1.391818 v -0.148139 q 0,-0.285943 0.428914,-0.816487 0.389296,-0.480591 0.425469,-0.535713 0.139527,-0.201538 0.139527,-0.387573 v -0.179145 q 0,-0.125746 -0.08785,-0.199816 -0.07924,-0.06546 -0.192925,-0.06546 -0.111966,0 -0.191203,0.06546 -0.08785,0.07407 -0.08785,0.199816 v 0.172255 h -0.401354 z"
         style="stroke-width:0.26458332;fill:#404040"
         id="path5199" />
    </g>
    <g
       aria-label="freq.3"
       style="font-style:normal;font-variant:normal;font-weight:normal;font-stretch:normal;font-size:3.52777767px;line-height:1.25;font-family:Steagisler;-inkscape-font-specification:'Steagisler, Normal';font-variant-ligatures:normal;font-variant-caps:normal;font-variant-numeric:normal;font-feature-settings:normal;text-align:center;letter-spacing:0px;word-spacing:0px;writing-mode:lr-tb;text-anchor:middle;fill:#404040;fill-opacity:1;stroke:none;stroke-width:0.26458332"
       id="text3862">
      <path
         d="M 2.9491236,86.367543 H 2.6321749 q -0.020671,0 -0.020671,0.02067 v 1.572686 h -0.396186 v -1.572686 q 0,-0.02067 -0.020671,-0.02067 H 1.9999999 v -0.301446 h 0.1946478 q 0.020671,0 0.020671,-0.02067 v -0.142971 q 0,-0.284221 0.2153185,-0.454753 0.198093,-0.155029 0.4909261,-0.155029 h 0.077515 v 0.353122 h -0.077515 q -0.1291911,0 -0.2153185,0.07062 -0.09474,0.07579 -0.09474,0.199815 v 0.129191 q 0,0.02067 0.020671,0.02067 h 0.3169487 z"
         style="stroke-width:0.26458332;fill:#404040"
         id="path5178" />
      <path
         d="m 4.0326062,86.389936 q -0.070625,-0.01378 -0.1395264,-0.01723 -0.1291911,0 -0.1860351,0.0689 -0.072347,0.0844 -0.072347,0.210151 v 1.309136 h -0.396186 v -1.894802 h 0.2911105 l 0.031006,0.132636 q 0.00345,0.0155 0.018948,0.0155 0.01378,0 0.020671,-0.01206 0.015503,-0.02584 0.032728,-0.04823 0.096463,-0.122301 0.2618273,-0.127469 0.1171332,0.0017 0.1894802,0.03962 z"
         style="stroke-width:0.26458332;fill:#404040"
         id="path5180" />
      <path
         d="m 4.7199028,87.116851 q -0.020671,0 -0.020671,0.02067 v 0.248046 q 0,0.124024 0.09474,0.199816 0.086127,0.07062 0.2153185,0.07062 0.129191,0 0.2239312,-0.0689 0.1050754,-0.07752 0.1050754,-0.201539 v -0.04134 h 0.3755154 v 0.05512 q 0,0.28422 -0.2153185,0.454752 -0.198093,0.15503 -0.4892035,0.15503 -0.2928331,0 -0.4909261,-0.15503 Q 4.3030462,87.683569 4.3030462,87.399349 V 86.63626 q 0,-0.28422 0.2153185,-0.45303 0.198093,-0.156752 0.4909261,-0.156752 0.289388,0 0.4805908,0.156752 0.2049832,0.16881 0.2049832,0.45303 v 0.480591 z m -0.020671,-0.296278 q 0,0.02067 0.020671,0.02067 h 0.5770534 q 0.020671,0 0.020671,-0.02067 v -0.16881 q 0,-0.125746 -0.093018,-0.201538 -0.08785,-0.0689 -0.2153184,-0.0689 -0.1291911,0 -0.2153185,0.0689 -0.09474,0.07579 -0.09474,0.201538 z"
         style="stroke-width:0.26458332;fill:#404040"
         id="path5182" />
      <path
         d="m 7.0901282,88.717098 v -0.80443 q 0,-0.02067 -0.022393,-0.02067 -0.00517,0 -0.010335,0.0034 -0.1515842,0.113688 -0.3858506,0.113688 -0.2842204,0 -0.4409722,-0.16192 Q 6.0738251,87.687014 6.0738251,87.399349 V 86.63626 q 0,-0.285943 0.1567519,-0.44614 0.1567518,-0.163642 0.4409722,-0.163642 0.2980007,0 0.4564751,0.180868 0.00689,0.0069 0.017226,0.0069 0.015503,0 0.018948,-0.0155 l 0.029283,-0.132636 h 0.2911106 v 2.651001 z m 0,-2.065335 q 0,-0.125746 -0.09474,-0.201538 -0.08785,-0.0689 -0.2153184,-0.0689 -0.1274686,0 -0.2153185,0.0689 -0.09474,0.07579 -0.09474,0.201538 v 0.733805 q 0,0.124024 0.09474,0.199816 0.08785,0.07062 0.2153185,0.07062 0.1274685,0 0.2153184,-0.07062 0.09474,-0.07579 0.09474,-0.199816 z"
         style="stroke-width:0.26458332;fill:#404040"
         id="path5184" />
      <path
         d="m 8.1339924,87.507869 q 0.1050754,0 0.179145,0.07407 0.072347,0.07407 0.072347,0.177422 0,0.103353 -0.072347,0.177423 -0.07407,0.07407 -0.179145,0.07407 -0.1033528,0 -0.1774224,-0.07407 -0.072347,-0.07407 -0.072347,-0.177423 0,-0.103353 0.072347,-0.177422 0.07407,-0.07407 0.1774224,-0.07407 z"
         style="stroke-width:0.26458332;fill:#404040"
         id="path5186" />
      <path
         d="m 9.1502954,87.385568 q 0,0.127469 0.098185,0.203261 0.08785,0.06718 0.2153185,0.06718 0.1274685,0 0.2153185,-0.06718 0.096463,-0.07579 0.096463,-0.203261 V 87.09618 q 0,-0.318671 -0.3117811,-0.318671 H 9.224365 v -0.279053 h 0.2377116 q 0.1188557,0 0.1980929,-0.07062 0.082682,-0.07579 0.082682,-0.194648 v -0.339342 q 0,-0.125746 -0.08785,-0.199815 -0.077515,-0.06546 -0.1912028,-0.06546 -0.1136881,0 -0.1929253,0.06546 -0.086127,0.07407 -0.086127,0.199815 v 0.172255 H 8.7833928 v -0.187758 q 0,-0.287665 0.2118733,-0.456475 0.1912028,-0.151584 0.468533,-0.151584 0.2756076,0 0.468533,0.151584 0.2118729,0.16881 0.2118729,0.456475 v 0.303169 q 0,0.298 -0.2428788,0.430637 -0.010335,0.0052 -0.010335,0.0155 v 0.0034 q 0,0.01206 0.010335,0.01722 0.2756078,0.130914 0.2756078,0.447862 v 0.303169 q 0,0.289388 -0.2222088,0.458197 -0.2015381,0.153307 -0.4909261,0.153307 -0.289388,0 -0.4909261,-0.153307 -0.2222086,-0.168809 -0.2222086,-0.458197 v -0.184313 h 0.399631 z"
         style="stroke-width:0.26458332;fill:#404040"
         id="path5188" />
    </g>
    <g
       aria-label="+cv.3"
       style="font-style:normal;font-variant:normal;font-weight:normal;font-stretch:normal;font-size:3.52777767px;line-height:1.25;font-family:Steagisler;-inkscape-font-specification:'Steagisler, Normal';font-variant-ligatures:normal;font-variant-caps:normal;font-variant-numeric:normal;font-feature-settings:normal;text-align:center;letter-spacing:0px;word-spacing:0px;writing-mode:lr-tb;text-anchor:middle;fill:#404040;fill-opacity:1;stroke:none;stroke-width:0.26458332"
       id="text3866">
      <path
         d="m 23.194496,87.132351 v 0.589111 h -0.275608 v -0.589111 h -0.590834 v -0.275608 h 0.590834 v -0.589111 h 0.275608 v 0.589111 h 0.589111 v 0.275608 z"
         style="stroke-width:0.26458332;fill:#404040"
         id="path5167" />
      <path
         d="m 25.420027,87.752468 q 0,0.28422 -0.215318,0.454752 -0.198093,0.15503 -0.490926,0.15503 -0.291111,0 -0.489204,-0.15503 -0.215318,-0.170532 -0.215318,-0.454752 v -0.763089 q 0,-0.28422 0.215318,-0.45303 0.198093,-0.156752 0.489204,-0.156752 0.29111,0 0.480591,0.156752 0.204983,0.16881 0.204983,0.45303 v 0.05684 h -0.375516 v -0.04134 q 0,-0.125746 -0.09474,-0.201538 -0.08785,-0.0689 -0.215318,-0.0689 -0.127469,0 -0.215319,0.0689 -0.09474,0.07579 -0.09474,0.201538 v 0.733805 q 0,0.124024 0.09474,0.199816 0.08785,0.07062 0.215319,0.07062 0.129191,0 0.223931,-0.0689 0.105075,-0.07751 0.105075,-0.201538 v -0.04134 h 0.377238 z"
         style="stroke-width:0.26458332;fill:#404040"
         id="path5169" />
      <path
         d="m 25.656016,86.419216 h 0.389296 l 0.310059,1.522732 q 0.0034,0.01723 0.01895,0.01723 0.01722,0 0.02067,-0.01723 l 0.310059,-1.522732 h 0.389296 l -0.45303,1.910305 h -0.532267 z"
         style="stroke-width:0.26458332;fill:#404040"
         id="path5171" />
      <path
         d="m 27.60594,87.860988 q 0.105076,0 0.179145,0.07407 0.07235,0.07407 0.07235,0.177422 0,0.103353 -0.07235,0.177423 -0.07407,0.07407 -0.179145,0.07407 -0.103352,0 -0.177422,-0.07407 -0.07235,-0.07407 -0.07235,-0.177423 0,-0.103353 0.07235,-0.177422 0.07407,-0.07407 0.177422,-0.07407 z"
         style="stroke-width:0.26458332;fill:#404040"
         id="path5173" />
      <path
         d="m 28.622243,87.738687 q 0,0.127469 0.09819,0.203261 0.08785,0.06718 0.215318,0.06718 0.127469,0 0.215319,-0.06718 0.09646,-0.07579 0.09646,-0.203261 v -0.289388 q 0,-0.318671 -0.311781,-0.318671 h -0.239434 v -0.279053 h 0.237712 q 0.118855,0 0.198093,-0.07062 0.08268,-0.07579 0.08268,-0.194648 v -0.339342 q 0,-0.125746 -0.08785,-0.199816 -0.07752,-0.06546 -0.191203,-0.06546 -0.113688,0 -0.192925,0.06546 -0.08613,0.07407 -0.08613,0.199816 v 0.172255 h -0.401353 v -0.187758 q 0,-0.287665 0.211873,-0.456475 0.191203,-0.151584 0.468533,-0.151584 0.275608,0 0.468533,0.151584 0.211873,0.16881 0.211873,0.456475 v 0.303168 q 0,0.298001 -0.242879,0.430637 -0.01033,0.0052 -0.01033,0.0155 v 0.0034 q 0,0.01206 0.01033,0.01723 0.275608,0.130914 0.275608,0.447862 v 0.303169 q 0,0.289388 -0.222209,0.458197 -0.201538,0.153307 -0.490926,0.153307 -0.289388,0 -0.490926,-0.153307 -0.222209,-0.168809 -0.222209,-0.458197 v -0.184313 h 0.399631 z"
         style="stroke-width:0.26458332;fill:#404040"
         id="path5175" />
    </g>
    <g
       aria-label="ind.3"
       style="font-style:normal;font-variant:normal;font-weight:normal;font-stretch:normal;font-size:3.52777767px;line-height:1.25;font-family:Steagisler;-inkscape-font-specification:'Steagisler, Normal';font-variant-ligatures:normal;font-variant-caps:normal;font-variant-numeric:normal;font-feature-settings:normal;text-align:center;letter-spacing:0px;word-spacing:0px;writing-mode:lr-tb;text-anchor:middle;fill:#404040;fill-opacity:1;stroke:none;stroke-width:0.26458332"
       id="text3870">
      <path
         d="m 42.21169,85.673353 q 0.105076,0 0.177423,0.07235 0.07407,0.07407 0.07407,0.177422 0,0.105075 -0.07407,0.179145 -0.07235,0.07235 -0.177423,0.07235 -0.103352,0 -0.177422,-0.07235 -0.07407,-0.07407 -0.07407,-0.179145 0,-0.103353 0.07407,-0.177422 0.07407,-0.07235 0.177422,-0.07235 z m 0.198093,2.640665 h -0.396186 v -1.572686 q 0,-0.02067 -0.02067,-0.02067 h -0.192926 v -0.301446 h 0.609782 z"
         style="stroke-width:0.26458332;fill:#404040"
         id="path5156" />
      <path
         d="m 43.284838,86.551852 q 0.0034,0.0155 0.02239,0.0155 0.0086,0 0.0155,-0.0086 0.156752,-0.179145 0.454752,-0.179145 0.284221,0 0.440972,0.16192 0.15503,0.161919 0.15503,0.447862 v 1.324639 h -0.396186 v -1.309136 q 0,-0.125746 -0.09302,-0.201538 -0.08785,-0.07062 -0.215318,-0.07062 -0.129191,0 -0.215319,0.07062 -0.09474,0.07579 -0.09474,0.201538 v 1.309136 h -0.396186 v -1.894802 h 0.291111 z"
         style="stroke-width:0.26458332;fill:#404040"
         id="path5158" />
      <path
         d="m 46.211446,88.314018 h -0.404799 q -0.02239,-0.04479 -0.03445,-0.09474 -0.0034,-0.01033 -0.0155,-0.01378 -0.0034,-0.0017 -0.0052,-0.0017 -0.0069,0 -0.01378,0.0069 -0.151585,0.151585 -0.422025,0.151585 -0.282497,0 -0.434082,-0.163642 -0.144694,-0.158475 -0.144694,-0.44614 v -0.763089 q 0,-0.285943 0.15503,-0.44614 0.156751,-0.163642 0.440972,-0.163642 0.234266,0 0.385851,0.113688 0.0052,0.0052 0.01206,0.0052 0.0034,0 0.0086,-0.0034 0.01206,-0.0052 0.01206,-0.01723 v -0.804429 h 0.396186 v 2.370225 q 0,0.124024 0.06373,0.27044 z m -0.45992,-1.309136 q 0,-0.125746 -0.09474,-0.201538 -0.08613,-0.0689 -0.215319,-0.0689 -0.127468,0 -0.215318,0.0689 -0.09302,0.07579 -0.09302,0.201538 v 0.733805 q 0,0.124024 0.09302,0.199816 0.08785,0.07062 0.215318,0.07062 0.129191,0 0.215319,-0.07062 0.09474,-0.07579 0.09474,-0.199816 z"
         style="stroke-width:0.26458332;fill:#404040"
         id="path5160" />
      <path
         d="m 46.755771,87.860988 q 0.105076,0 0.179145,0.07407 0.07235,0.07407 0.07235,0.177422 0,0.103353 -0.07235,0.177423 -0.07407,0.07407 -0.179145,0.07407 -0.103352,0 -0.177422,-0.07407 -0.07235,-0.07407 -0.07235,-0.177423 0,-0.103353 0.07235,-0.177422 0.07407,-0.07407 0.177422,-0.07407 z"
         style="stroke-width:0.26458332;fill:#404040"
         id="path5162" />
      <path
         d="m 47.772074,87.738687 q 0,0.127469 0.09819,0.203261 0.08785,0.06718 0.215318,0.06718 0.127469,0 0.215319,-0.06718 0.09646,-0.07579 0.09646,-0.203261 v -0.289388 q 0,-0.318671 -0.311781,-0.318671 h -0.239434 v -0.279053 h 0.237711 q 0.118856,0 0.198093,-0.07062 0.08268,-0.07579 0.08268,-0.194648 v -0.339342 q 0,-0.125746 -0.08785,-0.199816 -0.07751,-0.06546 -0.191203,-0.06546 -0.113688,0 -0.192925,0.06546 -0.08613,0.07407 -0.08613,0.199816 v 0.172255 h -0.401353 v -0.187758 q 0,-0.287665 0.211873,-0.456475 0.191203,-0.151584 0.468533,-0.151584 0.275608,0 0.468533,0.151584 0.211873,0.16881 0.211873,0.456475 v 0.303168 q 0,0.298001 -0.242879,0.430637 -0.01033,0.0052 -0.01033,0.0155 v 0.0034 q 0,0.01206 0.01033,0.01723 0.275608,0.130914 0.275608,0.447862 v 0.303169 q 0,0.289388 -0.222209,0.458197 -0.201538,0.153307 -0.490926,0.153307 -0.289388,0 -0.490926,-0.153307 -0.222209,-0.168809 -0.222209,-0.458197 v -0.184313 h 0.399631 z"
         style="stroke-width:0.26458332;fill:#404040"
         id="path5164" />
    </g>
    <rect
       style="opacity:1;fill:#bfbfbf;fill-opacity:1;stroke:none;stroke-width:0.26458332"
       id="rect5048"
       width="21.4"
       height="15"
       x="3"
       y="110.5"
       ry="1"
       rx="1" />
    <rect
       style="opacity:1;fill:#404040;fill-opacity:1;stroke:none;stroke-width:0.26458332"
       id="rect5048-8"
       width="21.4"
       height="15"
       x="26.4"
       y="110.5"
       ry="1"
       rx="1" />
    <g
       aria-label="ins"
       style="font-style:normal;font-variant:normal;font-weight:normal;font-stretch:normal;font-size:2.82222223px;line-height:1.25;font-family:Steagisler;-inkscape-font-specification:'Steagisler, Normal';font-variant-ligatures:normal;font-variant-caps:normal;font-variant-numeric:normal;font-feature-settings:normal;text-align:center;letter-spacing:0px;word-spacing:0px;writing-mode:lr-tb;text-anchor:middle;fill:#404040;fill-opacity:1;stroke:none;stroke-width:0.26458332"
       id="text5067">
      <path
         d="m 20.32935,122.34889 q 0.08406,0 0.141938,0.0579 0.05926,0.0593 0.05926,0.14194 0,0.0841 -0.05926,0.14332 -0.05788,0.0579 -0.141938,0.0579 -0.08268,0 -0.141938,-0.0579 -0.05925,-0.0593 -0.05925,-0.14332 0,-0.0827 0.05925,-0.14194 0.05926,-0.0579 0.141938,-0.0579 z m 0.158475,2.11253 h -0.316949 v -1.25815 q 0,-0.0165 -0.01654,-0.0165 h -0.154341 v -0.24115 h 0.487826 z"
         style="font-size:2.82222223px;fill:#404040;stroke-width:0.26458332"
         id="path5272" />
      <path
         d="m 21.187868,123.05169 q 0.0028,0.0124 0.01791,0.0124 0.0069,0 0.0124,-0.007 0.125401,-0.14332 0.363802,-0.14332 0.227376,0 0.352778,0.12954 0.124023,0.12953 0.124023,0.35829 v 1.05971 H 21.74184 v -1.04731 q 0,-0.1006 -0.07441,-0.16123 -0.07028,-0.0565 -0.172254,-0.0565 -0.103353,0 -0.172255,0.0565 -0.07579,0.0606 -0.07579,0.16123 v 1.04731 h -0.316949 v -1.51584 h 0.232888 z"
         style="font-size:2.82222223px;fill:#404040;stroke-width:0.26458332"
         id="path5274" />
      <path
         d="m 22.695442,124.01493 q 0,0.0965 0.07441,0.15159 0.06752,0.051 0.166743,0.051 0.09922,0 0.166742,-0.051 0.07441,-0.0551 0.07441,-0.15159 0,-0.10059 -0.124023,-0.1378 -0.112999,-0.0331 -0.26734,-0.062 -0.194303,-0.0469 -0.293522,-0.16261 -0.09784,-0.11713 -0.09784,-0.28801 0,-0.21635 0.166742,-0.339 0.150206,-0.11024 0.374827,-0.11024 0.22462,0 0.374826,0.11024 0.166743,0.12265 0.166743,0.339 v 0.0813 h -0.300413 v -0.0482 q 0,-0.0951 -0.07028,-0.1502 -0.06339,-0.051 -0.162608,-0.051 -0.09784,0 -0.162609,0.051 -0.07028,0.0551 -0.07028,0.1502 0,0.10198 0.124024,0.13505 0.157096,0.0413 0.267339,0.0606 0.180523,0.0386 0.285254,0.13919 0.106109,0.0992 0.106109,0.29076 0,0.24254 -0.172255,0.36656 -0.152962,0.11024 -0.377582,0.11024 -0.22462,0 -0.377583,-0.11024 -0.172254,-0.12402 -0.172254,-0.339 v -0.0841 h 0.300412 z"
         style="font-size:2.82222223px;fill:#404040;stroke-width:0.26458332"
         id="path5276" />
    </g>
    <g
       aria-label="outs"
       style="font-style:normal;font-variant:normal;font-weight:normal;font-stretch:normal;font-size:2.82222223px;line-height:1.25;font-family:Steagisler;-inkscape-font-specification:'Steagisler, Normal';font-variant-ligatures:normal;font-variant-caps:normal;font-variant-numeric:normal;font-feature-settings:normal;text-align:center;letter-spacing:0px;word-spacing:0px;writing-mode:lr-tb;text-anchor:middle;fill:#000000;fill-opacity:1;stroke:none;stroke-width:0.26458332"
       id="text5071">
      <path
         d="m 27.5,123.40171 q 0,-0.22738 0.172255,-0.36243 0.158474,-0.1254 0.391362,-0.1254 0.234267,0 0.392741,0.1254 0.172255,0.13505 0.172255,0.36243 v 0.61047 q 0,0.22737 -0.172255,0.3638 -0.158474,0.12402 -0.392741,0.12402 -0.232888,0 -0.391362,-0.12402 Q 27.5,124.23955 27.5,124.01218 Z m 0.811664,0.0124 q 0,-0.1006 -0.07579,-0.16123 -0.07028,-0.0551 -0.172255,-0.0551 -0.101974,0 -0.172254,0.0551 -0.07441,0.0606 -0.07441,0.16123 v 0.58704 q 0,0.0992 0.07441,0.15986 0.07028,0.0565 0.172254,0.0565 0.101975,0 0.172255,-0.0565 0.07579,-0.0606 0.07579,-0.15986 z"
         style="font-size:2.82222223px;fill:#bfbfbf;stroke-width:0.26458332"
         id="path5279" />
      <path
         d="m 29.787543,124.3622 q -0.0028,-0.01 -0.0124,-0.011 -0.0028,-0.001 -0.0055,-0.001 -0.0055,0 -0.0096,0.006 -0.126779,0.14469 -0.366558,0.14469 -0.227376,0 -0.352777,-0.12953 -0.124024,-0.12954 -0.124024,-0.35829 v -1.0666 h 0.316949 v 1.0542 q 0,0.10059 0.07441,0.16123 0.07028,0.0565 0.172255,0.0565 0.103353,0 0.172254,-0.0565 0.07579,-0.0606 0.07579,-0.16123 v -1.0542 h 0.316948 v 1.51584 h -0.232888 z"
         style="font-size:2.82222223px;fill:#bfbfbf;stroke-width:0.26458332"
         id="path5281" />
      <path
         d="m 30.31671,122.94558 h 0.181901 q 0.01654,0 0.01654,-0.0165 v -0.39688 h 0.316949 v 0.39688 q 0,0.0165 0.01654,0.0165 h 0.293522 v 0.24115 h -0.293522 q -0.01654,0 -0.01654,0.0165 v 0.82407 q 0.0096,0.2067 0.154341,0.2067 0.0689,0 0.155718,-0.0165 v 0.24391 q -0.106109,0.0386 -0.213596,0.0386 -0.402387,-0.001 -0.413412,-0.44648 v -0.85025 q 0,-0.0165 -0.01654,-0.0165 H 30.31671 Z"
         style="font-size:2.82222223px;fill:#bfbfbf;stroke-width:0.26458332"
         id="path5283" />
      <path
         d="m 31.704394,124.01493 q 0,0.0965 0.07441,0.15159 0.06752,0.051 0.166743,0.051 0.09922,0 0.166743,-0.051 0.07441,-0.0551 0.07441,-0.15159 0,-0.10059 -0.124024,-0.1378 -0.112999,-0.0331 -0.267339,-0.062 -0.194304,-0.0469 -0.293522,-0.16261 -0.09784,-0.11713 -0.09784,-0.28801 0,-0.21635 0.166743,-0.339 0.150206,-0.11024 0.374826,-0.11024 0.22462,0 0.374826,0.11024 0.166743,0.12265 0.166743,0.339 v 0.0813 h -0.300412 v -0.0482 q 0,-0.0951 -0.07028,-0.1502 -0.06339,-0.051 -0.162609,-0.051 -0.09784,0 -0.162608,0.051 -0.07028,0.0551 -0.07028,0.1502 0,0.10198 0.124023,0.13505 0.157097,0.0413 0.26734,0.0606 0.180523,0.0386 0.285253,0.13919 0.106109,0.0992 0.106109,0.29076 0,0.24254 -0.172254,0.36656 -0.152963,0.11024 -0.377583,0.11024 -0.22462,0 -0.377582,-0.11024 -0.172255,-0.12402 -0.172255,-0.339 v -0.0841 h 0.300412 z"
         style="font-size:2.82222223px;fill:#bfbfbf;stroke-width:0.26458332"
         id="path5285" />
    </g>
  </g>
  <g
     inkscape:groupmode="layer"
     id="layer2"
     inkscape:label="components"
     style="display:none">
    <circle
       style="opacity:1;fill:#ff0000;fill-opacity:1;stroke:none;stroke-width:0.26458332"
       id="path3920"
       cx="5.7939095"
       cy="29.281248"
       r="2.7875743"
       inkscape:label="FREQ1" />
    <circle
       style="opacity:1;fill:#ff0000;fill-opacity:1;stroke:none;stroke-width:0.26458332"
       id="path3920-9"
       cx="25.399357"
       cy="29.281248"
       r="2.7875743"
       inkscape:label="MCV1" />
    <circle
       style="opacity:1;fill:#ff00ff;fill-opacity:1;stroke:none;stroke-width:0.26458332"
       id="path3920-9-6"
       cx="45.004803"
       cy="29.281248"
       r="2.7875743"
       inkscape:label="LED1" />
    <circle
       style="opacity:1;fill:#ff0000;fill-opacity:1;stroke:none;stroke-width:0.26458332"
       id="path3920-0"
       cx="5.7939086"
       cy="52.791889"
       r="2.7875743"
       inkscape:label="FREQ2" />
    <circle
       style="opacity:1;fill:#ff0000;fill-opacity:1;stroke:none;stroke-width:0.26458332"
       id="path3920-9-60"
       cx="25.399357"
       cy="52.791889"
       r="2.7875743"
       inkscape:label="MCV2" />
    <circle
       style="opacity:1;fill:#ff00ff;fill-opacity:1;stroke:none;stroke-width:0.26458332"
       id="path3920-9-6-1"
       cx="45.004803"
       cy="52.791889"
       r="2.7875743"
       inkscape:label="LED2" />
    <circle
       style="opacity:1;fill:#ff0000;fill-opacity:1;stroke:none;stroke-width:0.26458332"
       id="path3920-0-8"
       cx="5.7939095"
       cy="76.302536"
       r="2.7875743"
       inkscape:label="FREQ3" />
    <circle
       style="opacity:1;fill:#ff0000;fill-opacity:1;stroke:none;stroke-width:0.26458332"
       id="path3920-9-60-8"
       cx="25.399355"
       cy="76.302536"
       r="2.7875743"
       inkscape:label="MCV3" />
    <circle
       style="opacity:1;fill:#ff00ff;fill-opacity:1;stroke:none;stroke-width:0.26458332"
       id="path3920-9-6-1-9"
       cx="45.004803"
       cy="76.302536"
       r="2.7875743"
       inkscape:label="LED3" />
    <circle
       style="opacity:1;fill:#00ff00;fill-opacity:1;stroke:none;stroke-width:0.26458332"
       id="path5075"
       cx="6.5"
       cy="117.5"
       r="1.5"
       inkscape:label="CV1" />
    <circle
       style="opacity:1;fill:#00ff00;fill-opacity:1;stroke:none;stroke-width:0.26458332"
       id="path5075-7"
       cx="20.9"
       cy="117.5"
       r="1.5"
       inkscape:label="CV3" />
    <circle
       style="opacity:1;fill:#00ff00;fill-opacity:1;stroke:none;stroke-width:0.26458332"
       id="path5075-7-1"
       cx="13.7"
       cy="117.5"
       r="1.5"
       inkscape:label="CV2" />
    <circle
       style="opacity:1;fill:#0000ff;fill-opacity:1;stroke:none;stroke-width:0.26458332"
       id="path5075-7-10"
       cx="29.9"
       cy="117.5"
       r="1.5"
       inkscape:label="OUT1" />
  </g>
</svg>
