<?xml version="1.0" encoding="UTF-8" standalone="no"?>
<!-- Created with Inkscape (http://www.inkscape.org/) -->

<svg
   xmlns:dc="http://purl.org/dc/elements/1.1/"
   xmlns:cc="http://creativecommons.org/ns#"
   xmlns:rdf="http://www.w3.org/1999/02/22-rdf-syntax-ns#"
   xmlns:svg="http://www.w3.org/2000/svg"
   xmlns="http://www.w3.org/2000/svg"
   xmlns:sodipodi="http://sodipodi.sourceforge.net/DTD/sodipodi-0.dtd"
   xmlns:inkscape="http://www.inkscape.org/namespaces/inkscape"
   width="12mm"
   height="12mm"
   viewBox="0 0 11.999999 12"
   version="1.1"
   id="svg111794"
   inkscape:version="0.92.1 r15371"
   sodipodi:docname="AdsynthSmallTriKnob.svg">
  <defs
     id="defs111788" />
  <sodipodi:namedview
     id="base"
     pagecolor="#ffffff"
     bordercolor="#666666"
     borderopacity="1.0"
     inkscape:pageopacity="0.0"
     inkscape:pageshadow="2"
     inkscape:zoom="11.313709"
     inkscape:cx="-2.6712241"
     inkscape:cy="17.499195"
     inkscape:document-units="mm"
     inkscape:current-layer="layer1"
     showgrid="false"
     fit-margin-top="0"
     fit-margin-left="0"
     fit-margin-right="0"
     fit-margin-bottom="0"
     inkscape:window-width="1858"
     inkscape:window-height="1057"
     inkscape:window-x="-8"
     inkscape:window-y="-8"
     inkscape:window-maximized="1"
     showguides="true"
     inkscape:guide-bbox="true"
     inkscape:snap-bbox="true"
     inkscape:bbox-paths="true"
     inkscape:bbox-nodes="true"
     inkscape:snap-bbox-edge-midpoints="true"
     inkscape:snap-bbox-midpoints="true">
    <sodipodi:guide
       position="2.1487076,9.6424747"
       orientation="0,1"
       id="guide4493"
       inkscape:locked="false"
       inkscape:label=""
       inkscape:color="rgb(0,0,255)" />
    <sodipodi:guide
       position="7.5348682,1.6424747"
       orientation="0,1"
       id="guide4495"
       inkscape:locked="false"
       inkscape:label=""
       inkscape:color="rgb(0,0,255)" />
    <sodipodi:guide
       position="0.022591549,7.6900939"
       orientation="1,0"
       id="guide4497"
       inkscape:locked="false"
       inkscape:label=""
       inkscape:color="rgb(0,0,255)" />
    <sodipodi:guide
       position="5.9999996,5.9999996"
       orientation="1,0"
       id="guide4505"
       inkscape:locked="false"
       inkscape:label=""
       inkscape:color="rgb(0,0,255)" />
    <sodipodi:guide
       position="5.9999996,5.9999996"
       orientation="0,1"
       id="guide4507"
       inkscape:locked="false"
       inkscape:label=""
       inkscape:color="rgb(0,0,255)" />
    <sodipodi:guide
       position="3.8896115,9.421845"
       orientation="1,0"
       id="guide4556"
       inkscape:locked="false" />
    <sodipodi:guide
       position="4.1555715,9.4466497"
       orientation="1,0"
       id="guide4558"
       inkscape:locked="false" />
    <sodipodi:guide
       position="3.0225915,3.0339468"
       orientation="1,0"
       inkscape:locked="false"
       id="guide4494"
       inkscape:label=""
       inkscape:color="rgb(0,0,255)" />
    <sodipodi:guide
       position="5.0225915,2.8877837"
       orientation="1,0"
       inkscape:locked="false"
       id="guide4496"
       inkscape:label=""
       inkscape:color="rgb(0,0,255)" />
    <sodipodi:guide
       position="4.6588825,2.0166521"
       orientation="0,1"
       inkscape:locked="false"
       id="guide4498" />
  </sodipodi:namedview>
  <metadata
     id="metadata111791">
    <rdf:RDF>
      <cc:Work
         rdf:about="">
        <dc:format>image/svg+xml</dc:format>
        <dc:type
           rdf:resource="http://purl.org/dc/dcmitype/StillImage" />
        <dc:title></dc:title>
      </cc:Work>
    </rdf:RDF>
  </metadata>
  <g
     inkscape:label="Layer 1"
     inkscape:groupmode="layer"
     id="layer1"
     transform="translate(-168.07053,-65.038586)"
     style="display:inline">
    <path
       sodipodi:type="star"
       style="opacity:1;fill:#1a1a1a;fill-opacity:1;stroke:none;stroke-width:0.40000004;stroke-linecap:butt;stroke-miterlimit:4;stroke-dasharray:none;stroke-dashoffset:0;stroke-opacity:1;paint-order:normal"
       id="path4509"
       sodipodi:sides="18"
       sodipodi:cx="174.07053"
       sodipodi:cy="71.038586"
       sodipodi:r1="3.9576828"
       sodipodi:r2="4.0800853"
       sodipodi:arg1="3.5249582e-016"
       sodipodi:arg2="0.17453293"
       inkscape:flatsided="false"
       inkscape:rounded="0.2"
       inkscape:randomized="0"
       d="m 178.02821,71.038589 c 0,0.142215 0.0851,0.568446 0.0604,0.7085 -0.0247,0.140053 -0.25046,0.51147 -0.2991,0.645108 -0.0486,0.133637 -0.11444,0.563274 -0.18555,0.686435 -0.0711,0.123161 -0.41028,0.394965 -0.50169,0.503907 -0.0914,0.108942 -0.30019,0.490164 -0.40914,0.581577 -0.10894,0.09141 -0.52062,0.23082 -0.64378,0.301927 -0.12316,0.07111 -0.44973,0.357932 -0.58337,0.406573 -0.13364,0.04864 -0.56818,0.03884 -0.70823,0.06353 -0.14005,0.0247 -0.54503,0.182529 -0.68724,0.182529 -0.14222,0 -0.54719,-0.157834 -0.68725,-0.182529 -0.14005,-0.02469 -0.57459,-0.01489 -0.70823,-0.06353 -0.13363,-0.04864 -0.4602,-0.335465 -0.58337,-0.406572 -0.12316,-0.07111 -0.53484,-0.210513 -0.64378,-0.301927 -0.10894,-0.09141 -0.31772,-0.472635 -0.40913,-0.581577 -0.0914,-0.108942 -0.43059,-0.380746 -0.5017,-0.503907 -0.0711,-0.123161 -0.13691,-0.552798 -0.18555,-0.686435 -0.0486,-0.133638 -0.2744,-0.505055 -0.29909,-0.645108 -0.0247,-0.140054 0.0604,-0.566285 0.0604,-0.7085 0,-0.142214 -0.0851,-0.568445 -0.0604,-0.708499 0.0247,-0.140053 0.25045,-0.51147 0.29909,-0.645108 0.0486,-0.133637 0.11444,-0.563274 0.18555,-0.686435 0.0711,-0.123161 0.41028,-0.394965 0.5017,-0.503907 0.0914,-0.108942 0.30019,-0.490164 0.40913,-0.581577 0.10894,-0.09141 0.52062,-0.23082 0.64378,-0.301927 0.12317,-0.07111 0.44974,-0.357932 0.58337,-0.406573 0.13364,-0.04864 0.56818,-0.03883 0.70823,-0.06353 0.14006,-0.0247 0.54503,-0.182529 0.68725,-0.182529 0.14221,0 0.54719,0.157833 0.68724,0.182529 0.14005,0.0247 0.57459,0.01489 0.70823,0.06353 0.13364,0.04864 0.46021,0.335466 0.58337,0.406573 0.12316,0.07111 0.53484,0.210513 0.64378,0.301927 0.10895,0.09141 0.31772,0.472635 0.40914,0.581577 0.0914,0.108942 0.43059,0.380746 0.50169,0.503907 0.0711,0.123161 0.13691,0.552798 0.18555,0.686435 0.0486,0.133638 0.2744,0.505055 0.2991,0.645108 0.0247,0.140054 -0.0604,0.566285 -0.0604,0.708499 z" />
    <path
       style="fill:#000000;fill-opacity:1;stroke:#1a1a1a;stroke-width:0.26458332;stroke-linecap:round;stroke-linejoin:bevel;stroke-opacity:1;stroke-miterlimit:4;stroke-dasharray:none;stroke-dashoffset:0;paint-order:markers fill stroke"
       d="m 174.07052,65.333005 c -1.19866,3.568496 -2.00446,7.168126 -1.4264,10.877439 0.94184,0.306067 1.89246,0.316576 2.85279,0 0.57705,-3.701854 -0.22475,-7.30409 -1.42639,-10.877439 z"
       id="path4504"
       inkscape:connector-curvature="0"
       sodipodi:nodetypes="cccc" />
    <path
       sodipodi:type="star"
       style="opacity:0.97000002;fill:#000000;fill-opacity:1;stroke:none;stroke-width:0.40000004;stroke-linecap:butt;stroke-miterlimit:4;stroke-dasharray:none;stroke-dashoffset:0;stroke-opacity:1;paint-order:normal"
       id="path4509-0"
       sodipodi:sides="18"
       sodipodi:cx="174.07053"
       sodipodi:cy="71.038586"
       sodipodi:r1="3.1416092"
       sodipodi:r2="3.2387719"
       sodipodi:arg1="3.5249582e-016"
       sodipodi:arg2="0.17453293"
       inkscape:flatsided="false"
       inkscape:rounded="0.2"
       inkscape:randomized="0"
       d="m 177.21214,71.038589 c 0,0.11289 0.0676,0.451233 0.0479,0.562407 -0.0196,0.111175 -0.19881,0.406006 -0.23742,0.512087 -0.0386,0.106082 -0.0908,0.447127 -0.14729,0.544892 -0.0564,0.09777 -0.32568,0.313524 -0.39824,0.400002 -0.0726,0.08648 -0.23829,0.389092 -0.32477,0.461656 -0.0865,0.07256 -0.41327,0.183225 -0.51104,0.23967 -0.0978,0.05644 -0.357,0.284126 -0.46308,0.322737 -0.10608,0.03861 -0.45101,0.03083 -0.56219,0.05043 -0.11117,0.0196 -0.43264,0.14489 -0.54553,0.14489 -0.11289,0 -0.43436,-0.125287 -0.54554,-0.14489 -0.11117,-0.0196 -0.45611,-0.01182 -0.56219,-0.05043 -0.10608,-0.03861 -0.36531,-0.266292 -0.46308,-0.322737 -0.0978,-0.05644 -0.42456,-0.167106 -0.51104,-0.23967 -0.0865,-0.07256 -0.2522,-0.375178 -0.32477,-0.461656 -0.0726,-0.08648 -0.3418,-0.302236 -0.39824,-0.400002 -0.0565,-0.09776 -0.10868,-0.43881 -0.14729,-0.544892 -0.0386,-0.106081 -0.21782,-0.400912 -0.23742,-0.512087 -0.0196,-0.111174 0.048,-0.449517 0.048,-0.562407 0,-0.112889 -0.0676,-0.451232 -0.048,-0.562406 0.0196,-0.111175 0.19881,-0.406006 0.23742,-0.512087 0.0386,-0.106082 0.0908,-0.447127 0.14729,-0.544892 0.0564,-0.09777 0.32568,-0.313524 0.39824,-0.400002 0.0726,-0.08648 0.2383,-0.389092 0.32477,-0.461656 0.0865,-0.07256 0.41328,-0.183225 0.51104,-0.23967 0.0978,-0.05644 0.357,-0.284126 0.46308,-0.322737 0.10608,-0.03861 0.45102,-0.03083 0.56219,-0.05043 0.11118,-0.0196 0.43265,-0.14489 0.54554,-0.14489 0.11289,0 0.43436,0.125287 0.54553,0.14489 0.11118,0.0196 0.45611,0.01182 0.56219,0.05043 0.10608,0.03861 0.36532,0.266292 0.46308,0.322737 0.0978,0.05644 0.42456,0.167106 0.51104,0.23967 0.0865,0.07256 0.2522,0.375178 0.32477,0.461656 0.0726,0.08648 0.3418,0.302236 0.39824,0.400002 0.0564,0.09777 0.10868,0.43881 0.14729,0.544892 0.0386,0.106081 0.21782,0.400912 0.23742,0.512087 0.0196,0.111174 -0.0479,0.449517 -0.0479,0.562406 z" />
    <path
       inkscape:connector-curvature="0"
       style="fill:#b3b3b3;fill-opacity:1;fill-rule:evenodd;stroke:none;stroke-width:0.35277775"
       d="m 174.16347,65.286813 c -0.0298,-0.006 -0.0606,-0.01587 -0.0924,-0.01587 -0.0318,0 -0.0626,0.0093 -0.0934,0.01515 v 0.578582 l 0.1859,-0.0016 z"
       id="path110600-0"
       sodipodi:nodetypes="cscccc" />
    <path
       inkscape:connector-curvature="0"
       style="fill:#f2f2f2;fill-opacity:1;fill-rule:evenodd;stroke:none;stroke-width:0.35277775"
       d="m 174.16347,65.863053 c -0.0298,-0.006 -0.0608,-0.01804 -0.0926,-0.01804 -0.0318,0 -0.0625,0.01369 -0.0933,0.01966 l -1.6e-4,2.237409 h 0.18589 z"
       id="path110600"
       sodipodi:nodetypes="cscccc" />
  </g>
</svg>
