<?xml version="1.0" encoding="UTF-8" standalone="no"?>
<!-- Created with Inkscape (http://www.inkscape.org/) -->

<svg
   xmlns:dc="http://purl.org/dc/elements/1.1/"
   xmlns:cc="http://creativecommons.org/ns#"
   xmlns:rdf="http://www.w3.org/1999/02/22-rdf-syntax-ns#"
   xmlns:svg="http://www.w3.org/2000/svg"
   xmlns="http://www.w3.org/2000/svg"
   xmlns:sodipodi="http://sodipodi.sourceforge.net/DTD/sodipodi-0.dtd"
   xmlns:inkscape="http://www.inkscape.org/namespaces/inkscape"
   width="12mm"
   height="12mm"
   viewBox="0 0 11.999999 12"
   version="1.1"
   id="svg111794"
   inkscape:version="0.92.1 r15371"
   sodipodi:docname="AdsynthBigKnobRed.svg">
  <defs
     id="defs111788" />
  <sodipodi:namedview
     id="base"
     pagecolor="#ffffff"
     bordercolor="#666666"
     borderopacity="1.0"
     inkscape:pageopacity="0.0"
     inkscape:pageshadow="2"
     inkscape:zoom="11.313709"
     inkscape:cx="-9.6554126"
     inkscape:cy="33.101926"
     inkscape:document-units="mm"
     inkscape:current-layer="layer1"
     showgrid="false"
     fit-margin-top="0"
     fit-margin-left="0"
     fit-margin-right="0"
     fit-margin-bottom="0"
     inkscape:window-width="1857"
     inkscape:window-height="1057"
     inkscape:window-x="-8"
     inkscape:window-y="-8"
     inkscape:window-maximized="1"
     showguides="true"
     inkscape:guide-bbox="true"
     inkscape:snap-bbox="true"
     inkscape:bbox-paths="true"
     inkscape:bbox-nodes="true"
     inkscape:snap-bbox-edge-midpoints="true"
     inkscape:snap-bbox-midpoints="true"
     inkscape:snap-global="false">
    <sodipodi:guide
       position="4.3280818,9.9241796"
       orientation="0,1"
       id="guide4493"
       inkscape:locked="false"
       inkscape:label=""
       inkscape:color="rgb(0,0,255)" />
    <sodipodi:guide
       position="9.7142421,1.92418"
       orientation="0,1"
       id="guide4495"
       inkscape:locked="false"
       inkscape:label=""
       inkscape:color="rgb(0,0,255)" />
    <sodipodi:guide
       position="2.2019658,7.9717989"
       orientation="1,0"
       id="guide4497"
       inkscape:locked="false"
       inkscape:label=""
       inkscape:color="rgb(0,0,255)" />
    <sodipodi:guide
       position="6.2019657,5.9241798"
       orientation="1,0"
       id="guide4505"
       inkscape:locked="false"
       inkscape:label=""
       inkscape:color="rgb(0,0,255)" />
    <sodipodi:guide
       position="6.2019657,5.9241798"
       orientation="0,1"
       id="guide4507"
       inkscape:locked="false"
       inkscape:label=""
       inkscape:color="rgb(0,0,255)" />
    <sodipodi:guide
       position="6.0689856,9.7035499"
       orientation="1,0"
       id="guide4556"
       inkscape:locked="false" />
    <sodipodi:guide
       position="6.3349456,9.7283546"
       orientation="1,0"
       id="guide4558"
       inkscape:locked="false" />
  </sodipodi:namedview>
  <metadata
     id="metadata111791">
    <rdf:RDF>
      <cc:Work
         rdf:about="">
        <dc:format>image/svg+xml</dc:format>
        <dc:type
           rdf:resource="http://purl.org/dc/dcmitype/StillImage" />
        <dc:title></dc:title>
      </cc:Work>
    </rdf:RDF>
  </metadata>
  <g
     inkscape:label="Layer 1"
     inkscape:groupmode="layer"
     id="layer1"
     transform="translate(-165.89115,-65.320293)">
    <path
       sodipodi:type="star"
       style="opacity:0.97000002;fill:#852727;fill-opacity:1;stroke:none;stroke-width:0.2647813;stroke-linecap:butt;stroke-miterlimit:4;stroke-dasharray:none;stroke-dashoffset:0;stroke-opacity:1;paint-order:normal"
       id="path4509"
       sodipodi:sides="18"
       sodipodi:cx="172.09312"
       sodipodi:cy="71.396111"
       sodipodi:r1="3.8799999"
       sodipodi:r2="3.9999998"
       sodipodi:arg1="3.5249582e-016"
       sodipodi:arg2="0.17453293"
       inkscape:flatsided="false"
       inkscape:rounded="0.2"
       inkscape:randomized="0"
       d="m 175.97312,71.396111 c 0,0.139422 0.0834,0.557288 0.0592,0.694592 -0.0242,0.137305 -0.24554,0.501431 -0.29323,0.632446 -0.0477,0.131014 -0.11219,0.552218 -0.1819,0.672961 -0.0697,0.120744 -0.40223,0.387212 -0.49185,0.494016 -0.0896,0.106804 -0.2943,0.480543 -0.40111,0.570162 -0.1068,0.08962 -0.5104,0.22629 -0.63115,0.296001 -0.12074,0.06971 -0.4409,0.350906 -0.57192,0.398592 -0.13101,0.04769 -0.55702,0.03807 -0.69432,0.06228 -0.13731,0.02421 -0.53433,0.178946 -0.67376,0.178946 -0.13942,0 -0.53645,-0.154735 -0.67375,-0.178946 -0.13731,-0.02421 -0.56331,-0.0146 -0.69433,-0.06228 -0.13101,-0.04769 -0.45117,-0.328881 -0.57192,-0.398592 -0.12074,-0.06971 -0.52434,-0.206382 -0.63115,-0.296001 -0.1068,-0.08962 -0.31148,-0.463358 -0.4011,-0.570162 -0.0896,-0.106804 -0.42214,-0.373272 -0.49185,-0.494016 -0.0697,-0.120743 -0.13422,-0.541947 -0.1819,-0.672961 -0.0477,-0.131015 -0.26902,-0.495141 -0.29323,-0.632446 -0.0242,-0.137304 0.0592,-0.55517 0.0592,-0.694592 0,-0.139423 -0.0834,-0.557289 -0.0592,-0.694593 0.0242,-0.137305 0.24554,-0.501431 0.29323,-0.632446 0.0477,-0.131014 0.11219,-0.552218 0.1819,-0.672961 0.0697,-0.120744 0.40223,-0.387212 0.49185,-0.494016 0.0896,-0.106804 0.2943,-0.480543 0.4011,-0.570162 0.10681,-0.08962 0.51041,-0.22629 0.63115,-0.296001 0.12075,-0.06971 0.44091,-0.350906 0.57192,-0.398592 0.13102,-0.04769 0.55702,-0.03807 0.69433,-0.06228 0.1373,-0.02421 0.53433,-0.178946 0.67375,-0.178946 0.13943,0 0.53645,0.154735 0.67376,0.178946 0.1373,0.02421 0.56331,0.0146 0.69432,0.06228 0.13102,0.04769 0.45118,0.328881 0.57192,0.398592 0.12075,0.06971 0.52435,0.206382 0.63115,0.296001 0.10681,0.08962 0.31149,0.463358 0.40111,0.570162 0.0896,0.106804 0.42213,0.373272 0.49185,0.494016 0.0697,0.120743 0.13422,0.541947 0.1819,0.672961 0.0477,0.131015 0.26901,0.495141 0.29323,0.632446 0.0242,0.137304 -0.0592,0.55517 -0.0592,0.694593 z"
       transform="matrix(1.521438,0,0,1.4999996,-89.937865,-35.773843)" />
    <path
       sodipodi:type="star"
       style="opacity:0.97000002;fill:#e6e6e6;fill-opacity:1;stroke:none;stroke-width:0.28819573;stroke-linecap:butt;stroke-miterlimit:4;stroke-dasharray:none;stroke-dashoffset:0;stroke-opacity:1;paint-order:normal"
       id="path4509-0"
       sodipodi:sides="18"
       sodipodi:cx="172.09312"
       sodipodi:cy="71.396111"
       sodipodi:r1="3.4221601"
       sodipodi:r2="3.5279996"
       sodipodi:arg1="3.5249582e-016"
       sodipodi:arg2="0.17453293"
       inkscape:flatsided="false"
       inkscape:rounded="0.2"
       inkscape:randomized="0"
       d="m 175.51528,71.396111 c 0,0.12297 0.0736,0.491528 0.0523,0.61263 -0.0214,0.121103 -0.21657,0.442262 -0.25863,0.557817 -0.0421,0.115555 -0.099,0.487057 -0.16044,0.593552 -0.0615,0.106496 -0.35476,0.341522 -0.43381,0.435723 -0.079,0.0942 -0.25957,0.423838 -0.35377,0.502882 -0.0942,0.07904 -0.45018,0.199588 -0.55668,0.261073 -0.10649,0.06149 -0.38887,0.309499 -0.50443,0.351558 -0.11555,0.04206 -0.49129,0.03358 -0.61239,0.05493 -0.12111,0.02135 -0.47128,0.15783 -0.59426,0.15783 -0.12297,0 -0.47314,-0.136476 -0.59425,-0.15783 -0.1211,-0.02135 -0.49684,-0.01288 -0.61239,-0.05493 -0.11556,-0.04206 -0.39794,-0.290072 -0.50444,-0.351558 -0.10649,-0.06148 -0.46247,-0.182029 -0.55667,-0.261073 -0.0942,-0.07904 -0.27473,-0.408681 -0.35377,-0.502882 -0.079,-0.0942 -0.37233,-0.329227 -0.43381,-0.435723 -0.0615,-0.106496 -0.11839,-0.477997 -0.16044,-0.593552 -0.0421,-0.115555 -0.23727,-0.436714 -0.25863,-0.557817 -0.0213,-0.121102 0.0522,-0.48966 0.0522,-0.61263 0,-0.122971 -0.0736,-0.491529 -0.0522,-0.612631 0.0214,-0.121103 0.21657,-0.442262 0.25863,-0.557817 0.042,-0.115555 0.099,-0.487056 0.16044,-0.593552 0.0615,-0.106496 0.35476,-0.341522 0.43381,-0.435723 0.079,-0.0942 0.25957,-0.423838 0.35377,-0.502882 0.0942,-0.07904 0.45018,-0.199588 0.55667,-0.261073 0.1065,-0.06149 0.38888,-0.309499 0.50444,-0.351558 0.11555,-0.04206 0.49129,-0.03358 0.61239,-0.05493 0.12111,-0.02135 0.47128,-0.15783 0.59425,-0.15783 0.12298,0 0.47315,0.136476 0.59426,0.15783 0.1211,0.02135 0.49684,0.01288 0.61239,0.05493 0.11556,0.04206 0.39794,0.290073 0.50443,0.351558 0.1065,0.06148 0.46248,0.182029 0.55668,0.261073 0.0942,0.07904 0.27473,0.408681 0.35377,0.502882 0.079,0.0942 0.37233,0.329227 0.43381,0.435723 0.0615,0.106496 0.11838,0.477997 0.16044,0.593552 0.0421,0.115555 0.23727,0.436714 0.25863,0.557817 0.0213,0.121102 -0.0523,0.48966 -0.0523,0.612631 z"
       transform="matrix(1.3978289,0,0,1.3781323,-68.665589,-27.072989)" />
    <path
       inkscape:connector-curvature="0"
       style="fill:#b3b3b3;fill-opacity:1;fill-rule:evenodd;stroke:none;stroke-width:0.35277775"
       d="m 172.09347,65.357715 c -0.065,-0.022 -0.13206,-0.05808 -0.20127,-0.05808 -0.0692,0 -0.13632,0.03368 -0.20337,0.05544 l -3.5e-4,1.212732 h 0.40464 z"
       id="path110600-0"
       sodipodi:nodetypes="cscccc" />
    <path
       inkscape:connector-curvature="0"
       style="fill:#852727;fill-opacity:1;fill-rule:evenodd;stroke:none;stroke-width:0.35277775"
       d="m 172.09312,66.491004 c -0.065,-0.01187 -0.13206,-0.03276 -0.20127,-0.03276 -0.0692,0 -0.13632,0.02103 -0.20337,0.03276 v 4.905108 h 0.40464 z"
       id="path110600"
       sodipodi:nodetypes="cscccc" />
  </g>
</svg>
