<?xml version="1.0" encoding="UTF-8" standalone="no"?>
<!-- Created with Inkscape (http://www.inkscape.org/) -->

<svg
   xmlns:dc="http://purl.org/dc/elements/1.1/"
   xmlns:cc="http://creativecommons.org/ns#"
   xmlns:rdf="http://www.w3.org/1999/02/22-rdf-syntax-ns#"
   xmlns:svg="http://www.w3.org/2000/svg"
   xmlns="http://www.w3.org/2000/svg"
   xmlns:sodipodi="http://sodipodi.sourceforge.net/DTD/sodipodi-0.dtd"
   xmlns:inkscape="http://www.inkscape.org/namespaces/inkscape"
   width="21mm"
   height="21mm"
   viewBox="0 0 20.999998 21"
   version="1.1"
   id="svg111794"
   inkscape:version="0.92.1 r15371"
   sodipodi:docname="AdsynthVUmask.svg">
  <defs
     id="defs111788">
    <inkscape:path-effect
       effect="bspline"
       id="path-effect4593"
       is_visible="true"
       weight="33.333333"
       steps="2"
       helper_size="0"
       apply_no_weight="true"
       apply_with_weight="true"
       only_selected="false" />
    <inkscape:path-effect
       effect="ruler"
       id="path-effect4574"
       is_visible="true"
       unit="px"
       mark_distance="1"
       mark_length="1"
       minor_mark_length="1"
       major_mark_steps="5"
       shift="0"
       offset="9"
       mark_dir="right"
       border_marks="none" />
    <inkscape:path-effect
       effect="bspline"
       id="path-effect4572"
       is_visible="true"
       weight="33.333333"
       steps="2"
       helper_size="0"
       apply_no_weight="true"
       apply_with_weight="true"
       only_selected="false" />
  </defs>
  <sodipodi:namedview
     id="base"
     pagecolor="#ffffff"
     bordercolor="#666666"
     borderopacity="1.0"
     inkscape:pageopacity="0.0"
     inkscape:pageshadow="2"
     inkscape:zoom="11.313709"
     inkscape:cx="23.273613"
     inkscape:cy="42.283892"
     inkscape:document-units="mm"
     inkscape:current-layer="layer1"
     showgrid="false"
     fit-margin-top="0"
     fit-margin-left="0"
     fit-margin-right="0"
     fit-margin-bottom="0"
     inkscape:window-width="1858"
     inkscape:window-height="1057"
     inkscape:window-x="-8"
     inkscape:window-y="-8"
     inkscape:window-maximized="1"
     showguides="true"
     inkscape:guide-bbox="true"
     inkscape:snap-bbox="true"
     inkscape:bbox-paths="true"
     inkscape:bbox-nodes="true"
     inkscape:snap-bbox-edge-midpoints="true"
     inkscape:snap-bbox-midpoints="true"
     inkscape:snap-global="true">
    <sodipodi:guide
       position="10.499999,10.499999"
       orientation="1,0"
       id="guide4505"
       inkscape:locked="false"
       inkscape:label=""
       inkscape:color="rgb(0,0,255)" />
    <sodipodi:guide
       position="10.499999,10.499999"
       orientation="0,1"
       id="guide4507"
       inkscape:locked="false"
       inkscape:label=""
       inkscape:color="rgb(0,0,255)" />
    <sodipodi:guide
       position="10.500133,4.7228294"
       orientation="0,1"
       id="guide4546"
       inkscape:locked="false" />
    <sodipodi:guide
       position="10.499999,0.17740412"
       orientation="-0.8660254,-0.5"
       id="guide4578"
       inkscape:locked="false"
       inkscape:label=""
       inkscape:color="rgb(0,0,255)" />
    <sodipodi:guide
       position="10.499999,0.17740412"
       orientation="-0.8660254,0.5"
       id="guide4580"
       inkscape:locked="false"
       inkscape:label=""
       inkscape:color="rgb(0,0,255)" />
    <sodipodi:guide
       position="2.7629268,13.578407"
       orientation="1,0"
       id="guide4586"
       inkscape:locked="false" />
    <sodipodi:guide
       position="10.499999,18.237073"
       orientation="0,1"
       id="guide4589"
       inkscape:locked="false" />
    <sodipodi:guide
       position="10.499999,0.17740413"
       orientation="0,1"
       id="guide4649"
       inkscape:locked="false" />
    <sodipodi:guide
       position="9.9999995,2.0659275"
       orientation="1,0"
       id="guide4759"
       inkscape:locked="false"
       inkscape:label=""
       inkscape:color="rgb(0,0,255)" />
    <sodipodi:guide
       position="10.999999,0.029232603"
       orientation="1,0"
       id="guide4761"
       inkscape:locked="false"
       inkscape:label=""
       inkscape:color="rgb(0,0,255)" />
  </sodipodi:namedview>
  <metadata
     id="metadata111791">
    <rdf:RDF>
      <cc:Work
         rdf:about="">
        <dc:format>image/svg+xml</dc:format>
        <dc:type
           rdf:resource="http://purl.org/dc/dcmitype/StillImage" />
        <dc:title></dc:title>
      </cc:Work>
    </rdf:RDF>
  </metadata>
  <g
     inkscape:label="Layer 1"
     inkscape:groupmode="layer"
     id="layer1"
     transform="translate(-162.056,-60.622038)"
     style="display:inline">
    <path
       style="opacity:1;fill:#999999;fill-opacity:1;stroke:none;stroke-width:1.13385832;stroke-linecap:round;stroke-linejoin:round;stroke-miterlimit:4;stroke-dasharray:none;stroke-dashoffset:0;stroke-opacity:1;paint-order:normal"
       d="M 67.777344,60.931641 A 35.265619,35.265619 0 0 0 67.308594,60.277344 35.265619,35.265619 0 0 0 64.982422,57.628906 35.265619,35.265619 0 0 0 62.404297,55.226562 35.265619,35.265619 0 0 0 59.597656,53.091797 35.265619,35.265619 0 0 0 56.591797,51.25 a 35.265619,35.265619 0 0 0 -3.173828,-1.533203 35.265619,35.265619 0 0 0 -3.310547,-1.208985 35.265619,35.265619 0 0 0 -3.416016,-0.871093 35.265619,35.265619 0 0 0 -3.486328,-0.527344 35.265619,35.265619 0 0 0 -3.519531,-0.175781 35.265619,35.265619 0 0 0 -2.494141,0.08789 35.265619,35.265619 0 0 0 -3.5,0.423828 35.265619,35.265619 0 0 0 -3.439453,0.773438 35.265619,35.265619 0 0 0 -3.345703,1.111328 35.265619,35.265619 0 0 0 -3.216797,1.439453 35.265619,35.265619 0 0 0 -3.058594,1.753907 35.265619,35.265619 0 0 0 -2.867187,2.050781 35.265619,35.265619 0 0 0 -2.648438,2.326172 35.265619,35.265619 0 0 0 -2.402343,2.580078 35.265619,35.265619 0 0 0 -1.121094,1.472656 35.265619,35.265619 0 0 0 28.09375,13.998047 35.265619,35.265619 0 0 0 28.091797,-14.019531 z"
       id="path4535"
       transform="matrix(0.26458333,0,0,0.26458333,162.056,60.622038)"
       inkscape:connector-curvature="0" />
    <path
       style="opacity:1;fill:#e6e6e6;fill-opacity:1;stroke:#bbbbbb;stroke-width:0.75590551;stroke-linecap:round;stroke-linejoin:round;stroke-miterlimit:4;stroke-dasharray:none;stroke-dashoffset:0;stroke-opacity:1;paint-order:normal"
       d="M 39.685547 1.2382812 A 38.4476 38.4476 0 0 0 1.2382812 39.685547 A 38.4476 38.4476 0 0 0 39.685547 78.132812 A 38.4476 38.4476 0 0 0 78.132812 39.685547 A 38.4476 38.4476 0 0 0 39.685547 1.2382812 z M 39.685547 7.5351562 A 31.377445 31.37909 0 0 1 71.0625 38.914062 A 31.377445 31.37909 0 0 1 69.990234 46.919922 A 45.92034 32.761135 0 0 0 39.685547 38.708984 A 45.92034 32.761135 0 0 0 9.3945312 46.910156 A 31.377445 31.37909 0 0 1 8.3085938 38.914062 A 31.377445 31.37909 0 0 1 39.685547 7.5351562 z "
       transform="matrix(0.26458333,0,0,0.26458333,162.056,60.622038)"
       id="path4499" />
    <path
       style="opacity:1;fill:none;fill-opacity:1;stroke:#dcd2a3;stroke-width:0.80000001;stroke-linecap:round;stroke-linejoin:round;stroke-miterlimit:4;stroke-dasharray:none;stroke-dashoffset:0;stroke-opacity:1;paint-order:normal"
       d="m 172.55613,61.754785 c -5.14153,-7.5e-5 -9.30958,4.167978 -9.30951,9.309509 1.3e-4,2.097025 0.70827,4.132586 2.0097,5.776908 4.33509,-1.643894 8.89876,-2.57518 14.58722,0 1.3057,-1.642755 2.01808,-3.678464 2.02159,-5.776908 7e-5,-5.141329 -4.16767,-9.309298 -9.309,-9.309509 z"
       id="path4716"
       inkscape:connector-curvature="0"
       sodipodi:nodetypes="cccccc" />
    <path
       style="opacity:1;fill:#f9f9f9;fill-opacity:1;stroke:#dcd2a3;stroke-width:0.30000001;stroke-linecap:round;stroke-linejoin:round;stroke-miterlimit:4;stroke-dasharray:none;stroke-dashoffset:0;stroke-opacity:1;paint-order:normal"
       d="m 167.62267,73.18988 c 3.16493,-1.046731 6.43566,-1.200045 9.86666,0 0.52294,0.182905 1,0.446001 1,1.000001 v 3.687102 c 0,0.554 -0.45888,0.881246 -1,1.000001 -3.431,0.75297 -6.70173,0.656773 -9.86666,0 -0.54244,-0.112565 -1,-0.446001 -1,-1.000001 v -3.687102 c 0,-0.554 0.47402,-0.826045 1,-1.000001 z"
       id="rect4725"
       inkscape:connector-curvature="0"
       sodipodi:nodetypes="sssssssss" />
    <text
       xml:space="preserve"
       style="font-style:normal;font-variant:normal;font-weight:normal;font-stretch:normal;font-size:3.52777767px;line-height:0.80000001;font-family:Steagisler;-inkscape-font-specification:Steagisler;font-variant-ligatures:normal;font-variant-caps:normal;font-variant-numeric:normal;font-feature-settings:normal;text-align:center;letter-spacing:0px;word-spacing:0px;writing-mode:lr-tb;text-anchor:middle;fill:#666666;fill-opacity:1;stroke:none;stroke-width:0.26458332"
       x="172.556"
       y="77.428375"
       id="text4749"><tspan
         sodipodi:role="line"
         id="tspan4747"
         x="172.556"
         y="77.428375"
         style="fill:#666666;fill-opacity:1;stroke-width:0.26458332">VU/dB</tspan></text>
  </g>
  <g
     inkscape:groupmode="layer"
     id="layer2"
     inkscape:label="Layer 2"
     style="display:inline" />
  <g
     inkscape:groupmode="layer"
     id="layer3"
     inkscape:label="tick"
     style="display:inline" />
  <g
     inkscape:groupmode="layer"
     id="layer4"
     inkscape:label="mask" />
</svg>
