<?xml version="1.0" encoding="UTF-8" standalone="no"?>
<!-- Created with Inkscape (http://www.inkscape.org/) -->

<svg
   xmlns:dc="http://purl.org/dc/elements/1.1/"
   xmlns:cc="http://creativecommons.org/ns#"
   xmlns:rdf="http://www.w3.org/1999/02/22-rdf-syntax-ns#"
   xmlns:svg="http://www.w3.org/2000/svg"
   xmlns="http://www.w3.org/2000/svg"
   xmlns:sodipodi="http://sodipodi.sourceforge.net/DTD/sodipodi-0.dtd"
   xmlns:inkscape="http://www.inkscape.org/namespaces/inkscape"
   width="3.9999998mm"
   height="4.0000033mm"
   viewBox="0 0 3.9999995 4.0000033"
   version="1.1"
   id="svg111794"
   inkscape:version="0.92.1 r15371"
   sodipodi:docname="AdsynthTrimpot.svg">
  <defs
     id="defs111788" />
  <sodipodi:namedview
     id="base"
     pagecolor="#ffffff"
     bordercolor="#666666"
     borderopacity="1.0"
     inkscape:pageopacity="0.0"
     inkscape:pageshadow="2"
     inkscape:zoom="45.254834"
     inkscape:cx="-1.1101831"
     inkscape:cy="10.929373"
     inkscape:document-units="mm"
     inkscape:current-layer="layer4"
     showgrid="false"
     fit-margin-top="0"
     fit-margin-left="0"
     fit-margin-right="0"
     fit-margin-bottom="0"
     inkscape:window-width="1857"
     inkscape:window-height="1057"
     inkscape:window-x="-8"
     inkscape:window-y="-8"
     inkscape:window-maximized="1"
     showguides="true"
     inkscape:guide-bbox="true"
     inkscape:snap-bbox="true"
     inkscape:bbox-paths="true"
     inkscape:bbox-nodes="true"
     inkscape:snap-bbox-edge-midpoints="true"
     inkscape:snap-bbox-midpoints="true">
    <sodipodi:guide
       position="0.12611596,5.9999981"
       orientation="0,1"
       id="guide4493"
       inkscape:locked="false"
       inkscape:label=""
       inkscape:color="rgb(0,0,255)" />
    <sodipodi:guide
       position="5.5122762,-2.0000014"
       orientation="0,1"
       id="guide4495"
       inkscape:locked="false"
       inkscape:label=""
       inkscape:color="rgb(0,0,255)" />
    <sodipodi:guide
       position="-2,4.0476174"
       orientation="1,0"
       id="guide4497"
       inkscape:locked="false"
       inkscape:label=""
       inkscape:color="rgb(0,0,255)" />
    <sodipodi:guide
       position="1.9999999,1.9999984"
       orientation="1,0"
       id="guide4505"
       inkscape:locked="false"
       inkscape:label=""
       inkscape:color="rgb(0,0,255)" />
    <sodipodi:guide
       position="2.0000381,1.999959"
       orientation="0,1"
       id="guide4507"
       inkscape:locked="false"
       inkscape:label=""
       inkscape:color="rgb(0,0,255)" />
    <sodipodi:guide
       position="1.7441999,3.5752661"
       orientation="1,0"
       id="guide4556"
       inkscape:locked="false" />
    <sodipodi:guide
       position="2.2562099,3.4251137"
       orientation="1,0"
       id="guide4558"
       inkscape:locked="false" />
  </sodipodi:namedview>
  <metadata
     id="metadata111791">
    <rdf:RDF>
      <cc:Work
         rdf:about="">
        <dc:format>image/svg+xml</dc:format>
        <dc:type
           rdf:resource="http://purl.org/dc/dcmitype/StillImage" />
        <dc:title />
      </cc:Work>
    </rdf:RDF>
  </metadata>
  <g
     inkscape:groupmode="layer"
     id="layer4"
     inkscape:label="Layer 2">
    <g
       inkscape:label="Layer 1"
       id="layer1-3"
       transform="matrix(0.48245256,0,0,0.48245256,-81.077786,-32.46466)"
       style="display:none;stroke-width:2.0727427">
      <path
         sodipodi:type="star"
         style="opacity:1;fill:#1a1a1a;fill-opacity:1;stroke:none;stroke-width:0.82909703;stroke-linecap:butt;stroke-miterlimit:4;stroke-dasharray:none;stroke-dashoffset:0;stroke-opacity:1;paint-order:normal"
         id="path4509-2"
         sodipodi:sides="18"
         sodipodi:cx="172.09312"
         sodipodi:cy="71.396111"
         sodipodi:r1="3.8799999"
         sodipodi:r2="3.9999998"
         sodipodi:arg1="3.5249582e-016"
         sodipodi:arg2="0.17453293"
         inkscape:flatsided="false"
         inkscape:rounded="0.2"
         inkscape:randomized="0"
         d="m 175.97312,71.396111 c 0,0.139422 0.0834,0.557288 0.0592,0.694592 -0.0242,0.137305 -0.24554,0.501431 -0.29323,0.632446 -0.0477,0.131014 -0.11219,0.552218 -0.1819,0.672961 -0.0697,0.120744 -0.40223,0.387212 -0.49185,0.494016 -0.0896,0.106804 -0.2943,0.480543 -0.40111,0.570162 -0.1068,0.08962 -0.5104,0.22629 -0.63115,0.296001 -0.12074,0.06971 -0.4409,0.350906 -0.57192,0.398592 -0.13101,0.04769 -0.55702,0.03807 -0.69432,0.06228 -0.13731,0.02421 -0.53433,0.178946 -0.67376,0.178946 -0.13942,0 -0.53645,-0.154735 -0.67375,-0.178946 -0.13731,-0.02421 -0.56331,-0.0146 -0.69433,-0.06228 -0.13101,-0.04769 -0.45117,-0.328881 -0.57192,-0.398592 -0.12074,-0.06971 -0.52434,-0.206382 -0.63115,-0.296001 -0.1068,-0.08962 -0.31148,-0.463358 -0.4011,-0.570162 -0.0896,-0.106804 -0.42214,-0.373272 -0.49185,-0.494016 -0.0697,-0.120743 -0.13422,-0.541947 -0.1819,-0.672961 -0.0477,-0.131015 -0.26902,-0.495141 -0.29323,-0.632446 -0.0242,-0.137304 0.0592,-0.55517 0.0592,-0.694592 0,-0.139423 -0.0834,-0.557289 -0.0592,-0.694593 0.0242,-0.137305 0.24554,-0.501431 0.29323,-0.632446 0.0477,-0.131014 0.11219,-0.552218 0.1819,-0.672961 0.0697,-0.120744 0.40223,-0.387212 0.49185,-0.494016 0.0896,-0.106804 0.2943,-0.480543 0.4011,-0.570162 0.10681,-0.08962 0.51041,-0.22629 0.63115,-0.296001 0.12075,-0.06971 0.44091,-0.350906 0.57192,-0.398592 0.13102,-0.04769 0.55702,-0.03807 0.69433,-0.06228 0.1373,-0.02421 0.53433,-0.178946 0.67375,-0.178946 0.13943,0 0.53645,0.154735 0.67376,0.178946 0.1373,0.02421 0.56331,0.0146 0.69432,0.06228 0.13102,0.04769 0.45118,0.328881 0.57192,0.398592 0.12075,0.06971 0.52435,0.206382 0.63115,0.296001 0.10681,0.08962 0.31149,0.463358 0.40111,0.570162 0.0896,0.106804 0.42213,0.373272 0.49185,0.494016 0.0697,0.120743 0.13422,0.541947 0.1819,0.672961 0.0477,0.131015 0.26901,0.495141 0.29323,0.632446 0.0242,0.137304 -0.0592,0.55517 -0.0592,0.694593 z" />
      <path
         sodipodi:type="star"
         style="opacity:1;fill:#e6e6e6;fill-opacity:1;stroke:none;stroke-width:0.82909703;stroke-linecap:butt;stroke-miterlimit:4;stroke-dasharray:none;stroke-dashoffset:0;stroke-opacity:1;paint-order:normal"
         id="path4509-0-9"
         sodipodi:sides="18"
         sodipodi:cx="172.09312"
         sodipodi:cy="71.396111"
         sodipodi:r1="3.0799441"
         sodipodi:r2="3.1751997"
         sodipodi:arg1="3.5249582e-016"
         sodipodi:arg2="0.17453293"
         inkscape:flatsided="false"
         inkscape:rounded="0.2"
         inkscape:randomized="0"
         d="m 175.17307,71.396111 c 0,0.110673 0.0662,0.442375 0.047,0.551367 -0.0192,0.108993 -0.19491,0.398036 -0.23276,0.502035 -0.0379,0.104 -0.0891,0.438351 -0.1444,0.534197 -0.0553,0.09585 -0.31929,0.307369 -0.39043,0.39215 -0.0711,0.08478 -0.23362,0.381455 -0.3184,0.452595 -0.0848,0.07114 -0.40516,0.179629 -0.501,0.234965 -0.0959,0.05534 -0.34999,0.27855 -0.45399,0.316402 -0.104,0.03785 -0.44217,0.03022 -0.55116,0.04944 -0.10899,0.01922 -0.42415,0.142047 -0.53483,0.142047 -0.11067,0 -0.42583,-0.122828 -0.53482,-0.142047 -0.10899,-0.01922 -0.44716,-0.01159 -0.55116,-0.04944 -0.104,-0.03785 -0.35814,-0.261065 -0.45399,-0.316402 -0.0958,-0.05534 -0.41622,-0.163826 -0.501,-0.234965 -0.0848,-0.07114 -0.24726,-0.367814 -0.3184,-0.452595 -0.0711,-0.08478 -0.33509,-0.296303 -0.39043,-0.39215 -0.0553,-0.09585 -0.10654,-0.430197 -0.1444,-0.534197 -0.0378,-0.103999 -0.21354,-0.393042 -0.23276,-0.502035 -0.0192,-0.108992 0.047,-0.440694 0.047,-0.551367 0,-0.110674 -0.0662,-0.442376 -0.047,-0.551368 0.0192,-0.108992 0.19491,-0.398036 0.23276,-0.502035 0.0379,-0.104 0.0891,-0.438351 0.1444,-0.534197 0.0553,-0.09585 0.31929,-0.307369 0.39043,-0.39215 0.0711,-0.08478 0.23361,-0.381455 0.3184,-0.452595 0.0848,-0.07114 0.40516,-0.179628 0.501,-0.234965 0.0959,-0.05534 0.34999,-0.27855 0.45399,-0.316402 0.104,-0.03785 0.44217,-0.03022 0.55116,-0.04944 0.10899,-0.01922 0.42415,-0.142047 0.53482,-0.142047 0.11068,0 0.42584,0.122828 0.53483,0.142047 0.10899,0.01922 0.44716,0.01159 0.55116,0.04944 0.104,0.03785 0.35814,0.261065 0.45399,0.316402 0.0958,0.05534 0.41622,0.163826 0.501,0.234965 0.0848,0.07114 0.24726,0.367814 0.3184,0.452595 0.0711,0.08478 0.33509,0.296303 0.39043,0.39215 0.0553,0.09585 0.10654,0.430197 0.1444,0.534197 0.0379,0.103999 0.21354,0.393043 0.23276,0.502035 0.0192,0.108992 -0.047,0.440694 -0.047,0.551368 z" />
      <path
         inkscape:connector-curvature="0"
         style="fill:#b3b3b3;fill-opacity:1;fill-rule:evenodd;stroke:none;stroke-width:0.7312175"
         d="m 172.2261,67.418818 c -0.0427,-0.0086 -0.0868,-0.02271 -0.13229,-0.02271 -0.0455,0 -0.0896,0.01317 -0.13367,0.02167 v 0.827783 l 0.26596,-0.0023 z"
         id="path110600-0-9"
         sodipodi:nodetypes="cscccc" />
      <path
         inkscape:connector-curvature="0"
         style="fill:#333333;fill-opacity:1;fill-rule:evenodd;stroke:none;stroke-width:0.7312175"
         d="m 172.2261,68.243251 c -0.0427,-0.0086 -0.087,-0.02581 -0.13252,-0.02581 -0.0455,0 -0.0894,0.01962 -0.13344,0.02812 l -2.3e-4,3.20109 h 0.26596 z"
         id="path110600-2"
         sodipodi:nodetypes="cscccc" />
    </g>
    <g
       inkscape:label="Layer 1"
       id="layer1-8"
       transform="matrix(0.49150339,0,0,0.49150339,-82.584354,-33.091387)"
       style="display:none;stroke:none;stroke-width:2.03457379">
      <path
         sodipodi:type="star"
         style="opacity:1;fill:#1a1a1a;fill-opacity:1;stroke:none;stroke-width:0.8138296;stroke-linecap:butt;stroke-miterlimit:4;stroke-dasharray:none;stroke-dashoffset:0;stroke-opacity:1;paint-order:normal"
         id="path4509-5"
         sodipodi:sides="18"
         sodipodi:cx="172.09312"
         sodipodi:cy="71.396111"
         sodipodi:r1="3.8799999"
         sodipodi:r2="3.9999998"
         sodipodi:arg1="3.5249582e-016"
         sodipodi:arg2="0.17453293"
         inkscape:flatsided="false"
         inkscape:rounded="0.2"
         inkscape:randomized="0"
         d="m 175.97312,71.396111 c 0,0.139422 0.0834,0.557288 0.0592,0.694592 -0.0242,0.137305 -0.24554,0.501431 -0.29323,0.632446 -0.0477,0.131014 -0.11219,0.552218 -0.1819,0.672961 -0.0697,0.120744 -0.40223,0.387212 -0.49185,0.494016 -0.0896,0.106804 -0.2943,0.480543 -0.40111,0.570162 -0.1068,0.08962 -0.5104,0.22629 -0.63115,0.296001 -0.12074,0.06971 -0.4409,0.350906 -0.57192,0.398592 -0.13101,0.04769 -0.55702,0.03807 -0.69432,0.06228 -0.13731,0.02421 -0.53433,0.178946 -0.67376,0.178946 -0.13942,0 -0.53645,-0.154735 -0.67375,-0.178946 -0.13731,-0.02421 -0.56331,-0.0146 -0.69433,-0.06228 -0.13101,-0.04769 -0.45117,-0.328881 -0.57192,-0.398592 -0.12074,-0.06971 -0.52434,-0.206382 -0.63115,-0.296001 -0.1068,-0.08962 -0.31148,-0.463358 -0.4011,-0.570162 -0.0896,-0.106804 -0.42214,-0.373272 -0.49185,-0.494016 -0.0697,-0.120743 -0.13422,-0.541947 -0.1819,-0.672961 -0.0477,-0.131015 -0.26902,-0.495141 -0.29323,-0.632446 -0.0242,-0.137304 0.0592,-0.55517 0.0592,-0.694592 0,-0.139423 -0.0834,-0.557289 -0.0592,-0.694593 0.0242,-0.137305 0.24554,-0.501431 0.29323,-0.632446 0.0477,-0.131014 0.11219,-0.552218 0.1819,-0.672961 0.0697,-0.120744 0.40223,-0.387212 0.49185,-0.494016 0.0896,-0.106804 0.2943,-0.480543 0.4011,-0.570162 0.10681,-0.08962 0.51041,-0.22629 0.63115,-0.296001 0.12075,-0.06971 0.44091,-0.350906 0.57192,-0.398592 0.13102,-0.04769 0.55702,-0.03807 0.69433,-0.06228 0.1373,-0.02421 0.53433,-0.178946 0.67375,-0.178946 0.13943,0 0.53645,0.154735 0.67376,0.178946 0.1373,0.02421 0.56331,0.0146 0.69432,0.06228 0.13102,0.04769 0.45118,0.328881 0.57192,0.398592 0.12075,0.06971 0.52435,0.206382 0.63115,0.296001 0.10681,0.08962 0.31149,0.463358 0.40111,0.570162 0.0896,0.106804 0.42213,0.373272 0.49185,0.494016 0.0697,0.120743 0.13422,0.541947 0.1819,0.672961 0.0477,0.131015 0.26901,0.495141 0.29323,0.632446 0.0242,0.137304 -0.0592,0.55517 -0.0592,0.694593 z" />
      <path
         sodipodi:type="star"
         style="opacity:1;fill:#e6e6e6;fill-opacity:1;stroke:none;stroke-width:0.8138296;stroke-linecap:butt;stroke-miterlimit:4;stroke-dasharray:none;stroke-dashoffset:0;stroke-opacity:1;paint-order:normal"
         id="path4509-0-93"
         sodipodi:sides="18"
         sodipodi:cx="172.09312"
         sodipodi:cy="71.396111"
         sodipodi:r1="3.0799441"
         sodipodi:r2="3.1751997"
         sodipodi:arg1="3.5249582e-016"
         sodipodi:arg2="0.17453293"
         inkscape:flatsided="false"
         inkscape:rounded="0.2"
         inkscape:randomized="0"
         d="m 175.17307,71.396111 c 0,0.110673 0.0662,0.442375 0.047,0.551367 -0.0192,0.108993 -0.19491,0.398036 -0.23276,0.502035 -0.0379,0.104 -0.0891,0.438351 -0.1444,0.534197 -0.0553,0.09585 -0.31929,0.307369 -0.39043,0.39215 -0.0711,0.08478 -0.23362,0.381455 -0.3184,0.452595 -0.0848,0.07114 -0.40516,0.179629 -0.501,0.234965 -0.0959,0.05534 -0.34999,0.27855 -0.45399,0.316402 -0.104,0.03785 -0.44217,0.03022 -0.55116,0.04944 -0.10899,0.01922 -0.42415,0.142047 -0.53483,0.142047 -0.11067,0 -0.42583,-0.122828 -0.53482,-0.142047 -0.10899,-0.01922 -0.44716,-0.01159 -0.55116,-0.04944 -0.104,-0.03785 -0.35814,-0.261065 -0.45399,-0.316402 -0.0958,-0.05534 -0.41622,-0.163826 -0.501,-0.234965 -0.0848,-0.07114 -0.24726,-0.367814 -0.3184,-0.452595 -0.0711,-0.08478 -0.33509,-0.296303 -0.39043,-0.39215 -0.0553,-0.09585 -0.10654,-0.430197 -0.1444,-0.534197 -0.0378,-0.103999 -0.21354,-0.393042 -0.23276,-0.502035 -0.0192,-0.108992 0.047,-0.440694 0.047,-0.551367 0,-0.110674 -0.0662,-0.442376 -0.047,-0.551368 0.0192,-0.108992 0.19491,-0.398036 0.23276,-0.502035 0.0379,-0.104 0.0891,-0.438351 0.1444,-0.534197 0.0553,-0.09585 0.31929,-0.307369 0.39043,-0.39215 0.0711,-0.08478 0.23361,-0.381455 0.3184,-0.452595 0.0848,-0.07114 0.40516,-0.179628 0.501,-0.234965 0.0959,-0.05534 0.34999,-0.27855 0.45399,-0.316402 0.104,-0.03785 0.44217,-0.03022 0.55116,-0.04944 0.10899,-0.01922 0.42415,-0.142047 0.53482,-0.142047 0.11068,0 0.42584,0.122828 0.53483,0.142047 0.10899,0.01922 0.44716,0.01159 0.55116,0.04944 0.104,0.03785 0.35814,0.261065 0.45399,0.316402 0.0958,0.05534 0.41622,0.163826 0.501,0.234965 0.0848,0.07114 0.24726,0.367814 0.3184,0.452595 0.0711,0.08478 0.33509,0.296303 0.39043,0.39215 0.0553,0.09585 0.10654,0.430197 0.1444,0.534197 0.0379,0.103999 0.21354,0.393043 0.23276,0.502035 0.0192,0.108992 -0.047,0.440694 -0.047,0.551368 z" />
      <path
         inkscape:connector-curvature="0"
         style="fill:#b3b3b3;fill-opacity:1;fill-rule:evenodd;stroke:none;stroke-width:0.71775234"
         d="m 172.2261,67.418818 c -0.0427,-0.0086 -0.0868,-0.02271 -0.13229,-0.02271 -0.0455,0 -0.0896,0.01317 -0.13367,0.02167 v 0.827783 l 0.26596,-0.0023 z"
         id="path110600-0-2"
         sodipodi:nodetypes="cscccc" />
      <path
         inkscape:connector-curvature="0"
         style="fill:#333333;fill-opacity:1;fill-rule:evenodd;stroke:none;stroke-width:0.71775234"
         d="m 172.2261,68.243251 c -0.0427,-0.0086 -0.087,-0.02581 -0.13252,-0.02581 -0.0455,0 -0.0894,0.01962 -0.13344,0.02812 l -2.3e-4,3.20109 h 0.26596 z"
         id="path110600-41"
         sodipodi:nodetypes="cscccc" />
    </g>
    <circle
       r="1.8391272"
       cy="2.0000834"
       cx="2.0000384"
       id="path4562"
       style="opacity:1;fill:#666666;fill-opacity:1;stroke:none;stroke-width:0.30000004;stroke-linecap:round;stroke-linejoin:round;stroke-miterlimit:4;stroke-dasharray:none;stroke-dashoffset:0;stroke-opacity:1;paint-order:normal" />
    <path
       sodipodi:nodetypes="cscccc"
       id="path110600-4"
       d="m 2.6919352,0.13841035 c -0.2319527,-0.008552 -0.4446104,-0.0266039 -0.6828341,-0.0266039 -0.2381988,0 -0.4721241,0.0208565 -0.7029205,0.0242021 l -0.00247,1.37354065 h 1.3927799 z"
       style="fill:#f9f9f9;fill-opacity:1;fill-rule:evenodd;stroke:none;stroke-width:0.35277772"
       inkscape:connector-curvature="0" />
    <path
       transform="matrix(0.38601796,0,0,0.38057879,-64.431001,-25.171762)"
       d="m 175.51528,71.396111 c 0,0.12297 0.0736,0.491528 0.0523,0.61263 -0.0214,0.121103 -0.21657,0.442262 -0.25863,0.557817 -0.0421,0.115555 -0.099,0.487057 -0.16044,0.593552 -0.0615,0.106496 -0.35476,0.341522 -0.43381,0.435723 -0.079,0.0942 -0.25957,0.423838 -0.35377,0.502882 -0.0942,0.07904 -0.45018,0.199588 -0.55668,0.261073 -0.10649,0.06149 -0.38887,0.309499 -0.50443,0.351558 -0.11555,0.04206 -0.49129,0.03358 -0.61239,0.05493 -0.12111,0.02135 -0.47128,0.15783 -0.59426,0.15783 -0.12297,0 -0.47314,-0.136476 -0.59425,-0.15783 -0.1211,-0.02135 -0.49684,-0.01288 -0.61239,-0.05493 -0.11556,-0.04206 -0.39794,-0.290072 -0.50444,-0.351558 -0.10649,-0.06148 -0.46247,-0.182029 -0.55667,-0.261073 -0.0942,-0.07904 -0.27473,-0.408681 -0.35377,-0.502882 -0.079,-0.0942 -0.37233,-0.329227 -0.43381,-0.435723 -0.0615,-0.106496 -0.11839,-0.477997 -0.16044,-0.593552 -0.0421,-0.115555 -0.23727,-0.436714 -0.25863,-0.557817 -0.0213,-0.121102 0.0522,-0.48966 0.0522,-0.61263 0,-0.122971 -0.0736,-0.491529 -0.0522,-0.612631 0.0214,-0.121103 0.21657,-0.442262 0.25863,-0.557817 0.042,-0.115555 0.099,-0.487056 0.16044,-0.593552 0.0615,-0.106496 0.35476,-0.341522 0.43381,-0.435723 0.079,-0.0942 0.25957,-0.423838 0.35377,-0.502882 0.0942,-0.07904 0.45018,-0.199588 0.55667,-0.261073 0.1065,-0.06149 0.38888,-0.309499 0.50444,-0.351558 0.11555,-0.04206 0.49129,-0.03358 0.61239,-0.05493 0.12111,-0.02135 0.47128,-0.15783 0.59425,-0.15783 0.12298,0 0.47315,0.136476 0.59426,0.15783 0.1211,0.02135 0.49684,0.01288 0.61239,0.05493 0.11556,0.04206 0.39794,0.290073 0.50443,0.351558 0.1065,0.06148 0.46248,0.182029 0.55668,0.261073 0.0942,0.07904 0.27473,0.408681 0.35377,0.502882 0.079,0.0942 0.37233,0.329227 0.43381,0.435723 0.0615,0.106496 0.11838,0.477997 0.16044,0.593552 0.0421,0.115555 0.23727,0.436714 0.25863,0.557817 0.0213,0.121102 -0.0523,0.48966 -0.0523,0.612631 z"
       inkscape:randomized="0"
       inkscape:rounded="0.2"
       inkscape:flatsided="false"
       sodipodi:arg2="0.17453293"
       sodipodi:arg1="3.5249582e-016"
       sodipodi:r2="3.5279996"
       sodipodi:r1="3.4221601"
       sodipodi:cy="71.396111"
       sodipodi:cx="172.09312"
       sodipodi:sides="18"
       id="path4509-0-8"
       style="opacity:1;fill:#e6e6e6;fill-opacity:1;stroke:none;stroke-width:1.04359984;stroke-linecap:butt;stroke-miterlimit:4;stroke-dasharray:none;stroke-dashoffset:0;stroke-opacity:1;paint-order:normal"
       sodipodi:type="star" />
    <path
       sodipodi:nodetypes="cscccc"
       id="path110600-6"
       d="M 2.4465381,0.13841035 C 2.2967929,0.12985835 2.159496,0.11180645 2.0057,0.11180645 c -0.153784,0 -0.3048032,0.0208565 -0.4538066,0.0242021 L 1.5506596,1.5095492 H 2.449831 Z"
       style="fill:#e6e6e6;fill-opacity:1;fill-rule:evenodd;stroke:none;stroke-width:0.35277775"
       inkscape:connector-curvature="0" />
    <rect
       y="0.142471"
       x="1.7859013"
       height="0.96669149"
       width="0.42801329"
       id="rect5728"
       style="opacity:1;fill:#333333;fill-opacity:1;stroke:none;stroke-width:0.30000004;stroke-linecap:round;stroke-linejoin:round;stroke-miterlimit:4;stroke-dasharray:none;stroke-dashoffset:0;stroke-opacity:1;paint-order:normal" />
    <path
       id="path4509-4"
       d="m 2.0000846,0.03403085 c -0.069507,0 -0.2675006,0.07598285 -0.335952,0.08788261 -0.068451,0.0118997 -0.2807962,0.007211 -0.3461118,0.0306488 C 1.2527048,0.17600026 1.0930631,0.31421387 1.032868,0.34847784 0.9726728,0.38274184 0.77149736,0.44988396 0.71825162,0.49393286 0.66500592,0.53798176 0.56295061,0.72167964 0.51827215,0.7741751 0.47359365,0.8266705 0.30783506,0.9576483 0.27308138,1.0169953 c -0.0347537,0.059347 -0.0669883,0.2664769 -0.0907612,0.3308721 -0.0237729,0.064395 -0.13406252,0.2434041 -0.14613234,0.3108909 -0.01206983,0.067487 0.02946353,0.2728428 0.02946353,0.3413706 0,0.068528 -0.04153336,0.2738838 -0.02946353,0.3413706 0.01206982,0.067487 0.12235943,0.2464959 0.14613234,0.3108911 0.0237729,0.064395 0.0560075,0.2713559 0.0907612,0.3307028 0.0347537,0.059347 0.2005123,0.1903246 0.24519077,0.2428201 0.0446784,0.052496 0.14673378,0.2361933 0.19997947,0.2802422 0.0532457,0.044049 0.25442118,0.1111911 0.31461638,0.145455 0.060195,0.034264 0.2198372,0.1724777 0.2851528,0.1959156 0.065316,0.023438 0.2776605,0.018749 0.3461118,0.030649 0.068451,0.0119 0.2664447,0.087883 0.335952,0.087883 0.069507,0 0.2673312,-0.075983 0.3357827,-0.087883 0.068451,-0.0119 0.2809656,-0.00721 0.3462812,-0.030649 0.065316,-0.023438 0.2247883,-0.1616516 0.2849834,-0.1959156 0.060195,-0.034264 0.26154,-0.1014061 0.3147858,-0.145455 0.053246,-0.044049 0.155301,-0.2277467 0.1999794,-0.2802422 0.044679,-0.052496 0.2104371,-0.1834732 0.2451908,-0.2428201 0.034754,-0.059347 0.066819,-0.2663076 0.090592,-0.3307028 0.023773,-0.064395 0.1340625,-0.2434042 0.1461323,-0.3108911 0.01207,-0.067487 -0.029464,-0.2728426 -0.029464,-0.3413706 0,-0.068528 0.041534,-0.2738837 0.029464,-0.3413706 C 3.9517423,1.5912715 3.8414527,1.4122625 3.8176798,1.3478674 3.7939069,1.2834722 3.7618416,1.0763422 3.7270879,1.0169953 3.6923342,0.95764832 3.5265756,0.82667058 3.4818971,0.77417512 3.4372187,0.72167966 3.3351633,0.53798179 3.2819177,0.49393288 3.2286719,0.44988397 3.0273271,0.38274183 2.9671319,0.34847786 2.9069368,0.31421389 2.7474641,0.17600024 2.6821485,0.1525623 2.6168329,0.12912437 2.4043187,0.13381321 2.3358673,0.12191346 2.2674159,0.1100137 2.069592,0.03403085 2.0000846,0.03403085 Z m 0,0.21352594 c 0.061957,0 0.2383607,0.0677929 0.2993766,0.0784001 0.061016,0.0106071 0.2502998,0.00637 0.3085204,0.0272622 0.058221,0.020892 0.2005089,0.14420714 0.2541654,0.17474924 0.053656,0.030542 0.2329495,0.0904431 0.2804115,0.1297073 0.047462,0.0392642 0.1384799,0.20296952 0.1783051,0.24976271 0.039826,0.0467931 0.1876274,0.16350406 0.2186059,0.21640456 0.030978,0.052901 0.05958,0.2374043 0.080771,0.2948046 0.021191,0.0574 0.1196259,0.2170381 0.1303847,0.2771943 0.010759,0.060156 -0.026416,0.243203 -0.026416,0.3042871 0,0.061084 0.037174,0.2441311 0.026416,0.3042873 -0.010759,0.060156 -0.109194,0.2196246 -0.1303847,0.2770248 -0.02119,0.0574 -0.049792,0.2419043 -0.080771,0.2948047 -0.030979,0.0529 -0.1787805,0.1697807 -0.2186059,0.216574 -0.039825,0.046793 -0.1308431,0.2104985 -0.1783051,0.2497626 -0.047462,0.039264 -0.226755,0.099165 -0.2804115,0.1297073 -0.053657,0.030542 -0.1959447,0.1536879 -0.2541654,0.1745799 -0.058221,0.020892 -0.2475044,0.016655 -0.3085204,0.027262 -0.061016,0.010607 -0.2374194,0.0784 -0.2993766,0.0784 -0.061957,0 -0.2383606,-0.067793 -0.2993766,-0.0784 C 1.6396921,3.6635246 1.450239,3.6677612 1.3920182,3.6468695 1.3337975,3.6259775 1.1915095,3.5028317 1.137853,3.4722896 1.0841965,3.4417475 0.90490343,3.3818465 0.85744145,3.3425823 0.80997947,3.3033182 0.7189616,3.1396128 0.67913626,3.0928197 0.63931092,3.0460264 0.49167833,2.9291462 0.46069973,2.8762457 0.42972113,2.8233453 0.40095029,2.6388414 0.37975968,2.581441 0.35856908,2.5240408 0.26030318,2.3645723 0.24954442,2.3044162 0.23878566,2.24426 0.27579067,2.0612132 0.27579067,2.0001289 c 0,-0.061084 -0.037005,-0.2441309 -0.0262462,-0.3042871 0.0107588,-0.060156 0.10902465,-0.2197939 0.13021525,-0.2771943 0.0211906,-0.0574 0.0499615,-0.2419041 0.08094,-0.2948046 C 0.49167833,1.0709424 0.63931092,0.95423149 0.67913626,0.90743835 0.7189616,0.86064511 0.80997947,0.69693978 0.85744145,0.65767564 0.90490343,0.6184115 1.0841965,0.55851041 1.137853,0.52796834 1.1915095,0.49742625 1.3337975,0.37411114 1.3920182,0.35321912 1.450239,0.3323271 1.6396921,0.33656404 1.700708,0.32595688 1.761724,0.31534973 1.9381274,0.24755679 2.0000846,0.24755679 Z"
       style="opacity:1;fill:#333333;fill-opacity:1;stroke:none;stroke-width:0.40000001;stroke-linecap:butt;stroke-miterlimit:4;stroke-dasharray:none;stroke-dashoffset:0;stroke-opacity:1;paint-order:normal"
       inkscape:connector-curvature="0" />
  </g>
</svg>
