<?xml version="1.0" encoding="UTF-8" standalone="no"?>
<!-- Created with Inkscape (http://www.inkscape.org/) -->

<svg
   xmlns:dc="http://purl.org/dc/elements/1.1/"
   xmlns:cc="http://creativecommons.org/ns#"
   xmlns:rdf="http://www.w3.org/1999/02/22-rdf-syntax-ns#"
   xmlns:svg="http://www.w3.org/2000/svg"
   xmlns="http://www.w3.org/2000/svg"
   xmlns:sodipodi="http://sodipodi.sourceforge.net/DTD/sodipodi-0.dtd"
   xmlns:inkscape="http://www.inkscape.org/namespaces/inkscape"
   width="12mm"
   height="12mm"
   viewBox="0 0 11.999999 12"
   version="1.1"
   id="svg111794"
   inkscape:version="0.92.1 r15371"
   sodipodi:docname="AdsynthBigKnobTeal.svg">
  <defs
     id="defs111788" />
  <sodipodi:namedview
     id="base"
     pagecolor="#ffffff"
     bordercolor="#666666"
     borderopacity="1.0"
     inkscape:pageopacity="0.0"
     inkscape:pageshadow="2"
     inkscape:zoom="22.627417"
     inkscape:cx="22.986354"
     inkscape:cy="29.348315"
     inkscape:document-units="mm"
     inkscape:current-layer="layer3"
     showgrid="false"
     fit-margin-top="0"
     fit-margin-left="0"
     fit-margin-right="0"
     fit-margin-bottom="0"
     inkscape:window-width="1857"
     inkscape:window-height="1057"
     inkscape:window-x="-8"
     inkscape:window-y="-8"
     inkscape:window-maximized="1"
     showguides="true"
     inkscape:guide-bbox="true"
     inkscape:snap-bbox="true"
     inkscape:bbox-paths="true"
     inkscape:bbox-nodes="true"
     inkscape:snap-bbox-edge-midpoints="true"
     inkscape:snap-bbox-midpoints="true"
     inkscape:snap-global="true">
    <sodipodi:guide
       position="4.3280818,9.9241796"
       orientation="0,1"
       id="guide4493"
       inkscape:locked="false"
       inkscape:label=""
       inkscape:color="rgb(0,0,255)" />
    <sodipodi:guide
       position="9.7142421,1.92418"
       orientation="0,1"
       id="guide4495"
       inkscape:locked="false"
       inkscape:label=""
       inkscape:color="rgb(0,0,255)" />
    <sodipodi:guide
       position="2.2019658,7.9717989"
       orientation="1,0"
       id="guide4497"
       inkscape:locked="false"
       inkscape:label=""
       inkscape:color="rgb(0,0,255)" />
    <sodipodi:guide
       position="6.2019657,5.9241798"
       orientation="1,0"
       id="guide4505"
       inkscape:locked="false"
       inkscape:label=""
       inkscape:color="rgb(0,0,255)" />
    <sodipodi:guide
       position="6.2019657,5.9241798"
       orientation="0,1"
       id="guide4507"
       inkscape:locked="false"
       inkscape:label=""
       inkscape:color="rgb(0,0,255)" />
    <sodipodi:guide
       position="6.0689856,9.7035499"
       orientation="1,0"
       id="guide4556"
       inkscape:locked="false" />
    <sodipodi:guide
       position="6.3349456,9.7283546"
       orientation="1,0"
       id="guide4558"
       inkscape:locked="false" />
  </sodipodi:namedview>
  <metadata
     id="metadata111791">
    <rdf:RDF>
      <cc:Work
         rdf:about="">
        <dc:format>image/svg+xml</dc:format>
        <dc:type
           rdf:resource="http://purl.org/dc/dcmitype/StillImage" />
        <dc:title></dc:title>
      </cc:Work>
    </rdf:RDF>
  </metadata>
  <g
     inkscape:groupmode="layer"
     id="layer3"
     inkscape:label="Layer 1">
    <g
       inkscape:label="Layer 1"
       id="layer1-5"
       transform="matrix(1.4826409,0,0,1.4826409,-249.08308,-99.829515)"
       style="display:none;stroke-width:0.67447215">
      <path
         sodipodi:type="star"
         style="opacity:1;fill:#1a1a1a;fill-opacity:1;stroke:none;stroke-width:0.26978886;stroke-linecap:butt;stroke-miterlimit:4;stroke-dasharray:none;stroke-dashoffset:0;stroke-opacity:1;paint-order:normal"
         id="path4509-1"
         sodipodi:sides="18"
         sodipodi:cx="172.09312"
         sodipodi:cy="71.396111"
         sodipodi:r1="3.8799999"
         sodipodi:r2="3.9999998"
         sodipodi:arg1="3.5249582e-016"
         sodipodi:arg2="0.17453293"
         inkscape:flatsided="false"
         inkscape:rounded="0.2"
         inkscape:randomized="0"
         d="m 175.97312,71.396111 c 0,0.139422 0.0834,0.557288 0.0592,0.694592 -0.0242,0.137305 -0.24554,0.501431 -0.29323,0.632446 -0.0477,0.131014 -0.11219,0.552218 -0.1819,0.672961 -0.0697,0.120744 -0.40223,0.387212 -0.49185,0.494016 -0.0896,0.106804 -0.2943,0.480543 -0.40111,0.570162 -0.1068,0.08962 -0.5104,0.22629 -0.63115,0.296001 -0.12074,0.06971 -0.4409,0.350906 -0.57192,0.398592 -0.13101,0.04769 -0.55702,0.03807 -0.69432,0.06228 -0.13731,0.02421 -0.53433,0.178946 -0.67376,0.178946 -0.13942,0 -0.53645,-0.154735 -0.67375,-0.178946 -0.13731,-0.02421 -0.56331,-0.0146 -0.69433,-0.06228 -0.13101,-0.04769 -0.45117,-0.328881 -0.57192,-0.398592 -0.12074,-0.06971 -0.52434,-0.206382 -0.63115,-0.296001 -0.1068,-0.08962 -0.31148,-0.463358 -0.4011,-0.570162 -0.0896,-0.106804 -0.42214,-0.373272 -0.49185,-0.494016 -0.0697,-0.120743 -0.13422,-0.541947 -0.1819,-0.672961 -0.0477,-0.131015 -0.26902,-0.495141 -0.29323,-0.632446 -0.0242,-0.137304 0.0592,-0.55517 0.0592,-0.694592 0,-0.139423 -0.0834,-0.557289 -0.0592,-0.694593 0.0242,-0.137305 0.24554,-0.501431 0.29323,-0.632446 0.0477,-0.131014 0.11219,-0.552218 0.1819,-0.672961 0.0697,-0.120744 0.40223,-0.387212 0.49185,-0.494016 0.0896,-0.106804 0.2943,-0.480543 0.4011,-0.570162 0.10681,-0.08962 0.51041,-0.22629 0.63115,-0.296001 0.12075,-0.06971 0.44091,-0.350906 0.57192,-0.398592 0.13102,-0.04769 0.55702,-0.03807 0.69433,-0.06228 0.1373,-0.02421 0.53433,-0.178946 0.67375,-0.178946 0.13943,0 0.53645,0.154735 0.67376,0.178946 0.1373,0.02421 0.56331,0.0146 0.69432,0.06228 0.13102,0.04769 0.45118,0.328881 0.57192,0.398592 0.12075,0.06971 0.52435,0.206382 0.63115,0.296001 0.10681,0.08962 0.31149,0.463358 0.40111,0.570162 0.0896,0.106804 0.42213,0.373272 0.49185,0.494016 0.0697,0.120743 0.13422,0.541947 0.1819,0.672961 0.0477,0.131015 0.26901,0.495141 0.29323,0.632446 0.0242,0.137304 -0.0592,0.55517 -0.0592,0.694593 z" />
      <path
         sodipodi:type="star"
         style="opacity:1;fill:#e6e6e6;fill-opacity:1;stroke:none;stroke-width:0.26978886;stroke-linecap:butt;stroke-miterlimit:4;stroke-dasharray:none;stroke-dashoffset:0;stroke-opacity:1;paint-order:normal"
         id="path4509-0"
         sodipodi:sides="18"
         sodipodi:cx="172.09312"
         sodipodi:cy="71.396111"
         sodipodi:r1="3.0799441"
         sodipodi:r2="3.1751997"
         sodipodi:arg1="3.5249582e-016"
         sodipodi:arg2="0.17453293"
         inkscape:flatsided="false"
         inkscape:rounded="0.2"
         inkscape:randomized="0"
         d="m 175.17307,71.396111 c 0,0.110673 0.0662,0.442375 0.047,0.551367 -0.0192,0.108993 -0.19491,0.398036 -0.23276,0.502035 -0.0379,0.104 -0.0891,0.438351 -0.1444,0.534197 -0.0553,0.09585 -0.31929,0.307369 -0.39043,0.39215 -0.0711,0.08478 -0.23362,0.381455 -0.3184,0.452595 -0.0848,0.07114 -0.40516,0.179629 -0.501,0.234965 -0.0959,0.05534 -0.34999,0.27855 -0.45399,0.316402 -0.104,0.03785 -0.44217,0.03022 -0.55116,0.04944 -0.10899,0.01922 -0.42415,0.142047 -0.53483,0.142047 -0.11067,0 -0.42583,-0.122828 -0.53482,-0.142047 -0.10899,-0.01922 -0.44716,-0.01159 -0.55116,-0.04944 -0.104,-0.03785 -0.35814,-0.261065 -0.45399,-0.316402 -0.0958,-0.05534 -0.41622,-0.163826 -0.501,-0.234965 -0.0848,-0.07114 -0.24726,-0.367814 -0.3184,-0.452595 -0.0711,-0.08478 -0.33509,-0.296303 -0.39043,-0.39215 -0.0553,-0.09585 -0.10654,-0.430197 -0.1444,-0.534197 -0.0378,-0.103999 -0.21354,-0.393042 -0.23276,-0.502035 -0.0192,-0.108992 0.047,-0.440694 0.047,-0.551367 0,-0.110674 -0.0662,-0.442376 -0.047,-0.551368 0.0192,-0.108992 0.19491,-0.398036 0.23276,-0.502035 0.0379,-0.104 0.0891,-0.438351 0.1444,-0.534197 0.0553,-0.09585 0.31929,-0.307369 0.39043,-0.39215 0.0711,-0.08478 0.23361,-0.381455 0.3184,-0.452595 0.0848,-0.07114 0.40516,-0.179628 0.501,-0.234965 0.0959,-0.05534 0.34999,-0.27855 0.45399,-0.316402 0.104,-0.03785 0.44217,-0.03022 0.55116,-0.04944 0.10899,-0.01922 0.42415,-0.142047 0.53482,-0.142047 0.11068,0 0.42584,0.122828 0.53483,0.142047 0.10899,0.01922 0.44716,0.01159 0.55116,0.04944 0.104,0.03785 0.35814,0.261065 0.45399,0.316402 0.0958,0.05534 0.41622,0.163826 0.501,0.234965 0.0848,0.07114 0.24726,0.367814 0.3184,0.452595 0.0711,0.08478 0.33509,0.296303 0.39043,0.39215 0.0553,0.09585 0.10654,0.430197 0.1444,0.534197 0.0379,0.103999 0.21354,0.393043 0.23276,0.502035 0.0192,0.108992 -0.047,0.440694 -0.047,0.551368 z" />
      <path
         inkscape:connector-curvature="0"
         style="fill:#b3b3b3;fill-opacity:1;fill-rule:evenodd;stroke:none;stroke-width:0.23793876"
         d="m 172.2261,67.418818 c -0.0427,-0.0086 -0.0868,-0.02271 -0.13229,-0.02271 -0.0455,0 -0.0896,0.01317 -0.13367,0.02167 v 0.827783 l 0.26596,-0.0023 z"
         id="path110600-0"
         sodipodi:nodetypes="cscccc" />
      <path
         inkscape:connector-curvature="0"
         style="fill:#333333;fill-opacity:1;fill-rule:evenodd;stroke:none;stroke-width:0.23793876"
         d="m 172.2261,68.243251 c -0.0427,-0.0086 -0.087,-0.02581 -0.13252,-0.02581 -0.0455,0 -0.0894,0.01962 -0.13344,0.02812 l -2.3e-4,3.20109 h 0.26596 z"
         id="path110600-5"
         sodipodi:nodetypes="cscccc" />
    </g>
    <circle
       r="5.5478058"
       cy="6.0253992"
       cx="6.0693359"
       id="path4562-7"
       style="opacity:1;fill:#247c76;fill-opacity:1;stroke:none;stroke-width:0.30000001;stroke-linecap:round;stroke-linejoin:round;stroke-miterlimit:4;stroke-dasharray:none;stroke-dashoffset:0;stroke-opacity:1;paint-order:normal" />
    <path
       sodipodi:nodetypes="cscccc"
       id="path110600-4"
       d="M 7.4540988,0.40958294 C 6.9898899,0.38378454 6.5642959,0.32933104 6.087537,0.32933104 c -0.4767094,0 -0.9448665,0.0629145 -1.4067609,0.0730066 l -0.00496,4.14334406 h 2.7873825 z"
       style="fill:#96e0db;fill-opacity:1;fill-rule:evenodd;stroke:none;stroke-width:0.35277775"
       inkscape:connector-curvature="0" />
    <path
       transform="matrix(1.1644396,0,0,1.1480321,-194.32272,-75.939629)"
       d="m 175.51528,71.396111 c 0,0.12297 0.0736,0.491528 0.0523,0.61263 -0.0214,0.121103 -0.21657,0.442262 -0.25863,0.557817 -0.0421,0.115555 -0.099,0.487057 -0.16044,0.593552 -0.0615,0.106496 -0.35476,0.341522 -0.43381,0.435723 -0.079,0.0942 -0.25957,0.423838 -0.35377,0.502882 -0.0942,0.07904 -0.45018,0.199588 -0.55668,0.261073 -0.10649,0.06149 -0.38887,0.309499 -0.50443,0.351558 -0.11555,0.04206 -0.49129,0.03358 -0.61239,0.05493 -0.12111,0.02135 -0.47128,0.15783 -0.59426,0.15783 -0.12297,0 -0.47314,-0.136476 -0.59425,-0.15783 -0.1211,-0.02135 -0.49684,-0.01288 -0.61239,-0.05493 -0.11556,-0.04206 -0.39794,-0.290072 -0.50444,-0.351558 -0.10649,-0.06148 -0.46247,-0.182029 -0.55667,-0.261073 -0.0942,-0.07904 -0.27473,-0.408681 -0.35377,-0.502882 -0.079,-0.0942 -0.37233,-0.329227 -0.43381,-0.435723 -0.0615,-0.106496 -0.11839,-0.477997 -0.16044,-0.593552 -0.0421,-0.115555 -0.23727,-0.436714 -0.25863,-0.557817 -0.0213,-0.121102 0.0522,-0.48966 0.0522,-0.61263 0,-0.122971 -0.0736,-0.491529 -0.0522,-0.612631 0.0214,-0.121103 0.21657,-0.442262 0.25863,-0.557817 0.042,-0.115555 0.099,-0.487056 0.16044,-0.593552 0.0615,-0.106496 0.35476,-0.341522 0.43381,-0.435723 0.079,-0.0942 0.25957,-0.423838 0.35377,-0.502882 0.0942,-0.07904 0.45018,-0.199588 0.55667,-0.261073 0.1065,-0.06149 0.38888,-0.309499 0.50444,-0.351558 0.11555,-0.04206 0.49129,-0.03358 0.61239,-0.05493 0.12111,-0.02135 0.47128,-0.15783 0.59425,-0.15783 0.12298,0 0.47315,0.136476 0.59426,0.15783 0.1211,0.02135 0.49684,0.01288 0.61239,0.05493 0.11556,0.04206 0.39794,0.290073 0.50443,0.351558 0.1065,0.06148 0.46248,0.182029 0.55668,0.261073 0.0942,0.07904 0.27473,0.408681 0.35377,0.502882 0.079,0.0942 0.37233,0.329227 0.43381,0.435723 0.0615,0.106496 0.11838,0.477997 0.16044,0.593552 0.0421,0.115555 0.23727,0.436714 0.25863,0.557817 0.0213,0.121102 -0.0523,0.48966 -0.0523,0.612631 z"
       inkscape:randomized="0"
       inkscape:rounded="0.2"
       inkscape:flatsided="false"
       sodipodi:arg2="0.17453293"
       sodipodi:arg1="3.5249582e-016"
       sodipodi:r2="3.5279996"
       sodipodi:r1="3.4221601"
       sodipodi:cy="71.396111"
       sodipodi:cx="172.09312"
       sodipodi:sides="18"
       id="path4509-0-8-1"
       style="opacity:1;fill:#e6e6e6;fill-opacity:1;stroke:#96e0db;stroke-width:0.69191778;stroke-linecap:butt;stroke-miterlimit:4;stroke-dasharray:none;stroke-dashoffset:0;stroke-opacity:1;paint-order:normal"
       sodipodi:type="star" />
    <path
       sodipodi:nodetypes="cscccc"
       id="path110600-6-5"
       d="M 6.7830734,0.40958294 C 6.5437313,0.38378452 6.3242866,0.32933108 6.0784703,0.32933108 c -0.2457967,0 -0.4871749,0.0629145 -0.7253309,0.0730066 l -0.00197,4.14334402 h 1.4371693 z"
       style="fill:#e6e6e6;fill-opacity:1;fill-rule:evenodd;stroke:none;stroke-width:0.35277778"
       inkscape:connector-curvature="0" />
    <rect
       y="0.42183208"
       x="5.7973189"
       height="2.9160659"
       width="0.54378837"
       id="rect5728"
       style="opacity:1;fill:#333333;fill-opacity:1;stroke:none;stroke-width:0.30000001;stroke-linecap:round;stroke-linejoin:round;stroke-miterlimit:4;stroke-dasharray:none;stroke-dashoffset:0;stroke-opacity:1;paint-order:normal" />
    <path
       id="path4509-4"
       d="m 6.0694757,0.09471773 c -0.2096717,0 -0.8069269,0.22920551 -1.0134135,0.26510162 -0.2064864,0.0358961 -0.8470338,0.021752 -1.0440609,0.0924535 C 3.814974,0.52297444 3.3334068,0.93990181 3.1518255,1.0432605 2.9702442,1.1466193 2.36339,1.3491564 2.2027719,1.4820318 2.042154,1.6149072 1.7342998,2.1690396 1.5995254,2.3273944 1.4647509,2.4857491 0.96473291,2.8808491 0.85989694,3.0598718 0.75506098,3.2388942 0.65782386,3.8637106 0.58611184,4.0579615 0.51439983,4.2522122 0.18170654,4.7922006 0.1452974,4.9957774 c -0.0364091,0.2035771 0.088878,0.8230417 0.088878,1.0297589 0,0.2067176 -0.12528714,0.826182 -0.088878,1.0297589 0.0364091,0.2035771 0.36910243,0.7435654 0.44081444,0.9378163 0.0717121,0.1942509 0.16894914,0.8185564 0.2737851,0.9975789 0.10483591,0.1790227 0.60485396,0.5741225 0.73962846,0.7324773 0.1347744,0.1583548 0.4426286,0.7124873 0.6032465,0.8453623 0.1606181,0.132876 0.7674723,0.335413 0.9490536,0.438771 0.1815813,0.10336 0.6631485,0.520287 0.8601758,0.590988 0.1970271,0.0707 0.8375745,0.05656 1.0440609,0.09245 0.2064866,0.0359 0.8037418,0.265102 1.0134135,0.265102 0.2096719,0 0.8064161,-0.229206 1.0129027,-0.265102 0.2064867,-0.0359 0.8475449,-0.02175 1.044572,-0.09245 0.1970273,-0.0707 0.6780834,-0.487629 0.8596647,-0.590988 0.1815813,-0.103358 0.7889464,-0.305895 0.9495646,-0.438771 0.1606173,-0.132875 0.4684723,-0.6870075 0.6032463,-0.8453623 0.134775,-0.1583548 0.634793,-0.5534549 0.739629,-0.7324773 0.104836,-0.1790228 0.201562,-0.803328 0.273274,-0.9975789 0.07171,-0.1942509 0.404405,-0.7342392 0.440814,-0.9378163 0.03641,-0.2035769 -0.08888,-0.8230413 -0.08888,-1.0297589 0,-0.2067172 0.125288,-0.8261818 0.08888,-1.0297589 C 11.956734,4.7922006 11.624041,4.2522122 11.552329,4.0579615 11.480617,3.8637106 11.383891,3.2388942 11.279055,3.0598718 11.174219,2.8808491 10.674201,2.4857492 10.539426,2.3273944 10.404652,2.1690396 10.096797,1.6149072 9.9361797,1.4820318 9.7755615,1.3491564 9.1681964,1.1466193 8.9866151,1.0432605 8.8050338,0.93990181 8.3239777,0.52297444 8.1269504,0.4522729 7.9299233,0.38157137 7.2888651,0.39571545 7.0823784,0.35981935 6.8758921,0.32392324 6.2791476,0.09471773 6.0694757,0.09471773 Z m 0,0.6441101 c 0.1868967,0 0.7190251,0.20450028 0.9030822,0.2364972 0.1840573,0.0319969 0.7550399,0.0192159 0.9306651,0.0822377 0.1756252,0.063022 0.6048434,0.4350069 0.7667006,0.5271385 0.1618571,0.092131 0.7027021,0.2728255 0.8458733,0.3912676 0.1431712,0.1184422 0.4177304,0.6122662 0.5378651,0.7534198 0.120135,0.1411534 0.565986,0.493217 0.659434,0.6527935 0.09345,0.1595766 0.179726,0.7161401 0.243648,0.8892908 0.06392,0.1731507 0.360857,0.6547046 0.393311,0.8361684 0.03245,0.1814635 -0.07968,0.7336321 -0.07968,0.917895 0,0.1842632 0.112139,0.7364319 0.07968,0.9178954 -0.03245,0.1814635 -0.329388,0.662507 -0.393311,0.8356573 -0.06392,0.1731507 -0.1502,0.7297145 -0.243648,0.8892909 -0.09345,0.1595764 -0.539299,0.5121507 -0.659434,0.6533045 C 9.9335273,9.462838 9.6589678,9.9566622 9.5157969,10.075104 9.3726257,10.193546 8.8317807,10.37424 8.6699236,10.466372 c -0.1618572,0.09213 -0.5910754,0.463606 -0.7667006,0.526627 -0.1756252,0.06302 -0.7466078,0.05024 -0.9306651,0.08224 -0.1840571,0.032 -0.7161855,0.236497 -0.9030822,0.236497 -0.1868965,0 -0.7190248,-0.2045 -0.9030822,-0.236497 C 4.9823364,11.04324 4.4108431,11.05602 4.2352176,10.992999 4.0595924,10.929978 3.6303745,10.558503 3.4685173,10.466372 3.3066602,10.37424 2.7658151,10.193546 2.622644,10.075104 2.4794729,9.9566622 2.2049136,9.462838 2.0847788,9.3216844 1.9646439,9.1805306 1.519304,8.8279563 1.4258557,8.6683799 1.3324074,8.5088035 1.245619,7.9522397 1.1816966,7.779089 1.1177742,7.6059387 0.82135096,7.1248952 0.7888967,6.9434317 0.75644246,6.7619682 0.86806963,6.2097995 0.86806963,6.0255363 c 0,-0.1842629 -0.11162714,-0.7364315 -0.0791729,-0.917895 C 0.82135096,4.9261775 1.1177742,4.4446236 1.1816966,4.2714729 1.245619,4.0983222 1.3324074,3.5417587 1.4258557,3.3821821 1.519304,3.2226056 1.9646439,2.8705421 2.0847788,2.7293886 2.2049136,2.5882348 2.4794729,2.0944107 2.622644,1.9759688 2.7658151,1.8575268 3.3066602,1.6768326 3.4685173,1.5847012 3.6303745,1.4925697 4.0595924,1.1205844 4.2352176,1.0575627 4.4108431,0.99454105 4.9823364,1.007322 5.1663935,0.97532503 5.3504509,0.94332811 5.8825792,0.73882783 6.0694757,0.73882783 Z"
       style="opacity:1;fill:#333333;fill-opacity:1;stroke:none;stroke-width:0.40000001;stroke-linecap:butt;stroke-miterlimit:4;stroke-dasharray:none;stroke-dashoffset:0;stroke-opacity:1;paint-order:normal"
       inkscape:connector-curvature="0" />
  </g>
</svg>
