<?xml version="1.0" encoding="UTF-8" standalone="no"?>
<!-- Created with Inkscape (http://www.inkscape.org/) -->

<svg
   xmlns:dc="http://purl.org/dc/elements/1.1/"
   xmlns:cc="http://creativecommons.org/ns#"
   xmlns:rdf="http://www.w3.org/1999/02/22-rdf-syntax-ns#"
   xmlns:svg="http://www.w3.org/2000/svg"
   xmlns="http://www.w3.org/2000/svg"
   xmlns:sodipodi="http://sodipodi.sourceforge.net/DTD/sodipodi-0.dtd"
   xmlns:inkscape="http://www.inkscape.org/namespaces/inkscape"
   width="7.9995098mm"
   height="7.9995222mm"
   viewBox="0 0 7.9995093 7.9995222"
   version="1.1"
   id="svg111794"
   inkscape:version="0.92.1 r15371"
   sodipodi:docname="AdsynthKnobSmallRed.svg">
  <defs
     id="defs111788" />
  <sodipodi:namedview
     id="base"
     pagecolor="#ffffff"
     bordercolor="#666666"
     borderopacity="1.0"
     inkscape:pageopacity="0.0"
     inkscape:pageshadow="2"
     inkscape:zoom="8"
     inkscape:cx="-35.807274"
     inkscape:cy="22.478883"
     inkscape:document-units="mm"
     inkscape:current-layer="layer2"
     showgrid="false"
     fit-margin-top="0"
     fit-margin-left="0"
     fit-margin-right="0"
     fit-margin-bottom="0"
     inkscape:window-width="1857"
     inkscape:window-height="1057"
     inkscape:window-x="-8"
     inkscape:window-y="-8"
     inkscape:window-maximized="1"
     showguides="false"
     inkscape:guide-bbox="true"
     inkscape:snap-bbox="true"
     inkscape:bbox-paths="true"
     inkscape:bbox-nodes="true"
     inkscape:snap-bbox-edge-midpoints="true"
     inkscape:snap-bbox-midpoints="true">
    <sodipodi:guide
       position="2.126116,7.9999997"
       orientation="0,1"
       id="guide4493"
       inkscape:locked="false"
       inkscape:label=""
       inkscape:color="rgb(0,0,255)" />
    <sodipodi:guide
       position="7.5122764,0"
       orientation="0,1"
       id="guide4495"
       inkscape:locked="false"
       inkscape:label=""
       inkscape:color="rgb(0,0,255)" />
    <sodipodi:guide
       position="0,6.047619"
       orientation="1,0"
       id="guide4497"
       inkscape:locked="false"
       inkscape:label=""
       inkscape:color="rgb(0,0,255)" />
    <sodipodi:guide
       position="3.9999999,3.9999999"
       orientation="1,0"
       id="guide4505"
       inkscape:locked="false"
       inkscape:label=""
       inkscape:color="rgb(0,0,255)" />
    <sodipodi:guide
       position="3.9999999,3.9999999"
       orientation="0,1"
       id="guide4507"
       inkscape:locked="false"
       inkscape:label=""
       inkscape:color="rgb(0,0,255)" />
    <sodipodi:guide
       position="3.8670198,7.77937"
       orientation="1,0"
       id="guide4556"
       inkscape:locked="false" />
    <sodipodi:guide
       position="4.1329798,7.8041747"
       orientation="1,0"
       id="guide4558"
       inkscape:locked="false" />
  </sodipodi:namedview>
  <metadata
     id="metadata111791">
    <rdf:RDF>
      <cc:Work
         rdf:about="">
        <dc:format>image/svg+xml</dc:format>
        <dc:type
           rdf:resource="http://purl.org/dc/dcmitype/StillImage" />
        <dc:title />
      </cc:Work>
    </rdf:RDF>
  </metadata>
  <g
     inkscape:label="Layer 1"
     inkscape:groupmode="layer"
     id="layer1"
     transform="translate(-168.09312,-67.39659)"
     style="display:none">
    <path
       sodipodi:type="star"
       style="opacity:1;fill:#1a1a1a;fill-opacity:1;stroke:none;stroke-width:0.40000001;stroke-linecap:butt;stroke-miterlimit:4;stroke-dasharray:none;stroke-dashoffset:0;stroke-opacity:1;paint-order:normal"
       id="path4509"
       sodipodi:sides="18"
       sodipodi:cx="172.09312"
       sodipodi:cy="71.396111"
       sodipodi:r1="3.8799999"
       sodipodi:r2="3.9999998"
       sodipodi:arg1="3.5249582e-016"
       sodipodi:arg2="0.17453293"
       inkscape:flatsided="false"
       inkscape:rounded="0.2"
       inkscape:randomized="0"
       d="m 175.97312,71.396111 c 0,0.139422 0.0834,0.557288 0.0592,0.694592 -0.0242,0.137305 -0.24554,0.501431 -0.29323,0.632446 -0.0477,0.131014 -0.11219,0.552218 -0.1819,0.672961 -0.0697,0.120744 -0.40223,0.387212 -0.49185,0.494016 -0.0896,0.106804 -0.2943,0.480543 -0.40111,0.570162 -0.1068,0.08962 -0.5104,0.22629 -0.63115,0.296001 -0.12074,0.06971 -0.4409,0.350906 -0.57192,0.398592 -0.13101,0.04769 -0.55702,0.03807 -0.69432,0.06228 -0.13731,0.02421 -0.53433,0.178946 -0.67376,0.178946 -0.13942,0 -0.53645,-0.154735 -0.67375,-0.178946 -0.13731,-0.02421 -0.56331,-0.0146 -0.69433,-0.06228 -0.13101,-0.04769 -0.45117,-0.328881 -0.57192,-0.398592 -0.12074,-0.06971 -0.52434,-0.206382 -0.63115,-0.296001 -0.1068,-0.08962 -0.31148,-0.463358 -0.4011,-0.570162 -0.0896,-0.106804 -0.42214,-0.373272 -0.49185,-0.494016 -0.0697,-0.120743 -0.13422,-0.541947 -0.1819,-0.672961 -0.0477,-0.131015 -0.26902,-0.495141 -0.29323,-0.632446 -0.0242,-0.137304 0.0592,-0.55517 0.0592,-0.694592 0,-0.139423 -0.0834,-0.557289 -0.0592,-0.694593 0.0242,-0.137305 0.24554,-0.501431 0.29323,-0.632446 0.0477,-0.131014 0.11219,-0.552218 0.1819,-0.672961 0.0697,-0.120744 0.40223,-0.387212 0.49185,-0.494016 0.0896,-0.106804 0.2943,-0.480543 0.4011,-0.570162 0.10681,-0.08962 0.51041,-0.22629 0.63115,-0.296001 0.12075,-0.06971 0.44091,-0.350906 0.57192,-0.398592 0.13102,-0.04769 0.55702,-0.03807 0.69433,-0.06228 0.1373,-0.02421 0.53433,-0.178946 0.67375,-0.178946 0.13943,0 0.53645,0.154735 0.67376,0.178946 0.1373,0.02421 0.56331,0.0146 0.69432,0.06228 0.13102,0.04769 0.45118,0.328881 0.57192,0.398592 0.12075,0.06971 0.52435,0.206382 0.63115,0.296001 0.10681,0.08962 0.31149,0.463358 0.40111,0.570162 0.0896,0.106804 0.42213,0.373272 0.49185,0.494016 0.0697,0.120743 0.13422,0.541947 0.1819,0.672961 0.0477,0.131015 0.26901,0.495141 0.29323,0.632446 0.0242,0.137304 -0.0592,0.55517 -0.0592,0.694593 z" />
    <path
       sodipodi:type="star"
       style="opacity:1;fill:#e6e6e6;fill-opacity:1;stroke:none;stroke-width:0.40000001;stroke-linecap:butt;stroke-miterlimit:4;stroke-dasharray:none;stroke-dashoffset:0;stroke-opacity:1;paint-order:normal"
       id="path4509-0"
       sodipodi:sides="18"
       sodipodi:cx="172.09312"
       sodipodi:cy="71.396111"
       sodipodi:r1="3.0799441"
       sodipodi:r2="3.1751997"
       sodipodi:arg1="3.5249582e-016"
       sodipodi:arg2="0.17453293"
       inkscape:flatsided="false"
       inkscape:rounded="0.2"
       inkscape:randomized="0"
       d="m 175.17307,71.396111 c 0,0.110673 0.0662,0.442375 0.047,0.551367 -0.0192,0.108993 -0.19491,0.398036 -0.23276,0.502035 -0.0379,0.104 -0.0891,0.438351 -0.1444,0.534197 -0.0553,0.09585 -0.31929,0.307369 -0.39043,0.39215 -0.0711,0.08478 -0.23362,0.381455 -0.3184,0.452595 -0.0848,0.07114 -0.40516,0.179629 -0.501,0.234965 -0.0959,0.05534 -0.34999,0.27855 -0.45399,0.316402 -0.104,0.03785 -0.44217,0.03022 -0.55116,0.04944 -0.10899,0.01922 -0.42415,0.142047 -0.53483,0.142047 -0.11067,0 -0.42583,-0.122828 -0.53482,-0.142047 -0.10899,-0.01922 -0.44716,-0.01159 -0.55116,-0.04944 -0.104,-0.03785 -0.35814,-0.261065 -0.45399,-0.316402 -0.0958,-0.05534 -0.41622,-0.163826 -0.501,-0.234965 -0.0848,-0.07114 -0.24726,-0.367814 -0.3184,-0.452595 -0.0711,-0.08478 -0.33509,-0.296303 -0.39043,-0.39215 -0.0553,-0.09585 -0.10654,-0.430197 -0.1444,-0.534197 -0.0378,-0.103999 -0.21354,-0.393042 -0.23276,-0.502035 -0.0192,-0.108992 0.047,-0.440694 0.047,-0.551367 0,-0.110674 -0.0662,-0.442376 -0.047,-0.551368 0.0192,-0.108992 0.19491,-0.398036 0.23276,-0.502035 0.0379,-0.104 0.0891,-0.438351 0.1444,-0.534197 0.0553,-0.09585 0.31929,-0.307369 0.39043,-0.39215 0.0711,-0.08478 0.23361,-0.381455 0.3184,-0.452595 0.0848,-0.07114 0.40516,-0.179628 0.501,-0.234965 0.0959,-0.05534 0.34999,-0.27855 0.45399,-0.316402 0.104,-0.03785 0.44217,-0.03022 0.55116,-0.04944 0.10899,-0.01922 0.42415,-0.142047 0.53482,-0.142047 0.11068,0 0.42584,0.122828 0.53483,0.142047 0.10899,0.01922 0.44716,0.01159 0.55116,0.04944 0.104,0.03785 0.35814,0.261065 0.45399,0.316402 0.0958,0.05534 0.41622,0.163826 0.501,0.234965 0.0848,0.07114 0.24726,0.367814 0.3184,0.452595 0.0711,0.08478 0.33509,0.296303 0.39043,0.39215 0.0553,0.09585 0.10654,0.430197 0.1444,0.534197 0.0379,0.103999 0.21354,0.393043 0.23276,0.502035 0.0192,0.108992 -0.047,0.440694 -0.047,0.551368 z" />
    <path
       inkscape:connector-curvature="0"
       style="fill:#b3b3b3;fill-opacity:1;fill-rule:evenodd;stroke:none;stroke-width:0.35277775"
       d="m 172.2261,67.418818 c -0.0427,-0.0086 -0.0868,-0.02271 -0.13229,-0.02271 -0.0455,0 -0.0896,0.01317 -0.13367,0.02167 v 0.827783 l 0.26596,-0.0023 z"
       id="path110600-0"
       sodipodi:nodetypes="cscccc" />
    <path
       inkscape:connector-curvature="0"
       style="fill:#333333;fill-opacity:1;fill-rule:evenodd;stroke:none;stroke-width:0.35277775"
       d="m 172.2261,68.243251 c -0.0427,-0.0086 -0.087,-0.02581 -0.13252,-0.02581 -0.0455,0 -0.0894,0.01962 -0.13344,0.02812 l -2.3e-4,3.20109 h 0.26596 z"
       id="path110600"
       sodipodi:nodetypes="cscccc" />
  </g>
  <g
     inkscape:groupmode="layer"
     id="layer2"
     inkscape:label="Layer 2"
     style="display:inline">
    <circle
       style="opacity:1;fill:#852727;fill-opacity:1;stroke:none;stroke-width:0.30000001;stroke-linecap:round;stroke-linejoin:round;stroke-miterlimit:4;stroke-dasharray:none;stroke-dashoffset:0;stroke-opacity:1;paint-order:normal"
       id="path4562"
       cx="4.0000825"
       cy="3.9996021"
       r="3.7418404" />
    <path
       inkscape:connector-curvature="0"
       style="fill:#e09696;fill-opacity:1;fill-rule:evenodd;stroke:none;stroke-width:0.35277772"
       d="M 4.7460231,0.21189026 C 4.495972,0.19448995 4.2667212,0.15776262 4.0099099,0.15776262 c -0.2567846,0 -0.5089625,0.0424341 -0.7577669,0.0492409 L 3.249473,3.0015737 h 1.5014536 z"
       id="path110600-4"
       sodipodi:nodetypes="cscccc" />
    <path
       sodipodi:type="star"
       style="opacity:1;fill:#e6e6e6;fill-opacity:1;stroke:#e09696;stroke-width:0.5129329;stroke-linecap:butt;stroke-miterlimit:4;stroke-dasharray:none;stroke-dashoffset:0;stroke-opacity:1;paint-order:normal"
       id="path4509-0-8"
       sodipodi:sides="18"
       sodipodi:cx="172.09312"
       sodipodi:cy="71.396111"
       sodipodi:r1="3.4221601"
       sodipodi:r2="3.5279996"
       sodipodi:arg1="3.5249582e-016"
       sodipodi:arg2="0.17453293"
       inkscape:flatsided="false"
       inkscape:rounded="0.2"
       inkscape:randomized="0"
       d="m 175.51528,71.396111 c 0,0.12297 0.0736,0.491528 0.0523,0.61263 -0.0214,0.121103 -0.21657,0.442262 -0.25863,0.557817 -0.0421,0.115555 -0.099,0.487057 -0.16044,0.593552 -0.0615,0.106496 -0.35476,0.341522 -0.43381,0.435723 -0.079,0.0942 -0.25957,0.423838 -0.35377,0.502882 -0.0942,0.07904 -0.45018,0.199588 -0.55668,0.261073 -0.10649,0.06149 -0.38887,0.309499 -0.50443,0.351558 -0.11555,0.04206 -0.49129,0.03358 -0.61239,0.05493 -0.12111,0.02135 -0.47128,0.15783 -0.59426,0.15783 -0.12297,0 -0.47314,-0.136476 -0.59425,-0.15783 -0.1211,-0.02135 -0.49684,-0.01288 -0.61239,-0.05493 -0.11556,-0.04206 -0.39794,-0.290072 -0.50444,-0.351558 -0.10649,-0.06148 -0.46247,-0.182029 -0.55667,-0.261073 -0.0942,-0.07904 -0.27473,-0.408681 -0.35377,-0.502882 -0.079,-0.0942 -0.37233,-0.329227 -0.43381,-0.435723 -0.0615,-0.106496 -0.11839,-0.477997 -0.16044,-0.593552 -0.0421,-0.115555 -0.23727,-0.436714 -0.25863,-0.557817 -0.0213,-0.121102 0.0522,-0.48966 0.0522,-0.61263 0,-0.122971 -0.0736,-0.491529 -0.0522,-0.612631 0.0214,-0.121103 0.21657,-0.442262 0.25863,-0.557817 0.042,-0.115555 0.099,-0.487056 0.16044,-0.593552 0.0615,-0.106496 0.35476,-0.341522 0.43381,-0.435723 0.079,-0.0942 0.25957,-0.423838 0.35377,-0.502882 0.0942,-0.07904 0.45018,-0.199588 0.55667,-0.261073 0.1065,-0.06149 0.38888,-0.309499 0.50444,-0.351558 0.11555,-0.04206 0.49129,-0.03358 0.61239,-0.05493 0.12111,-0.02135 0.47128,-0.15783 0.59425,-0.15783 0.12298,0 0.47315,0.136476 0.59426,0.15783 0.1211,0.02135 0.49684,0.01288 0.61239,0.05493 0.11556,0.04206 0.39794,0.290073 0.50443,0.351558 0.1065,0.06148 0.46248,0.182029 0.55668,0.261073 0.0942,0.07904 0.27473,0.408681 0.35377,0.502882 0.079,0.0942 0.37233,0.329227 0.43381,0.435723 0.0615,0.106496 0.11838,0.477997 0.16044,0.593552 0.0421,0.115555 0.23727,0.436714 0.25863,0.557817 0.0213,0.121102 -0.0523,0.48966 -0.0523,0.612631 z"
       transform="matrix(0.78538209,0,0,0.77431569,-131.15878,-51.283527)" />
    <path
       inkscape:connector-curvature="0"
       style="fill:#e6e6e6;fill-opacity:1;fill-rule:evenodd;stroke:none;stroke-width:0.35277778"
       d="M 4.4814784,0.21189026 C 4.3200488,0.19448995 4.1720395,0.15776262 4.0062432,0.15776262 c -0.165783,0 -0.3285859,0.0424341 -0.4892155,0.0492409 l -0.00133,2.79457018 h 0.9693307 z"
       id="path110600-6"
       sodipodi:nodetypes="cscccc" />
    <rect
       style="opacity:1;fill:#333333;fill-opacity:1;stroke:none;stroke-width:0.30000001;stroke-linecap:round;stroke-linejoin:round;stroke-miterlimit:4;stroke-dasharray:none;stroke-dashoffset:0;stroke-opacity:1;paint-order:normal"
       id="rect5728"
       width="0.46140969"
       height="1.9668053"
       x="3.7692945"
       y="0.22015196" />
    <path
       inkscape:connector-curvature="0"
       style="opacity:1;fill:#333333;fill-opacity:1;stroke:none;stroke-width:0.40000001;stroke-linecap:butt;stroke-miterlimit:4;stroke-dasharray:none;stroke-dashoffset:0;stroke-opacity:1;paint-order:normal"
       d="m 4.0001766,-4.7755156e-4 c -0.1414177,0 -0.5442497,0.15459273156 -0.6835192,0.17880366156 -0.1392693,0.0242109 -0.5713007,0.0146711 -0.70419,0.0623573 C 2.479578,0.28836967 2.1547743,0.56957557 2.0323028,0.63928814 1.9098313,0.70900073 1.500525,0.84560639 1.3921926,0.93522715 1.2838603,1.0248479 1.0762212,1.3985948 0.98531958,1.5054007 0.89441793,1.6122065 0.55716975,1.8786905 0.48646081,1.9994363 0.41575187,2.1201819 0.35016814,2.5416032 0.30180038,2.67262 0.25343263,2.8036367 0.02904027,3.1678438 0.00448332,3.3051507 c -0.02455696,0.1373071 0.05994573,0.5551187 0.05994573,0.6945437 0,0.1394253 -0.08450269,0.5572368 -0.05994573,0.6945437 0.02455695,0.1373071 0.24894931,0.5015142 0.29731706,0.632531 0.0483678,0.1310168 0.11395149,0.5520935 0.18466043,0.6728392 0.0707089,0.1207458 0.40795712,0.3872296 0.49885877,0.4940355 0.0909016,0.1068059 0.29854072,0.4805528 0.40687302,0.5701735 0.1083324,0.089621 0.5176387,0.2262265 0.6401102,0.295939 0.1224715,0.069713 0.4472752,0.3509185 0.5801646,0.3986047 0.1328893,0.047686 0.5649207,0.038146 0.70419,0.062357 0.1392695,0.024211 0.5421015,0.1788037 0.6835192,0.1788037 0.1414179,0 0.5439052,-0.1545928 0.6831747,-0.1788037 C 4.8226208,7.7965074 5.2549967,7.8060479 5.387886,7.758361 5.5207754,7.7106748 5.8452344,7.4294689 5.9677059,7.3597563 6.0901774,7.2900438 6.4998283,7.1534381 6.6081608,7.0638173 6.716493,6.9741966 6.9241322,6.6004497 7.0150337,6.4936438 7.1059354,6.3868379 7.4431836,6.1203539 7.5138925,5.9996083 7.5846015,5.8788624 7.6498407,5.4577859 7.6982084,5.3267691 7.7465762,5.1957523 7.9709686,4.8315452 7.9955255,4.6942381 8.0200825,4.5569312 7.9355797,4.1391197 7.9355797,3.9996944 c 0,-0.139425 0.084503,-0.5572366 0.059946,-0.6945437 C 7.9709686,3.1678438 7.7465762,2.8036367 7.6982084,2.67262 7.6498407,2.5416032 7.5846015,2.1201819 7.5138925,1.9994363 7.4431836,1.8786905 7.1059354,1.6122066 7.0150337,1.5054007 6.9241322,1.3985948 6.716493,1.0248479 6.6081608,0.93522715 6.4998283,0.84560637 6.0901774,0.70900073 5.9677059,0.63928814 5.8452344,0.56957557 5.5207754,0.28836967 5.387886,0.24068345 5.2549967,0.19299724 4.8226208,0.20253703 4.6833513,0.17832611 4.544082,0.15411518 4.1415945,-4.7755156e-4 4.0001766,-4.7755156e-4 Z m 0,0.43443432156 c 0.1260566,0 0.4849624,0.13792975 0.6091038,0.15951078 0.1241415,0.021581 0.5092534,0.0129606 0.6277077,0.055467 0.1184543,0.0425064 0.40795,0.29340009 0.5171182,0.35554025 0.1091681,0.06214 0.473953,0.1840132 0.570518,0.2638991 0.096565,0.079886 0.2817475,0.4129565 0.3627749,0.5081607 0.081028,0.095204 0.3817417,0.3326611 0.4447699,0.440291 0.063028,0.10763 0.1212202,0.4830166 0.1643339,0.5998019 0.043114,0.1167853 0.2433877,0.44158 0.2652773,0.5639723 0.021889,0.1223921 -0.053745,0.4948144 -0.053745,0.6190946 0,0.1242804 0.075634,0.4967028 0.053745,0.6190949 C 7.5398907,4.7411814 7.339617,5.0656318 7.296503,5.1824169 7.2533893,5.2992022 7.1951974,5.674589 7.1321691,5.7822188 7.0691409,5.8898487 6.7684269,6.1276502 6.6873992,6.2228545 6.6063718,6.3180587 6.4211891,6.6511294 6.3246243,6.7310151 6.2280593,6.8109009 5.8632744,6.9327741 5.7541063,6.9949142 5.6449381,7.0570543 5.3554424,7.3076035 5.2369881,7.3501099 5.1185338,7.3926163 4.7334219,7.3839959 4.6092804,7.4055769 4.485139,7.427158 4.1262332,7.5650877 4.0001766,7.5650877 3.8741201,7.5650877 3.5152144,7.427158 3.3910728,7.4055769 3.2669314,7.3839959 2.8814751,7.3926156 2.7630206,7.3501099 2.6445663,7.3076035 2.3550708,7.0570543 2.2459026,6.9949142 2.1367345,6.9327741 1.7719495,6.8109009 1.6753846,6.7310151 1.5788197,6.6511294 1.3936371,6.3180587 1.3126095,6.2228545 1.2315819,6.1276502 0.93121248,5.8898487 0.86818423,5.7822188 0.80515598,5.674589 0.74661958,5.2992022 0.70350571,5.1824169 0.66039186,5.0656318 0.46046262,4.7411814 0.43857312,4.6187893 0.41668364,4.4963972 0.49197306,4.1239748 0.49197306,3.9996944 c 0,-0.1242802 -0.0752894,-0.4967025 -0.0533999,-0.6190946 C 0.46046262,3.2582075 0.66039186,2.9334128 0.70350571,2.8166275 0.74661958,2.6998422 0.80515598,2.3244556 0.86818423,2.2168256 0.93121248,2.1091957 1.2315819,1.8717387 1.3126095,1.7765346 1.3936371,1.6813303 1.5788197,1.3482597 1.6753846,1.2683739 1.7719495,1.1884881 2.1367345,1.0666149 2.2459026,1.0044748 2.3550708,0.94233467 2.6445663,0.69144094 2.7630206,0.64893458 2.8814751,0.60642822 3.2669314,0.61504859 3.3910728,0.59346755 3.5152144,0.57188652 3.8741201,0.43395677 4.0001766,0.43395677 Z"
       id="path4509-4" />
  </g>
</svg>
