<?xml version="1.0" encoding="UTF-8" standalone="no"?>
<!-- Created with Inkscape (http://www.inkscape.org/) -->

<svg
   xmlns:dc="http://purl.org/dc/elements/1.1/"
   xmlns:cc="http://creativecommons.org/ns#"
   xmlns:rdf="http://www.w3.org/1999/02/22-rdf-syntax-ns#"
   xmlns:svg="http://www.w3.org/2000/svg"
   xmlns="http://www.w3.org/2000/svg"
   xmlns:sodipodi="http://sodipodi.sourceforge.net/DTD/sodipodi-0.dtd"
   xmlns:inkscape="http://www.inkscape.org/namespaces/inkscape"
   width="17mm"
   height="17mm"
   viewBox="0 0 16.999998 17"
   version="1.1"
   id="svg111794"
   inkscape:version="0.92.1 r15371"
   sodipodi:docname="AdsynthVUmeter.svg">
  <defs
     id="defs111788">
    <inkscape:path-effect
       effect="ruler"
       id="path-effect6643"
       is_visible="true"
       unit="px"
       mark_distance="0.37"
       mark_length="2"
       minor_mark_length="1"
       major_mark_steps="5"
       shift="9"
       offset="6.3"
       mark_dir="right"
       border_marks="none" />
    <inkscape:path-effect
       effect="bspline"
       id="path-effect4593"
       is_visible="true"
       weight="33.333333"
       steps="2"
       helper_size="0"
       apply_no_weight="true"
       apply_with_weight="true"
       only_selected="false" />
    <inkscape:path-effect
       effect="ruler"
       id="path-effect4574"
       is_visible="true"
       unit="px"
       mark_distance="1"
       mark_length="1"
       minor_mark_length="1"
       major_mark_steps="5"
       shift="0"
       offset="9"
       mark_dir="right"
       border_marks="none" />
    <inkscape:path-effect
       effect="bspline"
       id="path-effect4572"
       is_visible="true"
       weight="33.333333"
       steps="2"
       helper_size="0"
       apply_no_weight="true"
       apply_with_weight="true"
       only_selected="false" />
  </defs>
  <sodipodi:namedview
     id="base"
     pagecolor="#ffffff"
     bordercolor="#666666"
     borderopacity="1.0"
     inkscape:pageopacity="0.0"
     inkscape:pageshadow="2"
     inkscape:zoom="3.9999998"
     inkscape:cx="-32.285321"
     inkscape:cy="26.698513"
     inkscape:document-units="mm"
     inkscape:current-layer="layer4"
     showgrid="false"
     fit-margin-top="0"
     fit-margin-left="0"
     fit-margin-right="0"
     fit-margin-bottom="0"
     inkscape:window-width="1858"
     inkscape:window-height="1057"
     inkscape:window-x="-8"
     inkscape:window-y="-8"
     inkscape:window-maximized="1"
     showguides="true"
     inkscape:guide-bbox="true"
     inkscape:snap-bbox="true"
     inkscape:bbox-paths="true"
     inkscape:bbox-nodes="true"
     inkscape:snap-bbox-edge-midpoints="true"
     inkscape:snap-bbox-midpoints="true"
     inkscape:snap-global="true">
    <sodipodi:guide
       position="8.4999995,8.4999995"
       orientation="1,0"
       id="guide4505"
       inkscape:locked="false"
       inkscape:label=""
       inkscape:color="rgb(0,0,255)" />
    <sodipodi:guide
       position="8.4999995,8.4999995"
       orientation="0,1"
       id="guide4507"
       inkscape:locked="false"
       inkscape:label=""
       inkscape:color="rgb(0,0,255)" />
    <sodipodi:guide
       position="8.3293741,2.5972164"
       orientation="0,1"
       id="guide4546"
       inkscape:locked="false" />
    <sodipodi:guide
       position="8.4999997,4.9999997"
       orientation="-0.76604444,-0.64278761"
       id="guide4578"
       inkscape:locked="false"
       inkscape:label=""
       inkscape:color="rgb(0,0,255)" />
    <sodipodi:guide
       position="8.4999995,4.9999997"
       orientation="-0.76604444,0.64278761"
       id="guide4580"
       inkscape:locked="false"
       inkscape:label=""
       inkscape:color="rgb(0,0,255)" />
    <sodipodi:guide
       position="0.59216778,11.452794"
       orientation="1,0"
       id="guide4586"
       inkscape:locked="false" />
    <sodipodi:guide
       position="8.3292401,16.11146"
       orientation="0,1"
       id="guide4589"
       inkscape:locked="false" />
    <sodipodi:guide
       position="8.3292401,-1.9482089"
       orientation="0,1"
       id="guide4649"
       inkscape:locked="false" />
    <sodipodi:guide
       position="-0.30395343,17.00539"
       orientation="0,1"
       id="guide6541"
       inkscape:locked="false" />
    <sodipodi:guide
       position="-0.30395353,17.005391"
       orientation="1,0"
       id="guide6605"
       inkscape:locked="false" />
    <sodipodi:guide
       position="1.4774695,12.326986"
       orientation="0,1"
       id="guide6609"
       inkscape:locked="false" />
    <sodipodi:guide
       position="1.7071841,4.9999997"
       orientation="0,1"
       id="guide7581"
       inkscape:locked="false"
       inkscape:label=""
       inkscape:color="rgb(0,0,255)" />
  </sodipodi:namedview>
  <metadata
     id="metadata111791">
    <rdf:RDF>
      <cc:Work
         rdf:about="">
        <dc:format>image/svg+xml</dc:format>
        <dc:type
           rdf:resource="http://purl.org/dc/dcmitype/StillImage" />
        <dc:title></dc:title>
      </cc:Work>
    </rdf:RDF>
  </metadata>
  <g
     inkscape:label="Layer 1"
     inkscape:groupmode="layer"
     id="layer1"
     transform="translate(-164.22675,-62.496425)"
     style="display:inline">
    <path
       style="opacity:1;fill:#999999;fill-opacity:1;stroke:none;stroke-width:0.30000001;stroke-linecap:round;stroke-linejoin:round;stroke-miterlimit:4;stroke-dasharray:none;stroke-dashoffset:0;stroke-opacity:1;paint-order:normal"
       d="m 178.74301,75.546898 a 7.5524912,7.5529872 0 0 0 -0.10039,-0.140134 7.5524912,7.5529872 0 0 0 -0.49818,-0.567227 7.5524912,7.5529872 0 0 0 -0.55213,-0.51452 7.5524912,7.5529872 0 0 0 -0.60106,-0.457212 7.5524912,7.5529872 0 0 0 -0.64374,-0.394465 7.5524912,7.5529872 0 0 0 -0.67971,-0.328373 7.5524912,7.5529872 0 0 0 -0.70899,-0.258934 7.5524912,7.5529872 0 0 0 -0.73157,-0.186565 7.5524912,7.5529872 0 0 0 -0.74664,-0.112943 7.5524912,7.5529872 0 0 0 -0.75374,-0.03765 7.5524912,7.5529872 0 0 0 -0.53415,0.01882 7.5524912,7.5529872 0 0 0 -0.74955,0.09077 7.5524912,7.5529872 0 0 0 -0.7366,0.16565 7.5524912,7.5529872 0 0 0 -0.71652,0.238018 7.5524912,7.5529872 0 0 0 -0.6889,0.308294 7.5524912,7.5529872 0 0 0 -0.65504,0.375641 7.5524912,7.5529872 0 0 0 -0.61403,0.439225 7.5524912,7.5529872 0 0 0 -0.56719,0.498206 7.5524912,7.5529872 0 0 0 -0.51449,0.552587 7.5524912,7.5529872 0 0 0 -0.24009,0.315405 7.5524912,7.5529872 0 0 0 6.01656,2.99802 7.5524912,7.5529872 0 0 0 6.01615,-3.002622 z"
       id="path4535"
       inkscape:connector-curvature="0" />
    <ellipse
       style="opacity:1;fill:#e6e6e6;fill-opacity:1;stroke:#333333;stroke-width:0.2;stroke-linecap:round;stroke-linejoin:round;stroke-miterlimit:4;stroke-dasharray:none;stroke-dashoffset:0;stroke-opacity:1;paint-order:normal"
       id="path4499"
       cx="172.72675"
       cy="70.996422"
       rx="8.2339449"
       ry="8.2344866" />
    <path
       style="opacity:1;fill:#e3e2db;fill-opacity:1;stroke:#c8c4b7;stroke-width:0.19999999;stroke-linecap:round;stroke-linejoin:round;stroke-miterlimit:4;stroke-dasharray:none;stroke-dashoffset:0;stroke-opacity:1;paint-order:normal"
       d="m 172.72686,64.110746 a 6.7197991,6.7205929 0 0 0 -6.71969,6.720554 6.7197991,6.7205929 0 0 0 0.23256,1.712557 9.834308,7.0165913 0 0 1 6.48713,-1.75648 9.834308,7.0165913 0 0 1 6.49006,1.758571 6.7197991,6.7205929 0 0 0 0.22964,-1.714648 6.7197991,6.7205929 0 0 0 -6.7197,-6.720554 z"
       id="path4499-3"
       inkscape:connector-curvature="0" />
    <path
       style="opacity:1;fill:none;fill-opacity:1;stroke:#dcd2a3;stroke-width:0.5;stroke-linecap:round;stroke-linejoin:round;stroke-miterlimit:4;stroke-dasharray:none;stroke-dashoffset:0;stroke-opacity:1;paint-order:normal"
       d="m 172.72686,63.413843 c -4.16168,-6.1e-5 -7.5354,3.373884 -7.53534,7.535838 1e-4,1.697494 0.57329,3.345234 1.6267,4.676276 3.50892,-1.330694 7.20287,-2.08455 11.80725,0 1.05686,-1.329773 1.63348,-2.977633 1.63632,-4.676276 5e-5,-4.16179 -3.37341,-7.535667 -7.53493,-7.535838 z"
       id="path4716"
       inkscape:connector-curvature="0"
       sodipodi:nodetypes="cccccc" />
    <path
       style="opacity:1;fill:#f9f9f9;fill-opacity:1;stroke:#dcd2a3;stroke-width:0.30000001;stroke-linecap:round;stroke-linejoin:round;stroke-miterlimit:4;stroke-dasharray:none;stroke-dashoffset:0;stroke-opacity:1;paint-order:normal"
       d="m 168.7336,72.670295 c 2.56177,-0.847306 5.20917,-0.97141 7.98631,0 0.42328,0.148057 0.80943,0.361027 0.80943,0.809478 v 2.984626 c 0,0.448451 -0.37143,0.713349 -0.80943,0.809478 -2.77714,0.609512 -5.42454,0.531643 -7.98631,0 -0.43906,-0.09112 -0.80942,-0.361027 -0.80942,-0.809478 v -2.984626 c 0,-0.448451 0.38368,-0.668665 0.80942,-0.809478 z"
       id="rect4725"
       inkscape:connector-curvature="0"
       sodipodi:nodetypes="sssssssss" />
    <g
       aria-label="VU/dB"
       transform="scale(0.99996712,1.0000329)"
       style="font-style:normal;font-variant:normal;font-weight:normal;font-stretch:normal;font-size:2.85556269px;line-height:0.80000001;font-family:Steagisler;-inkscape-font-specification:Steagisler;font-variant-ligatures:normal;font-variant-caps:normal;font-variant-numeric:normal;font-feature-settings:normal;text-align:center;letter-spacing:0px;word-spacing:0px;writing-mode:lr-tb;text-anchor:middle;fill:#666666;fill-opacity:1;stroke:none;stroke-width:0.26458332"
       id="text4749">
      <path
         d="m 169.30242,73.959879 h 0.343 l 0.27189,1.790304 q 0.003,0.01394 0.0167,0.01394 0.0153,0 0.0181,-0.01394 l 0.27189,-1.790304 h 0.343 l -0.39459,2.138884 h -0.47546 z"
         style="fill:#666666;fill-opacity:1;stroke-width:0.26458332"
         id="path6944" />
      <path
         d="m 172.0799,75.651187 q 0,0.231456 -0.18405,0.370888 -0.16872,0.126883 -0.41551,0.126883 -0.24819,0 -0.4169,-0.126883 -0.18266,-0.139432 -0.18266,-0.370888 v -1.691308 h 0.33603 v 1.678759 q 0,0.101785 0.0809,0.164529 0.0739,0.05717 0.18266,0.05717 0.10876,0 0.18266,-0.05717 0.0795,-0.06274 0.0795,-0.164529 v -1.678759 h 0.33743 z"
         style="fill:#666666;fill-opacity:1;stroke-width:0.26458332"
         id="path6946" />
      <path
         d="m 173.02803,73.961273 -0.37646,2.13749 h -0.22728 l 0.37786,-2.13749 z"
         style="fill:#666666;fill-opacity:1;stroke-width:0.26458332"
         id="path6948" />
      <path
         d="m 174.49764,76.098763 h -0.32766 q -0.0181,-0.03625 -0.0279,-0.07669 -0.003,-0.0084 -0.0126,-0.01116 -0.003,-0.0014 -0.004,-0.0014 -0.006,0 -0.0111,0.0056 -0.1227,0.1227 -0.34161,0.1227 -0.22867,0 -0.35137,-0.13246 -0.11712,-0.128277 -0.11712,-0.361128 v -0.617683 q 0,-0.231457 0.12549,-0.361128 0.12688,-0.13246 0.35694,-0.13246 0.18963,0 0.31233,0.09202 0.004,0.0042 0.01,0.0042 0.003,0 0.007,-0.0028 0.01,-0.0042 0.01,-0.01394 v -0.651147 h 0.32069 v 1.918582 q 0,0.100391 0.0516,0.218908 z m -0.37228,-1.059682 q 0,-0.101785 -0.0767,-0.163135 -0.0697,-0.05577 -0.17429,-0.05577 -0.10318,0 -0.17429,0.05577 -0.0753,0.06135 -0.0753,0.163135 v 0.593979 q 0,0.100391 0.0753,0.161741 0.0711,0.05717 0.17429,0.05717 0.10458,0 0.17429,-0.05717 0.0767,-0.06135 0.0767,-0.161741 z"
         style="fill:#666666;fill-opacity:1;stroke-width:0.26458332"
         id="path6950" />
      <path
         d="m 174.86295,73.959879 h 0.59538 q 0.244,0 0.40296,0.135249 0.17289,0.138037 0.17289,0.362523 v 0.202176 q 0,0.239822 -0.20357,0.348579 -0.01,0.0042 -0.01,0.01394 0.001,0.01115 0.01,0.01534 0.23146,0.105968 0.23146,0.361128 v 0.200782 q 0,0.232851 -0.18266,0.370888 -0.16871,0.126883 -0.4169,0.126883 l -0.59956,0.0014 z m 0.33743,1.832134 q 0,0.01673 0.0167,0.01673 h 0.2454 q 0.10876,0 0.18266,-0.05717 0.0809,-0.06135 0.0809,-0.163135 v -0.136643 q 0,-0.121306 -0.0669,-0.204965 -0.0739,-0.09203 -0.1966,-0.09203 h -0.2454 q -0.0167,0 -0.0167,0.01673 z m 0,-0.918856 q 0,0.01673 0.0167,0.01673 h 0.21751 q 0.1227,0 0.1966,-0.09202 0.0669,-0.08366 0.0669,-0.204965 v -0.1227 q 0,-0.10039 -0.0795,-0.163135 -0.0725,-0.05717 -0.17986,-0.05717 h -0.2217 q -0.0167,0 -0.0167,0.01673 z"
         style="fill:#666666;fill-opacity:1;stroke-width:0.26458332"
         id="path6952" />
    </g>
  </g>
  <g
     inkscape:groupmode="layer"
     id="layer2"
     inkscape:label="Layer 2"
     style="display:inline"
     transform="translate(-2.1707592,-1.8743872)" />
  <g
     inkscape:groupmode="layer"
     id="layer3"
     inkscape:label="tick"
     style="display:inline"
     transform="translate(-2.1707592,-1.8743872)" />
  <g
     inkscape:groupmode="layer"
     id="layer4"
     inkscape:label="mask"
     transform="translate(-2.1707592,-1.8743872)">
    <path
       inkscape:connector-curvature="0"
       id="path6825"
       style="fill:#cccccc;fill-opacity:1;fill-rule:nonzero;stroke:none;stroke-width:0.26458332;stroke-miterlimit:4;stroke-dasharray:none;stroke-opacity:1"
       d="m 3.682838,4.6726251 c -0.7085751,0 -1.284961,-0.5762209 -1.284961,-1.2848414 0,-0.7086204 0.5763859,-1.2850431 1.284961,-1.2850431 0.7085752,0 1.2849611,0.5764227 1.2849611,1.2850431 0,0.7086205 -0.5763859,1.2848414 -1.2849611,1.2848414" />
    <path
       d="M 3.8404561,4.220327 H 3.5252199 V 2.5552405 h 0.3152362 z"
       style="fill:#999999;fill-opacity:1;fill-rule:nonzero;stroke:none;stroke-width:0.35277778"
       id="path6839"
       inkscape:connector-curvature="0" />
    <path
       d="M 4.5153281,3.545412 H 2.850348 V 3.2301556 h 1.6649801 z"
       style="fill:#999999;fill-opacity:1;fill-rule:nonzero;stroke:none;stroke-width:0.35277778"
       id="path6841"
       inkscape:connector-curvature="0" />
    <path
       inkscape:connector-curvature="0"
       id="path6825-1"
       style="fill:#cccccc;fill-opacity:1;fill-rule:nonzero;stroke:none;stroke-width:0.26458332;stroke-miterlimit:4;stroke-dasharray:none;stroke-opacity:1"
       d="m 17.698651,4.6727221 c -0.708575,0 -1.28496,-0.5762207 -1.28496,-1.2848412 0,-0.7086205 0.576385,-1.2850431 1.28496,-1.2850431 0.708575,0 1.284962,0.5764226 1.284962,1.2850431 0,0.7086205 -0.576387,1.2848412 -1.284962,1.2848412" />
    <path
       d="M 17.856269,4.2204241 H 17.541033 V 2.5553376 h 0.315236 z"
       style="fill:#999999;fill-opacity:1;fill-rule:nonzero;stroke:none;stroke-width:0.35277778"
       id="path6839-3"
       inkscape:connector-curvature="0" />
    <path
       d="M 18.531142,3.5455091 H 16.866161 V 3.2302528 h 1.664981 z"
       style="fill:#999999;fill-opacity:1;fill-rule:nonzero;stroke:none;stroke-width:0.35277778"
       id="path6841-9"
       inkscape:connector-curvature="0" />
    <path
       inkscape:connector-curvature="0"
       id="path6825-9"
       style="fill:#cccccc;fill-opacity:1;fill-rule:nonzero;stroke:none;stroke-width:0.26458332;stroke-miterlimit:4;stroke-dasharray:none;stroke-opacity:1"
       d="m 3.6828396,18.737856 c -0.708575,0 -1.2849611,-0.576221 -1.2849611,-1.284842 0,-0.70862 0.5763861,-1.285042 1.2849611,-1.285042 0.7085757,0 1.284961,0.576422 1.284961,1.285042 0,0.708621 -0.5763853,1.284842 -1.284961,1.284842" />
    <path
       d="M 3.8404579,18.285557 H 3.525222 v -1.665086 h 0.3152359 z"
       style="fill:#999999;fill-opacity:1;fill-rule:nonzero;stroke:none;stroke-width:0.35277778"
       id="path6839-9"
       inkscape:connector-curvature="0" />
    <path
       d="M 4.51533,17.610642 H 2.8503499 V 17.295385 H 4.51533 Z"
       style="fill:#999999;fill-opacity:1;fill-rule:nonzero;stroke:none;stroke-width:0.35277778"
       id="path6841-8"
       inkscape:connector-curvature="0" />
    <path
       inkscape:connector-curvature="0"
       id="path6825-1-6"
       style="fill:#cccccc;fill-opacity:1;fill-rule:nonzero;stroke:none;stroke-width:0.26458332;stroke-miterlimit:4;stroke-dasharray:none;stroke-opacity:1"
       d="m 17.698653,18.737954 c -0.708576,0 -1.28496,-0.576222 -1.28496,-1.284843 0,-0.70862 0.576384,-1.285042 1.28496,-1.285042 0.708575,0 1.284962,0.576422 1.284962,1.285042 0,0.708621 -0.576387,1.284843 -1.284962,1.284843" />
    <path
       d="m 17.856271,18.285655 h -0.315235 v -1.665087 h 0.315235 z"
       style="fill:#999999;fill-opacity:1;fill-rule:nonzero;stroke:none;stroke-width:0.35277778"
       id="path6839-3-4"
       inkscape:connector-curvature="0" />
    <path
       d="m 18.531143,17.610739 h -1.664979 v -0.315256 h 1.664979 z"
       style="fill:#999999;fill-opacity:1;fill-rule:nonzero;stroke:none;stroke-width:0.35277778"
       id="path6841-9-2"
       inkscape:connector-curvature="0" />
    <path
       style="fill:none;stroke:#dcd2a3;stroke-width:0.165;stroke-linecap:butt;stroke-linejoin:miter;stroke-opacity:1;stroke-miterlimit:4;stroke-dasharray:none"
       d="m 10.666798,6.0630684 c 2.389148,0.015581 4.234834,0.8028783 5.205831,1.4292527"
       id="path6611-7"
       inkscape:connector-curvature="0"
       sodipodi:nodetypes="cc" />
    <path
       style="fill:none;stroke:#b54545;stroke-width:0.26458332px;stroke-linecap:butt;stroke-linejoin:miter;stroke-opacity:1"
       d="m 13.299736,6.7875192 c 0.793199,0.1637647 1.642587,0.5644988 2.382794,1.0054926"
       id="path6611-7-8"
       inkscape:connector-curvature="0"
       sodipodi:nodetypes="cc" />
    <path
       style="fill:none;stroke:#666666;stroke-width:0.165;stroke-linecap:butt;stroke-linejoin:miter;stroke-opacity:1;stroke-miterlimit:4;stroke-dasharray:none"
       d="M 5.1247667,7.1748443 C 6.4810922,6.3278474 7.9192791,5.664405 10.670757,5.6604042 c 3.386976,0.1397286 4.941925,1.2923194 5.376195,1.5144401 M 11.131726,5.6862924 11.060503,6.6837528 M 11.500414,5.717304 11.4038,6.7126259 M 11.868164,5.7579425 11.744893,6.7503156 M 12.234655,5.8086885 12.083397,6.7971828 M 12.599518,5.8700452 12.238246,7.8371451 M 12.962332,5.9425379 12.75087,6.9199242 M 13.322612,6.0267117 13.078828,6.996541 M 13.67981,6.1231281 13.402167,7.0838126 m 0.63113,-0.8514545 -0.313048,0.9497375 M 14.382365,6.3549703 13.682431,8.2284944 M 14.726224,6.4915043 14.337961,7.413053 M 15.064022,6.6424069 14.636498,7.5464108 M 15.394945,6.8078413 14.928507,7.6923955 M 15.718701,6.9869116 15.219354,7.853314 m 0.820253,-0.6822594 -0.923001,1.7742803"
       id="path6611"
       inkscape:connector-curvature="0"
       sodipodi:nodetypes="ccc"
       inkscape:path-effect="#path-effect6643"
       inkscape:original-d="M 5.1247667,7.1748443 C 6.4810922,6.3278474 7.9192791,5.664405 10.670757,5.6604042 c 3.386976,0.1397286 4.941925,1.2923194 5.376195,1.5144401" />
  </g>
</svg>
