<?xml version="1.0" encoding="UTF-8" standalone="no"?>
<!-- Created with Inkscape (http://www.inkscape.org/) -->

<svg
   xmlns:dc="http://purl.org/dc/elements/1.1/"
   xmlns:cc="http://creativecommons.org/ns#"
   xmlns:rdf="http://www.w3.org/1999/02/22-rdf-syntax-ns#"
   xmlns:svg="http://www.w3.org/2000/svg"
   xmlns="http://www.w3.org/2000/svg"
   xmlns:sodipodi="http://sodipodi.sourceforge.net/DTD/sodipodi-0.dtd"
   xmlns:inkscape="http://www.inkscape.org/namespaces/inkscape"
   width="8.3556204mm"
   height="8.3556299mm"
   viewBox="0 0 8.3556203 8.3556298"
   version="1.1"
   id="svg15246"
   sodipodi:docname="AdsynthJackTeal.svg"
   inkscape:version="0.92.1 r15371">
  <defs
     id="defs15240">
    <clipPath
       id="clip89">
      <rect
         y="0"
         x="0"
         width="18"
         height="19"
         id="rect4864" />
    </clipPath>
    <clipPath
       id="clip90">
      <path
         inkscape:connector-curvature="0"
         d="m 0.898438,0.128906 h 16.25 v 17.882813 h -16.25 z m 0,0"
         id="path4861" />
    </clipPath>
    <mask
       id="mask44">
      <g
         style="filter:url(#alpha)"
         id="g4858"
         transform="matrix(0.26458333,0,0,0.26458333,89.358789,128.57765)">
        <rect
           x="0"
           y="0"
           width="3052.8701"
           height="3351.5"
           style="fill:#000000;fill-opacity:0.14999402;stroke:none"
           id="rect4856" />
      </g>
    </mask>
    <filter
       id="alpha"
       filterUnits="objectBoundingBox"
       x="0"
       y="0"
       width="1"
       height="1">
      <feColorMatrix
         type="matrix"
         in="SourceGraphic"
         values="0 0 0 0 1 0 0 0 0 1 0 0 0 0 1 0 0 0 1 0"
         id="feColorMatrix4149" />
    </filter>
    <clipPath
       id="clipPath17821">
      <rect
         y="0"
         x="0"
         width="18"
         height="19"
         id="rect17819" />
    </clipPath>
    <clipPath
       id="clipPath17825">
      <path
         inkscape:connector-curvature="0"
         d="m 0.898438,0.128906 h 16.25 v 17.882813 h -16.25 z m 0,0"
         id="path17823" />
    </clipPath>
    <clipPath
       id="clip87">
      <rect
         y="0"
         x="0"
         width="24"
         height="26"
         id="rect4848" />
    </clipPath>
    <clipPath
       id="clip88">
      <path
         inkscape:connector-curvature="0"
         d="m 0.683594,0.921875 h 22.679687 v 24.9375 H 0.683594 Z m 0,0"
         id="path4845" />
    </clipPath>
    <mask
       id="mask43">
      <g
         style="filter:url(#alpha)"
         id="g4842"
         transform="matrix(0.26458333,0,0,0.26458333,89.358789,128.57765)">
        <rect
           x="0"
           y="0"
           width="3052.8701"
           height="3351.5"
           style="fill:#000000;fill-opacity:0.14999402;stroke:none"
           id="rect4840" />
      </g>
    </mask>
    <filter
       id="filter17836"
       filterUnits="objectBoundingBox"
       x="0"
       y="0"
       width="1"
       height="1">
      <feColorMatrix
         type="matrix"
         in="SourceGraphic"
         values="0 0 0 0 1 0 0 0 0 1 0 0 0 0 1 0 0 0 1 0"
         id="feColorMatrix17834" />
    </filter>
    <clipPath
       id="clipPath17840">
      <rect
         y="0"
         x="0"
         width="24"
         height="26"
         id="rect17838" />
    </clipPath>
    <clipPath
       id="clipPath17844">
      <path
         inkscape:connector-curvature="0"
         d="m 0.683594,0.921875 h 22.679687 v 24.9375 H 0.683594 Z m 0,0"
         id="path17842" />
    </clipPath>
  </defs>
  <sodipodi:namedview
     id="base"
     pagecolor="#ffffff"
     bordercolor="#666666"
     borderopacity="1.0"
     inkscape:pageopacity="0.0"
     inkscape:pageshadow="2"
     inkscape:zoom="11.2"
     inkscape:cx="-44.360859"
     inkscape:cy="14.018045"
     inkscape:document-units="mm"
     inkscape:current-layer="layer1"
     showgrid="false"
     inkscape:window-width="1857"
     inkscape:window-height="1057"
     inkscape:window-x="-8"
     inkscape:window-y="-8"
     inkscape:window-maximized="1"
     units="px"
     fit-margin-top="0"
     fit-margin-left="0"
     fit-margin-right="0"
     fit-margin-bottom="0"
     inkscape:snap-bbox="true"
     inkscape:bbox-paths="true"
     inkscape:bbox-nodes="true"
     inkscape:snap-bbox-midpoints="true"
     inkscape:snap-bbox-edge-midpoints="true"
     showguides="true"
     inkscape:guide-bbox="true">
    <sodipodi:guide
       position="4.17781,4.1778148"
       orientation="1,0"
       inkscape:locked="false"
       id="guide4525" />
    <sodipodi:guide
       position="4.1778085,4.1777948"
       orientation="0,1"
       inkscape:locked="false"
       id="guide4527" />
  </sodipodi:namedview>
  <metadata
     id="metadata15243">
    <rdf:RDF>
      <cc:Work
         rdf:about="">
        <dc:format>image/svg+xml</dc:format>
        <dc:type
           rdf:resource="http://purl.org/dc/dcmitype/StillImage" />
        <dc:title />
      </cc:Work>
    </rdf:RDF>
  </metadata>
  <g
     inkscape:label="Layer 1"
     inkscape:groupmode="layer"
     id="layer1"
     transform="translate(-88.611154,-119.19859)">
    <path
       inkscape:connector-curvature="0"
       id="path7255"
       d="m 92.788964,127.42922 c -2.235179,0 -4.05281,-1.81762 -4.05281,-4.05282 0,-2.23516 1.817631,-4.05281 4.05281,-4.05281 2.235176,0 4.05281,1.81765 4.05281,4.05281 0,2.2352 -1.817634,4.05282 -4.05281,4.05282"
       style="fill:#247c76;fill-opacity:1;fill-rule:nonzero;stroke:#96e0db;stroke-width:0.25;stroke-miterlimit:4;stroke-dasharray:none;stroke-opacity:1" />
    <path
       sodipodi:type="star"
       style="opacity:0.97000002;fill:#b3b3b3;fill-opacity:1;stroke:#636663;stroke-width:0.23885961;stroke-linecap:butt;stroke-miterlimit:4;stroke-dasharray:none;stroke-dashoffset:0;stroke-opacity:1;paint-order:normal"
       id="path4529"
       sodipodi:sides="6"
       sodipodi:cx="92.788963"
       sodipodi:cy="123.37643"
       sodipodi:r1="3.1777153"
       sodipodi:r2="2.7519822"
       sodipodi:arg1="-3.8101156e-016"
       sodipodi:arg2="0.52359878"
       inkscape:flatsided="true"
       inkscape:rounded="0.09"
       inkscape:randomized="0"
       d="m 95.966679,123.37643 c 0,0.28599 -1.34118,2.60898 -1.588858,2.75198 -0.247678,0.143 -2.930037,0.143 -3.177715,0 -0.247679,-0.143 -1.588858,-2.46599 -1.588858,-2.75198 0,-0.286 1.341179,-2.60899 1.588858,-2.75199 0.247678,-0.14299 2.930037,-0.14299 3.177715,0 0.247678,0.143 1.588858,2.46599 1.588858,2.75199 z"
       transform="matrix(1.0465418,0,0,1.046738,-4.3185666,-5.7663704)" />
    <path
       sodipodi:type="star"
       style="opacity:1;fill:#e6e6e6;fill-opacity:1;stroke:none;stroke-width:0.26187205;stroke-linecap:butt;stroke-miterlimit:4;stroke-dasharray:none;stroke-dashoffset:0;stroke-opacity:1;paint-order:normal"
       id="path4529-6"
       sodipodi:sides="6"
       sodipodi:cx="92.788963"
       sodipodi:cy="123.37643"
       sodipodi:r1="3.1777153"
       sodipodi:r2="2.7519822"
       sodipodi:arg1="-3.8101156e-016"
       sodipodi:arg2="0.52359878"
       inkscape:flatsided="true"
       inkscape:rounded="0.16"
       inkscape:randomized="0"
       d="m 95.966679,123.37643 c 0,0.50843 -1.148541,2.49776 -1.588858,2.75198 -0.440317,0.25422 -2.737398,0.25422 -3.177715,0 -0.440317,-0.25422 -1.588858,-2.24355 -1.588858,-2.75198 0,-0.50844 1.148541,-2.49777 1.588858,-2.75199 0.440317,-0.25421 2.737398,-0.25421 3.177715,0 0.440317,0.25422 1.588858,2.24355 1.588858,2.75199 z"
       transform="matrix(0.95481567,0,0,0.95451359,4.1926083,5.6119492)" />
    <path
       inkscape:connector-curvature="0"
       id="path7265-4-9"
       d="m 95.259663,123.37638 c 0,1.36401 -1.106707,2.47074 -2.470696,2.47074 -1.363994,0 -2.470701,-1.10673 -2.470701,-2.47074 0,-1.36398 1.106707,-2.47065 2.470701,-2.47065 1.363989,0 2.470696,1.10667 2.470696,2.47065"
       style="fill:#999999;fill-opacity:1;fill-rule:nonzero;stroke:none;stroke-width:0.24999997;stroke-miterlimit:4;stroke-dasharray:none;stroke-opacity:1" />
    <path
       inkscape:connector-curvature="0"
       id="path7265-4"
       d="m 94.881684,123.37639 c 0,1.15534 -0.937399,2.09276 -2.09272,2.09276 -1.155325,0 -2.092724,-0.93742 -2.092724,-2.09276 0,-1.15531 0.937399,-2.09268 2.092724,-2.09268 1.155321,0 2.09272,0.93737 2.09272,2.09268"
       style="fill:#e6e6e6;fill-opacity:1;fill-rule:nonzero;stroke:#636663;stroke-width:0.24999997;stroke-miterlimit:4;stroke-dasharray:none;stroke-opacity:1" />
    <path
       inkscape:connector-curvature="0"
       id="path7265"
       d="m 94.413964,123.3764 c 0,0.89712 -0.727891,1.62503 -1.624998,1.62503 -0.897111,0 -1.625002,-0.72791 -1.625002,-1.62503 0,-0.8971 0.727891,-1.62497 1.625002,-1.62497 0.897107,0 1.624998,0.72787 1.624998,1.62497"
       style="fill:#000000;fill-opacity:1;fill-rule:nonzero;stroke:#636663;stroke-width:0.24999997;stroke-miterlimit:4;stroke-dasharray:none;stroke-opacity:1" />
  </g>
</svg>
